<svg width="123" height="39" viewBox="0 0 123 39" fill="none" xmlns="http://www.w3.org/2000/svg">
    <g clip-path="url(#clip0_1646_6024)">
        <path d="M9.36133 30.7527L11.5131 32.9484C11.5131 32.9484 13.3887 32.89 14.0191 32.4341C14.6482 31.9782 28.6228 33.6659 28.7487 33.5478C28.8745 33.4297 33.6157 33.3053 33.9945 32.9319C34.3719 32.5586 31.7708 18.5409 31.7708 18.5409L19.7618 15.874C19.7618 15.874 9.27788 20.8941 9.36261 30.7527H9.36133Z" fill="#CED5E0"/>
        <path d="M84.8125 31.149L87.5612 32.824C87.5612 32.824 89.8901 34.3035 90.7297 34.5105C91.5693 34.7175 107.725 31.149 107.725 31.149C107.725 31.149 109.614 31.2684 109.614 31.8729C109.614 32.4774 112.425 25.1853 112.425 25.1853L105.25 17.7422L90.2688 18.033C90.2688 18.033 83.0087 26.8744 84.8137 31.1503L84.8125 31.149Z" fill="#CED5E0"/>
        <path d="M113.828 30.8752H120.97C120.97 30.8752 121.725 29.9176 121.688 29.3334C121.651 28.748 114.351 29.3334 114.351 29.3334L113.829 30.8752H113.828Z" fill="#CED5E0"/>
        <path d="M53.5321 0.794667C53.5321 0.794667 54.251 -0.292406 55.9842 0.794667C57.7174 1.88174 58.1398 2.84309 57.4632 3.26217C56.7866 3.67998 44.5708 9.79603 44.1895 11.5676C43.8095 13.3392 35.3965 13.6732 35.3965 13.6732L37.2144 10.4539C37.2144 10.4539 50.1081 1.88174 53.5321 0.794667Z" fill="#CED5E0"/>
        <path d="M52.1302 11.1112C52.2971 11.3855 52.2085 11.7423 51.9312 11.9087C51.6539 12.0738 51.2932 11.9861 51.125 11.7118L48.927 8.10646C48.7601 7.83215 48.8487 7.4753 49.126 7.30894C49.4033 7.14384 49.7641 7.23147 49.9323 7.50578L52.1302 11.1112Z" fill="#CED5E0"/>
        <path d="M73.0832 3.81377C73.0832 3.81377 70.8519 4.99736 70.9906 7.10166C71.1292 9.20723 71.7121 10.0302 71.7121 10.0302L75.0732 10.6181C75.0732 10.6181 75.6689 6.89212 75.3877 5.82282C75.1066 4.7548 74.498 3.81123 73.0832 3.8125V3.81377Z" fill="#CED5E0"/>
        <path d="M72.1787 10.0618C72.1787 10.0618 72.343 8.36257 72.8078 8.07048C73.2725 7.7784 81.5161 7.44313 85.4896 7.65267C89.4631 7.86221 101.806 6.60751 104.765 8.19621C107.725 9.78491 73.451 10.9253 72.1787 10.063V10.0618Z" fill="#CED5E0"/>
        <path d="M31.1279 10.7459C31.1279 10.7459 32.1422 9.86835 32.7764 9.9509C33.4106 10.0347 36.2877 8.62254 37.7872 9.39086C39.2868 10.1592 35.398 12.459 35.398 12.459L31.1292 10.7446L31.1279 10.7459Z" fill="#CED5E0"/>
        <path d="M35.3965 11.1641C35.3965 11.1641 46.937 2.25796 54.0392 0C54.0392 0 55.0111 0.543536 54.7581 0.877532C54.5039 1.21153 49.348 2.50814 38.0605 10.6205C38.0605 10.6205 54.3768 10.1189 73.1454 9.53347C91.9139 8.94803 106.396 6.76881 106.552 8.56959C106.709 10.3704 35.566 12.4607 35.3965 11.1641Z" fill="#CED5E0"/>
        <path d="M118.969 10.2861C118.969 10.2861 120.153 12.0005 120.195 12.7117C120.237 13.4228 119.562 16.2535 119.349 16.5164C117.489 18.8163 112.923 15.6376 112.923 15.5132C112.923 15.3887 112.669 9.91017 118.968 10.2861H118.969Z" fill="#CED5E0"/>
        <path d="M11.5135 32.9501C11.5135 32.9501 9.44262 18.3152 21.9126 18.3152C34.3826 18.3152 33.1141 33.1177 33.1141 33.1177L87.5594 32.8256C87.5594 32.8256 86.4181 18.9857 98.5928 18.9857C110.767 18.9857 109.33 32.2821 109.33 32.2821L117.573 30.861C117.573 30.861 120.785 30.861 122.434 27.0562C122.434 27.0562 123.11 27.1401 122.983 26.2193C122.856 25.2999 122.561 25.2161 122.561 25.2161L122.73 21.0354C122.73 21.0354 120.659 19.655 120.575 19.2372C120.49 18.8194 119.561 15.976 119.561 15.976C119.561 15.976 116.728 16.5195 116.391 16.2274C116.053 15.9353 114.023 13.3002 114.235 12.5471C114.447 11.794 119.35 11.0841 119.35 11.0841C119.35 11.0841 120.364 9.87135 119.899 9.36972C119.435 8.86809 118.843 10.373 105.992 8.49219C105.992 8.49219 75.6826 10.039 73.3575 10.039C71.0325 10.039 37.6384 11.4194 35.651 10.9584C33.6636 10.4987 30.4515 9.95516 30.4515 9.95516C30.4515 9.95516 7.70943 12.2131 2.80643 17.8161C2.80643 17.8161 0.988505 19.5725 0.819037 24.59C0.819037 24.59 0.142451 25.3012 0.439019 25.3837C0.735587 25.4675 0.861404 26.387 0.988505 26.8467C1.11561 27.3064 0.988505 28.8532 0.988505 28.8532C0.988505 28.8532 -0.448117 30.6934 0.142451 31.195C0.734304 31.6966 3.98885 32.7418 11.5135 32.9513V32.9501Z" fill="#CED5E0"/>
        <path d="M92.5482 8.11264C92.5482 8.11264 93.8167 5.81278 91.5764 5.52069C89.3361 5.2286 86.7992 8.44791 86.7157 8.48982C86.631 8.53173 92.5495 8.11391 92.5495 8.11391L92.5482 8.11264Z" fill="#CED5E0"/>
        <path d="M2.46268 20.005C2.46268 20.005 2.30091 17.5604 5.09584 17.0715C7.89077 16.5825 10.8359 16.1533 10.9874 16.7324C11.1389 17.3115 8.2939 20.5638 6.09467 20.6235C3.89545 20.6832 4.59129 20.1041 4.03667 20.0647C3.48205 20.0254 2.53329 20.3238 2.46268 20.005Z" fill="#CED5E0"/>
        <path d="M1.73565 27.1214C1.73565 27.1214 1.48402 26.0838 1.78572 25.8743C2.08871 25.6648 4.24685 25.2952 4.68079 25.934C5.11473 26.5728 5.97234 28.0396 5.96207 28.8777C5.95179 29.7159 5.912 30.215 5.18534 30.1451C4.45868 30.0753 2.09898 30.3051 1.95776 29.6867C1.81653 29.0682 2.14905 28.1577 2.0181 27.8643C2.0181 27.8643 1.21698 27.9799 1.12968 27.8008C1.04366 27.6217 1.00899 27.162 1.20029 27.1417C1.39158 27.1214 1.73437 27.1214 1.73437 27.1214H1.73565Z" fill="#CED5E0"/>
        <path d="M34.9256 16.1648C34.9256 16.3249 34.7947 16.4557 34.6316 16.4557H32.8702C32.7084 16.4557 32.5762 16.3261 32.5762 16.1648C32.5762 16.0048 32.7071 15.874 32.8702 15.874H34.6316C34.7934 15.874 34.9256 16.0036 34.9256 16.1648Z" fill="#CED5E0"/>
        <path d="M72.1504 15.5357C72.1504 16.2837 71.5367 16.8907 70.7805 16.8907H69.1667C68.4106 16.8907 67.7969 16.2837 67.7969 15.5357C67.7969 14.7877 68.4106 14.1807 69.1667 14.1807H70.7805C71.5367 14.1807 72.1504 14.7877 72.1504 15.5357Z" fill="#CED5E0"/>
        <path d="M73.227 15.4868C73.227 15.7547 73.0075 15.9706 72.7379 15.9706H67.3573C67.0877 15.9706 66.8682 15.7535 66.8682 15.4868C66.8682 15.2201 67.0877 15.0029 67.3573 15.0029H72.7379C73.0075 15.0029 73.227 15.2201 73.227 15.4868Z" fill="#CED5E0"/>
        <path d="M122.558 24.4385C122.558 24.4385 119.111 25.73 117.366 25.9688C115.621 26.2075 115.734 26.558 115.976 26.7688C116.217 26.9796 120.083 27.1257 122.562 25.2144L122.558 24.4397V24.4385Z" fill="#CED5E0"/>
        <path d="M109.322 29.1958C109.322 29.1958 118.798 27.6655 118.798 28.5367C118.798 29.4079 109.365 30.768 109.365 30.768C109.365 30.768 109.393 29.6314 109.322 29.1958Z" fill="#CED5E0"/>
        <path d="M105.553 21.2928L105.537 21.1976C105.626 21.1836 114.419 19.84 115.578 19.5848C116.699 19.3384 116.513 16.321 116.51 16.2905L116.608 16.2842C116.617 16.4124 116.8 19.4159 115.599 19.68C114.437 19.9353 105.64 21.2801 105.551 21.2941L105.553 21.2928Z" fill="#CED5E0"/>
        <path d="M11.7471 16.4548C11.7471 16.4548 12.1322 16.3926 12.8563 16.2872C13.2184 16.2339 13.6638 16.1665 14.1889 16.0954C14.714 16.023 15.3174 15.9367 15.994 15.8503C16.6719 15.7652 17.4217 15.67 18.2382 15.5671C18.6465 15.5138 19.0714 15.4668 19.513 15.4173C19.9547 15.3677 20.4117 15.3157 20.8842 15.2623C21.3566 15.2103 21.8445 15.1519 22.3465 15.0998C22.8498 15.0503 23.3659 14.9982 23.8974 14.9449C24.4289 14.8928 24.9732 14.8382 25.5304 14.7836C25.809 14.7569 26.0915 14.7264 26.3765 14.7023C26.6615 14.6782 26.9504 14.654 27.2418 14.6299C28.4088 14.5334 29.6233 14.4331 30.8815 14.3277C32.1409 14.2451 33.4428 14.16 34.7818 14.0724C35.1169 14.0508 35.4533 14.028 35.7935 14.0076C36.1324 13.9899 36.4739 13.9708 36.818 13.953C37.5048 13.9187 38.2007 13.8845 38.9042 13.8489C40.3113 13.7816 41.7479 13.7206 43.2102 13.6597C44.6725 13.6013 46.158 13.5428 47.6626 13.4831C48.415 13.4552 49.1711 13.426 49.9325 13.3968C50.6938 13.3701 51.4577 13.3435 52.2254 13.3155C55.2951 13.2088 58.4148 13.1085 61.5346 13.0107C64.6543 12.918 67.774 12.8317 70.845 12.7504C73.916 12.6666 76.9381 12.6018 79.864 12.5383C82.7886 12.4735 85.6169 12.424 88.2989 12.3808C90.9808 12.3351 93.5164 12.3085 95.8569 12.2869C98.1973 12.2653 100.344 12.2577 102.245 12.2589C104.147 12.2615 105.805 12.2742 107.171 12.2996C107.513 12.3059 107.835 12.3097 108.139 12.3173C108.444 12.3262 108.729 12.3339 108.993 12.3415C109.125 12.3453 109.254 12.3491 109.376 12.3516C109.498 12.3567 109.616 12.3618 109.728 12.3656C109.952 12.3745 110.156 12.3834 110.339 12.391C110.521 12.3973 110.683 12.4075 110.821 12.4177C110.96 12.4266 111.078 12.4342 111.172 12.4405C111.361 12.452 111.458 12.4583 111.458 12.4583C111.458 12.4583 111.361 12.4545 111.172 12.4456C111.077 12.4418 110.96 12.4367 110.821 12.4304C110.683 12.424 110.521 12.4164 110.337 12.4139C109.607 12.3961 108.534 12.3821 107.169 12.3846C105.804 12.3834 104.147 12.4012 102.245 12.424C101.295 12.4393 100.284 12.4558 99.2167 12.4723C98.1498 12.4926 97.029 12.5129 95.8594 12.5345C93.5203 12.5866 90.9847 12.6437 88.304 12.7034C85.6233 12.772 82.7963 12.8444 79.8717 12.918C76.9471 12.9993 73.9262 13.0831 70.8553 13.1682C67.7843 13.2546 64.6659 13.3473 61.5474 13.4438C58.4289 13.5365 55.3092 13.633 52.2395 13.7333C50.704 13.7841 49.1814 13.8349 47.6767 13.8845C46.1721 13.9365 44.6867 13.9886 43.2244 14.0394C41.7634 14.0953 40.3254 14.1499 38.9196 14.2032C38.2161 14.2324 37.5215 14.2616 36.8347 14.2896C36.4906 14.3048 36.1491 14.32 35.8102 14.3366C35.4712 14.3531 35.1349 14.3747 34.7998 14.3924C33.462 14.4686 32.1602 14.5423 30.902 14.6134C29.6439 14.7036 28.4293 14.7899 27.2623 14.8737C26.9709 14.8953 26.682 14.9156 26.397 14.936C26.112 14.9576 25.8296 14.9842 25.551 15.0071C24.9938 15.0553 24.4481 15.1023 23.9179 15.148C23.3864 15.1938 22.869 15.2369 22.3657 15.2801C21.8625 15.3246 21.3746 15.3766 20.9022 15.4224C20.4297 15.4693 19.9714 15.5138 19.5297 15.557C19.0881 15.6014 18.6619 15.6395 18.2523 15.6865C17.4345 15.7754 16.6835 15.8567 16.0056 15.9303C15.6666 15.9659 15.3457 16.0078 15.044 16.0421C14.7423 16.0776 14.4598 16.1107 14.1954 16.1411C13.669 16.2008 13.2209 16.258 12.8589 16.305C12.1335 16.3951 11.7471 16.4497 11.7471 16.4497V16.4548Z" fill="#CED5E0"/>
        <path d="M33.7507 27.8627C33.7507 27.8627 36.3993 26.1292 45.0563 25.5755C53.7145 25.0205 86.7312 20.3027 87.391 25.239L66.1139 26.5457C66.1139 26.5457 32.8033 29.4133 33.5363 28.2703" fill="#CED5E0"/>
        <path d="M42.4193 10.1009C42.4193 10.1009 42.7312 11.1778 42.608 11.414C42.4847 11.6502 42.3936 12.4465 43.4797 12.7068C44.5646 12.9671 44.96 12.2598 44.9266 11.9906C44.8932 11.7226 44.6557 10.9898 44.8111 10.6647C44.9677 10.3396 42.418 10.0996 42.418 10.0996L42.4193 10.1009Z" fill="#CED5E0"/>
        <path d="M47.0026 9.1952C46.9975 8.98058 46.9641 8.74564 46.8922 8.48784C46.4236 6.82675 45.4864 6.99184 45.4864 6.99184C45.4864 6.99184 41.9109 7.91382 42.0842 9.66C43.0304 9.66127 45.7624 9.62698 47.0026 9.1952Z" fill="#CED5E0"/>
        <path d="M42.084 9.65914C42.0853 9.67691 42.0878 9.69596 42.0904 9.71374C42.3446 11.4942 46.2013 10.9177 46.2013 10.9177C46.2013 10.9177 47.0294 10.3678 47.0024 9.19434C45.7622 9.62612 43.0302 9.66041 42.084 9.65914Z" fill="#CED5E0"/>
        <path d="M36.1206 30.7531C36.1052 30.7531 36.0885 30.7493 36.0718 30.7417C35.7175 30.583 35.4607 28.6425 35.349 25.2784C35.1821 20.2698 35.1577 11.7535 36.8665 10.9915L36.9063 11.0792C35.6969 11.6189 35.1654 16.7926 35.4466 25.2746C35.6019 29.934 35.9858 30.5639 36.1001 30.6465C36.1103 30.6541 36.118 30.6554 36.1206 30.6554L36.1309 30.6477H36.1476C36.3876 30.6452 60.2787 30.3544 65.8878 30.1309C70.5597 29.9455 70.9808 28.6742 71.3878 27.4449C71.4725 27.1897 71.5598 26.9243 71.6844 26.6741C72.1735 25.6835 73.338 21.0736 74.1879 17.707C74.5807 16.1501 74.921 14.8052 75.1058 14.1651C75.6797 12.1802 73.9889 10.0696 73.9709 10.0492L74.0467 9.98828C74.0646 10.0099 75.7863 12.1586 75.1995 14.1918C75.0147 14.8306 74.6757 16.1742 74.2829 17.7299C73.4317 21.1003 72.266 25.7153 71.7717 26.716C71.651 26.9611 71.565 27.2214 71.4803 27.4741C71.063 28.7352 70.6316 30.0382 65.8917 30.2274C60.3326 30.4484 36.8229 30.7354 36.1617 30.743C36.1501 30.7481 36.1373 30.7506 36.1219 30.7506L36.1206 30.7531Z" fill="#CED5E0"/>
        <path d="M31.9499 29.3672C31.9499 34.687 27.5899 38.9997 22.2106 38.9997C16.8313 38.9997 12.4727 34.687 12.4727 29.3672C12.4727 24.0474 16.8326 19.7334 22.2106 19.7334C27.5886 19.7334 31.9499 24.0461 31.9499 29.3672Z" fill="#CED5E0"/>
        <path d="M14.877 29.3676C14.877 33.387 18.1713 36.6444 22.2347 36.6444C26.298 36.6444 29.5911 33.387 29.5911 29.3676C29.5911 25.3482 26.298 22.0908 22.2347 22.0908C18.1713 22.0908 14.877 25.3495 14.877 29.3676Z" fill="#CED5E0"/>
        <path d="M19.6812 24.4882L21.3836 26.402C21.3836 26.402 21.6776 26.8617 22.0795 26.8617C22.4813 26.8617 22.7766 26.5404 22.7766 26.5404L24.556 24.4882C24.556 24.4882 24.8038 24.1974 24.556 23.998C24.3082 23.7986 23.4403 23.5078 22.2335 23.5078C21.0267 23.5078 19.246 23.8291 19.68 24.4869L19.6812 24.4882Z" fill="#CED5E0"/>
        <path d="M19.6815 34.2453L21.3839 32.3315C21.3839 32.3315 21.6779 31.873 22.081 31.873C22.4842 31.873 22.7782 32.1943 22.7782 32.1943L24.5576 34.2453C24.5576 34.2453 24.8054 34.5361 24.5576 34.7355C24.3098 34.9349 23.4406 35.2257 22.2351 35.2257C21.0296 35.2257 19.2489 34.9044 19.6815 34.2453Z" fill="#CED5E0"/>
        <path d="M27.2267 26.9338L25.2919 28.6178C25.2919 28.6178 24.8271 28.9086 24.8271 29.3061C24.8271 29.7036 25.152 29.9957 25.152 29.9957L27.2267 31.7571C27.2267 31.7571 27.5207 32.0022 27.7209 31.7571C27.9225 31.512 28.2165 30.6522 28.2165 29.4597C28.2165 28.2673 27.8917 26.5058 27.2254 26.9351L27.2267 26.9338Z" fill="#CED5E0"/>
        <path d="M17.3629 26.9338L19.2976 28.6178C19.2976 28.6178 19.7624 28.9086 19.7624 29.3061C19.7624 29.7036 19.4376 29.9957 19.4376 29.9957L17.3642 31.7571C17.3642 31.7571 17.0702 32.0022 16.8686 31.7571C16.667 31.512 16.373 30.6522 16.373 29.4597C16.373 28.2673 16.6991 26.5058 17.3642 26.9351L17.3629 26.9338Z" fill="#CED5E0"/>
        <path d="M108.21 29.3672C108.21 34.687 103.85 38.9997 98.4704 38.9997C93.0911 38.9997 88.7324 34.687 88.7324 29.3672C88.7324 24.0474 93.0924 19.7334 98.4704 19.7334C103.848 19.7334 108.21 24.0461 108.21 29.3672Z" fill="#CED5E0"/>
        <path d="M91.1387 29.3676C91.1387 33.387 94.433 36.6444 98.4964 36.6444C102.56 36.6444 105.853 33.387 105.853 29.3676C105.853 25.3482 102.56 22.0908 98.4964 22.0908C94.433 22.0908 91.1387 25.3495 91.1387 29.3676Z" fill="#CED5E0"/>
        <path d="M95.941 24.4882L97.6434 26.402C97.6434 26.402 97.9374 26.8617 98.3392 26.8617C98.7411 26.8617 99.0363 26.5404 99.0363 26.5404L100.816 24.4882C100.816 24.4882 101.064 24.1974 100.816 23.998C100.568 23.7986 99.7001 23.5078 98.4933 23.5078C97.2865 23.5078 95.5058 23.8291 95.9397 24.4869L95.941 24.4882Z" fill="#CED5E0"/>
        <path d="M95.9413 34.2453L97.6437 32.3315C97.6437 32.3315 97.939 31.873 98.3408 31.873C98.7427 31.873 99.0379 32.1943 99.0379 32.1943L100.817 34.2453C100.817 34.2453 101.065 34.5361 100.817 34.7355C100.57 34.9349 99.7004 35.2257 98.4949 35.2257C97.2893 35.2257 95.5087 34.9044 95.9413 34.2453Z" fill="#CED5E0"/>
        <path d="M103.487 26.9338L101.553 28.6178C101.553 28.6178 101.088 28.9086 101.088 29.3061C101.088 29.7036 101.413 29.9957 101.413 29.9957L103.487 31.7571C103.487 31.7571 103.781 32.0022 103.982 31.7571C104.183 31.512 104.477 30.6522 104.477 29.4597C104.477 28.2673 104.152 26.5058 103.487 26.9351V26.9338Z" fill="#CED5E0"/>
        <path d="M93.6227 26.9338L95.5574 28.6178C95.5574 28.6178 96.0222 28.9086 96.0222 29.3061C96.0222 29.7036 95.6973 29.9957 95.6973 29.9957L93.6239 31.7571C93.6239 31.7571 93.3299 32.0022 93.1284 31.7571C92.9268 31.512 92.6328 30.6522 92.6328 29.4597C92.6328 28.2673 92.9589 26.5058 93.6239 26.9351L93.6227 26.9338Z" fill="#CED5E0"/>
    </g>
    <defs>
        <clipPath id="clip0_1646_6024">
            <rect width="123" height="39" fill="white"/>
        </clipPath>
    </defs>
</svg>
