<svg width="153" height="62" viewBox="0 0 153 62" fill="none" xmlns="http://www.w3.org/2000/svg">
<path d="M7.03966 47.5526L8.98326 49.3064C8.98326 49.3064 9.73982 48.5704 11.2185 48.4295C12.696 48.2886 33.2172 50.0158 33.2172 50.0158C33.2172 50.0158 35.9454 49.5589 37.0255 49.3064C38.1056 49.0539 107.241 48.4587 107.241 48.4587L108.047 49.5234C108.047 49.5234 109.544 48.5158 111.675 48.2607C113.807 48.0056 133.248 46.9295 133.248 46.9295C133.248 46.9295 134.363 47.8661 135.113 47.5818C135.863 47.2975 138.478 45.0323 138.478 45.0323L135.75 31.5808L118.27 29.0034L96.3998 27.9844L32.0799 30.0795L7.93759 31.4386L6.07422 41.5489L7.04093 47.5526H7.03966Z" fill="#CED5E0"/>
<path d="M20.6864 21.3575C20.6864 21.3575 20.2623 19.822 20.4215 19.723C20.5807 19.6253 24.4004 18.2598 24.8475 17.9972C25.2958 17.7345 41.7592 2.11796 44.7892 2.40729C47.818 2.69536 42.0496 12.4071 42.0496 12.4071L24.2947 23.0364L20.6864 21.3562V21.3575Z" fill="#CED5E0"/>
<path d="M150.404 39.6441C150.404 39.6441 152.833 40.0756 152.866 41.2355C152.899 42.3954 154.331 46.7722 146.977 46.441C139.623 46.1098 146.378 39.0477 150.404 39.6441Z" fill="#CED5E0"/>
<path d="M5.90843 26.7383L4.64241 27.4261C4.64241 27.4261 3.06307 30.9908 3.11656 32.4336C3.16878 33.8778 3.10255 38.016 3.33309 38.4132C3.56362 38.8104 5.90843 38.7584 5.90843 38.7584L7.9361 38.4437C7.9361 38.4437 7.51452 27.4984 5.90843 26.7383Z" fill="#CED5E0"/>
<path d="M148.109 18.3855C148.375 17.5226 145.722 8.74987 145.722 8.74987H147.948C147.168 6.30955 146.203 4.2144 145.012 2.87686C145.012 2.87686 144.646 -0.238575 136.995 0.431466L114.099 0L61.3685 0.574864C61.3685 0.574864 45.7802 0.0482228 42.7972 3.35528L24.6119 20.3753C24.6119 20.3753 21.0444 20.8944 20.4228 19.7243L5.31845 26.2801C5.31845 26.2801 4.75676 26.4032 4.6434 27.426C4.6434 27.426 6.30299 27.6582 6.41762 29.3067C6.53097 30.9551 6.76278 38.1784 6.30553 38.3484C5.84956 38.5185 3.4538 38.3484 3.28186 37.8941C3.28186 37.8941 3.14176 38.2507 3.40158 38.4893C3.66268 38.7278 4.56444 38.974 5.07263 38.9956C5.58082 39.0172 11.1213 39.1707 11.1213 39.1707C11.1213 39.1707 15.5421 33.3409 23.2656 34.5401C30.9878 35.7393 33.4664 39.9334 34.6216 43.8407C35.7768 47.748 35.7284 49.3774 37.3396 49.5221C38.9521 49.6655 108.047 49.5221 108.047 49.5221C108.047 49.5221 108.986 48.1554 108.769 47.3648C108.553 46.5742 108.842 32.1188 122.483 33.0541C136.124 33.9893 135.114 47.5805 135.114 47.5805L148.357 46.5018C148.357 46.5018 149.115 45.7112 149.115 44.4879V40.6047C149.115 40.6047 151.136 41.1085 151.136 39.3103V29.6747C151.136 29.6747 150.926 24.3905 150.042 18.3842H148.11L148.109 18.3855Z" fill="#CED5E0"/>
<path d="M37.1663 11.8446C37.1663 11.8446 42.8341 6.1213 44.1231 5.45507C45.412 4.78883 47.3633 3.31677 50.5627 3.365C53.7621 3.41322 56.6674 3.03505 56.6674 3.03505H60.1215C60.1215 3.03505 61.0615 2.90307 61.2997 3.80788C61.5391 4.71142 61.2997 18.3292 61.2997 18.3292C61.2997 18.3292 61.3481 19.1896 60.8221 19.333C60.2973 19.4752 37.8503 19.8114 37.8503 19.8114L37.165 11.8458L37.1663 11.8446Z" fill="#CED5E0"/>
<path d="M3.98656 37.5645C3.98656 37.5645 0 38.3208 0 39.7091V46.7915C0 46.7915 0.518381 49.1924 3.20708 49.3079C5.89578 49.4234 8.98314 49.3079 8.98314 49.3079C8.98314 49.3079 7.31974 40.7687 11.0936 39.1736C11.8132 38.869 3.98656 37.5657 3.98656 37.5657V37.5645Z" fill="#CED5E0"/>
<path d="M148.109 18.3856H150.042C149.564 15.1446 148.892 11.6941 147.949 8.75H145.723C145.723 8.75 148.376 17.5227 148.109 18.3856Z" fill="#CED5E0"/>
<path d="M33.7529 49.3061C33.7529 55.7768 28.4889 61.0216 21.9945 61.0216C15.5001 61.0216 10.2373 55.7768 10.2373 49.3061C10.2373 42.8354 15.5014 37.5918 21.9945 37.5918C28.4876 37.5918 33.7529 42.8366 33.7529 49.3061Z" fill="#CED5E0"/>
<path d="M13.1416 49.3059C13.1416 54.1929 17.118 58.156 22.0241 58.156C26.9303 58.156 30.9054 54.1941 30.9054 49.3059C30.9054 44.4176 26.929 40.457 22.0241 40.457C17.1192 40.457 13.1416 44.4189 13.1416 49.3059Z" fill="#CED5E0"/>
<path d="M18.9394 43.373L20.9951 45.7003C20.9951 45.7003 21.3505 46.2587 21.8358 46.2587C22.321 46.2587 22.6776 45.8678 22.6776 45.8678L24.8263 43.373C24.8263 43.373 25.1256 43.0189 24.8263 42.7778C24.527 42.5354 23.4788 42.1826 22.023 42.1826C20.5672 42.1826 18.4172 42.5735 18.9407 43.3742L18.9394 43.373Z" fill="#CED5E0"/>
<path d="M18.9397 55.2383L20.9942 52.9109C20.9942 52.9109 21.3495 52.3525 21.8348 52.3525C22.32 52.3525 22.6767 52.7434 22.6767 52.7434L24.8253 55.2383C24.8253 55.2383 25.1247 55.5923 24.8253 55.8335C24.526 56.0758 23.4778 56.4299 22.022 56.4299C20.5662 56.4299 18.4163 56.039 18.9397 55.2383Z" fill="#CED5E0"/>
<path d="M28.0506 46.3477L25.7147 48.3959C25.7147 48.3959 25.1543 48.7499 25.1543 49.2334C25.1543 49.7169 25.5466 50.071 25.5466 50.071L28.0506 52.2131C28.0506 52.2131 28.406 52.5113 28.648 52.2131C28.8912 51.9149 29.2466 50.8705 29.2466 49.4187C29.2466 47.967 28.8543 45.8261 28.0506 46.3477Z" fill="#CED5E0"/>
<path d="M16.1416 46.3477L18.4775 48.3959C18.4775 48.3959 19.0379 48.7499 19.0379 49.2334C19.0379 49.7169 18.6456 50.071 18.6456 50.071L16.1416 52.2131C16.1416 52.2131 15.7862 52.5113 15.543 52.2131C15.301 51.9149 14.9443 50.8705 14.9443 49.4187C14.9443 47.967 15.3366 45.8261 16.1416 46.3477Z" fill="#CED5E0"/>
<path d="M133.932 48.5864C133.932 55.0571 128.668 60.3019 122.173 60.3019C115.679 60.3019 110.416 55.0571 110.416 48.5864C110.416 42.1156 115.68 36.8721 122.173 36.8721C128.666 36.8721 133.932 42.1169 133.932 48.5864Z" fill="#CED5E0"/>
<path d="M113.32 48.5862C113.32 53.4744 117.297 57.4363 122.203 57.4363C127.109 57.4363 131.084 53.4744 131.084 48.5862C131.084 43.6979 127.108 39.7373 122.203 39.7373C117.298 39.7373 113.32 43.6992 113.32 48.5862Z" fill="#CED5E0"/>
<path d="M119.12 42.6532L121.176 44.9806C121.176 44.9806 121.531 45.539 122.017 45.539C122.502 45.539 122.859 45.1481 122.859 45.1481L125.007 42.6532C125.007 42.6532 125.307 42.2992 125.007 42.0581C124.708 41.8157 123.66 41.4629 122.203 41.4629C120.746 41.4629 118.597 41.8537 119.12 42.6545V42.6532Z" fill="#CED5E0"/>
<path d="M119.12 54.5195L121.175 52.1922C121.175 52.1922 121.53 51.6338 122.016 51.6338C122.503 51.6338 122.858 52.0246 122.858 52.0246L125.007 54.5195C125.007 54.5195 125.306 54.8736 125.007 55.1147C124.708 55.3571 123.659 55.7111 122.204 55.7111C120.748 55.7111 118.598 55.3203 119.121 54.5195H119.12Z" fill="#CED5E0"/>
<path d="M128.229 45.6283L125.893 47.6765C125.893 47.6765 125.333 48.0305 125.333 48.514C125.333 48.9975 125.725 49.3516 125.725 49.3516L128.229 51.4924C128.229 51.4924 128.585 51.7906 128.827 51.4924C129.07 51.1942 129.425 50.1498 129.425 48.698C129.425 47.2463 129.033 45.1054 128.229 45.627V45.6283Z" fill="#CED5E0"/>
<path d="M116.321 45.628L118.657 47.6762C118.657 47.6762 119.217 48.0302 119.217 48.5137C119.217 48.9972 118.825 49.3513 118.825 49.3513L116.321 51.4934C116.321 51.4934 115.966 51.7916 115.722 51.4934C115.48 51.1951 115.125 50.1507 115.125 48.699C115.125 47.2472 115.517 45.1064 116.321 45.628Z" fill="#CED5E0"/>
<path d="M65.069 48.2286H38.5679C37.549 48.2286 37.3133 47.7692 37.2904 47.7172L37.2802 47.6829C37.163 46.9901 36.6663 45.6766 36.0384 44.0155C34.9036 41.0117 33.3484 36.8976 32.8848 33.3583C32.1741 27.9345 33.2032 12.3675 33.2134 12.2101L33.5013 12.2292C33.4911 12.3852 32.4632 27.9256 33.1714 33.3202C33.6312 36.8265 35.1787 40.9229 36.3084 43.914C36.9351 45.5713 37.4305 46.8847 37.5604 47.6106C37.5986 47.6664 37.8215 47.9418 38.5679 47.9418H64.9862C65.1008 47.8619 65.502 47.5471 65.502 47.0535C65.502 46.3962 65.0295 1.0339 65.0244 0.57578L65.3135 0.573242C65.3186 1.03136 65.7912 46.3949 65.7912 47.0535C65.7912 47.7933 65.1314 48.1918 65.1034 48.2096L65.069 48.2299V48.2286Z" fill="#CED5E0"/>
<path d="M38.2101 11.4102H38.1528C37.1321 11.4102 36.3047 12.2346 36.3047 13.2515V18.6296C36.3047 19.6465 37.1321 20.4709 38.1528 20.4709H38.2101C39.2308 20.4709 40.0582 19.6465 40.0582 18.6296V13.2515C40.0582 12.2346 39.2308 11.4102 38.2101 11.4102Z" fill="#CED5E0"/>
<path d="M64.4796 26.6184C64.4796 27.437 63.839 28.0347 63.0188 28.0347H62.936C62.1145 28.0347 61.4229 27.437 61.4229 26.6184V22.8558C61.4229 22.0373 62.1145 21.3076 62.936 21.3076H63.0188C63.8403 21.3076 64.4796 22.0373 64.4796 22.8558V26.6184Z" fill="#CED5E0"/>
<path d="M63.3556 21.9424H63.3098C63.0411 21.9424 62.8232 22.1594 62.8232 22.4271V26.2799C62.8232 26.5476 63.0411 26.7646 63.3098 26.7646H63.3556C63.6243 26.7646 63.8422 26.5476 63.8422 26.2799V22.4271C63.8422 22.1594 63.6243 21.9424 63.3556 21.9424Z" fill="#CED5E0"/>
<path d="M143.171 22.0526H71.9113C70.4249 22.0526 69.0723 20.7049 69.0723 19.224V7.6226C69.0723 6.22161 70.3459 5.08203 71.9113 5.08203H139.563C141.046 5.08203 141.67 6.03633 142.249 7.68351L145.866 19.2747V19.2963C145.866 20.7912 144.632 22.0526 143.171 22.0526ZM71.9113 5.36883C70.5051 5.36883 69.3614 6.38024 69.3614 7.6226V19.224C69.3614 20.5539 70.5765 21.7645 71.9113 21.7645H143.171C144.468 21.7645 145.566 20.6465 145.577 19.3166L141.975 7.77235C141.428 6.21526 140.88 5.36883 139.563 5.36883H71.9113Z" fill="#CED5E0"/>
<path d="M38.8468 10.7754H38.7895C37.7688 10.7754 36.9414 11.5998 36.9414 12.6167V17.9948C36.9414 19.0118 37.7688 19.8362 38.7895 19.8362H38.8468C39.8675 19.8362 40.6949 19.0118 40.6949 17.9948V12.6167C40.6949 11.5998 39.8675 10.7754 38.8468 10.7754Z" fill="#CED5E0"/>
</svg>
