<svg xmlns="http://www.w3.org/2000/svg" width="125" height="44" viewBox="0 0 125 44" fill="none">
    <g clip-path="url(#clip0_1646_5955)">
        <path d="M55.5158 2.4873C55.5158 2.4873 48.9905 4.30219 35.2425 13.7869L34.5449 17.5244L47.7292 16.2249C47.7292 16.2249 57.5029 5.7432 57.5029 5.58092C57.5029 5.41865 55.5158 2.4873 55.5158 2.4873Z" fill="#CED5E0"/>
        <path d="M31.8863 14.1949L33.8464 13.7885C33.8464 13.7885 34.9468 12.5422 35.4578 12.6513C35.9674 12.759 36.5852 12.8408 36.2905 13.1654C35.9957 13.4899 35.6997 15.0348 34.6791 15.4944C33.6585 15.9552 31.2157 15.5761 31.8863 14.1936V14.1949Z" fill="#CED5E0"/>
        <path d="M10.8131 35.9552L13.2405 38.858C13.2405 38.858 14.0539 39.0683 14.9715 38.144C15.8892 37.2183 30.6269 39.1955 30.6269 39.1955C30.6269 39.1955 33.6862 39.202 35.5202 39.1903C37.3542 39.1786 83.1595 37.1443 83.1595 37.1443L90.2601 38.8593C90.2601 38.8593 92.8045 38.3062 94.0362 38.5152C95.2679 38.7243 109.089 38.0829 109.089 38.0829C109.089 38.0829 113.065 38.7983 113.676 37.5766C114.288 36.355 118.872 20.5014 106.612 20.2547C94.3515 20.0081 38.5898 29.5083 38.5898 29.5083L23.9601 20.8104L11.2391 24.7945L10.8105 35.9565L10.8131 35.9552Z" fill="#CED5E0"/>
        <path d="M124.981 23.9177C125.195 22.7532 123.53 22.1846 123.53 22.1846C123.53 22.1846 123.718 21.4537 123.53 20.3425C123.342 19.2325 122.885 15.7377 122.376 14.7628C121.866 13.7878 121.482 13.6775 121.482 13.6775L121.382 14.276C120.378 13.7619 116.319 13.192 115.539 13.0569C114.76 12.9219 113.701 12.1093 111.285 9.53621C108.868 6.96318 107.848 4.11881 107.848 4.11881L109.459 2.87254C109.808 2.11439 105.566 1.84306 105.566 1.84306C104.09 1.68079 85.4006 0.0826988 74.4724 0.000911975C63.5443 -0.0808748 55.0589 2.51943 54.602 2.81801C54.1451 3.1153 54.4141 4.00976 54.4141 4.00976C52.1052 4.4161 37.4434 14.6005 36.5309 14.8433C35.6183 15.0873 33.2824 15.1951 32.3416 14.7887C31.402 14.3824 33.469 13.8683 33.469 13.8683C33.469 13.8683 28.2862 13.8138 15.237 16.9827C2.1878 20.1529 0.791375 23.5646 0.603469 24.2968C0.415563 25.0277 0.146574 26.1649 0.146574 26.1649C-0.0413316 27.1398 0.0667787 30.3088 0.0165846 30.6606C-0.0336095 31.0124 0.0397511 31.2837 0.0397511 31.2837C0.0243068 31.4135 0.0178716 31.5382 0.0178716 31.6602C0.421998 31.6991 0.979281 31.7446 1.39242 31.7446C2.1183 31.7446 3.93172 32.0587 3.84421 33.0856C3.75797 34.1138 4.1724 35.1407 2.7039 35.438C1.42459 35.6963 0.774644 35.756 0.34349 35.2705C0.301018 35.3263 0.262407 35.386 0.230231 35.4535C0.0152976 35.9144 0.636932 36.1442 0.636932 36.1442C2.73093 37.5956 13.2382 38.8574 13.2382 38.8574C11.9654 35.4068 11.9332 23.81 23.2371 23.7282C34.5411 23.6464 34.729 39.1937 34.729 39.1937L90.2578 38.8574C89.586 36.7881 88.2166 24.2708 100.864 24.2968C113.512 24.324 112.556 38.2044 112.556 38.2044H112.706C114.157 38.2044 117.029 37.3307 117.996 37.1685C118.962 37.0062 122.131 35.2393 123.259 34.5889C124.386 33.9385 124.091 30.201 124.091 29.7142C124.091 29.2274 123.528 27.5202 123.634 26.8439C123.742 26.1662 124.762 25.0835 124.977 23.919L124.981 23.9177Z" fill="#CED5E0"/>
        <path d="M2.70557 35.437C4.17407 35.141 3.75965 34.1128 3.84588 33.0846C3.93211 32.0564 2.11869 31.7436 1.39409 31.7436C0.980954 31.7436 0.423671 31.6981 0.0195442 31.6592C0.0156831 33.0197 0.879279 33.9219 0.929473 34.3698C0.975806 34.7866 0.592272 34.9449 0.346449 35.2695C0.777604 35.755 1.42755 35.6953 2.70686 35.437H2.70557Z" fill="#CED5E0"/>
        <path d="M109.041 2.60645C109.041 2.60645 109.494 2.84791 110.186 3.27891C110.879 3.70862 120.31 11.3148 121.776 14.163C123.242 17.0113 118.686 15.2912 118.686 15.2912L105.791 7.47081C105.791 7.47081 106.19 3.49312 109.041 2.60645Z" fill="#CED5E0"/>
        <path d="M38.5911 16.5738C38.5911 16.5738 47.8307 7.90445 54.8849 5.15875C61.9391 2.41305 67.4193 2.16379 79.9523 2.48705C92.4867 2.8103 97.8575 4.07475 100.114 5.95325C102.37 7.83175 103.444 9.00143 103.3 10.0062C103.157 11.011 102.262 13.4309 101.295 13.575C100.329 13.7191 75.5829 14.9835 75.0809 15.0199C74.579 15.0562 38.5898 16.5725 38.5898 16.5725L38.5911 16.5738Z" fill="#CED5E0"/>
        <path d="M46.7207 11.0831L46.2188 15.4178L73.9014 14.4065L77.3391 3.28089C77.3391 3.28089 62.6927 2.59414 57.7145 4.83354C52.7363 7.07294 50.946 7.72335 46.7207 11.0831Z" fill="#CED5E0"/>
        <path d="M82.5045 3.84284L80.4003 11.7982C80.4003 11.7982 80.027 12.9004 80.4003 13.1146C80.7735 13.3301 92.2564 12.8459 92.2564 12.8459C92.2564 12.8459 100.462 12.6849 100.756 12.4162C101.049 12.1475 102.461 10.4845 101.742 9.30049C101.022 8.11653 99.0776 5.99397 95.0544 5.13326C91.0311 4.27385 83.4119 3.68187 82.5058 3.84284H82.5045Z" fill="#CED5E0"/>
        <path d="M68.2965 36.086C67.8229 36.086 67.5037 36.0704 67.451 36.0678L37.9317 35.7835L37.9059 35.6887C36.0977 29.0302 36.5314 21.8577 37.0127 18.9951C37.4478 16.413 38.8017 16.3663 38.8596 16.3663C38.9304 16.3624 38.9883 16.4234 38.9896 16.4948C38.9896 16.5662 38.9343 16.6246 38.8635 16.6259C38.8133 16.6272 37.6627 16.6895 37.2663 19.0393C36.7901 21.868 36.3615 28.9381 38.1286 35.5264L67.4587 35.8095C67.5179 35.812 72.8694 36.0691 73.6673 34.371C74.5039 32.5899 77.5927 19.6092 76.7961 14.5488L76.7922 14.5241L76.7974 14.4994L79.5156 2.45212C79.531 2.38202 79.6005 2.33918 79.67 2.35476C79.7395 2.37033 79.7833 2.44044 79.7665 2.51054L77.0548 14.5332C77.8437 19.6533 74.742 32.6912 73.9003 34.4827C73.2284 35.912 69.8925 36.0873 68.2965 36.0873V36.086Z" fill="#CED5E0"/>
        <path d="M1.06445 25.734C1.06445 25.734 1.15841 24.3852 2.72214 23.5037C4.36311 22.5807 5.24343 22.4937 5.81359 22.8417C6.38374 23.1896 7.17784 24.2528 7.22932 24.863C7.2808 25.4731 7.47128 26.7441 6.10703 26.7791C4.74278 26.8142 1.2884 27.4762 1.06445 25.734Z" fill="#CED5E0"/>
        <path d="M111.885 17.6233C111.885 17.6233 113.368 15.8604 116.236 15.885C119.103 15.9097 122.113 16.651 122.066 18.5957C122.02 20.5404 117.874 19.9328 117.874 19.9328C117.874 19.9328 110.812 19.3369 111.885 17.6233Z" fill="#CED5E0"/>
        <path d="M105.142 25.4693C105.083 25.4693 105.029 25.4278 105.016 25.3668C105.002 25.2967 105.046 25.2279 105.115 25.2123L113.431 23.4402C115.979 23.1585 122.731 22.2264 123.515 21.2904C123.561 21.2359 123.642 21.2281 123.696 21.2748C123.75 21.3216 123.757 21.4033 123.712 21.4579C122.701 22.6652 113.848 23.6557 113.472 23.6973L105.169 25.4667C105.16 25.468 105.151 25.4693 105.142 25.4693Z" fill="#CED5E0"/>
        <path d="M44.2287 14.9038C44.2287 14.9038 43.2725 13.3564 45.6432 12.0711C48.0126 10.7859 48.0126 12.754 48.0332 13.1759C48.0525 13.5978 48.1529 15.1245 47.3961 15.2647C46.6393 15.4049 44.4166 15.5672 44.23 14.9025L44.2287 14.9038Z" fill="#CED5E0"/>
        <path d="M31.2529 21.6055C31.2529 21.6055 31.4692 22.1521 31.8308 22.3338C32.1912 22.5156 32.769 22.4792 33.4911 22.4429C34.2131 22.4065 35.4757 22.3157 35.2775 21.7509C35.0793 21.1862 31.7407 21.2589 31.2529 21.6055Z" fill="#CED5E0"/>
        <path d="M110.131 34.7396C110.131 39.8532 106.022 43.9997 100.951 43.9997C95.88 43.9997 91.7705 39.8545 91.7705 34.7396C91.7705 29.6247 95.88 25.4795 100.951 25.4795C106.022 25.4795 110.131 29.6247 110.131 34.7396Z" fill="#CED5E0"/>
        <path d="M94.0381 34.7398C94.0381 38.6033 97.1424 41.7346 100.973 41.7346C104.803 41.7346 107.907 38.6033 107.907 34.7398C107.907 30.8764 104.803 27.7451 100.973 27.7451C97.1424 27.7451 94.0381 30.8764 94.0381 34.7398Z" fill="#CED5E0"/>
        <path d="M98.5658 30.0509L100.171 31.8904C100.171 31.8904 100.447 32.3318 100.827 32.3318C101.207 32.3318 101.483 32.0229 101.483 32.0229L103.162 30.0509C103.162 30.0509 103.395 29.7718 103.162 29.5796C102.929 29.3888 102.109 29.1084 100.973 29.1084C99.8361 29.1084 98.1565 29.4174 98.5658 30.0496V30.0509Z" fill="#CED5E0"/>
        <path d="M98.5658 39.4304L100.171 37.5908C100.171 37.5908 100.449 37.1494 100.827 37.1494C101.205 37.1494 101.483 37.4584 101.483 37.4584L103.16 39.4304C103.16 39.4304 103.395 39.7095 103.16 39.9016C102.928 40.0924 102.108 40.3729 100.971 40.3729C99.8348 40.3729 98.1565 40.0639 98.5645 39.4317L98.5658 39.4304Z" fill="#CED5E0"/>
        <path d="M105.679 32.402L103.856 34.0208C103.856 34.0208 103.418 34.2999 103.418 34.6829C103.418 35.0659 103.724 35.345 103.724 35.345L105.679 37.0378C105.679 37.0378 105.957 37.2728 106.145 37.0378C106.336 36.8029 106.612 35.9759 106.612 34.8296C106.612 33.6833 106.306 31.9904 105.678 32.402H105.679Z" fill="#CED5E0"/>
        <path d="M96.3807 32.402L98.2044 34.0208C98.2044 34.0208 98.642 34.2999 98.642 34.6829C98.642 35.0659 98.3357 35.345 98.3357 35.345L96.3807 37.0378C96.3807 37.0378 96.1027 37.2741 95.9135 37.0378C95.7243 36.8029 95.4463 35.9759 95.4463 34.8296C95.4463 33.6833 95.7526 31.9904 96.3807 32.402Z" fill="#CED5E0"/>
        <path d="M32.2641 34.7396C32.2641 39.8532 28.1546 43.9997 23.0837 43.9997C18.0128 43.9997 13.9033 39.8545 13.9033 34.7396C13.9033 29.6247 18.0128 25.4795 23.0837 25.4795C28.1546 25.4795 32.2641 29.6247 32.2641 34.7396Z" fill="#CED5E0"/>
        <path d="M16.1709 34.7398C16.1709 38.6033 19.2752 41.7346 23.1067 41.7346C26.9382 41.7346 30.0412 38.6033 30.0412 34.7398C30.0412 30.8764 26.9369 27.7451 23.1067 27.7451C19.2765 27.7451 16.1709 30.8764 16.1709 34.7398Z" fill="#CED5E0"/>
        <path d="M20.7003 30.0509L22.3052 31.8904C22.3052 31.8904 22.5819 32.3318 22.9616 32.3318C23.3412 32.3318 23.6179 32.0229 23.6179 32.0229L25.2962 30.0509C25.2962 30.0509 25.5292 29.7718 25.2962 29.5796C25.0633 29.3888 24.2434 29.1084 23.107 29.1084C21.9705 29.1084 20.2923 29.4174 20.7003 30.0496V30.0509Z" fill="#CED5E0"/>
        <path d="M20.6986 39.4304L22.3035 37.5908C22.3035 37.5908 22.5815 37.1494 22.9599 37.1494C23.3383 37.1494 23.6163 37.4584 23.6163 37.4584L25.2933 39.4304C25.2933 39.4304 25.5275 39.7095 25.2933 39.9016C25.0603 40.0924 24.2405 40.3729 23.1041 40.3729C21.9676 40.3729 20.2893 40.0639 20.6973 39.4317L20.6986 39.4304Z" fill="#CED5E0"/>
        <path d="M27.8121 32.402L25.9884 34.0208C25.9884 34.0208 25.5508 34.2999 25.5508 34.6829C25.5508 35.0659 25.8571 35.345 25.8571 35.345L27.8121 37.0378C27.8121 37.0378 28.0901 37.2728 28.2793 37.0378C28.4698 36.8029 28.7465 35.9759 28.7465 34.8296C28.7465 33.6833 28.4402 31.9904 27.8121 32.402Z" fill="#CED5E0"/>
        <path d="M18.5135 32.402L20.3372 34.0208C20.3372 34.0208 20.7748 34.2999 20.7748 34.6829C20.7748 35.0659 20.4685 35.345 20.4685 35.345L18.5135 37.0378C18.5135 37.0378 18.2355 37.2741 18.0463 37.0378C17.8571 36.8029 17.5791 35.9759 17.5791 34.8296C17.5791 33.6833 17.8854 31.9904 18.5135 32.402Z" fill="#CED5E0"/>
    </g>
    <defs>
        <clipPath id="clip0_1646_5955">
            <rect width="125" height="44" fill="white"/>
        </clipPath>
    </defs>
</svg>
