<svg width="74" height="71" viewBox="0 0 74 71" fill="none" xmlns="http://www.w3.org/2000/svg">
<g id="Isolation_Mode" clip-path="url(#clip0_1379_111)">
<path id="Vector" d="M0.7111 0.820061C0.762477 0.820061 0.805291 1.43493 0.848105 2.60488C0.890919 3.78338 0.933733 5.50842 0.976548 7.75439C0.993673 8.49735 1.00224 9.30863 1.01936 10.1626C1.04505 11.0251 1.07074 11.9389 1.06218 12.8954C0.933733 13.8604 1.29337 14.8766 1.09643 15.9441C1.04505 17.0115 1.09643 18.1303 1.13068 19.3002C1.17349 20.4702 1.05361 21.6828 1.16493 22.9467C1.41325 24.2106 0.899482 25.5172 1.19918 26.875C1.26768 28.2329 1.25056 29.6334 1.23343 31.0766C1.04505 32.5198 1.23343 34.0058 1.26768 35.5344C1.17349 36.1663 1.13924 36.7983 1.13924 37.4388C1.13924 37.7633 1.13924 38.0793 1.16493 38.4038V38.4636V38.4892V38.5062L1.17349 38.566L1.19062 38.677C1.19918 38.7539 1.21631 38.8137 1.22487 38.8735C1.37044 38.8478 1.49888 38.8222 1.60163 38.7966C1.60163 38.7966 1.60163 38.7966 1.61876 38.7966H1.65301L1.73008 38.8137L1.88421 38.8393L2.18391 38.882C2.38941 38.9076 2.58636 38.9332 2.79187 38.9503C3.20288 38.9845 3.6139 39.0016 4.02492 38.993C4.84695 38.9845 5.68611 38.8991 6.52526 38.7539C8.21214 38.7454 9.94183 38.8649 11.6972 38.7283C13.4612 38.7112 15.2508 38.6514 17.0832 38.7027C18.9157 38.4977 20.7738 38.5062 22.6662 38.6856C24.5586 38.4636 26.4852 38.5489 28.4376 38.6685C30.3899 38.7881 32.3765 38.4721 34.3887 38.6514C36.401 38.6685 38.4389 38.6002 40.5026 38.6343C42.5662 38.7283 44.6556 38.8308 46.7706 38.6258C48.8856 38.5746 51.0263 38.4977 53.1841 38.6173C55.342 38.3782 57.5255 38.4892 59.7261 38.6173C61.9268 38.5746 64.1531 38.7454 66.388 38.6173C67.5098 38.6343 68.6315 38.6173 69.7618 38.5916C70.3269 38.5831 70.8921 38.5746 71.4572 38.5746H71.8854L72.2793 38.5831C72.3135 38.5831 72.3478 38.6002 72.3991 38.6087C72.3991 38.6087 72.4163 38.5404 72.4248 38.4892C72.4248 38.2159 72.442 37.9426 72.4505 37.6693C72.4676 37.1057 72.4762 36.5421 72.4762 35.9785C72.4848 34.8512 72.4762 33.7325 72.3991 32.6138C72.245 30.3763 72.4591 28.1645 72.3991 25.9698C72.6218 23.7751 72.3306 21.5974 72.3991 19.4454C72.3735 17.2934 72.5276 15.1584 72.4077 13.0491C72.3649 10.9397 72.3221 8.85602 72.4163 6.79793C72.2536 5.79023 72.2707 4.78253 72.3221 3.77484C72.3478 3.27953 72.382 2.77568 72.4077 2.28037L72.4248 1.90462V1.71674V1.67404V1.64842C72.4248 1.59718 72.4248 1.53741 72.4248 1.49471H72.3991C72.3991 1.49471 72.3135 1.46909 72.2536 1.46055C72.2536 1.46055 72.2536 1.46055 72.2365 1.46055H72.1851H72.0909H71.9025L71.5257 1.45201C71.0291 1.45201 70.5239 1.45201 70.0272 1.46055C69.0339 1.47763 68.0492 1.51179 67.0731 1.49471C65.1207 1.55448 63.1941 1.34099 61.3017 1.47763C59.4093 1.45201 57.5426 1.58864 55.7102 1.45201C53.8777 1.6228 52.0881 1.30683 50.3242 1.42639C48.5602 1.42639 46.8391 1.43493 45.1522 1.40077C43.4653 1.13603 41.8127 1.35807 40.2029 1.37515C38.5931 1.34953 37.0175 1.52887 35.4848 1.34953C33.952 1.32391 32.4621 1.21289 31.015 1.31537C29.5678 1.35807 28.1635 0.931079 26.8021 1.28121C25.4406 1.34099 24.1304 1.00794 22.8631 1.24705C21.5958 1.46909 20.3714 1.22143 19.2068 1.21289C18.0337 1.19581 16.912 1.18727 15.8416 1.17873C11.0208 1.11895 7.22742 1.05918 4.64144 0.990857C3.34845 0.956698 2.35516 0.922539 1.68726 0.888379C1.01936 0.85422 0.668286 0.820061 0.668286 0.785902C0.668286 0.743203 1.09643 0.709043 1.91846 0.666344C2.74049 0.632185 3.95641 0.589486 5.5491 0.555327C8.71735 0.487008 13.3584 0.41869 19.2154 0.358911C20.3885 0.350371 21.6044 0.162495 22.8717 0.324752C24.139 0.324752 25.4577 0.188115 26.8106 0.290593C28.1721 0.0429381 29.5764 0.247894 31.0235 0.256433C32.4706 0.247894 33.9606 0.324752 35.4933 0.222274C37.0261 0.0770973 38.6016 0.290593 40.2114 0.196655C41.8213 0.350371 43.4739 0.307672 45.1608 0.171035C46.8476 0.316212 48.5773 0.136876 50.3327 0.145416C52.0967 0.367451 53.8863 0.213734 55.7187 0.119796C57.5512 0.0343983 59.4093 0.153956 61.3017 0.102717C63.1941 0.145416 65.1207 0.0429381 67.0816 0.0856372C68.0578 0.0343983 69.0425 -0.00830078 70.0358 -0.00830078C70.5324 -0.00830078 71.0291 -0.00830078 71.5257 0.00023903C72.245 0.0258585 72.9643 0.0429381 73.6836 0.0685575C73.7435 0.0685575 73.812 0.0685575 73.8719 0.0685575C73.8805 0.811521 73.8891 1.54595 73.9062 2.29745C73.9062 2.79276 73.9062 3.28807 73.9062 3.79192C73.9062 4.79107 73.8891 5.79877 73.8891 6.81501C73.9747 8.8731 73.8805 10.9568 73.8976 13.0662C73.9405 15.1755 73.6579 17.3104 73.9062 19.4625C73.9405 21.6145 73.8634 23.7922 73.9062 25.9869C73.8719 28.1816 73.8377 30.402 73.9062 32.6309C73.7863 33.7496 73.7606 34.8683 73.7778 35.9955C73.7863 36.5592 73.8034 37.1228 73.8291 37.6864C73.8377 37.9768 73.8548 38.2757 73.8634 38.566C73.8719 39.0955 73.8891 39.6335 73.8976 40.1715C73.067 40.1801 72.2365 40.1971 71.4059 40.2057C70.8407 40.2057 70.2756 40.2057 69.7104 40.2057C68.5801 40.2057 67.4584 40.1801 66.3367 40.163C64.0932 40.1886 61.8754 40.1715 59.6748 40.163C57.4741 40.2398 55.2906 40.0605 53.1328 40.163C50.9749 40.2654 48.8342 40.052 46.7192 40.1544C44.6042 40.2228 42.5149 40.2654 40.4512 40.1459C38.3876 40.1459 36.3496 39.9239 34.3373 40.1288C32.3251 40.1801 30.3385 40.4533 28.3862 40.1117C26.4339 40.1971 24.5072 39.9495 22.6148 40.0947C20.7224 39.8385 18.8557 40.0776 17.0319 40.069C15.1994 40.0178 13.4098 39.9324 11.6458 40.0434C9.88189 40.163 8.16076 39.9751 6.47389 40.0178C5.62617 40.0947 4.79557 40.0434 3.97354 40.0007C3.56252 39.9751 3.15151 39.958 2.74049 39.9495C2.53498 39.9495 2.32948 39.9495 2.13253 39.9495C2.02978 39.9495 1.92702 39.9495 1.83283 39.9666L1.50744 39.9922C1.02792 39.9922 0.556969 39.9922 0.0774501 39.9836C0.0774501 39.1297 0.0774501 38.2842 0.0774501 37.4473C0.0774501 36.8068 0.0774501 36.1663 0.103139 35.5429C-0.239375 34.0143 0.103139 32.5284 0.13739 31.0852C0.188767 29.6419 -0.0852438 28.2414 0.171641 26.8836C-0.0852438 25.5257 0.13739 24.2191 0.205893 22.9553C0.282958 21.6914 0.0945757 20.4702 0.240144 19.3088C0.0603244 18.1388 0.342898 17.0201 0.274395 15.9526C0.394275 14.8851 0.274395 13.8689 0.308647 12.9039C0.265832 11.9389 0.282958 11.0251 0.351461 10.1712C0.368586 9.30863 0.377149 8.50589 0.394275 7.76293C0.437089 5.51696 0.479903 3.78338 0.522717 2.61342C0.565532 1.44347 0.616909 0.828601 0.659723 0.828601L0.7111 0.820061Z" fill="black"/>
<path id="Vector_2" d="M15.6102 6.05479C15.6102 6.05479 15.653 6.16581 15.6616 6.38784C15.6616 6.60988 15.6959 6.93439 15.6359 7.36992C15.5588 8.2239 15.2763 9.52195 14.3857 10.9566C14.2402 11.1958 14.0604 11.4263 13.8891 11.674C13.7007 11.9131 13.4866 12.1351 13.2811 12.3828C13.1698 12.4938 13.0499 12.6134 12.9301 12.7244C12.8102 12.8354 12.6903 12.972 12.5533 13.066C12.2793 13.2709 12.0138 13.51 11.6884 13.6808C11.5172 13.7492 11.3545 13.8431 11.2004 13.9456C11.0377 14.0395 10.875 14.142 10.7123 14.253C10.6267 14.3042 10.5496 14.364 10.464 14.4067C10.3783 14.4494 10.2841 14.4921 10.19 14.5263C10.0016 14.6031 9.81319 14.6544 9.59912 14.68C9.40217 14.7142 9.19666 14.7654 8.99972 14.8081C8.89696 14.8337 8.80277 14.8679 8.70002 14.8764C8.59726 14.8935 8.49451 14.9106 8.39176 14.9277C8.289 14.9447 8.17769 14.9704 8.07493 14.9874C7.97218 15.0045 7.84373 15.0387 7.80092 15.0387C7.68104 15.0558 7.56116 15.0728 7.44128 15.0899H7.39847H7.37278C7.37278 15.0899 7.35565 15.0899 7.35565 15.0984V15.1838C7.35565 15.2436 7.35565 15.2949 7.35565 15.3546C7.35565 15.4144 7.35565 15.4657 7.35565 15.5254C7.35565 15.6279 7.35565 15.7389 7.35565 15.85C7.34709 16.294 7.33853 16.7381 7.39847 17.1992C7.63823 18.1215 7.12446 19.0695 7.43272 20.0515C7.50122 21.0336 7.4841 22.0499 7.46697 23.1003C7.42416 23.365 7.39847 23.6212 7.3899 23.8945C7.3899 24.0311 7.3899 24.1592 7.3899 24.2958V24.5008L7.39847 24.6033C7.39847 24.6374 7.39847 24.6801 7.39847 24.6887C7.41559 24.8168 7.43272 24.9449 7.45841 25.0388C7.61254 25.0303 7.74098 25.0132 7.86942 25.0132C7.86942 25.0132 7.88655 25.0132 7.89511 25.0217L7.94649 25.0388L8.05781 25.073L8.27188 25.1413C8.41744 25.184 8.56301 25.2181 8.70002 25.2523C8.98259 25.3291 9.27373 25.4145 9.56486 25.4829C9.856 25.5597 10.1386 25.6622 10.4383 25.7391C10.7294 25.833 11.0205 25.944 11.3202 26.038C11.5514 26.26 11.7912 26.4735 12.031 26.6614C12.2622 26.8749 12.5019 27.0627 12.7502 27.2591C12.8701 27.3616 12.99 27.4641 13.1099 27.558C13.2298 27.6605 13.3668 27.7459 13.4866 27.8569C13.6065 27.9594 13.735 28.0619 13.8634 28.1644L14.0604 28.3181L14.2487 28.4803C14.4457 28.7451 14.6512 29.0013 14.8053 29.2916C14.8909 29.4368 14.968 29.582 15.0536 29.7186C15.1307 29.8638 15.1992 30.0175 15.2677 30.1712C15.3362 30.3249 15.4133 30.4701 15.4818 30.6238C15.5417 30.7775 15.6017 30.9398 15.6616 31.0935C15.7986 31.401 15.8928 31.734 16.0127 32.05L16.0812 32.2976L16.124 32.5538C16.1582 32.7246 16.1839 32.8954 16.2096 33.0662L16.2353 33.1943V33.2285V33.237V33.2541L16.2439 33.3309L16.261 33.4761V33.4932H16.2781H16.3124H16.3723H16.5436C16.8775 33.4932 17.2029 33.4932 17.5369 33.5188C18.8641 33.3139 20.217 33.3224 21.5956 33.4932C22.9743 33.2712 24.37 33.3566 25.7914 33.4761C27.2129 33.5957 28.6514 33.2797 30.1157 33.459C31.5799 33.4761 33.0613 33.4078 34.5598 33.442C36.0583 33.5359 37.5825 33.6384 39.1152 33.4334C40.6479 33.3822 42.2064 33.3053 43.7734 33.4249C45.3404 33.1943 46.9245 33.2968 48.5257 33.4249C50.127 33.3907 51.7368 33.553 53.3638 33.4249C54.1772 33.442 54.9907 33.4249 55.8127 33.3993C56.2237 33.3907 56.6348 33.3822 57.0458 33.3907H57.354H57.4311C57.4397 33.3907 57.4311 33.3907 57.4397 33.3907H57.4568C57.4568 33.3907 57.5082 33.4078 57.551 33.4249C57.5595 33.3907 57.5767 33.348 57.5852 33.2968V33.2626L57.6109 33.1858L57.6709 32.8613L57.7308 32.5367C57.7565 32.4257 57.765 32.3147 57.7993 32.2122L57.9791 31.5718C57.9962 31.5205 58.0048 31.4693 58.0219 31.4095L58.0819 31.2558L58.1932 30.9483L58.3045 30.6409C58.3388 30.5384 58.3901 30.436 58.4329 30.342L58.6984 29.7357C58.8012 29.5393 58.9039 29.3429 59.0067 29.1464C59.4262 28.3693 60.0085 27.6776 60.7021 27.131C60.7877 27.0627 60.8648 26.9859 60.9504 26.9176L61.2159 26.7297C61.3957 26.6101 61.5669 26.4735 61.7553 26.3625L62.3205 26.0294L62.4575 25.944L62.603 25.8672L62.8942 25.722C63.3052 25.5683 63.7248 25.4658 64.1272 25.3121C64.3327 25.2523 64.5382 25.201 64.7438 25.1413L65.052 25.0559L65.3688 24.9961L65.9939 24.8765L66.1309 24.8424C66.1309 24.8424 66.1738 24.8424 66.1909 24.8338C66.1909 24.8168 66.1909 24.7997 66.1909 24.7911C66.1909 24.7741 66.1909 24.7655 66.1909 24.7484V24.7314C66.1909 24.7314 66.1909 24.7314 66.1994 24.663C66.1823 23.1003 66.3279 21.546 66.208 20.0174C66.1909 19.2488 66.1652 18.4888 66.1652 17.7373C66.1652 17.3615 66.1652 16.9772 66.1737 16.6015L66.1909 16.0378L66.208 15.756V15.6108L66.2166 15.5767C66.2166 15.5767 66.1481 15.534 66.1224 15.534C66.1138 15.534 66.1052 15.534 66.0796 15.5425C66.0624 15.5425 66.0453 15.5425 66.0367 15.5511C66.0196 15.5511 66.0111 15.5511 66.0025 15.5511H65.9854H65.9169C65.7114 15.4998 65.5144 15.4571 65.3175 15.4144C65.2147 15.3888 65.1205 15.3717 65.0178 15.3461L64.7266 15.2522C64.5382 15.1838 64.3499 15.1241 64.1529 15.0643C63.9731 14.9874 63.7847 14.9106 63.6049 14.8337L63.3309 14.7312L63.0569 14.6117C62.8856 14.5092 62.7144 14.4153 62.5431 14.3213C62.3719 14.2188 62.2177 14.1078 62.0465 14.0054C61.7039 13.8089 61.4042 13.5613 61.0874 13.3478C60.9333 13.2368 60.7877 13.1001 60.6422 12.9806C60.4966 12.8525 60.3425 12.7329 60.214 12.5877C60.077 12.4511 59.9486 12.3059 59.8201 12.1608L59.7259 12.0583C59.7259 12.0583 59.666 11.9814 59.6403 11.9473L59.469 11.7167C58.9638 11.136 58.647 10.4272 58.3559 9.74399C58.1076 9.03518 57.8935 8.32638 57.7308 7.60049C57.7051 7.42116 57.6794 7.24182 57.6537 7.06249C57.6537 7.01125 57.6537 6.96001 57.6366 6.90877V6.83191L57.628 6.81483V6.80629H57.5938L57.4825 6.82337H57.4568C57.4568 6.82337 57.4568 6.82337 57.4397 6.82337H57.3712H57.1228C56.9516 6.82337 56.7889 6.82337 56.6176 6.82337C56.2837 6.82337 55.9497 6.79775 55.6158 6.77213C54.2885 6.94293 52.9784 6.62696 51.7026 6.74651C50.4267 6.74651 49.168 6.75505 47.9435 6.72089C46.719 6.45616 45.5202 6.67819 44.3471 6.69527C43.174 6.66965 42.0351 6.84899 40.922 6.66965C39.8088 6.64403 38.7299 6.53302 37.6766 6.63549C36.6234 6.66965 35.6044 6.2512 34.6197 6.60134C33.635 6.66111 32.6759 6.32806 31.7597 6.56718C30.8435 6.78921 29.953 6.54156 29.1052 6.53302C28.2575 6.51594 27.4355 6.5074 26.6648 6.49886C23.1626 6.43908 20.4054 6.3793 18.5301 6.31098C16.6463 6.24266 15.6445 6.17435 15.6445 6.10603C15.6445 6.02917 16.8861 5.95231 19.1895 5.87545C21.4929 5.80713 24.8581 5.73881 29.1138 5.67904C29.9615 5.6705 30.8521 5.48262 31.7683 5.64488C32.6931 5.64488 33.6435 5.4997 34.6283 5.61072C35.613 5.36306 36.632 5.56802 37.6852 5.57656C38.7384 5.56802 39.8174 5.64488 40.9305 5.5424C42.0437 5.39722 43.1825 5.61072 44.3557 5.51678C45.5288 5.6705 46.7276 5.6278 47.952 5.49116C49.1765 5.63634 50.4267 5.457 51.7111 5.46554C52.987 5.68758 54.2971 5.53386 55.6243 5.43992C55.9583 5.42284 56.2922 5.4143 56.6262 5.40576C56.7974 5.40576 56.9601 5.40576 57.1314 5.40576C57.3455 5.40576 57.5681 5.40576 57.7822 5.40576C58.0819 5.40576 58.3816 5.40576 58.6813 5.4143H58.9039H58.9296C58.9296 5.4143 58.9553 5.4143 58.9467 5.4143V5.46554V5.57656L58.9638 6.01209C58.981 6.30244 58.9981 6.5928 59.0067 6.88315V6.90877V6.92585V6.95147L59.0238 7.01125L59.0495 7.1308L59.0923 7.36138C59.118 7.67735 59.2036 7.98479 59.2892 8.29222C59.3235 8.44594 59.3834 8.59111 59.4434 8.74483C59.5033 8.89001 59.5632 9.04372 59.6232 9.1889C59.9143 9.76107 60.2226 10.3247 60.6079 10.8456L60.7706 11.0335L60.8477 11.1274L60.9333 11.2128L61.2844 11.5544C61.3957 11.674 61.5327 11.7679 61.6526 11.8789C61.781 11.9814 61.8923 12.101 62.0293 12.1949C62.2948 12.3828 62.5431 12.6048 62.8257 12.7671C62.9627 12.8525 63.0997 12.955 63.2367 13.0404C63.3823 13.1172 63.5278 13.2026 63.6648 13.2965C63.7419 13.3307 63.819 13.3649 63.896 13.3905L64.1358 13.4673C64.2985 13.5186 64.4526 13.5698 64.6067 13.6296C64.7694 13.6723 64.9321 13.7065 65.0948 13.7492L65.3346 13.8175C65.4202 13.8346 65.4973 13.8431 65.5829 13.8602C65.7456 13.8858 65.9169 13.92 66.0796 13.9456C66.1052 13.9456 66.1138 13.9456 66.1481 13.9541H66.2679L66.5163 13.9797L67.0129 14.0054L67.501 14.031H67.6209L67.6808 14.0395C67.6979 14.0395 67.6808 14.0566 67.6894 14.0651V14.3555C67.6894 14.6971 67.6894 15.0472 67.6894 15.3888L67.7151 16.0464C67.7151 16.2342 67.7236 16.4221 67.7236 16.61C67.7236 16.9857 67.7236 17.3615 67.7236 17.7458C67.7151 18.5058 67.6894 19.2659 67.7065 20.0259C67.7493 21.5545 67.4667 23.1088 67.7151 24.6716C67.7151 25.0217 67.7151 25.3718 67.7151 25.7305V26.2856C67.7151 26.2856 67.6979 26.3112 67.6722 26.3112H67.6037L67.4667 26.3198H67.2013C66.8502 26.3454 66.4906 26.3625 66.1395 26.3795L65.5915 26.4564L65.326 26.4906L65.0606 26.5589C64.8893 26.6016 64.7095 26.6443 64.5382 26.6955C64.2043 26.8236 63.8532 26.9346 63.5364 27.114L63.2881 27.225L63.1596 27.2848L63.0398 27.3531L62.5688 27.6264C62.4147 27.7203 62.2691 27.8399 62.115 27.9423L61.8923 28.1046C61.8238 28.1644 61.7553 28.2241 61.6868 28.2839C61.1217 28.7536 60.6593 29.3514 60.274 29.9833C60.1541 30.1285 60.0342 30.2737 59.9143 30.4189C59.8116 30.5811 59.7259 30.7434 59.6317 30.9056C59.5889 30.991 59.5376 31.0679 59.5033 31.1533L59.4006 31.418L59.3064 31.6828L59.2635 31.8194C59.2464 31.8621 59.2379 31.9133 59.2293 31.956L59.1094 32.5111C59.0837 32.6051 59.0837 32.699 59.0752 32.7929L59.0495 33.0748L59.0238 33.3566V33.3907V33.4505V33.5871V33.8604C59.0238 34.2362 59.0067 34.6119 59.0067 34.9877C58.6299 35.0048 58.2446 35.0048 57.8507 35.0133C57.5767 35.0133 57.3027 35.0133 57.0286 35.0218C56.6176 35.0218 56.2066 35.0218 55.7956 35.0218C54.9736 35.0218 54.1601 34.9962 53.3466 34.9791C51.7197 35.0048 50.1013 34.9877 48.5086 34.9791C46.9074 35.056 45.3232 34.8767 43.7563 34.9791C42.1893 35.0816 40.6308 34.8681 39.0981 34.9706C37.5653 35.0389 36.0411 35.0816 34.5426 34.9621C33.0442 34.9621 31.5628 34.74 30.0985 34.945C28.6343 34.9962 27.1957 35.2695 25.7743 34.9279C24.3529 35.0133 22.9571 34.7656 21.5785 34.9108C20.1999 34.6632 18.847 34.9023 17.5197 34.8937C17.1858 34.8767 16.8604 34.8681 16.5264 34.851C16.261 34.851 16.0041 34.8425 15.7472 34.834H15.3362L15.1307 34.8254H15.028C15.028 34.8254 15.028 34.7571 15.028 34.7229C15.0194 34.4582 15.0023 34.1935 14.9937 33.9373L14.9766 33.5444V33.4505V33.3993V33.3736L14.9509 33.2626C14.9252 33.1175 14.8995 32.9723 14.8653 32.8186L14.8139 32.6051L14.7368 32.3916C14.6341 32.1183 14.557 31.8365 14.4457 31.5632C14.3943 31.4266 14.3515 31.2899 14.3001 31.1533C14.2487 31.0167 14.1888 30.8886 14.1289 30.7519C14.0689 30.6238 14.0175 30.4872 13.9576 30.3591C13.8891 30.231 13.8206 30.1114 13.7435 29.9833C13.6151 29.7271 13.4267 29.5051 13.2554 29.2831L13.1099 29.1294C13.0585 29.0781 13.0071 29.0269 12.9557 28.9842C12.853 28.8817 12.7674 28.7792 12.6732 28.6768C12.5875 28.5657 12.4848 28.4718 12.382 28.3693C12.2878 28.2668 12.1937 28.1644 12.0909 28.0619C11.8854 27.8655 11.6713 27.6947 11.4573 27.5153C11.2261 27.3702 10.9863 27.225 10.7294 27.131C10.4896 27.0115 10.2499 26.8834 10.0016 26.7724C9.74468 26.687 9.49636 26.5845 9.24804 26.5076C8.99115 26.4479 8.73427 26.371 8.47738 26.3198C8.34894 26.2941 8.2205 26.2771 8.09206 26.2514L7.90367 26.2173L7.80948 26.2002H7.75811L7.68104 26.1831C7.22721 26.2429 6.71344 26.26 6.22536 26.2514H6.2168V26.2173V26.1746V26.0807V25.8928V25.5256C6.2168 25.2779 6.22536 25.0303 6.24249 24.7911C6.24249 24.7143 6.24249 24.6972 6.25105 24.663V24.5606L6.2853 24.3556C6.30243 24.219 6.31955 24.0909 6.32811 23.9542C6.36236 23.6895 6.38805 23.4248 6.39662 23.16C6.44799 22.1096 6.17398 21.0934 6.43087 20.1113C6.17398 19.1292 6.39662 18.1728 6.46512 17.259C6.49937 16.7979 6.47368 16.3538 6.46512 15.9097C6.46512 15.7987 6.46512 15.6792 6.45656 15.5681C6.45656 15.3973 6.45656 15.2265 6.45656 15.0643C6.45656 14.8935 6.45656 14.7312 6.47368 14.569L6.49081 14.3384C6.49081 14.3384 6.5165 14.3213 6.53362 14.3213H6.59356L6.722 14.3299C6.99601 14.2701 7.31284 14.2359 7.6211 14.2188C7.80092 14.2188 7.86942 14.2018 7.97218 14.1932C8.06637 14.1932 8.16912 14.1762 8.26331 14.1762C8.3575 14.1762 8.46026 14.1676 8.55445 14.1591C8.64864 14.1591 8.74283 14.1335 8.83702 14.1164C9.02541 14.0822 9.20523 14.0395 9.38504 13.9797C9.56486 13.9456 9.74468 13.8943 9.91594 13.8431C10.0016 13.8175 10.0872 13.7833 10.1728 13.7577C10.2585 13.7235 10.3355 13.6808 10.4126 13.6381C10.5667 13.5527 10.7294 13.4759 10.875 13.399C11.0205 13.3051 11.1661 13.2197 11.3117 13.1343C11.5943 12.955 11.8426 12.7329 12.108 12.5536C12.245 12.4682 12.3563 12.3572 12.4762 12.2632C12.5961 12.1693 12.716 12.0754 12.8444 11.9814C13.0499 11.7594 13.2554 11.5544 13.4438 11.3409C13.6151 11.1189 13.7949 10.9139 13.949 10.6919C14.8481 9.38532 15.2078 8.1812 15.3705 7.36138C15.4732 6.95147 15.4903 6.63549 15.5332 6.422C15.5674 6.2085 15.5931 6.09749 15.6188 6.09749L15.6102 6.05479Z" fill="black"/>
<path id="Vector_3" d="M36.9572 8.81316C36.9572 8.92417 36.1609 8.94979 34.7994 9.29139C34.6881 9.31701 34.5682 9.3597 34.4483 9.38532C34.3284 9.41948 34.2 9.45364 34.0801 9.49634C33.9517 9.54758 33.8232 9.59028 33.6948 9.64152C33.5663 9.69276 33.4293 9.744 33.2838 9.78669C33.1211 9.77815 33.0012 9.88917 32.8727 9.99165C32.7443 10.0941 32.6159 10.1966 32.4275 10.1795C32.2648 10.2222 32.1107 10.2991 31.9651 10.3845C31.811 10.4699 31.6739 10.5809 31.5284 10.6834C31.3828 10.7859 31.2116 10.8713 31.0489 10.9652C30.8776 11.0506 30.7235 11.1701 30.6036 11.3239C30.518 11.5288 30.3296 11.6057 30.1241 11.6825C29.9271 11.7594 29.7387 11.8619 29.6788 12.1095C29.4219 12.4426 29.1051 12.7244 28.8054 13.0574C28.3687 13.2709 28.2403 13.7577 28.0005 14.1505C27.5552 14.4153 27.384 14.902 27.3155 15.4059C26.8274 15.7133 26.6561 16.2257 26.776 16.7979C26.6304 17.2846 26.3821 17.7629 26.4335 18.318C26.3736 18.8474 26.365 19.3854 26.3136 19.932C26.5191 20.4871 26.5277 21.0165 26.4421 21.6058C26.7418 22.1353 26.776 22.6904 26.8445 23.2881C26.8616 23.4333 26.9044 23.5785 26.9644 23.7151C27.0243 23.8518 27.1014 23.9799 27.1785 24.108C27.3326 24.3642 27.4867 24.6203 27.5467 24.9278C27.8121 25.4658 28.1889 25.9526 28.5314 26.4649C28.8311 27.0115 29.1907 27.558 29.7987 27.8399C30.3039 28.2241 30.8434 28.5487 31.3229 28.9927C31.9908 29.1379 32.496 29.5137 33.0611 29.8723C33.6777 30.0773 34.277 30.4274 34.9706 30.4274C35.6214 30.5897 36.3064 30.5128 36.9829 30.6153C37.6594 30.6836 38.3615 30.6836 38.9952 30.4274C39.3034 30.2908 39.6288 30.231 39.9542 30.1627C40.1169 30.1371 40.2796 30.0944 40.4337 30.0517C40.5964 30.009 40.7505 29.9492 40.8961 29.8809C41.0674 29.8809 41.2301 29.8296 41.3842 29.7613C41.4613 29.7272 41.5383 29.693 41.6068 29.6588C41.6753 29.6161 41.7438 29.5734 41.8123 29.5307L42.0178 29.3941L42.2148 29.2489C42.3518 29.155 42.4888 29.0781 42.6344 29.0013C43.1653 28.6426 43.7732 28.3693 44.1586 27.8484C44.5953 27.3872 44.9806 26.909 45.4259 26.4735C45.4772 26.1234 45.6656 25.9013 45.8711 25.6707C45.9824 25.5597 46.0852 25.4487 46.1794 25.3292C46.2308 25.2694 46.2736 25.2096 46.3164 25.1413C46.3506 25.073 46.3849 25.0046 46.4106 24.9363C46.813 24.4666 46.8987 23.8432 47.1127 23.2967C47.1641 23.0063 47.284 22.7416 47.3782 22.4683L47.4467 22.2634C47.4638 22.195 47.4809 22.1267 47.4895 22.0499C47.5152 21.9132 47.5323 21.7681 47.5152 21.6229C47.6265 21.0592 47.5152 20.4956 47.6436 19.9491C47.6008 19.8124 47.5837 19.6758 47.5837 19.5392C47.5837 19.4025 47.5837 19.2659 47.5923 19.1292C47.6094 18.9926 47.6008 18.856 47.5923 18.7193C47.5923 18.5827 47.5666 18.4546 47.5152 18.3265C47.4381 17.8056 47.284 17.3017 47.1727 16.8064C47.1984 16.6698 47.1898 16.5331 47.1641 16.405C47.1384 16.277 47.087 16.1659 47.0271 16.0549C46.9757 15.9439 46.8987 15.8329 46.8302 15.7304C46.7617 15.6279 46.7017 15.5169 46.6418 15.4144C46.539 15.1924 46.402 14.996 46.265 14.7996C46.1366 14.6031 46.0081 14.4067 45.9568 14.1591C45.717 13.7662 45.5286 13.3222 45.1518 13.066C44.9977 12.9123 44.9121 12.6902 44.8093 12.4938C44.7066 12.2974 44.5524 12.1351 44.2784 12.1266C44.0986 12.0156 43.9959 11.8277 43.8674 11.6655C43.739 11.5117 43.5934 11.358 43.3622 11.3409C43.1396 11.3153 42.994 11.2043 42.8484 11.0762C42.7114 10.9481 42.5916 10.7944 42.4374 10.7005C42.2833 10.6065 42.1292 10.5126 41.9836 10.4357C41.8295 10.3503 41.6839 10.2649 41.5383 10.1966C40.8704 9.86355 40.2453 9.62444 39.6888 9.45364C39.1322 9.28285 38.6355 9.18037 38.2416 9.09497C37.8392 9.02665 37.5309 8.96687 37.3169 8.93271C37.1028 8.89001 36.9915 8.85586 36.9915 8.8217C36.9915 8.75338 37.5395 8.64236 38.5756 8.70214C39.0894 8.7363 39.7316 8.8217 40.4594 9.00957C41.1873 9.19745 42.0093 9.50488 42.8656 9.96603C43.0368 10.0514 43.2338 10.1197 43.4222 10.2051C43.6105 10.2905 43.7818 10.4101 43.9102 10.598C44.0815 10.7175 44.2699 10.8286 44.4583 10.9481C44.6466 11.0677 44.8179 11.2128 44.9549 11.4007C45.4515 11.5288 45.6571 12.007 45.9568 12.3828C46.2907 12.7415 46.5219 13.1855 46.8901 13.5528C47.087 13.7321 47.2241 13.9627 47.3268 14.2018C47.4467 14.4409 47.5323 14.6885 47.7036 14.9106C47.7978 15.4657 48.0461 15.9439 48.3543 16.4392C48.38 17.0199 48.7054 17.5323 48.791 18.1301C48.6626 18.745 48.8852 19.3171 48.9794 19.9405C49.0651 20.5639 48.9195 21.1873 48.8852 21.8278C48.7482 22.4512 48.7054 23.1173 48.4657 23.7407C48.3715 24.4069 48.1317 25.0644 47.7036 25.611C47.4552 26.2515 47.0271 26.8151 46.6075 27.3787C46.2565 27.9936 45.6913 28.4633 45.1775 28.9671C44.9292 29.2233 44.6124 29.4197 44.3041 29.6076C44.15 29.7101 43.9959 29.7955 43.8503 29.915C43.7047 30.026 43.5677 30.1541 43.4478 30.2993C42.8399 30.7178 42.1377 30.9996 41.4613 31.3156C40.7505 31.5632 40.0141 31.7426 39.2777 31.956C38.4814 31.8536 37.7621 32.0756 36.9743 32.1781C36.1951 32.2464 35.4159 32.1354 34.6709 31.956C33.9088 31.8365 33.181 31.6059 32.4874 31.3156C31.751 31.1021 31.1687 30.6068 30.5008 30.2993C30.3296 30.2225 30.1669 30.1285 30.0213 30.0175C29.8758 29.9065 29.7302 29.7955 29.5932 29.6674C29.3192 29.4283 29.0623 29.1721 28.7626 28.9671C28.1803 28.5316 27.658 28.0192 27.3326 27.3787C27.1185 27.0969 26.9644 26.7809 26.8103 26.4735C26.7246 26.3198 26.6476 26.1661 26.5619 26.0209C26.5106 25.9526 26.4677 25.8757 26.4078 25.8159C26.3564 25.7476 26.2965 25.6793 26.2365 25.6195C26.0567 25.3292 25.8427 25.0473 25.68 24.7484C25.6029 24.5947 25.5344 24.441 25.4916 24.2702C25.4573 24.0994 25.4488 23.9286 25.4745 23.7407C25.3375 23.4333 25.2861 23.1088 25.2518 22.7757C25.2433 22.6989 25.2261 22.6135 25.2176 22.5366C25.209 22.4598 25.2004 22.3744 25.1833 22.2975C25.1576 22.1353 25.1148 21.9815 25.0549 21.8278C25.0977 21.657 25.1063 21.4948 25.1063 21.3411C25.1063 21.1788 25.0891 21.0251 25.0634 20.8714C25.0378 20.7177 25.0121 20.5639 24.9949 20.4102C24.9778 20.2565 24.9521 20.1028 24.9607 19.9491C25.0121 19.3257 25.1662 18.745 25.1491 18.1386C25.1234 17.5238 25.4573 17.0028 25.5858 16.4477C25.5943 16.3026 25.6371 16.1659 25.6885 16.0293C25.7485 15.9012 25.817 15.7816 25.894 15.6621C25.9625 15.5425 26.0396 15.423 26.0995 15.3034C26.1595 15.1839 26.2023 15.0558 26.228 14.9191C26.4934 14.4494 26.7161 13.9627 27.0415 13.5613C27.0415 13.2539 27.1956 13.0404 27.384 12.8696C27.5723 12.6988 27.795 12.5621 27.9748 12.3913C28.3173 12.0583 28.4714 11.5288 28.9767 11.4093C29.0623 11.1701 29.225 11.0079 29.4219 10.8969C29.6189 10.7859 29.8244 10.7005 30.0213 10.6151C30.2183 10.5211 30.3638 10.3759 30.5265 10.2564C30.6892 10.1283 30.8519 10.0173 31.0574 9.98311C31.1773 9.80377 31.3657 9.73546 31.5455 9.68422C31.7339 9.63298 31.9137 9.59882 32.0678 9.50488C32.436 9.46218 32.7101 9.24015 33.0183 9.16329C33.1639 9.09497 33.3094 9.03519 33.455 8.99249C33.6006 8.95833 33.7462 8.93271 33.8917 8.93271C34.0287 8.89855 34.1657 8.88147 34.2942 8.85586C34.4226 8.83024 34.5511 8.80462 34.6709 8.79608C36.1437 8.6082 36.9401 8.77046 36.9315 8.84732L36.9572 8.81316Z" fill="black"/>
<path id="Vector_4" d="M40.468 16.7895C40.4167 16.7895 40.3739 16.7041 40.3139 16.5418C40.2968 16.4991 40.2882 16.4564 40.2711 16.4137C40.254 16.3625 40.2368 16.3113 40.2112 16.26C40.194 16.2003 40.1683 16.149 40.1512 16.0807C40.1255 16.0209 40.0998 15.9526 40.0656 15.8843C40.0485 15.8416 40.0313 15.7903 40.0057 15.7476C39.98 15.7049 39.9543 15.6537 39.9286 15.611C39.8686 15.5171 39.7916 15.4317 39.7402 15.3207C39.7659 15.2353 39.6803 15.2096 39.6032 15.184C39.5261 15.1584 39.4576 15.1328 39.5004 15.0218C39.4576 14.8851 39.3292 14.8083 39.1836 14.7485C39.1151 14.7143 39.0809 14.646 39.0209 14.6033C38.9695 14.5521 38.9096 14.5008 38.8069 14.5094C38.6698 14.5691 38.6442 14.4752 38.6013 14.3813C38.5585 14.2959 38.4986 14.2105 38.3616 14.313C38.1818 14.313 38.0276 14.2361 37.8649 14.1763C37.7365 13.9543 37.5053 14.0995 37.3169 14.108C37.1457 13.8603 36.923 13.9543 36.7346 14.1251C36.5206 13.8262 36.2723 13.9116 36.1438 14.2361C36.0496 14.2617 35.9383 14.2703 35.8355 14.2873C35.7328 14.313 35.63 14.3557 35.5701 14.4581C35.4845 14.5179 35.3903 14.5691 35.3132 14.6375C35.2704 14.6716 35.2276 14.6972 35.1848 14.7229C35.142 14.7485 35.0991 14.7741 35.0478 14.7997C35.005 15.0815 34.8936 15.1926 34.6196 15.2438C34.6368 15.3207 34.6368 15.3804 34.6196 15.4317C34.6111 15.4829 34.5854 15.5256 34.5597 15.5683C34.534 15.611 34.4997 15.6452 34.4484 15.6793C34.4056 15.7135 34.3713 15.7562 34.3199 15.7903C34.2771 15.833 34.2429 15.8757 34.2429 15.9355C34.2429 15.9953 34.2429 16.0551 34.2514 16.1063C34.2514 16.1319 34.2514 16.1661 34.2514 16.1917C34.2514 16.2173 34.2514 16.2515 34.2514 16.2771C34.2514 16.3283 34.2257 16.3796 34.1744 16.4308C34.1487 16.5418 34.1744 16.6614 34.1744 16.781C34.1915 16.8749 34.2 16.9432 34.2086 17.0286C34.2086 17.0542 34.1915 17.0713 34.1915 17.0969V17.1738C34.1915 17.225 34.1915 17.2763 34.2172 17.319C34.2514 17.4129 34.3456 17.4983 34.4912 17.5154C34.6796 17.652 34.9022 17.7545 35.0392 18.0107C35.3903 17.9851 35.553 18.2156 35.7414 18.4804C36.0154 18.5999 36.1952 18.8903 36.5377 18.9245C36.7946 19.1038 37.1457 19.1294 37.3854 19.3685C37.6423 19.582 37.8992 19.7955 38.2503 19.8382C38.6185 19.8724 38.7897 20.2225 39.1065 20.3506C39.1836 20.5299 39.3377 20.6153 39.4919 20.6837C39.646 20.7605 39.8173 20.8203 39.9286 20.9655C39.9971 21.0167 40.0656 21.085 40.1255 21.1448C40.1769 21.2131 40.2368 21.29 40.2882 21.3583C40.3482 21.4266 40.3995 21.5035 40.4595 21.5718C40.5194 21.6401 40.5879 21.6999 40.665 21.7682C40.7249 21.8451 40.7934 21.9134 40.8448 21.9902C40.8962 22.0756 40.9476 22.161 40.9989 22.2464C41.076 22.4343 41.1445 22.6307 41.1359 22.8357C41.35 22.9979 41.3415 23.2371 41.2901 23.4249C41.2216 23.6043 41.1359 23.758 41.1531 23.9373C41.1017 24.0142 41.076 24.0996 41.0589 24.185C41.0503 24.2277 41.0418 24.2704 41.0418 24.3131C41.0332 24.3558 41.0246 24.3985 41.0161 24.4412C40.9989 24.5266 40.9904 24.612 40.9732 24.6974C40.9561 24.7828 40.9219 24.8596 40.8876 24.9365C40.8705 25.0219 40.8362 25.0987 40.7934 25.1756C40.7421 25.2439 40.6907 25.3122 40.6393 25.3806C40.5879 25.4489 40.5365 25.5086 40.4852 25.577C40.4338 25.6453 40.3995 25.7221 40.3824 25.8075C40.2625 25.9271 40.1855 26.0723 40.0742 26.1918C39.9628 26.3114 39.843 26.4309 39.6803 26.4651C39.646 26.542 39.5861 26.6017 39.5176 26.6444C39.4491 26.6786 39.372 26.7042 39.2949 26.7298C39.1408 26.7811 38.9867 26.7896 38.8839 26.9092C38.7469 26.969 38.6185 27.0202 38.4815 27.0714C38.3445 27.1056 38.2075 27.1483 38.0704 27.1568C37.9078 27.0544 37.7793 27.0714 37.6509 27.1141C37.5224 27.1483 37.4025 27.2337 37.2655 27.2422C37.0087 27.2252 36.7432 27.4045 36.5035 27.1995C36.2551 27.1568 36.0496 26.9946 35.8013 27.0458C35.6814 27.0287 35.5958 26.9092 35.5187 26.8238C35.4331 26.7298 35.3475 26.6786 35.1762 26.7982C35.0649 26.7811 34.9964 26.6701 34.9279 26.5847C34.8594 26.4907 34.7909 26.4224 34.6368 26.4651C34.4912 26.5078 34.4056 26.4309 34.3542 26.3456C34.2942 26.2602 34.26 26.1491 34.2 26.0808C34.063 25.9527 33.9603 25.799 33.8575 25.6624C33.4294 25.0048 33.3352 24.3985 33.3438 24.0056C33.3438 23.8092 33.378 23.664 33.4037 23.5616C33.4294 23.4591 33.4636 23.4164 33.4979 23.4164C33.5407 23.4164 33.575 23.4762 33.6263 23.5872C33.652 23.6384 33.6692 23.7067 33.6948 23.7921C33.7291 23.869 33.7633 23.9629 33.789 24.0569C33.8147 24.1594 33.8747 24.2618 33.926 24.3814C33.9432 24.4412 33.986 24.4924 34.0202 24.5522C34.0545 24.612 34.0802 24.6717 34.123 24.7315C34.2771 24.9792 34.4912 25.2268 34.7738 25.4403C34.8337 25.483 34.9193 25.5001 34.9964 25.5172C35.0735 25.5343 35.1248 25.577 35.1505 25.688C35.219 25.7307 35.3047 25.7392 35.3817 25.7563C35.4673 25.7734 35.5359 25.799 35.5872 25.8844C35.7157 25.8075 35.7927 25.8161 35.8612 25.8673C35.9297 25.9186 35.9982 25.9869 36.0839 26.021C36.2551 26.0552 36.4264 26.1662 36.6319 26.0894C36.7346 26.0296 36.8203 26.0467 36.9145 26.0723C37.0087 26.1064 37.1114 26.115 37.2056 26.0723C37.4111 26.2175 37.6252 26.1406 37.7964 25.9613C37.9078 26.0125 38.0105 25.9613 38.1047 25.9186C38.1903 25.8588 38.276 25.7819 38.3701 25.7392C38.5072 25.799 38.6185 25.7734 38.6955 25.688C38.7383 25.6538 38.7726 25.6026 38.7983 25.5599C38.824 25.5086 38.8497 25.4574 38.8754 25.4062C38.9867 25.2268 39.2093 25.1585 39.2949 24.9621C39.4491 24.8169 39.4748 24.5949 39.5861 24.4156C39.5861 24.3558 39.5861 24.3045 39.5861 24.2448C39.5861 24.185 39.5861 24.1337 39.5946 24.0825C39.5946 24.0569 39.6032 24.0313 39.6203 24.0056C39.6203 23.98 39.6374 23.9544 39.646 23.9288C39.6631 23.8775 39.6974 23.8263 39.7402 23.7751C39.7231 23.6555 39.7145 23.5445 39.7316 23.4249C39.7316 23.3737 39.7316 23.331 39.7316 23.2883C39.7316 23.2456 39.7316 23.1944 39.7231 23.1517C39.6631 23.0748 39.6289 22.9894 39.6118 22.904L39.5604 22.7674C39.5433 22.7247 39.509 22.6734 39.4748 22.6307C39.4405 22.5966 39.4063 22.5453 39.3806 22.4856C39.3549 22.4343 39.3377 22.366 39.3035 22.3148C39.2692 22.255 39.235 22.2037 39.1836 22.1696C39.1322 22.1354 39.0552 22.1098 38.9695 22.1183C38.7555 21.9732 38.5757 21.7511 38.3016 21.6316C38.079 21.4437 37.8307 21.2644 37.531 21.179C37.3854 20.8118 37.0258 20.7947 36.7004 20.7349C36.3836 20.6495 36.1096 20.4702 35.8441 20.2823C35.5444 20.1542 35.2618 19.9748 34.9878 19.7955C34.6624 19.6845 34.4826 19.3514 34.1487 19.2233C34.063 19.1892 33.9945 19.1379 33.926 19.0782C33.8575 19.0184 33.8062 18.9501 33.7462 18.8732C33.6349 18.7366 33.5321 18.5743 33.3695 18.4633C33.2239 18.3352 33.0869 18.19 32.9841 18.0022C32.9327 17.9168 32.8899 17.8143 32.8642 17.7118C32.8471 17.6606 32.8386 17.6093 32.83 17.5581C32.83 17.5068 32.83 17.4471 32.83 17.3873C32.7701 17.1823 32.8129 16.9603 32.8386 16.7724C32.8814 16.6016 32.8814 16.4394 32.7957 16.26C32.7957 16.1746 32.7872 16.0807 32.7701 15.9953C32.7701 15.9526 32.7529 15.9014 32.7529 15.8587C32.7529 15.816 32.7529 15.7647 32.7529 15.722C32.7529 15.6281 32.7786 15.5427 32.83 15.4658C32.8728 15.389 32.9584 15.3207 33.0698 15.2694C33.0869 15.184 33.1126 15.0986 33.1554 15.0303C33.2068 14.962 33.2581 14.8937 33.3181 14.8253C33.3695 14.757 33.4294 14.6972 33.4808 14.6289C33.5321 14.5606 33.5664 14.4837 33.5835 14.3984C33.789 14.3471 33.8918 14.2361 33.986 14.0995C34.0802 13.9714 34.1572 13.8176 34.2942 13.7322C34.3627 13.6981 34.4312 13.6554 34.5083 13.6212C34.5768 13.5956 34.6539 13.5614 34.7224 13.5273C34.8594 13.459 34.9878 13.3992 35.0991 13.2796C35.2105 13.1601 35.356 13.1259 35.5016 13.1003C35.6472 13.0832 35.7927 13.0747 35.9212 13.0234C36.0411 12.9295 36.1866 12.938 36.3322 12.9637C36.4692 12.9978 36.6062 13.0149 36.7261 12.9295C36.983 12.9466 37.2484 12.8953 37.4882 12.9722C37.6252 12.8185 37.7622 12.827 37.8735 12.9039C37.9848 12.9722 38.0876 13.0832 38.1903 13.1345C38.2931 13.1942 38.4215 13.1601 38.5414 13.1772C38.6613 13.1942 38.7726 13.2284 38.824 13.3907C38.9781 13.3223 39.0894 13.365 39.1665 13.4419C39.2436 13.5273 39.3035 13.6468 39.372 13.7237C39.4405 13.8091 39.5347 13.8518 39.6289 13.8945C39.7231 13.9372 39.8001 13.997 39.8258 14.1165C39.9543 14.1165 40.0142 14.1934 40.0399 14.2959C40.0742 14.3898 40.0913 14.4923 40.1683 14.5435C40.1683 14.646 40.2197 14.7143 40.2711 14.7826C40.3225 14.8424 40.391 14.9022 40.4081 14.9791C40.5194 15.0901 40.5794 15.2353 40.5622 15.389C40.5794 15.4573 40.5965 15.5171 40.6136 15.5768C40.6307 15.6366 40.6307 15.6964 40.6479 15.7562C40.665 15.8416 40.6735 15.927 40.6821 16.0038C40.6821 16.0807 40.6821 16.149 40.6821 16.2173C40.6821 16.2856 40.6821 16.3454 40.6821 16.3967C40.6821 16.4479 40.665 16.4991 40.6564 16.5418C40.6222 16.7212 40.5794 16.8066 40.528 16.8066L40.468 16.7895Z" fill="black"/>
<path id="Vector_5" d="M36.9659 28.668C36.8717 28.668 36.7775 28.4801 36.6919 28.13C36.6833 28.0702 36.6662 28.0104 36.6491 27.9421C36.6234 27.8738 36.5977 27.8055 36.6063 27.7286C36.7347 27.6517 36.3751 27.5749 36.572 27.4895C36.6234 27.4041 36.572 27.3187 36.5378 27.2333C36.495 27.1393 36.6148 27.0539 36.5035 26.9515C36.2552 26.8575 36.7775 26.7551 36.4693 26.644C36.4008 26.5416 36.4265 26.4305 36.435 26.3195C36.6234 26.2085 36.435 26.0975 36.4008 25.9779C36.6234 25.8584 36.5292 25.7388 36.3751 25.6193C36.6833 25.4997 36.632 25.3716 36.3494 25.235C36.3408 25.1069 36.4607 24.9702 36.3237 24.8336C36.3066 24.697 36.2466 24.5603 36.298 24.4151C36.0925 24.27 36.1011 24.1333 36.2809 23.9882C36.0583 23.843 36.1439 23.6978 36.2638 23.5441C36.3836 23.3904 36.0668 23.2367 36.2466 23.0829C36.2638 22.9292 36.1953 22.767 36.2295 22.6132C36.3237 22.451 36.4265 22.2973 36.221 22.135C36.1696 21.9728 36.0925 21.8105 36.2124 21.6397C35.9726 21.4775 36.0839 21.3067 36.2124 21.1359C36.1781 20.9651 36.3408 20.7943 36.2124 20.6235C36.2466 20.4527 36.1096 20.2733 36.2124 20.1025C36.2809 19.9232 36.3494 19.7524 36.2124 19.5816C36.0583 19.4108 36.2723 19.24 36.2124 19.0692C36.435 18.8984 36.1439 18.7276 36.2124 18.5654C36.1867 18.4031 36.3408 18.2323 36.221 18.0701C36.1781 17.9078 36.1353 17.7456 36.2295 17.5833C35.887 17.421 36.3151 17.2673 36.2466 17.1136C36.3922 16.9599 36.2209 16.8062 36.2638 16.6525C36.2038 16.4987 36.4179 16.3536 36.2809 16.2084C36.3066 16.0632 36.1696 15.918 36.298 15.7814C36.1268 15.6362 36.4436 15.4996 36.3237 15.3629C36.3237 15.2263 36.3151 15.0982 36.3494 14.9616C36.6148 14.8335 36.3922 14.7054 36.3751 14.5773C36.4008 14.4492 36.2209 14.3296 36.4008 14.2186C36.4265 14.0991 36.5378 13.988 36.435 13.877C36.3922 13.766 36.8203 13.655 36.4693 13.5525C36.4093 13.45 36.7433 13.3475 36.5035 13.2451C36.2895 13.1511 36.5292 13.0572 36.5378 12.9633C36.5463 12.8693 36.5635 12.7839 36.572 12.7071C36.6833 11.9641 36.8203 11.5371 36.9659 11.5371C37.1286 11.5371 37.2742 12.0666 37.3941 12.9633C37.4026 13.0572 37.591 13.1511 37.4283 13.2451C37.4283 13.3475 37.5739 13.4415 37.4626 13.5525C37.7109 13.655 37.5054 13.766 37.4968 13.877C37.5054 13.988 37.4283 14.1076 37.5311 14.2186C37.6766 14.3382 37.4626 14.4577 37.5568 14.5773C37.4026 14.7054 37.4454 14.8249 37.5824 14.9616C37.4369 15.0897 37.6167 15.2263 37.6081 15.3629C37.3855 15.4996 37.5396 15.6362 37.6338 15.7814C37.7194 15.9266 37.5996 16.0632 37.6595 16.2084C37.6167 16.3536 37.7194 16.4987 37.6766 16.6525C37.7794 16.8062 37.8222 16.9514 37.6938 17.1136C37.7623 17.2673 37.7109 17.4296 37.7109 17.5833C37.8051 17.7456 37.7023 17.9078 37.7194 18.0701C37.7623 18.2323 37.4797 18.3946 37.728 18.5654C37.7623 18.7362 37.6852 18.8984 37.728 19.0692C37.6938 19.24 37.6595 19.4108 37.728 19.5816C37.4797 19.7524 37.6338 19.9317 37.728 20.1025C37.7965 20.2819 37.7623 20.4527 37.728 20.6235C37.7537 20.7943 37.7366 20.9651 37.728 21.1359C37.8051 21.3067 37.6253 21.4775 37.728 21.6397C37.8308 21.8105 37.6167 21.9728 37.7194 22.135C37.7879 22.2973 37.8308 22.4595 37.7109 22.6132C37.7109 22.7755 37.4883 22.9292 37.6938 23.0829C37.7451 23.2367 38.0191 23.3904 37.6766 23.5441C37.7623 23.6978 37.5139 23.843 37.6595 23.9882C37.4026 24.1333 37.6424 24.2785 37.6338 24.4151C37.5824 24.5518 37.4968 24.697 37.6081 24.8336C37.728 24.9702 37.5396 25.0983 37.5824 25.235C37.728 25.3631 37.3941 25.4912 37.5568 25.6193C37.5225 25.7388 37.5824 25.8669 37.5311 25.9779C37.8736 26.0975 37.5311 26.2085 37.4968 26.3195C37.4454 26.4305 37.7194 26.5416 37.4626 26.644C37.7194 26.7465 37.4968 26.849 37.4283 26.9515C37.3512 27.0539 37.5396 27.1393 37.3941 27.2333C37.5739 27.3272 37.2913 27.4126 37.3598 27.4895C37.2399 27.5749 37.3598 27.6517 37.3256 27.7286C37.3684 27.8055 37.3512 27.8738 37.2827 27.9421C37.2656 28.0104 37.2571 28.0702 37.2399 28.13C37.1543 28.4801 37.0687 28.668 36.9745 28.668H36.9659Z" fill="black"/>
<path id="Vector_6" d="M0.736068 47.0798C0.684691 47.0798 0.641877 46.6357 0.599063 45.7903C0.556249 44.9448 0.513434 43.698 0.47062 42.0754C0.453495 41.5374 0.444932 40.9567 0.427806 40.3333C0.419243 39.9234 0.402118 39.4964 0.393555 39.0523C0.624751 39.0523 0.855948 39.0523 1.08714 39.0438H1.44678C1.54954 39.0438 1.65229 39.0438 1.75505 39.0438C2.4572 39.1719 3.1936 38.8132 3.96426 39.0096C4.73491 39.0694 5.54838 39.0096 6.38754 38.9755C7.23526 38.9328 8.11723 39.0523 9.02489 38.9413C9.94111 38.6937 10.8916 39.2146 11.8678 38.9072C12.8525 38.8389 13.8629 38.8559 14.9076 38.873C15.9522 39.0609 17.0226 38.873 18.1272 38.8389C19.2318 39.0609 20.3706 38.9669 21.5266 38.8132C22.6912 39.1207 23.8814 39.0694 25.0973 38.7876C26.3133 38.7791 27.5634 38.8986 28.8307 38.762C30.098 38.7449 31.3996 38.6851 32.7183 38.7364C34.0369 38.5314 35.3813 38.54 36.7513 38.7193C38.1214 38.4973 39.5086 38.5827 40.9214 38.7022C42.3343 38.8218 43.7643 38.5058 45.2114 38.6851C46.6585 38.7022 48.1314 38.6339 49.6213 38.6681C51.1112 38.762 52.6183 38.8645 54.1425 38.6595C55.6666 38.6083 57.208 38.5314 58.7664 38.651C60.3248 38.4119 61.9004 38.5229 63.4845 38.651C65.0686 38.6083 66.6784 38.7791 68.2883 38.651C69.0932 38.6681 69.9066 38.651 70.7201 38.6254C71.1226 38.6168 71.5336 38.6083 71.9446 38.6083C72.2272 38.6083 72.5183 38.6083 72.8009 38.6168C73.1862 38.6168 73.563 38.6339 73.9312 38.6424C73.9312 39.0267 73.914 39.411 73.9055 39.7868V40.3248L73.8798 40.6322C73.8627 41.0421 73.8541 41.4435 73.8455 41.8534C73.837 42.6647 73.8541 43.476 73.9226 44.2787C73.9654 44.7484 73.9825 45.2181 73.974 45.6878C73.9654 46.4137 73.9483 47.1395 73.9397 47.8654C73.3489 47.8569 72.7581 47.8484 72.1672 47.8398C71.8333 47.8398 71.5079 47.8398 71.1739 47.8398C69.5812 47.6178 68.0143 47.9081 66.4558 47.8398C64.8974 47.8654 63.3561 47.7117 61.8319 47.8313C60.3077 47.874 58.8006 47.9167 57.3107 47.8227C55.8208 48.1643 54.348 47.7373 52.9008 47.8057C51.4537 47.6605 50.0152 47.8227 48.6109 47.7886C47.198 47.8484 45.8108 47.6349 44.4408 47.7715C43.0707 47.7459 41.7349 47.8825 40.4077 47.7459C39.089 47.9167 37.796 47.6007 36.5201 47.7203C35.2528 47.7203 34.0027 47.7288 32.7868 47.6946C31.5708 47.4299 30.3806 47.6519 29.2161 47.669C28.0515 47.6434 26.9212 47.8227 25.8166 47.6434C24.712 47.6178 23.6331 47.5068 22.5884 47.6092C21.5438 47.6519 20.5333 47.2249 19.5486 47.5751C18.5725 47.6349 17.622 47.3018 16.7058 47.5409C15.7895 47.763 14.9076 47.5153 14.0684 47.5068C13.2207 47.4982 12.4158 47.4811 11.6366 47.4726C8.16004 47.4128 5.41994 47.353 3.55324 47.2847C1.68654 47.2164 0.693254 47.1481 0.693254 47.0798C0.693254 47.0029 1.9263 46.9261 4.21258 46.8492C6.49885 46.7809 9.84692 46.7126 14.0684 46.6528C14.9161 46.6442 15.7895 46.4564 16.7058 46.6186C17.622 46.6186 18.5639 46.482 19.5486 46.5845C20.5333 46.3368 21.5438 46.5418 22.5884 46.5503C23.6331 46.5418 24.7034 46.6186 25.8166 46.5161C26.9212 46.371 28.0515 46.5845 29.2161 46.482C30.3806 46.6357 31.5708 46.593 32.7868 46.4564C34.0027 46.6015 35.2528 46.4222 36.5201 46.4307C37.7874 46.6528 39.089 46.4991 40.4077 46.4051C41.7263 46.3197 43.0707 46.4393 44.4408 46.388C45.8108 46.4307 47.198 46.3283 48.6109 46.371C50.0237 46.2685 51.4537 46.2258 52.9008 46.3539C54.3565 46.277 55.8208 46.3368 57.3107 46.3368C58.8006 46.2514 60.3077 46.3453 61.8319 46.3283C63.3561 46.2856 64.8974 46.5674 66.4558 46.3197C68.0143 46.2856 69.5898 46.3624 71.1739 46.3197C71.4993 46.3197 71.8333 46.3368 72.1672 46.3368H72.27H72.2871H72.3214L72.407 46.3453C72.407 46.3112 72.407 46.2685 72.407 46.2343V45.6878C72.3984 45.2181 72.3899 44.7484 72.3642 44.2787C72.484 43.476 72.5097 42.6647 72.4926 41.8534C72.484 41.4435 72.4584 41.0421 72.4412 40.6322L72.4241 40.3248V40.2906V40.2735V40.2479C72.4241 40.2479 72.3899 40.1967 72.3727 40.1881L72.2957 40.2138H72.2785H72.2443H71.936C71.525 40.2138 71.1226 40.2138 70.7115 40.2138C69.8981 40.2138 69.0846 40.1881 68.2797 40.1711C66.6613 40.1967 65.0601 40.1796 63.4759 40.1711C61.8833 40.2479 60.3163 40.0686 58.7578 40.1711C57.1994 40.2735 55.6581 40.06 54.1339 40.1625C52.6097 40.2308 51.1027 40.2735 49.6127 40.154C48.1228 40.154 46.65 39.9319 45.2029 40.1369C43.7472 40.1881 42.3172 40.4614 40.9129 40.1198C39.5 40.2052 38.1128 39.9576 36.7428 40.1027C35.3727 39.8465 34.0369 40.0857 32.7097 40.0771C31.391 40.0259 30.098 39.9405 28.8222 40.0515C27.5549 40.1711 26.3047 39.9832 25.0888 40.0259C23.8728 40.1711 22.6826 39.838 21.5181 40.0003C20.3535 39.9661 19.2232 40.0173 18.1186 39.9746C17.014 40.3162 15.9351 39.9746 14.899 39.9405C13.8543 39.8892 12.8439 40.1625 11.8592 39.9063C10.8745 40.1625 9.93255 39.9405 9.01633 39.8722C8.1001 39.7953 7.2267 39.9832 6.37897 39.838C5.53125 40.0173 4.72635 39.7355 3.95569 39.8039C3.18504 39.6843 2.44863 39.8039 1.74648 39.7612H1.61804L1.54097 39.7782C1.4896 39.7782 1.44678 39.7782 1.39541 39.7782C1.30121 39.7782 1.20702 39.7782 1.10427 39.7782C1.10427 39.8636 1.09571 39.949 1.08714 40.043C1.07002 40.1454 1.06146 40.2394 1.04433 40.3419C1.0272 40.9653 1.01864 41.5374 1.00152 42.084C0.958702 43.698 0.915887 44.9534 0.873073 45.7988C0.830259 46.6442 0.778882 47.0883 0.736068 47.0883V47.0798Z" fill="black"/>
<path id="Vector_7" d="M0.710975 47.0716C0.762352 47.0716 0.805166 47.5157 0.847981 48.3611C0.890795 49.2065 0.933609 50.4619 0.976423 52.0759C0.993549 52.6139 1.00211 53.1946 1.01924 53.818C1.0278 54.0145 1.04493 54.2194 1.05349 54.4244C1.15624 54.4244 1.26756 54.4244 1.37888 54.4158C1.43025 54.4158 1.49019 54.4158 1.54157 54.4158C1.61007 54.4158 1.68714 54.4158 1.75564 54.4158C2.44923 54.5439 3.1942 54.1852 3.96485 54.3731C4.73551 54.4329 5.54898 54.3731 6.38813 54.339C7.23585 54.2963 8.11783 54.4158 9.02549 54.3048C9.94171 54.0572 10.8836 54.5781 11.8683 54.2706C12.8445 54.2023 13.8635 54.2194 14.9082 54.2365C15.9528 54.4244 17.0232 54.2365 18.1363 54.2023C19.2409 54.4244 20.3712 54.3304 21.5358 54.1767C22.7003 54.4841 23.8906 54.4329 25.1065 54.1511C26.3224 54.1426 27.5726 54.2621 28.8399 54.1255C30.1072 54.1084 31.4087 54.0486 32.7274 54.0999C34.0461 53.8949 35.3904 53.9034 36.7605 54.0742C38.1306 53.8522 39.5177 53.9376 40.922 54.0572C42.3349 54.1767 43.7649 53.8607 45.212 54.0401C46.6591 54.0572 48.1319 53.9888 49.6219 54.023C51.1118 54.1169 52.6189 54.2109 54.143 54.0145C55.6672 53.9632 57.2085 53.8864 58.767 54.0059C60.3254 53.7668 61.901 53.8778 63.4851 54.0059C65.0692 53.9632 66.679 54.134 68.2888 54.0059C69.0938 54.023 69.9072 54.0059 70.7207 53.9803C71.1231 53.9803 71.5342 53.9632 71.9452 53.9632H72.2534H72.2877H72.2963H72.3134C72.3391 53.9632 72.3648 53.9803 72.4076 53.9888C72.4076 53.9888 72.4247 53.9461 72.4333 53.912V53.8864V53.8693C72.4333 53.8693 72.4333 53.8437 72.4333 53.8266V53.5191C72.4589 53.1092 72.4675 52.7079 72.4761 52.298C72.4846 51.4867 72.4761 50.6754 72.399 49.8726C72.3562 49.403 72.3391 48.9333 72.3476 48.4636V48.1134L72.3562 47.9512V47.9341C72.3562 47.9341 72.3733 47.8829 72.3819 47.8402C72.3648 47.8402 72.3476 47.8316 72.3305 47.8231H72.2963L72.2791 47.8146H72.1678C71.8339 47.8146 71.5085 47.8146 71.1745 47.8146C69.5904 47.5925 68.0148 47.8829 66.4564 47.8146C64.898 47.8316 63.3567 47.6865 61.8325 47.806C60.3083 47.8487 58.8012 47.8914 57.3113 47.7975C55.8214 48.1391 54.3486 47.7121 52.9014 47.7804C51.4543 47.6352 50.0158 47.7975 48.6115 47.7633C47.1986 47.8231 45.8114 47.6096 44.4499 47.7462C43.0799 47.7206 41.7441 47.8572 40.4168 47.7292C39.0982 47.8999 37.8052 47.584 36.5293 47.7035C35.262 47.7035 34.0118 47.7121 32.7959 47.6779C31.58 47.4132 30.3898 47.6352 29.2252 47.6523C28.0607 47.6267 26.9304 47.7975 25.8258 47.6267C24.7212 47.6011 23.6422 47.49 22.5976 47.5925C21.5529 47.6267 20.5425 47.2082 19.5578 47.5584C18.5816 47.6181 17.6311 47.2851 16.7149 47.5242C15.7987 47.7377 14.9167 47.4986 14.0776 47.49C13.2298 47.473 12.4249 47.4644 11.6543 47.4559C8.17777 47.3961 5.43766 47.3363 3.57096 47.268C1.70426 47.1997 0.710975 47.1314 0.710975 47.063C0.710975 46.9862 1.94402 46.9093 4.2303 46.8325C6.51658 46.7642 9.85608 46.6958 14.0861 46.6275C14.9338 46.619 15.8073 46.4311 16.7235 46.5934C17.6397 46.5934 18.5816 46.4482 19.5663 46.5592C20.5425 46.3115 21.5615 46.5165 22.6061 46.525C23.6508 46.5165 24.7212 46.5934 25.8343 46.4909C26.9389 46.3457 28.0692 46.5592 29.2338 46.4653C30.3983 46.619 31.5885 46.5763 32.8045 46.4396C34.0204 46.5848 35.2706 46.4055 36.5379 46.414C37.8052 46.6446 39.1067 46.4823 40.4254 46.3884C41.7441 46.303 43.0884 46.4226 44.4585 46.3713C45.8285 46.414 47.2157 46.3115 48.6286 46.3542C50.0415 46.2518 51.4714 46.2091 52.9186 46.3372C54.3742 46.2688 55.8385 46.3201 57.3284 46.3201C58.8184 46.2261 60.3254 46.3286 61.8496 46.3115C63.3738 46.2688 64.9151 46.5507 66.4735 46.303C68.032 46.2688 69.6075 46.3457 71.1917 46.303C71.5256 46.303 71.851 46.3115 72.1849 46.3201C72.7672 46.3201 73.3495 46.3286 73.9318 46.3372C73.9318 46.7642 73.9318 47.1911 73.9318 47.6267C73.9318 47.9085 73.9318 48.1988 73.9318 48.4892C73.9318 48.9589 73.9489 49.4286 73.966 49.8983C73.8461 50.701 73.8204 51.5123 73.8376 52.3236C73.8461 52.7249 73.8633 53.1349 73.8889 53.5448L73.9061 53.8522L73.9232 54.3902C73.9318 54.7745 73.9489 55.1673 73.9574 55.5602C73.281 55.5687 72.6131 55.5858 71.9452 55.5943C71.5342 55.5943 71.1317 55.5943 70.7207 55.5943C69.9072 55.5943 69.0938 55.5687 68.2888 55.5516C66.6705 55.5772 65.0692 55.5602 63.4851 55.5516C61.901 55.6285 60.3254 55.4491 58.767 55.5516C57.2085 55.6541 55.6672 55.4406 54.143 55.5431C52.6189 55.6114 51.1118 55.6541 49.6219 55.5345C48.1319 55.5345 46.6591 55.3125 45.212 55.5175C43.7563 55.5687 42.3263 55.842 40.922 55.5004C39.5092 55.5858 38.122 55.3381 36.7605 55.4833C35.3904 55.2356 34.0461 55.4748 32.7274 55.4662C31.4087 55.415 30.1157 55.3296 28.8399 55.4406C27.5726 55.5602 26.3224 55.3723 25.1065 55.415C23.8906 55.5602 22.7003 55.2271 21.5358 55.3894C20.3712 55.3552 19.2409 55.415 18.1363 55.3637C17.0317 55.7053 15.9528 55.3637 14.9082 55.3296C13.8635 55.2783 12.8531 55.5516 11.8683 55.2954C10.8922 55.5516 9.94171 55.3296 9.02549 55.2613C8.10926 55.1844 7.22729 55.3723 6.38813 55.2271C5.54041 55.4064 4.73551 55.1246 3.96485 55.1929C3.1942 55.0734 2.45779 55.193 1.75564 55.1503H1.6272L1.44738 55.1673C1.31894 55.1673 1.19906 55.1673 1.07061 55.1673C0.822292 55.1673 0.57397 55.1673 0.342773 55.1673C0.342773 54.9368 0.351336 54.6976 0.359899 54.4756C0.359899 54.3646 0.368462 54.2536 0.377025 54.1426V53.9803L0.39415 53.9034V53.8437C0.411276 53.2203 0.428402 52.6481 0.445527 52.1015C0.488342 50.4875 0.531156 49.2322 0.57397 48.3867C0.616784 47.5413 0.668161 47.0972 0.710975 47.0972V47.0716Z" fill="black"/>
<path id="Vector_8" d="M0.736068 62.426C0.684691 62.426 0.641877 61.9819 0.599063 61.1364C0.556248 60.291 0.513434 59.0442 0.47062 57.4216C0.453495 56.8836 0.444932 56.3029 0.427806 55.688C0.419243 55.2781 0.402118 54.8597 0.393555 54.4156C0.624751 54.4156 0.855948 54.4156 1.09571 54.4071C1.21559 54.4071 1.33547 54.4071 1.45535 54.4071C1.5581 54.4071 1.66085 54.4071 1.76361 54.4071C2.46576 54.5352 3.1936 54.1765 3.97282 54.3644C4.74347 54.4242 5.55694 54.3644 6.40466 54.3302C7.25238 54.2875 8.12579 54.4071 9.04202 54.2961C9.95824 54.0484 10.9002 54.5693 11.8849 54.2619C12.861 54.1936 13.88 54.2107 14.9247 54.2277C15.9693 54.4156 17.0397 54.2277 18.1443 54.1936C19.2489 54.4156 20.3792 54.3217 21.5438 54.168C22.7083 54.4754 23.8985 54.4242 25.1145 54.1423C26.3304 54.1338 27.5805 54.2534 28.8478 54.1167C30.1151 54.0996 31.4167 54.0399 32.7354 54.0911C34.0541 53.8861 35.3984 53.8947 36.7685 54.0655C38.1385 53.8435 39.5257 53.9288 40.93 54.0484C42.3429 54.168 43.7729 53.852 45.22 54.0313C46.6671 54.0484 48.1399 53.9801 49.6298 54.0142C51.1198 54.1082 52.6268 54.2021 54.151 54.0057C55.6752 53.9545 57.2165 53.8776 58.7749 53.9972C60.3334 53.7581 61.9089 53.8691 63.4931 53.9972C65.0772 53.9545 66.687 54.1253 68.2968 53.9972C69.1017 54.0142 69.9152 53.9972 70.7287 53.9715C71.1311 53.9715 71.5421 53.9545 71.9531 53.9545C72.2357 53.9545 72.5269 53.9545 72.8094 53.963C73.1948 53.963 73.5715 53.9801 73.9397 53.9886C73.9397 54.3729 73.9226 54.7487 73.914 55.133V55.6624L73.8883 55.9699C73.8712 56.3798 73.8627 56.7811 73.8541 57.1911C73.8455 58.0023 73.8627 58.8136 73.9312 59.6164C73.974 60.0861 73.9911 60.5557 73.9825 61.0254C73.974 61.7513 73.9568 62.4772 73.9483 63.2031C73.3575 63.1945 72.758 63.186 72.1672 63.1775C71.8333 63.1775 71.5079 63.1775 71.1739 63.1775C69.5812 62.9554 68.0142 63.2458 66.4558 63.1775C64.8974 63.2031 63.3561 63.0494 61.8319 63.1689C60.3077 63.2116 58.8006 63.2543 57.3107 63.1604C55.8208 63.502 54.348 63.075 52.9008 63.1433C51.4452 62.9981 50.0152 63.1604 48.6109 63.1262C47.198 63.186 45.8108 62.9725 44.4493 63.1091C43.0793 63.0835 41.7435 63.2202 40.4162 63.0835C39.0976 63.2543 37.8046 62.9383 36.5287 63.0579C35.2614 63.0579 34.0112 63.0664 32.7953 63.0323C31.5794 62.7676 30.3892 62.9896 29.2246 63.0067C28.0601 62.981 26.9298 63.1604 25.8252 62.981C24.7206 62.9554 23.6502 62.8444 22.597 62.9469C21.5523 62.9896 20.5419 62.5626 19.5657 62.9127C18.581 62.9725 17.6391 62.6395 16.7229 62.8786C15.8067 63.1006 14.9332 62.8529 14.0855 62.8444C13.2378 62.8273 12.4329 62.8188 11.6537 62.8103C8.17717 62.7505 5.43706 62.6907 3.57037 62.6224C1.70367 62.5541 0.710379 62.4857 0.710379 62.4174C0.710379 62.3406 1.94343 62.2637 4.2297 62.1868C6.51598 62.1185 9.85548 62.0502 14.0855 61.9904C14.9332 61.9819 15.8067 61.794 16.7229 61.9563C17.6391 61.9563 18.581 61.8111 19.5657 61.9221C20.5419 61.6745 21.5609 61.8794 22.597 61.888C23.6416 61.8794 24.7206 61.9563 25.8252 61.8538C26.9298 61.7086 28.0601 61.9221 29.2246 61.8282C30.3892 61.9819 31.5794 61.9392 32.7953 61.8026C34.0112 61.9477 35.2614 61.7684 36.5287 61.7769C37.796 61.999 39.0976 61.8453 40.4162 61.7513C41.7349 61.6659 43.0793 61.7855 44.4493 61.7257C45.8108 61.7684 47.2066 61.6659 48.6109 61.7086C50.0237 61.6061 51.4537 61.5634 52.9008 61.6915C54.348 61.6147 55.8208 61.6745 57.3107 61.6745C58.8006 61.5805 60.3077 61.683 61.8319 61.6659C63.3561 61.6147 64.8974 61.905 66.4558 61.6574C68.0142 61.6232 69.5898 61.6915 71.1739 61.6574C71.5079 61.6574 71.8333 61.6659 72.1672 61.6745H72.2785H72.2957H72.3385L72.4241 61.683C72.4241 61.6488 72.4241 61.6147 72.4241 61.572V61.034C72.4155 60.5643 72.407 60.0946 72.3813 59.6249C72.5012 58.8222 72.5269 58.0109 72.5097 57.1996C72.5012 56.7897 72.4755 56.3883 72.4584 55.9784L72.4412 55.671V55.6368V55.6197V55.5941C72.4412 55.5941 72.407 55.5429 72.3899 55.5343L72.3128 55.5599H72.2957H72.2614H71.9531C71.5421 55.5685 71.1397 55.5685 70.7287 55.5685C69.9152 55.5685 69.1017 55.5429 68.2968 55.5258C66.6784 55.5514 65.0772 55.5343 63.4931 55.5258C61.9089 55.6026 60.3334 55.4233 58.7749 55.5258C57.2165 55.6283 55.6752 55.4148 54.151 55.5173C52.6268 55.5856 51.1198 55.6283 49.6298 55.5087C48.1399 55.5087 46.6671 55.2867 45.22 55.4916C43.7643 55.5429 42.3343 55.8161 40.93 55.4746C39.5171 55.56 38.13 55.3123 36.7685 55.4575C35.3984 55.2098 34.0626 55.4489 32.7354 55.4404C31.4167 55.3892 30.1237 55.3038 28.8478 55.4148C27.5805 55.5343 26.3304 55.3465 25.1145 55.3892C23.8985 55.5343 22.7083 55.2013 21.5438 55.3635C20.3792 55.3294 19.2489 55.3892 18.1443 55.3379C17.0397 55.6795 15.9693 55.3379 14.9247 55.3038C13.88 55.2525 12.8696 55.5258 11.8849 55.2696C10.9002 55.5258 9.95824 55.3038 9.04202 55.2354C8.12579 55.1586 7.25238 55.3465 6.40466 55.2013C5.55694 55.3806 4.75204 55.0988 3.97282 55.1671C3.20216 55.0476 2.46576 55.1671 1.76361 55.1244C1.68654 55.1244 1.61804 55.133 1.54954 55.1415C1.49816 55.1415 1.44678 55.1415 1.40397 55.1415C1.30978 55.1415 1.20702 55.1415 1.11283 55.1415C1.11283 55.2269 1.10427 55.3123 1.09571 55.4062C1.07858 55.5087 1.07002 55.6027 1.05289 55.6966C1.03577 56.3115 1.0272 56.8922 1.01008 57.4387C0.967264 59.0527 0.92445 60.3081 0.881636 61.1535C0.838822 61.999 0.787445 62.443 0.744631 62.443L0.736068 62.426Z" fill="black"/>
<path id="Vector_9" d="M0.710975 62.4258C0.762352 62.4258 0.805166 62.8699 0.847981 63.7154C0.890795 64.5608 0.933609 65.8161 0.976423 67.4302C0.993549 67.9682 1.00211 68.5489 1.01924 69.1638C1.0278 69.3602 1.04493 69.5651 1.05349 69.7701C1.15624 69.7701 1.26756 69.7701 1.37888 69.7615H1.54157C1.61007 69.7615 1.68714 69.7615 1.75564 69.7615C2.44923 69.8896 3.1942 69.531 3.96485 69.7274C4.73551 69.7786 5.54898 69.7274 6.38813 69.6932C7.23585 69.6505 8.11783 69.7701 9.02549 69.6591C9.94171 69.4114 10.8836 69.9323 11.8683 69.6249C12.8445 69.5566 13.8635 69.5737 14.9082 69.5907C15.9528 69.7786 17.0232 69.5907 18.1363 69.5566C19.2409 69.7786 20.3712 69.6847 21.5358 69.531C22.7003 69.8384 23.8906 69.7872 25.1065 69.5053C26.3224 69.4968 27.5726 69.6164 28.8399 69.4797C30.1072 69.4626 31.4087 69.4029 32.7274 69.4541C34.0461 69.2492 35.3904 69.2577 36.7605 69.437C38.1306 69.215 39.5177 69.3004 40.922 69.4199C42.3349 69.5395 43.7649 69.2235 45.212 69.4029C46.6591 69.4114 48.1319 69.3516 49.6219 69.3858C51.1118 69.4797 52.6189 69.5822 54.143 69.3772C55.6672 69.326 57.2085 69.2492 58.767 69.3687C60.3254 69.1296 61.901 69.2406 63.4851 69.3687C65.0692 69.326 66.679 69.4968 68.2888 69.3687C69.0938 69.3858 69.9072 69.3687 70.7207 69.3431C71.1231 69.3345 71.5342 69.326 71.9452 69.326H72.2534H72.2877H72.2963H72.3134C72.3134 69.326 72.3648 69.3431 72.4076 69.3602C72.4076 69.3602 72.4247 69.3089 72.4333 69.2833V69.2577V69.2406C72.4333 69.2406 72.4333 69.215 72.4333 69.1979V68.8905C72.4589 68.4806 72.4675 68.0792 72.4761 67.6693C72.4846 66.858 72.4761 66.0467 72.399 65.244C72.3562 64.7743 72.3391 64.3046 72.3476 63.8349V63.4848L72.3562 63.3225V63.3054C72.3562 63.3054 72.3733 63.2542 72.3819 63.2115C72.3648 63.2115 72.3476 63.203 72.3305 63.1944H72.2963L72.2791 63.1859H72.1678C71.8339 63.1859 71.5085 63.1859 71.1745 63.1859C69.5904 62.9638 68.0148 63.2542 66.4564 63.1859C64.898 63.2115 63.3567 63.0578 61.8325 63.1773C60.3083 63.22 58.8012 63.2627 57.3113 63.1688C55.8214 63.5104 54.3486 63.0834 52.9014 63.1517C51.4543 63.0065 50.0158 63.1688 48.6115 63.1346C47.1986 63.1944 45.8114 62.9809 44.4499 63.1176C43.0799 63.0919 41.7441 63.2286 40.4168 63.0919C39.0982 63.2627 37.8052 62.9468 36.5293 63.0663C35.262 63.0663 34.0118 63.0749 32.7959 63.0407C31.58 62.776 30.3898 62.998 29.2252 63.0151C28.0607 62.9895 26.9304 63.1688 25.8258 62.9895C24.7212 62.9639 23.6422 62.8528 22.5976 62.9553C21.5529 62.998 20.5425 62.571 19.5578 62.9211C18.5816 62.9809 17.6311 62.6479 16.7149 62.887C15.7987 63.109 14.9167 62.8614 14.0776 62.8528C13.2298 62.8358 12.4249 62.8272 11.6543 62.8187C8.17777 62.7589 5.43766 62.6991 3.57096 62.6308C1.70426 62.5625 0.710975 62.4942 0.710975 62.4258C0.710975 62.349 1.94402 62.2721 4.2303 62.1953C6.51658 62.1269 9.85608 62.0586 14.0861 61.9988C14.9338 61.9903 15.8073 61.8024 16.7235 61.9647C17.6397 61.9647 18.5816 61.8195 19.5663 61.9305C20.5425 61.6829 21.5615 61.8878 22.6061 61.8964C23.6508 61.8878 24.7212 61.9647 25.8343 61.8622C26.9389 61.717 28.0692 61.9305 29.2338 61.8366C30.3983 61.9903 31.5885 61.9476 32.8045 61.811C34.0204 61.9561 35.2706 61.7768 36.5379 61.7854C37.8052 62.0074 39.1067 61.8537 40.4254 61.7597C41.7441 61.6743 43.0884 61.7939 44.4585 61.7341C45.8285 61.7768 47.2157 61.6743 48.6286 61.717C50.0415 61.6146 51.4714 61.5719 52.9186 61.7C54.3742 61.6231 55.8385 61.6829 57.3284 61.6829C58.8184 61.5889 60.3254 61.6914 61.8496 61.6743C63.3738 61.6231 64.9151 61.9135 66.4735 61.6658C68.032 61.6316 69.6075 61.7 71.1917 61.6658C71.5256 61.6658 71.851 61.6743 72.1849 61.6829C72.7672 61.6829 73.3495 61.6914 73.9318 61.7C73.9318 62.1269 73.9318 62.5625 73.9318 62.9895C73.9318 63.2713 73.9318 63.5616 73.9318 63.852C73.9318 64.3217 73.9489 64.7914 73.966 65.2611C73.8461 66.0638 73.8204 66.8751 73.8376 67.6864C73.8461 68.0963 73.8633 68.4976 73.8889 68.9076L73.9061 69.215L73.9232 69.753C73.9318 70.1373 73.9489 70.5301 73.9574 70.9144C73.281 70.923 72.6131 70.94 71.9452 70.9486C71.5342 70.9486 71.1317 70.9486 70.7207 70.9486C69.9072 70.9486 69.0938 70.923 68.2888 70.9059C66.6705 70.9315 65.0692 70.9144 63.4851 70.9059C61.901 70.9827 60.3254 70.8034 58.767 70.9059C57.2085 71.0084 55.6672 70.7949 54.143 70.8973C52.6189 70.9657 51.1118 71.0084 49.6219 70.8888C48.1319 70.8888 46.6591 70.6668 45.212 70.8717C43.7563 70.923 42.3263 71.1962 40.922 70.8546C39.5092 70.94 38.122 70.6924 36.7605 70.8376C35.3904 70.5899 34.0461 70.8205 32.7274 70.8119C31.4087 70.7607 30.1157 70.6753 28.8399 70.7863C27.5726 70.9059 26.3224 70.718 25.1065 70.7607C23.8906 70.9059 22.7003 70.5728 21.5358 70.7351C20.3712 70.7009 19.2409 70.7522 18.1363 70.7095C17.0317 71.0511 15.9528 70.7095 14.9082 70.6753C13.8635 70.6241 12.8531 70.8973 11.8683 70.6411C10.8922 70.8973 9.94171 70.6753 9.02549 70.607C8.10926 70.5301 7.22729 70.718 6.38813 70.5728C5.54041 70.7522 4.73551 70.4703 3.96485 70.5387C3.1942 70.4191 2.45779 70.5387 1.75564 70.5045H1.6272L1.44738 70.5216C1.31894 70.5216 1.19906 70.5216 1.07061 70.5216C0.822292 70.5216 0.57397 70.5216 0.342773 70.5216C0.342773 70.2825 0.351336 70.0519 0.359899 69.8299C0.359899 69.7188 0.368462 69.6078 0.377025 69.4968V69.3346L0.39415 69.2577V69.1979C0.411276 68.5745 0.428402 68.0023 0.445527 67.4558C0.488342 65.8418 0.531156 64.5864 0.57397 63.741C0.616784 62.8955 0.668161 62.4515 0.710975 62.4515V62.4258Z" fill="black"/>
</g>
<defs>
<clipPath id="clip0_1379_111">
<rect width="74" height="71" fill="white"/>
</clipPath>
</defs>
</svg>
