<svg width="68" height="62" viewBox="0 0 68 62" fill="none" xmlns="http://www.w3.org/2000/svg">
<g id="Isolation_Mode" clip-path="url(#clip0_1379_224)">
<path id="Vector" d="M6.67237 25.1073C6.67237 25.1073 6.55293 25.1553 6.32998 25.1873C6.2185 25.2034 6.07518 25.2114 5.90796 25.2594C5.82834 25.2754 5.73279 25.2994 5.63724 25.3154C5.58946 25.3235 5.54169 25.3315 5.48595 25.3475C5.43817 25.3635 5.38244 25.3795 5.33466 25.3955C5.23115 25.4275 5.11967 25.4596 5.00024 25.4996C4.8808 25.5396 4.76136 25.5957 4.63396 25.6437C4.57026 25.6677 4.50656 25.6997 4.44286 25.7238C4.37916 25.7558 4.31546 25.7958 4.25176 25.8278C4.18806 25.8599 4.11639 25.8999 4.05269 25.9319C4.02084 25.9479 3.98103 25.972 3.94918 25.988C3.91733 26.012 3.88548 26.036 3.84567 26.052C3.29625 26.3883 2.71499 26.8767 2.21335 27.5492C1.87096 27.9895 1.59227 28.5259 1.38525 29.1264C1.18618 29.7349 1.09063 30.3994 1.07471 31.1199C0.963233 31.8725 1.28173 32.6651 1.10656 33.4898C1.05878 34.3224 1.10656 35.1871 1.13841 36.0998C1.17822 37.0045 1.06675 37.9572 1.17026 38.934C1.38525 39.9188 0.931383 40.9355 1.20211 41.9924C1.23396 42.5128 1.23396 43.0572 1.24988 43.5936C1.24988 43.7217 1.26581 43.8418 1.26581 43.9699V44.066L1.28173 44.162L1.30562 44.3542C1.32951 44.6104 1.40117 44.8506 1.46487 45.1068C1.5445 45.6192 1.76745 46.1236 2.07799 46.5559C2.39649 46.9882 2.79462 47.3645 3.21663 47.7088C3.57494 48.1331 4.05269 48.4534 4.57822 48.6695C5.11171 48.8777 5.69298 48.9497 6.25832 48.9257C6.39368 48.9658 6.537 49.0058 6.68829 49.0378C6.84754 49.0618 6.99883 49.0858 7.15808 49.1019C7.46862 49.1339 7.78712 49.1419 8.10562 49.1419C8.74263 49.1419 9.38759 49.0618 10.0326 48.9337C11.3304 48.9257 12.6602 49.0298 14.0218 48.9097C15.3754 48.8937 16.7609 48.8377 18.1703 48.8857C19.5796 48.7016 21.0129 48.7096 22.478 48.8697C23.9351 48.6695 25.4241 48.7496 26.929 48.8537C28.434 48.9658 29.9628 48.6775 31.5155 48.8377C33.0682 48.8537 34.6368 48.7896 36.2293 48.8216C37.8218 48.9017 39.4302 48.9898 41.0625 48.8136C42.6949 48.7656 44.3431 48.7015 46.0073 48.8136C47.6714 48.6055 49.3515 48.6935 51.0475 48.8136C52.7436 48.7816 54.4555 48.9257 56.1834 48.8136C57.9112 48.8457 59.6471 48.7176 61.3988 48.8136C62.1792 48.8457 62.9595 48.6935 63.6682 48.3573C64.3768 48.029 64.9979 47.5166 65.4438 46.8841C65.8738 46.2436 66.2241 45.5711 66.4391 44.8426C66.463 44.7545 66.4949 44.6584 66.5187 44.5704L66.5745 44.2901C66.6223 44.106 66.6223 43.9138 66.6382 43.7297C66.6541 43.5536 66.6541 43.3214 66.6541 43.1132C66.6541 42.8971 66.6541 42.6889 66.6461 42.4727C66.8452 40.7674 66.5824 39.0781 66.6461 37.4048C66.6302 35.7315 66.7576 34.0742 66.6461 32.433C66.6461 32.0246 66.6302 31.6163 66.6223 31.208C66.6223 31.1039 66.6143 31.0159 66.6063 30.9278L66.5904 30.6556C66.5904 30.5675 66.5665 30.4794 66.5586 30.3914L66.5187 30.1272C66.3834 29.4226 66.1206 28.7581 65.7543 28.1416C65.2288 27.6453 64.759 27.1569 64.2016 26.7325C63.6522 26.3162 63.0152 25.98 62.3225 25.8839L62.0677 25.8198L61.9403 25.7878L61.8129 25.7718L61.5501 25.7478H61.4227C61.3749 25.7318 61.3272 25.7318 61.2794 25.7318C60.8972 25.7318 60.515 25.7318 60.1248 25.7398C59.3604 25.7558 58.604 25.7878 57.8475 25.7638C56.3426 25.8198 54.8536 25.6277 53.3965 25.7478C51.9394 25.7238 50.4981 25.8439 49.0888 25.7318C47.6794 25.8839 46.2939 25.6037 44.9403 25.7077C43.5867 25.7077 42.2569 25.7158 40.9511 25.6837C39.6532 25.4516 38.3792 25.6437 37.137 25.6597C35.8948 25.6357 34.6845 25.7958 33.5061 25.6357C32.3276 25.6197 31.1731 25.5156 30.0583 25.6117C28.9436 25.6437 27.8607 25.2674 26.8096 25.5797C25.7585 25.6357 24.7473 25.3395 23.7759 25.5476C22.7965 25.7398 21.8569 25.5236 20.9571 25.5156C20.0574 25.5076 19.1895 25.4916 18.3614 25.4836C14.6429 25.4355 11.7206 25.3795 9.72998 25.3235C7.73935 25.2674 6.67237 25.2034 6.67237 25.1393C6.67237 25.1073 6.99883 25.0673 7.63583 25.0352C8.27284 25.0032 9.21241 24.9712 10.4307 24.9392C12.8752 24.8751 16.4424 24.8111 20.9571 24.763C21.8569 24.755 22.7965 24.5869 23.7759 24.731C24.7553 24.731 25.7665 24.6029 26.8096 24.699C27.8607 24.4828 28.9356 24.6589 30.0583 24.6669C31.1731 24.6589 32.3197 24.723 33.5061 24.6429C34.6845 24.5148 35.8948 24.707 37.137 24.6189C38.3792 24.755 39.6532 24.715 40.9511 24.5949C42.2489 24.723 43.5787 24.5709 44.9403 24.5709C46.2939 24.771 47.6794 24.6349 49.0888 24.5469C50.4981 24.4748 51.9314 24.5789 53.3965 24.5308C54.8536 24.5709 56.3426 24.4828 57.8475 24.5148C58.604 24.4668 59.3604 24.4348 60.1248 24.4268C60.507 24.4268 60.8892 24.4268 61.2794 24.4348C61.3272 24.4348 61.375 24.4348 61.4307 24.4348L61.5899 24.4508L61.9164 24.4828L62.0756 24.4988L62.2349 24.5308L62.5534 24.6029C63.4054 24.723 64.2415 25.0512 64.974 25.5316C65.7066 26.012 66.3436 26.6525 66.8372 27.3891C67.3707 28.1016 67.729 28.9583 67.8803 29.847L67.9281 30.1832C67.944 30.2953 67.9679 30.4074 67.96 30.5195L67.9759 30.8557C67.9759 30.9678 67.9838 31.0879 67.9759 31.184C67.9759 31.5923 67.9759 32.0006 67.9759 32.4089C68.0157 34.0502 67.7609 35.7075 67.9759 37.3808C68.0077 39.0541 67.944 40.7434 67.9759 42.4487C67.9759 42.6649 67.9759 42.873 67.9679 43.0892C67.9679 43.3054 67.9679 43.5055 67.952 43.7537C67.9361 43.9939 67.9281 44.2341 67.8803 44.4663L67.8246 44.8185C67.8007 44.9386 67.7689 45.0507 67.737 45.1708C67.4981 46.0995 67.0682 46.9722 66.4789 47.7488C65.7782 48.4213 65.0138 48.9978 64.1618 49.4301C63.3098 49.8624 62.3623 50.1427 61.3829 50.1907C59.6311 50.2548 57.8953 50.2227 56.1675 50.1907C54.4396 50.2147 52.7276 50.1987 51.0316 50.1907C49.3356 50.2548 47.6555 50.0946 45.9913 50.1907C44.3272 50.2868 42.6789 50.0866 41.0466 50.1827C39.4143 50.2467 37.8059 50.2788 36.2134 50.1747C34.6208 50.1747 33.0522 49.9745 31.4995 50.1587C29.9468 50.1987 28.418 50.4469 26.9131 50.1427C25.4082 50.2227 23.9192 49.9905 22.4621 50.1267C21.0049 49.9025 19.5637 50.1186 18.1543 50.1106C16.745 50.0706 15.3595 49.9905 14.0059 50.0866C12.6522 50.1907 11.3225 50.0306 10.0166 50.0626C9.3637 50.1266 8.71874 50.0866 8.0897 50.0466C7.7712 50.0306 7.45269 50.0066 7.14216 49.9986C6.98291 49.9986 6.83162 49.9986 6.67237 49.9986C6.50515 49.9986 6.33794 49.9986 6.16277 50.0066C5.49391 49.9345 4.83302 49.7904 4.21991 49.5342C3.61476 49.278 3.04942 48.9337 2.5637 48.5094C1.97447 48.2132 1.53654 47.7008 1.21803 47.1564C0.899533 46.6039 0.724357 45.9955 0.549182 45.419C0.485481 45.1228 0.389931 44.8346 0.342156 44.5383L0.294381 44.3222L0.270493 44.2101L0.254568 44.098C0.238643 43.9459 0.222718 43.8018 0.206793 43.6496C0.206793 43.5776 0.19883 43.5055 0.190868 43.4415V43.2413C0.190868 43.1052 0.190868 42.9691 0.190868 42.841C0.19883 42.5688 0.23068 42.3046 0.286418 42.0484C0.0555047 40.9916 0.254568 39.9748 0.318268 38.99C0.381968 38.0053 0.222718 37.0605 0.350118 36.1558C0.190868 35.2511 0.437706 34.3785 0.381968 33.5458C0.485481 32.7132 0.381968 31.9206 0.413819 31.176C0.374006 30.3914 0.533256 29.6308 0.82787 28.9983C1.08267 28.3498 1.40913 27.7733 1.7993 27.309C2.36464 26.6044 3.01757 26.1161 3.62272 25.7878C3.66253 25.7638 3.69438 25.7478 3.73419 25.7238C3.77401 25.7078 3.81382 25.6917 3.84567 25.6757C3.91733 25.6437 3.99696 25.6117 4.06862 25.5797C4.14028 25.5476 4.21195 25.5156 4.28361 25.4836C4.35527 25.4596 4.42693 25.4355 4.49063 25.4115C4.626 25.3715 4.7534 25.3235 4.8808 25.2834C5.0082 25.2594 5.12764 25.2274 5.23911 25.2034C5.29485 25.1954 5.35059 25.1793 5.40632 25.1713C5.46206 25.1633 5.50984 25.1553 5.56558 25.1553C5.66909 25.1473 5.76464 25.1393 5.85223 25.1233C6.0274 25.0993 6.17073 25.1073 6.29017 25.1153C6.52904 25.1233 6.64052 25.1393 6.64052 25.1633L6.67237 25.1073Z" fill="black"/>
<path id="Vector_2" d="M6.68029 25.1234C6.68029 25.1234 6.76788 24.7311 7.04656 24.0425C7.32525 23.346 7.74727 22.3292 8.31261 21.0242C8.50371 20.5838 8.70277 20.1195 8.91776 19.6151C9.12478 19.1107 9.34773 18.5743 9.6105 18.0219C9.96881 17.5095 9.95289 16.7889 10.3908 16.2445C10.7173 15.652 10.9801 14.9795 11.2508 14.291C11.5295 13.6024 11.9515 12.9459 12.1983 12.1693C12.3416 11.3447 13.106 10.7843 13.2175 9.88756C13.5281 9.07894 13.9103 8.27832 14.3084 7.45368C14.8419 6.69309 15.0887 5.76437 15.4709 4.86768C16.0601 4.06706 16.3946 3.13033 16.6971 2.14557C16.8882 1.92139 17.0475 1.68121 17.1988 1.43302C17.2386 1.36897 17.2705 1.30492 17.3023 1.24887C17.3421 1.18482 17.366 1.13679 17.4138 1.03271C17.5014 0.848564 17.589 0.664422 17.6686 0.472273C17.8278 0.472273 17.995 0.456261 18.1623 0.448254H18.2897L18.3534 0.432242H18.3852H18.4091L18.5843 0.408223C18.8231 0.376198 19.0541 0.328161 19.2929 0.272118C20.3599 0.264112 21.4508 0.368192 22.5576 0.248099C23.6723 0.232087 24.803 0.176044 25.9576 0.224081C27.1121 0.0399382 28.2906 0.0479444 29.485 0.208068C30.6793 0.00791338 31.8976 0.0879754 33.1318 0.192056C34.366 0.304143 35.6161 0.0159196 36.8901 0.176044C38.1641 0.192056 39.4461 0.128006 40.7519 0.160031C42.0578 0.240093 43.3796 0.328161 44.7093 0.152025C46.047 0.103988 47.3927 0.0399382 48.7623 0.144019C48.9932 0.111994 49.2241 0.0799692 49.455 0.0639568L49.6302 0.0479444H49.9566L50.6494 0.0239258L50.944 0.640403L51.151 1.09676C51.2466 1.30492 51.3342 1.52108 51.4217 1.72925C51.5969 2.15357 51.7562 2.58591 51.9154 3.02625C52.5285 4.27522 52.9904 5.62026 53.6911 6.86122C54.2564 8.16623 54.9651 9.4152 55.4906 10.7602C56.04 12.0973 56.5815 13.4183 57.2901 14.6593C58.0067 15.8922 58.4288 17.2533 59.0578 18.4942C59.4639 19.8473 60.284 20.9922 60.7936 22.2651C61.0007 22.6975 61.1918 23.1298 61.3749 23.5702L61.4466 23.7383L61.574 24.0345L61.8288 24.611C62.0039 24.9953 62.1712 25.3715 62.3463 25.7478C61.6138 25.7478 60.9131 25.7558 60.1726 25.7879C59.8381 25.7959 59.4957 25.8039 59.1613 25.8119C58.8269 25.8199 58.5004 25.8279 58.166 25.8279C57.5051 25.8279 56.8522 25.8199 56.1993 25.7799C54.8934 26.0841 53.6035 25.6998 52.3374 25.7639C51.0634 25.6358 49.8133 25.7799 48.5791 25.7478C47.3449 25.8039 46.1267 25.6117 44.9323 25.7318C43.7379 25.7078 42.5594 25.8279 41.4049 25.7158C40.2503 25.8679 39.1117 25.5877 38.0049 25.6918C36.8901 25.6918 35.8072 25.6998 34.7402 25.6678C33.6733 25.4356 32.6302 25.6277 31.611 25.6438C30.5918 25.6197 29.6044 25.7799 28.633 25.6197C27.6695 25.6037 26.7299 25.4996 25.8142 25.5957C24.8986 25.6277 24.0147 25.2515 23.1548 25.5637C22.2948 25.6197 21.4667 25.3235 20.6625 25.5317C19.8662 25.7238 19.0939 25.5077 18.3534 25.4996C17.6128 25.4916 16.9042 25.4756 16.2274 25.4676C13.1857 25.4196 10.789 25.3635 9.15663 25.3075C7.52432 25.2515 6.64844 25.1874 6.64844 25.1234C6.64844 25.0513 7.72338 24.9872 9.72994 24.9232C11.7285 24.8591 14.6587 24.7951 18.3534 24.7471C19.0939 24.7391 19.8662 24.5709 20.6625 24.715C21.4587 24.715 22.2948 24.5869 23.1548 24.683C24.0147 24.4668 24.8986 24.643 25.8142 24.651C26.7299 24.643 27.6695 24.707 28.633 24.627C29.5964 24.4989 30.5918 24.691 31.611 24.603C32.6302 24.7391 33.6733 24.699 34.7402 24.5789C35.8072 24.707 36.8981 24.5549 38.0049 24.5549C39.1196 24.7551 40.2503 24.619 41.4049 24.5309C42.5594 24.4588 43.7379 24.5629 44.9323 24.5149C46.1267 24.5549 47.3449 24.4668 48.5791 24.4989C49.8133 24.4028 51.0634 24.3708 52.3374 24.4829C53.6035 24.4188 54.8934 24.4668 56.1993 24.4668C56.8522 24.4268 57.5051 24.4268 58.166 24.4428C58.4925 24.4428 58.8269 24.4508 59.1613 24.4588C59.3285 24.4588 59.4957 24.4588 59.663 24.4588C59.8222 24.4588 59.9894 24.4588 60.1487 24.4588C60.2044 24.4428 60.2522 24.4588 60.3557 24.4829C60.3557 24.4588 60.3557 24.4268 60.3557 24.3788C60.3557 24.3548 60.3477 24.3307 60.3398 24.3067L60.3238 24.2667L60.2522 24.1066C60.0611 23.6742 59.8381 23.2499 59.5754 22.8496C58.9782 21.6166 58.4527 20.3356 57.8316 19.0867C57.2742 17.8057 56.7089 16.5167 56.0559 15.2517C55.6578 13.8666 54.9332 12.6257 54.2564 11.3527C53.5955 10.0717 53.0222 8.75869 52.4569 7.45368C51.8438 6.17269 51.2625 4.89169 50.6892 3.61871C50.4742 3.21039 50.2831 2.78606 50.1 2.36174C50.0124 2.15357 49.9168 1.93741 49.8292 1.72925L49.7655 1.56912C49.7655 1.56912 49.7655 1.5451 49.7576 1.5371L49.7416 1.48105C49.7416 1.48105 49.7098 1.48105 49.6859 1.48105H49.4709C49.24 1.48105 49.0091 1.49707 48.7782 1.50507C47.4166 1.60115 46.063 1.409 44.7253 1.50507C43.3875 1.56912 42.0737 1.60115 40.7679 1.49707C39.462 1.49707 38.1721 1.29691 36.906 1.48105C35.632 1.52108 34.3819 1.77728 33.1477 1.46504C31.9135 1.5451 30.6953 1.32093 29.5009 1.44903C28.3065 1.22486 27.1281 1.44102 25.9735 1.43302C24.8189 1.39299 23.6803 1.31292 22.5735 1.409C21.4587 1.51308 20.3679 1.35295 19.3089 1.38498C19.07 1.417 18.8391 1.42501 18.6002 1.417H18.425H18.4011H18.3852H18.3613L18.2498 1.38498C18.226 1.417 18.1941 1.44903 18.1702 1.48906C18.1702 1.48906 18.1145 1.57713 18.0826 1.63317L17.9871 1.82532C17.8597 2.08152 17.7402 2.34572 17.6606 2.61793C17.2068 3.53064 16.8325 4.45936 16.3866 5.32403C16.2512 6.33281 15.5824 7.06137 15.1763 7.88601C14.7543 8.70264 14.595 9.61535 14.0297 10.2959C13.8705 11.1766 13.3449 11.8491 12.9548 12.5536C12.5566 13.2582 12.3815 14.0268 11.9515 14.6432C11.7843 15.3878 11.2587 15.9242 11.0278 16.5647C10.6456 17.1332 10.4625 17.7657 10.1838 18.3101C9.96085 18.8865 9.70605 19.4069 9.4194 19.8713C9.18052 20.3597 8.95757 20.824 8.74258 21.2484C8.11354 22.5293 7.6119 23.5141 7.26155 24.1706C6.9112 24.8351 6.71214 25.1714 6.67232 25.1474L6.68029 25.1234Z" fill="black"/>
<path id="Vector_3" d="M6.6563 49.4464C6.74389 49.4464 6.82352 49.9347 6.89518 50.8394C6.90314 50.9916 6.91907 51.1517 6.93499 51.3198C6.95888 51.4879 6.98277 51.6721 6.96684 51.8722C6.85537 52.0644 7.17387 52.2726 6.99869 52.4807C6.95092 52.6969 6.99869 52.9211 7.03054 53.1532C7.07035 53.3854 6.95888 53.6336 7.06239 53.8818C7.27738 54.138 6.82352 54.4022 7.09424 54.6664C7.14998 54.9386 7.13405 55.2188 7.12609 55.5071C6.95888 55.7953 7.12609 56.0915 7.14998 56.4038C6.95092 56.708 7.0385 57.0282 7.17387 57.3485C6.90314 57.6687 6.94295 58.005 7.19775 58.3413C7.20572 58.6775 7.1022 59.0218 7.22164 59.3741C7.2296 59.5502 7.24553 59.7263 7.25349 59.9105C7.25349 59.9985 7.25349 60.0946 7.25349 60.1827C7.25349 60.2307 7.25349 60.2707 7.25349 60.3188C7.25349 60.3588 7.25349 60.4229 7.23757 60.4229C7.357 60.4789 7.39682 60.4309 7.36497 60.4949C7.36497 60.5109 7.34904 60.551 7.34904 60.599C7.39682 60.551 7.42071 60.5189 7.43663 60.4949C7.44459 60.4869 7.43663 60.4789 7.46052 60.4789C7.50829 60.4789 7.55607 60.4789 7.60384 60.4789C7.79494 60.4789 7.98604 60.535 8.18511 60.583C8.57527 60.6951 8.96544 60.4069 9.37153 60.567C9.76965 60.583 10.1757 60.5189 10.5898 60.551C11.0038 60.631 11.4179 60.7191 11.8399 60.543C12.2619 60.4949 12.6839 60.4309 13.1139 60.535C13.5439 60.3268 13.9818 60.4149 14.4198 60.535C14.8577 60.5029 15.3036 60.647 15.7495 60.535C15.861 60.535 15.9725 60.535 16.0839 60.535C16.1875 60.535 16.3547 60.5189 16.3228 60.5109C16.3467 60.4949 16.3467 60.4869 16.4263 60.535C16.4263 60.535 16.49 60.5029 16.498 60.4469C16.498 60.4629 16.498 60.2948 16.49 60.1987C16.4821 60.0866 16.4582 59.9745 16.4343 59.8624C16.2989 59.4141 16.49 58.9657 16.4343 58.5254C16.6334 58.0851 16.3706 57.6447 16.4343 57.2124C16.4184 56.78 16.5458 56.3477 16.4343 55.9314C16.3945 55.5071 16.3626 55.0907 16.4423 54.6744C16.1397 54.2581 16.5219 53.8498 16.4582 53.4495C16.5856 53.0492 16.4423 52.6488 16.4741 52.2565C16.4184 51.8642 16.6174 51.4799 16.49 51.1037C16.5059 50.9115 16.4741 50.7274 16.4661 50.5352C16.4661 50.4391 16.4582 50.3511 16.4661 50.255V50.239C16.4661 50.239 16.4661 50.223 16.4741 50.215C16.4741 50.207 16.49 50.1909 16.506 50.1749C16.4343 50.1589 16.4582 50.1269 16.498 50.0468C16.498 50.0068 16.4423 49.9668 16.3706 50.0148C16.2512 50.0148 16.1397 50.0148 16.0282 50.0148C15.853 50.0148 15.6858 50.0148 15.5186 49.9908C15.1842 49.7586 14.8577 49.9508 14.5312 49.9668C14.2127 49.9428 13.8942 50.1029 13.5917 49.9428C13.2891 49.9267 12.9865 49.8227 12.6999 49.9187C12.4132 49.9508 12.1345 49.5745 11.8638 49.8867C11.5931 49.9428 11.3303 49.6465 11.0835 49.8547C10.8287 50.0468 10.5898 49.8307 10.3589 49.8227C10.128 49.8147 9.90501 49.7986 9.69003 49.7906C7.77106 49.6866 6.67223 49.5665 6.67223 49.4464C6.67223 49.3023 8.03382 49.1742 10.3668 49.0621C10.5978 49.0541 10.8446 48.8859 11.0914 49.03C11.3462 49.03 11.609 48.9019 11.8718 48.998C12.1425 48.7819 12.4212 48.958 12.7078 48.966C12.9945 48.958 13.2891 49.022 13.5996 48.934C13.9022 48.8059 14.2207 48.998 14.5392 48.91C14.8577 49.0461 15.1842 49.006 15.5266 48.8859C15.6938 48.95 15.861 48.942 16.0362 48.926C16.1237 48.91 16.2113 48.9019 16.2989 48.8859C16.2989 48.8859 16.3308 48.8859 16.3467 48.8859H16.4024L16.5139 48.8779C16.5856 48.8779 16.6652 48.8779 16.7448 48.8779C17.0235 48.982 17.2704 48.998 17.5889 48.974C17.6127 49.2382 17.6605 49.4944 17.7083 49.8066C17.7163 49.8867 17.7242 49.9668 17.7242 50.0468V50.1669V50.279C17.7242 50.3671 17.7242 50.4632 17.7242 50.5592C17.7163 50.7434 17.7003 50.9355 17.7242 51.1277C17.6844 51.504 17.772 51.8883 17.7401 52.2806C17.8357 52.6729 17.8675 53.0652 17.7561 53.4735C17.8198 53.8738 17.772 54.2821 17.772 54.6984C17.8516 55.1148 17.764 55.5311 17.78 55.9554C17.8198 56.3797 17.565 56.8041 17.7879 57.2364C17.8198 57.6687 17.7561 58.1011 17.7879 58.5494C17.764 58.9898 17.7322 59.4381 17.7879 59.8865C17.7322 59.9985 17.7003 60.1106 17.6844 60.2227C17.6685 60.3428 17.6685 60.4069 17.6764 60.647C17.6924 61.0393 17.7481 61.4717 17.7879 61.944C17.3898 61.9761 16.9519 61.9841 16.5219 61.9761C16.2591 61.9761 16.2034 61.9761 16.0839 61.9601L15.7495 61.936C15.3036 61.9601 14.8657 61.944 14.4198 61.936C13.9818 62.0001 13.5439 61.84 13.1139 61.936C12.6839 62.0321 12.2619 61.832 11.8399 61.936C11.4179 62.0001 11.0038 62.0321 10.5898 61.928C10.1757 61.928 9.76965 61.7279 9.37153 61.912C8.9734 61.9521 8.57527 62.2002 8.18511 61.896C7.99401 61.936 7.79494 61.896 7.60384 61.864C7.55607 61.864 7.50829 61.848 7.46052 61.848C7.38885 61.848 7.30127 61.84 7.22164 61.84C7.05443 61.84 6.89518 61.848 6.70408 61.88C6.52094 61.8079 6.34576 61.7759 6.1467 61.7759C6.1467 61.5678 6.13078 61.3756 6.10689 61.1755C6.083 60.9753 6.05911 60.7591 6.06707 60.543C6.06707 60.4469 6.07504 60.4149 6.083 60.3668L6.09893 60.2307C6.10689 60.1427 6.12281 60.0466 6.13078 59.9585C6.1467 59.7824 6.13078 59.5982 6.09096 59.4221C5.98745 59.0698 6.1467 58.7256 6.11485 58.3893C5.98745 58.053 6.28206 57.7168 6.13874 57.3965C6.17059 57.0763 6.12281 56.756 6.16263 56.4518C5.86005 56.1476 6.16263 55.8433 6.19448 55.5551C6.23429 55.2669 5.99541 54.9867 6.22633 54.7144C5.99541 54.4422 6.19448 54.178 6.25818 53.9298C6.32188 53.6736 6.16263 53.4335 6.29003 53.2013C6.13078 52.9691 6.37761 52.7449 6.32188 52.5288C6.42539 52.3126 6.32188 52.1124 6.35373 51.9203C6.32188 51.7281 6.32984 51.544 6.39354 51.3679C6.40946 51.1997 6.41743 51.0316 6.43335 50.8875C6.50501 49.9908 6.58464 49.4944 6.67223 49.4944L6.6563 49.4464Z" fill="black"/>
<path id="Vector_4" d="M50.9605 49.4465C51.0481 49.4465 51.1277 49.9348 51.1993 50.8395C51.2073 50.9917 51.2232 51.1518 51.2392 51.3199C51.263 51.4881 51.2869 51.6722 51.271 51.8723C51.1595 52.0645 51.478 52.2727 51.3029 52.4888C51.2551 52.705 51.3029 52.9292 51.3347 53.1613C51.3745 53.3935 51.263 53.6417 51.3666 53.8979C51.5815 54.1541 51.1277 54.4103 51.3984 54.6825C51.4541 54.9547 51.4382 55.235 51.4303 55.5232C51.263 55.8114 51.4303 56.1076 51.4621 56.4199C51.263 56.7241 51.3506 57.0444 51.486 57.3646C51.2153 57.6849 51.2551 58.0211 51.5099 58.3574C51.5178 58.6936 51.4143 59.0379 51.5338 59.3902C51.5417 59.5663 51.5577 59.7424 51.5656 59.9266C51.5656 60.0147 51.5656 60.1027 51.5656 60.1988C51.5656 60.2468 51.5656 60.2869 51.5656 60.3349C51.5656 60.3749 51.5656 60.439 51.5497 60.439C51.6691 60.495 51.7089 60.447 51.6771 60.511C51.6771 60.5271 51.6612 60.5671 51.6612 60.6151C51.7089 60.5671 51.7328 60.5351 51.7488 60.511H51.7567V60.495C51.7567 60.495 51.7567 60.495 51.7726 60.495C51.8204 60.495 51.8682 60.495 51.916 60.495C52.1071 60.495 52.2982 60.5511 52.4972 60.5991C52.8874 60.7112 53.2776 60.423 53.6836 60.5831C54.0818 60.5991 54.4879 60.5351 54.9019 60.5671C55.316 60.6471 55.73 60.7352 56.152 60.5591C56.574 60.511 56.9961 60.447 57.426 60.5511C57.856 60.3429 58.294 60.431 58.7319 60.5511C59.1698 60.519 59.6157 60.6632 60.0616 60.5511C60.1731 60.5511 60.2846 60.5511 60.3961 60.5511C60.4996 60.5511 60.6668 60.5351 60.6349 60.527C60.6588 60.511 60.6588 60.503 60.7384 60.5511C60.7384 60.5511 60.8022 60.519 60.8101 60.463C60.8101 60.479 60.8101 60.3109 60.8022 60.2148C60.7942 60.1027 60.7703 59.9906 60.7384 59.8785C60.6031 59.4302 60.7942 58.9819 60.7384 58.5415C60.9375 58.1012 60.6747 57.6608 60.7384 57.2285C60.7225 56.7962 60.8499 56.3718 60.7384 55.9475C60.6986 55.5232 60.6668 55.1069 60.7464 54.6905C60.4438 54.2742 60.826 53.8659 60.7623 53.4656C60.8897 53.0653 60.7464 52.665 60.7783 52.2727C60.7225 51.8804 60.9136 51.4961 60.7942 51.1198C60.8101 50.9276 60.7862 50.7435 60.7703 50.5513C60.7703 50.4553 60.7623 50.3672 60.7703 50.2711V50.2551C60.7703 50.2551 60.7703 50.2391 60.7783 50.2311C60.7783 50.2231 60.7942 50.2071 60.8101 50.191C60.7385 50.175 60.7623 50.143 60.8101 50.0629C60.8101 50.0229 60.7544 49.9829 60.6827 50.0309C60.5633 50.0309 60.4518 50.0309 60.3403 50.0309C60.1651 50.0309 59.9979 50.0309 59.8307 50.0069C59.4963 49.7747 59.1698 49.9669 58.8434 49.9829C58.5249 49.9589 58.2064 50.119 57.9038 49.9589C57.6012 49.9429 57.3066 49.8388 57.012 49.9348C56.7253 49.9669 56.4466 49.5906 56.1759 49.9028C55.9052 49.9589 55.6424 49.6626 55.3876 49.8708C55.1328 50.0629 54.894 49.8468 54.663 49.8388C54.4321 49.8308 54.2092 49.8148 53.9942 49.8067C52.0752 49.7027 50.9764 49.5826 50.9764 49.4625C50.9764 49.3184 52.338 49.1903 54.663 49.0782C54.894 49.0702 55.1408 48.902 55.3876 49.0462C55.6424 49.0462 55.9052 48.9181 56.1759 49.0141C56.4466 48.798 56.7253 48.9741 57.012 48.9821C57.2986 48.9741 57.5933 49.0382 57.9038 48.9501C58.2064 48.822 58.5249 49.0141 58.8434 48.9261C59.1619 49.0622 59.4963 49.0221 59.8307 48.9021C59.9979 48.9661 60.1651 48.9581 60.3403 48.9421C60.4279 48.9261 60.5155 48.9181 60.6031 48.9021C60.6031 48.9021 60.627 48.9021 60.6509 48.9021H60.7066L60.8181 48.894C60.8977 48.894 60.9694 48.894 61.049 48.894C61.3277 48.9981 61.5745 49.0141 61.893 48.9901C61.9169 49.2543 61.9647 49.5105 62.0045 49.8148C62.0125 49.8948 62.0204 49.9749 62.0284 50.0549V50.175V50.2871C62.0284 50.3752 62.0284 50.4713 62.0204 50.5673C62.0125 50.7515 61.9965 50.9436 62.0204 51.1358C61.9806 51.5121 62.0762 51.9044 62.0363 52.2887C62.1319 52.681 62.1637 53.0733 62.0523 53.4816C62.116 53.8819 62.0682 54.2902 62.0682 54.7065C62.1478 55.1229 62.0602 55.5392 62.0762 55.9635C62.116 56.3878 61.8612 56.8122 62.0841 57.2445C62.116 57.6768 62.0523 58.1172 62.0841 58.5575C62.0523 58.9979 62.0284 59.4462 62.0841 59.8946C62.0284 60.0066 61.9965 60.1187 61.9806 60.2308C61.9647 60.3509 61.9647 60.415 61.9726 60.6552C61.9886 61.0475 62.0443 61.4798 62.0841 61.9522C61.686 61.9842 61.248 61.9922 60.8181 61.9842C60.5553 61.9842 60.4996 61.9842 60.3801 61.9682L60.0457 61.9441C59.5998 61.9682 59.1619 61.9522 58.716 61.9441C58.278 62.0082 57.8401 61.8481 57.4101 61.9441C56.9801 62.0402 56.5581 61.8401 56.1361 61.9441C55.7141 62.0082 55.3 62.0402 54.886 61.9361C54.4719 61.9361 54.0659 61.736 53.6677 61.9201C53.2696 61.9602 52.8715 62.2084 52.4813 61.9041C52.2902 61.9441 52.0911 61.9041 51.9 61.8721C51.8523 61.8721 51.8045 61.8561 51.7567 61.8561C51.6851 61.8561 51.5975 61.8481 51.5178 61.8481C51.3506 61.8481 51.1914 61.8561 51.0003 61.8881C50.8171 61.816 50.642 61.784 50.4349 61.784C50.4349 61.5759 50.4111 61.3837 50.3951 61.1836C50.3712 60.9834 50.3553 60.7672 50.3553 60.5511C50.3553 60.455 50.3633 60.423 50.3712 60.3749L50.3872 60.2388C50.3951 60.1508 50.4111 60.0547 50.4111 59.9666C50.427 59.7825 50.411 59.6063 50.3712 59.4302C50.2677 59.0779 50.427 58.7337 50.3951 58.3974C50.2677 58.0611 50.5623 57.7329 50.419 57.4046C50.4509 57.0844 50.4031 56.7641 50.4429 56.4599C50.1403 56.1557 50.4429 55.8514 50.4747 55.5632C50.5146 55.275 50.2757 54.9948 50.5066 54.7226C50.2757 54.4503 50.4748 54.1861 50.5385 53.938C50.6022 53.6818 50.4429 53.4416 50.5703 53.2014C50.411 52.9692 50.6579 52.745 50.6021 52.5289C50.7057 52.3127 50.6022 52.1125 50.634 51.9124C50.6022 51.7202 50.6101 51.5361 50.6738 51.36C50.6897 51.1918 50.6977 51.0237 50.7136 50.8796C50.7853 49.9829 50.8649 49.4865 50.9525 49.4865L50.9605 49.4465Z" fill="black"/>
<path id="Vector_5" d="M11.5532 29.3748C11.5532 29.4148 11.4815 29.4629 11.3461 29.5109C11.2824 29.5349 11.1949 29.5509 11.0993 29.5829C11.0038 29.615 10.8923 29.655 10.7728 29.687C10.6932 29.7191 10.6056 29.7511 10.518 29.7911C10.4703 29.8151 10.4304 29.8391 10.3827 29.8552C10.3349 29.8792 10.2871 29.9032 10.2393 29.9112C10.096 29.8471 10.1119 30.1754 9.93677 30.0713C9.80937 30.0793 9.71382 30.1674 9.62623 30.2715C9.53865 30.3756 9.35551 30.3435 9.3157 30.5197C9.32366 30.6478 9.23607 30.6398 9.14052 30.6398C9.05293 30.6398 8.96534 30.6638 9.00516 30.8079C8.97331 30.8799 8.91757 30.936 8.86979 30.992C8.82202 31.0481 8.76628 31.1041 8.71054 31.1522C8.59111 31.1522 8.54333 31.2242 8.51944 31.2963C8.48759 31.3763 8.47963 31.4644 8.44778 31.5445C8.20094 31.5765 8.16909 31.7766 8.22483 31.9928C8.06558 32.0088 7.97003 32.0649 7.94614 32.1609C7.92225 32.249 7.96207 32.3611 8.04965 32.4892C8.02577 32.5693 7.98595 32.6573 7.94614 32.7374C7.93022 32.7774 7.91429 32.8255 7.91429 32.8735C7.91429 32.9215 7.92225 32.9696 7.94614 33.0176C7.94614 33.1057 7.94614 33.2017 7.94614 33.2978C7.94614 33.3939 7.94614 33.482 7.91429 33.578C8.00188 33.6741 8.05762 33.7622 8.05762 33.8583C8.05762 33.9063 8.05762 33.9543 8.03373 34.0024C8.0178 34.0504 8.00188 34.0984 7.97003 34.1545C8.18502 34.3226 8.16113 34.4987 8.11335 34.7309C8.09743 34.843 8.16909 34.9231 8.24075 35.0031C8.31242 35.0832 8.38408 35.1553 8.36019 35.2834C8.39204 35.3794 8.46371 35.4595 8.52741 35.5476C8.58314 35.6356 8.65481 35.7077 8.70258 35.8038C8.71851 35.8598 8.73443 35.9158 8.75036 35.9639C8.77424 36.0119 8.79813 36.06 8.82998 36.108C8.86183 36.148 8.90164 36.1881 8.94942 36.2201C8.99719 36.2441 9.0609 36.2601 9.13256 36.2681C9.22811 36.3242 9.32366 36.3722 9.41921 36.4282C9.5068 36.4843 9.58642 36.5643 9.65012 36.6604C9.94474 36.6044 10.0721 36.7645 10.2393 36.9567C10.3508 36.9727 10.4384 37.0527 10.5419 37.0928C10.6454 37.1328 10.7569 37.1808 10.8764 37.1408C10.9878 37.1728 11.0993 37.1728 11.2108 37.1648C11.3223 37.1568 11.4337 37.1488 11.5532 37.2048C11.6646 37.2289 11.7841 37.2529 11.9035 37.2529C12.015 37.2529 12.1344 37.2129 12.23 37.1328C12.3255 37.0447 12.429 37.0287 12.5485 37.0207C12.66 37.0207 12.7794 37.0047 12.8749 36.9406C13.0183 36.9967 13.1138 36.9166 13.2014 36.8446L13.2651 36.7885C13.2651 36.7885 13.3049 36.7485 13.3208 36.7245C13.3607 36.6844 13.4084 36.6524 13.4642 36.6444C13.5518 36.5884 13.6553 36.5323 13.7508 36.4843C13.8543 36.4362 13.934 36.3642 13.9817 36.2521C14.0136 36.2121 14.0534 36.172 14.0773 36.124C14.1091 36.076 14.141 36.0359 14.1728 35.9959C14.2047 35.9559 14.2445 35.9158 14.2843 35.8838C14.3241 35.8438 14.3639 35.8118 14.4117 35.7877C14.356 35.6116 14.4276 35.5476 14.5152 35.4835C14.6028 35.4195 14.7382 35.3794 14.7461 35.2673C14.8417 35.2033 14.8895 35.1072 14.9134 35.0111C14.9293 34.9071 14.9372 34.803 14.993 34.7149C14.993 34.6108 15.0487 34.5228 15.0965 34.4347C15.1124 34.4107 15.1204 34.3867 15.1283 34.3626C15.1283 34.3386 15.1443 34.3146 15.1443 34.2906C15.1443 34.2426 15.1443 34.1945 15.1283 34.1385C15.1443 34.0904 15.1443 34.0424 15.1443 33.9944C15.1443 33.9463 15.1363 33.8983 15.1283 33.8502C15.1204 33.7542 15.1283 33.6661 15.1761 33.57C15.0965 33.474 15.1204 33.3859 15.1602 33.2898C15.192 33.1937 15.208 33.0977 15.1443 33.0096C15.1443 32.9616 15.1283 32.9215 15.1204 32.8735L15.0885 32.7454C15.0646 32.6573 15.0567 32.5693 15.0408 32.4812C15.1204 32.3611 15.0965 32.273 15.0487 32.193C15.0009 32.1129 14.9054 32.0649 14.8656 31.9928C14.8178 31.8167 14.5869 31.7686 14.6426 31.5445C14.6028 31.4724 14.5789 31.3923 14.5471 31.3203C14.5152 31.2482 14.4675 31.1762 14.3799 31.1522C14.3162 31.1041 14.3241 30.992 14.3162 30.896C14.3002 30.7999 14.2445 30.7438 14.0932 30.8079C14.0216 30.7839 14.0056 30.6878 13.9738 30.6077C13.9419 30.5357 13.8942 30.4716 13.7827 30.5117C13.5677 30.5837 13.5756 30.3435 13.4642 30.2635C13.3607 30.1834 13.2492 30.1274 13.1536 30.0633C12.6918 29.7991 12.2778 29.663 11.9911 29.5669C11.7045 29.4869 11.5372 29.4228 11.5372 29.3588C11.5372 29.3267 11.585 29.2947 11.6885 29.2627C11.7363 29.2467 11.8 29.2387 11.8796 29.2227C11.9593 29.2067 12.0468 29.2067 12.1424 29.2067C12.5405 29.1906 13.1536 29.2627 13.8384 29.607C13.9738 29.679 14.2047 29.615 14.2604 29.8391C14.3241 29.8872 14.4117 29.9192 14.4913 29.9512C14.571 29.9913 14.6426 30.0473 14.6745 30.1434C14.8098 30.1274 14.8974 30.1754 14.9452 30.2635C14.993 30.3435 15.0248 30.4476 15.0885 30.5277C15.1602 30.5917 15.208 30.6798 15.2637 30.7679C15.3194 30.8479 15.3831 30.928 15.4787 30.984C15.6937 31.0961 15.6459 31.3683 15.8131 31.5204C15.7972 31.6485 15.829 31.7526 15.8689 31.8567C15.9166 31.9608 15.9883 32.0489 16.0838 32.1369C16.06 32.265 16.0838 32.3771 16.1396 32.4812C16.1635 32.5372 16.1953 32.5853 16.2192 32.6413C16.2431 32.6974 16.259 32.7534 16.267 32.8174C16.1874 32.9536 16.1953 33.0656 16.2192 33.1857C16.2431 33.3058 16.3068 33.4259 16.3546 33.546C16.4023 33.6741 16.3785 33.8022 16.3546 33.9223C16.3546 33.9864 16.3386 34.0504 16.3307 34.1145C16.3227 34.1785 16.3148 34.2425 16.3148 34.3066C16.2431 34.5548 16.267 34.835 16.1635 35.0912C16.1635 35.2353 16.1475 35.3714 16.0998 35.5075C16.052 35.6356 15.9724 35.7557 15.8609 35.8598C15.837 36.0039 15.7574 36.124 15.6778 36.2441C15.6061 36.3642 15.5026 36.4683 15.423 36.5884C15.3991 36.6604 15.3593 36.7245 15.3194 36.7805C15.2717 36.8366 15.2239 36.8926 15.1682 36.9406L15.0089 37.0928C14.9532 37.1408 14.8974 37.1888 14.8497 37.2449C14.7541 37.357 14.6108 37.421 14.4754 37.4851C14.3401 37.5491 14.2286 37.6292 14.149 37.7973C13.9101 37.9895 13.6075 38.0695 13.3447 38.2216C13.1934 38.2617 13.0501 38.3097 12.8988 38.3417C12.7475 38.3737 12.6042 38.4298 12.4529 38.4858C12.2778 38.3978 12.1265 38.4058 11.9752 38.4378C11.8239 38.4618 11.6726 38.5259 11.5134 38.5739C11.3541 38.5979 11.1949 38.5979 11.0356 38.5899C10.8764 38.5659 10.7251 38.5259 10.5738 38.4858C10.4145 38.4698 10.2712 38.4218 10.1199 38.3898C9.96862 38.3497 9.83326 38.2777 9.68993 38.2216C9.61031 38.2136 9.53865 38.1816 9.47495 38.1416C9.41125 38.1015 9.34755 38.0615 9.28385 38.0215C9.15645 37.9414 9.04497 37.8373 8.88572 37.7973C8.72647 37.7653 8.62296 37.6452 8.51944 37.5411C8.41593 37.437 8.32038 37.3169 8.18502 37.2529C8.12132 37.2128 8.05762 37.1808 7.99392 37.1328C7.93818 37.0848 7.88244 37.0367 7.83467 36.9807C7.78689 36.9246 7.73911 36.8686 7.6993 36.8125C7.65949 36.7485 7.6356 36.6764 7.61171 36.6044C7.52413 36.4923 7.47635 36.3482 7.43654 36.2121C7.38876 36.076 7.30914 35.9639 7.17378 35.8838C7.09415 35.7637 6.96675 35.6757 6.88712 35.5556C6.8075 35.4355 6.77565 35.2914 6.87916 35.1232C6.79954 35.0031 6.8075 34.859 6.79954 34.7309C6.79157 34.5948 6.79954 34.4667 6.71991 34.3466C6.76769 34.2746 6.78361 34.2105 6.78361 34.1465C6.79157 34.0824 6.78361 34.0184 6.76769 33.9543C6.73584 33.8342 6.67214 33.7061 6.68806 33.578C6.71195 33.4499 6.75176 33.3298 6.76769 33.2098C6.79157 33.0897 6.8075 32.9696 6.76769 32.8415C6.75176 32.7774 6.75176 32.7134 6.76769 32.6573C6.78361 32.6013 6.8075 32.5452 6.83139 32.4892C6.88712 32.3771 6.94286 32.273 6.95879 32.1609C6.9349 32.0328 7.01452 31.9368 7.09415 31.8487C7.16581 31.7606 7.2534 31.6806 7.23748 31.5525C7.34895 31.3683 7.42858 31.1682 7.5719 31.008C7.50024 30.8399 7.5719 30.7518 7.66745 30.6958C7.763 30.6398 7.88244 30.6077 7.96207 30.5517C8.04169 30.4956 8.06558 30.3916 8.11335 30.3035C8.15317 30.2154 8.23279 30.1514 8.36816 30.1754C8.36019 30.0313 8.42389 29.9592 8.51148 29.9272C8.59907 29.8952 8.71054 29.8952 8.79017 29.8712C8.95738 29.8231 9.01312 29.607 9.20422 29.639C9.22811 29.5269 9.30773 29.5109 9.38736 29.5109C9.46698 29.5109 9.55457 29.5269 9.60235 29.4709C9.76956 29.5029 9.84919 29.3748 9.98455 29.3508C10.0323 29.3107 10.0881 29.2867 10.1518 29.2707C10.2075 29.2627 10.2712 29.2707 10.3349 29.2787C10.4464 29.2627 10.5419 29.2467 10.6375 29.2387C10.7808 29.2387 10.9082 29.2387 11.0197 29.2387C11.1312 29.2387 11.2187 29.2627 11.2984 29.2787C11.4417 29.3107 11.5213 29.3508 11.5213 29.3908L11.5532 29.3748Z" fill="black"/>
<path id="Vector_6" d="M56.5025 29.3747C56.5025 29.4147 56.4309 29.4628 56.2955 29.5108C56.2318 29.5348 56.1442 29.5508 56.0487 29.5828C55.9531 29.6149 55.8416 29.6549 55.7222 29.6869C55.6426 29.7189 55.555 29.751 55.4674 29.791C55.4196 29.815 55.3798 29.839 55.332 29.8551C55.2843 29.8791 55.2365 29.9031 55.1887 29.9111C55.0454 29.847 55.0613 30.1753 54.8861 30.0712C54.7587 30.0792 54.6632 30.1673 54.5756 30.2714C54.488 30.3755 54.3128 30.3434 54.2571 30.5196C54.2651 30.6477 54.1775 30.6397 54.0899 30.6397C54.0023 30.6397 53.9147 30.6637 53.9545 30.8078C53.9227 30.8798 53.8669 30.9359 53.8192 30.9919C53.7714 31.048 53.7156 31.104 53.6599 31.1521C53.5405 31.1521 53.4927 31.2241 53.4688 31.2962C53.437 31.3762 53.429 31.4643 53.3971 31.5444C53.1503 31.5764 53.1185 31.7765 53.1742 31.9927C53.0149 32.0087 52.9194 32.0648 52.8955 32.1608C52.8716 32.2489 52.9114 32.361 52.999 32.4891C52.9751 32.5692 52.9353 32.6572 52.9035 32.7373C52.8875 32.7773 52.8716 32.8254 52.8716 32.8654C52.8716 32.9134 52.8796 32.9615 52.9035 33.0095C52.9035 33.0976 52.9035 33.1936 52.9035 33.2897C52.9035 33.3858 52.9035 33.4739 52.8716 33.5699C52.9592 33.666 53.0149 33.7541 53.0149 33.8501C53.0149 33.8982 53.0149 33.9462 52.9911 33.9943C52.9751 34.0423 52.9592 34.0903 52.9274 34.1464C53.1423 34.3145 53.1185 34.4906 53.0707 34.7228C53.0548 34.8349 53.1264 34.915 53.1981 34.995C53.2697 35.0751 53.3494 35.1472 53.3175 35.2753C53.3494 35.3713 53.429 35.4514 53.4847 35.5395C53.5405 35.6275 53.6121 35.6996 53.6599 35.7957C53.6758 35.8517 53.6918 35.9077 53.7077 35.9558C53.7316 36.0038 53.7555 36.0519 53.7873 36.0999C53.8192 36.1399 53.859 36.1799 53.9067 36.212C53.9545 36.244 54.0182 36.252 54.0899 36.26C54.1854 36.3161 54.281 36.3641 54.3765 36.4201C54.4721 36.4762 54.5438 36.5562 54.6075 36.6523C54.9021 36.5883 55.0295 36.7564 55.1967 36.9485C55.3082 36.9646 55.3957 37.0446 55.4993 37.0846C55.6028 37.1247 55.7142 37.1727 55.8337 37.1327C55.9452 37.1647 56.0566 37.1647 56.1681 37.1567C56.2796 37.1487 56.3911 37.1407 56.5105 37.1967C56.622 37.2208 56.7414 37.2448 56.8609 37.2448C56.9723 37.2448 57.0918 37.2047 57.1873 37.1247C57.2829 37.0366 57.3864 37.0206 57.5058 37.0126C57.6173 37.0126 57.7367 36.9966 57.8323 36.9325C57.9756 36.9886 58.0712 36.9085 58.1587 36.8365L58.2224 36.7804C58.2224 36.7804 58.2622 36.7404 58.2861 36.7164C58.326 36.6763 58.3737 36.6443 58.4295 36.6363C58.5171 36.5803 58.6206 36.5242 58.7161 36.4762C58.8196 36.4281 58.8993 36.3561 58.947 36.244C58.9789 36.204 59.0187 36.1639 59.0426 36.1159C59.0744 36.0679 59.1063 36.0278 59.1381 35.9878C59.17 35.9478 59.2098 35.9077 59.2496 35.8757C59.2894 35.8357 59.3292 35.8037 59.377 35.7796C59.3213 35.6035 59.3929 35.5395 59.4805 35.4754C59.5681 35.4114 59.7035 35.3713 59.7114 35.2592C59.807 35.1952 59.8548 35.0991 59.8786 35.003C59.8946 34.899 59.9025 34.7949 59.9583 34.7068C59.9583 34.6027 60.014 34.5147 60.0618 34.4266C60.0936 34.3786 60.1096 34.3385 60.1175 34.2825C60.1175 34.2344 60.1175 34.1864 60.1016 34.1304C60.1175 34.0823 60.1175 34.0343 60.1175 33.9863C60.1175 33.9382 60.1096 33.8902 60.1016 33.8421C60.0936 33.7461 60.1016 33.658 60.1573 33.5619C60.0777 33.4658 60.1016 33.3778 60.1334 33.2817C60.1653 33.1856 60.1892 33.0896 60.1175 33.0015C60.1175 32.9535 60.1016 32.9134 60.0936 32.8654L60.0618 32.7373C60.0379 32.6492 60.0299 32.5611 60.014 32.4731C60.0936 32.353 60.0697 32.2649 60.022 32.1849C59.9742 32.1048 59.8786 32.0568 59.8388 31.9847C59.7911 31.8086 59.5601 31.7605 59.6159 31.5364C59.5761 31.4643 59.5522 31.3842 59.5203 31.3042C59.4885 31.2321 59.4407 31.1601 59.3531 31.136C59.2894 31.088 59.2974 30.9759 59.2815 30.8798C59.2655 30.7838 59.2098 30.7277 59.0585 30.7918C58.9868 30.7678 58.9789 30.6717 58.947 30.5916C58.9152 30.5196 58.8674 30.4555 58.7559 30.4955C58.5409 30.5676 58.5489 30.3274 58.4374 30.2474C58.3339 30.1673 58.2224 30.1113 58.1269 30.0472C57.6651 29.783 57.251 29.6469 56.9644 29.5508C56.6777 29.4708 56.5105 29.4067 56.5105 29.3427C56.5105 29.3106 56.5583 29.2786 56.6618 29.2466C56.7096 29.2306 56.7733 29.2226 56.8529 29.2066C56.9325 29.1905 57.0201 29.1905 57.1157 29.1905C57.5138 29.1745 58.1269 29.2466 58.8117 29.5908C58.947 29.6629 59.1779 29.5989 59.2337 29.823C59.2974 29.8711 59.385 29.9031 59.4726 29.9351C59.5522 29.9751 59.6238 30.0312 59.6557 30.1273C59.7911 30.1113 59.8786 30.1593 59.9264 30.2474C59.9742 30.3274 60.006 30.4315 60.0697 30.5116C60.1414 30.5756 60.1892 30.6637 60.2449 30.7517C60.3007 30.8318 60.3644 30.9119 60.4599 30.9679C60.6749 31.08 60.6271 31.3522 60.7943 31.5043C60.7784 31.6324 60.8103 31.7365 60.8501 31.8406C60.8978 31.9447 60.9695 32.0327 61.0651 32.1208C61.0412 32.2489 61.0651 32.353 61.1208 32.4651C61.1447 32.5211 61.1765 32.5692 61.2004 32.6252C61.2243 32.6812 61.2402 32.7373 61.2482 32.8013C61.1686 32.9374 61.1765 33.0495 61.2004 33.1696C61.2243 33.2897 61.288 33.4098 61.3358 33.5299C61.3836 33.658 61.3597 33.7861 61.3358 33.9062C61.3278 33.9702 61.3199 34.0343 61.3119 34.0983C61.3039 34.1624 61.296 34.2264 61.296 34.2905C61.2801 34.3545 61.2641 34.4186 61.2562 34.4826C61.2562 34.5467 61.2402 34.6107 61.2323 34.6828C61.2084 34.8109 61.1925 34.947 61.1367 35.0751C61.1367 35.2192 61.1208 35.3553 61.073 35.4914C61.0252 35.6275 60.9456 35.7396 60.8342 35.8437C60.8103 35.9878 60.7306 36.1079 60.651 36.228C60.5793 36.3481 60.4758 36.4522 60.3962 36.5723C60.3723 36.6443 60.3325 36.7084 60.2927 36.7644C60.2449 36.8204 60.1971 36.8765 60.1414 36.9245L59.9822 37.0766C59.9264 37.1247 59.8707 37.1727 59.8229 37.2288C59.7274 37.3408 59.584 37.4049 59.4487 37.4689C59.3133 37.533 59.2018 37.6131 59.1302 37.7812C58.8913 37.9733 58.5887 38.0534 58.326 38.2055C58.1747 38.2455 58.0313 38.2936 57.8801 38.3256C57.7288 38.3576 57.5854 38.4137 57.4341 38.4697C57.259 38.3817 57.1077 38.3897 56.9564 38.4217C56.8051 38.4457 56.6538 38.5098 56.4946 38.5578C56.3353 38.5818 56.1761 38.5818 56.0168 38.5738C55.8576 38.5498 55.7063 38.5098 55.555 38.4697C55.4037 38.4537 55.2524 38.4137 55.1011 38.3736C54.9498 38.3336 54.8145 38.2616 54.6712 38.2055C54.5915 38.1975 54.5199 38.1655 54.4562 38.1255C54.3925 38.0854 54.3288 38.0454 54.2651 38.0054C54.1377 37.9253 54.0262 37.8212 53.8669 37.7812C53.7077 37.7492 53.6042 37.6291 53.5007 37.517C53.3971 37.4129 53.3016 37.2928 53.1662 37.2288C53.1025 37.1887 53.0388 37.1567 52.9751 37.1087C52.9194 37.0606 52.8637 37.0126 52.8159 36.9566C52.7681 36.9005 52.7203 36.8445 52.6805 36.7884C52.6407 36.7244 52.6168 36.6523 52.5929 36.5803C52.5053 36.4682 52.4655 36.3241 52.4178 36.188C52.37 36.0519 52.2904 35.9398 52.155 35.8597C52.0754 35.7396 51.948 35.6515 51.8683 35.5314C51.7887 35.4114 51.7569 35.2672 51.8524 35.0991C51.7808 34.979 51.7808 34.8349 51.7808 34.7068C51.7728 34.5707 51.7808 34.4426 51.7011 34.3225C51.7489 34.2505 51.7648 34.1864 51.7648 34.1224C51.7648 34.0583 51.7648 33.9943 51.7489 33.9302C51.725 33.8101 51.6534 33.682 51.6693 33.5539C51.6932 33.4258 51.733 33.3057 51.7489 33.1856C51.7728 33.0655 51.7887 32.9454 51.7489 32.8173C51.733 32.7533 51.733 32.6892 51.7489 32.6332C51.7648 32.5772 51.7887 32.5211 51.8126 32.4651C51.8683 32.353 51.9161 32.2489 51.94 32.1368C51.9161 32.0087 51.9957 31.9126 52.0754 31.8246C52.147 31.7365 52.2346 31.6564 52.2187 31.5283C52.3302 31.3442 52.4098 31.1441 52.5531 30.9919C52.4815 30.8238 52.5531 30.7357 52.6407 30.6797C52.7363 30.6236 52.8557 30.5916 52.9353 30.5356C53.0149 30.4795 53.0388 30.3755 53.0866 30.2874C53.1264 30.1993 53.206 30.1353 53.3414 30.1593C53.3334 30.0152 53.3892 29.9431 53.4768 29.9111C53.5644 29.8791 53.6758 29.8791 53.7555 29.8551C53.9227 29.807 53.9784 29.5908 54.1695 29.6229C54.1934 29.5108 54.273 29.4948 54.3527 29.4948C54.4323 29.4948 54.5199 29.5108 54.5676 29.4547C54.7349 29.4868 54.8145 29.3587 54.9498 29.3347C55.0056 29.2946 55.0613 29.2706 55.1171 29.2546C55.1728 29.2466 55.2365 29.2546 55.3002 29.2626C55.4117 29.2466 55.5072 29.2306 55.6028 29.2226C55.7461 29.2226 55.8735 29.2226 55.985 29.2226C56.0964 29.2226 56.184 29.2466 56.2637 29.2626C56.407 29.2946 56.4866 29.3346 56.4866 29.3747H56.5025Z" fill="black"/>
<path id="Vector_7" d="M47.6157 18.9505C47.6157 18.9906 47.5281 19.0386 47.3689 19.0867C47.2893 19.1107 47.1857 19.1347 47.0743 19.1587C46.9548 19.1827 46.8274 19.2308 46.6761 19.2708C46.6284 19.2868 46.5726 19.2948 46.5249 19.3108C46.4691 19.3268 46.4213 19.3429 46.3656 19.3589C46.2541 19.4069 46.1427 19.4629 46.0153 19.487C45.848 19.4069 45.8242 19.7672 45.6331 19.6471C45.4818 19.6471 45.3544 19.7432 45.2349 19.8472C45.1712 19.8953 45.0916 19.9193 45.0199 19.9433C44.9403 19.9673 44.8687 19.9994 44.8209 20.0954C44.805 20.2315 44.7014 20.2235 44.5979 20.2235C44.4944 20.2235 44.3909 20.2235 44.3989 20.3997C44.2954 20.5598 44.1281 20.6479 43.9769 20.76C43.8494 20.76 43.7778 20.832 43.722 20.9121C43.6663 21.0001 43.6265 21.0962 43.5708 21.1843C43.2921 21.2003 43.1965 21.4085 43.1886 21.6727C43.0213 21.6727 42.9019 21.7287 42.8462 21.8248C42.7904 21.9208 42.7984 22.065 42.8462 22.2171C42.8223 22.2651 42.7904 22.3132 42.7506 22.3532C42.7108 22.3932 42.679 22.4413 42.6551 22.4893C42.5993 22.5854 42.5516 22.6894 42.5595 22.8175C42.5117 22.9216 42.4958 23.0337 42.464 23.1458C42.4321 23.2579 42.3923 23.362 42.3366 23.466C42.3923 23.6102 42.4082 23.7303 42.3843 23.8423C42.3684 23.8984 42.3445 23.9544 42.3127 24.0105C42.2808 24.0665 42.249 24.1226 42.2012 24.1706C42.2171 24.2026 42.2331 24.2346 42.249 24.2667C42.249 24.2907 42.2649 24.2827 42.2649 24.2827H42.2808C42.2808 24.2827 42.3047 24.3067 42.2968 24.3067C42.2888 24.3227 42.241 24.3467 42.1853 24.4188C42.1534 24.4508 42.1534 24.4748 42.1614 24.4828C42.1853 24.4748 42.2251 24.4508 42.249 24.4348C42.3127 24.3948 42.3206 24.3707 42.3206 24.4428C42.3366 24.4428 42.3525 24.4428 42.3605 24.4428C42.4321 24.4428 42.5038 24.4348 42.5754 24.4268C42.7188 24.4188 42.8621 24.4108 43.0134 24.4268C43.308 24.5069 43.6026 24.5949 43.8972 24.4188C44.1998 24.3707 44.5024 24.3067 44.805 24.4188C45.1075 24.2106 45.4181 24.2987 45.7286 24.4188C46.0391 24.3868 46.3576 24.5309 46.6761 24.4188C46.9946 24.4508 47.3131 24.3227 47.6317 24.4188C47.9502 24.4828 48.2766 24.5469 48.5872 24.4188C48.9057 24.2827 49.2162 24.4748 49.5347 24.4188C49.8452 24.6189 50.1558 24.3547 50.4583 24.4188C50.7609 24.4028 51.0635 24.5309 51.3661 24.4188C51.6687 24.3868 51.9633 24.3467 52.2499 24.4268C52.3932 24.2747 52.5445 24.2907 52.6879 24.3467C52.7595 24.3707 52.8312 24.4028 52.8949 24.4268C52.9108 24.4508 52.9267 24.4588 52.9347 24.4428C52.9825 24.5069 53.0302 24.4988 53.0541 24.4828C53.0621 24.4748 53.0701 24.4668 53.078 24.4588C53.0701 24.4348 53.0621 24.4188 53.078 24.4108C53.0462 24.3627 53.078 24.3627 53.1099 24.3307C53.1178 24.3147 53.1258 24.2987 53.1258 24.2747C53.1258 24.2747 53.1258 24.2667 53.1258 24.2587C53.1258 24.2587 53.1258 24.2587 53.1178 24.2346C53.1099 24.2026 53.0939 24.1786 53.0701 24.1466C53.0701 24.0825 53.0541 24.0265 53.0382 23.9704C53.0223 23.9144 52.9904 23.8583 52.9745 23.8023C52.9347 23.6902 52.9028 23.5781 52.9267 23.45C52.8153 23.362 52.8073 23.2419 52.7993 23.1218C52.7993 23.0017 52.7993 22.8736 52.6958 22.7935C52.6003 22.5854 52.4968 22.3852 52.4012 22.1931C52.441 22.0409 52.4012 21.9369 52.3216 21.8568C52.242 21.7847 52.1305 21.7287 52.0668 21.6486C52.019 21.5526 51.9314 21.4965 51.8438 21.4325C51.7642 21.3684 51.7005 21.2964 51.6846 21.1683C51.6288 21.0882 51.5731 21.0001 51.5094 20.9201C51.4457 20.84 51.374 20.776 51.2785 20.7439C51.1989 20.6879 51.175 20.5758 51.1272 20.4797C51.0794 20.3837 51.0157 20.3116 50.8565 20.3837C50.7689 20.3516 50.7211 20.2636 50.6733 20.1835C50.6176 20.1034 50.5539 20.0394 50.4345 20.0874C50.315 20.1275 50.2434 20.0874 50.1876 20.0234C50.1319 19.9593 50.0841 19.8713 50.0124 19.8392C49.8771 19.7512 49.7417 19.6951 49.6064 19.6391C49.5347 19.6071 49.463 19.575 49.3914 19.543C49.3197 19.511 49.248 19.487 49.1843 19.4629C49.049 19.4149 48.9216 19.3669 48.8021 19.3188C48.5553 19.2548 48.3483 19.1827 48.1731 19.1427C47.8228 19.0626 47.6237 18.9986 47.6237 18.9345C47.6237 18.8705 47.8626 18.7984 48.3403 18.7744C48.8021 18.7744 49.5028 18.8305 50.3309 19.1507C50.4106 19.1827 50.5141 19.1827 50.6096 19.1987C50.7052 19.2148 50.7928 19.2548 50.8405 19.3669C50.9998 19.471 51.2466 19.4629 51.3661 19.6551C51.6527 19.6071 51.7324 19.8713 51.8916 20.0234C51.9792 20.0954 52.0509 20.1835 52.1305 20.2636C52.2101 20.3436 52.2977 20.4157 52.4092 20.4797C52.5366 20.5198 52.6003 20.6238 52.6719 20.7279C52.7436 20.832 52.7914 20.9441 52.9028 21.0161C52.9267 21.1603 52.9745 21.2723 53.0621 21.3684C53.1417 21.4645 53.2373 21.5606 53.3567 21.6326C53.3647 21.7767 53.4443 21.8808 53.5239 21.9929C53.6035 22.105 53.6911 22.2091 53.7548 22.3292C53.723 22.4893 53.7548 22.6254 53.8185 22.7455C53.8822 22.8656 53.9858 22.9777 54.0733 23.1058C54.145 23.2339 54.1769 23.378 54.2007 23.5221L54.2406 23.7383C54.2485 23.8103 54.2644 23.8824 54.2883 23.9544C54.2883 23.9945 54.2883 24.0265 54.2883 24.0665L54.3042 24.2346C54.3202 24.3547 54.3361 24.4748 54.36 24.5949C54.3839 24.8351 54.4157 25.0993 54.4078 25.3315C54.4396 25.4756 54.4635 25.6197 54.4874 25.7638C54.4874 25.7798 54.4874 25.7718 54.4715 25.7718H54.4476L54.3998 25.7798H54.3122C54.2485 25.7959 54.1848 25.7958 54.1211 25.8039C53.8583 25.8119 53.5717 25.8039 53.301 25.7478C53.1736 25.7638 53.0462 25.7798 52.9108 25.7798C52.8232 25.7798 52.7595 25.7798 52.6879 25.7798C52.5445 25.7798 52.4012 25.7638 52.2499 25.7638C51.9553 25.8439 51.6607 25.7558 51.3661 25.7718C51.0635 25.8119 50.7609 25.5557 50.4583 25.7798C50.1558 25.8119 49.8452 25.7478 49.5347 25.7798C49.2242 25.7558 48.9057 25.7238 48.5872 25.7798C48.2687 25.5637 47.9502 25.6918 47.6317 25.7798C47.3131 25.8439 46.9867 25.8119 46.6761 25.7798C46.3576 25.8039 46.0471 25.7878 45.7286 25.7798C45.4181 25.8439 45.1075 25.6838 44.805 25.7798C44.5024 25.8759 44.1998 25.6758 43.8972 25.7718C43.5947 25.8359 43.3 25.8679 43.0134 25.7638C42.8701 25.7638 42.7188 25.7158 42.5754 25.6838C42.5038 25.6678 42.4321 25.6597 42.3525 25.6678C42.2331 25.6678 42.1057 25.6918 41.9623 25.7398C41.6996 25.7558 41.397 25.8279 41.1024 25.8519C40.9511 25.8679 40.8078 25.8679 40.6963 25.8519C40.7202 25.6998 40.7759 25.5236 40.8555 25.3475C40.8317 25.1233 40.8794 24.8431 40.9192 24.6029C40.9431 24.4828 40.975 24.3627 40.9909 24.2507C40.9909 24.1946 40.9989 24.1306 40.9989 24.0825C40.9989 24.0425 40.9989 24.0025 40.9829 23.9704C41.0466 23.9064 41.0865 23.8423 41.1103 23.7703C41.1342 23.6982 41.1502 23.6342 41.1581 23.5621C41.174 23.418 41.1581 23.2659 41.1979 23.1218C41.2616 22.9937 41.3413 22.8736 41.397 22.7455C41.4527 22.6174 41.4925 22.4893 41.5164 22.3452C41.5244 22.2011 41.5961 22.081 41.6836 21.9689C41.7235 21.9128 41.7633 21.8648 41.811 21.8088C41.8509 21.7527 41.8907 21.7047 41.9146 21.6406C41.9305 21.4965 42.026 21.4004 42.1375 21.3204C42.249 21.2403 42.3525 21.1603 42.3684 21.0242C42.5356 20.84 42.671 20.6319 42.8621 20.4877C42.8302 20.2956 42.9178 20.2155 43.0373 20.1675C43.1487 20.1195 43.2921 20.1034 43.3797 20.0394C43.4752 19.9753 43.5309 19.8793 43.6026 19.7912C43.6743 19.7031 43.7619 19.6391 43.9052 19.6711C43.9211 19.511 44.0087 19.4549 44.1122 19.4229C44.2157 19.3909 44.3352 19.3989 44.4307 19.3749C44.5263 19.3509 44.5979 19.2868 44.6776 19.2388C44.7492 19.1827 44.8288 19.1347 44.9403 19.1587C45.0359 18.9265 45.2907 19.1027 45.4181 18.9986C45.6012 19.0466 45.7127 18.8865 45.864 18.8865C45.9914 18.8144 46.1347 18.7904 46.2701 18.8225C46.3338 18.8144 46.3975 18.8064 46.4532 18.8064C46.5169 18.8064 46.5726 18.8064 46.6284 18.7984C46.7956 18.7984 46.9389 18.7824 47.0663 18.7984C47.1937 18.8144 47.2972 18.8225 47.3848 18.8385C47.552 18.8705 47.6396 18.9105 47.6396 18.9505H47.6157Z" fill="black"/>
<path id="Vector_8" d="M47.6242 25.1075C47.5605 25.1716 47.457 25.1796 47.3216 25.1396C47.2977 25.1396 47.2739 25.1236 47.25 25.1155C47.2181 25.1155 47.1863 25.1155 47.1703 25.0835C47.2261 24.9874 46.9872 25.1876 47.0828 25.0435C47.0987 24.9874 47.0429 24.9955 46.9952 25.0035C46.9474 25.0035 46.9952 24.9074 46.8996 24.9554C46.7244 25.0835 47.0191 24.7312 46.8041 24.8994C46.7404 24.9154 46.7244 24.8754 46.7006 24.8353C46.7881 24.6912 46.6448 24.7793 46.597 24.7633C46.7085 24.5951 46.613 24.6192 46.4856 24.6912C46.6448 24.467 46.5891 24.459 46.3741 24.6112C46.3343 24.5871 46.3741 24.475 46.2547 24.5231C46.2069 24.4991 46.1352 24.4991 46.1352 24.435C45.968 24.5311 45.9361 24.4831 46.0158 24.3389C45.8406 24.443 45.8565 24.3469 45.8884 24.2349C45.9282 24.1228 45.6893 24.2829 45.761 24.1308C45.7291 24.0827 45.6495 24.0827 45.6336 24.0187C45.6495 23.9226 45.6734 23.8185 45.5062 23.9066C45.4345 23.9066 45.339 23.9066 45.3788 23.7865C45.1877 23.8906 45.2116 23.7865 45.2434 23.6664C45.1797 23.6504 45.2434 23.4983 45.108 23.5383C45.0842 23.4743 44.9568 23.5143 44.9727 23.4102C44.9727 23.3222 44.9727 23.2341 44.8453 23.2741C44.7099 23.3222 44.7975 23.146 44.7179 23.138C44.8134 22.9539 44.5905 23.098 44.5984 23.0099C44.5427 22.9779 44.5984 22.8418 44.479 22.8818C44.4153 22.8658 44.3436 22.8498 44.3675 22.7537C44.1127 22.9299 44.3436 22.6176 44.2561 22.6256C44.3038 22.4975 44.1685 22.5616 44.1525 22.4975C44.0729 22.4975 44.1764 22.3214 44.049 22.3694C44.0331 22.3134 43.9057 22.3694 43.9535 22.2493C43.8102 22.3214 43.9694 22.0892 43.8659 22.1292C43.834 22.0972 43.7942 22.0652 43.7783 22.0091C43.9137 21.809 43.7385 21.9131 43.6987 21.8971C43.6828 21.849 43.5394 21.9291 43.627 21.785C43.6111 21.7449 43.6509 21.6409 43.5633 21.6809C43.5076 21.6809 43.7465 21.3847 43.4996 21.5768C43.4359 21.5928 43.6191 21.3526 43.4439 21.4807C43.2846 21.5928 43.412 21.4167 43.3961 21.3847C43.3802 21.3526 43.3643 21.3206 43.3563 21.2966C43.2369 21.0324 43.2209 20.8482 43.3085 20.7522C43.4041 20.6561 43.635 20.6961 43.9376 20.8482C43.9694 20.8643 44.1048 20.7682 44.0331 20.8963C44.057 20.9203 44.1685 20.8562 44.1287 20.9523C44.3118 20.8242 44.2083 20.9763 44.2322 21.0164C44.272 21.0404 44.2481 21.1124 44.3357 21.0884C44.4551 21.0244 44.3516 21.1925 44.4472 21.1605C44.3835 21.2886 44.4472 21.2966 44.5586 21.2405C44.4949 21.3686 44.6462 21.2886 44.6781 21.3286C44.5666 21.5047 44.702 21.4407 44.7975 21.4167C44.8851 21.4007 44.8453 21.5128 44.9169 21.5128C44.9249 21.5768 45.0284 21.5528 45.0443 21.6168C45.1479 21.5848 45.2116 21.6008 45.1717 21.7209C45.2593 21.7209 45.2593 21.793 45.2991 21.833C45.3947 21.817 45.3708 21.9211 45.4265 21.9451C45.4982 21.9531 45.3549 22.1773 45.5539 22.0652C45.6176 22.0892 45.6097 22.1773 45.6893 22.1853C45.7132 22.2493 45.7371 22.3134 45.8247 22.3134C45.7132 22.5135 45.8565 22.4575 45.96 22.4415C46.0476 22.4415 46.0715 22.5055 46.0874 22.5776C46.1432 22.6096 46.183 22.6576 46.2148 22.7137C46.3024 22.7137 46.2308 22.8658 46.3343 22.8498C46.4457 22.8258 46.3502 23.0019 46.4537 22.9779C46.5413 22.9779 46.605 22.9939 46.5652 23.106C46.605 23.146 46.5015 23.3302 46.6767 23.2341C46.7483 23.2421 46.9633 23.106 46.7802 23.3622C46.8757 23.3462 46.7483 23.5463 46.8837 23.4903C46.7643 23.6824 46.9474 23.5703 46.9792 23.6104C46.9792 23.6744 46.9633 23.7625 47.0668 23.7305C47.1783 23.6904 47.0907 23.8426 47.1544 23.8506C47.2739 23.7945 47.0987 24.0347 47.234 23.9627C47.242 24.0187 47.3057 24.0107 47.3057 24.0747C47.5525 23.8906 47.3614 24.1308 47.3694 24.1788C47.3694 24.2349 47.5685 24.0908 47.4331 24.2829C47.6242 24.1468 47.5048 24.3149 47.4888 24.379C47.465 24.451 47.6083 24.363 47.5366 24.475C47.672 24.387 47.5207 24.5791 47.5764 24.5631C47.5207 24.6592 47.6162 24.6112 47.6083 24.6512C47.6561 24.6512 47.664 24.6752 47.6401 24.7312C47.6401 24.7553 47.6561 24.7793 47.664 24.8033C47.6959 24.9474 47.6879 25.0515 47.6322 25.1075H47.6242Z" fill="black"/>
<path id="Vector_9" d="M47.6236 25.1235C47.5599 25.0595 47.5519 24.9554 47.5917 24.8193C47.5917 24.7953 47.6076 24.7713 47.6156 24.7473C47.6156 24.7152 47.6156 24.6832 47.6475 24.6672C47.743 24.7312 47.5439 24.4831 47.6793 24.5791C47.735 24.5951 47.7271 24.5391 47.7191 24.4911C47.7191 24.443 47.8147 24.4911 47.7669 24.395C47.6395 24.2188 47.9898 24.5151 47.8226 24.2989C47.8067 24.2269 47.8465 24.2188 47.8863 24.1948C48.0297 24.2829 47.9421 24.1388 47.95 24.0907C48.1172 24.2028 48.0934 24.1068 48.0217 23.9787C48.2446 24.1388 48.2446 24.0827 48.1013 23.8666C48.1252 23.8265 48.2367 23.8666 48.1889 23.7465C48.2128 23.6984 48.2128 23.6264 48.2765 23.6264C48.1809 23.4583 48.2287 23.4342 48.372 23.5063C48.2685 23.3302 48.3641 23.3462 48.4756 23.3782C48.587 23.4182 48.4278 23.178 48.5791 23.2501C48.6268 23.2181 48.6268 23.138 48.6905 23.122C48.7861 23.138 48.8896 23.162 48.802 22.9939C48.802 22.9218 48.802 22.8258 48.9215 22.8658C48.8179 22.6736 48.9215 22.6977 49.0409 22.7377C49.0568 22.6736 49.2081 22.7377 49.1683 22.6016C49.232 22.5776 49.1922 22.4495 49.3037 22.4655C49.3912 22.4655 49.4788 22.4655 49.439 22.3374C49.3912 22.2013 49.5664 22.2894 49.5744 22.2093C49.7575 22.3054 49.6142 22.0812 49.7098 22.0892C49.7416 22.0332 49.877 22.0892 49.8372 21.9691C49.8531 21.9051 49.869 21.833 49.9646 21.857C49.7894 21.6008 50.0999 21.833 50.092 21.7449C50.2194 21.793 50.1557 21.6569 50.2194 21.6409C50.2194 21.5608 50.3945 21.6649 50.3468 21.5368C50.4025 21.5208 50.3468 21.3927 50.4662 21.4407C50.3945 21.2966 50.6254 21.4567 50.5856 21.3526C50.6175 21.3206 50.6493 21.2806 50.7051 21.2646C50.9041 21.4007 50.8006 21.2245 50.8165 21.1845C50.8643 21.1685 50.7847 21.0244 50.928 21.1124C50.9758 21.0964 51.0713 21.1365 51.0315 21.0484C51.0315 20.9923 51.3261 21.2325 51.135 20.9843C51.1191 20.9203 51.358 21.1044 51.2306 20.9283C51.1191 20.7682 51.2943 20.8963 51.3261 20.8803C51.358 20.8642 51.3898 20.8482 51.4137 20.8402C51.6765 20.7201 51.8676 20.6961 51.9552 20.7922C52.0507 20.8883 52.0109 21.1204 51.8596 21.4247C51.8437 21.4567 51.9393 21.5928 51.8119 21.5208C51.788 21.5448 51.8517 21.6569 51.7561 21.6168C51.8835 21.801 51.7322 21.6969 51.6924 21.7209C51.6685 21.7529 51.5969 21.7369 51.6287 21.825C51.6924 21.9451 51.5252 21.841 51.5571 21.9371C51.4297 21.873 51.4217 21.9371 51.4774 22.0492C51.35 21.9931 51.4297 22.1372 51.3898 22.1693C51.2147 22.0572 51.2784 22.1933 51.3023 22.2894C51.3182 22.3774 51.2067 22.3374 51.2067 22.4094C51.143 22.4175 51.1669 22.5215 51.1032 22.5375C51.135 22.6416 51.1191 22.7057 50.9997 22.6656C50.9997 22.7537 50.928 22.7537 50.8882 22.7937C50.9041 22.8898 50.8006 22.8658 50.7767 22.9218C50.7688 22.9939 50.5458 22.8498 50.6573 23.0499C50.6334 23.114 50.5458 23.106 50.5299 23.178C50.4662 23.2021 50.4025 23.2261 50.4025 23.3141C50.2034 23.2021 50.2592 23.3462 50.2751 23.4503C50.2751 23.5383 50.2114 23.5623 50.1397 23.5784C50.1079 23.6424 50.0601 23.6744 50.0044 23.7064C50.0044 23.7945 49.8531 23.7225 49.869 23.8265C49.8929 23.9306 49.7177 23.8426 49.7416 23.9466C49.7416 24.0347 49.7257 24.0988 49.6142 24.0587C49.5744 24.0988 49.3912 23.9947 49.4868 24.1708C49.4788 24.2429 49.6142 24.459 49.3594 24.2749C49.3753 24.371 49.1763 24.2429 49.232 24.379C49.0409 24.2589 49.1524 24.443 49.1126 24.475C49.0489 24.475 48.9613 24.459 48.9931 24.5631C49.0329 24.6752 48.8816 24.5871 48.8737 24.6512C48.9294 24.7713 48.6905 24.5951 48.7622 24.7312C48.7144 24.7392 48.7144 24.8113 48.6507 24.8033C48.8339 25.0515 48.587 24.8593 48.5472 24.8673C48.4915 24.8673 48.6348 25.0675 48.4437 24.9314C48.5791 25.1235 48.4119 25.0035 48.3482 24.9874C48.2765 24.9634 48.3641 25.1075 48.2526 25.0355C48.3402 25.1716 48.1491 25.0195 48.165 25.0755C48.0695 25.0195 48.1172 25.1155 48.0774 25.1075C48.0774 25.1556 48.0535 25.1636 47.9978 25.1396C47.9739 25.1476 47.95 25.1556 47.9261 25.1636C47.7828 25.1956 47.6793 25.1876 47.6236 25.1316V25.1235Z" fill="black"/>
<path id="Vector_10" d="M45.2349 32.2889C45.2349 32.3769 44.9881 32.457 44.5262 32.5291C44.4466 32.5371 44.367 32.5531 44.2794 32.5691C44.1918 32.5931 44.0963 32.6171 44.0007 32.6011C43.9052 32.489 43.8016 32.8093 43.6902 32.6331C43.5787 32.5851 43.4672 32.6331 43.3478 32.6652C43.2283 32.7052 43.1009 32.5931 42.9735 32.6972C42.8461 32.9133 42.7108 32.457 42.5754 32.7292C42.4401 32.7853 42.2967 32.7692 42.1454 32.7612C42.0021 32.5931 41.8508 32.7612 41.6916 32.7853C41.5323 32.5851 41.3731 32.6732 41.2138 32.8093C41.0466 32.5371 40.8794 32.5771 40.7122 32.8333C40.545 32.8413 40.3618 32.7372 40.1867 32.8573C40.0115 32.8733 39.8283 32.9294 39.6372 32.8813C39.4541 33.0655 39.263 33.0575 39.0719 32.8973C38.8808 33.0975 38.6817 33.0174 38.4827 32.9134C38.2836 32.8013 38.0846 33.0895 37.8775 32.9294C37.6705 32.9134 37.4635 32.9774 37.2564 32.9454C37.0494 32.8653 36.8344 32.7772 36.6194 32.9534C36.4045 33.0014 36.1895 33.0655 35.9665 32.9534C35.7436 33.1615 35.5286 33.0735 35.3056 32.9534C35.0827 32.9854 34.8597 32.8413 34.6288 32.9534C34.3979 32.9214 34.175 33.0495 33.944 32.9534C33.7131 32.8893 33.4822 32.8253 33.2593 32.9534C33.0283 33.0895 32.8054 32.8973 32.5824 32.9534C32.3595 32.7532 32.1365 33.0174 31.9216 32.9534C31.6986 32.9694 31.4836 32.8413 31.2686 32.9534C31.0536 32.9934 30.8387 33.0254 30.6316 32.9454C30.4246 33.2496 30.2176 32.8653 30.0105 32.9294C29.8035 32.8013 29.6045 32.9454 29.4054 32.9134C29.2063 32.9694 29.0152 32.7772 28.8162 32.8973C28.6251 32.8733 28.434 32.9934 28.2508 32.8813C28.0677 33.0334 27.8846 32.7532 27.7014 32.8573C27.5262 32.8573 27.3511 32.8653 27.1759 32.8333C27.0087 32.5931 26.8415 32.7933 26.6742 32.8093C26.507 32.7853 26.3478 32.9454 26.1965 32.7853C26.0372 32.7692 25.886 32.6652 25.7426 32.7612C25.5993 32.7933 25.456 32.417 25.3127 32.7292C25.1773 32.7853 25.0419 32.489 24.9145 32.6972C24.7871 32.8893 24.6597 32.6732 24.5403 32.6652C24.4209 32.6572 24.3094 32.6411 24.1979 32.6331C23.2185 32.5291 22.6611 32.409 22.6611 32.2809C22.6611 32.1367 23.3539 32.0086 24.5403 31.8966C24.6597 31.8886 24.7792 31.7204 24.9145 31.8645C25.0419 31.8645 25.1773 31.7364 25.3127 31.8325C25.448 31.6163 25.5913 31.7925 25.7426 31.8005C25.8939 31.7925 26.0372 31.8565 26.1965 31.7765C26.3478 31.6484 26.515 31.8405 26.6742 31.7525C26.8335 31.8886 27.0007 31.8485 27.1759 31.7284C27.3511 31.8565 27.5262 31.7044 27.7014 31.7044C27.8766 31.9046 28.0597 31.7605 28.2508 31.6804C28.434 31.6083 28.6251 31.7124 28.8162 31.6644C29.0073 31.7044 29.2063 31.6163 29.4054 31.6484C29.6045 31.5523 29.8035 31.5203 30.0105 31.6324C30.2176 31.5683 30.4246 31.6163 30.6316 31.6163C30.8387 31.5363 31.0536 31.6244 31.2686 31.6083C31.4836 31.5683 31.6986 31.8245 31.9216 31.6003C32.1445 31.5683 32.3595 31.6324 32.5824 31.6003C32.8054 31.6244 33.0283 31.6564 33.2593 31.6003C33.4902 31.8165 33.7131 31.6804 33.944 31.6003C34.175 31.5363 34.4059 31.5683 34.6288 31.6003C34.8597 31.5763 35.0827 31.5923 35.3056 31.6003C35.5286 31.5363 35.7515 31.6964 35.9665 31.6003C36.1895 31.5043 36.4045 31.7044 36.6194 31.6083C36.8344 31.5443 37.0494 31.5123 37.2564 31.6163C37.4635 31.6163 37.6705 31.8165 37.8775 31.6324C38.0846 31.5923 38.2836 31.3441 38.4827 31.6484C38.6817 31.5683 38.8728 31.8005 39.0719 31.6644C39.263 31.8886 39.4541 31.6724 39.6372 31.6804C39.8204 31.7204 40.0035 31.8005 40.1867 31.7044C40.3618 31.6003 40.537 31.7605 40.7122 31.7284C40.8874 31.6003 41.0546 31.8966 41.2138 31.7525C41.381 31.7845 41.5403 31.7364 41.6916 31.7765C41.8429 31.4722 42.0021 31.7765 42.1454 31.8005C42.2967 31.8485 42.4321 31.6003 42.5754 31.8325C42.7108 31.6003 42.8461 31.8005 42.9735 31.8645C43.1009 31.9286 43.2283 31.7685 43.3478 31.8966C43.4672 31.7364 43.5787 31.9846 43.6902 31.9286C43.8016 32.0327 43.9052 31.9286 44.0007 31.9606C44.0963 31.9206 44.1918 31.9366 44.2794 31.9926C44.367 32.0086 44.4466 32.0167 44.5262 32.0327C44.9801 32.1047 45.2349 32.1928 45.2349 32.2729V32.2889Z" fill="black"/>
<path id="Vector_11" d="M45.2349 36.0437C45.2349 36.1318 44.9881 36.2119 44.5262 36.2839C44.4466 36.2919 44.367 36.308 44.2794 36.324C44.1918 36.348 44.0963 36.372 44.0007 36.356C43.9052 36.2439 43.8016 36.5642 43.6902 36.388C43.5787 36.34 43.4672 36.388 43.3478 36.42C43.2283 36.4601 43.1009 36.348 42.9735 36.4521C42.8461 36.6682 42.7108 36.2119 42.5754 36.4841C42.4401 36.5401 42.2967 36.5241 42.1454 36.5161C42.0021 36.348 41.8508 36.5161 41.6916 36.5401C41.5323 36.34 41.3731 36.428 41.2138 36.5641C41.0466 36.2919 40.8794 36.332 40.7122 36.5882C40.545 36.5882 40.3618 36.4921 40.1867 36.6122C40.0115 36.6282 39.8283 36.6842 39.6372 36.6362C39.4541 36.8203 39.263 36.8123 39.0719 36.6522C38.8808 36.8524 38.6817 36.7723 38.4827 36.6682C38.2836 36.5561 38.0846 36.8444 37.8775 36.6842C37.6705 36.6682 37.4635 36.7323 37.2564 36.7003C37.0494 36.6202 36.8344 36.5321 36.6194 36.7083C36.4045 36.7563 36.1895 36.8203 35.9665 36.7083C35.7436 36.9164 35.5286 36.8284 35.3056 36.7083C35.0827 36.7403 34.8597 36.5962 34.6288 36.7083C34.3979 36.6762 34.175 36.8043 33.944 36.7083C33.7131 36.6442 33.4822 36.5802 33.2593 36.7083C33.0283 36.8444 32.8054 36.6522 32.5824 36.7083C32.3595 36.5081 32.1365 36.7723 31.9216 36.7083C31.6986 36.7243 31.4836 36.5962 31.2686 36.7083C31.0536 36.7483 30.8387 36.7803 30.6316 36.7003C30.4246 37.0045 30.2176 36.6202 30.0105 36.6842C29.8035 36.5561 29.6045 36.7003 29.4054 36.6682C29.2063 36.7243 29.0152 36.5321 28.8162 36.6522C28.6251 36.6282 28.434 36.7483 28.2508 36.6362C28.0677 36.7883 27.8846 36.5081 27.7014 36.6122C27.5262 36.6122 27.3511 36.6202 27.1759 36.5882C27.0087 36.348 26.8415 36.5481 26.6742 36.5641C26.507 36.5401 26.3478 36.7003 26.1965 36.5401C26.0372 36.5241 25.886 36.42 25.7426 36.5161C25.5993 36.5481 25.456 36.1718 25.3127 36.4841C25.1773 36.5401 25.0419 36.2439 24.9145 36.4521C24.7871 36.6442 24.6597 36.428 24.5403 36.42C24.4209 36.412 24.3094 36.396 24.1979 36.388C23.2185 36.2839 22.6611 36.1638 22.6611 36.0357C22.6611 35.8916 23.3539 35.7635 24.5403 35.6514C24.6597 35.6434 24.7792 35.4753 24.9145 35.6194C25.0419 35.6194 25.1773 35.4913 25.3127 35.5874C25.448 35.3712 25.5913 35.5474 25.7426 35.5554C25.8939 35.5474 26.0372 35.6114 26.1965 35.5314C26.3478 35.4033 26.515 35.5954 26.6742 35.5073C26.8335 35.6434 27.0007 35.6034 27.1759 35.4833C27.3511 35.6114 27.5262 35.4593 27.7014 35.4593C27.8766 35.6595 28.0597 35.5153 28.2508 35.4353C28.434 35.3632 28.6251 35.4673 28.8162 35.4193C29.0073 35.4593 29.2063 35.3712 29.4054 35.4033C29.6045 35.3072 29.8035 35.2752 30.0105 35.3872C30.2176 35.3232 30.4246 35.3712 30.6316 35.3712C30.8387 35.2912 31.0536 35.3792 31.2686 35.3632C31.4836 35.3232 31.6986 35.5794 31.9216 35.3552C32.1445 35.3232 32.3595 35.3872 32.5824 35.3552C32.8054 35.3792 33.0283 35.4113 33.2593 35.3552C33.4902 35.5714 33.7131 35.4353 33.944 35.3552C34.175 35.2912 34.4059 35.3232 34.6288 35.3552C34.8597 35.3312 35.0827 35.3472 35.3056 35.3552C35.5286 35.2912 35.7515 35.4513 35.9665 35.3552C36.1895 35.2591 36.4045 35.4593 36.6194 35.3632C36.8344 35.2992 37.0494 35.2671 37.2564 35.3712C37.4635 35.3712 37.6705 35.5714 37.8775 35.3872C38.0846 35.3472 38.2836 35.099 38.4827 35.4033C38.6817 35.3232 38.8728 35.5474 39.0719 35.4193C39.263 35.6434 39.4541 35.4273 39.6372 35.4353C39.8204 35.4753 40.0035 35.5554 40.1867 35.4593C40.3618 35.3552 40.537 35.5153 40.7122 35.4833C40.8874 35.3552 41.0546 35.6514 41.2138 35.5073C41.381 35.5394 41.5403 35.4913 41.6916 35.5314C41.8429 35.2271 42.0021 35.5314 42.1454 35.5554C42.2967 35.6034 42.4321 35.3552 42.5754 35.5874C42.7108 35.3552 42.8461 35.5554 42.9735 35.6194C43.1009 35.6835 43.2283 35.5233 43.3478 35.6514C43.4672 35.4913 43.5787 35.7395 43.6902 35.6835C43.8016 35.7875 43.9052 35.6835 44.0007 35.7155C44.0963 35.6755 44.1918 35.6915 44.2794 35.7475C44.367 35.7635 44.4466 35.7715 44.5262 35.7875C44.9801 35.8596 45.2349 35.9477 45.2349 36.0277V36.0437Z" fill="black"/>
<path id="Vector_12" d="M45.2349 39.7908C45.2349 39.8789 44.9881 39.9589 44.5262 40.031C44.4466 40.039 44.367 40.055 44.2794 40.071C44.1918 40.0951 44.0963 40.1191 44.0007 40.1031C43.9052 39.991 43.8016 40.3112 43.6902 40.1351C43.5787 40.087 43.4672 40.1351 43.3478 40.1671C43.2283 40.2071 43.1009 40.0951 42.9735 40.1991C42.8461 40.4153 42.7108 39.9589 42.5754 40.2312C42.4401 40.2872 42.2967 40.2712 42.1454 40.2632C42.0021 40.0951 41.8508 40.2632 41.6916 40.2872C41.5323 40.087 41.3731 40.1751 41.2138 40.3112C41.0466 40.039 40.8794 40.079 40.7122 40.3352C40.545 40.3432 40.3618 40.2392 40.1867 40.3593C40.0115 40.3753 39.8283 40.4313 39.6372 40.3833C39.4541 40.5674 39.263 40.5594 39.0719 40.3993C38.8808 40.5994 38.6817 40.5194 38.4827 40.4153C38.2836 40.3032 38.0846 40.5914 37.8775 40.4313C37.6705 40.4153 37.4635 40.4794 37.2564 40.4473C37.0494 40.3673 36.8344 40.2792 36.6194 40.4553C36.4045 40.5034 36.1895 40.5674 35.9665 40.4633C35.7436 40.6715 35.5286 40.5834 35.3056 40.4633C35.0827 40.4954 34.8597 40.3513 34.6288 40.4633C34.3979 40.4313 34.175 40.5514 33.944 40.4633C33.7131 40.3993 33.4822 40.3352 33.2593 40.4633C33.0283 40.5994 32.8054 40.4073 32.5824 40.4633C32.3595 40.2632 32.1365 40.5274 31.9216 40.4633C31.6986 40.4794 31.4836 40.3513 31.2686 40.4553C31.0536 40.4954 30.8387 40.5274 30.6316 40.4473C30.4246 40.7516 30.2176 40.3673 30.0105 40.4313C29.8035 40.3032 29.6045 40.4473 29.4054 40.4153C29.2063 40.4713 29.0152 40.2792 28.8162 40.3993C28.6251 40.3753 28.434 40.4954 28.2508 40.3833C28.0677 40.5354 27.8846 40.2552 27.7014 40.3593C27.5262 40.3593 27.3511 40.3673 27.1759 40.3352C27.0087 40.0951 26.8415 40.2952 26.6742 40.3112C26.507 40.2872 26.3478 40.4473 26.1965 40.2872C26.0372 40.2712 25.886 40.1671 25.7426 40.2632C25.5993 40.2952 25.456 39.9189 25.3127 40.2312C25.1773 40.2872 25.0419 39.991 24.9145 40.1991C24.7871 40.3913 24.6597 40.1751 24.5403 40.1671C24.4209 40.1511 24.3094 40.1431 24.1979 40.1351C23.2185 40.031 22.6611 39.9109 22.6611 39.7828C22.6611 39.6387 23.3539 39.5106 24.5403 39.3985C24.6597 39.3905 24.7792 39.2224 24.9145 39.3665C25.0419 39.3665 25.1773 39.2384 25.3127 39.3345C25.448 39.1183 25.5913 39.2944 25.7426 39.3024C25.8939 39.2944 26.0372 39.3665 26.1965 39.2784C26.3478 39.1503 26.515 39.3425 26.6742 39.2544C26.8335 39.3905 27.0007 39.3505 27.1759 39.2304C27.3511 39.3585 27.5262 39.1984 27.7014 39.2064C27.8766 39.4065 28.0597 39.2624 28.2508 39.1823C28.434 39.1103 28.6251 39.2144 28.8162 39.1663C29.0073 39.2064 29.2063 39.1183 29.4054 39.1503C29.6045 39.0542 29.8035 39.0222 30.0105 39.1343C30.2176 39.0703 30.4246 39.1183 30.6316 39.1183C30.8387 39.0382 31.0536 39.1263 31.2686 39.1103C31.4836 39.0703 31.6986 39.3265 31.9216 39.1023C32.1445 39.0703 32.3595 39.1343 32.5824 39.1023C32.8054 39.1343 33.0283 39.1583 33.2593 39.1023C33.4902 39.3185 33.7131 39.1823 33.944 39.1023C34.175 39.0382 34.4059 39.0703 34.6288 39.1023C34.8597 39.0783 35.0827 39.0943 35.3056 39.1023C35.5286 39.0382 35.7515 39.1984 35.9665 39.1023C36.1895 39.0062 36.4045 39.2064 36.6194 39.1103C36.8344 39.0462 37.0494 39.0142 37.2564 39.1183C37.4635 39.1183 37.6705 39.3185 37.8775 39.1343C38.0846 39.0943 38.2836 38.8461 38.4827 39.1503C38.6817 39.0703 38.8728 39.3024 39.0719 39.1663C39.263 39.3905 39.4541 39.1743 39.6372 39.1823C39.8204 39.2224 40.0035 39.3024 40.1867 39.2064C40.3618 39.1023 40.537 39.2624 40.7122 39.2304C40.8874 39.1023 41.0546 39.3985 41.2138 39.2544C41.381 39.2864 41.5403 39.2384 41.6916 39.2784C41.8429 38.9742 42.0021 39.2784 42.1454 39.3024C42.2967 39.3505 42.4321 39.1023 42.5754 39.3345C42.7108 39.1023 42.8461 39.3024 42.9735 39.3665C43.1009 39.4305 43.2283 39.2704 43.3478 39.3985C43.4672 39.2384 43.5787 39.4866 43.6902 39.4305C43.8016 39.5346 43.9052 39.4305 44.0007 39.4626C44.0963 39.4225 44.1918 39.4385 44.2794 39.4946C44.367 39.5106 44.4466 39.5186 44.5262 39.5346C44.9801 39.6067 45.2349 39.6867 45.2349 39.7748V39.7908Z" fill="black"/>
<path id="Vector_13" d="M45.2349 43.5457C45.2349 43.6338 44.9881 43.7138 44.5262 43.7859C44.4466 43.7939 44.367 43.8099 44.2794 43.8259C44.1918 43.8499 44.0963 43.874 44.0007 43.8579C43.9052 43.7459 43.8016 44.0661 43.6902 43.89C43.5787 43.8419 43.4672 43.89 43.3478 43.922C43.2283 43.962 43.1009 43.8499 42.9735 43.954C42.8461 44.1702 42.7108 43.7138 42.5754 43.986C42.4401 44.0421 42.2967 44.0261 42.1454 44.0181C42.0021 43.8499 41.8508 44.0181 41.6916 44.0421C41.5323 43.8419 41.3731 43.93 41.2138 44.0661C41.0466 43.7939 40.8794 43.8339 40.7122 44.0901C40.545 44.0981 40.3618 43.994 40.1867 44.1141C40.0115 44.1302 39.8283 44.1862 39.6372 44.1382C39.4541 44.3223 39.263 44.3143 39.0719 44.1542C38.8808 44.3543 38.6817 44.2743 38.4827 44.1702C38.2836 44.0581 38.0846 44.3463 37.8775 44.1862C37.6705 44.1702 37.4635 44.2342 37.2564 44.2022C37.0494 44.1221 36.8344 44.0341 36.6194 44.2102C36.4045 44.2583 36.1895 44.3223 35.9665 44.2102C35.7436 44.4184 35.5286 44.3303 35.3056 44.2102C35.0827 44.2422 34.8597 44.0981 34.6288 44.2102C34.3979 44.1782 34.175 44.2983 33.944 44.2102C33.7131 44.1462 33.4822 44.0821 33.2593 44.2102C33.0283 44.3463 32.8054 44.1542 32.5824 44.2102C32.3595 44.0101 32.1365 44.2743 31.9216 44.2102C31.6986 44.2262 31.4836 44.0981 31.2686 44.2102C31.0536 44.2422 30.8387 44.2823 30.6316 44.2022C30.4246 44.5064 30.2176 44.1221 30.0105 44.1862C29.8035 44.0581 29.6045 44.2022 29.4054 44.1702C29.2063 44.2262 29.0152 44.0341 28.8162 44.1542C28.6251 44.1302 28.434 44.2502 28.2508 44.1382C28.0677 44.2903 27.8846 44.0101 27.7014 44.1141C27.5262 44.1141 27.3511 44.1221 27.1759 44.0901C27.0087 43.8579 26.8415 44.0501 26.6742 44.0661C26.507 44.0421 26.3478 44.2022 26.1965 44.0421C26.0372 44.0261 25.886 43.922 25.7426 44.0181C25.5993 44.0501 25.456 43.6738 25.3127 43.986C25.1773 44.0421 25.0419 43.7459 24.9145 43.954C24.7871 44.1462 24.6597 43.93 24.5403 43.922C24.4209 43.906 24.3094 43.898 24.1979 43.89C23.2185 43.7859 22.6611 43.6658 22.6611 43.5377C22.6611 43.3936 23.3539 43.2655 24.5403 43.1534C24.6597 43.1454 24.7792 42.9773 24.9145 43.1214C25.0419 43.1214 25.1773 42.9933 25.3127 43.0893C25.448 42.8732 25.5913 43.0493 25.7426 43.0573C25.8939 43.0493 26.0372 43.1134 26.1965 43.0333C26.3478 42.9052 26.515 43.0974 26.6742 43.0093C26.8335 43.1454 27.0007 43.1054 27.1759 42.9853C27.3511 43.1134 27.5262 42.9532 27.7014 42.9612C27.8766 43.1614 28.0597 43.0253 28.2508 42.9372C28.434 42.8652 28.6251 42.9693 28.8162 42.9212C29.0073 42.9612 29.2063 42.8652 29.4054 42.9052C29.6045 42.8091 29.8035 42.7771 30.0105 42.8892C30.2176 42.8251 30.4246 42.8732 30.6316 42.8732C30.8387 42.7931 31.0536 42.8812 31.2686 42.8652C31.4836 42.8251 31.6986 43.0813 31.9216 42.8572C32.1445 42.8251 32.3595 42.8892 32.5824 42.8572C32.8054 42.8892 33.0283 42.9132 33.2593 42.8572C33.4902 43.0733 33.7131 42.9452 33.944 42.8572C34.175 42.7931 34.4059 42.8251 34.6288 42.8572C34.8597 42.8331 35.0827 42.8492 35.3056 42.8572C35.5286 42.7931 35.7515 42.9532 35.9665 42.8572C36.1895 42.7611 36.4045 42.9612 36.6194 42.8652C36.8344 42.8011 37.0494 42.7691 37.2564 42.8732C37.4635 42.8732 37.6705 43.0733 37.8775 42.8892C38.0846 42.8492 38.2836 42.601 38.4827 42.9052C38.6817 42.8251 38.8728 43.0573 39.0719 42.9212C39.263 43.1454 39.4541 42.9292 39.6372 42.9372C39.8204 42.9773 40.0035 43.0573 40.1867 42.9612C40.3618 42.8572 40.537 43.0173 40.7122 42.9853C40.8874 42.8572 41.0546 43.1534 41.2138 43.0093C41.381 43.0413 41.5403 42.9933 41.6916 43.0333C41.8429 42.7291 42.0021 43.0333 42.1454 43.0573C42.2967 43.0974 42.4321 42.8572 42.5754 43.0893C42.7108 42.8572 42.8461 43.0573 42.9735 43.1214C43.1009 43.1854 43.2283 43.0253 43.3478 43.1534C43.4672 42.9933 43.5787 43.2415 43.6902 43.1854C43.8016 43.2895 43.9052 43.1854 44.0007 43.2174C44.0963 43.1854 44.1918 43.1934 44.2794 43.2575C44.367 43.2735 44.4466 43.2815 44.5262 43.2895C44.9801 43.3616 45.2349 43.4496 45.2349 43.5297V43.5457Z" fill="black"/>
<path id="Vector_14" d="M67.2909 31.3841C67.3785 31.3841 67.4581 31.5843 67.5298 31.9526C67.5457 32.0166 67.5537 32.0807 67.5696 32.1527C67.5935 32.2248 67.6174 32.2969 67.6094 32.3769C67.4979 32.457 67.8164 32.537 67.6413 32.6251C67.5935 32.7132 67.6413 32.8012 67.6731 32.8973C67.7129 32.9934 67.6015 33.0895 67.705 33.1935C67.92 33.2976 67.4661 33.4017 67.7368 33.5138C67.7926 33.6259 67.7766 33.738 67.7687 33.8581C67.6015 33.9782 67.7687 34.0982 67.8005 34.2263C67.6015 34.3544 67.689 34.4825 67.8244 34.6106C67.5537 34.7387 67.5935 34.8748 67.8483 35.011C67.8483 35.027 67.8483 35.043 67.8483 35.059V35.123C67.8324 35.1791 67.8244 35.2351 67.8164 35.2912C67.8085 35.4033 67.8164 35.5153 67.8722 35.6675C67.8881 35.9157 67.9438 36.2199 67.8961 36.4441C67.8961 36.4601 67.904 36.4681 67.912 36.4841C67.8244 36.6522 67.4661 36.6362 67.1396 36.4841C67.0441 36.5802 66.9008 36.6122 66.7495 36.6042C66.6778 36.6042 66.5982 36.5882 66.5265 36.5722C66.4867 36.5561 66.4469 36.5321 66.4071 36.5081C66.2478 36.396 66.0886 36.6842 65.9214 36.5241C65.7541 36.5081 65.5949 36.5722 65.4277 36.5401C65.2605 36.4601 65.0933 36.372 64.9181 36.5481C64.7429 36.5962 64.5757 36.6602 64.4005 36.5561C64.2253 36.7643 64.0502 36.6762 63.867 36.5561C63.7794 36.5722 63.6919 36.5481 63.5963 36.5241H63.5645L63.5007 36.5161C63.4609 36.5161 63.4211 36.5161 63.3813 36.5161C63.3017 36.5161 63.2141 36.5321 63.1185 36.5642C62.9593 36.5481 62.7841 36.5642 62.593 36.5882C62.4099 36.6042 62.2188 36.6122 62.0914 36.5642C62.1232 36.356 62.1551 36.1719 62.163 36.0037C62.163 35.8356 62.163 35.6915 62.0914 35.5394C62.0595 35.4673 62.0436 35.3792 62.0436 35.2912C62.0436 35.2511 62.0436 35.2031 62.0436 35.1631V35.099C62.0436 35.099 62.0595 35.075 62.0595 35.067C62.0834 34.9789 62.1153 34.8829 62.0914 34.7948C62.2904 34.6186 62.0277 34.4345 62.0914 34.2584C62.0755 34.0822 62.2029 33.9061 62.0993 33.738C62.0675 33.5618 62.0277 33.3937 62.1073 33.2256C61.8047 33.0574 62.1869 32.8893 62.1232 32.7292C62.2506 32.5691 62.1073 32.4009 62.1392 32.2408C62.1392 32.2168 62.1312 32.2008 62.1312 32.1768C62.1312 32.1447 62.1312 32.1047 62.1312 32.0727C62.1392 32.0006 62.1551 31.9366 62.171 31.8725C62.1949 31.7364 62.2188 31.6243 62.1551 31.4562C62.163 31.3441 62.1551 31.224 62.1392 31.1039C62.1232 30.9838 62.1153 30.8557 62.1392 30.7597C62.1869 30.7597 62.2427 30.7837 62.2984 30.7997C62.3621 30.7276 62.5293 30.7597 62.6806 30.7997C62.8319 30.8397 62.9673 30.8798 63.0708 30.8237C63.3017 30.8237 63.5963 30.8157 63.6918 30.8477C63.8272 31.0799 63.9626 30.8878 64.09 30.8718C64.2174 30.8958 64.3448 30.7356 64.4722 30.8958C64.5996 30.9118 64.719 31.0159 64.8385 30.9198C64.9579 30.8878 65.0694 31.2641 65.1808 30.9518C65.2923 30.8958 65.3958 31.192 65.4993 30.9838C65.6029 30.7917 65.6984 31.0079 65.794 31.0159C65.8895 31.0319 65.9771 31.0399 66.0647 31.0479C66.845 31.152 67.2989 31.2721 67.2989 31.3922C67.2989 31.5363 66.7415 31.6644 65.794 31.7764C65.6984 31.7845 65.6029 31.9526 65.4993 31.8085C65.3958 31.8085 65.2923 31.9366 65.1808 31.8405C65.0694 32.0567 64.9579 31.8805 64.8385 31.8725C64.719 31.8805 64.5996 31.8085 64.4722 31.8965C64.3448 32.0246 64.2174 31.8325 64.09 31.9206C63.9626 31.7845 63.8272 31.8245 63.6918 31.9446C63.6281 31.8805 63.5326 31.8885 63.5246 31.9045C63.5007 31.9286 63.4928 31.9686 63.4769 31.9606C63.4211 31.8565 63.3733 31.8485 63.3574 31.8645C63.3415 31.8885 63.3574 31.9366 63.3813 31.9846C63.3813 32.0006 63.3813 32.0006 63.3813 32.0086C63.3893 32.0326 63.3813 32.0326 63.3733 32.0407C63.3654 32.0407 63.3574 32.0647 63.3733 32.0887C63.3574 32.0887 63.3733 32.1207 63.3733 32.1367C63.3733 32.1447 63.3893 32.1527 63.3893 32.1607C63.3893 32.1607 63.3893 32.1607 63.3893 32.1768C63.3893 32.1928 63.3893 32.2168 63.3893 32.2408C63.4848 32.4009 63.5167 32.5611 63.4052 32.7292C63.4689 32.8973 63.4211 33.0574 63.4211 33.2256C63.5008 33.3937 63.4132 33.5618 63.4291 33.738C63.4689 33.9061 63.2141 34.0822 63.437 34.2584C63.4689 34.4345 63.4052 34.6106 63.437 34.7948C63.4211 34.8829 63.4052 34.9709 63.4052 35.067V35.099V35.115C63.4052 35.115 63.4211 35.123 63.437 35.131C63.3256 35.1791 63.3096 35.2271 63.3256 35.2351C63.3415 35.2511 63.3972 35.2271 63.437 35.1951C63.5167 35.131 63.4848 35.1631 63.5007 35.1951L63.5167 35.1871H63.5485C63.6361 35.1871 63.7317 35.1951 63.8193 35.2031C63.9944 35.1391 64.1776 35.2992 64.3527 35.2031C64.5279 35.107 64.7031 35.3072 64.8703 35.2031C65.0375 35.1391 65.2127 35.107 65.3799 35.2111C65.5471 35.2111 65.7143 35.4113 65.8736 35.2271C66.0328 35.1871 66.2 34.9389 66.3593 35.2431C66.3991 35.2271 66.4389 35.2271 66.4787 35.2351C66.4867 35.2431 66.4947 35.2591 66.5026 35.2752C66.5265 35.3072 66.5584 35.3312 66.5504 35.2591C66.6141 35.3712 66.6539 35.3712 66.6619 35.3552C66.6698 35.3312 66.6459 35.2832 66.6619 35.2832C66.6619 35.2832 66.7097 35.2832 66.7256 35.2752C66.7335 35.2591 66.7256 35.2271 66.6858 35.1871C66.63 35.1471 66.646 35.1391 66.6698 35.131C66.6778 35.131 66.6937 35.115 66.7017 35.107C66.7017 35.107 66.7096 35.091 66.7096 35.067C66.7096 35.051 66.7096 35.035 66.7096 35.019C66.5822 34.8829 66.8769 34.7468 66.7335 34.6187C66.7654 34.4906 66.7176 34.3625 66.7574 34.2344C66.4548 34.1063 66.7574 33.9862 66.7893 33.8661C66.8291 33.746 66.5902 33.6339 66.8211 33.5218C66.5902 33.4097 66.7893 33.3056 66.853 33.2016C66.9167 33.0975 66.7574 33.0014 66.8848 32.9053C66.7256 32.8092 66.9724 32.7212 66.9167 32.6331C67.0202 32.545 66.9167 32.465 66.9485 32.3849C66.9087 32.3049 66.9246 32.2328 66.9804 32.1607C66.9963 32.0887 67.0043 32.0246 67.0202 31.9606C67.0918 31.5923 67.1715 31.3922 67.2591 31.3922L67.2909 31.3841Z" fill="black"/>
<path id="Vector_15" d="M5.29512 31.3842C5.38271 31.3842 5.46233 31.5844 5.53399 31.9527C5.54992 32.0167 5.55788 32.0808 5.57381 32.1528C5.59769 32.2249 5.62158 32.297 5.61362 32.377C5.50214 32.4571 5.82065 32.5371 5.64547 32.6252C5.5977 32.7133 5.64547 32.8013 5.67732 32.8974C5.71713 32.9935 5.60566 33.0896 5.70917 33.1936C5.92416 33.2977 5.47029 33.4018 5.74102 33.5139C5.79676 33.626 5.78083 33.7381 5.77287 33.8582C5.60566 33.9783 5.77287 34.0983 5.80472 34.2264C5.60566 34.3545 5.69325 34.4826 5.82861 34.6107C5.55788 34.7468 5.59769 34.8749 5.8525 35.0191C5.8525 35.0351 5.8525 35.0511 5.8525 35.0671V35.1392C5.83657 35.1952 5.82861 35.2512 5.82065 35.3073C5.81268 35.4194 5.82065 35.5315 5.87638 35.6836C5.89231 35.9318 5.94805 36.236 5.90027 36.4602L5.9162 36.4922C5.82861 36.6603 5.47029 36.6523 5.14383 36.4922C5.04828 36.5883 4.90495 36.6203 4.75367 36.6123C4.682 36.6123 4.60238 36.5963 4.53072 36.5803C4.4909 36.5643 4.45109 36.5402 4.41128 36.5162C4.25203 36.4041 4.09278 36.6924 3.92556 36.5322C3.76631 36.5162 3.5991 36.5803 3.43189 36.5482C3.26467 36.4682 3.09746 36.3801 2.92229 36.5562C2.74711 36.6043 2.5799 36.6683 2.40472 36.5643C2.22955 36.7724 2.05437 36.6843 1.87123 36.5643C1.78364 36.5803 1.69606 36.5563 1.60051 36.5322H1.56866L1.50496 36.5242C1.46514 36.5242 1.42533 36.5242 1.38552 36.5242C1.30589 36.5242 1.2183 36.5402 1.12275 36.5723C0.963503 36.5563 0.780365 36.5723 0.597227 36.5963C0.414089 36.6123 0.222988 36.6203 0.0955876 36.5723H0.087625C0.119475 36.3641 0.151325 36.18 0.159288 36.0118C0.159288 35.8437 0.151325 35.6996 0.087625 35.5475C0.0557749 35.4754 0.0398499 35.3873 0.0398499 35.2993C0.0398499 35.2512 0.0398499 35.2112 0.0398499 35.1712V35.1071L0.0557749 35.0751C0.0796625 34.987 0.111513 34.891 0.087625 34.8029C0.286688 34.6268 0.0239248 34.4426 0.087625 34.2665C0.0717 34.0903 0.1991 33.9142 0.087625 33.7461C0.0478124 33.5779 0.0159623 33.4018 0.0955876 33.2337C-0.206989 33.0655 0.175213 32.8974 0.111513 32.7373C0.238913 32.5692 0.0955876 32.409 0.127438 32.2489C0.127438 32.2329 0.119475 32.2089 0.119475 32.1929C0.119475 32.1608 0.119475 32.1208 0.119475 32.0888C0.127438 32.0167 0.143363 31.9527 0.159288 31.8886C0.183175 31.7525 0.207063 31.6404 0.143363 31.4723C0.151325 31.3682 0.143363 31.2481 0.127438 31.12C0.111513 30.9999 0.10355 30.8718 0.127438 30.7758C0.183175 30.7758 0.238913 30.7998 0.294651 30.8158C0.358351 30.7438 0.525564 30.7758 0.676852 30.8158C0.82814 30.8558 0.963503 30.8959 1.06702 30.8398C1.18645 30.8398 1.31385 30.8398 1.43329 30.8398H1.52088H1.55273H1.57662C1.57662 30.8398 1.64828 30.8558 1.68013 30.8558C1.81549 31.088 1.95086 30.8959 2.07826 30.8799C2.20566 30.9039 2.33306 30.7437 2.46046 30.9039C2.58786 30.9199 2.7073 31.024 2.81877 30.9279C2.93821 30.8959 3.04969 31.2722 3.16116 30.9599C3.27264 30.9039 3.37615 31.2001 3.47966 30.9919C3.58318 30.7998 3.67873 31.016 3.77428 31.024C3.86983 31.04 3.95741 31.048 4.045 31.056C4.82533 31.1601 5.27919 31.2802 5.27919 31.4003C5.27919 31.5444 4.72182 31.6725 3.77428 31.7846C3.67873 31.7926 3.58318 31.9607 3.47966 31.8166C3.37615 31.8166 3.27264 31.9447 3.16116 31.8486C3.04969 32.0648 2.93821 31.8886 2.81877 31.8806C2.69933 31.8886 2.5799 31.8166 2.46046 31.9046C2.33306 32.0327 2.20566 31.8406 2.07826 31.9287C1.95086 31.7926 1.81549 31.8326 1.68013 31.9527C1.64828 31.9207 1.60847 31.9046 1.57662 31.9046C1.56069 31.9046 1.53681 31.9046 1.52884 31.9046C1.52884 31.9046 1.52088 31.9046 1.51292 31.9207C1.48903 31.9447 1.48107 31.9847 1.46514 31.9767C1.4094 31.8726 1.36163 31.8646 1.3457 31.8806C1.32978 31.9046 1.3457 31.9527 1.36959 32.0007C1.36959 32.0167 1.36959 32.0167 1.36959 32.0247C1.37755 32.0488 1.36959 32.0488 1.36163 32.0568C1.35367 32.0568 1.3457 32.0808 1.36163 32.1048C1.3457 32.1048 1.36163 32.1368 1.36163 32.1528C1.36163 32.1608 1.37755 32.1689 1.37755 32.1769C1.37755 32.1769 1.37755 32.1769 1.37755 32.1849C1.37755 32.2009 1.37755 32.2249 1.37755 32.2409C1.47311 32.401 1.50496 32.5612 1.39348 32.7293C1.45718 32.8974 1.4094 33.0575 1.4094 33.2257C1.48903 33.3938 1.40144 33.5619 1.41737 33.7381C1.45718 33.9142 1.20238 34.0823 1.42533 34.2585C1.45718 34.4346 1.39348 34.6107 1.42533 34.7949C1.4094 34.883 1.39348 34.971 1.39348 35.0671V35.0991C1.39348 35.0991 1.39348 35.0991 1.39348 35.1071C1.39348 35.1071 1.4094 35.1151 1.42533 35.1231C1.31385 35.1712 1.29793 35.2192 1.31385 35.2272C1.32978 35.2432 1.38552 35.2192 1.42533 35.1872C1.50496 35.1231 1.47311 35.1552 1.48903 35.1872L1.50496 35.1792H1.53681C1.62439 35.1792 1.71994 35.1872 1.80753 35.1952C1.98271 35.1311 2.16585 35.2913 2.34102 35.1952C2.5162 35.0991 2.69137 35.2993 2.85859 35.1952C3.0258 35.1311 3.20097 35.0991 3.36819 35.2032C3.5354 35.2032 3.70261 35.4034 3.86186 35.2192C4.02111 35.1792 4.18833 34.931 4.34758 35.2352C4.38739 35.2192 4.4272 35.2192 4.46702 35.2272C4.48294 35.2352 4.48294 35.2512 4.49887 35.2673C4.52275 35.2993 4.5546 35.3233 4.54664 35.2512C4.61034 35.3633 4.65015 35.3633 4.65812 35.3473C4.66608 35.3233 4.64219 35.2753 4.65812 35.2753C4.65812 35.2753 4.70589 35.2753 4.72182 35.2673C4.73774 35.2512 4.72182 35.2192 4.682 35.1792C4.62627 35.1392 4.64219 35.1392 4.66608 35.1231C4.67404 35.1231 4.68997 35.1071 4.69793 35.0991C4.69793 35.0991 4.69793 35.0991 4.69793 35.0911C4.69793 35.0831 4.69793 35.0751 4.69793 35.0671C4.69793 35.0511 4.69793 35.0351 4.69793 35.0191C4.57053 34.883 4.86514 34.7468 4.72182 34.6107C4.75367 34.4826 4.70589 34.3545 4.7457 34.2264C4.44313 34.0983 4.7457 33.9783 4.76959 33.8582C4.8094 33.7381 4.57053 33.626 4.80144 33.5139C4.57053 33.4018 4.76959 33.2977 4.83329 33.1936C4.89699 33.0896 4.73774 32.9935 4.86514 32.8974C4.70589 32.8013 4.95273 32.7133 4.89699 32.6252C5.00051 32.5371 4.89699 32.4571 4.92884 32.377C4.89699 32.297 4.90495 32.2249 4.96866 32.1528C4.98458 32.0808 4.99254 32.0167 5.00847 31.9527C5.08013 31.5844 5.15976 31.3842 5.24734 31.3842H5.29512Z" fill="black"/>
</g>
<defs>
<clipPath id="clip0_1379_224">
<rect width="68" height="62" fill="white"/>
</clipPath>
</defs>
</svg>
