<svg width="124" height="66" viewBox="0 0 124 66" fill="none" xmlns="http://www.w3.org/2000/svg">
<g id="_241" clip-path="url(#clip0_1379_139)">
<g id="Group">
<path id="Vector" d="M119.745 55.0455L119.855 54.9361L120.203 54.5351C120.515 54.0066 121.341 53.0588 122.423 51.8193C122.423 51.7829 122.276 51.9287 122.661 51.4001C123.542 50.1971 123.597 49.7779 123.688 49.5227C123.743 49.2675 123.835 49.1035 123.982 48.0463C123.909 48.7025 123.652 49.4863 123.487 49.7779C124 48.502 124.147 47.0985 123.872 45.768C123.909 46.333 123.872 46.7887 123.762 46.1325C123.707 46.5335 123.395 45.2758 123.083 44.8931C123.303 45.531 123.34 46.0778 123.358 46.333C123.285 46.2601 123.212 45.6221 122.936 44.8931C122.936 44.9477 122.936 45.0206 122.973 45.13C122.955 45.0206 122.936 44.9477 122.936 44.8931C122.753 44.4192 122.496 43.9088 122.203 43.4531C122.349 43.7083 122.496 43.9817 122.386 43.8541C122.753 44.4921 123.028 45.1847 123.156 45.9138C123.156 45.9867 123.156 45.9138 123.101 45.7862C123.156 45.9685 123.175 46.1507 123.23 46.3512L123.193 45.9138C123.193 45.7497 123.248 46.0414 123.303 46.3512C123.358 46.9527 123.322 47.0985 123.303 47.3902C123.303 47.7912 123.267 48.1921 123.193 48.5749C123.193 48.8119 123.395 48.0463 123.432 47.4266C123.432 46.8251 123.468 46.4059 123.505 47.3902L123.432 47.9917C123.358 48.903 122.881 50.0513 122.588 50.5981C122.001 51.3454 121.084 52.6031 120.9 52.6578C119.855 53.9154 118.699 55.2825 117.507 56.6859C116.425 56.6859 115.342 56.6859 114.297 56.6859C113.288 56.6859 112.371 56.6495 111.417 56.613C110.848 56.6859 110.683 56.8682 109.399 56.9229C109.399 56.7771 109.381 56.5219 109.381 56.1756C109.417 55.7381 109.417 55.1184 109.436 55.3189C109.381 54.8086 109.381 54.5716 109.289 54.2435C109.344 54.5534 109.344 54.7356 109.362 55.1913C109.381 55.5741 109.362 55.9751 109.326 56.1938C109.326 53.9337 109.234 57.014 109.142 57.1416C109.161 56.5948 109.179 56.0298 109.179 55.4647C109.124 54.845 109.142 54.5898 109.069 54.2617V54.4987C109.106 54.6445 109.106 54.7721 109.106 54.9544C109.106 55.1913 109.142 55.4283 109.106 55.6834L109.032 57.2327C111.93 57.2874 114.884 57.3239 117.8 57.3786L119.671 55.1913L119.726 55.1184L119.745 55.0455Z" fill="black"/>
<g id="Group_2">
<path id="Vector_2" d="M93.5137 45.3485C91.4409 46.1687 90.2119 47.2806 90.0285 47.2077C90.5237 46.7338 91.074 46.3328 91.6427 45.95C90.5788 46.5697 89.6066 47.3353 88.7628 48.2649C88.2859 48.921 87.8823 49.5954 87.5521 50.3245C87.222 50.8349 87.0385 51.0718 87.0018 51.09C86.6533 51.9285 86.3598 52.7852 86.1764 53.6418C86.0847 54.061 85.993 54.5349 85.9746 54.9177C85.9196 55.2822 85.9013 55.6286 85.9013 55.9384C85.5161 55.9931 85.0208 55.902 84.6356 55.902C84.0853 55.8655 83.535 55.8473 82.9847 55.8108C81.8474 55.7562 80.7101 55.7015 79.5362 55.6468C76.5095 55.7379 73.061 55.7379 68.2918 55.5921L68.3285 55.7015C64.7882 55.7197 61.1379 55.7379 57.3592 55.7744C55.4699 55.7744 53.5622 55.7744 51.6178 55.7744C50.6456 55.7744 49.6734 55.7744 48.6829 55.7744H47.2521C46.922 55.7744 46.5368 55.8108 46.2616 55.7379C46.335 54.9359 46.1332 52.9856 45.6013 51.5457C45.0693 50.0329 44.2439 48.6112 43.1433 47.39C40.9788 44.9475 37.7504 43.38 34.3752 43.2524C31.0001 43.0884 27.5332 44.3825 25.0752 46.8067C23.8462 48.0097 22.874 49.4861 22.232 51.1083C21.9202 51.9103 21.6634 52.7669 21.535 53.6236C21.4616 54.0246 21.3882 54.5714 21.3882 54.8448C21.3699 55.1182 21.3699 55.3734 21.3882 55.6468C21.2598 55.7197 21.003 55.6468 20.8196 55.6832H20.1226H18.2332C16.9859 55.6286 15.6285 55.7744 14.6013 55.5192C13.519 55.2458 12.5468 54.5532 11.9415 53.6236C11.6297 53.1679 11.4095 52.6393 11.2995 52.0925C11.1894 51.5639 11.2078 50.9989 11.2078 50.3245C11.2078 46.4239 11.2261 42.4869 11.2444 38.5681C10.5291 38.2765 9.83202 37.9666 9.15332 37.6021C9.15332 39.0238 9.15332 40.409 9.15332 41.7396C9.15332 43.5258 9.17166 45.5673 9.22669 47.718C9.26338 48.7752 9.28172 49.8871 9.31841 50.9807C9.31841 52.2748 9.75865 53.6965 10.5657 54.7537C11.3728 55.8291 12.4918 56.6128 13.7024 56.9956C14.3078 57.1779 14.9314 57.3055 15.5368 57.3055C16.0504 57.3055 16.564 57.3055 17.0409 57.3055C17.9764 57.3055 18.8752 57.3419 19.7373 57.3419C20.8746 57.3784 21.9936 57.4148 23.2409 57.4695C23.2409 56.9774 23.2409 56.4852 23.2592 55.9567C23.2409 54.6261 23.3326 54.4074 23.4243 53.8241C23.4977 53.3137 23.6628 52.8034 23.8095 52.3112C24.1397 51.3088 24.6533 50.3974 25.2586 49.5407C26.4876 47.8639 28.2302 46.5333 30.193 45.8589L29.9912 46.0594C33.0912 44.8017 36.9249 45.1663 39.7865 47.1712C41.2172 48.1555 42.4279 49.5043 43.18 51.0718C43.6018 51.8373 43.8403 52.6758 44.0604 53.5325C44.1155 53.9699 44.2439 54.3891 44.2439 54.8266C44.3356 55.6286 44.2072 56.7586 44.1888 57.6882C51.0308 57.6153 57.7261 57.5606 63.8711 57.4877C69.5208 57.4513 71.2267 57.1414 73.7947 57.4877C75.7941 57.5059 77.8119 57.5242 79.8663 57.5424C82.361 57.5424 84.8924 57.5242 87.4604 57.5059C87.4237 56.631 87.2953 55.6103 87.3871 54.8266C87.3871 54.3891 87.4971 53.9517 87.5338 53.5142C87.7172 52.6576 87.9557 51.8009 88.3409 50.9989C89.0563 49.3767 90.2119 47.9732 91.6243 46.9161C94.4308 44.7288 98.2646 44.2185 101.383 45.2209C101.383 45.1116 102.777 45.4397 100.979 44.8017C98.393 44.1091 95.4764 44.4736 93.422 45.3121L93.5137 45.3485Z" fill="black"/>
<path id="Vector_3" d="M120.387 42.323C120.038 41.7579 119.689 41.1747 119.304 40.5549C118.919 39.9352 118.405 39.3337 117.727 38.8052C117.048 38.2766 116.204 37.8756 115.287 37.6386C115.049 37.5839 114.81 37.5293 114.572 37.511C114.242 37.4746 114.021 37.4017 113.746 37.3652C113.214 37.2559 112.682 37.1465 112.15 37.0371C107.858 36.1622 103.217 35.2327 99.3652 34.4489L99.6954 34.3942C101.31 34.6676 102.484 34.7952 104.465 35.2509L105.033 35.1415C101.823 33.7198 91.2208 32.5715 88.4693 31.9153C82.6179 30.5483 92.4131 32.2252 89.5883 31.6966C92.1013 32.0794 91.8995 31.9336 90.5238 31.5508C89.038 31.1863 86.7634 30.603 84.8007 30.1109C83.9936 29.3636 83.2599 28.6892 82.7463 28.2153C79.9031 25.5723 75.1522 21.5989 70.1078 17.4978L69.6492 17.115L69.4658 16.951L69.1723 16.6958C68.7688 16.3677 68.3102 16.0943 67.8516 15.8756C66.9161 15.4199 65.8522 15.2012 64.825 15.2012C63.1924 15.2012 61.5599 15.2012 59.9824 15.2194C56.809 15.2194 53.8191 15.2559 51.251 15.2559C47.7108 15.3652 43.9137 15.4381 39.9883 15.4563C40.1167 16.1307 40.2084 16.8234 40.2634 17.5342C47.7475 17.3702 55.3049 17.2244 62.1652 17.0786L58.1664 17.0056C59.0835 16.951 60.3492 16.8963 61.835 16.8416C62.5871 16.8234 63.3759 16.8051 64.2013 16.7869C65.0267 16.7505 65.8705 16.7687 66.696 17.0603C67.5214 17.3337 68.2368 17.8623 68.8972 18.4638C69.5942 19.0288 70.2912 19.5757 70.9699 20.1225C72.3273 21.2343 73.593 22.2733 74.712 23.1846L74.1983 22.9112C68.0534 17.9717 74.5835 23.2757 71.9238 21.4895L70.8232 20.6693L71.4102 21.2161L72.5108 22.0363C72.3457 21.9816 72.4007 22.1274 71.3735 21.3254L72.7859 22.492C75.6475 25.2078 75.4824 25.4083 74.8954 25.3536C75.7208 25.9733 75.0972 25.0438 78.4173 27.9054L77.9037 27.632L81.7374 30.5119L83.4433 32.0794C83.5534 32.1523 83.6451 32.2434 83.7368 32.3163C84.654 32.4621 85.4611 32.5897 86.2131 32.7173C86.8918 32.8267 87.5705 32.9543 88.396 33.1365L88.9646 33.0272C96.6688 34.6312 106.427 36.3081 114.26 38.0214C115.177 38.0214 116.406 38.2948 117.672 39.3155C118.314 39.8441 118.754 40.4456 119.378 41.3752C119.965 42.2501 120.607 43.1432 121.267 44.0363L120.387 42.323Z" fill="black"/>
</g>
</g>
<g id="Group_3">
<path id="Vector_4" d="M39.86 63.5031C40.0618 63.4849 40.1719 63.4667 40.3553 63.4667C40.9056 63.248 41.7677 62.5371 42.0979 62.4824C42.1529 62.5371 41.7127 63.3938 41.566 63.4667C40.2086 64.4509 39.3281 64.4509 37.7139 64.8702C37.5671 64.8702 37.1452 65.2347 36.6683 65.4534C36.6683 65.4534 36.8334 65.4534 36.9985 65.4534C36.3381 65.818 35.2009 65.818 34.3387 65.9091C34.5222 65.9638 34.5222 65.9638 34.6322 66.0002C33.9168 65.7633 32.4494 65.7268 31.4038 65.3805C31.2021 65.2712 31.0737 65.18 30.9452 65.1071C30.0097 64.7973 29.2026 64.3051 28.1938 63.6854C27.35 63.1204 26.4695 61.9721 25.7908 60.8602C24.6719 58.8188 24.6719 56.3035 24.6719 54.2438C24.6719 53.8975 24.8186 53.2413 25.1855 52.7674C25.1671 52.0748 25.534 51.1817 26.0843 50.3432C26.6346 49.4866 27.46 48.7757 28.1938 48.2471C28.7257 47.8461 29.221 47.7914 29.5145 47.7732C30.8719 46.7525 32.7245 46.0963 34.5772 46.1328C36.9068 46.1328 39.3464 46.9895 41.1441 48.8668C41.4009 49.1038 41.8961 49.5777 42.1896 49.7964L42.3731 50.2339C43.2719 51.4004 44.0239 52.6398 44.2257 53.9522C44.4275 55.7567 43.7488 55.9389 43.3452 56.1212C42.96 54.3714 41.9328 53.0773 40.7955 51.0541C40.4837 50.4708 39.6399 49.8693 38.9245 49.4683C38.3009 49.1949 37.7322 48.5934 37.0535 48.6846C36.7234 48.3565 36.0263 48.0284 35.2009 47.8279C34.3571 47.6639 33.4032 47.7003 32.6328 47.9373C32.5044 47.9373 32.6328 47.8644 32.3944 47.8826C30.3216 48.6846 28.1387 50.1063 27.0748 52.3847C26.5979 53.4965 26.0476 54.9364 26.2861 56.4493C26.3044 56.5951 26.2494 57.233 26.3594 57.634C26.4145 57.7616 26.4879 57.8892 26.5612 58.0168C26.7813 59.0557 27.4417 60.0947 27.7535 60.8055C28.1754 61.6258 28.8358 62.1726 29.4228 62.7194C30.3032 63.6125 32.2476 64.1229 33.2381 64.5238C33.3666 64.5968 33.8068 64.5785 34.0819 64.5968C34.2103 64.6514 34.3387 64.6879 34.4855 64.7243C34.779 64.7243 34.9441 64.5238 35.2192 64.5056C37.0902 64.4327 39.0713 63.2844 40.0618 63.0292C39.9518 63.1568 39.4932 63.576 39.805 63.5396L39.86 63.5031Z" fill="black"/>
<path id="Vector_5" d="M44.5558 56.7226C44.6292 56.8137 44.6659 56.4856 44.6659 56.2669C44.5742 56.4492 44.4825 56.5585 44.3908 56.9231L44.4458 56.3398C44.2807 56.03 44.3724 56.9231 44.3174 56.5585C44.3541 56.2305 44.3908 55.9753 44.4825 56.1393C44.4274 56.194 44.4641 56.3398 44.4274 56.5221C44.5375 56.5585 44.6109 56.2487 44.7026 56.0664L44.6476 57.0142L44.5742 56.7044L44.5558 56.7226Z" fill="black"/>
<path id="Vector_6" d="M44.0049 58.7457L44.0783 58.5634C44.0233 58.4541 43.9316 58.6363 43.8398 58.8004C44.1517 58.0349 44.06 58.8551 44.2984 58.3994C44.2434 58.3629 44.0416 58.8551 44.0049 58.7457Z" fill="black"/>
<path id="Vector_7" d="M43.9141 57.634C44.1158 57.3242 44.0425 56.9414 44.2259 56.8867C44.1525 57.1966 44.0241 57.4882 43.9324 57.7798V57.634H43.9141Z" fill="black"/>
<path id="Vector_8" d="M41.2354 62.9562C41.0703 63.1749 41.162 63.0656 40.8135 63.3572L41.2904 62.938L41.2354 62.9744V62.9562Z" fill="black"/>
<path id="Vector_9" d="M29.3672 64.1772C29.624 64.4507 29.8258 64.6876 30.3394 64.9428C29.7891 64.7058 29.4406 64.2684 29.3672 64.1772Z" fill="black"/>
<path id="Vector_10" d="M26.2129 59.8212C26.2129 59.8212 26.2129 59.6389 26.3413 59.8577C26.3596 59.967 26.1579 59.8941 26.3963 60.204L26.2129 59.8394V59.8212Z" fill="black"/>
<path id="Vector_11" d="M38.6128 65.2344H38.5577C38.5577 65.2344 38.5027 65.2708 38.4844 65.2891L38.6128 65.2344Z" fill="black"/>
<path id="Vector_12" d="M37.7324 65.4896L38.3744 65.3802C38.3744 65.3802 38.4478 65.3073 38.4845 65.2891C38.0809 65.4349 38.1727 65.2708 37.7324 65.4896Z" fill="black"/>
<path id="Vector_13" d="M38.4844 65.1978H38.5761C39.0347 64.9062 39.3465 64.9973 39.9885 64.5234C39.4382 64.7422 38.9063 64.9973 38.4844 65.1978Z" fill="black"/>
<path id="Vector_14" d="M38.9979 64.8152C38.9979 64.8152 39.108 64.7058 39.163 64.6511C39.3281 64.56 39.3464 64.6329 39.3648 64.6511L39.6949 64.4142C39.7683 64.2501 38.7044 64.8334 38.3926 64.9245L39.0162 64.7969L38.9979 64.8152Z" fill="black"/>
<path id="Vector_15" d="M40.2451 62.3182L40.3552 62.5005C40.6854 62.1724 40.8321 62.1906 41.1806 61.7896C40.8871 61.7714 40.6487 62.2088 40.2451 62.3182Z" fill="black"/>
<path id="Vector_16" d="M36.9619 65.5078C37.4755 65.3984 37.824 65.2344 37.9524 65.0703C37.6406 65.1614 37.3471 65.2708 37.0353 65.3255C37.4205 65.3255 37.0353 65.4166 36.9803 65.5078H36.9619Z" fill="black"/>
<path id="Vector_17" d="M36.0996 65.2891C36.2464 65.2708 36.3931 65.2344 36.5215 65.1797H36.3197C36.3197 65.1797 36.2464 65.2344 36.0996 65.2891Z" fill="black"/>
<path id="Vector_18" d="M36.3383 65.1615C36.3383 65.1615 36.2833 65.125 36.1182 65.125C36.1915 65.125 36.2649 65.1615 36.3383 65.1615Z" fill="black"/>
<path id="Vector_19" d="M37.1265 64.7972C36.833 64.7425 36.8881 64.8883 36.4111 64.9612C36.4111 65.107 36.8881 64.8518 37.1265 64.7972Z" fill="black"/>
<path id="Vector_20" d="M35.1639 65.1069L34.9988 64.9976L34.9805 65.1616L35.1639 65.1069Z" fill="black"/>
<path id="Vector_21" d="M31.4582 65.344C31.9535 65.344 31.2197 65.1253 31.2197 65.0342L31.4582 65.344Z" fill="black"/>
<path id="Vector_22" d="M34.6318 64.7969L34.7786 64.9245L34.852 64.8516C34.962 64.8516 35.1454 64.8334 35.2555 64.8881C35.3289 64.724 34.852 64.8334 34.6318 64.7969Z" fill="black"/>
<path id="Vector_23" d="M32.8164 65.0158C32.6697 64.9611 32.5229 64.9064 32.3945 64.8335L32.8164 65.0158Z" fill="black"/>
<path id="Vector_24" d="M35.6041 64.2138C35.6041 64.2138 34.9805 64.0498 35.6775 64.0133C35.4207 64.0316 35.0355 64.1045 35.274 63.9404C34.8521 63.9769 35.274 64.0862 34.9805 64.1774C35.2189 64.0862 35.4024 64.1956 35.6225 64.2138H35.6041Z" fill="black"/>
<path id="Vector_25" d="M34.5401 64.1775C34.3383 64.1775 34.0815 64.0863 33.9531 64.141C34.1732 64.141 34.3567 64.3051 34.5401 64.1775Z" fill="black"/>
<path id="Vector_26" d="M34.3564 63.8309L34.6316 63.9403L34.4482 63.7944L34.3564 63.8309Z" fill="black"/>
<path id="Vector_27" d="M33.1643 63.7215C33.4028 63.758 33.6412 63.7944 33.898 63.7762C33.6779 63.7397 33.4761 63.6851 33.256 63.6304C32.8525 63.6486 33.0359 63.7397 33.3111 63.8309C33.2377 63.7944 33.1827 63.758 33.1643 63.7215Z" fill="black"/>
<path id="Vector_28" d="M33.9165 64.05L34.1366 64.0135C34.1366 64.0135 33.8064 63.9588 33.5312 63.9224C33.7147 63.977 33.8981 64.0135 33.9165 64.0682V64.05Z" fill="black"/>
<path id="Vector_29" d="M33.5314 63.904L33.293 63.8311C33.293 63.8311 33.4397 63.8857 33.5314 63.904Z" fill="black"/>
<path id="Vector_30" d="M28.3037 62.5371C28.4871 62.7012 28.6522 62.9016 28.8723 63.0475C28.6706 62.847 28.5055 62.6647 28.3037 62.5371Z" fill="black"/>
<path id="Vector_31" d="M32.6875 63.4482H32.5958L32.5225 63.5576C32.7242 63.5758 32.6692 63.4665 32.6875 63.4482Z" fill="black"/>
<path id="Vector_32" d="M31.9535 62.9562C31.8251 62.8104 31.4399 62.7921 31.3115 62.7192C31.4583 62.9197 31.7151 62.9926 31.9719 63.1202C31.7151 62.9926 31.9352 63.0109 31.9719 62.9562H31.9535Z" fill="black"/>
<path id="Vector_33" d="M31.2754 62.4639C31.4405 62.555 31.6056 62.6461 31.789 62.7008C31.7523 62.5186 31.4955 62.5732 31.2754 62.4639Z" fill="black"/>
<path id="Vector_34" d="M30.4495 62.0631C30.4495 62.0631 30.4128 62.0996 30.3027 62.0631C30.3394 62.1543 30.5229 62.2454 30.6329 62.3183L30.4495 62.0449V62.0631Z" fill="black"/>
<path id="Vector_35" d="M35.2923 64.6875C35.0905 64.6875 34.9071 64.724 34.7236 64.7422C35.0171 64.7604 35.2923 64.7969 35.5858 64.7786C35.494 64.7422 35.4023 64.724 35.3106 64.7057L35.2923 64.6875Z" fill="black"/>
<path id="Vector_36" d="M43.748 51.8196C43.1244 50.9447 41.9688 49.4683 41.1433 48.8121C39.896 47.6092 37.8232 46.8072 35.8972 46.6249V46.5702C34.4114 46.2057 32.3936 46.5338 30.8528 47.1717L30.9628 47.2082C31.238 47.117 31.5682 47.0077 31.4031 47.1717C31.0546 47.2629 30.5593 47.3904 30.4492 47.3904L30.2475 47.6092C30.009 47.6638 30.0457 47.3175 29.5137 47.7185C29.312 48.1195 28.1563 48.3929 28.3398 48.6846C28.0096 48.6846 27.6427 49.2496 27.4226 49.4683L27.6794 49.4136C27.1475 49.8329 26.5605 50.1792 26.4137 50.489C25.9551 51.1999 25.4049 52.2388 25.2214 53.1319C24.983 53.2778 25.5516 52.2388 25.1664 52.731C24.7995 54.4261 24.1942 56.9049 25.0196 58.9464C25.0196 58.8917 24.983 58.6912 25.0563 58.8188C25.0563 59.2562 25.3498 59.7301 25.5883 60.3863C25.6433 60.2587 25.2948 59.4385 25.2214 59.1286C25.5883 59.2198 25.1847 59.3291 25.625 60.0764C25.625 60.0218 25.5883 59.8942 25.625 59.8942C26.0469 60.6233 25.5883 60.2769 25.9551 60.8237C25.9185 60.7144 25.8818 60.5868 25.8634 60.4592C26.1569 61.0242 25.9918 60.6233 26.4137 61.1883C26.212 61.1883 26.3037 61.5528 26.4137 61.7169C26.5238 61.7351 26.8906 62.3366 26.964 62.1543C27.3125 63.0292 27.7711 62.9016 28.193 63.6672C28.5599 63.7948 28.0096 63.3391 28.138 63.2479C28.8534 63.7036 28.248 63.5578 28.4498 63.7765C28.6883 63.9041 29.6421 64.4692 30.0457 64.779L30.1191 64.6879C30.706 65.1618 31.8983 65.5263 32.1368 65.745C32.4853 65.6539 31.8983 65.5263 31.4031 65.3623C31.3297 65.2529 31.8617 65.344 32.0818 65.4352C31.9534 65.3987 31.935 65.3258 31.7883 65.344C31.7883 65.2347 32.1185 65.3805 32.2652 65.3987C33.1273 65.6175 31.9167 65.3987 32.2652 65.5445C32.5954 65.581 33.4208 65.7086 33.0907 65.5263C33.7877 65.6175 33.3475 65.7268 33.7143 65.8179C33.164 65.6904 32.9439 65.8544 32.5587 65.6539C32.412 65.6904 32.4486 65.745 32.6137 65.8179C33.2007 65.9091 34.3563 66.0731 34.338 65.9091L34.6315 66.0002L34.925 65.8726H35.0534C34.7599 65.745 34.2096 65.6904 33.9895 65.5081C33.9528 65.417 34.3196 65.5081 34.5031 65.4716L34.6498 65.5992C35.1451 65.5992 35.0167 65.3623 35.6954 65.3076C35.2918 65.5445 36.4841 65.4716 36.9794 65.4352C37.4013 64.9977 36.851 65.2347 37.1995 64.8519C37.6764 64.7061 38.3368 64.3416 38.9054 64.1411C37.6214 64.779 39.6392 64.0317 38.6486 64.6332C38.8871 64.5603 39.0522 64.4327 39.2723 64.2869C39.5658 64.3962 39.0522 64.6514 39.4374 64.6332V64.4327C39.8226 64.3598 40.1161 64.3962 40.7214 63.9952C40.7581 63.8859 40.9599 63.576 41.2167 63.3938C41.3634 63.3938 41.4735 63.4302 41.9321 62.9381C42.5741 61.7898 40.7398 63.5943 40.3546 63.4667C39.6392 63.977 39.1256 64.0135 38.6119 64.0499C38.08 64.0499 37.5297 64.1046 36.5759 64.2687C36.3007 64.4327 36.4108 64.4692 35.8421 64.615C35.4753 64.9613 36.7593 64.6879 37.1628 64.7061C36.9978 64.8155 36.8143 64.8884 36.6309 64.8884L36.8693 65.016C35.8972 65.344 36.2824 64.8701 35.4386 65.0889L35.622 65.016C35.4569 65.0524 35.2918 65.1071 35.1267 65.1253H35.2368C34.925 65.18 34.8333 65.3076 34.3563 65.2711L34.7415 65.1436C34.4847 65.2347 34.4114 65.0524 34.0262 65.0706C34.2279 65.016 34.3013 64.9431 34.4297 64.9248C33.8794 64.8337 33.4025 64.7972 32.9622 64.6879C31.3664 64.5421 29.9173 63.7583 28.8534 62.7011C28.8901 62.774 28.9451 62.8287 28.9634 62.8469C28.7066 62.7194 28.6516 62.5371 28.5782 62.373C28.3948 62.1725 28.2114 61.9538 28.0646 61.7169C27.6427 61.2977 27.3125 60.9149 26.964 60.2769C27.0191 60.204 27.0741 60.2223 27.1291 60.2952C26.9824 60.0764 26.8723 59.9671 26.9273 60.2223C26.6889 59.8395 26.6889 59.6025 26.5605 59.2927L27.0191 59.9124C26.9457 59.6025 26.7622 59.6937 26.6522 59.2745C26.3587 58.6547 26.6155 59.6025 26.4871 59.5843C26.4504 59.4932 26.4137 59.4203 26.3954 59.3291C26.377 59.4385 26.3587 59.5661 26.3587 59.6754C26.1569 59.074 26.212 58.7276 26.2303 58.4542C26.2303 58.6001 26.2853 58.7459 26.3037 58.8917C26.5421 58.9828 26.1019 58.1991 26.1936 57.9621L26.2303 58.0168C26.0652 57.3788 26.1569 58.1808 26.0285 57.7434L26.0835 56.9232L25.9735 57.069C25.8267 56.6133 25.9918 55.6837 26.1569 54.9546C26.2486 54.5354 26.267 53.9522 26.4137 53.4054C26.3404 53.4965 26.2486 53.697 26.2303 53.6241C26.3404 53.296 26.5972 52.6216 26.6338 52.9132C26.6338 52.7492 26.6889 52.6034 26.7256 52.4393C26.7989 52.2935 26.8723 52.1659 26.9457 52.093L26.8356 52.1841C26.8906 52.0019 27.0007 51.8378 27.0741 51.6556C27.0924 51.6738 27.2575 51.528 27.1291 51.7832C27.5693 51.3275 27.8262 50.5073 28.5966 49.8693L28.4315 50.1245C28.7983 49.6506 28.9818 49.7782 29.4404 49.3407H29.2569C29.5871 48.9944 30.4309 48.6846 30.3392 48.8304C30.2658 48.557 30.6143 48.7757 30.7427 48.4476L31.0912 48.557C31.3297 48.3747 31.5865 48.2471 31.3664 48.2107C31.8433 48.1378 32.2102 48.0831 32.4303 47.8643C32.522 47.8097 32.9806 47.7732 32.7605 47.7003C33.8427 47.5363 33.3475 47.8461 34.3563 47.7732L34.393 47.5909C35.1818 47.6638 35.9705 47.5909 36.5942 47.6638L36.6309 47.8279C37.0344 47.9008 36.5942 47.6456 37.2362 47.8279C37.3096 47.8826 37.3646 47.9555 37.3463 47.9919C37.9516 48.1742 38.667 48.6299 39.4191 49.1767C39.4007 49.1949 39.2906 49.1402 39.2173 49.122C39.5475 49.3407 40.0977 49.687 40.4646 49.9787C41.0883 50.9083 41.767 52.2388 42.2439 53.5147C42.9226 54.4078 43.3995 55.1187 43.8581 55.1916C44.0782 54.8817 44.2983 53.5329 43.748 51.8561V51.8196Z" fill="black"/>
</g>
<g id="Group_4">
<path id="Vector_37" d="M104.061 63.5031C104.263 63.4849 104.373 63.4667 104.556 63.4667C105.107 63.248 105.969 62.5371 106.299 62.4824C106.354 62.5371 105.914 63.3938 105.767 63.4667C104.41 64.4509 103.529 64.4509 101.915 64.8702C101.768 64.8702 101.346 65.2347 100.869 65.4534C100.869 65.4534 101.035 65.4534 101.2 65.4534C100.539 65.818 99.402 65.818 98.5399 65.9091C98.7233 65.9638 98.7233 65.9638 98.8334 66.0002C98.118 65.7633 96.6506 65.7268 95.605 65.3805C95.4032 65.2712 95.2748 65.18 95.1464 65.1071C94.2109 64.7973 93.4038 64.3051 92.3949 63.6854C91.5511 63.1204 90.6707 61.9721 89.992 60.8602C88.873 58.8188 88.873 56.3035 88.873 54.2438C88.873 53.8975 89.0198 53.2413 89.3867 52.7674C89.3683 52.0748 89.7352 51.1817 90.2855 50.3432C90.8358 49.4866 91.6612 48.7757 92.3949 48.2471C92.9269 47.8461 93.4222 47.7914 93.7156 47.7732C95.073 46.7525 96.9257 46.0963 98.7784 46.1328C101.108 46.1328 103.548 46.9895 105.345 48.8668C105.602 49.1038 106.097 49.5777 106.391 49.7964L106.574 50.2339C107.473 51.4004 108.225 52.6398 108.427 53.9522C108.629 55.7567 107.95 55.9389 107.546 56.1212C107.161 54.3714 106.134 53.0773 104.997 51.0541C104.685 50.4708 103.841 49.8693 103.126 49.4683C102.502 49.1949 101.933 48.5934 101.255 48.6846C100.925 48.3565 100.227 48.0284 99.402 47.8279C98.5582 47.6639 97.6044 47.7003 96.834 47.9373C96.7056 47.9373 96.834 47.8644 96.5955 47.8826C94.5227 48.6846 92.3399 50.1063 91.276 52.3847C90.7991 53.4965 90.2488 54.9364 90.4872 56.4493C90.5056 56.5951 90.4506 57.233 90.5606 57.634C90.6156 57.7616 90.689 57.8892 90.7624 58.0168C90.9825 59.0557 91.6429 60.0947 91.9547 60.8055C92.3766 61.6258 93.037 62.1726 93.6239 62.7194C94.5044 63.6125 96.4488 64.1229 97.4393 64.5238C97.5677 64.5968 98.008 64.5785 98.2831 64.5968C98.4115 64.6514 98.5399 64.6879 98.6867 64.7243C98.9801 64.7243 99.1452 64.5238 99.4204 64.5056C101.291 64.4327 103.272 63.2844 104.263 63.0292C104.153 63.1568 103.694 63.576 104.006 63.5396L104.061 63.5031Z" fill="black"/>
<path id="Vector_38" d="M108.757 56.7226C108.83 56.8137 108.867 56.4856 108.867 56.2669C108.775 56.4492 108.684 56.5585 108.592 56.9231L108.647 56.3398C108.482 56.03 108.574 56.9231 108.519 56.5585C108.555 56.2305 108.592 55.9753 108.684 56.1393C108.629 56.194 108.665 56.3398 108.629 56.5221C108.739 56.5585 108.812 56.2487 108.904 56.0664L108.849 57.0142L108.775 56.7044L108.757 56.7226Z" fill="black"/>
<path id="Vector_39" d="M108.206 58.7457L108.279 58.5634C108.224 58.4541 108.133 58.6363 108.041 58.8004C108.353 58.0349 108.261 58.8551 108.5 58.3994C108.445 58.3629 108.243 58.8551 108.206 58.7457Z" fill="black"/>
<path id="Vector_40" d="M108.115 57.634C108.317 57.3242 108.244 56.9414 108.427 56.8867C108.354 57.1966 108.225 57.4882 108.134 57.7798V57.634H108.115Z" fill="black"/>
<path id="Vector_41" d="M105.437 62.9562C105.271 63.1749 105.363 63.0656 105.015 63.3572L105.492 62.938L105.437 62.9744V62.9562Z" fill="black"/>
<path id="Vector_42" d="M93.5684 64.1772C93.8252 64.4507 94.0269 64.6876 94.5406 64.9428C93.9903 64.7058 93.6417 64.2684 93.5684 64.1772Z" fill="black"/>
<path id="Vector_43" d="M90.4141 59.8212C90.4141 59.8212 90.4141 59.6389 90.5425 59.8577C90.5608 59.967 90.359 59.8941 90.5975 60.204L90.4141 59.8394V59.8212Z" fill="black"/>
<path id="Vector_44" d="M102.814 65.2344H102.759C102.759 65.2344 102.704 65.2708 102.686 65.2891L102.814 65.2344Z" fill="black"/>
<path id="Vector_45" d="M101.934 65.4896L102.576 65.3802C102.576 65.3802 102.649 65.3073 102.686 65.2891C102.282 65.4349 102.374 65.2708 101.934 65.4896Z" fill="black"/>
<path id="Vector_46" d="M102.686 65.1978H102.777C103.236 64.9062 103.548 64.9973 104.19 64.5234C103.639 64.7422 103.107 64.9973 102.686 65.1978Z" fill="black"/>
<path id="Vector_47" d="M103.199 64.8152C103.199 64.8152 103.309 64.7058 103.364 64.6511C103.529 64.56 103.548 64.6329 103.566 64.6511L103.896 64.4142C103.969 64.2501 102.906 64.8334 102.594 64.9245L103.217 64.7969L103.199 64.8152Z" fill="black"/>
<path id="Vector_48" d="M104.446 62.3182L104.556 62.5005C104.887 62.1724 105.033 62.1906 105.382 61.7896C105.088 61.7714 104.85 62.2088 104.446 62.3182Z" fill="black"/>
<path id="Vector_49" d="M101.163 65.5078C101.677 65.3984 102.025 65.2344 102.154 65.0703C101.842 65.1614 101.548 65.2708 101.236 65.3255C101.622 65.3255 101.236 65.4166 101.181 65.5078H101.163Z" fill="black"/>
<path id="Vector_50" d="M100.301 65.2891C100.448 65.2708 100.594 65.2344 100.723 65.1797H100.521C100.521 65.1797 100.448 65.2344 100.301 65.2891Z" fill="black"/>
<path id="Vector_51" d="M100.539 65.1615C100.539 65.1615 100.484 65.125 100.319 65.125C100.393 65.125 100.466 65.1615 100.539 65.1615Z" fill="black"/>
<path id="Vector_52" d="M101.328 64.7972C101.034 64.7425 101.089 64.8883 100.612 64.9612C100.612 65.107 101.089 64.8518 101.328 64.7972Z" fill="black"/>
<path id="Vector_53" d="M99.3651 65.1069L99.2 64.9976L99.1816 65.1616L99.3651 65.1069Z" fill="black"/>
<path id="Vector_54" d="M95.6594 65.344C96.1546 65.344 95.4209 65.1253 95.4209 65.0342L95.6594 65.344Z" fill="black"/>
<path id="Vector_55" d="M98.833 64.7969L98.9797 64.9245L99.0531 64.8516C99.1632 64.8516 99.3466 64.8334 99.4567 64.8881C99.53 64.724 99.0531 64.8334 98.833 64.7969Z" fill="black"/>
<path id="Vector_56" d="M97.0176 65.0158C96.8709 64.9611 96.7241 64.9064 96.5957 64.8335L97.0176 65.0158Z" fill="black"/>
<path id="Vector_57" d="M99.8053 64.2138C99.8053 64.2138 99.1816 64.0498 99.8787 64.0133C99.6219 64.0316 99.2367 64.1045 99.4751 63.9404C99.0532 63.9769 99.4751 64.0862 99.1816 64.1774C99.4201 64.0862 99.6035 64.1956 99.8236 64.2138H99.8053Z" fill="black"/>
<path id="Vector_58" d="M98.7413 64.1775C98.5395 64.1775 98.2827 64.0863 98.1543 64.141C98.3744 64.141 98.5579 64.3051 98.7413 64.1775Z" fill="black"/>
<path id="Vector_59" d="M98.5576 63.8309L98.8328 63.9403L98.6493 63.7944L98.5576 63.8309Z" fill="black"/>
<path id="Vector_60" d="M97.3655 63.7215C97.6039 63.758 97.8424 63.7944 98.0992 63.7762C97.8791 63.7397 97.6773 63.6851 97.4572 63.6304C97.0537 63.6486 97.2371 63.7397 97.5122 63.8309C97.4389 63.7944 97.3838 63.758 97.3655 63.7215Z" fill="black"/>
<path id="Vector_61" d="M98.1176 64.05L98.3378 64.0135C98.3378 64.0135 98.0076 63.9588 97.7324 63.9224C97.9159 63.977 98.0993 64.0135 98.1176 64.0682V64.05Z" fill="black"/>
<path id="Vector_62" d="M97.7326 63.904L97.4941 63.8311C97.4941 63.8311 97.6409 63.8857 97.7326 63.904Z" fill="black"/>
<path id="Vector_63" d="M92.5049 62.5371C92.6883 62.7012 92.8534 62.9016 93.0735 63.0475C92.8717 62.847 92.7067 62.6647 92.5049 62.5371Z" fill="black"/>
<path id="Vector_64" d="M96.8887 63.4482H96.797L96.7236 63.5576C96.9254 63.5758 96.8704 63.4665 96.8887 63.4482Z" fill="black"/>
<path id="Vector_65" d="M96.1547 62.9562C96.0263 62.8104 95.6411 62.7921 95.5127 62.7192C95.6594 62.9197 95.9162 62.9926 96.1731 63.1202C95.9162 62.9926 96.1364 63.0109 96.1731 62.9562H96.1547Z" fill="black"/>
<path id="Vector_66" d="M95.4766 62.4639C95.6417 62.555 95.8067 62.6461 95.9902 62.7008C95.9535 62.5186 95.6967 62.5732 95.4766 62.4639Z" fill="black"/>
<path id="Vector_67" d="M94.6506 62.0631C94.6506 62.0631 94.614 62.0996 94.5039 62.0631C94.5406 62.1543 94.724 62.2454 94.8341 62.3183L94.6506 62.0449V62.0631Z" fill="black"/>
<path id="Vector_68" d="M99.4934 64.6875C99.2917 64.6875 99.1082 64.724 98.9248 64.7422C99.2183 64.7604 99.4934 64.7969 99.7869 64.7786C99.6952 64.7422 99.6035 64.724 99.5118 64.7057L99.4934 64.6875Z" fill="black"/>
<path id="Vector_69" d="M107.95 51.8196C107.327 50.9447 106.171 49.4683 105.345 48.8121C104.098 47.6092 102.025 46.8072 100.099 46.6249V46.5702C98.6135 46.2057 96.5958 46.5338 95.0549 47.1717L95.165 47.2082C95.4401 47.117 95.7703 47.0077 95.6052 47.1717C95.2567 47.2629 94.7614 47.3904 94.6514 47.3904L94.4496 47.6092C94.2111 47.6638 94.2478 47.3175 93.7159 47.7185C93.5141 48.1195 92.3585 48.3929 92.5419 48.6846C92.2117 48.6846 91.8449 49.2496 91.6248 49.4683L91.8816 49.4136C91.3496 49.8329 90.7626 50.1792 90.6159 50.489C90.1573 51.1999 89.607 52.2388 89.4236 53.1319C89.1851 53.2778 89.7537 52.2388 89.3685 52.731C89.0017 54.4261 88.3963 56.9049 89.2218 58.9464C89.2218 58.8917 89.1851 58.6912 89.2585 58.8188C89.2585 59.2562 89.552 59.7301 89.7904 60.3863C89.8455 60.2587 89.4969 59.4385 89.4236 59.1286C89.7904 59.2198 89.3869 59.3291 89.8271 60.0764C89.8271 60.0218 89.7904 59.8942 89.8271 59.8942C90.249 60.6233 89.7904 60.2769 90.1573 60.8237C90.1206 60.7144 90.0839 60.5868 90.0656 60.4592C90.3591 61.0242 90.194 60.6233 90.6159 61.1883C90.4141 61.1883 90.5058 61.5528 90.6159 61.7169C90.7259 61.7351 91.0928 62.3366 91.1662 62.1543C91.5147 63.0292 91.9733 62.9016 92.3952 63.6672C92.762 63.7948 92.2117 63.3391 92.3401 63.2479C93.0555 63.7036 92.4502 63.5578 92.652 63.7765C92.8904 63.9041 93.8443 64.4692 94.2478 64.779L94.3212 64.6879C94.9082 65.1618 96.1005 65.5263 96.339 65.745C96.6875 65.6539 96.1005 65.5263 95.6052 65.3623C95.5318 65.2529 96.0638 65.344 96.2839 65.4352C96.1555 65.3987 96.1372 65.3258 95.9904 65.344C95.9904 65.2347 96.3206 65.3805 96.4674 65.3987C97.3295 65.6175 96.1188 65.3987 96.4674 65.5445C96.7975 65.581 97.623 65.7086 97.2928 65.5263C97.9898 65.6175 97.5496 65.7268 97.9165 65.8179C97.3662 65.6904 97.1461 65.8544 96.7608 65.6539C96.6141 65.6904 96.6508 65.745 96.8159 65.8179C97.4029 65.9091 98.5585 66.0731 98.5401 65.9091L98.8336 66.0002L99.1271 65.8726H99.2555C98.962 65.745 98.4117 65.6904 98.1916 65.5081C98.1549 65.417 98.5218 65.5081 98.7052 65.4716L98.852 65.5992C99.3472 65.5992 99.2188 65.3623 99.8975 65.3076C99.494 65.5445 100.686 65.4716 101.182 65.4352C101.603 64.9977 101.053 65.2347 101.402 64.8519C101.879 64.7061 102.539 64.3416 103.108 64.1411C101.824 64.779 103.841 64.0317 102.851 64.6332C103.089 64.5603 103.254 64.4327 103.474 64.2869C103.768 64.3962 103.254 64.6514 103.64 64.6332V64.4327C104.025 64.3598 104.318 64.3962 104.924 63.9952C104.96 63.8859 105.162 63.576 105.419 63.3938C105.566 63.3938 105.676 63.4302 106.134 62.9381C106.776 61.7898 104.942 63.5943 104.557 63.4667C103.841 63.977 103.328 64.0135 102.814 64.0499C102.282 64.0499 101.732 64.1046 100.778 64.2687C100.503 64.4327 100.613 64.4692 100.044 64.615C99.6774 64.9613 100.961 64.6879 101.365 64.7061C101.2 64.8155 101.016 64.8884 100.833 64.8884L101.071 65.016C100.099 65.344 100.485 64.8701 99.6407 65.0889L99.8242 65.016C99.6591 65.0524 99.494 65.1071 99.3289 65.1253H99.439C99.1271 65.18 99.0354 65.3076 98.5585 65.2711L98.9437 65.1436C98.6869 65.2347 98.6135 65.0524 98.2283 65.0706C98.4301 65.016 98.5035 64.9431 98.6319 64.9248C98.0816 64.8337 97.6046 64.7972 97.1644 64.6879C95.5685 64.5421 94.1194 63.7583 93.0555 62.7011C93.0922 62.774 93.1472 62.8287 93.1656 62.8469C92.9088 62.7194 92.8537 62.5371 92.7804 62.373C92.5969 62.1725 92.4135 61.9538 92.2668 61.7169C91.8449 61.2977 91.5147 60.9149 91.1662 60.2769C91.2212 60.204 91.2762 60.2223 91.3313 60.2952C91.1845 60.0764 91.0745 59.9671 91.1295 60.2223C90.891 59.8395 90.891 59.6025 90.7626 59.2927L91.2212 59.9124C91.1478 59.6025 90.9644 59.6937 90.8543 59.2745C90.5608 58.6547 90.8176 59.6025 90.6892 59.5843C90.6526 59.4932 90.6159 59.4203 90.5975 59.3291C90.5792 59.4385 90.5608 59.5661 90.5608 59.6754C90.3591 59.074 90.4141 58.7276 90.4324 58.4542C90.4324 58.6001 90.4875 58.7459 90.5058 58.8917C90.7443 58.9828 90.304 58.1991 90.3958 57.9621L90.4324 58.0168C90.2674 57.3788 90.3591 58.1808 90.2307 57.7434L90.2857 56.9232L90.1756 57.069C90.0289 56.6133 90.194 55.6837 90.3591 54.9546C90.4508 54.5354 90.4691 53.9522 90.6159 53.4054C90.5425 53.4965 90.4508 53.697 90.4324 53.6241C90.5425 53.296 90.7993 52.6216 90.836 52.9132C90.836 52.7492 90.891 52.6034 90.9277 52.4393C91.0011 52.2935 91.0745 52.1659 91.1478 52.093L91.0378 52.1841C91.0928 52.0019 91.2029 51.8378 91.2762 51.6556C91.2946 51.6738 91.4597 51.528 91.3313 51.7832C91.7715 51.3275 92.0283 50.5073 92.7987 49.8693L92.6336 50.1245C93.0005 49.6506 93.1839 49.7782 93.6425 49.3407H93.4591C93.7892 48.9944 94.633 48.6846 94.5413 48.8304C94.4679 48.557 94.8165 48.7757 94.9449 48.4476L95.2934 48.557C95.5319 48.3747 95.7887 48.2471 95.5685 48.2107C96.0455 48.1378 96.4123 48.0831 96.6324 47.8643C96.7242 47.8097 97.1827 47.7732 96.9626 47.7003C98.0449 47.5363 97.5496 47.8461 98.5585 47.7732L98.5952 47.5909C99.3839 47.6638 100.173 47.5909 100.796 47.6638L100.833 47.8279C101.237 47.9008 100.796 47.6456 101.438 47.8279C101.512 47.8826 101.567 47.9555 101.548 47.9919C102.154 48.1742 102.869 48.6299 103.621 49.1767C103.603 49.1949 103.493 49.1402 103.419 49.122C103.75 49.3407 104.3 49.687 104.667 49.9787C105.29 50.9083 105.969 52.2388 106.446 53.5147C107.125 54.4078 107.602 55.1187 108.06 55.1916C108.28 54.8817 108.5 53.5329 107.95 51.8561V51.8196Z" fill="black"/>
</g>
<g id="Group_5">
<path id="Vector_70" d="M19.719 0.145619C19.719 0.291435 18.3982 0.291435 16.087 0.820018C15.9036 0.856472 15.7018 0.92938 15.5 0.984061C15.2982 1.03874 15.0781 1.09342 14.8763 1.16633C14.6562 1.23924 14.4361 1.31215 14.216 1.40328C13.9959 1.49442 13.7574 1.56733 13.519 1.64023C13.2438 1.64023 13.042 1.8225 12.8219 1.96832C12.6018 2.11414 12.3817 2.27818 12.0698 2.27818C11.9414 2.31463 11.7947 2.36931 11.6663 2.42399C11.5379 2.47868 11.4095 2.55158 11.2811 2.62449C11.1527 2.6974 11.0243 2.77031 10.8959 2.86144C10.7675 2.95258 10.6574 3.02549 10.529 3.11662C10.4006 3.20776 10.2722 3.28066 10.1438 3.35357C10.0154 3.42648 9.86866 3.51762 9.74025 3.59052C9.46511 3.73634 9.2083 3.93684 8.96984 4.17379C8.78641 4.48365 8.49292 4.62946 8.16274 4.77528C7.85091 4.92109 7.53907 5.12159 7.41067 5.48613C6.95209 6.01472 6.42014 6.50684 5.92487 7.05365C5.24617 7.47288 4.97102 8.22018 4.56747 8.89458C3.90712 9.40494 3.57694 10.1887 3.39351 10.9907C2.69647 11.574 2.40298 12.4124 2.47635 13.342C2.23789 14.1622 1.85268 14.9824 1.87102 15.8938C1.76096 16.7869 1.72428 17.6982 1.65091 18.6278C1.88937 19.5574 1.92605 20.4687 1.85268 21.453C2.25623 22.3643 2.36629 23.3121 2.53138 24.2964C2.56807 24.5334 2.65978 24.7703 2.7515 25.0073C2.84321 25.2442 2.97162 25.4629 3.08167 25.6817C3.19173 25.9004 3.33848 26.1191 3.4302 26.3561C3.54025 26.593 3.63197 26.8117 3.70534 27.0669C4.16392 27.9783 4.76925 28.8167 5.37457 29.6734C5.90653 30.5665 6.56688 31.4596 7.52073 32.0064C8.36452 32.6808 9.26333 33.2641 10.1071 33.9567C11.1894 34.303 12.0698 34.8863 13.0604 35.4513C14.1059 35.8159 15.1515 36.3262 16.3071 36.3809C17.4261 36.6361 18.5817 36.5814 19.719 36.709C20.8746 36.8001 22.0485 36.7637 23.1308 36.3809C23.6627 36.1804 24.213 36.0711 24.7633 35.9435C25.0385 35.8888 25.3136 35.8159 25.5888 35.743C25.8639 35.6701 26.1207 35.5607 26.3775 35.4513C26.5243 35.4331 26.6527 35.4149 26.7994 35.3602C26.9278 35.3237 27.0562 35.2691 27.1846 35.2144C27.313 35.1597 27.4414 35.105 27.5698 35.0321C27.6982 34.9592 27.8083 34.8863 27.9367 34.8134L28.2852 34.5947L28.6337 34.3577C28.8722 34.2119 29.0923 34.0661 29.3491 33.9385C30.2479 33.337 31.2385 32.8084 31.9355 31.9882C32.6876 31.2227 33.3663 30.4207 34.0817 29.6551C34.2284 29.1083 34.5403 28.7073 34.8704 28.3246C35.0355 28.1241 35.2006 27.9236 35.3657 27.7231C35.4391 27.6137 35.5124 27.5044 35.5858 27.4132C35.6408 27.3039 35.7142 27.1945 35.7509 27.0669C36.3746 26.2285 36.5947 25.226 36.9249 24.2964C37.0349 23.8043 37.2184 23.3486 37.3468 22.8929C37.3834 22.7836 37.4201 22.656 37.4568 22.5466C37.4935 22.419 37.5118 22.3097 37.5302 22.1821C37.5669 21.9451 37.6036 21.7082 37.5852 21.453C37.6219 21.216 37.6586 20.9791 37.6769 20.7421C37.6769 20.5052 37.6769 20.2682 37.6953 20.0313C37.6953 19.7943 37.6953 19.5574 37.7136 19.3204C37.7136 19.0835 37.7503 18.8465 37.787 18.6278C37.732 18.3909 37.7136 18.1721 37.7136 17.9352C37.7136 17.6982 37.7136 17.4795 37.7136 17.2426C37.7136 17.0056 37.7136 16.7869 37.7136 16.5499C37.7136 16.3312 37.6586 16.0943 37.5852 15.8938C37.4568 15.0006 37.2 14.1622 36.9799 13.342C36.9799 13.105 36.9616 12.9045 36.9065 12.6858C36.8515 12.4853 36.7598 12.2848 36.6681 12.0843C36.5763 11.8838 36.4663 11.7015 36.3562 11.5193C36.2462 11.337 36.1545 11.1547 36.0444 10.9725C35.8793 10.6079 35.6408 10.2616 35.4207 9.93352C35.2006 9.58721 34.9805 9.27735 34.8704 8.87636C34.4485 8.22018 34.1 7.50933 33.513 7.03543C33.2562 6.76202 33.0911 6.41571 32.8894 6.10585C32.6876 5.79599 32.4308 5.54081 32.0272 5.44968C31.7337 5.24918 31.532 4.95755 31.3118 4.70237C31.0734 4.44719 30.8349 4.21024 30.4864 4.13733C30.1379 4.06443 29.8994 3.86393 29.6426 3.66343C29.5142 3.55407 29.4042 3.44471 29.2941 3.35357C29.184 3.24421 29.0556 3.15308 28.9272 3.08017C28.7988 3.00726 28.6704 2.91612 28.542 2.84322C28.4136 2.77031 28.2852 2.6974 28.1568 2.62449C28.0284 2.55158 27.9 2.47868 27.7716 2.42399C27.6432 2.35109 27.5148 2.29641 27.3864 2.24172C26.2675 1.69491 25.2036 1.31215 24.2497 1.03874C24.0113 0.965834 23.7911 0.911153 23.571 0.856472C23.3509 0.801791 23.1308 0.765337 22.929 0.710656C22.5255 0.601294 22.1403 0.56484 21.8101 0.491932C21.1314 0.38257 20.6178 0.309662 20.2692 0.273208C19.9207 0.218527 19.7373 0.182073 19.7373 0.127392C19.7373 0.0727105 19.9574 0.0362564 20.416 -0.000197574C20.6361 -0.0184246 20.9113 -0.0184246 21.2414 -0.0184246C21.4065 -0.0184246 21.59 -0.0184246 21.7734 -0.0184246C21.9568 -0.0184246 22.1586 -0.000197574 22.3787 0.0180294C23.2408 0.0909375 24.2864 0.236754 25.4971 0.56484C26.7077 0.892926 28.0468 1.40328 29.4592 2.16882C29.6059 2.24172 29.7527 2.31463 29.8994 2.38754C30.0462 2.46045 30.1929 2.53336 30.358 2.60626C30.6698 2.75208 30.945 2.95258 31.1651 3.22598C31.4586 3.42648 31.7521 3.60875 32.0456 3.80925C32.3391 4.00974 32.6326 4.2467 32.871 4.53833C33.6231 4.82996 34.0083 5.55904 34.5219 6.16053C35.0722 6.7438 35.4758 7.45465 36.0444 8.0926C36.3379 8.40245 36.558 8.76699 36.7598 9.16799C36.9616 9.55076 37.1266 9.95175 37.3834 10.3345C37.6036 11.2094 38.0071 12.0114 38.4474 12.8498C38.484 13.0868 38.5207 13.3237 38.5758 13.5425C38.6308 13.7612 38.7225 13.9981 38.7775 14.2169C38.8509 14.4538 38.9243 14.6725 38.9977 14.9095C39.0527 15.1464 39.1077 15.3834 39.1627 15.6203C39.0343 16.6228 39.3462 17.5706 39.4562 18.5731C39.5663 19.5938 39.3829 20.6145 39.2911 21.6535C39.0894 22.6742 38.9793 23.7496 38.5941 24.7703C38.3923 25.8457 38.0071 26.9029 37.3468 27.8324C36.9065 28.8714 36.2462 29.801 35.5491 30.7123C34.9438 31.6966 34.045 32.4803 33.2012 33.3006C32.7793 33.7198 32.284 34.0479 31.7888 34.3759C31.5503 34.54 31.2935 34.704 31.055 34.8863C30.8166 35.0686 30.5781 35.2508 30.3763 35.4878C29.3675 36.1622 28.2485 36.6361 27.1113 37.1464C25.9556 37.5657 24.745 37.8755 23.5343 38.1854C22.2503 38.1307 21.0397 38.4223 19.7556 38.5499C18.4716 38.6411 17.2059 38.4588 15.9769 38.1854C14.7296 37.9849 13.5373 37.6021 12.4 37.1464C11.2077 36.7637 10.2172 36.0164 9.13493 35.4878C8.85978 35.342 8.60298 35.1962 8.36452 35.0139C8.12605 34.8316 7.88759 34.6493 7.66747 34.4489C7.20889 34.0661 6.787 33.6469 6.31008 33.3006C5.37457 32.5715 4.54913 31.7148 3.96215 30.7123C3.61363 30.2566 3.33848 29.7463 3.08167 29.2542C2.93493 29.0172 2.80653 28.762 2.65978 28.5251C2.58641 28.3975 2.51304 28.2881 2.42132 28.1788C2.34795 28.0694 2.25623 27.9418 2.16452 27.8324C2.01777 27.5955 1.87102 27.3585 1.72428 27.1216C1.57753 26.8846 1.43079 26.6477 1.30238 26.3925C1.17398 26.1373 1.06392 25.8822 0.990551 25.6088C0.917178 25.3353 0.898835 25.0619 0.898835 24.7703C0.69706 24.26 0.587 23.7314 0.513628 23.2028C0.495284 23.0752 0.476941 22.9294 0.458598 22.8018C0.458598 22.6742 0.421912 22.5466 0.403568 22.4008C0.366882 22.1456 0.293509 21.8904 0.220136 21.6353C0.256823 21.3619 0.275166 21.1067 0.256823 20.8515C0.256823 20.5963 0.220136 20.3411 0.18345 20.086C0.146764 19.8308 0.110077 19.5756 0.0917341 19.3204C0.0550477 19.0653 0.0367045 18.8101 0.0550477 18.5549C0.110077 17.5342 0.330196 16.5682 0.348539 15.6021C0.348539 15.3469 0.385225 15.11 0.421912 14.873C0.476941 14.6361 0.550314 14.3991 0.605344 14.1804C0.678716 13.9435 0.770432 13.7247 0.843805 13.506C0.917178 13.2873 0.990551 13.0503 1.04558 12.8316C1.08227 12.5947 1.15564 12.3759 1.22901 12.1572C1.32073 11.9385 1.43079 11.738 1.54085 11.5375C1.65091 11.337 1.76096 11.1365 1.87102 10.936C1.98108 10.7355 2.05446 10.535 2.10949 10.3163C2.53138 9.53253 2.91659 8.74877 3.44854 8.0926C3.46688 7.85564 3.5586 7.65515 3.66866 7.47288C3.77872 7.29061 3.90712 7.12656 4.05386 6.98075C4.34736 6.68911 4.69588 6.43394 4.97102 6.16053C5.52132 5.59549 5.8515 4.81173 6.62191 4.53833C6.80534 4.17379 7.08049 3.91861 7.37398 3.71811C7.68582 3.53584 8.01599 3.3718 8.32783 3.20776C8.63966 3.04371 8.89647 2.82499 9.17162 2.62449C9.30002 2.53336 9.44676 2.42399 9.57517 2.35109C9.72191 2.25995 9.86866 2.20527 10.0337 2.16882C10.1438 2.04123 10.2722 1.95009 10.419 1.85896C10.5657 1.78605 10.7124 1.73137 10.8592 1.67669C11.0059 1.62201 11.1527 1.58555 11.2994 1.53087C11.4462 1.47619 11.5746 1.42151 11.703 1.3486C12.29 1.23924 12.7669 0.911153 13.2621 0.765337C13.5006 0.655975 13.7391 0.56484 13.9775 0.491932C14.216 0.437251 14.4545 0.38257 14.6929 0.364343C14.913 0.309662 15.1515 0.273208 15.3533 0.218527C15.5734 0.182073 15.7752 0.127391 15.9769 0.109164C18.3982 -0.237149 19.7373 -0.0184246 19.7373 0.0727105L19.719 0.145619Z" fill="black"/>
<path id="Vector_71" d="M19.719 9.56899C19.719 9.69658 18.7101 9.76949 16.8941 10.0064C16.5823 10.0429 16.2704 10.0976 15.9219 10.134C15.5734 10.2069 15.2065 10.2798 14.8213 10.3163C14.6195 10.2616 14.4178 10.371 14.2343 10.4621C14.0326 10.5533 13.8491 10.6444 13.6107 10.5533C13.3906 10.5533 13.1704 10.5897 12.9503 10.6444C12.7302 10.6991 12.5101 10.772 12.29 10.8449C12.0698 10.9178 11.8314 10.9542 11.5746 10.9907C11.3361 11.0454 11.0793 11.1001 10.8592 11.2277C10.6574 11.4464 10.3823 11.4281 10.1071 11.4281C9.83197 11.4281 9.55682 11.4646 9.35505 11.7198C9.11659 11.8474 8.85978 11.9567 8.58463 12.0479C8.32783 12.1572 8.05268 12.2484 7.77753 12.3395C7.4657 12.3395 7.19055 12.4671 6.93375 12.6129C6.67694 12.7587 6.43848 12.9592 6.18167 13.1233C5.52132 13.1779 5.02605 13.5972 4.6225 14.1257C3.88878 14.1804 3.39351 14.6726 3.19173 15.3652C3.08168 15.4928 2.97162 15.6021 2.86156 15.7115C2.7515 15.8209 2.64144 15.9484 2.54972 16.076C2.45801 16.2036 2.36629 16.3312 2.27457 16.477C2.2012 16.6228 2.14617 16.7687 2.10949 16.9327C1.83434 17.4977 1.74262 18.1175 1.65091 18.719C1.87102 19.3569 1.96274 19.8673 2.03611 20.5781C2.16452 20.7057 2.27457 20.8333 2.38463 20.9609C2.43966 21.0338 2.47635 21.0885 2.53138 21.1614C2.58641 21.2343 2.6231 21.289 2.67812 21.3619C2.86156 21.6535 3.04499 21.9634 3.22842 22.255C3.4302 22.5649 3.74203 22.7836 4.05386 22.9841C4.38404 23.1846 4.69588 23.3668 4.95268 23.6767C5.59469 24.1324 6.32842 24.4422 7.02546 24.825C7.70416 25.2624 8.43789 25.6999 9.31836 25.7364C10.1438 25.9368 10.9692 26.0827 11.7764 26.429C12.6752 26.3378 13.5006 26.6295 14.3444 26.9029C15.2249 26.994 16.087 27.2856 16.9858 27.1945C17.8846 27.3039 18.7834 27.1581 19.7006 27.2856C20.6178 27.3586 21.5349 27.4132 22.4154 27.1945C23.2959 26.9393 24.1947 27.1034 25.0752 26.9029C25.9923 27.0305 26.7811 26.5201 27.6432 26.429C28.4687 26.2103 29.3491 26.1373 30.1012 25.7364C30.89 25.4265 31.6237 25.062 32.3941 24.825C32.5408 24.6427 32.6876 24.5151 32.871 24.424C33.0361 24.3146 33.2379 24.26 33.4213 24.1871C33.7882 24.0595 34.1917 23.9319 34.4852 23.6949C35.2373 23.4033 35.6959 22.7653 36.2278 22.2732C36.3379 22.1274 36.4663 21.9998 36.5764 21.8722C36.6864 21.7446 36.8332 21.617 36.9432 21.4895L37.1083 21.289C37.1083 21.289 37.2 21.1431 37.2367 21.0702C37.3284 20.9244 37.3834 20.7604 37.4201 20.5963C37.4568 20.5234 37.4935 20.4505 37.5119 20.3776L37.5852 20.1407C37.6219 19.9766 37.6403 19.8308 37.6769 19.6668C37.7136 19.3569 37.7503 19.047 37.8053 18.7372C37.7687 18.6643 37.7503 18.5914 37.7503 18.5185C37.732 18.4455 37.7136 18.3726 37.6953 18.2997C37.6953 18.1539 37.6586 17.9899 37.6403 17.8441C37.6403 17.68 37.5852 17.5342 37.5485 17.3884C37.4935 17.2426 37.4201 17.0967 37.3284 16.9692C37.0349 16.4041 36.6314 15.912 36.2278 15.4381C36.1178 15.0918 35.8977 14.8548 35.6225 14.6908C35.4941 14.5996 35.3474 14.5267 35.219 14.4356C35.0722 14.3627 34.9438 14.2716 34.8154 14.1987C34.3201 13.7977 33.6781 13.6883 33.2562 13.1962C32.9994 13.0504 32.7426 12.8681 32.4858 12.7223C32.229 12.5764 31.9539 12.4489 31.6604 12.3942C31.3852 12.303 31.1651 12.1025 30.9266 11.9203C30.6882 11.7562 30.4314 11.6469 30.1012 11.7562C29.8261 11.7016 29.6059 11.5557 29.3675 11.4099C29.129 11.2823 28.8906 11.1912 28.5971 11.2459C28.3219 11.3188 28.0835 11.2459 27.845 11.1365C27.6249 11.0272 27.4048 10.9178 27.1663 10.8631C26.9462 10.8084 26.7077 10.7537 26.4876 10.6991C26.2675 10.6444 26.0474 10.5897 25.8272 10.5533C23.9195 10.1523 22.3787 9.98821 21.3148 9.86062C21.058 9.82417 20.8195 9.80594 20.6178 9.76949C20.416 9.75126 20.2509 9.71481 20.1042 9.69658C19.829 9.66013 19.6823 9.60545 19.6823 9.56899C19.6823 9.47786 20.3793 9.3685 21.7 9.35027C23.0207 9.35027 24.9468 9.40495 27.3681 9.8424C27.6065 9.89708 27.8633 9.87885 28.1201 9.91531C28.3769 9.95176 28.6337 10.0064 28.8722 10.1705C29.129 10.2434 29.4042 10.2798 29.6793 10.3345C29.9545 10.3892 30.2296 10.4621 30.4681 10.6079C30.7799 10.5533 31.0734 10.6444 31.3302 10.772C31.6053 10.8996 31.8622 11.0636 32.1373 11.1912C32.4308 11.3006 32.7059 11.4464 32.9811 11.5922C33.2746 11.7198 33.5497 11.8656 33.8616 11.975C34.5219 12.139 34.9805 12.704 35.6042 12.9957C36.0627 13.5425 36.6314 13.9435 37.2734 14.3627C37.3651 14.5267 37.4752 14.6908 37.6036 14.8184C37.7136 14.9642 37.842 15.11 37.9888 15.2558C38.1172 15.4016 38.2456 15.5657 38.374 15.7115C38.484 15.8755 38.5941 16.0396 38.7042 16.2219C38.7225 16.4406 38.7775 16.6411 38.8509 16.8233C38.9059 17.0238 38.9793 17.2061 39.0527 17.4066C39.1261 17.6071 39.1994 17.8076 39.2545 18.0081C39.2911 18.1175 39.3095 18.2086 39.3462 18.318C39.3645 18.4273 39.3829 18.5367 39.4195 18.646C39.4929 19.0835 39.4379 19.5392 39.3462 19.9766C39.2911 20.1953 39.2361 20.4141 39.1627 20.6146L39.0527 20.9244C39.016 21.0338 38.9793 21.1431 38.9426 21.2343C38.5391 22.018 38.1172 22.82 37.4752 23.4215C36.9616 24.1506 36.2829 24.7521 35.4758 25.1166C34.7971 25.6817 33.9716 26.0462 33.1829 26.429C32.4308 26.9029 31.5503 27.1216 30.7065 27.4315C29.8627 27.7778 28.9089 27.6866 28.0835 28.197C27.203 28.4522 26.2858 28.5251 25.3687 28.7256C24.4515 28.8349 23.516 28.8896 22.5805 29.0354C21.6266 28.7985 20.6911 29.0354 19.7373 29.1448C18.7835 29.2177 17.8296 29.1448 16.8941 29.0354C15.9586 28.999 15.0231 28.8714 14.1059 28.7256C13.1704 28.6709 12.3083 28.2881 11.3911 28.197C10.474 28.1059 9.66688 27.6137 8.76807 27.4315C7.88759 27.231 7.02546 26.9393 6.29173 26.4108C6.08996 26.3196 5.90653 26.2103 5.70475 26.0827C5.52132 25.9551 5.33789 25.8457 5.15446 25.7181C4.78759 25.4812 4.42073 25.2442 3.98049 25.0984C3.59528 24.8797 3.19173 24.6974 2.82487 24.4422C2.45801 24.1871 2.12783 23.859 1.98108 23.4033C1.63256 23.1117 1.3941 22.7471 1.17398 22.3644C1.11895 22.2732 1.06392 22.1639 1.00889 22.0727C0.953864 21.9634 0.917178 21.8722 0.862148 21.7811C0.752089 21.5988 0.64203 21.3983 0.513628 21.2161C0.513628 21.1067 0.476941 20.9973 0.476941 20.8697C0.476941 20.7604 0.440255 20.651 0.403568 20.5417C0.348539 20.3229 0.293509 20.1224 0.23848 19.9037C0.12842 19.4845 0.0183613 19.047 0.0550477 18.6096C0.0550477 18.5002 0.0733909 18.3909 0.0917341 18.2815L0.165107 17.9716C0.201793 17.7529 0.275166 17.5524 0.348539 17.3519C0.403568 17.1514 0.495284 16.9692 0.550314 16.7687C0.623687 16.5682 0.69706 16.3859 0.752089 16.1854C0.825462 15.9849 0.917178 15.8026 1.00889 15.6386C1.11895 15.4745 1.24736 15.3105 1.37576 15.1647C1.50416 15.0189 1.65091 14.8731 1.77931 14.7455C1.92605 14.6179 2.05446 14.4721 2.16452 14.3262C2.25623 14.1622 2.40298 14.0346 2.53138 13.907C2.67812 13.7794 2.82487 13.6883 2.98996 13.5972C3.1367 13.4878 3.30179 13.4149 3.44854 13.3055C3.59528 13.1962 3.72369 13.0868 3.83375 12.941C4.42073 12.5582 4.97102 12.1755 5.57635 11.9203C5.75978 11.5922 6.05327 11.4281 6.38345 11.3552C6.69528 11.2641 7.02546 11.2459 7.31895 11.1547C7.61244 11.0636 7.86925 10.8996 8.12605 10.7537C8.38286 10.6079 8.67635 10.5168 8.98818 10.5715C9.2083 10.3345 9.48345 10.2434 9.7586 10.1887C10.0337 10.1523 10.3272 10.1523 10.584 10.134C10.8592 10.1158 11.0977 10.0247 11.3361 9.93353C11.5746 9.8424 11.813 9.78772 12.0882 9.82417C12.3083 9.66013 12.5468 9.6419 12.7852 9.6419C13.0237 9.6419 13.2621 9.66013 13.4823 9.58722C13.7207 9.62367 13.9225 9.58722 14.1426 9.55077C14.3444 9.51431 14.5462 9.45963 14.7479 9.4414C15.1332 9.33204 15.5184 9.31381 15.8852 9.35027C16.2337 9.35027 16.5823 9.33204 16.8941 9.31381C18.7651 9.27736 19.774 9.42318 19.774 9.53254L19.719 9.56899Z" fill="black"/>
<path id="Vector_72" d="M19.7186 0.145816C19.7186 0.145816 19.6452 0.200497 19.5168 0.236951C19.4434 0.236951 19.3701 0.273405 19.2784 0.291632C19.2233 0.291632 19.1866 0.291632 19.1316 0.309859C19.0766 0.309859 19.0216 0.346313 18.9665 0.346313C18.4713 0.455675 17.7559 0.637945 16.9121 1.05717C16.7653 1.13007 16.6369 1.20298 16.4718 1.27589C16.3251 1.36703 16.1784 1.45816 16.0316 1.5493C15.7381 1.76802 15.4446 1.98674 15.1145 2.2237C14.8943 2.27838 14.7843 2.47887 14.6742 2.66114C14.5458 2.84341 14.4358 3.02568 14.1789 3.09859C13.9955 3.22618 13.8304 3.39022 13.6837 3.57249C13.5369 3.75476 13.4085 3.95526 13.2618 4.15576C13.1334 4.35626 12.95 4.53853 12.7849 4.73902C12.6198 4.93952 12.473 5.15824 12.3813 5.41342C12.3813 5.72328 12.1429 5.88732 11.9411 6.10605C11.7393 6.30655 11.5375 6.52527 11.5742 6.87158C11.5192 6.99917 11.4642 7.14499 11.4091 7.27258C11.3541 7.40017 11.2991 7.54598 11.2257 7.67357C11.0973 7.92875 10.9689 8.20215 10.8405 8.49379C10.6204 8.73074 10.5103 9.02237 10.4186 9.33223C10.3452 9.64209 10.2902 9.95195 10.2168 10.28C9.75824 10.8086 9.68487 11.5012 9.70321 12.1939C9.17126 12.7589 9.09788 13.488 9.318 14.2535C9.26297 14.5998 9.1896 14.9644 9.11623 15.3107C9.0612 15.6752 9.02451 16.0398 9.07954 16.4225C9.07954 16.7871 9.0612 17.1698 9.0612 17.5526C9.0612 17.9354 9.0612 18.3181 9.00617 18.7009C9.11623 19.0837 9.20794 19.4664 9.20794 19.8674C9.22629 20.2502 9.1896 20.6512 9.11623 21.0522C9.42806 21.836 9.42806 22.6197 9.40972 23.4582C9.40972 24.2966 9.94167 25.0439 9.92333 25.9006C10.1251 26.7208 10.4369 27.5046 10.6937 28.3248C10.8955 29.1632 11.134 30.0381 11.7576 30.6943C12.2162 31.4416 12.7482 32.1342 13.1701 32.918C13.9221 33.4466 14.3991 34.1574 14.9677 34.8318C15.1511 34.9594 15.2979 35.1052 15.4813 35.251L15.7381 35.4698L15.9949 35.6703C16.3434 35.9254 16.747 36.1442 17.1689 36.2353C17.5541 36.4176 17.976 36.5269 18.3979 36.5816C18.8198 36.6545 19.2417 36.6727 19.6636 36.7457C20.5257 36.8368 21.4429 36.7092 22.1766 36.2353C22.5251 35.9801 22.9103 35.7978 23.2955 35.5974L23.589 35.4333C23.6807 35.3786 23.7724 35.3239 23.8642 35.251C24.0476 35.1417 24.2127 34.9959 24.3778 34.8318C24.7997 34.6495 25.1115 34.3215 25.3683 33.9751C25.4967 33.7929 25.6251 33.6106 25.7535 33.4283C25.8819 33.2461 26.0103 33.0638 26.1571 32.918C26.6707 32.2071 27.276 31.5327 27.5695 30.6943C27.9363 29.8923 28.2298 29.0903 28.6334 28.3248C28.5784 27.8509 28.7434 27.4681 28.9269 27.0671C29.0186 26.8848 29.1287 26.6843 29.202 26.4838C29.2937 26.2833 29.3671 26.0829 29.3855 25.8824C29.7707 25.0986 29.734 24.2419 29.8991 23.4399C29.9358 22.6197 30.3026 21.836 30.1926 21.034C30.2476 20.633 30.2109 20.232 30.2292 19.8492C30.2292 19.4482 30.2292 19.0655 30.3026 18.6827C30.1926 18.2999 30.2292 17.9172 30.2659 17.5344C30.2659 17.3521 30.3026 17.1516 30.3026 16.9693C30.3026 16.7871 30.2843 16.5866 30.2292 16.4225C30.2109 16.058 30.1559 15.6935 30.1192 15.3289C30.0825 14.9644 30.0275 14.6181 30.0091 14.2535C30.2109 13.488 29.8074 12.85 29.6239 12.1939C29.4955 11.5195 29.1103 10.9544 29.1103 10.28C29.0186 9.97017 28.9452 9.66032 28.8718 9.35046C28.7801 9.05882 28.6701 8.74897 28.4866 8.51201C28.3399 8.23861 28.3399 7.91052 28.2665 7.61889C28.2298 7.47307 28.1931 7.32726 28.1198 7.19967C28.0464 7.07208 27.9363 6.96272 27.7713 6.88981C27.6062 6.65286 27.5328 6.37945 27.4411 6.10605C27.3494 5.83264 27.221 5.59569 26.9642 5.44988C26.7073 5.30406 26.5606 5.08534 26.4505 4.86661C26.3405 4.62966 26.2304 4.39271 26.0837 4.19221C25.9369 4.00994 25.7902 3.80945 25.6251 3.62717C25.46 3.46313 25.3133 3.28086 25.1665 3.11682C24.4695 2.38774 23.7541 1.84093 23.0937 1.42171C22.4334 1.02071 21.8097 0.765534 21.2778 0.583264C20.2322 0.255178 19.6269 0.236951 19.6269 0.127589C19.6269 0.072908 19.8103 0.036454 20.1772 0C20.3606 0 20.5991 0 20.8559 0C21.131 0.036454 21.4429 0.072908 21.7914 0.164043C22.4884 0.328086 23.3322 0.637945 24.2127 1.18476C25.0931 1.71334 26.0103 2.4971 26.8908 3.49959C27.0559 3.70008 27.276 3.88235 27.4594 4.08285C27.6429 4.28335 27.8263 4.50207 27.8997 4.81193C28.2115 5.28583 28.6701 5.70505 28.8352 6.30655C28.9636 6.41591 29.0736 6.52527 29.1653 6.65286C29.2571 6.78045 29.3121 6.92626 29.3671 7.07208C29.4955 7.36371 29.5505 7.6918 29.6789 7.98343C29.8074 8.27506 29.8991 8.58492 30.0275 8.89478C30.1375 9.20464 30.2476 9.5145 30.4127 9.82436C30.7795 10.4258 30.7429 11.1732 31.018 11.8293C31.018 12.5584 31.1831 13.2693 31.4766 13.9801C31.4399 14.3629 31.5133 14.7274 31.5866 15.1102C31.66 15.493 31.7701 15.8575 31.7884 16.2585C31.7334 16.459 31.715 16.6595 31.715 16.86C31.715 17.0605 31.715 17.261 31.7334 17.4432C31.7884 17.8442 31.8618 18.227 31.9168 18.6462C31.9718 19.0472 31.9535 19.4664 31.9168 19.8674C31.8801 20.2867 31.8618 20.6877 31.8434 21.1251C31.7334 21.9635 31.7517 22.8202 31.5866 23.6769C31.5866 24.5518 31.4582 25.4449 31.073 26.2833C30.9263 27.1765 30.5961 28.0331 30.2843 28.908C30.0642 29.8194 29.5689 30.6396 29.147 31.4963C28.9452 31.9337 28.6517 32.3165 28.3582 32.7175C28.0647 33.1003 27.7896 33.5012 27.6062 33.9934C27.0375 34.8136 26.2855 35.5062 25.5334 36.2171C24.7263 36.855 23.8091 37.4018 22.8369 37.9122C22.2683 37.9669 21.7547 38.1127 21.2227 38.2403C20.6908 38.3861 20.1588 38.4954 19.5902 38.5684C18.4713 38.6413 17.334 38.3496 16.3434 37.894C15.3346 37.493 14.4358 36.8915 13.6653 36.1988C13.2434 35.889 12.8949 35.5062 12.5647 35.1234C12.3997 34.923 12.2529 34.7225 12.0878 34.5402C11.9227 34.3397 11.776 34.1574 11.5926 33.9751C11.244 33.6106 10.9872 33.1914 10.7671 32.7539C10.547 32.3165 10.3269 31.8973 10.0517 31.4963C9.53812 30.6943 9.09788 29.8194 8.91445 28.908C8.58427 28.0331 8.58427 27.0853 8.12569 26.2833C7.85055 25.4267 7.33694 24.6065 7.61208 23.6769C7.37362 22.8202 7.5754 21.9453 7.35528 21.1251C7.46534 20.6877 7.46534 20.2867 7.41031 19.8674C7.37362 19.4664 7.28191 19.0472 7.30025 18.6462C7.33694 18.2452 7.37362 17.8442 7.42865 17.4432C7.46534 17.0423 7.48368 16.6595 7.42865 16.2585C7.37362 15.8575 7.447 15.4747 7.52037 15.1102C7.59374 14.7274 7.7038 14.3629 7.74049 13.9983C7.68546 13.2328 8.23575 12.5766 8.19907 11.8476C8.40084 11.1549 8.52924 10.4623 8.80439 9.84259C8.71268 9.45982 8.82274 9.13173 9.00617 8.8401C9.1896 8.54847 9.39137 8.27506 9.53812 8.00166C9.70321 7.71002 9.75824 7.40017 9.8683 7.09031C9.92333 6.94449 9.97836 6.79867 10.0517 6.67109C10.1434 6.5435 10.2352 6.41591 10.3819 6.32477C10.3819 5.63215 10.9322 5.24938 11.3174 4.83016C11.5008 4.61143 11.6476 4.37448 11.7943 4.13753C11.9411 3.90058 12.1062 3.68186 12.3263 3.53604C12.418 3.26263 12.6014 3.08036 12.8032 2.93455C13.0233 2.78873 13.2251 2.64292 13.3718 2.46065C13.8121 2.2237 14.0689 1.8227 14.4541 1.58575C14.7659 1.27589 15.1328 1.05717 15.518 0.929577C15.7014 0.838442 15.8665 0.765534 16.0316 0.674399C16.1967 0.601491 16.3618 0.54681 16.5269 0.473902C17.4807 0.109362 18.2878 0.018227 18.8014 0.036454C18.8748 0.036454 18.9298 0.036454 18.9849 0.036454C19.0399 0.036454 19.0949 0.036454 19.15 0.036454C19.2417 0.036454 19.3334 0.054681 19.4068 0.072908C19.5352 0.091135 19.6085 0.127589 19.6085 0.145816H19.7186Z" fill="black"/>
<path id="Vector_73" d="M19.7186 37.657C19.6085 37.657 19.4984 37.2378 19.3884 36.4905C19.3884 36.3629 19.3517 36.2353 19.3334 36.0895C19.2967 35.9437 19.2783 35.7979 19.2783 35.6338C19.4251 35.4698 19.0032 35.3057 19.2233 35.1235C19.2967 34.9412 19.2233 34.7589 19.1683 34.5584C19.1132 34.3579 19.26 34.1574 19.1316 33.9387C18.8381 33.72 19.4618 33.5013 19.0949 33.2825C19.0215 33.0456 19.0399 32.8086 19.0582 32.5717C19.2783 32.3347 19.0582 32.0796 19.0215 31.8244C19.2967 31.5692 19.1683 31.2958 18.9848 31.0224C19.37 30.749 19.2967 30.4756 18.9481 30.1839C18.9481 29.8923 19.0766 29.6007 18.9115 29.3091C18.8931 29.0174 18.8197 28.7076 18.8748 28.3977C18.618 28.0878 18.6363 27.778 18.8564 27.4499C18.5813 27.1218 18.6913 26.812 18.8381 26.4839C18.9848 26.1558 18.5996 25.8277 18.8197 25.4814C18.8197 25.1351 18.7647 24.807 18.8197 24.4424C18.9298 24.0961 19.0582 23.7498 18.8197 23.3853C18.7464 23.0207 18.6547 22.6744 18.8197 22.3099C18.5263 21.9453 18.6547 21.5808 18.8197 21.2163C18.7647 20.8517 18.9848 20.469 18.8197 20.0862C18.8564 19.7034 18.6913 19.3207 18.8197 18.9379C18.9115 18.5551 18.9848 18.1723 18.8197 17.7896C18.6363 17.4068 18.8931 17.0423 18.8197 16.6595C19.0949 16.295 18.728 15.9122 18.8197 15.5477C18.8014 15.1831 18.9665 14.8186 18.8197 14.4723C18.7647 14.1077 18.7097 13.7614 18.8197 13.4151C18.3979 13.0688 18.9298 12.7225 18.8197 12.3762C19.0032 12.0298 18.8014 11.7018 18.8381 11.3737C18.7647 11.0456 19.0215 10.7175 18.8564 10.4076C18.8931 10.0796 18.728 9.7697 18.8748 9.45984C18.673 9.14998 19.0399 8.84012 18.9115 8.54849C18.9115 8.25686 18.9115 7.96522 18.9481 7.67359C19.2783 7.38196 19.0032 7.10855 18.9848 6.83515C19.0215 6.56174 18.8014 6.30656 19.0215 6.03316C19.0399 5.77798 19.1866 5.5228 19.0582 5.28585C19.0032 5.0489 19.5351 4.81195 19.0949 4.575C19.0215 4.33805 19.4251 4.11932 19.1316 3.9006C18.8748 3.68188 19.1683 3.48138 19.1683 3.28088C19.1683 3.08038 19.205 2.89811 19.2233 2.71584C19.37 1.09364 19.5351 0.164062 19.7002 0.164062C19.902 0.164062 20.0671 1.31236 20.2322 3.28088C20.2322 3.48138 20.4706 3.68188 20.2689 3.9006C20.2689 4.11932 20.4339 4.33805 20.3055 4.575C20.599 4.81195 20.3606 5.0489 20.3422 5.28585C20.3422 5.5228 20.2689 5.77798 20.3789 6.03316C20.544 6.28834 20.2872 6.56174 20.4156 6.83515C20.2322 7.10855 20.2872 7.38196 20.4523 7.67359C20.2689 7.96522 20.489 8.25686 20.489 8.54849C20.2138 8.84012 20.4156 9.14998 20.5257 9.45984C20.6357 9.7697 20.489 10.0796 20.544 10.4076C20.489 10.7175 20.6174 11.0456 20.5624 11.3737C20.6908 11.7018 20.7458 12.0298 20.5807 12.3762C20.6724 12.7225 20.5807 13.0506 20.5807 13.4151C20.6908 13.7614 20.5807 14.1077 20.5807 14.4723C20.6357 14.8368 20.2872 15.1831 20.5807 15.5477C20.6174 15.9122 20.5257 16.2767 20.5807 16.6595C20.544 17.024 20.5073 17.4068 20.5807 17.7896C20.2872 18.1723 20.4706 18.5551 20.5807 18.9379C20.6724 19.3207 20.6174 19.7034 20.5807 20.0862C20.6174 20.469 20.5807 20.8335 20.5807 21.2163C20.6724 21.5808 20.4523 21.9453 20.5807 22.3099C20.7091 22.6744 20.4339 23.039 20.5807 23.3853C20.6724 23.7498 20.7091 24.0961 20.5807 24.4424C20.5807 24.7888 20.3055 25.1351 20.5807 25.4814C20.6357 25.8277 20.9842 26.1558 20.5624 26.4839C20.6724 26.812 20.3606 27.14 20.544 27.4499C20.2322 27.778 20.544 28.0878 20.5257 28.3977C20.4706 28.7076 20.3606 29.0174 20.489 29.3091C20.6357 29.6007 20.4156 29.8923 20.4523 30.1839C20.6357 30.4756 20.2138 30.749 20.4156 31.0224C20.3789 31.2958 20.4339 31.551 20.3789 31.8244C20.8008 32.0796 20.3789 32.3347 20.3422 32.5717C20.2872 32.8086 20.6174 33.0456 20.3055 33.2825C20.6174 33.5195 20.3422 33.7382 20.2689 33.9387C20.1771 34.1574 20.3973 34.3579 20.2322 34.5584C20.4523 34.7589 20.1038 34.9412 20.1771 35.1235C20.0304 35.3057 20.1771 35.4698 20.1221 35.6338C20.1771 35.7979 20.1588 35.9437 20.0671 36.0895C20.0671 36.2353 20.0304 36.3629 20.0121 36.4905C19.902 37.256 19.7919 37.657 19.6819 37.657H19.7186Z" fill="black"/>
</g>
</g>
<defs>
<clipPath id="clip0_1379_139">
<rect width="124" height="66" fill="white"/>
</clipPath>
</defs>
</svg>
