<svg width="61" height="77" viewBox="0 0 61 77" fill="none" xmlns="http://www.w3.org/2000/svg">
<g id="Isolation_Mode" clip-path="url(#clip0_1379_121)">
<path id="Vector" d="M0.716082 9.01514C0.761402 9.01514 0.815785 9.78298 0.861105 11.2644C0.906424 12.7369 0.951743 14.9229 0.997063 17.7413C1.00613 18.6808 1.02425 19.6925 1.04238 20.7765C1.06957 21.8605 1.09677 23.0078 1.07864 24.2182C0.951743 25.4377 1.3143 26.7114 1.11489 28.0574C1.06051 29.4033 1.11489 30.8125 1.15115 32.2759C1.19647 33.7484 1.06957 35.275 1.1874 36.8649C1.43213 38.4547 0.915488 40.1078 1.22366 41.8061C1.28711 43.5134 1.26898 45.2749 1.25992 47.0906C1.06957 48.9063 1.25992 50.7762 1.28711 52.7003C1.06051 54.6244 1.16021 56.5936 1.3143 58.6171C1.00613 60.6406 1.05145 62.7092 1.34149 64.832C1.35055 66.9458 1.23272 69.1138 1.36868 71.327C1.38681 72.6729 1.39587 74.037 1.414 75.4191C1.84907 75.4191 2.28414 75.4371 2.7192 75.4462C5.02143 75.2384 7.36898 75.2474 9.75278 75.4281C12.1366 75.2023 14.5566 75.2926 17.022 75.41C19.4874 75.5365 21.98 75.2113 24.5179 75.392C27.0467 75.401 29.6208 75.3378 32.2222 75.3739C34.8235 75.4642 37.452 75.5636 40.1168 75.3649C42.7816 75.3107 45.4736 75.2384 48.1927 75.3558C49.3529 75.2565 50.5131 75.2203 51.6823 75.2113C52.2624 75.2113 52.8516 75.2113 53.4407 75.2294C53.7308 75.2294 54.0208 75.2474 54.3018 75.2565C54.3199 75.2655 54.3471 75.2745 54.3834 75.2926C54.3834 75.2836 54.4015 75.2655 54.4106 75.2474V75.2294H54.4196C54.4196 75.2294 54.4196 75.2294 54.4196 75.1932V74.8861C54.3925 72.1219 54.5647 69.3396 54.4196 66.5303C54.4559 63.7209 54.3199 60.8845 54.4196 58.039C54.4922 55.1844 54.5647 52.357 54.4196 49.5476L54.3924 49.0237V48.9605C54.3924 48.9605 54.3924 48.9605 54.3924 48.9514V48.9334L54.3834 48.9063C54.3834 48.8882 54.3834 48.8792 54.3743 48.8611V48.843L54.3471 48.8521C54.329 48.8521 54.3199 48.8611 54.3018 48.8701H54.2837L54.1477 48.9063C53.7761 49.0147 53.3954 49.0508 53.0147 49.105L52.8697 49.1231H52.7247L52.4347 49.1411C52.2443 49.1411 52.054 49.1592 51.8636 49.1502L51.2926 49.114L51.0116 49.096L50.7306 49.0508L50.1687 48.9605C49.9783 48.9243 49.7971 48.8701 49.6158 48.825C49.2442 48.7437 48.8907 48.5991 48.5372 48.4817L48.4103 48.4185L48.2834 48.3462L48.0387 48.2107L47.7939 48.0752C47.7124 48.03 47.6308 47.9849 47.5492 47.9307C47.241 47.7229 46.9147 47.5332 46.6247 47.2983C46.0174 46.8647 45.4826 46.3408 44.9841 45.7898L44.6397 45.3562L44.4675 45.1394L44.3134 44.9045L44.0143 44.4348C43.9237 44.2722 43.8421 44.1096 43.7605 43.938C43.5792 43.6128 43.4705 43.2605 43.3345 42.9082C43.2982 42.8178 43.2801 42.7275 43.2529 42.6462L43.1895 42.3752C43.1442 42.1945 43.0898 42.0139 43.0717 41.8332C42.7907 40.3788 42.8994 38.8703 43.3436 37.4791C43.7968 36.088 44.5763 34.8414 45.5461 33.7664C46.5612 32.7366 47.8211 31.9417 49.1898 31.4991C50.5675 31.0564 52.0449 30.9842 53.4317 31.2642C53.613 31.2642 53.7942 31.2642 53.9664 31.3094L54.2293 31.3545H54.2928C54.2928 31.3545 54.2927 31.3636 54.3018 31.3636C54.3018 31.3636 54.329 31.3365 54.3381 31.3274C54.3381 31.3094 54.3381 31.3094 54.3381 31.3003V31.2913V31.2732V31.1197L54.3653 30.6409C54.4196 29.3582 54.5103 28.0935 54.474 26.8288C54.619 24.3086 54.4559 21.8154 54.4922 19.3583C54.4287 16.9012 54.6462 14.4893 54.5103 12.1136C54.5103 11.5987 54.5103 11.0838 54.5103 10.5689V10.1895C54.5103 10.072 54.5103 9.89138 54.5012 9.90944V9.74684H54.3834H54.329H54.3018H54.2021C53.8667 9.74684 53.5404 9.74684 53.2141 9.74684C52.5525 9.74684 51.8999 9.72878 51.2473 9.69264C48.9451 9.86428 46.6791 9.54811 44.4675 9.66554C43.5974 9.66554 42.7272 9.66554 41.8752 9.66554C41.8752 10.0088 41.8752 10.343 41.8752 10.6773C41.8752 11.2193 41.8662 11.7613 41.8571 12.3033C41.7302 13.3421 41.7121 14.3719 41.7393 15.3836C41.7483 15.8895 41.7664 16.3954 41.7846 16.8922L41.8027 17.2716V17.4613L41.8118 17.7413C41.8118 18.1569 41.8208 18.5634 41.8299 18.9789C41.7574 18.9789 41.6939 18.9789 41.6305 18.9789C41.2136 18.9789 40.7966 18.9789 40.3797 18.9789C40.1259 18.9789 39.8721 18.9789 39.6183 18.9879C39.1198 18.997 38.6213 19.006 38.1228 19.0241C37.1348 19.0421 36.1559 19.0421 35.1951 18.9518C33.2645 18.9337 31.3883 18.8163 29.5665 18.9157C27.7446 18.9518 25.9772 18.5272 24.2641 18.8795C22.551 18.9428 20.9014 18.6085 19.3061 18.8434C18.5085 18.9518 17.729 18.9428 16.9676 18.9157C16.587 18.8976 16.2063 18.8705 15.8347 18.8524H15.6896L15.5174 18.8344C15.3815 18.8344 15.2455 18.8344 15.1005 18.8253C14.8286 18.8253 14.5657 18.8163 14.2938 18.8073V18.7802C14.3119 17.1632 14.321 15.6185 14.33 14.1461C14.3391 13.2337 14.3482 12.3484 14.3572 11.4903C14.3572 10.7495 14.3754 10.0359 14.3844 9.34938C12.2725 9.32228 10.3873 9.29518 8.75576 9.26808C7.02455 9.24098 5.5562 9.21388 4.37789 9.18678C3.19052 9.15968 2.28414 9.13258 1.67685 9.09644C1.06957 9.06934 0.752338 9.03321 0.752338 9.00611C0.752338 8.97901 1.06957 8.94288 1.67685 8.91578C2.28414 8.88868 3.19052 8.86158 4.37789 8.82545C5.56526 8.79835 7.03362 8.77125 8.75576 8.74415C9.61683 8.73511 10.5504 8.71705 11.5474 8.70801C12.6532 8.69898 13.8315 8.68091 15.0733 8.67188C15.1005 11.3999 15.1277 14.4984 15.1639 17.931C15.2546 17.931 15.3543 17.931 15.4449 17.931H15.5809L15.6171 17.922H15.6896H15.8347C16.2063 17.9039 16.587 17.8859 16.9676 17.8768C17.729 17.8497 18.5085 17.8407 19.3061 17.922C20.9014 17.922 22.551 17.7775 24.2641 17.8859C25.9772 17.642 27.7446 17.8407 29.5665 17.8497C31.3883 17.8407 33.2645 17.922 35.1951 17.8226C36.1559 17.7504 37.1348 17.7684 38.1228 17.7865C38.6213 17.7955 39.1198 17.8136 39.6183 17.8136H39.9899H40.3615C40.4522 17.8136 40.5338 17.8046 40.6063 17.7865H40.6516C40.6697 17.7323 40.6878 17.651 40.6969 17.5607V17.5245V17.5065V17.4613L40.706 17.2716V16.8922C40.7332 16.3863 40.7332 15.8895 40.7332 15.3836C40.7241 14.3719 40.6788 13.3421 40.6063 12.3033C40.6425 11.7613 40.6607 11.2193 40.6607 10.6773V9.81008C40.6607 9.34938 40.6516 8.89771 40.6425 8.43701C41.0867 8.43701 41.5308 8.41895 41.9749 8.41895C42.265 8.41895 42.555 8.40088 42.8451 8.40088C43.3798 8.38281 43.9237 8.37378 44.4675 8.38281C46.6881 8.60865 48.9451 8.45508 51.2473 8.35571C51.8999 8.32861 52.5525 8.32861 53.2141 8.32861C54.1024 8.32861 54.9997 8.33765 55.9061 8.34668C55.9061 9.08741 55.9061 9.82814 55.8971 10.5779C55.8971 11.0928 55.8971 11.6077 55.9152 12.1226C55.8699 14.4984 55.9696 16.9103 55.9333 19.3673C56.0421 21.8244 56.0783 24.3086 55.9514 26.8379C55.9877 28.1025 55.9877 29.3672 55.9877 30.6499C55.9877 31.0564 55.9877 31.472 55.9877 31.8875V32.7818V33.2244V33.4503V33.5587V33.5858V33.5948H55.9786L55.9243 33.5677L55.0813 33.2786C54.8003 33.1793 54.5284 33.0799 54.2293 32.9896L54.0118 32.9173L53.903 32.8812L53.8486 32.8631L53.6311 32.8089C53.4861 32.7637 53.341 32.7547 53.196 32.7276C52.0268 32.5831 50.8213 32.6553 49.6792 32.9986C48.5462 33.3599 47.4767 33.9742 46.6247 34.8324C45.7999 35.7086 45.102 36.7294 44.6941 37.8947C44.3043 39.06 44.2318 40.3608 44.5763 41.5441C44.821 42.7456 45.3648 43.8838 46.1352 44.8594C46.5431 45.3291 46.9691 45.7898 47.4858 46.1421C47.7305 46.3408 48.0024 46.4853 48.2743 46.6479C48.3378 46.6931 48.4103 46.7292 48.4828 46.7563L48.7003 46.8557L48.9088 46.9551L49.0176 47.0093L49.1263 47.0454C49.4254 47.1538 49.7064 47.2803 50.0146 47.3525C50.1687 47.3887 50.3137 47.4429 50.4678 47.47L50.9391 47.5422L51.1748 47.5784H51.4104L51.8818 47.6235C52.0358 47.6235 52.199 47.6145 52.3531 47.6055H52.5887L52.7066 47.5874L52.8244 47.5693C53.1326 47.5151 53.4589 47.488 53.758 47.3887L53.8758 47.3616L54.1115 47.2893L54.5828 47.1357L55.4892 46.8196L55.9424 46.657C55.9424 46.8106 55.9424 46.9731 55.9424 47.1357V48.1023L55.9605 49.0237V49.5476C55.7248 52.357 55.8789 55.1935 55.9696 58.039C56.0421 60.8935 56.0058 63.7209 55.9696 66.5303C55.9968 69.3396 55.9786 72.1309 55.9696 74.8861V75.1932L55.9786 75.7533C55.9786 76.1417 55.9786 76.5302 55.9786 76.9186C55.4167 76.9186 54.8638 76.9186 54.3018 76.9186C54.0027 76.9186 53.7036 76.9186 53.4045 76.9096C52.8153 76.9005 52.2352 76.8915 51.6461 76.8825C50.4768 76.8644 49.3167 76.8554 48.1565 76.9005C45.4373 77.0089 42.7453 76.7831 40.0806 76.8915C37.4158 76.9638 34.7873 76.9999 32.1859 76.8825C29.5846 76.8825 27.0195 76.6566 24.4816 76.8644C21.9437 76.9096 19.4511 77.1986 16.9858 76.8463C14.5204 76.9367 12.1003 76.6837 9.71653 76.8283C7.33272 76.5753 4.98518 76.8192 2.68295 76.8102C2.34758 76.8102 2.02128 76.7921 1.68592 76.7831C1.14209 76.7831 0.598252 76.765 0.0544181 76.756C0.0544181 76.1417 0.0725459 75.5275 0.0725459 74.9132C0.0725459 74.5157 0.0816098 74.1092 0.0816098 73.7118C0.0816098 72.9168 0.063482 72.1219 0.0272264 71.336C-0.0906041 69.1228 0.0906737 66.9639 0.0544181 64.841C-0.0906041 62.7273 0.24476 60.6496 0.0816098 58.6261C0.117865 56.6027 0.063482 54.6334 0.108801 52.7093C-0.235626 50.7852 0.108801 48.9153 0.145057 47.0996C0.190377 45.2839 -0.0815402 43.5224 0.181313 41.8151C-0.0815402 40.1078 0.145057 38.4638 0.217568 36.8739C0.290079 35.284 0.108801 33.7574 0.253824 32.285C0.0725459 30.8125 0.353527 29.4033 0.290079 28.0664C0.40791 26.7204 0.290079 25.4377 0.326335 24.2273C0.290079 23.0168 0.299143 21.8605 0.371654 20.7856C0.389782 19.7016 0.398846 18.6898 0.416974 17.7504C0.462293 14.932 0.498549 12.7459 0.552932 11.2735C0.598252 9.80104 0.643571 9.02418 0.688891 9.02418L0.716082 9.01514Z" fill="black"/>
<path id="Vector_2" d="M8.81952 15.9797C8.86484 15.9797 8.91016 16.5037 8.95548 17.5064C9.0008 18.5091 9.04612 19.9905 9.09144 21.9146C9.1005 22.556 9.11863 23.2425 9.13676 23.9742C9.16395 24.7059 9.19114 25.4918 9.18208 26.3139C9.05518 27.1449 9.41774 28.0121 9.21833 28.9245C9.16395 29.8369 9.21833 30.7944 9.25459 31.7971C9.29991 32.7998 9.17301 33.8386 9.29084 34.9226C9.53557 36.0066 9.01893 37.1267 9.3271 38.283C9.39055 39.4483 9.37242 40.6407 9.36336 41.8783C9.17301 43.1158 9.36336 44.3895 9.39961 45.6903C9.17301 47.0002 9.27272 48.3371 9.4268 49.7102C9.11863 51.0832 9.16395 52.4924 9.45399 53.9287C9.46306 55.374 9.34523 56.8374 9.48119 58.346C9.49931 59.8455 9.56276 61.3812 9.50838 62.944C9.71685 64.5067 9.70778 66.0966 9.52651 67.7136C9.54463 67.831 9.5537 67.9484 9.57183 68.0749L9.58995 68.2556C9.58995 68.2556 9.59902 68.2736 9.60808 68.2917L9.6534 68.3549C9.6534 68.3549 9.71685 68.3369 9.74404 68.3369H10.1519L10.587 68.3549C11.1671 68.373 11.7562 68.4091 12.3454 68.4543C14.0222 68.5808 15.7171 68.2556 17.4393 68.4362C19.1614 68.4543 20.9108 68.382 22.6782 68.4182C24.4457 68.5085 26.2403 68.6079 28.044 68.4091C29.8568 68.3549 31.6877 68.2827 33.5368 68.4091C35.3858 68.1743 37.253 68.2736 39.1382 68.4091C41.0235 68.373 42.927 68.5356 44.8394 68.4091C45.2201 68.4091 45.5917 68.4091 45.9724 68.4091H46.2171H46.2534H46.3259L46.3078 68.2826C46.3078 67.9936 46.3078 67.7045 46.3078 67.4155C46.3078 66.8283 46.3078 66.2411 46.344 65.654C46.4165 63.7118 46.48 61.7877 46.344 59.8817C46.19 57.9666 46.4075 56.0786 46.344 54.1997C46.5706 52.3208 46.2715 50.4599 46.344 48.6171C46.344 48.3913 46.344 48.1564 46.344 47.9306V47.2802L46.3622 47.217C46.3622 47.2079 46.3531 47.1989 46.335 47.1808L46.2987 47.1447L45.8546 46.7472C45.5011 46.404 45.1657 46.0426 44.8576 45.6542C44.5585 45.2658 44.2593 44.8683 44.0056 44.4528C43.9421 44.3444 43.8877 44.236 43.8243 44.1276C43.7699 44.0192 43.7064 43.9108 43.6611 43.8024C43.5614 43.5765 43.4617 43.3507 43.3801 43.1249C43.2079 42.6642 43.081 42.1854 42.9904 41.7066C42.8272 40.7491 42.8182 39.7554 43.0085 38.816C42.9813 38.3282 43.072 37.8404 43.1989 37.3797C43.3439 36.919 43.5342 36.4763 43.779 36.0608C43.8333 35.9524 43.8968 35.853 43.9693 35.7537C44.0327 35.6543 44.0962 35.5549 44.1687 35.4556C44.3137 35.2659 44.4406 35.0671 44.5947 34.8865C44.8848 34.5161 45.2111 34.1728 45.5192 33.8296C45.7005 33.676 45.8727 33.5224 46.0631 33.3869L46.199 33.2785C46.199 33.2785 46.2987 33.1972 46.3078 33.1972L46.4075 33.134C46.4528 33.1159 46.4347 33.0798 46.4437 33.0527V32.8991C46.4437 32.6914 46.4437 32.4746 46.4347 32.2668C46.4165 31.4177 46.3803 30.5776 46.4075 29.7465C46.344 28.0754 46.5616 26.4313 46.4256 24.8234C46.4528 23.2064 46.3168 21.6165 46.4437 20.0538C46.3712 19.3763 46.3894 18.6988 46.4256 18.0213C46.4437 17.687 46.4619 17.3528 46.48 17.0186V16.9553V16.9102V16.874L46.4891 16.7927C46.4891 16.7385 46.4891 16.6843 46.4891 16.6392C46.4256 16.6392 46.3531 16.6482 46.2987 16.6663C45.6189 16.6663 44.9573 16.6663 44.2956 16.6663C43.924 16.6663 43.5614 16.6663 43.1898 16.6663C43.0085 16.6663 42.8272 16.6663 42.646 16.6663C42.4738 16.6663 42.3015 16.6663 42.1293 16.6572C42.0387 16.603 41.8937 16.5669 41.7486 16.5488C41.7305 16.6211 41.7305 16.7114 41.7215 16.8108C41.7215 16.865 41.7215 16.9011 41.7215 16.9553V17.2534C41.7486 17.8406 41.7668 18.4187 41.7849 18.9969C41.5311 18.9969 41.2683 19.0149 41.0145 19.024C40.7607 19.024 40.516 19.024 40.2712 19.033C38.8935 19.0059 37.543 19.1866 36.2378 19.0059C34.9235 18.9878 33.6546 18.8704 32.4128 18.9698C31.1711 19.0059 29.9746 18.5813 28.8054 18.9336C27.6452 18.9969 26.5122 18.6626 25.4336 18.8975C24.346 19.1143 23.3036 18.8704 22.2975 18.8614C21.2914 18.8523 20.3307 18.8343 19.4152 18.8252C17.5662 18.7981 15.8894 18.771 14.3938 18.753C14.3938 18.211 14.4119 17.6961 14.421 17.1992C14.421 16.8921 14.4391 16.594 14.4482 16.3049C13.5962 16.2778 12.8439 16.2598 12.1913 16.2417C11.4662 16.2236 10.8498 16.1965 10.3513 16.1785C9.36336 16.1333 8.84671 16.0881 8.84671 16.043C8.84671 15.9978 9.36336 15.9526 10.3513 15.9075C10.8498 15.8894 11.4662 15.8623 12.1913 15.8442C12.5538 15.8352 12.9436 15.8262 13.3696 15.8081C13.8772 15.7991 14.421 15.79 14.992 15.772C14.992 16.2327 15.0102 16.7114 15.0192 17.2083C15.0192 17.3799 15.0192 17.5515 15.0283 17.7322C15.0283 17.8587 15.0283 17.9942 15.0374 18.1297C15.2096 18.1297 15.3818 18.1206 15.5631 18.1116C15.835 18.1116 16.116 18.1026 16.3969 18.0935C16.9861 18.0935 17.5934 18.0755 18.2278 18.0664C19.4968 18.0484 20.8564 18.0303 22.3066 18.0122C23.3127 18.0032 24.355 17.8135 25.4427 17.9761C26.5304 17.9761 27.6543 17.8316 28.8145 17.94C29.9746 17.6961 31.1801 17.8948 32.4219 17.9038C33.6637 17.8948 34.9326 17.9761 36.2469 17.8767C37.5611 17.7322 38.9026 17.949 40.2803 17.8496H40.3437C40.3437 17.8496 40.3619 17.8587 40.3709 17.8587H40.4163C40.4163 17.8587 40.4797 17.8858 40.5069 17.8948C40.5703 17.9038 40.6428 17.9129 40.7154 17.9219C40.7244 17.8496 40.7335 17.7683 40.7335 17.687V17.5606V17.2625C40.7335 17.0095 40.7244 16.7476 40.7154 16.4856C40.7063 16.1514 40.6882 15.8171 40.6791 15.4829C41.1232 15.4648 41.5855 15.4377 42.084 15.4106L42.3831 15.4377L42.655 15.4558C42.8363 15.4558 43.0176 15.4739 43.1989 15.4739C43.5614 15.4739 43.933 15.4739 44.3047 15.4558C44.6763 15.4377 45.0479 15.4287 45.4195 15.4106C45.6099 15.4106 45.7911 15.4016 45.9815 15.3926H46.2987H46.7882C47.1054 15.4197 47.4136 15.4468 47.7127 15.4648C47.6946 15.7539 47.6855 16.0339 47.6764 16.3049C47.6764 16.5488 47.6674 16.8018 47.6583 17.0547C47.6583 17.3889 47.6583 17.7232 47.6764 18.0574C47.7036 18.7259 47.758 19.4034 47.7943 20.0899C47.8758 21.6527 47.758 23.2425 47.8124 24.8595C47.7671 26.4765 47.8668 28.1205 47.8305 29.7827C47.8849 30.6137 47.9212 31.4538 47.9302 32.3029V33.4682C47.903 33.6579 47.9937 33.9109 47.7671 33.9922L47.3048 34.3354C47.2142 34.3987 47.196 34.4167 47.1507 34.4529L47.0329 34.5432C46.8788 34.6606 46.7338 34.7871 46.5797 34.9136C46.3259 35.2117 46.0721 35.5098 45.8455 35.835C45.7277 35.9885 45.628 36.1602 45.5192 36.3228C45.4648 36.4041 45.4195 36.4944 45.3742 36.5757C45.3289 36.657 45.2745 36.7473 45.2382 36.8377C45.057 37.19 44.9119 37.5513 44.776 37.9307C44.6582 38.3101 44.5494 38.6985 44.5041 39.096C44.4225 39.8909 44.4406 40.7039 44.5675 41.4989C44.64 41.8963 44.7216 42.2938 44.8576 42.6732C44.921 42.8719 45.0026 43.0526 45.0751 43.2423C45.1204 43.3326 45.1657 43.423 45.2111 43.5223C45.2564 43.6127 45.3017 43.703 45.3561 43.7933C45.5555 44.1547 45.7911 44.4889 46.0268 44.8322C46.2715 45.1664 46.5344 45.4826 46.8335 45.7807L47.0601 45.9975L47.1145 46.0517L47.1417 46.0788H47.1598L47.187 46.1149L47.4136 46.2865L47.6402 46.4582L47.7489 46.5485L47.7761 46.5666C47.7761 46.5666 47.7852 46.5666 47.7852 46.5756V47.2712V47.4789V47.6506C47.7943 47.768 47.8033 47.8764 47.8124 47.9938C47.8305 48.2197 47.8486 48.4545 47.8849 48.6804C47.9212 50.5232 47.8486 52.384 47.8849 54.2629C47.8577 56.1419 47.8215 58.0389 47.8849 59.9449C47.6311 61.86 47.7852 63.7841 47.8849 65.7172C47.903 66.3044 47.9212 66.8915 47.9212 67.4787C47.9212 67.7768 47.9212 68.0749 47.9212 68.373C47.9212 68.9331 47.9212 69.4931 47.9212 70.0622C47.2686 70.0622 46.616 70.0532 45.9634 70.0442C45.5827 70.0442 45.2111 70.0261 44.8304 70.0261C42.9088 70.0532 41.0145 70.0351 39.1292 70.0261C37.2439 70.0984 35.3767 69.9177 33.5277 70.0261C31.6787 70.1345 29.8478 69.9087 28.035 70.0171C26.2222 70.0893 24.4366 70.1255 22.6691 70.008C20.9017 70.008 19.1524 69.7822 17.4302 69.99C15.7081 70.0351 14.0041 70.3242 12.3363 69.9719C11.7472 69.999 11.158 69.99 10.5779 69.9719C10.2788 69.9629 9.9797 69.9448 9.68059 69.9357C9.16395 69.9267 8.6745 69.9177 8.17599 69.9087C8.17599 69.4841 8.17599 69.0776 8.17599 68.653V68.3459L8.15786 68.1652C8.15786 68.0478 8.13973 67.9304 8.13067 67.8039C8.38445 66.1869 8.13973 64.5971 8.14879 63.0343C8.19411 61.4715 8.28475 59.9449 8.17599 58.4363C8.05815 56.9368 8.23943 55.4644 8.20318 54.019C8.05815 52.5827 8.39352 51.1735 8.23037 49.8005C8.26662 48.4274 8.21224 47.0815 8.25756 45.7807C7.91313 44.4708 8.25756 43.2062 8.28475 41.9686C8.33914 40.731 8.05815 39.5386 8.32101 38.3733C8.05815 37.2171 8.28475 36.0969 8.35726 35.0129C8.42977 33.9289 8.2485 32.8901 8.39352 31.8874C8.21224 30.8847 8.49322 29.9272 8.42977 29.0148C8.5476 28.1025 8.42977 27.2262 8.46603 26.4042C8.42071 25.5822 8.43884 24.7963 8.50229 24.0646C8.52041 23.3329 8.52948 22.6463 8.54761 22.005C8.59292 20.0899 8.63824 18.5994 8.68356 17.5967C8.72888 16.594 8.7742 16.0701 8.82859 16.0701L8.81952 15.9797Z" fill="black"/>
<path id="Vector_3" d="M14.6832 7.31699C14.7829 7.31699 14.8735 8.22935 14.9551 9.89148C14.9642 10.1715 14.9823 10.4696 15.0004 10.7858C15.0276 11.1019 15.0548 11.4452 15.0367 11.8065C14.9098 12.1679 15.2723 12.5473 15.0729 12.9447C15.0185 13.3422 15.0729 13.7577 15.1092 14.1913C15.1545 14.6249 15.0276 15.0766 15.1454 15.5463C15.3902 16.0161 14.8735 16.5039 15.1817 17.0097C15.1998 17.1181 15.2089 17.2356 15.2179 17.344C15.2179 17.4162 15.2179 17.4885 15.227 17.5608C15.227 17.6511 15.227 17.7414 15.227 17.8498C15.2542 17.8498 15.2723 17.8498 15.2995 17.8498C15.3176 17.895 15.3811 17.9221 15.4445 17.9311C15.4808 17.9311 15.508 17.9311 15.5442 17.9311C15.5986 17.9311 15.653 17.9311 15.7074 17.9221C15.9884 17.895 16.2694 17.8408 16.5503 17.8227C17.1214 18.0486 17.7105 17.9492 18.3087 17.7956C18.9069 18.1028 19.5233 18.0576 20.1487 17.7685C20.7741 17.7595 21.4176 17.8769 22.0702 17.7414C22.7228 17.7234 23.3936 17.6601 24.0734 17.7234C24.7532 17.5156 25.4511 17.5246 26.149 17.7053C26.856 17.4795 27.572 17.5698 28.2971 17.6872C29.0223 17.8137 29.7655 17.4885 30.5087 17.6692C31.261 17.6872 32.0133 17.615 32.7838 17.6511C33.5542 17.7414 34.3337 17.8408 35.1132 17.6421C35.9017 17.5879 36.6994 17.5156 37.497 17.633C38.3037 17.3982 39.1104 17.4975 39.9352 17.633C40.0439 17.633 40.1436 17.633 40.2524 17.633H40.3159H40.3249H40.3521C40.3521 17.633 40.4337 17.6601 40.479 17.6692C40.4881 17.6421 40.4971 17.6059 40.4881 17.5608C40.4881 17.5427 40.4881 17.5246 40.4699 17.4975C40.4699 17.3982 40.4518 17.2988 40.4337 17.1994C40.4699 16.3684 40.3249 15.5283 40.4337 14.6882C40.5062 13.8481 40.5697 13.008 40.4337 12.1769C40.2796 11.3458 40.4971 10.5238 40.4337 9.70178C40.5425 9.30432 40.5243 8.90685 40.4971 8.50938L40.4699 8.22032L40.4428 8.17515C40.4428 8.17515 40.4246 8.12998 40.4428 8.08482C40.4428 8.08482 40.3793 8.08482 40.3521 8.06675H40.3249L40.3159 8.05772C40.3159 8.05772 40.3068 8.05772 40.2887 8.05772H40.2524L39.9533 8.03965C39.5545 8.02159 39.1557 8.01255 38.7659 8.07578C37.9774 8.12095 37.1979 8.15709 36.4365 8.06675C36.2462 8.14805 36.0558 8.19322 35.8655 8.20225H35.793H35.6842H35.4032C35.222 8.18419 35.0407 8.17515 34.8594 8.16612L34.3518 8.12095H34.2884H34.2612C34.2521 8.12095 34.2612 8.10289 34.2612 8.09385V7.94932V7.67832C34.2612 7.49765 34.2521 7.32602 34.234 7.15439C34.234 7.07309 34.2159 6.98275 34.2068 6.90145C34.2068 6.85629 34.2068 6.82919 34.1887 6.75692C34.1887 6.74789 34.1887 6.72079 34.1887 6.72079V6.70272L34.1705 6.67562C34.1705 6.50399 34.1615 6.33236 34.1343 6.16976C34.098 6.00716 34.0436 5.84456 33.9893 5.69099L33.9439 5.57356L33.8896 5.45612L33.7808 5.23029L33.6811 5.00446C33.6448 4.93219 33.6086 4.85992 33.5723 4.78766C33.4001 4.50763 33.2551 4.22759 33.101 3.93853C33.0104 3.80303 32.9197 3.66753 32.82 3.54106C32.7203 3.41459 32.5934 3.31523 32.4575 3.21586C32.3578 3.08939 32.2309 2.99003 32.113 2.89066C31.9861 2.7913 31.8683 2.69193 31.7324 2.61063C31.5964 2.52933 31.4786 2.42996 31.3517 2.34866C31.2248 2.26736 31.0979 2.17703 30.9801 2.06863C30.826 2.02346 30.6809 1.98733 30.545 1.91506C30.4725 1.87893 30.409 1.8428 30.3456 1.80666C30.2821 1.77053 30.2096 1.74343 30.1462 1.7073C30.0102 1.64406 29.8833 1.55373 29.7383 1.50856C29.5933 1.4634 29.4483 1.42726 29.2942 1.41823C29.2217 1.40016 29.1491 1.3821 29.0766 1.37306L28.8591 1.33693C28.7141 1.31886 28.5691 1.29176 28.424 1.28273C28.279 1.28273 28.134 1.26466 27.989 1.25563C27.8439 1.25563 27.6989 1.25563 27.5539 1.25563C27.4814 1.22853 27.4089 1.20143 27.3273 1.18336C27.2548 1.1653 27.1823 1.17433 27.1098 1.17433C26.9647 1.17433 26.8197 1.20143 26.6838 1.23756C26.5478 1.28273 26.4119 1.33693 26.285 1.39113C26.2215 1.41823 26.1581 1.4363 26.0856 1.4634C26.0221 1.4905 25.9587 1.5176 25.8952 1.5447C25.7593 1.58083 25.6324 1.63503 25.5145 1.68923C25.3967 1.7615 25.2789 1.82473 25.161 1.88796C25.1067 1.9241 25.0432 1.9512 24.9888 1.9783C24.9344 2.01443 24.871 2.04153 24.8166 2.07766C24.6988 2.1409 24.5719 2.18606 24.4359 2.21316C24.0009 2.4932 23.5023 2.72806 23.2395 3.17069C23.167 3.27006 23.0582 3.34233 22.9585 3.41459C22.8588 3.49589 22.7591 3.56816 22.6594 3.64946C22.6141 3.68559 22.5597 3.73076 22.5144 3.77593C22.4781 3.82109 22.4419 3.87529 22.4147 3.92949C22.3603 4.03789 22.324 4.16436 22.3422 4.30889C22.2515 4.52569 22.0974 4.70636 21.9434 4.88702C21.8165 5.07672 21.6986 5.28449 21.7439 5.52839C21.7893 5.77229 21.7168 5.97102 21.6352 6.16976C21.5989 6.26912 21.5536 6.36849 21.5173 6.46785C21.4811 6.57625 21.4358 6.63046 21.4176 6.83822C21.3814 7.15439 21.3542 7.46152 21.3089 7.74155C21.0098 7.74155 20.7107 7.73252 20.4206 7.72349C20.2847 7.72349 20.1396 7.72349 20.0037 7.71445C19.8949 7.71445 19.7861 7.71445 19.6774 7.70542C19.4689 7.70542 19.2604 7.68735 19.061 7.68735C18.6622 7.66929 18.2815 7.65122 17.9371 7.64219C17.2392 7.60605 16.641 7.57895 16.1606 7.54282C15.1998 7.47959 14.6832 7.40732 14.6832 7.33505C14.6832 7.25375 15.3176 7.18149 16.496 7.10922C17.0851 7.07309 17.8102 7.03695 18.6622 7.00082C19.0882 6.98275 19.5414 6.96469 20.0309 6.95565H20.1215H20.1759H20.2756C20.339 6.94662 20.4116 6.93759 20.475 6.93759H20.5203C20.5203 6.93759 20.5566 6.93759 20.5566 6.91049V6.80209C20.5566 6.72982 20.5566 6.66659 20.5656 6.59432C20.5656 6.59432 20.5747 6.42269 20.5838 6.31429C20.5838 6.19686 20.5928 6.07039 20.6019 5.95296C20.6291 5.70906 20.7016 5.46516 20.8466 5.24836C20.9282 5.01349 21.0007 4.76056 21.0732 4.50763C21.1729 4.26373 21.2817 4.01983 21.472 3.81206C21.4902 3.66753 21.5355 3.53203 21.5989 3.40556C21.6352 3.34233 21.6714 3.27909 21.7077 3.22489C21.753 3.17069 21.7983 3.11649 21.8436 3.06229C21.9434 2.95389 22.0431 2.85453 22.1428 2.75516C22.2425 2.6558 22.3603 2.56546 22.46 2.45706C22.8407 2.01443 23.3664 1.71633 23.8105 1.28273C23.9193 1.17433 24.0552 1.084 24.1821 1.0027C24.2546 0.966565 24.3181 0.921398 24.3906 0.885265C24.4631 0.858165 24.5356 0.831065 24.6081 0.794932C24.7532 0.740732 24.9072 0.677499 25.0523 0.614265C25.2064 0.560066 25.3514 0.505866 25.4964 0.424566C25.578 0.424566 25.6595 0.406499 25.7411 0.388432C25.8227 0.388432 25.9043 0.370366 25.9858 0.361332C26.149 0.334233 26.3031 0.298099 26.4662 0.261966C26.6294 0.234866 26.7925 0.198733 26.9557 0.153566C27.0373 0.1355 27.1188 0.0993663 27.2004 0.0812996C27.282 0.063233 27.3636 0.0451664 27.4542 0.0180664C27.6264 0.0451664 27.7986 0.0541997 27.9708 0.0541997C28.1431 0.063233 28.3153 0.063233 28.4875 0.0541997C28.6597 0.0451664 28.841 0.0541997 29.0132 0.0722663C29.1038 0.0722663 29.1945 0.0812996 29.276 0.0903329C29.3667 0.0903329 29.4573 0.1084 29.5389 0.1355C29.702 0.234866 29.8652 0.307133 30.0374 0.370366C30.2096 0.433599 30.3728 0.496832 30.545 0.541999C30.6356 0.569099 30.7172 0.587165 30.8078 0.614265C30.8985 0.641365 30.9801 0.668465 31.0707 0.695565C31.2429 0.758798 31.4332 0.794932 31.6055 0.876232C31.7777 0.948498 31.9408 1.03883 32.104 1.1382C32.2671 1.23756 32.4121 1.36403 32.5662 1.47243C32.7203 1.58083 32.8563 1.71633 33.0013 1.8428C33.1463 1.96926 33.2913 2.09573 33.4364 2.2222C33.5633 2.37576 33.6992 2.51126 33.8261 2.6558C33.953 2.80033 34.0799 2.95389 34.2068 3.10746C34.4425 3.42363 34.6781 3.74883 34.8322 4.11919C35.2854 4.77862 35.6117 5.58259 35.6026 6.42269V6.45882L35.6208 6.47689C35.6208 6.44979 35.6208 6.45882 35.6208 6.46785V6.48592C35.6208 6.48592 35.6389 6.50399 35.648 6.52205V6.54012C35.648 6.54012 35.648 6.54916 35.657 6.54916C35.6661 6.54916 35.6842 6.54916 35.6933 6.54916H35.7295H35.7477H35.7749H35.8474C36.0377 6.54916 36.228 6.55819 36.4184 6.55819C37.1888 6.46786 37.9683 6.56722 38.7478 6.54916C39.6179 6.50399 39.9986 6.79305 41.8658 6.54012H41.9746C41.9746 6.90145 41.9746 7.27182 41.9746 7.64219V8.19322L41.9655 8.50035C41.9655 8.89782 41.9564 9.29528 41.9746 9.69275C41.9383 10.5057 41.9111 11.3368 41.9746 12.1679C41.7208 12.9989 41.8749 13.83 41.9746 14.6791C42.0471 15.5192 42.0108 16.3593 41.9746 17.1904V17.4885L41.9836 18.0576C41.9836 18.437 41.9836 18.8164 41.9836 19.1958C41.5757 19.1958 41.1769 19.1958 40.7691 19.1958H40.2252L39.908 19.1868C39.0922 19.259 38.2765 19.0784 37.4698 19.1868C36.6631 19.2952 35.8655 19.0784 35.086 19.1868C34.2974 19.259 33.5179 19.2952 32.7566 19.1777C31.9861 19.1777 31.2248 18.9519 30.4815 19.1597C29.7292 19.2048 28.9951 19.4849 28.2699 19.1416C27.5448 19.2319 26.8288 18.97 26.1218 19.1235C25.4148 18.8706 24.726 19.1145 24.0462 19.1055C23.3664 19.0603 22.6957 18.97 22.0431 19.0784C21.3905 19.1958 20.7469 19.0151 20.1215 19.0513C19.4961 19.1958 18.8798 18.8616 18.2815 19.0242C17.6833 18.988 17.0942 19.0422 16.5231 18.9971C16.2422 19.1687 15.9612 19.1687 15.6802 19.1235L15.5714 19.1055L15.3992 19.0784C15.2814 19.0603 15.1726 19.0422 15.0548 19.0332C14.8373 19.0061 14.6288 18.979 14.4203 18.97C14.3206 18.97 14.2209 18.97 14.1121 18.97C14.1121 18.6086 14.0578 18.2563 14.0396 17.8769C14.0396 17.7866 14.0396 17.6872 14.0396 17.5879C14.0396 17.5337 14.0396 17.5066 14.0396 17.4795C14.0396 17.4524 14.0396 17.4253 14.0396 17.3982C14.0578 17.2898 14.085 17.1723 14.1393 17.0639C13.8765 16.5581 14.1031 16.0703 14.1756 15.6005C14.2481 15.1308 14.0668 14.6791 14.2119 14.2455C14.0306 13.8119 14.3116 13.3964 14.2481 12.9989C14.3659 12.6015 14.2481 12.2221 14.2844 11.8607C14.239 11.4994 14.2572 11.1652 14.3206 10.84C14.3387 10.5238 14.3478 10.2167 14.3659 9.94568C14.4475 8.28355 14.5382 7.37119 14.6379 7.37119L14.6832 7.31699Z" fill="black"/>
<path id="Vector_4" d="M39.6912 30.0177C39.6912 30.1171 39.5552 30.2074 39.3014 30.2887C39.2561 30.3068 39.2108 30.3158 39.1655 30.3339C39.1202 30.361 39.0658 30.3881 39.0114 30.379C38.957 30.2526 38.9026 30.6139 38.8392 30.4152C38.7757 30.361 38.7123 30.4152 38.6488 30.4513C38.5854 30.4965 38.5129 30.37 38.4404 30.4874C38.3679 30.7313 38.2953 30.2164 38.2138 30.5236C38.1413 30.5868 38.0597 30.5687 37.9781 30.5597C37.8965 30.37 37.815 30.5597 37.7243 30.5958C37.6337 30.37 37.5521 30.4694 37.4615 30.6229C37.3708 30.3158 37.2802 30.361 37.1805 30.65C37.0808 30.6591 36.9901 30.5416 36.8904 30.6771C36.7907 30.6952 36.691 30.7584 36.5823 30.7042C36.4826 30.912 36.3738 30.903 36.265 30.7223C36.1563 30.9481 36.0475 30.8578 35.9387 30.7404C35.83 30.6139 35.7121 30.9391 35.6034 30.7584C35.4855 30.7494 35.3768 30.8126 35.2589 30.7765C35.1411 30.6862 35.0233 30.5868 34.9054 30.7855C34.7876 30.8397 34.6607 30.912 34.5429 30.7855C34.416 31.0204 34.2982 30.921 34.1713 30.7855C34.0444 30.8217 33.9175 30.6591 33.7906 30.7855C33.6637 30.7494 33.5368 30.8939 33.4099 30.7855C33.283 30.7133 33.1561 30.641 33.0292 30.7855C32.9023 30.9391 32.7754 30.7223 32.6485 30.7855C32.5216 30.5597 32.4038 30.8578 32.2769 30.7855C32.1591 30.8036 32.0322 30.6591 31.9144 30.7855C31.7965 30.8217 31.6787 30.8668 31.5609 30.7765C31.443 31.1198 31.3252 30.6862 31.2164 30.7584C31.1077 30.6139 30.9898 30.7765 30.8811 30.7404C30.7723 30.8036 30.6635 30.5868 30.5548 30.7223C30.446 30.6952 30.3463 30.8307 30.2375 30.7042C30.1378 30.8759 30.0291 30.5597 29.9384 30.6771C29.8387 30.6771 29.739 30.6862 29.6484 30.65C29.5578 30.3881 29.4581 30.6049 29.3674 30.6229C29.2768 30.5958 29.1861 30.7765 29.1046 30.5958C29.0139 30.5778 28.9323 30.4603 28.8508 30.5597C28.7692 30.5958 28.6876 30.1713 28.6151 30.5236C28.5426 30.5868 28.461 30.2526 28.3976 30.4874C28.3251 30.7042 28.2526 30.4603 28.1891 30.4513C28.1257 30.4423 28.0622 30.4242 27.9988 30.4152C27.4549 30.2977 27.1377 30.1622 27.1377 30.0267C27.1377 29.8641 27.5274 29.7196 28.1891 29.5931C28.2526 29.5841 28.3251 29.3944 28.3976 29.557C28.4701 29.557 28.5426 29.4125 28.6151 29.5209C28.6967 29.277 28.7692 29.4757 28.8508 29.4847C28.9323 29.4757 29.0139 29.557 29.1046 29.4576C29.1861 29.3131 29.2768 29.5299 29.3674 29.4305C29.4581 29.5841 29.5487 29.5389 29.6484 29.4034C29.739 29.548 29.8387 29.3763 29.9384 29.3763C30.0381 29.6022 30.1378 29.4486 30.2375 29.3492C30.3372 29.2679 30.446 29.3854 30.5548 29.3312C30.6635 29.3763 30.7723 29.2679 30.8811 29.3131C30.9898 29.2047 31.1077 29.1686 31.2164 29.295C31.3343 29.2228 31.443 29.277 31.5609 29.277C31.6787 29.1866 31.7965 29.286 31.9144 29.2679C32.0322 29.2228 32.1591 29.5118 32.2769 29.2679C32.3948 29.2318 32.5216 29.3041 32.6485 29.2679C32.7754 29.3041 32.9023 29.3312 33.0292 29.2679C33.1561 29.5118 33.283 29.3583 33.4099 29.2679C33.5368 29.1957 33.6637 29.2318 33.7906 29.2679C33.9175 29.2408 34.0444 29.2589 34.1713 29.2679C34.2982 29.1957 34.416 29.3763 34.5429 29.2679C34.6607 29.1595 34.7876 29.3763 34.9054 29.2679C35.0233 29.1957 35.1411 29.1595 35.2589 29.277C35.3768 29.277 35.4946 29.5028 35.6034 29.295C35.7121 29.2499 35.83 28.9608 35.9387 29.3131C36.0475 29.2228 36.1563 29.4847 36.265 29.3312C36.3738 29.5841 36.4735 29.3402 36.5823 29.3492C36.682 29.3944 36.7907 29.4847 36.8904 29.3763C36.9901 29.2589 37.0898 29.4396 37.1805 29.4034C37.2711 29.2589 37.3708 29.5931 37.4615 29.4305C37.5521 29.4667 37.6427 29.4125 37.7243 29.4576C37.8059 29.1144 37.8965 29.4576 37.9781 29.4847C38.0597 29.5299 38.1413 29.2589 38.2138 29.5209C38.2863 29.2589 38.3679 29.4847 38.4404 29.557C38.5129 29.6293 38.5854 29.4486 38.6488 29.5931C38.7123 29.4125 38.7757 29.6925 38.8392 29.6293C38.9026 29.7467 38.957 29.6293 39.0114 29.6654C39.0658 29.6293 39.1202 29.6383 39.1655 29.7106C39.2108 29.7196 39.2561 29.7377 39.3014 29.7467C39.5552 29.828 39.6912 29.9183 39.6912 30.0177Z" fill="black"/>
<path id="Vector_5" d="M39.6912 35.0314C39.6912 35.1307 39.5552 35.2211 39.3014 35.3024C39.2561 35.3205 39.2108 35.3295 39.1655 35.3476C39.1202 35.3747 39.0658 35.4018 39.0114 35.3927C38.957 35.2663 38.9026 35.6276 38.8392 35.4289C38.7757 35.3747 38.7123 35.4288 38.6488 35.465C38.5854 35.5101 38.5129 35.3837 38.4404 35.5011C38.3679 35.745 38.2953 35.2301 38.2138 35.5373C38.1413 35.6005 38.0597 35.5824 37.9781 35.5734C37.8965 35.3837 37.815 35.5734 37.7243 35.6005C37.6337 35.3747 37.5521 35.474 37.4615 35.6276C37.3708 35.3204 37.2802 35.3656 37.1805 35.6547C37.0808 35.6637 36.9901 35.5463 36.8904 35.6818C36.7907 35.6998 36.691 35.7631 36.5823 35.7089C36.4826 35.9166 36.3738 35.9076 36.265 35.7269C36.1563 35.9528 36.0475 35.8624 35.9387 35.745C35.83 35.6185 35.7121 35.9437 35.6034 35.7631C35.4855 35.754 35.3768 35.8173 35.2589 35.7812C35.1411 35.6908 35.0233 35.5914 34.9054 35.7902C34.7876 35.8444 34.6607 35.9167 34.5429 35.7992C34.416 36.0341 34.2982 35.9257 34.1713 35.7992C34.0444 35.8354 33.9175 35.6728 33.7906 35.7992C33.6637 35.7631 33.5368 35.9076 33.4099 35.7992C33.283 35.727 33.1561 35.6637 33.0292 35.7992C32.9023 35.9528 32.7754 35.736 32.6485 35.7992C32.5216 35.5824 32.4038 35.8715 32.2769 35.7992C32.1591 35.8173 32.0322 35.6727 31.9144 35.7902C31.7965 35.8353 31.6787 35.8715 31.5609 35.7812C31.443 36.1244 31.3252 35.6908 31.2164 35.7631C31.1077 35.6185 30.9898 35.7811 30.8811 35.745C30.7723 35.8082 30.6635 35.5914 30.5548 35.7269C30.446 35.6998 30.3463 35.8353 30.2375 35.7089C30.1378 35.8805 30.0291 35.5643 29.9384 35.6818C29.8387 35.6818 29.739 35.6908 29.6484 35.6547C29.5578 35.3927 29.4581 35.6095 29.3674 35.6276C29.2768 35.6005 29.1861 35.7811 29.1046 35.6005C29.0139 35.5824 28.9323 35.465 28.8508 35.5734C28.7692 35.6095 28.6876 35.185 28.6151 35.5373C28.5426 35.6005 28.461 35.2662 28.3976 35.5011C28.3251 35.7179 28.2526 35.474 28.1891 35.465C28.1257 35.4559 28.0622 35.4379 27.9988 35.4289C27.4549 35.3114 27.1377 35.1759 27.1377 35.0314C27.1377 34.8688 27.5274 34.7243 28.1891 34.5978C28.2526 34.5888 28.3251 34.3991 28.3976 34.5617C28.4701 34.5617 28.5426 34.4171 28.6151 34.5255C28.6967 34.2816 28.7692 34.4804 28.8508 34.4894C28.9323 34.4804 29.0139 34.5526 29.1046 34.4533C29.1861 34.3087 29.2768 34.5255 29.3674 34.4262C29.4581 34.5797 29.5487 34.5346 29.6484 34.3991C29.739 34.5436 29.8387 34.3629 29.9384 34.372C30.0381 34.5978 30.1378 34.4442 30.2375 34.3449C30.3372 34.2636 30.446 34.381 30.5548 34.3268C30.6635 34.372 30.7723 34.2726 30.8811 34.3087C30.9898 34.2003 31.1077 34.1642 31.2164 34.2907C31.3343 34.2184 31.443 34.2726 31.5609 34.2726C31.6787 34.1823 31.7965 34.2816 31.9144 34.2636C32.0322 34.2184 32.1591 34.5075 32.2769 34.2545C32.3948 34.2184 32.5216 34.2907 32.6485 34.2545C32.7754 34.2907 32.9023 34.3178 33.0292 34.2545C33.1561 34.5075 33.283 34.3539 33.4099 34.2545C33.5368 34.1823 33.6637 34.2184 33.7906 34.2545C33.9175 34.2274 34.0444 34.2455 34.1713 34.2545C34.2982 34.1823 34.416 34.3629 34.5429 34.2545C34.6607 34.1461 34.7876 34.3629 34.9054 34.2636C35.0233 34.1913 35.1411 34.1552 35.2589 34.2726C35.3768 34.2726 35.4946 34.4984 35.6034 34.2907C35.7121 34.2455 35.83 33.9564 35.9387 34.3087C36.0475 34.2274 36.1563 34.4804 36.265 34.3268C36.3738 34.5797 36.4735 34.3358 36.5823 34.3449C36.682 34.39 36.7907 34.4804 36.8904 34.372C36.9901 34.2545 37.0898 34.4352 37.1805 34.3991C37.2711 34.2545 37.3708 34.5888 37.4615 34.4262C37.5521 34.4623 37.6427 34.4081 37.7243 34.4533C37.8059 34.11 37.8965 34.4533 37.9781 34.4894C38.0597 34.5346 38.1413 34.2636 38.2138 34.5255C38.2863 34.2636 38.3679 34.4894 38.4404 34.5617C38.5129 34.6339 38.5854 34.4533 38.6488 34.5978C38.7123 34.4171 38.7757 34.6972 38.8392 34.6339C38.9026 34.7514 38.957 34.6339 39.0114 34.6701C39.0658 34.6249 39.1202 34.643 39.1655 34.7152C39.2108 34.7333 39.2561 34.7423 39.3014 34.7604C39.5552 34.8417 39.6912 34.932 39.6912 35.0314Z" fill="black"/>
<path id="Vector_6" d="M21.2454 30.0357C21.3451 30.0357 21.4358 30.2615 21.5173 30.659C21.5264 30.7312 21.5445 30.8035 21.5627 30.8758C21.5898 30.9571 21.617 31.0384 21.5989 31.1197C21.472 31.21 21.8346 31.3003 21.6352 31.3997C21.5808 31.4991 21.6352 31.5984 21.6714 31.7068C21.7167 31.8152 21.5898 31.9236 21.7077 32.032C21.9524 32.1495 21.4358 32.2669 21.7439 32.3843C21.8074 32.5108 21.7893 32.6373 21.7802 32.7637C21.5898 32.8902 21.7802 33.0257 21.8164 33.1612C21.5898 33.2967 21.6895 33.4412 21.8436 33.5858C21.5355 33.7303 21.5808 33.8839 21.8708 34.0374C21.8708 34.0736 21.8708 34.1097 21.8618 34.1549C21.8618 34.2181 21.8436 34.2813 21.8346 34.3446C21.8255 34.471 21.8346 34.5975 21.898 34.7601C21.9161 35.0311 21.9796 35.3744 21.9252 35.6183C21.9433 35.6634 21.9615 35.7086 21.9796 35.7538C21.8618 35.9073 21.4901 35.8802 21.1367 35.7176C21.0369 35.826 20.8738 35.8622 20.7106 35.8531C20.5566 35.8531 20.339 35.7899 20.2846 35.7357C20.1034 35.6092 19.9312 35.9344 19.7499 35.7538C19.5686 35.7447 19.3783 35.808 19.197 35.7718C19.0066 35.6815 18.8254 35.5821 18.626 35.7809C18.4356 35.8351 18.2453 35.9073 18.0459 35.7899C17.8555 36.0248 17.6561 35.9164 17.4567 35.7899C17.357 35.808 17.2573 35.7809 17.1576 35.7538H17.1395H17.1032H17.0398C16.9945 35.7538 16.9491 35.7538 16.9038 35.7538C16.8132 35.7538 16.7225 35.7718 16.6138 35.808C16.4325 35.7899 16.2331 35.808 16.0337 35.8351C15.8343 35.8531 15.6167 35.8622 15.4808 35.808C15.517 35.5821 15.5533 35.3744 15.5624 35.1847C15.5624 34.995 15.5624 34.8324 15.4808 34.6698C15.4445 34.5885 15.4264 34.4981 15.4264 34.3988C15.4264 34.3536 15.4264 34.2994 15.4264 34.2542V34.182L15.4355 34.1458V34.1278C15.4717 34.0284 15.508 33.929 15.4808 33.8297C15.7074 33.6309 15.4083 33.4322 15.4808 33.2425C15.4627 33.0438 15.6077 32.8541 15.4808 32.6644C15.4445 32.4747 15.3992 32.285 15.4898 32.0953C15.1454 31.9056 15.5805 31.7249 15.508 31.5442C15.653 31.3636 15.4898 31.1829 15.5261 31.0113C15.5261 30.9932 15.517 30.9661 15.517 30.948V30.9029V30.8396C15.5261 30.7583 15.5442 30.6861 15.5624 30.6138C15.5895 30.4693 15.6167 30.3338 15.5442 30.1531C15.5533 30.0266 15.5442 29.8821 15.517 29.7285C15.4989 29.584 15.4898 29.4304 15.5352 29.3401C15.5714 29.3401 15.6077 29.3582 15.6439 29.3672C15.7074 29.2859 15.8977 29.322 16.0699 29.3672C16.2421 29.4124 16.3962 29.4575 16.505 29.3943C16.641 29.3943 16.7769 29.3943 16.9129 29.3943C16.9763 29.3943 17.0488 29.3943 17.1123 29.3943C17.1667 29.3943 17.1939 29.4033 17.2301 29.4124C17.3842 29.6743 17.5292 29.4575 17.6833 29.4395C17.8283 29.4666 17.9734 29.2859 18.1093 29.4666C18.2453 29.4846 18.3812 29.6021 18.5172 29.5027C18.6441 29.4666 18.78 29.8911 18.8979 29.5388C19.0248 29.4756 19.1426 29.8098 19.2514 29.575C19.3692 29.3582 19.478 29.6021 19.5867 29.6111C19.6955 29.6201 19.7952 29.6382 19.8949 29.6472C20.765 29.7647 21.2635 29.9002 21.2635 30.0357C21.2635 30.1983 20.6472 30.3428 19.5867 30.4693C19.478 30.4783 19.3692 30.668 19.2514 30.5054C19.1335 30.5054 19.0157 30.6499 18.8979 30.5415C18.771 30.7854 18.6441 30.5867 18.5172 30.5777C18.3903 30.5867 18.2543 30.5054 18.1093 30.6048C17.9734 30.7493 17.8283 30.5325 17.6833 30.6319C17.5383 30.4783 17.3842 30.5235 17.2301 30.659C17.1939 30.6228 17.1485 30.6048 17.1213 30.6048C17.1123 30.6048 17.0942 30.6048 17.0851 30.6228C17.0579 30.6499 17.0488 30.6951 17.0307 30.6861C16.9582 30.5686 16.9129 30.5506 16.8947 30.5777C16.8766 30.6048 16.8947 30.659 16.9219 30.7132V30.7312C16.9401 30.7674 16.931 30.7674 16.9219 30.7764C16.9129 30.7764 16.9038 30.7945 16.9219 30.8306C16.9038 30.8306 16.9219 30.8667 16.9219 30.8848C16.9219 30.8938 16.9401 30.9029 16.9401 30.9119V30.93C16.9401 30.93 16.9401 30.9751 16.9401 30.9932C17.0488 31.1739 17.0851 31.3455 16.9582 31.5262C17.0307 31.7068 16.9763 31.8875 16.9763 32.0772C17.067 32.2669 16.9673 32.4566 16.9854 32.6463C17.0307 32.836 16.7407 33.0347 16.9945 33.2244C17.0307 33.4141 16.9582 33.6129 16.9945 33.8116C16.9763 33.911 16.9582 34.0103 16.9582 34.1097V34.1278V34.1458C16.9582 34.1458 16.9763 34.1549 16.9945 34.1549C16.8676 34.2091 16.8494 34.2633 16.8676 34.2723C16.8857 34.2904 16.9491 34.2633 16.9945 34.2271C17.0851 34.1549 17.0488 34.191 17.067 34.2271L17.0851 34.2181H17.1123C17.212 34.2181 17.3117 34.2271 17.4114 34.2362C17.6108 34.1639 17.8102 34.3446 18.0005 34.2362C18.1999 34.1278 18.3903 34.3446 18.5806 34.2452C18.771 34.1729 18.9613 34.1368 19.1517 34.2542C19.342 34.2542 19.5233 34.4801 19.7046 34.2723C19.8858 34.2271 20.0671 33.9381 20.2393 34.2904C20.2575 34.2813 20.2846 34.2723 20.3028 34.2723H20.3209C20.3209 34.2723 20.339 34.2994 20.3572 34.3175C20.3843 34.3536 20.4297 34.3807 20.4115 34.3084C20.4841 34.4259 20.5294 34.4349 20.5384 34.4168C20.5566 34.3988 20.5294 34.3446 20.5384 34.3355C20.5384 34.3355 20.5384 34.3265 20.5384 34.3175C20.5656 34.3175 20.5928 34.3175 20.6109 34.3084C20.6291 34.2904 20.6109 34.2542 20.5656 34.2091C20.5022 34.1639 20.5203 34.1639 20.5475 34.1458C20.5566 34.1458 20.5747 34.1278 20.5838 34.1187C20.5928 34.0916 20.5928 34.0465 20.5838 34.0103C20.4387 33.8568 20.7741 33.7122 20.6109 33.5587C20.6472 33.4141 20.5928 33.2696 20.6381 33.1341C20.2937 32.9986 20.6381 32.8631 20.6653 32.7366C20.7197 32.6011 20.4387 32.4747 20.7016 32.3572C20.4387 32.2308 20.6653 32.1133 20.7378 32.0049C20.8103 31.8875 20.6291 31.7791 20.7741 31.6797C20.5928 31.5713 20.8738 31.472 20.8103 31.3726C20.9282 31.2732 20.8103 31.1829 20.8466 31.0926C20.8013 31.0022 20.8194 30.9209 20.8829 30.8487C20.901 30.7674 20.9101 30.6951 20.9282 30.6319C21.0098 30.2254 21.1095 30.0086 21.2001 30.0086L21.2454 30.0357Z" fill="black"/>
<path id="Vector_7" d="M39.6912 44.3629C39.6912 44.4622 39.5552 44.5525 39.3014 44.6338C39.2561 44.6519 39.2108 44.6609 39.1655 44.679C39.1202 44.7061 39.0658 44.7332 39.0114 44.7151C38.957 44.5887 38.9026 44.95 38.8392 44.7513C38.7757 44.6971 38.7123 44.7513 38.6488 44.7874C38.5854 44.8326 38.5129 44.7061 38.4404 44.8235C38.3679 45.0674 38.2953 44.5525 38.2138 44.8597C38.1413 44.9229 38.0597 44.9048 37.9781 44.8958C37.8965 44.7061 37.815 44.8958 37.7243 44.932C37.6337 44.7061 37.5521 44.8055 37.4615 44.959C37.3708 44.6519 37.2802 44.6971 37.1805 44.9861C37.0808 44.9952 36.9901 44.8778 36.8904 45.0133C36.7907 45.0313 36.691 45.0945 36.5823 45.0403C36.4826 45.2481 36.3738 45.2391 36.265 45.0584C36.1563 45.2842 36.0475 45.1939 35.9387 45.0765C35.83 44.95 35.7121 45.2662 35.6034 45.0945C35.4855 45.0765 35.3768 45.1487 35.2589 45.1126C35.1411 45.0223 35.0233 44.9229 34.9054 45.1216C34.7876 45.1758 34.6607 45.2481 34.5429 45.1307C34.416 45.3655 34.2982 45.2662 34.1713 45.1307C34.0444 45.1668 33.9175 45.0042 33.7906 45.1307C33.6637 45.0945 33.5368 45.2391 33.4099 45.1307C33.283 45.0584 33.1561 44.9861 33.0292 45.1307C32.9023 45.2842 32.7754 45.0674 32.6485 45.1307C32.5216 44.9048 32.4038 45.2029 32.2769 45.1307C32.1591 45.1487 32.0322 45.0042 31.9144 45.1216C31.7965 45.1578 31.6787 45.2029 31.5609 45.1126C31.443 45.4559 31.3252 45.0223 31.2164 45.0945C31.1077 44.95 30.9898 45.1126 30.8811 45.0765C30.7723 45.1397 30.6635 44.9229 30.5548 45.0584C30.446 45.0313 30.3463 45.1668 30.2375 45.0403C30.1378 45.212 30.0291 44.8958 29.9384 45.0133C29.8387 45.0133 29.739 45.0223 29.6484 44.9861C29.5578 44.7242 29.4581 44.941 29.3674 44.959C29.2768 44.9319 29.1861 45.1126 29.1046 44.932C29.0139 44.9139 28.9323 44.7964 28.8508 44.8958C28.7692 44.9319 28.6876 44.5074 28.6151 44.8597C28.5426 44.9229 28.461 44.5887 28.3976 44.8235C28.3251 45.0403 28.2526 44.7965 28.1891 44.7874C28.1257 44.7784 28.0622 44.7603 27.9988 44.7513C27.4549 44.6338 27.1377 44.4984 27.1377 44.3629C27.1377 44.2003 27.5274 44.0557 28.1891 43.9293C28.2526 43.9202 28.3251 43.7305 28.3976 43.8931C28.4701 43.8931 28.5426 43.7486 28.6151 43.857C28.6967 43.6131 28.7692 43.8118 28.8508 43.8208C28.9323 43.8118 29.0139 43.8841 29.1046 43.7847C29.1861 43.6402 29.2768 43.857 29.3674 43.7576C29.4581 43.9112 29.5487 43.866 29.6484 43.7305C29.739 43.8751 29.8387 43.7034 29.9384 43.7034C30.0381 43.9293 30.1378 43.7757 30.2375 43.6763C30.3372 43.595 30.446 43.7125 30.5548 43.6583C30.6635 43.7034 30.7723 43.6041 30.8811 43.6402C30.9898 43.5318 31.1077 43.4957 31.2164 43.6221C31.3343 43.5499 31.443 43.6041 31.5609 43.6041C31.6787 43.5137 31.7965 43.6131 31.9144 43.595C32.0322 43.5498 32.1591 43.8389 32.2769 43.586C32.3948 43.5499 32.5216 43.6221 32.6485 43.586C32.7754 43.6131 32.9023 43.6492 33.0292 43.586C33.1561 43.8389 33.283 43.6854 33.4099 43.586C33.5368 43.5137 33.6637 43.5499 33.7906 43.586C33.9175 43.5589 34.0444 43.577 34.1713 43.586C34.2982 43.5137 34.416 43.6944 34.5429 43.586C34.6607 43.4776 34.7876 43.6944 34.9054 43.595C35.0233 43.5227 35.1411 43.4866 35.2589 43.6041C35.3768 43.6041 35.4946 43.8299 35.6034 43.6221C35.7121 43.577 35.83 43.2969 35.9387 43.6402C36.0475 43.5499 36.1563 43.8028 36.265 43.6583C36.3738 43.9112 36.4735 43.6673 36.5823 43.6763C36.682 43.7215 36.7907 43.8118 36.8904 43.7034C36.9901 43.586 37.0898 43.7667 37.1805 43.7305C37.2711 43.586 37.3708 43.9202 37.4615 43.7576C37.5521 43.7937 37.6427 43.7396 37.7243 43.7847C37.8059 43.4415 37.8965 43.7847 37.9781 43.8208C38.0597 43.866 38.1413 43.595 38.2138 43.857C38.2863 43.595 38.3679 43.8209 38.4404 43.8931C38.5129 43.9654 38.5854 43.7847 38.6488 43.9293C38.7123 43.7486 38.7757 44.0286 38.8392 43.9654C38.9026 44.0828 38.957 43.9654 39.0114 44.0015C39.0658 43.9654 39.1202 43.9744 39.1655 44.0377C39.2108 44.0557 39.2561 44.0647 39.3014 44.0828C39.5552 44.1641 39.6912 44.2635 39.6912 44.3538V44.3629Z" fill="black"/>
<path id="Vector_8" d="M39.6912 49.3672C39.6912 49.4666 39.5552 49.5569 39.3014 49.6382C39.2561 49.6563 39.2108 49.6653 39.1655 49.6834C39.1202 49.7105 39.0658 49.7376 39.0114 49.7195C38.957 49.5931 38.9026 49.9544 38.8392 49.7557C38.7757 49.7015 38.7123 49.7557 38.6488 49.7918C38.5854 49.837 38.5129 49.7105 38.4404 49.8279C38.3679 50.0718 38.2953 49.5569 38.2138 49.8641C38.1413 49.9273 38.0597 49.9092 37.9781 49.9002C37.8965 49.7105 37.815 49.9002 37.7243 49.9273C37.6337 49.7015 37.5521 49.8008 37.4615 49.9544C37.3708 49.6473 37.2802 49.6924 37.1805 49.9815C37.0808 49.9905 36.9901 49.8731 36.8904 50.0086C36.7907 50.0267 36.691 50.0899 36.5823 50.0357C36.4826 50.2435 36.3738 50.2344 36.265 50.0538C36.1563 50.2796 36.0475 50.1893 35.9387 50.0718C35.83 49.9454 35.7121 50.2706 35.6034 50.0899C35.4855 50.0718 35.3768 50.1441 35.2589 50.108C35.1411 50.0176 35.0233 49.9183 34.9054 50.117C34.7876 50.1712 34.6607 50.2435 34.5429 50.117C34.416 50.3519 34.2982 50.2525 34.1713 50.117C34.0444 50.1531 33.9175 49.9905 33.7906 50.117C33.6637 50.0809 33.5368 50.2254 33.4099 50.117C33.283 50.0447 33.1561 49.9725 33.0292 50.117C32.9023 50.2706 32.7754 50.0538 32.6485 50.117C32.5216 49.8912 32.4038 50.1893 32.2769 50.117C32.1591 50.1351 32.0322 49.9905 31.9144 50.117C31.7965 50.1531 31.6787 50.1983 31.5609 50.108C31.443 50.4512 31.3252 50.0176 31.2164 50.0899C31.1077 49.9454 30.9898 50.108 30.8811 50.0718C30.7723 50.1351 30.6635 49.9183 30.5548 50.0538C30.446 50.0267 30.3463 50.1622 30.2375 50.0357C30.1378 50.2073 30.0291 49.8912 29.9384 50.0086C29.8387 50.0086 29.739 50.0176 29.6484 49.9815C29.5578 49.7195 29.4581 49.9363 29.3674 49.9544C29.2768 49.9273 29.1861 50.108 29.1046 49.9273C29.0139 49.9092 28.9323 49.7918 28.8508 49.9002C28.7692 49.9363 28.6876 49.5118 28.6151 49.8641C28.5426 49.9273 28.461 49.5931 28.3976 49.8279C28.3251 50.0447 28.2526 49.8008 28.1891 49.7918C28.1257 49.7828 28.0622 49.7647 27.9988 49.7557C27.4549 49.6382 27.1377 49.5027 27.1377 49.3582C27.1377 49.1956 27.5274 49.0511 28.1891 48.9246C28.2526 48.9156 28.3251 48.7259 28.3976 48.8885C28.4701 48.8885 28.5426 48.7439 28.6151 48.8523C28.6967 48.6084 28.7692 48.8072 28.8508 48.8162C28.9323 48.8072 29.0139 48.8885 29.1046 48.7891C29.1861 48.6446 29.2768 48.8614 29.3674 48.762C29.4581 48.9156 29.5487 48.8704 29.6484 48.7349C29.739 48.8794 29.8387 48.7078 29.9384 48.7078C30.0381 48.9336 30.1378 48.771 30.2375 48.6807C30.3372 48.5994 30.446 48.7168 30.5548 48.6626C30.6635 48.7078 30.7723 48.6084 30.8811 48.6446C30.9898 48.5362 31.1077 48.5 31.2164 48.6265C31.3343 48.5542 31.443 48.6084 31.5609 48.6084C31.6787 48.5181 31.7965 48.6175 31.9144 48.5994C32.0322 48.5542 32.1591 48.8433 32.2769 48.5994C32.3948 48.5633 32.5216 48.6355 32.6485 48.5994C32.7754 48.6265 32.9023 48.6626 33.0292 48.5994C33.1561 48.8433 33.283 48.6897 33.4099 48.5994C33.5368 48.5271 33.6637 48.5633 33.7906 48.5994C33.9175 48.5723 34.0444 48.5904 34.1713 48.5994C34.2982 48.5271 34.416 48.7078 34.5429 48.5994C34.6607 48.491 34.7876 48.7078 34.9054 48.5994C35.0233 48.5271 35.1411 48.491 35.2589 48.6084C35.3768 48.6084 35.4946 48.8343 35.6034 48.6265C35.7121 48.5813 35.83 48.3013 35.9387 48.6446C36.0475 48.5542 36.1563 48.8162 36.265 48.6626C36.3738 48.9156 36.4735 48.6717 36.5823 48.6807C36.682 48.7259 36.7907 48.8162 36.8904 48.7078C36.9901 48.5904 37.0898 48.771 37.1805 48.7349C37.2711 48.5904 37.3708 48.9246 37.4615 48.762C37.5521 48.7981 37.6427 48.7439 37.7243 48.7891C37.8059 48.4458 37.8965 48.7891 37.9781 48.8162C38.0597 48.8704 38.1413 48.5904 38.2138 48.8523C38.2863 48.5904 38.3679 48.8162 38.4404 48.8885C38.5129 48.9607 38.5854 48.7801 38.6488 48.9246C38.7123 48.7439 38.7757 49.024 38.8392 48.9607C38.9026 49.0782 38.957 48.9607 39.0114 48.9969C39.0658 48.9517 39.1202 48.9698 39.1655 49.033C39.2108 49.0511 39.2561 49.0601 39.3014 49.0782C39.5552 49.1595 39.6912 49.2588 39.6912 49.3492V49.3672Z" fill="black"/>
<path id="Vector_9" d="M21.2457 44.3719C21.3454 44.3719 21.436 44.5887 21.5176 44.9952C21.5267 45.0584 21.5448 45.1397 21.5629 45.2119C21.5901 45.2932 21.6173 45.3745 21.5992 45.4558C21.4723 45.5462 21.8348 45.6365 21.6354 45.7359C21.5811 45.8352 21.6354 45.9346 21.6717 46.043C21.717 46.1514 21.5901 46.2598 21.708 46.3772C21.9527 46.4947 21.436 46.6121 21.7442 46.7295C21.8077 46.856 21.7895 46.9825 21.7805 47.1089C21.5901 47.2354 21.7805 47.3709 21.8167 47.5154C21.5901 47.6509 21.6898 47.7955 21.8439 47.94C21.5357 48.0845 21.5811 48.2381 21.8711 48.3826C21.8711 48.4278 21.8711 48.4549 21.862 48.5091C21.862 48.5723 21.8439 48.6356 21.8348 48.6988C21.8258 48.8253 21.8348 48.9517 21.8983 49.1143C21.9164 49.3853 21.9799 49.7286 21.9255 49.9725C21.9436 50.0177 21.9617 50.0628 21.9799 50.108C21.862 50.2616 21.4904 50.2345 21.1369 50.0809C21.0372 50.1893 20.8741 50.2254 20.7109 50.2164C20.5478 50.2164 20.3393 50.1532 20.2849 50.099C20.1036 49.9725 19.9314 50.2977 19.7502 50.117C19.5689 50.099 19.3876 50.1712 19.1973 50.1351C19.0069 50.0448 18.8256 49.9454 18.6262 50.1441C18.4359 50.1983 18.2365 50.2706 18.0461 50.1441C17.8467 50.379 17.6564 50.2796 17.457 50.1441C17.3573 50.1622 17.2576 50.1351 17.1579 50.108H17.1397H17.1035H17.031C17.031 50.108 16.9403 50.108 16.895 50.108C16.8044 50.108 16.7137 50.1261 16.605 50.1622C16.4237 50.1441 16.2243 50.1622 16.0249 50.1893C15.8255 50.2074 15.608 50.2164 15.472 50.1622C15.5082 49.9364 15.5445 49.7286 15.5536 49.5389C15.5536 49.3492 15.5536 49.1956 15.472 49.024C15.4357 48.9427 15.4176 48.8433 15.4176 48.753C15.4176 48.7078 15.4176 48.6536 15.4176 48.6085V48.5362L15.4267 48.5001V48.482C15.4629 48.3826 15.4992 48.2833 15.472 48.1839C15.6986 47.9852 15.3995 47.7864 15.472 47.5967C15.4539 47.398 15.5989 47.2083 15.472 47.0186C15.4357 46.8289 15.3904 46.6392 15.4811 46.4585C15.1366 46.2688 15.5717 46.0882 15.4992 45.9075C15.6442 45.7268 15.4811 45.5462 15.5173 45.3655C15.5173 45.3475 15.5082 45.3204 15.5082 45.3023V45.2571V45.1939C15.5173 45.1126 15.5354 45.0403 15.5536 44.968C15.5808 44.8235 15.608 44.688 15.5354 44.5074C15.5445 44.3809 15.5354 44.2364 15.5082 44.0828C15.4901 43.9383 15.4811 43.7847 15.5264 43.6944C15.5626 43.6944 15.5989 43.7124 15.6442 43.7305C15.7077 43.6492 15.898 43.6853 16.0702 43.7305C16.2424 43.7757 16.3965 43.8208 16.5053 43.7576C16.6412 43.7576 16.7772 43.7576 16.9132 43.7576C16.9766 43.7576 17.0491 43.7576 17.1126 43.7576C17.1669 43.7576 17.1941 43.7666 17.2304 43.7757C17.3845 44.0467 17.5295 43.8208 17.6745 43.8028C17.8195 43.8299 17.9646 43.6492 18.1005 43.8299C18.2365 43.8479 18.3724 43.9654 18.5084 43.857C18.6353 43.8208 18.7712 44.2454 18.8891 43.8931C19.016 43.8299 19.1338 44.1641 19.2426 43.9292C19.3604 43.7124 19.4692 43.9563 19.5779 43.9654C19.6867 43.9744 19.7864 43.9925 19.8861 44.0015C20.7562 44.1189 21.2548 44.2544 21.2548 44.3899C21.2548 44.5525 20.6384 44.697 19.5779 44.8235C19.4692 44.8325 19.3604 45.0222 19.2426 44.8597C19.1247 44.8597 19.0069 45.0042 18.8891 44.8958C18.7712 45.1397 18.6353 44.941 18.5084 44.9319C18.3815 44.941 18.2455 44.8687 18.1005 44.959C17.9646 45.1036 17.8195 44.8867 17.6745 44.9861C17.5295 44.8325 17.3754 44.8777 17.2304 45.0132C17.1941 44.9771 17.1488 44.959 17.1216 44.959C17.1126 44.959 17.0944 44.959 17.0854 44.9771C17.0582 45.0042 17.0491 45.0494 17.031 45.0403C16.9585 44.9229 16.9132 44.9139 16.895 44.9319C16.8769 44.959 16.895 45.0132 16.9222 45.0674V45.0855C16.9403 45.1216 16.9313 45.1216 16.9222 45.1306C16.9132 45.1306 16.9041 45.1487 16.9222 45.1849C16.9041 45.1849 16.9222 45.221 16.9222 45.2391C16.9222 45.2481 16.9403 45.2571 16.9403 45.2662V45.2842C16.9403 45.3023 16.9403 45.3294 16.9403 45.3475C17.0491 45.5281 17.0854 45.6997 16.9585 45.8894C17.031 46.0701 16.9766 46.2508 16.9766 46.4405C17.0672 46.6302 16.9675 46.8108 16.9857 47.0005C17.031 47.1902 16.7409 47.389 16.9947 47.5787C17.031 47.7684 16.9585 47.9671 16.9947 48.1658C16.9766 48.2652 16.9585 48.3646 16.9585 48.4639V48.482V48.5001C16.9585 48.5001 16.9766 48.5091 16.9947 48.5091C16.8678 48.5633 16.8497 48.6175 16.8678 48.6265C16.886 48.6446 16.9494 48.6175 16.9947 48.5814C17.0854 48.5091 17.0491 48.5452 17.0672 48.5814L17.0854 48.5723H17.1126C17.2123 48.5723 17.312 48.5814 17.4117 48.5904C17.6111 48.5181 17.8105 48.6988 18.0008 48.5904C18.1912 48.482 18.3906 48.6988 18.5809 48.5904C18.7712 48.5181 18.9616 48.482 19.1519 48.5994C19.3423 48.5994 19.5236 48.8253 19.7048 48.6175C19.8861 48.5723 20.0674 48.2923 20.2396 48.6356C20.2577 48.6265 20.2849 48.6175 20.303 48.6175H20.3212C20.3212 48.6265 20.3393 48.6446 20.3574 48.6627C20.3846 48.6988 20.4299 48.7259 20.4118 48.6446C20.4843 48.762 20.5296 48.7711 20.5387 48.753C20.5478 48.7349 20.5296 48.6807 20.5387 48.6717C20.5387 48.6717 20.5387 48.6627 20.5387 48.6536C20.5659 48.6536 20.5931 48.6536 20.6112 48.6536C20.6293 48.6356 20.6112 48.5994 20.5659 48.5543C20.5025 48.5091 20.5206 48.5091 20.5478 48.491C20.5568 48.491 20.575 48.473 20.584 48.4639C20.5931 48.4459 20.5931 48.3917 20.584 48.3555C20.439 48.202 20.7744 48.0574 20.6112 47.9129C20.6475 47.7684 20.5931 47.6238 20.6384 47.4883C20.294 47.3528 20.6384 47.2173 20.6656 47.0818C20.72 46.9554 20.439 46.8289 20.7019 46.7024C20.439 46.576 20.6656 46.4585 20.7381 46.3501C20.8106 46.2327 20.6293 46.1243 20.7744 46.0159C20.5931 45.9075 20.8741 45.8081 20.8106 45.7088C20.9285 45.6094 20.8106 45.5191 20.8469 45.4288C20.8016 45.3384 20.8197 45.2571 20.8831 45.1849C20.9013 45.1036 20.9103 45.0313 20.9285 44.968C21.01 44.5615 21.1097 44.3448 21.2004 44.3448L21.2457 44.3719Z" fill="black"/>
<path id="Vector_10" d="M39.6912 58.6985C39.6912 58.7979 39.5552 58.8882 39.3014 58.9695C39.2561 58.9876 39.2108 58.9966 39.1655 59.0147C39.1202 59.0418 39.0658 59.0689 39.0114 59.0508C38.957 58.9244 38.9026 59.2857 38.8392 59.087C38.7757 59.0328 38.7123 59.087 38.6488 59.1231C38.5854 59.1683 38.5129 59.0418 38.4404 59.1592C38.3679 59.4031 38.2953 58.8882 38.2138 59.1954C38.1413 59.2586 38.0597 59.2405 37.9781 59.2315C37.8965 59.0418 37.815 59.2315 37.7243 59.2676C37.6337 59.0418 37.5521 59.1412 37.4615 59.2947C37.3708 58.9876 37.2802 59.0328 37.1805 59.3218C37.0808 59.3309 36.9901 59.2134 36.8904 59.3489C36.7907 59.367 36.691 59.4302 36.5823 59.376C36.4826 59.5838 36.3738 59.5748 36.265 59.3941C36.1563 59.6199 36.0475 59.5296 35.9387 59.4122C35.83 59.2857 35.7121 59.6109 35.6034 59.4302C35.4855 59.4122 35.3768 59.4844 35.2589 59.4483C35.1411 59.358 35.0233 59.2586 34.9054 59.4573C34.7876 59.5115 34.6607 59.5838 34.5429 59.4573C34.416 59.6922 34.2982 59.5928 34.1713 59.4573C34.0444 59.4935 33.9175 59.3309 33.7906 59.4573C33.6637 59.4212 33.5368 59.5657 33.4099 59.4573C33.283 59.3851 33.1561 59.3128 33.0292 59.4573C32.9023 59.6109 32.7754 59.3941 32.6485 59.4573C32.5216 59.2315 32.4038 59.5296 32.2769 59.4573C32.1591 59.4754 32.0322 59.3309 31.9144 59.4573C31.7965 59.4935 31.6787 59.5386 31.5609 59.4483C31.443 59.7916 31.3252 59.358 31.2164 59.4302C31.1077 59.2857 30.9898 59.4483 30.8811 59.4122C30.7723 59.4754 30.6635 59.2586 30.5548 59.3941C30.446 59.367 30.3463 59.5025 30.2375 59.376C30.1378 59.5477 30.0291 59.2315 29.9384 59.3489C29.8387 59.3489 29.739 59.358 29.6484 59.3218C29.5578 59.0508 29.4581 59.2767 29.3674 59.2947C29.2768 59.2676 29.1861 59.4483 29.1046 59.2676C29.0139 59.2496 28.9323 59.1321 28.8508 59.2315C28.7692 59.2676 28.6876 58.8431 28.6151 59.1954C28.5426 59.2586 28.461 58.9244 28.3976 59.1592C28.3251 59.376 28.2526 59.1321 28.1891 59.1231C28.1257 59.1141 28.0622 59.096 27.9988 59.087C27.4549 58.9695 27.1377 58.834 27.1377 58.6895C27.1377 58.5269 27.5274 58.3824 28.1891 58.2559C28.2526 58.2469 28.3251 58.0572 28.3976 58.2198C28.4701 58.2198 28.5426 58.0752 28.6151 58.1836C28.6967 57.9397 28.7692 58.1385 28.8508 58.1475C28.9323 58.1385 29.0139 58.2107 29.1046 58.1114C29.1861 57.9668 29.2768 58.1836 29.3674 58.0843C29.4581 58.2378 29.5487 58.1927 29.6484 58.0572C29.739 58.2017 29.8387 58.021 29.9384 58.0301C30.0381 58.2559 30.1378 58.1023 30.2375 58.003C30.3372 57.9217 30.446 58.0391 30.5548 57.9849C30.6635 58.0301 30.7723 57.9307 30.8811 57.9668C30.9898 57.8584 31.1077 57.8223 31.2164 57.9488C31.3343 57.8765 31.443 57.9397 31.5609 57.9397C31.6787 57.8494 31.7965 57.9488 31.9144 57.9307C32.0322 57.8855 32.1591 58.1746 32.2769 57.9217C32.3948 57.8855 32.5216 57.9578 32.6485 57.9217C32.7754 57.9578 32.9023 57.9849 33.0292 57.9217C33.1561 58.1656 33.283 58.021 33.4099 57.9217C33.5368 57.8494 33.6637 57.8855 33.7906 57.9217C33.9175 57.8946 34.0444 57.9126 34.1713 57.9217C34.2982 57.8494 34.416 58.0301 34.5429 57.9217C34.6607 57.8133 34.7876 58.0301 34.9054 57.9307C35.0233 57.8584 35.1411 57.8223 35.2589 57.9397C35.3768 57.9397 35.4946 58.1656 35.6034 57.9488C35.7121 57.9036 35.83 57.6236 35.9387 57.9668C36.0475 57.8855 36.1563 58.1294 36.265 57.9849C36.3738 58.2378 36.4735 57.9939 36.5823 58.003C36.682 58.0481 36.7907 58.1385 36.8904 58.0301C36.9901 57.9126 37.0898 58.0933 37.1805 58.0572C37.2711 57.9126 37.3708 58.2469 37.4615 58.0843C37.5521 58.1204 37.6427 58.0662 37.7243 58.1114C37.8059 57.7681 37.8965 58.1114 37.9781 58.1475C38.0597 58.1927 38.1413 57.9217 38.2138 58.1836C38.2863 57.9217 38.3679 58.1475 38.4404 58.2198C38.5129 58.292 38.5854 58.1114 38.6488 58.2559C38.7123 58.0752 38.7757 58.3553 38.8392 58.292C38.9026 58.4095 38.957 58.292 39.0114 58.3282C39.0658 58.292 39.1202 58.3011 39.1655 58.3643C39.2108 58.3733 39.2561 58.3914 39.3014 58.4095C39.5552 58.4908 39.6912 58.5811 39.6912 58.6805V58.6985Z" fill="black"/>
<path id="Vector_11" d="M39.6912 63.7032C39.6912 63.7935 39.5552 63.8929 39.3014 63.9742C39.2561 63.9922 39.2108 64.0013 39.1655 64.0194C39.1202 64.0465 39.0658 64.0736 39.0114 64.0555C38.957 63.929 38.9026 64.2903 38.8392 64.0916C38.7757 64.0374 38.7123 64.0916 38.6488 64.1277C38.5854 64.1729 38.5129 64.0464 38.4404 64.1639C38.3679 64.4078 38.2953 63.8929 38.2138 64.2C38.1413 64.2632 38.0597 64.2452 37.9781 64.2361C37.8965 64.0464 37.815 64.2362 37.7243 64.2723C37.6337 64.0465 37.5521 64.1458 37.4615 64.2994C37.3708 63.9922 37.2802 64.0374 37.1805 64.3265C37.0808 64.3355 36.9901 64.2181 36.8904 64.3536C36.7907 64.3716 36.691 64.4349 36.5823 64.3807C36.4826 64.5884 36.3738 64.5794 36.265 64.3987C36.1563 64.6246 36.0475 64.5342 35.9387 64.4168C35.83 64.2903 35.7121 64.6155 35.6034 64.4349C35.4855 64.4259 35.3768 64.4891 35.2589 64.4529C35.1411 64.3626 35.0233 64.2632 34.9054 64.462C34.7876 64.5162 34.6607 64.5885 34.5429 64.471C34.416 64.7059 34.2982 64.6065 34.1713 64.471C34.0444 64.5072 33.9175 64.3446 33.7906 64.471C33.6637 64.4349 33.5368 64.5794 33.4099 64.471C33.283 64.3988 33.1561 64.3355 33.0292 64.471C32.9023 64.6246 32.7754 64.4078 32.6485 64.471C32.5216 64.2452 32.4038 64.5433 32.2769 64.471C32.1591 64.4891 32.0322 64.3445 31.9144 64.462C31.7965 64.4981 31.6787 64.5433 31.5609 64.4529C31.443 64.7962 31.3252 64.3626 31.2164 64.4349C31.1077 64.2904 30.9898 64.4529 30.8811 64.4168C30.7723 64.48 30.6635 64.2632 30.5548 64.3987C30.446 64.3716 30.3463 64.5071 30.2375 64.3807C30.1378 64.5523 30.0291 64.2361 29.9384 64.3536C29.8387 64.3536 29.739 64.3626 29.6484 64.3265C29.5578 64.0645 29.4581 64.2813 29.3674 64.2994C29.2768 64.2723 29.1861 64.4529 29.1046 64.2723C29.0139 64.2542 28.9323 64.1368 28.8508 64.2361C28.7692 64.2723 28.6876 63.8477 28.6151 64.2C28.5426 64.2632 28.461 63.929 28.3976 64.1639C28.3251 64.3807 28.2526 64.1368 28.1891 64.1277C28.1257 64.1187 28.0622 64.1006 27.9988 64.0916C27.4549 63.9742 27.1377 63.8387 27.1377 63.7032C27.1377 63.5406 27.5274 63.3961 28.1891 63.2696C28.2526 63.2606 28.3251 63.0709 28.3976 63.2335C28.4701 63.2335 28.5426 63.0889 28.6151 63.1973C28.6967 62.9534 28.7692 63.1521 28.8508 63.1612C28.9323 63.1521 29.0139 63.2244 29.1046 63.125C29.1861 62.9805 29.2768 63.1973 29.3674 63.0979C29.4581 63.2515 29.5487 63.2064 29.6484 63.0709C29.739 63.2154 29.8387 63.0438 29.9384 63.0438C30.0381 63.2696 30.1378 63.116 30.2375 63.0167C30.3372 62.9354 30.446 63.0528 30.5548 62.9986C30.6635 63.0437 30.7723 62.9444 30.8811 62.9805C30.9898 62.8721 31.1077 62.836 31.2164 62.9624C31.3343 62.8902 31.443 62.9444 31.5609 62.9444C31.6787 62.8541 31.7965 62.9534 31.9144 62.9353C32.0322 62.8902 32.1591 63.1793 32.2769 62.9263C32.3948 62.8902 32.5216 62.9625 32.6485 62.9263C32.7754 62.9534 32.9023 62.9896 33.0292 62.9263C33.1561 63.1793 33.283 63.0257 33.4099 62.9263C33.5368 62.8541 33.6637 62.8902 33.7906 62.9263C33.9175 62.8992 34.0444 62.9173 34.1713 62.9263C34.2982 62.8541 34.416 63.0347 34.5429 62.9263C34.6607 62.8179 34.7876 63.0347 34.9054 62.9353C35.0233 62.8631 35.1411 62.827 35.2589 62.9444C35.3768 62.9444 35.4946 63.1702 35.6034 62.9624C35.7121 62.9173 35.83 62.6373 35.9387 62.9805C36.0475 62.8902 36.1563 63.1431 36.265 62.9986C36.3738 63.2515 36.4735 63.0076 36.5823 63.0167C36.682 63.0618 36.7907 63.1522 36.8904 63.0438C36.9901 62.9263 37.0898 63.107 37.1805 63.0709C37.2711 62.9263 37.3708 63.2605 37.4615 63.0979C37.5521 63.1341 37.6427 63.0799 37.7243 63.125C37.8059 62.7818 37.8965 63.125 37.9781 63.1612C38.0597 63.2063 38.1413 62.9354 38.2138 63.1973C38.2863 62.9354 38.3679 63.1612 38.4404 63.2335C38.5129 63.3057 38.5854 63.1251 38.6488 63.2696C38.7123 63.0889 38.7757 63.369 38.8392 63.3057C38.9026 63.4232 38.957 63.3057 39.0114 63.3419C39.0658 63.2967 39.1202 63.3148 39.1655 63.378C39.2108 63.3961 39.2561 63.4051 39.3014 63.4231C39.5552 63.5044 39.6912 63.6038 39.6912 63.6942V63.7032Z" fill="black"/>
<path id="Vector_12" d="M21.2457 58.7073C21.3454 58.7073 21.436 58.9241 21.5176 59.3306C21.5267 59.3938 21.5448 59.4751 21.5629 59.5474C21.5901 59.6287 21.6173 59.71 21.5992 59.7913C21.4723 59.8816 21.8348 59.972 21.6354 60.0713C21.5811 60.1707 21.6354 60.2701 21.6717 60.3785C21.717 60.4869 21.5901 60.5953 21.708 60.7127C21.9527 60.8301 21.436 60.9476 21.7442 61.065C21.8077 61.1915 21.7895 61.3179 21.7805 61.4444C21.5901 61.5709 21.7805 61.7064 21.8167 61.8509C21.5901 61.9864 21.6898 62.1309 21.8439 62.2755C21.5357 62.42 21.5811 62.5736 21.8711 62.7181C21.8711 62.7633 21.8711 62.7904 21.862 62.8446C21.862 62.9078 21.8439 62.971 21.8348 63.0343C21.8258 63.1607 21.8348 63.2872 21.8983 63.4498C21.9164 63.7208 21.9799 64.0641 21.9255 64.2989C21.9436 64.3441 21.9617 64.3893 21.9799 64.4344C21.862 64.588 21.4904 64.5609 21.1369 64.4073C21.0372 64.5157 20.8741 64.5519 20.7109 64.5428C20.5478 64.5428 20.3393 64.4796 20.2849 64.4254C20.1036 64.2989 19.9314 64.6241 19.7502 64.4435C19.5689 64.4344 19.3876 64.4977 19.1973 64.4615C19.0069 64.3712 18.8256 64.2718 18.6262 64.4706C18.4359 64.5248 18.2365 64.597 18.0461 64.4796C17.8467 64.7145 17.6564 64.6151 17.457 64.4796C17.3573 64.4977 17.2576 64.4706 17.1579 64.4435H17.1397H17.1035H17.031C17.031 64.4435 16.9403 64.4344 16.895 64.4435C16.8044 64.4435 16.7137 64.4615 16.605 64.4977C16.4237 64.4796 16.2243 64.4977 16.0249 64.5248C15.8255 64.5428 15.608 64.5519 15.472 64.4977C15.5082 64.2718 15.5445 64.0641 15.5536 63.8744C15.5536 63.6847 15.5536 63.5311 15.472 63.3595C15.4357 63.2782 15.4176 63.1878 15.4176 63.0885C15.4176 63.0433 15.4176 62.9891 15.4176 62.9439V62.8717L15.4267 62.8355V62.8175C15.4629 62.7181 15.4992 62.6187 15.472 62.5194C15.6986 62.3206 15.3995 62.1219 15.472 61.9322C15.4539 61.7335 15.5989 61.5438 15.472 61.3541C15.4357 61.1644 15.3904 60.9747 15.4811 60.794C15.1366 60.6043 15.5717 60.4236 15.4992 60.243C15.6442 60.0623 15.4811 59.8816 15.5173 59.71C15.5173 59.6919 15.5082 59.6648 15.5082 59.6468V59.6016V59.5474C15.5173 59.4661 15.5354 59.3938 15.5536 59.3216C15.5808 59.177 15.608 59.0415 15.5354 58.8609C15.5445 58.7344 15.5354 58.5899 15.5082 58.4363C15.4901 58.2918 15.4811 58.1382 15.5264 58.0479C15.5626 58.0479 15.5989 58.0659 15.6442 58.084C15.7077 58.0027 15.898 58.0388 16.0702 58.084C16.2424 58.1292 16.3965 58.1743 16.5053 58.1111H16.9132C16.9766 58.1111 17.0491 58.1111 17.1126 58.1111C17.1669 58.1111 17.1941 58.1201 17.2304 58.1292C17.3845 58.3911 17.5295 58.1743 17.6745 58.1563C17.8195 58.1834 17.9646 58.0027 18.1005 58.1834C18.2365 58.2014 18.3724 58.3189 18.5084 58.2195C18.6353 58.1834 18.7712 58.6079 18.8891 58.2556C19.016 58.1924 19.1338 58.5266 19.2426 58.2918C19.3604 58.075 19.4692 58.3189 19.5779 58.3279C19.6867 58.3369 19.7864 58.355 19.8861 58.364C20.7562 58.4815 21.2548 58.617 21.2548 58.7615C21.2548 58.9241 20.6384 59.0686 19.5779 59.1951C19.4692 59.2041 19.3604 59.3938 19.2426 59.2312C19.1247 59.2312 19.0069 59.3758 18.8891 59.2674C18.7712 59.5113 18.6353 59.3125 18.5084 59.3035C18.3815 59.3125 18.2455 59.2403 18.1005 59.3396C17.9646 59.4842 17.8195 59.2674 17.6745 59.3667C17.5295 59.2132 17.3754 59.2583 17.2304 59.3938C17.1941 59.3577 17.1488 59.3396 17.1216 59.3396C17.1126 59.3396 17.0944 59.3396 17.0854 59.3577C17.0582 59.3848 17.0491 59.43 17.031 59.4209C16.9585 59.3035 16.9132 59.2854 16.895 59.3125C16.8769 59.3396 16.895 59.4029 16.9222 59.448V59.4661C16.9403 59.5022 16.9313 59.5022 16.9222 59.5113C16.9132 59.5113 16.9041 59.5293 16.9222 59.5655C16.9041 59.5655 16.9222 59.6016 16.9222 59.6197C16.9222 59.6287 16.9403 59.6377 16.9403 59.6468V59.6648C16.9403 59.6829 16.9403 59.71 16.9403 59.7281C17.0491 59.8997 17.0854 60.0804 16.9585 60.261C17.031 60.4417 16.9766 60.6224 16.9766 60.8121C17.0672 61.0018 16.9675 61.1915 16.9857 61.3721C17.031 61.5618 16.7409 61.7606 16.9947 61.9503C17.031 62.14 16.9585 62.3387 16.9947 62.5374C16.9766 62.6368 16.9585 62.7362 16.9585 62.8355V62.8536V62.8717C16.9585 62.8717 16.9766 62.8807 16.9947 62.8807C16.8678 62.9349 16.8497 62.9891 16.8678 62.9981C16.886 63.0162 16.9494 62.9891 16.9947 62.9439C17.0854 62.8717 17.0491 62.9078 17.0672 62.9439L17.0854 62.9349H17.1126C17.2123 62.9349 17.312 62.9439 17.4117 62.953C17.6111 62.8807 17.8105 63.0614 18.0008 62.953C18.1912 62.8446 18.3906 63.0614 18.5809 62.962C18.7712 62.8897 18.9616 62.8536 19.1519 62.971C19.3423 62.971 19.5236 63.1969 19.7048 62.9891C19.8861 62.9439 20.0674 62.6639 20.2396 63.0072C20.2577 62.9981 20.2849 62.9891 20.303 62.9891H20.3212C20.3212 62.9891 20.3393 63.0162 20.3574 63.0343C20.3846 63.0704 20.4299 63.0975 20.4118 63.0252C20.4843 63.1427 20.5296 63.1517 20.5387 63.1336C20.5478 63.1156 20.5296 63.0614 20.5387 63.0523C20.5387 63.0523 20.5387 63.0433 20.5387 63.0343C20.5659 63.0343 20.5931 63.0343 20.6112 63.0252C20.6293 63.0072 20.6112 62.971 20.5659 62.9259C20.5025 62.8807 20.5206 62.8807 20.5478 62.8626C20.5568 62.8626 20.575 62.8446 20.584 62.8355C20.5931 62.8175 20.5931 62.7633 20.584 62.7271C20.439 62.5736 20.7744 62.429 20.6112 62.2845C20.6475 62.14 20.5931 61.9954 20.6384 61.8599C20.294 61.7244 20.6384 61.5889 20.6656 61.4534C20.72 61.327 20.439 61.1915 20.7019 61.074C20.439 60.9566 20.6656 60.8301 20.7381 60.7217C20.8106 60.6043 20.6293 60.4959 20.7744 60.3875C20.5931 60.2791 20.8741 60.1797 20.8106 60.0804C20.9285 59.981 20.8106 59.8907 20.8469 59.8003C20.8016 59.71 20.8197 59.6287 20.8831 59.5564C20.9013 59.4842 20.9103 59.4029 20.9285 59.3396C21.01 58.9331 21.1097 58.7163 21.2004 58.7163L21.2457 58.7073Z" fill="black"/>
<path id="Vector_13" d="M27.9625 7.85912C27.9625 7.90429 27.9081 7.95848 27.8084 8.00365C27.7631 8.03075 27.6996 8.04882 27.6362 8.08495C27.5637 8.12108 27.4912 8.14819 27.4096 8.18432C27.3552 8.21142 27.2918 8.23852 27.2283 8.27465C27.2011 8.29272 27.1649 8.31982 27.1377 8.33788C27.1014 8.35595 27.0742 8.37402 27.038 8.38305C26.9201 8.29272 26.9836 8.64502 26.8295 8.50952C26.7298 8.50048 26.6754 8.57275 26.621 8.66308C26.5666 8.74438 26.4216 8.69018 26.4126 8.84375C26.4488 8.97022 26.3672 8.94312 26.2947 8.92505C26.2222 8.90698 26.1406 8.90698 26.2132 9.05152C26.1769 9.15992 26.1044 9.22315 26.0228 9.29542C25.914 9.26832 25.8778 9.32252 25.8687 9.37672C25.8597 9.43995 25.8687 9.51222 25.8506 9.56642C25.6059 9.53932 25.6149 9.70192 25.7146 9.87355C25.3793 9.83742 25.3702 10.009 25.6059 10.2078C25.5877 10.262 25.5515 10.3162 25.5243 10.3704C25.5062 10.3975 25.4971 10.4246 25.4971 10.4607C25.4971 10.4968 25.5152 10.5239 25.5424 10.5601C25.5424 10.6233 25.5424 10.6865 25.5515 10.7498C25.5515 10.813 25.5515 10.8762 25.5243 10.9395C25.624 11.0027 25.6875 11.0569 25.6875 11.1201C25.6875 11.1472 25.6875 11.1834 25.6603 11.2105C25.6421 11.2466 25.6149 11.2827 25.5787 11.3189C25.8143 11.4092 25.76 11.5357 25.6784 11.6983C25.6421 11.7796 25.7146 11.8247 25.769 11.8789C25.8325 11.9241 25.8959 11.9602 25.8415 12.0686C25.8597 12.1319 25.914 12.1861 25.9594 12.2403C25.9956 12.2945 26.05 12.3396 26.0772 12.4119C26.0772 12.4571 26.0772 12.4932 26.0863 12.5384C26.0863 12.5745 26.1044 12.6106 26.1316 12.6468C26.1678 12.71 26.2403 12.7461 26.3672 12.719C26.4398 12.7461 26.5123 12.7732 26.5757 12.8003C26.6392 12.8365 26.6845 12.8907 26.7117 12.972C26.9564 12.8455 27.0108 12.99 27.1014 13.1617C27.1739 13.1617 27.2283 13.2249 27.3008 13.2701C27.3643 13.3062 27.4368 13.3423 27.5274 13.2881C27.5999 13.3152 27.6724 13.3062 27.754 13.2881C27.8265 13.2701 27.899 13.2701 27.9806 13.3243C28.0531 13.3604 28.1347 13.3875 28.2163 13.3965C28.2979 13.3965 28.3704 13.3604 28.4338 13.2881C28.4882 13.1978 28.5607 13.1978 28.6423 13.2068C28.7148 13.2159 28.7964 13.2249 28.8598 13.1707C28.9686 13.252 29.032 13.1888 29.0864 13.1346C29.1408 13.0713 29.168 12.981 29.2496 12.981C29.3039 12.9358 29.3765 12.9178 29.449 12.8907C29.5215 12.8636 29.5849 12.8184 29.594 12.7281C29.6302 12.6648 29.6665 12.6016 29.7028 12.5474C29.7209 12.5203 29.7481 12.5022 29.7753 12.4751C29.8025 12.4571 29.8387 12.439 29.875 12.4209C29.7753 12.2674 29.8387 12.2312 29.9112 12.2041C29.9928 12.177 30.1106 12.168 30.1016 12.0867C30.1922 12.0596 30.2194 11.9964 30.2285 11.9241C30.2285 11.8518 30.2285 11.7796 30.2647 11.7254C30.2557 11.6531 30.301 11.5989 30.3554 11.5447C30.4097 11.4905 30.4279 11.4182 30.3735 11.346C30.3825 11.3098 30.3825 11.2827 30.3825 11.2466C30.3825 11.2105 30.3735 11.1834 30.3644 11.1472C30.3463 11.084 30.3644 11.0208 30.4188 10.9575C30.3282 10.8943 30.3644 10.8401 30.4007 10.7678C30.4369 10.7046 30.4732 10.6323 30.4007 10.5781L30.3825 10.4878L30.3644 10.3975C30.3463 10.3433 30.3463 10.28 30.3463 10.2168C30.4551 10.1174 30.4369 10.0542 30.4007 10.009C30.3554 9.95485 30.2738 9.93678 30.2375 9.88258C30.2194 9.75612 30.0019 9.76515 30.1016 9.57545C30.0834 9.52125 30.0744 9.45802 30.0562 9.40382C30.0381 9.34962 30.0109 9.30445 29.9294 9.29542C29.875 9.26832 29.9203 9.16895 29.9294 9.08765C29.9294 9.00635 29.9022 8.96118 29.7481 9.05152C29.6937 9.05152 29.7028 8.95215 29.6937 8.88892C29.6846 8.82568 29.6574 8.77148 29.5487 8.84375C29.3493 8.96118 29.4127 8.72632 29.3402 8.66308C29.2677 8.59985 29.1952 8.56372 29.1317 8.50952C28.4973 8.10302 27.9987 8.03075 27.9987 7.86815C27.9987 7.83202 28.035 7.78685 28.1166 7.75975C28.1891 7.72362 28.3069 7.68749 28.461 7.67845C28.7692 7.64232 29.2405 7.67845 29.7753 7.92235C29.875 7.96752 30.0925 7.87719 30.1016 8.09399C30.156 8.13012 30.2285 8.13915 30.2919 8.16625C30.3554 8.19335 30.4188 8.23852 30.4279 8.31982C30.5638 8.27465 30.6273 8.31982 30.6635 8.38305C30.6998 8.45532 30.7088 8.54565 30.7542 8.59985C30.8086 8.64502 30.8448 8.71728 30.8811 8.78955C30.9264 8.85278 30.9717 8.90698 31.0623 8.95215C31.2708 9.01538 31.1711 9.25928 31.3343 9.36768C31.2708 9.58448 31.3614 9.71095 31.5609 9.83742C31.5246 9.94582 31.5427 10.0271 31.5971 10.1084C31.6243 10.1445 31.6515 10.1897 31.6696 10.2349C31.6877 10.28 31.7059 10.3252 31.7149 10.3704C31.6152 10.4788 31.6152 10.5691 31.6424 10.6594C31.6696 10.7498 31.7421 10.8401 31.7875 10.9395C31.8328 11.0388 31.8146 11.1382 31.7965 11.2376C31.7965 11.2918 31.7784 11.3369 31.7693 11.3821C31.7603 11.4363 31.7603 11.4815 31.7693 11.5357C31.7059 11.7254 31.7512 11.9512 31.6515 12.1499C31.6696 12.2674 31.6606 12.3758 31.6334 12.4842C31.5971 12.5926 31.5246 12.6829 31.4249 12.7461C31.4158 12.8636 31.3524 12.9539 31.2889 13.0533C31.2255 13.1526 31.1439 13.2249 31.0805 13.3152C31.0623 13.3785 31.0351 13.4236 31.008 13.4778C30.9717 13.523 30.9354 13.5591 30.8901 13.6043C30.8086 13.6856 30.7088 13.7488 30.6363 13.8392C30.5638 13.9385 30.446 13.9656 30.3282 14.0108C30.2103 14.0469 30.1197 14.1102 30.0925 14.2728C29.9022 14.4263 29.6574 14.4715 29.458 14.607C29.3402 14.6341 29.2224 14.6612 29.1045 14.6883C28.9867 14.7154 28.8689 14.7606 28.7601 14.8148C28.6151 14.7154 28.4973 14.7064 28.3794 14.7425C28.2616 14.7696 28.1438 14.8328 28.0169 14.887C27.89 14.9141 27.7631 14.9232 27.6362 14.9051C27.5093 14.887 27.3915 14.8509 27.2736 14.8057C27.1467 14.8057 27.0289 14.7606 26.9111 14.7335C26.7932 14.6973 26.6845 14.6431 26.5666 14.598C26.4398 14.598 26.3401 14.5076 26.2403 14.4354C26.1406 14.3631 26.0591 14.2818 25.9231 14.2637C25.7872 14.2457 25.7146 14.1463 25.6331 14.056C25.5515 13.9656 25.488 13.8663 25.3702 13.8301C25.2614 13.785 25.1617 13.7217 25.0802 13.6314C25.0349 13.5862 25.0077 13.5411 24.9714 13.4959C24.9442 13.4417 24.9261 13.3875 24.917 13.3152C24.8536 13.2249 24.8264 13.1075 24.7992 12.99C24.772 12.8816 24.7086 12.7913 24.5726 12.7461C24.5001 12.6558 24.3823 12.5926 24.3097 12.5022C24.2372 12.4119 24.2191 12.2945 24.346 12.1409C24.2735 12.0506 24.2916 11.9331 24.2916 11.8247C24.2916 11.7163 24.3188 11.617 24.2191 11.5266C24.2735 11.4634 24.3007 11.4182 24.3097 11.364C24.3188 11.3098 24.3097 11.2647 24.2916 11.2195C24.2644 11.1292 24.1919 11.0298 24.201 10.9304C24.2282 10.8311 24.2735 10.7407 24.2916 10.6504C24.3097 10.5601 24.3279 10.4697 24.2825 10.3613C24.2554 10.3071 24.2554 10.262 24.2644 10.2168C24.2735 10.1716 24.3007 10.1265 24.3188 10.0903C24.3732 10.009 24.4185 9.92775 24.4366 9.83742C24.4004 9.72902 24.4729 9.65675 24.5454 9.59352C24.6179 9.53028 24.6995 9.47608 24.6542 9.36768C24.7539 9.23218 24.7992 9.06055 24.9261 8.95215C24.8264 8.78955 24.8808 8.72632 24.9623 8.69018C25.0439 8.65405 25.1617 8.65405 25.2252 8.60888C25.2977 8.57275 25.2977 8.48242 25.3249 8.40112C25.3521 8.32885 25.4065 8.27465 25.5515 8.31982C25.5152 8.17528 25.5606 8.12109 25.6421 8.10302C25.7146 8.08495 25.8143 8.10302 25.8869 8.10302C26.0228 8.08495 26.0409 7.86815 26.2132 7.93139C26.2222 7.70555 26.4669 7.91332 26.5304 7.81395C26.6754 7.87719 26.7207 7.74169 26.8295 7.74169C26.8658 7.70555 26.9111 7.68749 26.9564 7.67845C27.0017 7.67845 27.047 7.67845 27.1014 7.70555C27.183 7.70555 27.2646 7.68749 27.3371 7.68749C27.4458 7.68749 27.5455 7.69652 27.6271 7.70555C27.7087 7.71459 27.7812 7.74169 27.8356 7.75975C27.9444 7.79589 27.9987 7.84105 27.9987 7.89525L27.9625 7.85912Z" fill="black"/>
<path id="Vector_14" d="M51.9268 31.8513C51.9268 31.8062 52.0718 31.761 52.3528 31.7339C52.4978 31.7249 52.67 31.6978 52.8785 31.6978C53.087 31.7068 53.3226 31.7249 53.5945 31.7429C53.7758 31.761 53.9662 31.8062 54.1746 31.8423C54.2834 31.8604 54.3922 31.8694 54.5009 31.8875C54.6097 31.9146 54.7185 31.9507 54.8272 31.9959C54.9994 32.1946 55.3801 31.9326 55.5342 32.2398C55.643 32.3211 55.7608 32.3843 55.8877 32.4295C55.9511 32.4566 56.0146 32.4746 56.0871 32.5017C56.1506 32.5288 56.214 32.5559 56.2865 32.583C56.5584 32.7005 56.7488 32.9444 57.0569 33.0437C57.2563 33.0437 57.347 33.1883 57.4376 33.3328C57.5283 33.4773 57.6098 33.6309 57.8364 33.6309C57.9089 33.6761 57.9815 33.7212 58.0449 33.7754C58.1174 33.8296 58.1809 33.8838 58.2352 33.9471C58.3531 34.0735 58.4709 34.209 58.5797 34.3535C58.6341 34.5432 58.7338 34.6878 58.8697 34.8233C58.9966 34.9588 59.1598 35.0672 59.2776 35.2207C59.2776 35.6724 59.5767 35.9253 59.8849 36.2325C59.8577 36.3589 59.8486 36.4673 59.8667 36.5757C59.8667 36.6299 59.8849 36.6751 59.903 36.7293C59.9121 36.7745 59.9302 36.8287 59.9483 36.8738C60.0299 37.0635 60.1749 37.2171 60.3834 37.3707C60.4559 37.5694 60.474 37.7862 60.5193 37.994C60.5375 38.1024 60.5647 38.2017 60.6009 38.3101C60.6281 38.4185 60.6644 38.5179 60.7097 38.6263C60.7459 38.8431 60.8185 39.0599 60.8456 39.2857C60.8638 39.5116 60.8819 39.7374 60.8638 39.9723C60.9272 40.0897 60.9544 40.2071 60.9725 40.3246C60.9907 40.442 60.9997 40.5594 60.9907 40.6769C60.9907 40.7943 60.9635 40.9117 60.9363 41.0292C60.9 41.1466 60.8456 41.264 60.7822 41.3724C60.8185 41.4989 60.8366 41.6254 60.8366 41.7518C60.8366 41.8151 60.8366 41.8783 60.8366 41.9415C60.8275 42.0048 60.8094 42.059 60.7913 42.1222C60.7188 42.3571 60.61 42.5919 60.4922 42.8087C60.3471 43.0255 60.3109 43.2694 60.2565 43.5224C60.2021 43.7753 60.1115 44.0102 59.9211 44.2089L59.8396 44.3805L59.7399 44.5431C59.6764 44.6515 59.613 44.769 59.5495 44.8864C59.4317 45.1213 59.2776 45.329 59.1054 45.5278L58.8153 45.7988C58.7156 45.8801 58.6159 45.9704 58.5162 46.0607C58.4256 46.1511 58.3349 46.2504 58.2624 46.3588C58.1809 46.4672 58.0993 46.5756 58.0358 46.7021C57.8546 46.9008 57.6823 47.1176 57.4558 47.2802C57.2382 47.4519 57.0207 47.6235 56.7488 47.7048C56.4043 48.2016 55.8333 48.3823 55.2623 48.4726C55.1354 48.5268 54.9994 48.572 54.8635 48.6172C54.7275 48.6533 54.5916 48.6985 54.4556 48.7165C54.1746 48.7617 53.9027 48.834 53.6308 48.9514C53.3407 48.9785 53.0688 49.0508 52.7788 49.105C52.4887 49.1411 52.1987 49.1592 51.9086 49.123C51.6186 49.0688 51.3376 49.0237 51.0476 48.9966C50.7666 48.9604 50.4856 48.9243 50.1865 48.9514C49.8874 48.9785 49.6155 48.8701 49.3436 48.7798C49.2076 48.7346 49.0807 48.6623 48.9538 48.6081C48.8269 48.5539 48.691 48.4997 48.555 48.4636C48.5006 48.4094 48.4372 48.3733 48.3828 48.3281C48.3284 48.2829 48.265 48.2468 48.2015 48.2197C48.0837 48.1565 47.9477 48.1113 47.8118 48.0661L47.6124 48.0029C47.5489 47.9758 47.4855 47.9487 47.422 47.9216C47.2951 47.8584 47.1773 47.7951 47.0685 47.7048C46.8238 47.5783 46.6244 47.3796 46.425 47.1989C46.2165 47.0273 46.0262 46.8376 45.7815 46.7021C45.6727 46.6208 45.5639 46.5395 45.4642 46.4492C45.3645 46.3588 45.2739 46.2595 45.1832 46.1601C45.0926 46.0607 45.002 45.9614 44.9204 45.862C44.8479 45.7536 44.7754 45.6362 44.721 45.5187C44.576 45.4645 44.4672 45.3832 44.3766 45.2748C44.2859 45.1755 44.2406 45.049 44.1953 44.9225C44.15 44.7961 44.1137 44.6696 44.0684 44.5431C44.0503 44.4799 44.0231 44.4257 43.9959 44.3625C43.9687 44.2992 43.9415 44.245 43.9052 44.1908C43.8599 43.9289 43.733 43.7121 43.6243 43.4862C43.5155 43.2604 43.4067 43.0346 43.3342 42.7907C43.2345 42.5648 43.2164 42.3119 43.1801 42.068C43.1801 42.0048 43.162 41.9506 43.1529 41.8873C43.1529 41.8241 43.1439 41.7699 43.1348 41.7067C43.1167 41.5892 43.0895 41.4718 43.0351 41.3544C43.026 41.2369 42.9988 41.1195 42.9807 41.0021C42.9626 40.8846 42.9535 40.7672 42.9354 40.6498C42.9263 40.5323 42.9082 40.4149 42.9082 40.2975C42.9082 40.18 42.9173 40.0626 42.9626 39.9542C42.8901 39.7193 42.9354 39.4935 42.9898 39.2677C43.0442 39.0418 43.1439 38.8341 43.1167 38.6082C43.1348 38.4998 43.1529 38.3914 43.1711 38.283C43.1982 38.1746 43.2254 38.0753 43.2526 37.9669C43.3161 37.7591 43.3614 37.5513 43.452 37.3526C43.6514 37.199 43.733 37.0093 43.7783 36.8106C43.7965 36.7112 43.8237 36.6119 43.8508 36.5125C43.878 36.4131 43.9052 36.3138 43.9415 36.2234C44.1228 35.8711 44.1953 35.4466 44.5488 35.2117C44.6666 35.0581 44.8116 34.9317 44.9295 34.7962C45.0563 34.6607 45.1651 34.5161 45.2467 34.3535C45.3555 34.209 45.5458 34.1368 45.6999 34.0555C45.7724 34.0103 45.854 33.9651 45.9084 33.9019C45.9627 33.8386 45.999 33.7483 45.999 33.6309C46.1078 33.4954 46.2709 33.4321 46.425 33.3689C46.5791 33.3057 46.7241 33.2334 46.7785 33.0437C46.8963 32.6643 47.3042 32.7276 47.5489 32.583C47.6124 32.5469 47.6758 32.5108 47.7393 32.4837C47.8027 32.4475 47.8662 32.4295 47.9296 32.4024C48.0565 32.3482 48.1834 32.294 48.3012 32.2488C49.407 31.8152 50.3315 31.7158 50.9569 31.6978C51.5823 31.7158 51.9086 31.7791 51.9086 31.8513C51.9086 31.8875 51.8089 31.9326 51.6186 31.9868C51.528 32.0139 51.4101 32.032 51.2742 32.0591C51.2107 32.0772 51.1292 32.0862 51.0566 32.1043C50.9751 32.1223 50.8935 32.1494 50.8119 32.1675C50.114 32.3301 49.0898 32.6282 47.993 33.3418C47.7755 33.4954 47.6486 33.7664 47.3314 33.8116C47.2226 33.8929 47.1229 34.0103 47.0232 34.1096C46.9235 34.218 46.8329 34.3265 46.6788 34.3807C46.6516 34.5794 46.5428 34.6697 46.4341 34.7691C46.3162 34.8684 46.1712 34.9407 46.0624 35.0581C45.9537 35.1756 45.8449 35.293 45.7452 35.4195C45.6455 35.5459 45.5458 35.6814 45.4914 35.844C45.4642 36.0247 45.3645 36.1602 45.2558 36.2957C45.1379 36.4222 45.0473 36.5757 45.011 36.7474C44.9385 36.8106 44.8751 36.8738 44.8207 36.9551C44.7663 37.0274 44.721 37.1087 44.7029 37.199C44.6485 37.3707 44.6303 37.5604 44.6303 37.7501C44.4944 37.8946 44.4672 38.0843 44.44 38.274C44.44 38.3643 44.4219 38.4637 44.4128 38.554C44.4128 38.6534 44.4128 38.7437 44.3947 38.8341C44.2587 39.0057 44.1953 39.1954 44.2043 39.3941C44.2134 39.5929 44.2678 39.7916 44.304 39.9903C44.3131 40.0897 44.3312 40.1891 44.3403 40.2884C44.3403 40.3878 44.3403 40.4872 44.3403 40.5865C44.3403 40.6859 44.3403 40.7853 44.3403 40.8846C44.3584 40.984 44.3766 41.0834 44.4037 41.1827C44.4037 41.2821 44.4219 41.3815 44.44 41.4899C44.4491 41.535 44.4581 41.5892 44.4672 41.6434L44.5125 41.788C44.585 41.9867 44.6394 42.1764 44.6847 42.3842C44.8116 42.5648 44.9113 42.7455 44.9929 42.9352C45.0745 43.1249 45.156 43.3146 45.1923 43.5404C45.2286 43.5856 45.2558 43.6308 45.2829 43.6759L45.3736 43.8114C45.437 43.9018 45.4914 43.9921 45.5458 44.0824C45.6002 44.1728 45.6455 44.2721 45.7089 44.3625C45.7724 44.4528 45.8358 44.5431 45.8993 44.6335C45.9809 44.7057 46.0534 44.787 46.1259 44.8774C46.2075 44.9587 46.2709 45.04 46.3434 45.1213C46.4159 45.2116 46.4794 45.2929 46.5519 45.3832C46.6244 45.4645 46.715 45.5368 46.7966 45.6091C46.9779 45.7446 47.1048 45.9433 47.2679 46.1059C47.4311 46.2685 47.6033 46.4311 47.8752 46.4311C48.274 46.6479 48.6638 46.9189 49.1079 47.0544L49.4342 47.1989C49.543 47.2441 49.6517 47.2983 49.7605 47.3254C49.9871 47.3796 50.2228 47.4428 50.4584 47.4519C50.6669 47.6054 50.9116 47.6777 51.1563 47.6777C51.4011 47.6777 51.6458 47.6235 51.8905 47.5874C52.1352 47.5422 52.3709 47.5151 52.6066 47.5151C52.8422 47.497 53.0779 47.4699 53.3136 47.4519C53.5401 47.3977 53.7667 47.3254 53.9933 47.2712C54.1112 47.2441 54.2199 47.1989 54.3287 47.1628L54.6641 47.0544C55.0629 46.8105 55.5614 46.7653 55.8968 46.4311C56.069 46.2775 56.2593 46.1511 56.4587 46.0427C56.6672 45.9343 56.8485 45.7988 56.9754 45.6091C57.0479 45.5187 57.1204 45.4374 57.1929 45.3471C57.2563 45.2568 57.3289 45.1664 57.4014 45.0851C57.4739 45.0038 57.5555 44.9225 57.637 44.8503C57.7095 44.769 57.7911 44.6967 57.8818 44.6244C58.0086 44.4528 58.199 44.3083 58.3259 44.1366C58.3984 44.0553 58.4618 43.965 58.5072 43.8656C58.5344 43.8205 58.5525 43.7663 58.5706 43.7121C58.5797 43.6579 58.5887 43.6037 58.5887 43.5404C58.6612 43.3327 58.6884 43.1159 58.7338 42.9081C58.77 42.7003 58.8607 42.5197 59.0963 42.3751C59.1144 42.1674 59.196 41.9777 59.2867 41.7789C59.3048 41.7338 59.332 41.6796 59.3501 41.6344C59.3682 41.5892 59.3773 41.535 59.3864 41.4899C59.4045 41.3905 59.4045 41.2821 59.3864 41.1827C59.4589 41.0924 59.5133 40.993 59.5404 40.8937C59.5586 40.7943 59.5586 40.6949 59.5495 40.5865C59.5404 40.4872 59.5223 40.3878 59.5133 40.2884C59.5042 40.1891 59.4951 40.0897 59.4861 39.9903C59.5042 39.7916 59.5223 39.5929 59.5314 39.4032C59.5314 39.2044 59.4861 39.0238 59.4045 38.8431C59.3592 38.7528 59.332 38.6624 59.3229 38.5721C59.2957 38.4818 59.2867 38.3914 59.2776 38.3011C59.2504 38.1204 59.2595 37.9217 59.1779 37.7591C59.0419 37.6146 59.0329 37.4339 59.0147 37.2442C59.0147 37.199 59.0147 37.1539 58.9966 37.1087C58.9875 37.0635 58.9694 37.0184 58.9604 36.9822C58.9241 36.9009 58.8788 36.8287 58.8063 36.7654C58.6975 36.4312 58.4528 36.1783 58.3259 35.8621C58.0902 35.8169 57.9905 35.6995 57.9361 35.5369C57.8818 35.3833 57.8636 35.1936 57.7549 35.0672C57.6642 34.9317 57.5192 34.8594 57.3923 34.7691C57.3289 34.7239 57.2745 34.6787 57.2201 34.6155C57.1748 34.5613 57.1385 34.489 57.1294 34.3897C56.93 34.3897 56.8213 34.2903 56.7306 34.1819C56.64 34.0735 56.5675 33.929 56.4769 33.8206C56.2956 33.5767 55.9602 33.6128 55.8152 33.3508C55.7336 33.3508 55.6792 33.3418 55.6248 33.3057C55.5705 33.2786 55.5161 33.2334 55.4708 33.1883C55.3801 33.0979 55.2895 32.9986 55.1716 32.9715C55.0085 32.7456 54.7456 32.7818 54.5553 32.6824C54.4465 32.6643 54.3468 32.6372 54.2562 32.5921C54.1565 32.5559 54.0659 32.5198 53.9843 32.4566C53.803 32.3933 53.6308 32.3301 53.4676 32.2849C53.2229 32.2307 52.9963 32.1675 52.806 32.1223C52.6156 32.0772 52.4434 32.0591 52.3165 32.023C52.0537 31.9597 51.9086 31.9055 51.9086 31.8604L51.9268 31.8513Z" fill="black"/>
<path id="Vector_15" d="M55.1174 37.3076C55.1899 37.3708 55.1899 37.5153 55.1174 37.7231C55.1083 37.7592 55.0902 37.7954 55.0811 37.8315C55.0811 37.8767 55.0721 37.9309 55.0358 37.958C54.9089 37.9128 55.1537 38.1748 54.9724 38.0935C54.8999 38.0935 54.9089 38.1657 54.8999 38.238C54.8999 38.3103 54.7639 38.2741 54.8183 38.3916C54.9724 38.5903 54.5282 38.3103 54.7277 38.5542C54.7367 38.6445 54.6823 38.6806 54.6279 38.7258C54.4376 38.6535 54.5373 38.8252 54.5192 38.8974C54.3017 38.8071 54.3288 38.9245 54.4014 39.0781C54.1113 38.9336 54.1022 39.0239 54.2745 39.2678C54.2291 39.331 54.0932 39.313 54.1476 39.4665C54.1113 39.5388 54.1022 39.6382 54.0116 39.6743C54.1204 39.873 54.0569 39.9272 53.8666 39.8821C53.9844 40.0898 53.8666 40.0989 53.7125 40.0989C53.5584 40.0898 53.7488 40.3608 53.5493 40.3157C53.4768 40.3789 53.4678 40.4873 53.3862 40.5415C53.2593 40.5505 53.1143 40.5596 53.214 40.7673C53.1959 40.8757 53.1868 41.0022 53.0327 40.9932C53.1505 41.219 53.0055 41.228 52.8424 41.228C52.8061 41.3274 52.6158 41.3003 52.652 41.4629C52.5614 41.5171 52.5976 41.6887 52.4526 41.6978C52.3348 41.7339 52.2079 41.77 52.2532 41.9326C52.3076 42.1043 52.0719 42.0501 52.0538 42.1585C51.8181 42.0952 51.9813 42.3572 51.8544 42.3843C51.8272 42.4295 51.7728 42.4475 51.7275 42.4656C51.6641 42.5108 51.6006 42.574 51.5825 42.6824C51.5009 42.845 51.3921 43.0347 51.2381 43.0708C51.2652 43.3057 51.1837 43.3689 51.1112 43.3689C51.0296 43.3689 50.9571 43.3328 50.9118 43.4412C50.8392 43.4141 50.7939 43.4773 50.7486 43.5586C50.7033 43.6399 50.6489 43.7483 50.6036 43.7845C50.5492 43.9109 50.4857 43.8929 50.4314 43.9109C50.3951 43.8296 50.3589 43.7664 50.3135 43.8025C50.2682 43.7212 50.2229 43.7032 50.1685 43.658C50.1232 43.6219 50.0688 43.5586 50.0416 43.4141C49.9691 43.4683 49.9329 43.3599 49.9057 43.2515C49.8785 43.1431 49.8603 43.0437 49.7878 43.0528C49.7063 42.9444 49.6156 42.845 49.5612 42.7095C49.6066 42.5469 49.5794 42.4927 49.525 42.4656C49.4706 42.4385 49.389 42.4295 49.3528 42.3933C49.3437 42.3662 49.3165 42.3482 49.2893 42.3301C49.2712 42.3301 49.244 42.312 49.2259 42.303C49.1896 42.2849 49.1715 42.2578 49.2259 42.1765C49.1987 42.1043 49.2531 41.9868 49.1262 41.9959C49.0537 41.9688 49.3528 41.6526 49.0355 41.8242C48.9449 41.8152 49.1805 41.5623 48.954 41.6616C48.7455 41.752 48.9086 41.5532 48.8814 41.5081C48.8633 41.4539 48.8361 41.4087 48.818 41.3635C48.6458 40.948 48.6005 40.6589 48.7092 40.5776C48.8361 40.4783 49.1443 40.6409 49.5612 40.9932C49.6066 41.0293 49.7878 40.957 49.6881 41.1016C49.7244 41.1467 49.8694 41.1016 49.8241 41.219C50.0597 41.1196 49.9329 41.2913 49.9691 41.3545C50.0144 41.3997 49.9963 41.499 50.1141 41.499C50.1957 41.481 50.1957 41.5261 50.2048 41.5623C50.2048 41.5803 50.2048 41.6074 50.2138 41.6255C50.2138 41.6255 50.2229 41.6345 50.2501 41.6255C50.1504 41.7429 50.2138 41.761 50.3135 41.6616C50.2773 41.7339 50.2954 41.7429 50.3135 41.7249C50.3317 41.7158 50.3679 41.6797 50.3679 41.6887C50.3226 41.8152 50.3317 41.8513 50.3498 41.8423C50.3679 41.8242 50.3951 41.761 50.4132 41.7158C50.4314 41.6707 50.4314 41.6887 50.4314 41.7158C50.4314 41.7429 50.4314 41.77 50.4495 41.7339C50.4495 41.77 50.4495 41.761 50.4676 41.752C50.4676 41.7158 50.4767 41.6707 50.4858 41.6978C50.4858 41.5261 50.4676 41.49 50.5129 41.6345C50.5039 41.5352 50.522 41.5984 50.5401 41.5803C50.5039 41.481 50.5673 41.5713 50.5583 41.5352C50.5492 41.5081 50.5855 41.5532 50.6308 41.5623C50.6852 41.5442 50.7305 41.5171 50.667 41.3997C50.7033 41.3003 50.8211 41.2732 50.8574 41.1648C50.948 41.1106 51.0386 41.0564 51.0477 40.9299C51.3106 41.0112 51.2562 40.8306 51.2471 40.6951C51.2562 40.5686 51.3559 40.5144 51.4465 40.4602C51.4918 40.3699 51.5644 40.2976 51.6459 40.2344C51.6459 40.1079 51.8544 40.1531 51.8453 40.0085C51.8272 39.864 52.0538 39.9272 52.0357 39.7917C52.0357 39.6743 52.0719 39.5749 52.226 39.584C52.2895 39.5117 52.5251 39.584 52.4164 39.3762C52.4345 39.2768 52.2804 39.0239 52.6067 39.1775C52.6067 39.051 52.8514 39.1504 52.788 38.9878C53.0418 39.0871 52.9058 38.8613 52.9693 38.8071C53.0599 38.771 53.1777 38.771 53.1415 38.6355C53.1052 38.5 53.2956 38.5542 53.3137 38.4729C53.2502 38.3193 53.5584 38.4729 53.4768 38.3193C53.5493 38.2832 53.5493 38.1928 53.64 38.1748C53.4225 37.9038 53.7306 38.0664 53.7941 38.0393C53.8756 38.0212 53.7034 37.7954 53.9391 37.9128C53.785 37.696 53.9935 37.7954 54.0841 37.7954C54.1838 37.7954 54.0751 37.6418 54.2201 37.687C54.1113 37.5334 54.3651 37.6689 54.347 37.5966C54.4739 37.6328 54.4104 37.5244 54.4648 37.5153C54.4648 37.4521 54.5011 37.434 54.5736 37.4431C54.6098 37.425 54.6461 37.4069 54.6733 37.3889C54.8727 37.2895 55.0086 37.2534 55.0902 37.3166L55.1174 37.3076Z" fill="black"/>
</g>
<defs>
<clipPath id="clip0_1379_121">
<rect width="61" height="77" fill="white"/>
</clipPath>
</defs>
</svg>
