<svg width="76" height="77" viewBox="0 0 76 77" fill="none" xmlns="http://www.w3.org/2000/svg">
<g id="Isolation_Mode" clip-path="url(#clip0_1379_100)">
<path id="Vector" d="M53.4856 76.128C53.4856 76.128 53.1366 76.2258 52.4834 76.1102C52.1613 76.0479 51.7586 75.9411 51.3111 75.7365C50.8637 75.5407 50.3715 75.2471 49.8794 74.8378C49.5483 74.562 49.2261 74.2417 48.904 73.8769C48.5729 73.5121 48.2597 73.0939 48.0002 72.6134C47.9554 72.4799 47.9017 72.3554 47.8212 72.2397C47.7407 72.124 47.6601 72.0084 47.5707 71.8838C47.4006 71.6436 47.2485 71.3855 47.2306 71.0652C47.0695 70.4869 46.8279 69.8996 46.64 69.2679C46.4431 68.6362 46.4521 67.9421 46.2463 67.257C46.1657 67.088 46.1299 66.91 46.121 66.7321C46.121 66.5541 46.1389 66.3673 46.1568 66.1804C46.1747 65.9936 46.2015 65.8067 46.1926 65.6288V65.5576C46.1926 65.5576 46.1926 65.5309 46.1836 65.5131C46.1836 65.4864 46.1747 65.4686 46.1657 65.4419C46.1478 65.3974 46.121 65.3618 46.0852 65.3351C46.0852 65.2996 46.0673 65.264 46.0583 65.2284C46.0583 65.2106 46.0583 65.1928 46.0494 65.175H45.9868C45.9062 65.1928 45.8257 65.1928 45.7451 65.1928C45.593 65.1928 45.4319 65.1928 45.2798 65.1928C45.083 65.1928 44.8861 65.1928 44.6892 65.1839C43.8928 64.9881 43.0785 65.1839 42.2373 65.2195C41.3962 64.9881 40.5371 65.086 39.6512 65.2462C38.7653 64.9259 37.8615 64.9792 36.9308 65.2729C36.0002 65.2818 35.0516 65.1572 34.0941 65.2996C33.1277 65.3173 32.1434 65.3796 31.1411 65.3262C30.1389 65.5398 29.1098 65.5309 28.0718 65.344C27.0337 65.5754 25.9778 65.4864 24.904 65.3618C23.8302 65.2373 22.7384 65.5665 21.6378 65.3796C20.5371 65.3618 19.4096 65.433 18.2821 65.3974C17.1456 65.2996 16.0002 65.2017 14.8369 65.4063C13.6736 65.4597 12.5013 65.5398 11.3201 65.4152C10.1389 65.6644 8.93978 65.5487 7.73172 65.4152C6.52367 65.4508 5.30667 65.2818 4.07177 65.4152C3.5438 65.3974 3.01584 65.4152 2.47893 65.433H2.08519C1.96886 65.4508 1.76304 65.4508 1.79884 65.4508C1.77199 65.4508 1.74515 65.4508 1.70935 65.4508C1.70935 65.4686 1.69145 65.4775 1.67356 65.4953C1.67356 65.4953 1.67356 65.5131 1.65566 65.522V65.5398C1.65566 65.5398 1.65566 65.5398 1.64671 65.5576V65.611L1.61987 66.0736C1.60197 66.3851 1.59302 66.6965 1.58407 66.999C1.58407 67.6129 1.59302 68.2269 1.66461 68.8408C1.7004 69.1433 1.7183 69.4547 1.72725 69.7573C1.72725 70.0509 1.70935 70.389 1.72725 70.6203C1.70935 70.8784 1.75409 71.1275 1.78989 71.3766L1.89727 71.7503C1.93307 71.8749 1.9957 71.9817 2.0494 72.0973C2.05834 72.1596 2.06729 72.2308 2.09414 72.2931C2.12098 72.3554 2.13888 72.4176 2.16573 72.471C2.21942 72.5867 2.26416 72.7113 2.3447 72.818C2.41629 72.9248 2.49682 73.0316 2.57736 73.1384C2.66685 73.2362 2.76528 73.3252 2.85477 73.4231C2.94425 73.521 3.05163 73.5921 3.15007 73.6811C3.25745 73.7612 3.34694 73.8502 3.46327 73.9213C3.57065 74.0014 3.67803 74.0726 3.77647 74.1527C3.88385 74.2239 3.99123 74.295 4.09861 74.3751C4.55499 74.6332 5.01136 74.8912 5.51248 75.0602C5.75409 75.1581 6.0136 75.2115 6.27311 75.2649C6.39839 75.2916 6.53262 75.2916 6.66685 75.3094C6.79213 75.3183 6.92635 75.3272 7.06058 75.3094H7.45432C7.5796 75.3094 7.74067 75.3094 7.88385 75.3094C8.1702 75.3094 8.45656 75.2916 8.74291 75.2916C9.31562 75.2916 9.88832 75.3005 10.4521 75.3539C11.5885 74.998 12.7071 75.4428 13.8078 75.3717C14.9174 75.5229 16.0002 75.345 17.074 75.3895C18.1478 75.3272 19.2038 75.5496 20.2418 75.4073C21.2798 75.4339 22.3 75.2916 23.3111 75.425C24.3134 75.2471 25.2977 75.5763 26.2642 75.4517C27.2306 75.4517 28.1792 75.4428 29.1009 75.4784C30.0315 75.7543 30.9353 75.5229 31.8212 75.5051C32.7071 75.5318 33.5662 75.345 34.4073 75.5318C35.2485 75.5496 36.0628 75.6742 36.8592 75.5674C37.6557 75.5229 38.4252 75.9678 39.168 75.603C39.9107 75.5407 40.6355 75.8877 41.3335 75.6386C42.0315 75.4162 42.7026 75.6653 43.338 75.6742C43.9823 75.692 44.5997 75.7009 45.1814 75.7098C47.8302 75.772 49.9062 75.8343 51.329 75.9055C52.7519 75.9767 53.5125 76.0479 53.5125 76.1191C53.5125 76.1991 52.5729 76.2792 50.8369 76.3593C49.1009 76.4305 46.5505 76.5017 43.338 76.5639C42.6937 76.5728 42.0226 76.7686 41.3335 76.5995C40.6355 76.5995 39.9196 76.7508 39.168 76.6351C38.4252 76.8932 37.6467 76.6796 36.8592 76.6707C36.0628 76.6796 35.2485 76.5995 34.4073 76.7063C33.5662 76.8576 32.7071 76.6351 31.8212 76.733C30.9353 76.5728 30.0315 76.6173 29.1009 76.7597C28.1702 76.6084 27.2306 76.7953 26.2642 76.7864C25.2977 76.5461 24.3134 76.7152 23.3111 76.8131C22.3089 76.9021 21.2888 76.7775 20.2418 76.8398C19.2038 76.7953 18.1478 76.902 17.074 76.8576C16.0002 76.9643 14.9085 77.0088 13.8078 76.8754C12.7071 76.9554 11.5796 76.8932 10.4521 76.8932C9.88832 76.9376 9.31562 76.9376 8.74291 76.9287C8.45656 76.9287 8.1702 76.9198 7.88385 76.911C7.73172 76.911 7.60644 76.911 7.44537 76.911L6.96215 76.8932C6.80107 76.8932 6.64 76.8754 6.47893 76.8487C6.31785 76.822 6.15678 76.8042 6.00465 76.7597C5.69145 76.6707 5.37825 76.5906 5.08295 76.4661C4.47445 76.2525 3.90175 75.9678 3.2664 75.7365C2.12098 75.0602 1.19928 74.0014 0.590783 72.7558C0.528143 72.5956 0.456555 72.4354 0.402864 72.2664L0.259687 71.7592C0.197047 71.4122 0.125459 71.0741 0.125459 70.7182C0.0986132 70.3445 0.107562 70.0687 0.0986132 69.7662C0.0986132 69.4636 0.0807161 69.1522 0.062819 68.8497C0.197047 68.2358 0.214944 67.6218 0.197047 67.0079C0.188099 66.6965 0.170202 66.394 0.143356 66.0825L0.107562 65.6199V65.5665L0.0986132 65.4597V65.2462L0.0717675 64.8013C0.0717675 64.4632 0.0538704 64.1251 0.0449219 63.787C0.54604 63.7781 1.05611 63.7692 1.57512 63.7692H2.49682C3.03374 63.7781 3.5617 63.7959 4.08966 63.8137C5.31562 63.787 6.54157 63.8048 7.74962 63.8137C8.95767 63.7336 10.1568 63.9204 11.338 63.8137C12.5281 63.7069 13.7004 63.9293 14.8548 63.8226C16.0181 63.7514 17.1635 63.7069 18.3 63.8314C19.4364 63.8314 20.555 64.0628 21.6557 63.8492C22.7563 63.7959 23.8481 63.5111 24.9219 63.867C25.9957 63.7781 27.0516 64.0361 28.0897 63.8848C29.1277 64.1518 30.1478 63.9026 31.159 63.9115C32.1613 63.9649 33.1456 64.0539 34.112 63.9382C35.0785 63.8137 36.027 64.0094 36.9487 63.9649C37.8704 63.8137 38.7832 64.1607 39.6691 63.9916C40.555 64.0272 41.4141 63.9649 42.2552 64.0183C43.0964 63.6624 43.9107 64.0183 44.7071 64.0539C44.904 64.0628 45.1008 64.0539 45.2977 64.045C45.5125 64.0272 45.6288 64.0094 46.0047 63.9916C46.3358 63.9738 46.6668 63.9649 46.98 63.9827C47.0606 63.9827 47.1322 63.9827 47.2038 64.0005C47.2127 64.0005 47.2127 64.0094 47.2127 64.0183V64.0539V64.1162V64.2407C47.1859 64.4098 47.168 64.5788 47.1322 64.7479C47.168 64.8725 47.1948 65.0148 47.2217 65.1661C47.2306 65.2373 47.2485 65.3173 47.2575 65.3974V65.5042L47.2753 65.5665C47.3022 65.7444 47.2932 65.9224 47.2932 66.0914C47.2932 66.2694 47.2753 66.4385 47.2575 66.6164C47.2485 66.7855 47.2396 66.9634 47.2396 67.1325C47.2396 67.8176 47.5438 68.4137 47.5438 69.0544C47.7049 69.3391 47.7586 69.6238 47.8033 69.9263C47.8302 70.0687 47.8481 70.2199 47.8839 70.3623C47.9196 70.5047 47.9644 70.6381 48.027 70.7716C48.1165 71.3499 48.4566 71.7948 48.6713 72.2486C48.9577 72.6757 49.2082 73.0761 49.4409 73.4676C49.7094 73.8324 49.9957 74.1438 50.2821 74.4196C51.1411 75.2382 52.0002 75.6297 52.5908 75.8254C53.1903 76.0212 53.5214 76.0657 53.5214 76.1191L53.4856 76.128Z" fill="black"/>
<path id="Vector_2" d="M60.8501 65.3177C60.8054 65.3177 60.7517 64.6503 60.707 63.3869C60.6622 62.1145 60.6175 60.2371 60.5727 57.8081C60.5638 56.9984 60.5459 56.1264 60.528 55.2011C60.5011 54.2668 60.4743 53.2792 60.4832 52.2381C60.6175 51.1882 60.2416 50.0849 60.4474 48.9282C60.5101 47.7715 60.4474 46.5615 60.4117 45.2891C60.3669 44.0257 60.4922 42.6999 60.3759 41.3386C60.1164 39.9683 60.6622 38.5447 60.3401 37.0766C60.2685 35.6085 60.2864 34.087 60.3043 32.5299C60.5011 30.9639 60.3043 29.3535 60.2685 27.6985C60.5011 26.0436 60.4027 24.3441 60.2416 22.6002C60.5638 20.8562 60.5101 19.0767 60.2148 17.2527C60.2148 16.3452 60.2416 15.4198 60.2506 14.4856C60.2506 14.0229 60.2595 13.5513 60.2506 13.0797C60.2506 12.6082 60.2237 12.1455 60.1969 11.6472C60.1969 10.6685 60.2595 9.67194 60.4117 8.67541C60.5638 7.67887 60.8143 6.67344 61.2081 5.7036C61.4765 4.68927 61.9419 3.69274 62.6309 2.81188C63.3199 1.93991 64.2506 1.19251 65.3423 0.783219C66.085 0.338338 66.9709 0.0803072 67.8747 0.0714096V1.77085C66.5683 1.78865 65.2439 1.72637 63.9016 1.65519C61.7718 1.53062 59.6152 1.85983 57.4318 1.67298C55.2483 1.65519 53.0291 1.72637 50.783 1.69078C48.5369 1.5929 46.264 1.48613 43.9642 1.69967C41.6645 1.75306 39.3468 1.83314 36.9933 1.70857C34.6488 1.9577 32.2774 1.84204 29.8792 1.70857C27.49 1.75306 25.0738 1.57511 22.6398 1.70857C21.5392 1.68188 20.4475 1.9666 19.5079 2.49156C18.5683 3.01652 17.7808 3.78172 17.2707 4.68038C17.0202 5.13416 16.8591 5.63242 16.7964 6.14848C16.7785 6.28195 16.7785 6.39762 16.7696 6.53998V6.99376C16.7517 7.29628 16.7517 7.60769 16.7428 7.91021C16.7338 9.12919 16.7428 10.3482 16.8143 11.5582C16.9665 13.9784 16.7428 16.3807 16.8143 18.7564C16.5817 21.1321 16.8859 23.4899 16.8054 25.83C16.8233 28.1612 16.6712 30.4746 16.7964 32.7613C16.8412 35.048 16.877 37.3079 16.7785 39.5412C17.1365 41.7745 16.6891 43.9812 16.7606 46.1522C16.6085 48.3232 16.7785 50.4675 16.7428 52.5852C16.8054 54.7028 16.5817 56.7759 16.7249 58.8224C16.707 59.81 16.7338 60.7888 16.7517 61.7586C16.7517 62.2391 16.7606 62.7284 16.7517 63.2089V63.5737V63.7339V63.7695C16.7428 63.8229 16.7249 63.8851 16.7159 63.9563H16.7606L16.868 63.9385H16.9128L16.9307 63.9207H16.9396H16.9665C17.217 63.9207 17.4586 63.9118 17.7092 63.9207C18.2014 63.9207 18.6935 63.9474 19.1768 63.9652C20.1521 64.0097 21.1186 64.0542 22.0761 64.0008C23.9911 64.0008 25.8613 63.9919 27.6958 64.0275C29.5302 64.3033 31.3199 64.072 33.0738 64.0542C34.8278 64.0809 36.5369 63.9029 38.2014 64.0898C39.8658 64.1076 41.4855 64.2321 43.0604 64.1254C43.66 64.1076 44.2595 64.161 44.8501 64.2143C44.9933 64.2321 45.1454 64.241 45.2886 64.2499L45.5034 64.2677H45.6108L45.745 64.2855C46.1566 64.3033 46.5414 64.3033 46.953 64.3033C46.953 64.5436 46.9799 64.7749 47.0067 65.0151C47.0246 65.1397 47.0336 65.2554 47.0604 65.3888L47.0783 65.4867C47.0783 65.4867 47.0873 65.5579 47.0962 65.5668L47.132 65.6914C47.1946 66.4032 47.1947 67.115 47.2483 67.809C47.311 68.503 47.4273 69.1792 47.7316 69.7843C48.0269 70.3893 48.2416 70.9854 48.4832 71.5727C48.7159 72.151 48.9754 72.7205 49.3334 73.2098C50.0403 74.1886 50.9351 74.9538 51.9284 75.3898C53.047 75.888 54.2551 75.9325 55.302 75.6122C56.349 75.3008 57.217 74.6691 57.8882 73.9572C58.5593 73.2454 59.0425 72.4624 59.4005 71.7061C59.7584 70.9498 60.009 70.2202 60.1879 69.5529C60.5459 68.2183 60.6533 67.1506 60.7338 66.4388C60.8054 65.718 60.8322 65.3443 60.868 65.3443C60.9038 65.3443 60.9575 65.807 60.9486 66.7057C60.9396 67.1506 60.9128 67.7111 60.8233 68.3695C60.7428 69.028 60.5996 69.7843 60.349 70.6206C60.0985 71.457 59.7405 72.3735 59.1589 73.2988C58.5772 74.2153 57.7718 75.1495 56.6264 75.8079C56.0537 76.1372 55.4005 76.3863 54.6935 76.502C53.9866 76.6176 53.226 76.5998 52.4832 76.4219C51.7405 76.2439 51.0157 75.9147 50.3535 75.452C49.6913 74.9894 49.1096 74.411 48.5996 73.7437C48.1969 73.2098 47.8032 72.6493 47.481 72.0443C47.1589 71.4303 46.8993 70.7719 46.783 70.069C46.3893 68.7165 46.0224 67.2662 46.0671 65.7536L46.0403 65.6202C46.0403 65.6202 46.0403 65.5846 46.0313 65.5757V65.549L45.9866 65.46C45.9687 65.4066 45.9508 65.3621 45.9419 65.3177C45.8434 65.3266 45.7629 65.3354 45.6823 65.3266C45.5481 65.3266 45.4139 65.3266 45.2797 65.3177C45.1365 65.3177 44.9844 65.3088 44.8412 65.2999C44.2506 65.2732 43.66 65.2376 43.0515 65.2376C41.4765 65.2465 39.8568 65.1664 38.1924 65.2732C36.528 65.4244 34.8188 65.202 33.0649 65.2999C31.311 65.1397 29.5213 65.1842 27.6868 65.3266C25.8524 65.1753 23.9732 65.3621 22.0671 65.3532C21.1096 65.2376 20.1432 65.2198 19.1678 65.2376C18.6756 65.2465 18.1924 65.2732 17.7002 65.2999C17.4497 65.3176 17.2081 65.3266 16.9575 65.3354C16.528 65.3443 16.0985 65.3621 15.6689 65.371C15.5436 65.371 15.4094 65.371 15.2841 65.371C15.2841 64.9529 15.2752 64.5258 15.2662 64.0987C15.2662 63.8051 15.2662 63.5114 15.2662 63.2089C15.2662 62.7284 15.2662 62.2391 15.2752 61.7586C15.2841 60.7888 15.302 59.81 15.2752 58.8224C15.3199 56.7759 15.2126 54.6939 15.2573 52.5852C15.1499 50.4764 15.1052 48.3321 15.2394 46.1522C15.1589 43.9812 15.2215 41.7745 15.2215 39.5412C15.132 37.3079 15.2394 35.048 15.2126 32.7613C15.1589 30.4746 15.4631 28.1612 15.2126 25.83C15.1768 23.4988 15.2573 21.141 15.2126 18.7564C15.2483 16.3807 15.2841 13.9784 15.2126 11.5582C15.3468 10.3482 15.3736 9.12919 15.3557 7.91021C15.3557 7.60769 15.3378 7.29628 15.3378 6.99376L15.3199 6.53108C15.3199 6.37092 15.3199 6.18407 15.3199 6.01502C15.3557 5.31211 15.5258 4.6003 15.8211 3.95077C16.4296 2.65172 17.4944 1.63739 18.7114 0.996762C19.9105 0.373929 21.2976 0.0803072 22.6309 0.107C25.0649 0.0803072 27.481 0.0981024 29.8703 0.107C32.2595 0.0269215 34.6309 0.213771 36.9844 0.107C39.3289 0.000228628 41.6555 0.222669 43.9553 0.115898C46.2551 0.0447167 48.528 0.000228635 50.7741 0.133693C53.0202 0.133693 55.2304 0.365031 57.4228 0.151488C59.6152 0.0981025 61.7629 -0.186621 63.8926 0.169283C65.226 0.115898 66.5504 0.195976 67.8658 0.222669V1.6196C67.1946 1.6018 66.5235 1.75306 65.9508 2.09117C65.0738 2.3492 64.3311 2.98983 63.7853 3.72833C63.2304 4.48463 62.8457 5.3388 62.5146 6.20187C61.8076 7.92801 61.4586 9.8232 61.5392 11.665C61.566 12.1188 61.575 12.6082 61.575 13.0708C61.575 13.5424 61.566 14.014 61.5481 14.4767C61.5213 15.4109 61.4855 16.3274 61.5034 17.2438C61.6555 19.0678 61.3065 20.8562 61.4765 22.5913C61.4407 24.3352 61.5034 26.0347 61.4407 27.6896C61.7987 29.3446 61.4407 30.955 61.4049 32.521C61.3513 34.087 61.6376 35.5996 61.3691 37.0677C61.6376 38.5358 61.4049 39.9594 61.3334 41.3297C61.2528 42.6999 61.4497 44.0168 61.2976 45.2802C61.4855 46.5437 61.1902 47.7626 61.2618 48.9193C61.1365 50.076 61.2618 51.1793 61.226 52.2293C61.2707 53.2792 61.2528 54.2668 61.1812 55.1922C61.1633 56.1264 61.1544 56.9895 61.1365 57.8081C61.0917 60.2371 61.047 62.1145 61.0023 63.3869C60.9575 64.6592 60.9038 65.3177 60.8591 65.3177H60.8501Z" fill="black"/>
<path id="Vector_3" d="M60.8498 12.0919C60.805 12.0919 60.7513 11.9673 60.7066 11.736C60.6618 11.5046 60.626 11.1576 60.6082 10.7128C60.6082 10.5615 60.6082 10.4013 60.6082 10.2323C60.5903 10.0632 60.5813 9.87638 60.6171 9.68063C60.7692 9.50268 60.4202 9.25354 60.6529 9.06669C60.6976 8.96882 60.7155 8.85315 60.7155 8.74638C60.7155 8.63071 60.7155 8.51504 60.7155 8.39937C60.7155 8.15913 60.8856 7.94559 60.8229 7.66977C60.7245 7.51851 60.8229 7.40284 60.9213 7.28717C61.0198 7.1715 61.1003 7.05583 60.984 6.88677C60.984 6.74441 61.0198 6.61095 61.0556 6.46859C61.1003 6.33512 61.154 6.19276 61.2077 6.0593C61.3419 5.95252 61.4046 5.81016 61.4314 5.6678C61.4583 5.51654 61.4672 5.34749 61.5119 5.20512C61.682 5.10725 61.7715 4.97379 61.8341 4.83142C61.8878 4.68016 61.9057 4.50221 61.9146 4.32426C62.1384 4.25308 62.2726 4.14631 62.3531 3.99505C62.3979 3.92387 62.4158 3.83489 62.4247 3.73702C62.4337 3.63914 62.4337 3.54127 62.4247 3.4256C62.6126 3.12308 62.9437 2.91844 63.0779 2.54474C63.3196 2.26001 63.5433 1.9308 63.8923 1.72616C64.0623 1.30797 64.4292 1.05883 64.8856 1.01435C65.1361 0.605055 65.6014 0.498284 66.0489 0.480489C66.2815 0.480489 66.4694 0.373717 66.6842 0.284741C66.7916 0.240253 66.899 0.204662 67.0064 0.186867C67.1227 0.169072 67.2301 0.169072 67.3553 0.204662C67.8028 0.17797 68.277 0.124584 68.7334 0.231355C69.1809 0.40041 69.5746 0.613953 70.0936 0.58726C70.55 0.702929 71.0243 0.871984 71.3553 1.23679C71.8923 1.29907 72.2234 1.70836 72.465 2.13545C72.8408 2.44686 73.0198 2.90954 73.4135 3.21206C73.6641 3.61245 74.0489 3.94166 74.1831 4.42213C74.2726 4.64457 74.3352 4.87591 74.4337 5.08946C74.5142 5.3119 74.6395 5.50764 74.7826 5.70339C75.1137 6.08599 75.0422 6.60205 75.2301 7.01134C75.1764 7.26048 75.2569 7.47402 75.3464 7.67866C75.4269 7.89221 75.5343 8.09685 75.5343 8.31929C75.6417 8.75528 75.5522 9.20905 75.7222 9.61834C75.8207 10.0454 75.8923 10.4636 75.8207 10.8907C75.8654 10.9441 75.9012 10.9886 75.9281 11.042C75.9281 11.0598 75.937 11.0687 75.946 11.0776C75.946 11.1042 75.946 11.1309 75.9549 11.1487C75.9549 11.2021 75.9728 11.2466 75.9728 11.3C75.9907 11.4957 75.9728 11.6915 75.946 11.8694C75.9191 12.0385 75.8923 12.2076 75.8654 12.3766C75.8565 12.4567 75.8475 12.5368 75.8386 12.6257C75.8386 12.6702 75.8386 12.7147 75.8386 12.7592C75.8386 12.777 75.8386 12.8037 75.8386 12.8215H75.7759C75.3464 12.7503 75.0332 12.7592 74.7021 12.777C74.5321 12.7859 74.3621 12.7948 74.192 12.8126H74.0936H74.022C73.9773 12.8126 73.9236 12.8126 73.8788 12.8126C73.4941 12.8749 73.1182 12.6524 72.7424 12.7948C72.3665 12.7681 71.9996 12.9105 71.6417 12.7681C71.2838 12.9461 70.9258 12.6168 70.5858 12.7414C70.2368 12.7414 69.8967 12.7503 69.5656 12.7147C69.2345 12.4389 68.9035 12.6702 68.5903 12.688C68.2771 12.6613 67.9639 12.8393 67.6596 12.6524C67.3554 12.6257 67.069 12.5101 66.7826 12.6168C66.4963 12.6524 66.2189 12.2164 65.9594 12.5813C65.6909 12.6435 65.4314 12.2965 65.1809 12.5457C64.9303 12.777 64.6887 12.519 64.465 12.5101C64.2323 12.4923 64.0175 12.4834 63.8028 12.4745C61.9057 12.3499 60.814 12.2164 60.8229 12.0652C60.8229 11.8961 62.1652 11.7538 64.4739 11.6203C64.7066 11.6114 64.9482 11.4157 65.1898 11.5847C65.4404 11.5847 65.6999 11.4424 65.9683 11.5491C66.2368 11.2911 66.5142 11.5046 66.7916 11.5135C67.0779 11.5046 67.3733 11.5847 67.6686 11.4779C67.9728 11.3267 68.2771 11.5491 68.5992 11.4513C68.9124 11.6114 69.2435 11.5669 69.5746 11.4246C69.9057 11.5758 70.2457 11.389 70.5947 11.3979C70.9437 11.6292 71.2927 11.469 71.6507 11.3712C72.0086 11.2822 72.3755 11.4068 72.7513 11.3534C73.1272 11.3979 73.503 11.2911 73.8878 11.3356C73.9325 11.3178 73.9862 11.3089 74.031 11.3L74.1026 11.2822H74.1383C74.1383 11.2822 74.1383 11.2733 74.1383 11.2644C74.1473 11.2466 74.1562 11.2377 74.1652 11.2288C74.1741 11.2288 74.192 11.2466 74.2994 11.3089C74.2726 11.2466 74.2547 11.2199 74.2636 11.2021V11.1665L74.2726 11.1576V10.9708C74.1562 10.5882 74.2278 10.1878 74.1562 9.7963C74.0668 9.4137 74.2994 8.96882 73.9594 8.61291C73.9057 8.41717 73.8699 8.22142 73.8341 8.02567C73.7894 7.82992 73.7446 7.62528 73.673 7.43843C73.5925 7.04693 73.4941 6.63764 73.2703 6.28174C73.324 6.0415 73.2524 5.84575 73.154 5.6589C73.0466 5.48095 72.9035 5.32079 72.7513 5.16953C72.4918 4.84032 72.3039 4.49331 72.107 4.14631C71.8475 3.83489 71.6059 3.54127 71.3375 3.25655C71.1764 3.14977 71.0511 3.00741 70.9169 2.86505C70.8453 2.79387 70.7826 2.73159 70.7111 2.6693C70.6395 2.61592 70.55 2.56253 70.4605 2.53584C70.2726 2.48245 70.1383 2.35789 69.9862 2.25111C69.9146 2.18883 69.843 2.14434 69.7536 2.09986C69.673 2.05537 69.5925 2.02867 69.4941 2.01978C69.1361 1.95749 68.805 1.91301 68.4829 1.72616C68.3934 1.71726 68.3128 1.69056 68.2323 1.66387C68.1518 1.63718 68.0623 1.61049 67.9818 1.59269C67.8117 1.5571 67.6328 1.5571 67.4717 1.68167C67.3911 1.69946 67.3106 1.73505 67.2301 1.77954C67.1495 1.81513 67.0779 1.85962 67.0064 1.89521C66.8542 1.95749 66.7021 1.98419 66.4963 1.85962C66.4247 1.91301 66.3531 1.9397 66.2726 1.95749C66.192 1.97529 66.1115 1.99308 66.031 2.01088C65.9504 2.02867 65.8699 2.04647 65.7894 2.08206C65.7178 2.11765 65.6462 2.16214 65.5925 2.24222C65.4941 2.22442 65.3956 2.24222 65.324 2.26891C65.2524 2.3045 65.1809 2.35789 65.1182 2.41127C65.0556 2.46466 65.0108 2.53584 64.9482 2.59812C64.8945 2.66041 64.8408 2.72269 64.7782 2.76718C64.4918 2.92733 64.2055 3.10529 64.0712 3.40781C63.9639 3.72812 63.6149 3.84379 63.4806 4.12851C63.4717 4.20859 63.4269 4.27977 63.3822 4.33316C63.3375 4.39544 63.2748 4.44883 63.2122 4.49332C63.0869 4.59119 62.9795 4.70686 62.9795 4.87591C62.89 4.99158 62.8274 5.13394 62.7737 5.25851C62.7111 5.39197 62.6484 5.51654 62.5768 5.64111C62.6842 5.83686 62.6305 5.96142 62.5321 6.07709C62.4426 6.18386 62.2905 6.28174 62.2368 6.4063C62.1652 6.53087 62.1831 6.67323 62.1652 6.8067C62.1652 6.94016 62.1294 7.06473 61.9594 7.1537C62.1473 7.46512 61.8609 7.64307 61.7357 7.86551C61.6104 8.08795 61.7357 8.34598 61.5567 8.54173C61.6283 8.6663 61.5835 8.77307 61.5209 8.87094C61.4672 8.96882 61.3956 9.06669 61.4135 9.17346C61.2614 9.36031 61.3509 9.56496 61.2972 9.75181C61.3151 9.93866 61.2793 10.1166 61.2077 10.2768C61.1809 10.4369 61.154 10.5971 61.1272 10.7394C61.0645 11.1665 61.0019 11.5046 60.9571 11.736C60.9035 11.9673 60.8587 12.083 60.805 12.083L60.8498 12.0919Z" fill="black"/>
<path id="Vector_4" d="M21.459 12.101C21.459 12.0031 21.8348 11.9052 22.5239 11.8252C22.6402 11.8074 22.7655 11.7985 22.8908 11.7807C23.025 11.754 23.1592 11.7273 23.3113 11.7362C23.4545 11.8697 23.6156 11.496 23.7767 11.7006C23.9377 11.754 24.1078 11.7006 24.2867 11.665C24.4657 11.6205 24.6536 11.7451 24.8415 11.6294C25.0384 11.3714 25.2353 11.9052 25.4411 11.5938C25.6469 11.5226 25.8617 11.5404 26.0854 11.5582C26.3091 11.754 26.5328 11.5582 26.7655 11.5226C26.9981 11.754 27.2397 11.6561 27.4814 11.496C27.723 11.8163 27.9825 11.7629 28.233 11.4693C28.4925 11.4604 28.752 11.5849 29.0205 11.4426C29.289 11.4248 29.5664 11.3625 29.8438 11.4159C30.1212 11.2023 30.4075 11.2112 30.6939 11.3892C30.9802 11.1578 31.2755 11.2468 31.5798 11.3714C31.8751 11.496 32.1793 11.1667 32.4925 11.3536C32.7968 11.3714 33.11 11.3002 33.4232 11.3358C33.7364 11.4337 34.0585 11.5315 34.3807 11.3269C34.7028 11.2735 35.0339 11.1934 35.3561 11.318C35.6872 11.0689 36.0183 11.1845 36.3583 11.318C36.6984 11.2824 37.0295 11.4515 37.3784 11.318C37.7185 11.3536 38.0675 11.2112 38.4165 11.318C38.7655 11.3892 39.1055 11.4604 39.4456 11.318C39.7856 11.1578 40.1257 11.3803 40.4657 11.318C40.8057 11.5493 41.1368 11.2468 41.4679 11.318C41.799 11.2913 42.1212 11.4515 42.4433 11.3269C42.7655 11.2824 43.0876 11.2379 43.4008 11.3358C43.714 10.9799 44.0272 11.4248 44.3315 11.3536C44.6357 11.5049 44.94 11.3358 45.2353 11.3714C45.5306 11.3002 45.8259 11.5315 46.1212 11.3892C46.4075 11.4159 46.6939 11.2735 46.9713 11.4159C47.2487 11.2379 47.5261 11.5671 47.7946 11.4426C48.063 11.4426 48.3225 11.4337 48.582 11.4693C48.8415 11.7451 49.0921 11.5138 49.3337 11.496C49.5753 11.5226 49.8169 11.3358 50.0496 11.5226C50.2822 11.5493 50.506 11.665 50.7297 11.5582C50.9534 11.5138 51.1682 11.9586 51.374 11.5938C51.5798 11.5315 51.7856 11.8786 51.9735 11.6294C52.1704 11.3981 52.3494 11.6561 52.5283 11.665C52.7073 11.6828 52.8773 11.6917 53.0384 11.7006C54.506 11.8163 55.3561 11.9586 55.3561 12.1099C55.3561 12.2789 54.318 12.4302 52.5283 12.5548C52.3494 12.5726 52.1614 12.7594 51.9735 12.5904C51.7767 12.5904 51.5798 12.7416 51.374 12.626C51.1682 12.884 50.9534 12.6704 50.7297 12.6615C50.506 12.6704 50.2822 12.5904 50.0496 12.6971C49.8169 12.8484 49.5753 12.626 49.3337 12.7238C49.0831 12.5637 48.8326 12.6082 48.582 12.7505C48.3225 12.5993 48.063 12.7861 47.7946 12.7772C47.5261 12.5459 47.2487 12.706 46.9713 12.8039C46.6939 12.8929 46.4075 12.7683 46.1212 12.8217C45.8348 12.7772 45.5395 12.884 45.2353 12.8395C44.94 12.9463 44.6357 12.9908 44.3315 12.8573C44.0272 12.9374 43.714 12.8751 43.4008 12.8751C43.0876 12.9641 42.7655 12.8662 42.4433 12.884C42.1212 12.9285 41.7901 12.6349 41.4679 12.8929C41.1368 12.9285 40.8057 12.8484 40.4657 12.8929C40.1257 12.8573 39.7946 12.8217 39.4456 12.8929C39.1055 12.6349 38.7565 12.795 38.4165 12.8929C38.0675 12.9641 37.7274 12.9285 37.3784 12.8929C37.0384 12.9196 36.6984 12.9018 36.3583 12.8929C36.0272 12.9641 35.6872 12.7861 35.3561 12.8929C35.025 12.9997 34.7028 12.7772 34.3807 12.884C34.0585 12.9552 33.7364 12.9997 33.4232 12.8751C33.11 12.8751 32.7968 12.6437 32.4925 12.8573C32.1883 12.9107 31.884 13.1954 31.5798 12.8395C31.2845 12.9285 30.9892 12.6704 30.6939 12.8217C30.4075 12.5548 30.1212 12.8039 29.8438 12.8039C29.5664 12.7505 29.289 12.6615 29.0205 12.7772C28.752 12.9018 28.4925 12.706 28.233 12.7505C27.9735 12.9018 27.723 12.5548 27.4814 12.7238C27.2397 12.6882 26.9981 12.7505 26.7655 12.6971C26.5328 13.053 26.3091 12.6971 26.0854 12.6615C25.8617 12.6082 25.6469 12.8929 25.4411 12.626C25.2353 12.8929 25.0295 12.6615 24.8415 12.5904C24.6447 12.5103 24.4657 12.706 24.2867 12.5548C24.1078 12.7416 23.9377 12.448 23.7767 12.5192C23.6156 12.3946 23.4545 12.5192 23.3113 12.4836C23.1592 12.5281 23.025 12.5103 22.8908 12.4391C22.7565 12.4213 22.6402 12.4124 22.5239 12.3946C21.8348 12.3056 21.459 12.2167 21.459 12.1099V12.101Z" fill="black"/>
<path id="Vector_5" d="M21.459 20.331C21.459 20.2331 21.8348 20.1352 22.5239 20.0551C22.6402 20.0374 22.7655 20.0285 22.8908 20.0107C23.025 19.984 23.1592 19.9573 23.3113 19.9662C23.4545 20.0996 23.6156 19.7259 23.7767 19.9217C23.9377 19.9751 24.1078 19.9217 24.2867 19.8861C24.4657 19.8416 24.6536 19.9662 24.8415 19.8505C25.0384 19.5925 25.2353 20.1352 25.4411 19.8149C25.6469 19.7437 25.8617 19.7615 26.0854 19.7793C26.3091 19.9751 26.5328 19.7793 26.7655 19.7437C26.9981 19.9751 27.2397 19.8772 27.4814 19.717C27.723 20.0374 27.9825 19.984 28.233 19.6903C28.4925 19.6814 28.752 19.806 29.0205 19.6637C29.289 19.6459 29.5664 19.5836 29.8438 19.637C30.1212 19.4234 30.4075 19.4323 30.6939 19.6192C30.9802 19.3878 31.2755 19.4768 31.5798 19.6014C31.8751 19.7259 32.1793 19.3967 32.4925 19.5836C32.7968 19.6014 33.11 19.5302 33.4232 19.5658C33.7364 19.6637 34.0585 19.7704 34.3807 19.5569C34.7028 19.5035 35.0339 19.4234 35.3561 19.548C35.6872 19.2989 36.0183 19.4145 36.3583 19.548C36.6984 19.5035 37.0295 19.6814 37.3784 19.548C37.7185 19.5836 38.0675 19.4412 38.4165 19.548C38.7655 19.6192 39.1055 19.6903 39.4456 19.548C39.7856 19.3878 40.1257 19.6103 40.4657 19.548C40.8057 19.7793 41.1368 19.4768 41.4679 19.548C41.799 19.5213 42.1212 19.6814 42.4433 19.5569C42.7655 19.5124 43.0876 19.4679 43.4008 19.5658C43.714 19.2099 44.0272 19.6548 44.3315 19.5836C44.6357 19.7348 44.94 19.5569 45.2353 19.6014C45.5306 19.5302 45.8259 19.7615 46.1212 19.6192C46.4075 19.6459 46.6939 19.5035 46.9713 19.637C47.2487 19.459 47.5261 19.7882 47.7946 19.6637C48.063 19.6637 48.3225 19.6548 48.582 19.6903C48.8415 19.9662 49.0921 19.7348 49.3337 19.717C49.5753 19.7437 49.8169 19.5569 50.0496 19.7437C50.2822 19.7704 50.506 19.8861 50.7297 19.7793C50.9534 19.7348 51.1682 20.1797 51.374 19.8149C51.5798 19.7526 51.7856 20.0996 51.9735 19.8505C52.1704 19.6281 52.3494 19.8772 52.5283 19.8861C52.7073 19.9039 52.8773 19.9128 53.0384 19.9217C54.506 20.0374 55.3561 20.1797 55.3561 20.331C55.3561 20.5 54.318 20.6513 52.5283 20.7759C52.3494 20.7848 52.1614 20.9805 51.9735 20.8114C51.7767 20.8114 51.5798 20.9627 51.374 20.847C51.1682 21.1051 50.9534 20.8915 50.7297 20.8826C50.506 20.8915 50.2822 20.8114 50.0496 20.9182C49.8169 21.0695 49.5753 20.847 49.3337 20.9449C49.0831 20.7848 48.8326 20.8292 48.582 20.9716C48.3225 20.8203 48.063 21.0072 47.7946 20.9983C47.5261 20.767 47.2487 20.9271 46.9713 21.025C46.6939 21.114 46.4075 20.9894 46.1212 21.0517C45.8348 21.0072 45.5395 21.114 45.2353 21.0695C44.94 21.1762 44.6357 21.2207 44.3315 21.0873C44.0272 21.1674 43.714 21.1051 43.4008 21.1051C43.0876 21.2029 42.7655 21.0962 42.4433 21.114C42.1212 21.1674 41.7901 20.8648 41.4679 21.1229C41.1368 21.1585 40.8057 21.0784 40.4657 21.1229C40.1257 21.0873 39.7946 21.0517 39.4456 21.1229C39.1055 20.8648 38.7565 21.025 38.4165 21.1229C38.0675 21.194 37.7274 21.1585 37.3784 21.1229C37.0384 21.1496 36.6984 21.1318 36.3583 21.1229C36.0272 21.2029 35.6872 21.0161 35.3561 21.1229C35.025 21.2296 34.7028 21.0072 34.3807 21.114C34.0585 21.1851 33.7364 21.2296 33.4232 21.1051C33.11 21.1051 32.7968 20.8737 32.4925 21.0873C32.1883 21.1407 31.884 21.4254 31.5798 21.0695C31.2845 21.1585 30.9892 20.9004 30.6939 21.0517C30.4075 20.7848 30.1212 21.0339 29.8438 21.025C29.5664 20.9716 29.289 20.8826 29.0205 20.9983C28.752 21.1229 28.4925 20.9271 28.233 20.9716C27.9735 21.1229 27.723 20.7759 27.4814 20.9449C27.2397 20.9093 26.9981 20.9716 26.7655 20.9182C26.5328 21.2741 26.3091 20.9182 26.0854 20.8826C25.8617 20.8292 25.6469 21.114 25.4411 20.847C25.2353 21.114 25.0295 20.8826 24.8415 20.8114C24.6447 20.7314 24.4657 20.9271 24.2867 20.7759C24.1078 20.9627 23.9377 20.6691 23.7767 20.7403C23.6156 20.6157 23.4545 20.7403 23.3113 20.6958C23.1592 20.7403 23.025 20.7225 22.8908 20.6513C22.7565 20.6335 22.6402 20.6246 22.5239 20.6068C21.8348 20.5178 21.459 20.4288 21.459 20.3221V20.331Z" fill="black"/>
<path id="Vector_6" d="M21.459 28.5878C21.459 28.4899 21.8348 28.3921 22.5239 28.312C22.6402 28.2942 22.7655 28.2853 22.8908 28.2675C23.025 28.2408 23.1592 28.2141 23.3113 28.223C23.4545 28.3565 23.6156 27.9828 23.7767 28.1874C23.9377 28.2408 24.1078 28.1874 24.2867 28.1518C24.4657 28.1073 24.6536 28.2319 24.8415 28.1162C25.0384 27.8582 25.2353 28.401 25.4411 28.0806C25.6469 28.0095 25.8617 28.0273 26.0854 28.0451C26.3091 28.2408 26.5328 28.0451 26.7655 28.0095C26.9981 28.2408 27.2397 28.1429 27.4814 27.9828C27.723 28.3031 27.9825 28.2497 28.233 27.9561C28.4925 27.9472 28.752 28.0717 29.0205 27.9294C29.289 27.9116 29.5664 27.8493 29.8438 27.9027C30.1212 27.6892 30.4075 27.698 30.6939 27.876C30.9802 27.6447 31.2755 27.7336 31.5798 27.8582C31.8751 27.9828 32.1793 27.6536 32.4925 27.8404C32.7968 27.8582 33.11 27.787 33.4232 27.8226C33.7364 27.9205 34.0585 28.0184 34.3807 27.8137C34.7028 27.7603 35.0339 27.6803 35.3561 27.8048C35.6872 27.5557 36.0183 27.6714 36.3583 27.8048C36.6984 27.7603 37.0295 27.9383 37.3784 27.8048C37.7185 27.8404 38.0675 27.698 38.4165 27.8048C38.7655 27.876 39.1055 27.9472 39.4456 27.8048C39.7856 27.6447 40.1257 27.8671 40.4657 27.8048C40.8057 28.0362 41.1368 27.7336 41.4679 27.8048C41.799 27.7781 42.1212 27.9383 42.4433 27.8137C42.7655 27.7692 43.0876 27.7247 43.4008 27.8226C43.714 27.4667 44.0272 27.9116 44.3315 27.8404C44.6357 27.9917 44.94 27.8226 45.2353 27.8582C45.5306 27.7959 45.8259 28.0184 46.1212 27.876C46.4075 27.9027 46.6939 27.7603 46.9713 27.9027C47.2487 27.7247 47.5261 28.054 47.7946 27.9294C48.063 27.9294 48.3225 27.9205 48.582 27.9561C48.8415 28.2319 49.0921 28.0006 49.3337 27.9828C49.5753 28.0095 49.8169 27.8226 50.0496 28.0095C50.2822 28.0362 50.506 28.1518 50.7297 28.0451C50.9534 28.0006 51.1682 28.4454 51.374 28.0806C51.5798 28.0184 51.7856 28.3654 51.9735 28.1162C52.1704 27.8849 52.3494 28.1429 52.5283 28.1518C52.7073 28.1696 52.8773 28.1785 53.0384 28.1874C54.506 28.3031 55.3561 28.4454 55.3561 28.5967C55.3561 28.7658 54.318 28.917 52.5283 29.0416C52.3494 29.0594 52.1614 29.2462 51.9735 29.0772C51.7767 29.0772 51.5798 29.2284 51.374 29.1128C51.1682 29.3708 50.9534 29.1573 50.7297 29.1484C50.506 29.1573 50.2822 29.0772 50.0496 29.1839C49.8169 29.3352 49.5753 29.1128 49.3337 29.2106C49.0831 29.0505 48.8326 29.095 48.582 29.2373C48.3225 29.0861 48.063 29.2729 47.7946 29.264C47.5261 29.0327 47.2487 29.1928 46.9713 29.2907C46.6939 29.3797 46.4075 29.2551 46.1212 29.3085C45.8348 29.264 45.5395 29.3708 45.2353 29.3263C44.94 29.4331 44.6357 29.4776 44.3315 29.3441C44.0272 29.4242 43.714 29.3619 43.4008 29.3619C43.0876 29.4509 42.7655 29.353 42.4433 29.3708C42.1212 29.4242 41.7901 29.1217 41.4679 29.3797C41.1368 29.4153 40.8057 29.3352 40.4657 29.3797C40.1257 29.3441 39.7946 29.3085 39.4456 29.3797C39.1055 29.1217 38.7565 29.2818 38.4165 29.3797C38.0675 29.4509 37.7274 29.4153 37.3784 29.3797C37.0384 29.4064 36.6984 29.3886 36.3583 29.3797C36.0272 29.4598 35.6872 29.2729 35.3561 29.3797C35.025 29.4865 34.7028 29.264 34.3807 29.3708C34.0585 29.442 33.7364 29.4865 33.4232 29.3619C33.11 29.3619 32.7968 29.1306 32.4925 29.3441C32.1883 29.3975 31.884 29.6822 31.5798 29.3263C31.2845 29.4153 30.9892 29.1573 30.6939 29.3085C30.4075 29.0416 30.1212 29.2907 29.8438 29.2907C29.5664 29.2373 29.289 29.1484 29.0205 29.264C28.752 29.3886 28.4925 29.1928 28.233 29.2373C27.9735 29.3886 27.723 29.0416 27.4814 29.2106C27.2397 29.1751 26.9981 29.2373 26.7655 29.1839C26.5328 29.5399 26.3091 29.1839 26.0854 29.1484C25.8617 29.095 25.6469 29.3797 25.4411 29.1128C25.2353 29.3797 25.0295 29.1484 24.8415 29.0772C24.6447 28.9971 24.4657 29.1928 24.2867 29.0416C24.1078 29.2284 23.9377 28.9348 23.7767 29.006C23.6156 28.8814 23.4545 29.006 23.3113 28.9704C23.1592 29.0149 23.025 28.9971 22.8908 28.9259C22.7565 28.9081 22.6402 28.8992 22.5239 28.8814C21.8348 28.7925 21.459 28.7035 21.459 28.6056V28.5878Z" fill="black"/>
<path id="Vector_7" d="M21.459 36.8272C21.459 36.7293 21.8348 36.6314 22.5239 36.5514C22.6402 36.5336 22.7655 36.5247 22.8908 36.5069C23.025 36.4802 23.1592 36.4535 23.3113 36.4624C23.4545 36.5958 23.6156 36.2221 23.7767 36.4179C23.9377 36.4713 24.1078 36.4179 24.2867 36.3823C24.4657 36.3378 24.6536 36.4624 24.8415 36.3467C25.0384 36.0887 25.2353 36.6314 25.4411 36.3111C25.6469 36.2399 25.8617 36.2577 26.0854 36.2755C26.3091 36.4713 26.5328 36.2755 26.7655 36.2399C26.9981 36.4713 27.2397 36.3734 27.4814 36.2132C27.723 36.5336 27.9825 36.4891 28.233 36.1865C28.4925 36.1776 28.752 36.3022 29.0205 36.1599C29.289 36.1421 29.5664 36.0798 29.8438 36.1332C30.1212 35.9196 30.4075 35.9285 30.6939 36.1065C30.9802 35.8751 31.2755 35.9641 31.5798 36.0887C31.8751 36.2132 32.1793 35.884 32.4925 36.0709C32.7968 36.0887 33.11 36.0175 33.4232 36.0531C33.7364 36.151 34.0585 36.2488 34.3807 36.0442C34.7028 35.9908 35.0339 35.9107 35.3561 36.0353C35.6872 35.7862 36.0183 35.9018 36.3583 36.0353C36.6984 35.9997 37.0295 36.1688 37.3784 36.0353C37.7185 36.0709 38.0675 35.9285 38.4165 36.0353C38.7655 36.1065 39.1055 36.1777 39.4456 36.0353C39.7856 35.8751 40.1257 36.0976 40.4657 36.0353C40.8057 36.2666 41.1368 35.9641 41.4679 36.0353C41.799 36.0175 42.1212 36.1688 42.4433 36.0442C42.7655 35.9997 43.0876 35.9552 43.4008 36.0531C43.714 35.6972 44.0272 36.1421 44.3315 36.0709C44.6357 36.2221 44.94 36.0531 45.2353 36.0887C45.5306 36.0264 45.8259 36.2488 46.1212 36.1065C46.4075 36.1332 46.6939 35.9908 46.9713 36.1332C47.2487 35.9552 47.5261 36.2844 47.7946 36.1599C48.063 36.1599 48.3225 36.151 48.582 36.1865C48.8415 36.4624 49.0921 36.231 49.3337 36.2132C49.5753 36.2399 49.8169 36.0531 50.0496 36.2399C50.2822 36.2666 50.506 36.3823 50.7297 36.2755C50.9534 36.231 51.1682 36.6759 51.374 36.3111C51.5798 36.2488 51.7856 36.5958 51.9735 36.3467C52.1704 36.1154 52.3494 36.3734 52.5283 36.3823C52.7073 36.4001 52.8773 36.409 53.0384 36.4179C54.506 36.5336 55.3561 36.6759 55.3561 36.8272C55.3561 36.9962 54.318 37.1475 52.5283 37.2721C52.3494 37.2899 52.1614 37.4767 51.9735 37.3076C51.7767 37.3076 51.5798 37.4589 51.374 37.3432C51.1682 37.6013 50.9534 37.3877 50.7297 37.3788C50.506 37.3877 50.2822 37.3076 50.0496 37.4144C49.8169 37.5657 49.5753 37.3432 49.3337 37.4411C49.0831 37.281 48.8326 37.3254 48.582 37.4678C48.3225 37.3165 48.063 37.5034 47.7946 37.4945C47.5261 37.2632 47.2487 37.4233 46.9713 37.5212C46.6939 37.6102 46.4075 37.4856 46.1212 37.539C45.8348 37.4945 45.5395 37.6013 45.2353 37.5568C44.94 37.6724 44.6357 37.708 44.3315 37.5746C44.0272 37.6547 43.714 37.5924 43.4008 37.5924C43.0876 37.6813 42.7655 37.5835 42.4433 37.6013C42.1212 37.6458 41.7901 37.3521 41.4679 37.6102C41.1368 37.6458 40.8057 37.5657 40.4657 37.6102C40.1257 37.5746 39.7946 37.539 39.4456 37.6102C39.1055 37.3521 38.7565 37.5123 38.4165 37.6102C38.0675 37.6813 37.7274 37.6458 37.3784 37.6102C37.0384 37.6369 36.6984 37.6191 36.3583 37.6102C36.0272 37.6813 35.6872 37.5034 35.3561 37.6102C35.025 37.7169 34.7028 37.4945 34.3807 37.6013C34.0585 37.6724 33.7364 37.7169 33.4232 37.5924C33.11 37.5924 32.7968 37.361 32.4925 37.5746C32.1883 37.628 31.884 37.9127 31.5798 37.5568C31.2845 37.6458 30.9892 37.3877 30.6939 37.539C30.4075 37.2721 30.1212 37.5212 29.8438 37.5212C29.5664 37.4678 29.289 37.3788 29.0205 37.4945C28.752 37.6191 28.4925 37.4233 28.233 37.4678C27.9735 37.6191 27.723 37.2721 27.4814 37.4411C27.2397 37.4055 26.9981 37.4678 26.7655 37.4144C26.5328 37.7703 26.3091 37.4144 26.0854 37.3788C25.8617 37.3254 25.6469 37.6102 25.4411 37.3432C25.2353 37.6102 25.0295 37.3788 24.8415 37.3076C24.6447 37.2276 24.4657 37.4233 24.2867 37.2721C24.1078 37.4589 23.9377 37.1653 23.7767 37.2365C23.6156 37.1119 23.4545 37.2365 23.3113 37.2009C23.1592 37.2454 23.025 37.2276 22.8908 37.1564C22.7565 37.1386 22.6402 37.1297 22.5239 37.1119C21.8348 37.0229 21.459 36.925 21.459 36.8272Z" fill="black"/>
<path id="Vector_8" d="M21.459 45.0753C21.459 44.9775 21.8348 44.8796 22.5239 44.7906C22.6402 44.7728 22.7655 44.7639 22.8908 44.7461C23.025 44.7194 23.1592 44.6927 23.3113 44.7016C23.4545 44.8351 23.6156 44.4614 23.7767 44.6571C23.9377 44.7194 24.1078 44.6571 24.2867 44.6216C24.4657 44.5771 24.6536 44.7016 24.8415 44.586C25.0384 44.3279 25.2353 44.8707 25.4411 44.5504C25.6469 44.4792 25.8617 44.497 26.0854 44.5148C26.3091 44.7105 26.5328 44.5148 26.7655 44.4792C26.9981 44.7105 27.2397 44.6127 27.4814 44.4525C27.723 44.7728 27.9825 44.7283 28.233 44.4258C28.4925 44.4169 28.752 44.5415 29.0205 44.3991C29.289 44.3813 29.5664 44.319 29.8438 44.3724C30.1212 44.1589 30.4075 44.1678 30.6939 44.3457C30.9802 44.1144 31.2755 44.2034 31.5798 44.3279C31.8751 44.4525 32.1793 44.1233 32.4925 44.3101C32.7968 44.3279 33.11 44.2568 33.4232 44.2923C33.7364 44.3902 34.0585 44.497 34.3807 44.2834C34.7028 44.2301 35.0339 44.15 35.3561 44.2745C35.6872 44.0254 36.0183 44.1411 36.3583 44.2745C36.6984 44.2301 37.0295 44.408 37.3784 44.2745C37.7185 44.3101 38.0675 44.1678 38.4165 44.2745C38.7655 44.3457 39.1055 44.4169 39.4456 44.2745C39.7856 44.1144 40.1257 44.3368 40.4657 44.2745C40.8057 44.5059 41.1368 44.2034 41.4679 44.2745C41.799 44.2479 42.1212 44.408 42.4433 44.2834C42.7655 44.239 43.0876 44.1945 43.4008 44.2923C43.714 43.9364 44.0272 44.3813 44.3315 44.3101C44.6357 44.4614 44.94 44.2923 45.2353 44.3279C45.5306 44.2656 45.8259 44.4881 46.1212 44.3457C46.4075 44.3724 46.6939 44.2301 46.9713 44.3724C47.2487 44.1945 47.5261 44.5237 47.7946 44.3991C48.063 44.3991 48.3225 44.3902 48.582 44.4258C48.8415 44.7016 49.0921 44.4703 49.3337 44.4525C49.5753 44.4792 49.8169 44.2923 50.0496 44.4792C50.2822 44.5059 50.506 44.6216 50.7297 44.5148C50.9534 44.4792 51.1682 44.9152 51.374 44.5504C51.5798 44.4881 51.7856 44.8351 51.9735 44.586C52.1704 44.3546 52.3494 44.6127 52.5283 44.6216C52.7073 44.6394 52.8773 44.6482 53.0384 44.6571C54.506 44.7728 55.3561 44.9152 55.3561 45.0664C55.3561 45.2355 54.318 45.3868 52.5283 45.5113C52.3494 45.5202 52.1614 45.716 51.9735 45.5469C51.7767 45.5469 51.5798 45.6893 51.374 45.5825C51.1682 45.8405 50.9534 45.627 50.7297 45.6181C50.506 45.627 50.2822 45.5469 50.0496 45.6537C49.8169 45.8049 49.5753 45.5825 49.3337 45.6804C49.0831 45.5202 48.8326 45.5647 48.582 45.7071C48.3225 45.5558 48.063 45.7427 47.7946 45.7338C47.5261 45.4935 47.2487 45.6626 46.9713 45.7605C46.6939 45.8494 46.4075 45.7249 46.1212 45.7782C45.8348 45.7338 45.5395 45.8405 45.2353 45.796C44.94 45.9028 44.6357 45.9473 44.3315 45.8138C44.0272 45.8939 43.714 45.8316 43.4008 45.8316C43.0876 45.9206 42.7655 45.8227 42.4433 45.8405C42.1212 45.8939 41.7901 45.5914 41.4679 45.8494C41.1368 45.885 40.8057 45.8049 40.4657 45.8494C40.1257 45.8138 39.7946 45.7782 39.4456 45.8494C39.1055 45.5914 38.7565 45.7516 38.4165 45.8494C38.0675 45.9206 37.7274 45.885 37.3784 45.8494C37.0384 45.8761 36.6984 45.8583 36.3583 45.8494C36.0272 45.9206 35.6872 45.7427 35.3561 45.8494C35.025 45.9562 34.7028 45.7338 34.3807 45.8405C34.0585 45.9117 33.7364 45.9562 33.4232 45.8316C33.11 45.8316 32.7968 45.6003 32.4925 45.8138C32.1883 45.8672 31.884 46.1519 31.5798 45.796C31.2845 45.885 30.9892 45.627 30.6939 45.7782C30.4075 45.5202 30.1212 45.7605 29.8438 45.7605C29.5664 45.7071 29.289 45.6181 29.0205 45.7338C28.752 45.8583 28.4925 45.6626 28.233 45.7071C27.9735 45.8583 27.723 45.5113 27.4814 45.6804C27.2397 45.6448 26.9981 45.7071 26.7655 45.6537C26.5328 46.0096 26.3091 45.6537 26.0854 45.6181C25.8617 45.5647 25.6469 45.8494 25.4411 45.5825C25.2353 45.8494 25.0295 45.6181 24.8415 45.5469C24.6447 45.4668 24.4657 45.6626 24.2867 45.5113C24.1078 45.6982 23.9377 45.4045 23.7767 45.4757C23.6156 45.3512 23.4545 45.4757 23.3113 45.4312C23.1592 45.4757 23.025 45.4579 22.8908 45.3867C22.7565 45.369 22.6402 45.3601 22.5239 45.3423C21.8348 45.2533 21.459 45.1554 21.459 45.0575V45.0753Z" fill="black"/>
<path id="Vector_9" d="M21.459 53.3148C21.459 53.2169 21.8348 53.119 22.5239 53.0389C22.6402 53.0211 22.7655 53.0122 22.8908 52.9944C23.025 52.9677 23.1592 52.9411 23.3113 52.9499C23.4545 53.0834 23.6156 52.7097 23.7767 52.9144C23.9377 52.9677 24.1078 52.9144 24.2867 52.8788C24.4657 52.8343 24.6536 52.9588 24.8415 52.8432C25.0384 52.5851 25.2353 53.1279 25.4411 52.8076C25.6469 52.7364 25.8617 52.7542 26.0854 52.772C26.3091 52.9677 26.5328 52.772 26.7655 52.7364C26.9981 52.9677 27.2397 52.8699 27.4814 52.7097C27.723 53.03 27.9825 52.9855 28.233 52.683C28.4925 52.6741 28.752 52.7987 29.0205 52.6563C29.289 52.6385 29.5664 52.5763 29.8438 52.6296C30.1212 52.4161 30.4075 52.425 30.6939 52.6118C30.9802 52.3805 31.2755 52.4695 31.5798 52.594C31.8751 52.7186 32.1793 52.3894 32.4925 52.5763C32.7968 52.594 33.11 52.5229 33.4232 52.5585C33.7364 52.6563 34.0585 52.7542 34.3807 52.5496C34.7028 52.4962 35.0339 52.4161 35.3561 52.5407C35.6872 52.2915 36.0183 52.4072 36.3583 52.5407C36.6984 52.5051 37.0295 52.6741 37.3784 52.5407C37.7185 52.5762 38.0675 52.4339 38.4165 52.5407C38.7655 52.6118 39.1055 52.683 39.4456 52.5407C39.7856 52.3805 40.1257 52.6029 40.4657 52.5407C40.8057 52.772 41.1368 52.4606 41.4679 52.5407C41.799 52.5229 42.1212 52.6741 42.4433 52.5496C42.7655 52.5051 43.0876 52.4606 43.4008 52.5585C43.714 52.2026 44.0272 52.6474 44.3315 52.5763C44.6357 52.7275 44.94 52.5585 45.2353 52.594C45.5306 52.5318 45.8259 52.7542 46.1212 52.6118C46.4075 52.6385 46.6939 52.4962 46.9713 52.6296C47.2487 52.4517 47.5261 52.7809 47.7946 52.6563C48.063 52.6563 48.3225 52.6474 48.582 52.683C48.8415 52.9588 49.0921 52.7275 49.3337 52.7097C49.5753 52.7364 49.8169 52.5496 50.0496 52.7364C50.2822 52.7631 50.506 52.8788 50.7297 52.772C50.9534 52.7275 51.1682 53.1724 51.374 52.8076C51.5798 52.7453 51.7856 53.0923 51.9735 52.8432C52.1704 52.6118 52.3494 52.8699 52.5283 52.8788C52.7073 52.8966 52.8773 52.9055 53.0384 52.9144C54.506 53.03 55.3561 53.1724 55.3561 53.3237C55.3561 53.4927 54.318 53.644 52.5283 53.7685C52.3494 53.7774 52.1614 53.9732 51.9735 53.8041C51.7767 53.8041 51.5798 53.9554 51.374 53.8397C51.1682 54.0977 50.9534 53.8842 50.7297 53.8753C50.506 53.8842 50.2822 53.8041 50.0496 53.9109C49.8169 54.0622 49.5753 53.8397 49.3337 53.9376C49.0831 53.7774 48.8326 53.8219 48.582 53.9643C48.3225 53.813 48.063 53.9999 47.7946 53.991C47.5261 53.7507 47.2487 53.9198 46.9713 54.0177C46.6939 54.1066 46.4075 53.9821 46.1212 54.0355C45.8348 53.991 45.5395 54.0977 45.2353 54.0533C44.94 54.16 44.6357 54.2045 44.3315 54.0711C44.0272 54.1511 43.714 54.0888 43.4008 54.0888C43.0876 54.1778 42.7655 54.0799 42.4433 54.0977C42.1212 54.1422 41.7901 53.8486 41.4679 54.1066C41.1368 54.1422 40.8057 54.0622 40.4657 54.1066C40.1257 54.0711 39.7946 54.0355 39.4456 54.1066C39.1055 53.8486 38.7565 54.0088 38.4165 54.1066C38.0675 54.1778 37.7274 54.1422 37.3784 54.1066C37.0384 54.1333 36.6984 54.1155 36.3583 54.1066C36.0272 54.1778 35.6872 53.9999 35.3561 54.1066C35.025 54.2134 34.7028 53.991 34.3807 54.0977C34.0585 54.1689 33.7364 54.2134 33.4232 54.0888C33.11 54.0888 32.7968 53.8575 32.4925 54.0711C32.1883 54.1244 31.884 54.4092 31.5798 54.0533C31.2845 54.1422 30.9892 53.8753 30.6939 54.0355C30.4075 53.7774 30.1212 54.0266 29.8438 54.0177C29.5664 53.9643 29.289 53.8753 29.0205 53.991C28.752 54.1155 28.4925 53.9198 28.233 53.9643C27.9735 54.1155 27.723 53.7685 27.4814 53.9376C27.2397 53.902 26.9981 53.9643 26.7655 53.9109C26.5328 54.2668 26.3091 53.9109 26.0854 53.8753C25.8617 53.8219 25.6469 54.1066 25.4411 53.8397C25.2353 54.1066 25.0295 53.8753 24.8415 53.8041C24.6447 53.724 24.4657 53.9198 24.2867 53.7685C24.1078 53.9554 23.9377 53.6618 23.7767 53.7329C23.6156 53.6084 23.4545 53.7329 23.3113 53.6973C23.1592 53.7418 23.025 53.724 22.8908 53.6529C22.7565 53.6351 22.6402 53.6262 22.5239 53.6084C21.8348 53.5194 21.459 53.4304 21.459 53.3237V53.3148Z" fill="black"/>
<path id="Vector_10" d="M21.459 61.5625C21.459 61.4647 21.8348 61.3668 22.5239 61.2867C22.6402 61.2689 22.7655 61.26 22.8908 61.2422C23.025 61.2155 23.1592 61.1888 23.3113 61.1977C23.4545 61.3312 23.6156 60.9575 23.7767 61.1532C23.9377 61.2066 24.1078 61.1532 24.2867 61.1176C24.4657 61.0732 24.6536 61.1977 24.8415 61.0821C25.0384 60.824 25.2353 61.3668 25.4411 61.0465C25.6469 60.9753 25.8617 60.9931 26.0854 61.0109C26.3091 61.2066 26.5328 61.0109 26.7655 60.9753C26.9981 61.2066 27.2397 61.1087 27.4814 60.9486C27.723 61.2689 27.9825 61.2244 28.233 60.9219C28.4925 60.913 28.752 61.0376 29.0205 60.8952C29.289 60.8774 29.5664 60.8151 29.8438 60.8685C30.1212 60.655 30.4075 60.6639 30.6939 60.8418C30.9802 60.6105 31.2755 60.6995 31.5798 60.824C31.8751 60.9486 32.1793 60.6194 32.4925 60.8062C32.7968 60.824 33.11 60.7528 33.4232 60.7884C33.7364 60.8863 34.0585 60.9842 34.3807 60.7795C34.7028 60.7261 35.0339 60.6461 35.3561 60.7706C35.6872 60.5215 36.0183 60.6372 36.3583 60.7706C36.6984 60.7262 37.0295 60.9041 37.3784 60.7706C37.7185 60.8062 38.0675 60.6639 38.4165 60.7706C38.7655 60.8418 39.1055 60.913 39.4456 60.7706C39.7856 60.6105 40.1257 60.8329 40.4657 60.7706C40.8057 61.002 41.1368 60.6995 41.4679 60.7706C41.799 60.7439 42.1212 60.9041 42.4433 60.7795C42.7655 60.735 43.0876 60.6906 43.4008 60.7884C43.714 60.4325 44.0272 60.8774 44.3315 60.8062C44.6357 60.9575 44.94 60.7884 45.2353 60.824C45.5306 60.7617 45.8259 60.9842 46.1212 60.8418C46.4075 60.8685 46.6939 60.7262 46.9713 60.8685C47.2487 60.6906 47.5261 61.0198 47.7946 60.8952C48.063 60.8952 48.3225 60.8863 48.582 60.9219C48.8415 61.1977 49.0921 60.9664 49.3337 60.9486C49.5753 60.9753 49.8169 60.7884 50.0496 60.9753C50.2822 61.002 50.506 61.1176 50.7297 61.0109C50.9534 60.9664 51.1682 61.4113 51.374 61.0465C51.5798 60.9842 51.7856 61.3312 51.9735 61.0821C52.1704 60.8507 52.3494 61.1087 52.5283 61.1176C52.7073 61.1354 52.8773 61.1443 53.0384 61.1532C54.506 61.2689 55.3561 61.4113 55.3561 61.5625C55.3561 61.7316 54.318 61.8828 52.5283 62.0074C52.3494 62.0163 52.1614 62.2121 51.9735 62.043C51.7767 62.043 51.5798 62.1943 51.374 62.0786C51.1682 62.3366 50.9534 62.1231 50.7297 62.1142C50.506 62.1231 50.2822 62.043 50.0496 62.1498C49.8169 62.301 49.5753 62.0786 49.3337 62.1854C49.0831 62.0252 48.8326 62.0697 48.582 62.212C48.3225 62.0608 48.063 62.2476 47.7946 62.2387C47.5261 61.9985 47.2487 62.1676 46.9713 62.2654C46.6939 62.3544 46.4075 62.2298 46.1212 62.2832C45.8348 62.2387 45.5395 62.3455 45.2353 62.301C44.94 62.4078 44.6357 62.4523 44.3315 62.3188C44.0272 62.3989 43.714 62.3366 43.4008 62.3366C43.0876 62.4256 42.7655 62.3277 42.4433 62.3455C42.1212 62.3989 41.7901 62.0964 41.4679 62.3544C41.1368 62.39 40.8057 62.3099 40.4657 62.3544C40.1257 62.3188 39.7946 62.2832 39.4456 62.3544C39.1055 62.0964 38.7565 62.2565 38.4165 62.3544C38.0675 62.4256 37.7274 62.39 37.3784 62.3544C37.0384 62.3811 36.6984 62.3633 36.3583 62.3544C36.0272 62.4345 35.6872 62.2476 35.3561 62.3544C35.025 62.4612 34.7028 62.2387 34.3807 62.3455C34.0585 62.4167 33.7364 62.4612 33.4232 62.3366C33.11 62.3366 32.7968 62.1053 32.4925 62.3188C32.1883 62.3722 31.884 62.6569 31.5798 62.301C31.2845 62.39 30.9892 62.132 30.6939 62.2832C30.4075 62.0252 30.1212 62.2743 29.8438 62.2654C29.5664 62.2121 29.289 62.1231 29.0205 62.2387C28.752 62.3633 28.4925 62.1676 28.233 62.212C27.9735 62.3633 27.723 62.0163 27.4814 62.1854C27.2397 62.1498 26.9981 62.212 26.7655 62.1498C26.5328 62.5057 26.3091 62.1498 26.0854 62.1142C25.8617 62.0608 25.6469 62.3455 25.4411 62.0786C25.2353 62.3455 25.0295 62.1142 24.8415 62.043C24.6447 61.9629 24.4657 62.1587 24.2867 62.0074C24.1078 62.1943 23.9377 61.9006 23.7767 61.9718C23.6156 61.8473 23.4545 61.9718 23.3113 61.9273C23.1592 61.9718 23.025 61.954 22.8908 61.8828C22.7565 61.865 22.6402 61.8561 22.5239 61.8384C21.8348 61.7494 21.459 61.6515 21.459 61.5536V61.5625Z" fill="black"/>
</g>
<defs>
<clipPath id="clip0_1379_100">
<rect width="76" height="77" fill="white"/>
</clipPath>
</defs>
</svg>
