<svg width="139" height="55" viewBox="0 0 139 55" fill="none" xmlns="http://www.w3.org/2000/svg">
    <g clip-path="url(#clip0_1646_6298)">
        <path d="M109.977 2.33728C109.977 2.33728 111.204 -0.161169 114.629 0.00824172C114.629 0.00824172 115.687 1.27811 114.46 2.63339C113.234 3.98867 109.977 2.33728 109.977 2.33728Z" fill="#CED5E0"/>
        <path d="M138.491 30.9334C138.406 30.6971 138.305 30.5163 138.187 30.4095C137.13 29.45 136.974 28.5431 136.974 28.5431V23.532C136.974 22.181 133.873 22.2778 130.507 21.2983C127.142 20.3189 125.606 17.6937 125.665 16.8125C125.723 15.9313 127.504 15.3818 131.847 15.6565C136.19 15.9313 135.525 15.2451 135.525 15.2451C133.118 13.8742 133.861 14.9519 129.343 13.1097C124.823 11.2675 120.773 7.09492 120.773 7.09492C120.773 7.09492 126.759 4.58793 125.957 3.76508C125.156 2.94223 107.781 1.45312 91.7936 1.45312C75.8065 1.45312 69.9983 2.04108 66.3001 2.56924C62.6019 3.09883 50.1196 8.016 45.1887 11.9139C40.2578 15.8117 34.4084 17.614 33.5467 17.987C32.6865 18.36 25.583 19.1814 16.5842 20.8086C7.58402 22.4344 3.98394 25.3144 3.98394 25.3144C3.98394 25.3144 1.44028 27.6662 0.325557 33.4646C0.174842 34.2504 0.0824232 34.9665 0.0355026 35.6199C-0.263083 39.7883 1.31231 41.3884 1.61658 41.9479C1.9692 42.5942 1.0706 43.2804 1.0706 43.2804C0.092376 43.8684 0.133609 44.3211 0.133609 44.3211C0.075314 46.2017 12.2889 47.7918 12.2889 47.7918C12.2889 47.7918 10.3751 29.2535 25.6001 29.6777C40.8251 30.102 39.517 47.1754 39.517 47.1754L41.2929 47.1484C41.8815 46.7156 42.9906 46.26 45.0778 46.0422C49.6803 45.561 93.9022 44.2171 95.7477 44.6243C96.5795 44.8079 96.989 45.544 97.1895 46.2956L99.089 46.2672C99.089 46.2672 98.1833 26.5458 113.347 27.8171C128.512 29.0869 126.523 44.0435 126.523 44.0435C127.58 43.3971 132.002 42.3778 133.449 42.0262C134.897 41.6731 137.402 38.9113 138.184 38.5782C138.879 38.2821 139.173 32.8197 138.488 30.9334H138.491Z" fill="#CED5E0"/>
        <path d="M96.1475 43.3929C96.2186 43.6307 99.0921 46.2686 99.0921 46.2686C99.0921 46.2686 102.168 46.3384 102.995 45.8316C103.823 45.3248 123.403 43.9453 123.403 43.9453C123.403 43.9453 126.197 44.4464 126.915 43.8499C127.631 43.2548 130.435 30.7825 130.435 30.7825L110.35 22.1768C110.35 22.1768 92.9299 32.6233 96.1475 43.3915V43.3929Z" fill="#CED5E0"/>
        <path d="M125.012 4.04436C125.012 4.04436 125.868 3.62155 126.014 4.04436C126.161 4.46718 125.012 6.10149 130.088 9.7915C135.164 13.4815 134.558 15.3564 134.558 15.3564L119.937 11.5454C119.937 11.5454 116.735 4.95121 125.012 4.04436Z" fill="#CED5E0"/>
        <path d="M133.591 15.0536C133.591 15.0536 136.189 15.0536 136.672 16.4444C137.156 17.8353 137.035 23.5227 136.672 23.9455C136.31 24.3697 121.99 18.8034 121.99 18.8034C121.99 18.8034 125.012 13.6613 133.591 15.0522V15.0536Z" fill="#CED5E0"/>
        <path d="M10.2881 43.3479C10.2881 43.3479 11.5805 47.6843 12.29 47.7939C12.9995 47.9035 15.0683 47.3511 15.7124 47.26C16.3565 47.1675 34.2815 50.4518 34.2815 50.4518C34.2815 50.4518 38.5556 48.9655 40.0727 46.6408C41.5898 44.316 42.969 30.6023 42.969 30.6023L26.6292 27.7949L18.9769 29.1758L13.3237 34.3293L10.2895 43.3494L10.2881 43.3479Z" fill="#CED5E0"/>
        <path d="M94.1941 44.7298L94.0576 44.522C94.0818 44.5063 96.5188 42.8905 97.0264 41.4398C97.0705 41.3146 97.133 41.0939 97.2112 40.8163C97.6392 39.303 98.6416 35.7596 100.87 32.5565C103.655 28.549 107.375 26.4278 111.929 26.2499C117.974 26.0135 121.771 28.5291 123.891 30.6801C125.951 32.7714 126.869 34.9368 127.043 35.3781C131.648 35.4763 138.51 35.2172 138.76 34.0997L139.003 34.1538C138.942 34.4285 138.754 35.267 132.788 35.5503C129.882 35.6884 126.983 35.6258 126.953 35.6258H126.868L126.839 35.5432C126.831 35.519 125.968 33.1402 123.707 30.8481C121.624 28.7369 117.889 26.2684 111.94 26.5004C104.952 26.7737 100.078 31.6126 97.453 40.8861C97.3705 41.1793 97.3108 41.39 97.2639 41.5238C96.7278 43.0542 94.2993 44.6643 94.197 44.7327L94.1941 44.7298Z" fill="#CED5E0"/>
        <path d="M11.672 34.1584C11.672 34.1584 15.5564 24.9405 24.8794 26.1463C34.2024 27.3521 42.7476 34.1584 42.7476 34.1584C42.7476 34.1584 42.7476 38.6314 63.141 37.2704C83.5344 35.9094 93.0521 34.9371 93.0521 34.9371C93.0521 34.9371 95.9655 33.7697 86.4491 33.9648C76.9314 34.1598 50.7113 33.9648 50.7113 33.9648C50.7113 33.9648 42.7476 32.2906 43.3306 27.9742C43.9135 23.6578 62.7528 27.7891 74.9891 26.5008C87.2254 25.2138 101.987 27.9272 101.987 27.9272C101.987 27.9272 108.397 21.7544 114.806 23.6792C121.216 25.6025 127.893 31.8265 128.73 31.8265C129.414 31.8265 136.161 32.5625 138.493 30.9353C138.407 30.699 138.306 30.5182 138.188 30.4114C137.132 29.4519 136.975 28.5451 136.975 28.5451V23.5339C136.975 22.1829 133.874 22.2797 130.509 21.3003C127.143 20.3208 125.608 17.6957 125.666 16.8145C125.724 15.9333 127.506 15.3837 131.848 15.6585C136.192 15.9333 135.527 15.2471 135.527 15.2471C133.119 13.8761 133.863 14.9538 129.344 13.1117C124.824 11.2695 120.775 7.09687 120.775 7.09687C120.775 7.09687 126.761 4.58988 125.959 3.76703C125.157 2.94418 107.782 1.45508 91.7952 1.45508C75.8081 1.45508 69.9999 2.04303 66.3017 2.57119C62.6035 3.10078 50.1212 8.01795 45.1903 11.9158C40.2594 15.8137 34.41 17.616 33.5483 17.989C32.6881 18.3619 25.5846 19.1834 16.5858 20.8106C7.58563 22.4363 3.98555 25.3163 3.98555 25.3163C3.98555 25.3163 1.44188 27.6681 0.327164 33.4665C0.176449 34.2524 0.0840299 34.9684 0.0371094 35.6219C2.40446 34.7207 7.82592 32.9739 11.6706 34.1584H11.672Z" fill="#CED5E0"/>
        <path d="M128.729 31.8255C127.892 31.8255 121.215 25.6028 114.805 23.6781C108.396 21.7548 101.986 27.9262 101.986 27.9262C101.986 27.9262 87.2244 25.2128 74.9881 26.4997C62.7518 27.7881 43.9124 23.6567 43.3295 27.9732C42.7465 32.2896 50.7102 33.9637 50.7102 33.9637C50.7102 33.9637 76.9303 34.1588 86.4481 33.9637C95.9644 33.7687 93.0511 34.9361 93.0511 34.9361C93.0511 34.9361 83.5333 35.9084 63.1399 37.2694C42.7465 38.6303 42.7465 34.1573 42.7465 34.1573C42.7465 34.1573 34.2013 27.351 24.8783 26.1452C15.5554 24.9394 11.6709 34.1573 11.6709 34.1573C7.82627 32.9729 2.40481 34.7197 0.0374557 35.6208C-0.26113 39.7892 1.31426 41.3893 1.61854 41.9488C1.97115 42.5951 1.07255 43.2813 1.07255 43.2813C0.0943291 43.8693 0.135562 44.322 0.135562 44.322C0.0772671 46.2026 12.2908 47.7927 12.2908 47.7927C12.2908 47.7927 10.377 29.2544 25.602 29.6786C40.8271 30.1029 39.519 47.1763 39.519 47.1763L41.2948 47.1493C41.8835 46.7165 42.9925 46.2609 45.0798 46.0431C49.6822 45.5619 93.9042 44.218 95.7497 44.6252C96.5815 44.8088 96.991 45.5449 97.1914 46.2965L99.091 46.268C99.091 46.268 98.1853 26.5467 113.349 27.818C128.514 29.0878 126.525 44.0444 126.525 44.0444C127.582 43.398 132.004 42.3787 133.451 42.0271C134.898 41.674 137.404 38.9122 138.186 38.5791C138.881 38.283 139.175 32.8206 138.49 30.9343C136.158 32.5615 129.412 31.8255 128.728 31.8255H128.729Z" fill="#CED5E0"/>
        <path d="M95.7508 44.6265C93.9066 44.2194 49.6847 45.5633 45.0808 46.0445C42.9921 46.2623 41.8845 46.7178 41.2959 47.1506L97.1925 46.2993C96.992 45.5462 96.5825 44.8116 95.7508 44.628V44.6265Z" fill="#CED5E0"/>
        <path d="M2.14851 30.5369C2.14851 30.5369 2.02339 27.8534 4.47036 26.0468C6.91734 24.2402 16.9754 21.467 17.6906 22.3084C18.4058 23.1497 15.4569 24.3114 14.6351 25.0816C13.8132 25.8503 9.45389 30.3233 7.23868 30.5369C5.02346 30.7518 1.94945 32.0786 2.14566 30.6081" fill="#CED5E0"/>
        <path d="M0.825989 36.8329C0.629776 36.6535 0.469108 36.3147 1.25538 36.1709C2.04166 36.0271 4.23839 35.8663 4.23839 35.8663C4.23839 35.8663 5.16685 35.7951 5.88203 36.8329C6.59722 37.8707 7.41904 39.8552 7.41904 39.8552C7.41904 39.8552 8.3475 41.3942 6.90149 41.4113C5.45548 41.4283 1.82838 41.4113 1.82838 41.4113C1.82838 41.4113 2.63172 40.9813 2.47105 40.1955C2.31038 39.4082 1.63075 37.2614 1.63075 37.2614C1.63075 37.2614 1.02362 37.0109 0.827411 36.8315L0.825989 36.8329Z" fill="#CED5E0"/>
        <path d="M1.8811 36.744L3.39962 40.303C3.39962 40.303 3.59583 40.8041 4.4532 40.7329C5.31057 40.6617 6.66842 40.8397 6.66842 40.8397C6.66842 40.8397 7.15042 41.0006 6.66842 40.088C6.18642 39.1755 4.73899 36.6358 4.73899 36.6358C4.73899 36.6358 4.72051 36.529 3.88162 36.4564C3.04274 36.3852 1.63086 36.6528 1.63086 36.6528C1.63086 36.6528 1.68489 36.7952 1.8811 36.7425V36.744Z" fill="#CED5E0"/>
        <path d="M38.6502 18.9599C38.6502 18.9599 47.4385 12.2845 52.5642 9.6907C57.69 7.0983 60.5635 5.66045 67.5902 4.4461C74.6169 3.23176 82.1626 3.58908 82.1626 3.58908H98.0061C98.0061 3.58908 109.8 3.77558 112.516 5.49815C115.232 7.22073 117.026 8.96181 116.753 9.79605C116.481 10.6303 112.406 13.6768 109.382 14.111C106.358 14.5467 84.6977 16.8131 84.6977 16.8131L63.238 18.772L40.5085 20.513C40.5085 20.513 38.535 20.8632 38.272 19.955C38.1085 19.3927 38.6502 18.9599 38.6502 18.9599Z" fill="#CED5E0"/>
        <path d="M42.4505 20.4669L43.7188 16.3839C43.7188 16.3839 52.601 10.2297 55.1375 9.22316C57.6755 8.21666 64.2657 4.67755 77.5101 4.94946C77.5101 4.94946 88.6402 4.11237 102.062 4.46116L105.526 14.4777L106.705 14.2969L102.445 3.8547C102.445 3.8547 69.5464 2.31862 60.3031 6.22075C51.0597 10.1229 37.1926 18.5621 38.4623 20.195L42.4505 20.4669Z" fill="#CED5E0"/>
        <path d="M75.2124 4.43472L72.0176 17.8224L78.9732 17.2017V4.40625L75.2124 4.43472Z" fill="#CED5E0"/>
        <path d="M98.6926 15.3736L98.1494 15.3395L98.8205 4.39043L99.3637 4.19824L98.6926 15.3736Z" fill="#CED5E0"/>
        <path d="M102.469 4.38502C102.469 4.38502 103.94 4.35512 105.227 4.46331C106.514 4.57151 109.814 4.55443 113.013 6.7411C116.212 8.92778 115.887 10.629 115.744 10.9052C115.602 11.1814 116.296 10.7073 116.296 10.7073L116.448 9.53851L114.027 6.36954L110.24 4.70248L102.079 3.75293L102.466 4.38644L102.469 4.38502Z" fill="#CED5E0"/>
        <path d="M107.859 4.46593C107.859 4.46593 111.686 4.71934 114.578 7.81997C116.878 10.2857 116.08 10.8124 114.578 11.846C113.075 12.8795 110.449 13.9857 110.449 13.9857C110.449 13.9857 116.715 12.0097 117.204 10.1049C117.693 8.2015 113.98 4.33923 107.859 4.46593Z" fill="#CED5E0"/>
        <path d="M37.7683 42.9061C37.7683 49.5857 32.3611 54.9997 25.6898 54.9997C19.0186 54.9997 13.6113 49.5857 13.6113 42.9061C13.6113 36.2265 19.0186 30.8125 25.6898 30.8125C32.3611 30.8125 37.7683 36.2265 37.7683 42.9061Z" fill="#CED5E0"/>
        <path d="M16.5947 42.9059C16.5947 47.9512 20.6797 52.0412 25.7201 52.0412C30.7605 52.0412 34.844 47.9512 34.844 42.9059C34.844 37.8606 30.759 33.7705 25.7201 33.7705C20.6811 33.7705 16.5947 37.8606 16.5947 42.9059Z" fill="#CED5E0"/>
        <path d="M22.5527 36.7808L24.6642 39.1838C24.6642 39.1838 25.0296 39.7604 25.5286 39.7604C26.0277 39.7604 26.3931 39.3561 26.3931 39.3561L28.6012 36.7808C28.6012 36.7808 28.9084 36.4163 28.6012 36.1658C28.2941 35.9152 27.2164 35.5508 25.7206 35.5508C24.2248 35.5508 22.0167 35.9551 22.5542 36.7808H22.5527Z" fill="#CED5E0"/>
        <path d="M22.5518 49.0314L24.6632 46.6283C24.6632 46.6283 25.0286 46.0518 25.5277 46.0518C26.0267 46.0518 26.3921 46.4546 26.3921 46.4546L28.6003 49.03C28.6003 49.03 28.9074 49.3958 28.6003 49.645C28.2931 49.8941 27.2154 50.26 25.7196 50.26C24.2239 50.26 22.0157 49.8557 22.5532 49.03L22.5518 49.0314Z" fill="#CED5E0"/>
        <path d="M31.9105 39.8531L29.5104 41.9672C29.5104 41.9672 28.9346 42.333 28.9346 42.8313C28.9346 43.3296 29.3384 43.6969 29.3384 43.6969L31.9105 45.9077C31.9105 45.9077 32.2759 46.2152 32.5247 45.9077C32.7749 45.6002 33.1404 44.5211 33.1404 43.0235C33.1404 41.5259 32.7366 39.315 31.9119 39.8531H31.9105Z" fill="#CED5E0"/>
        <path d="M19.6767 39.8511L22.0768 41.9652C22.0768 41.9652 22.6526 42.3311 22.6526 42.8294C22.6526 43.3276 22.2488 43.6949 22.2488 43.6949L19.6767 45.9058C19.6767 45.9058 19.3113 46.2133 19.0625 45.9058C18.8137 45.5983 18.4482 44.5192 18.4482 43.0215C18.4482 41.5239 18.852 39.313 19.6767 39.8511Z" fill="#CED5E0"/>
        <path d="M124.916 41.4803C124.916 48.16 119.509 53.574 112.837 53.574C106.166 53.574 100.759 48.16 100.759 41.4803C100.759 34.8007 106.166 29.3867 112.837 29.3867C119.509 29.3867 124.916 34.8007 124.916 41.4803Z" fill="#CED5E0"/>
        <path d="M103.742 41.4801C103.742 46.5254 107.827 50.6154 112.868 50.6154C117.908 50.6154 121.991 46.5254 121.991 41.4801C121.991 36.4348 117.907 32.3447 112.868 32.3447C107.829 32.3447 103.742 36.4348 103.742 41.4801Z" fill="#CED5E0"/>
        <path d="M109.7 35.3555L111.811 37.7586C111.811 37.7586 112.175 38.3352 112.674 38.3352C113.173 38.3352 113.539 37.9323 113.539 37.9323L115.747 35.357C115.747 35.357 116.054 34.9925 115.747 34.742C115.44 34.4914 114.362 34.127 112.866 34.127C111.37 34.127 109.162 34.5313 109.7 35.357V35.3555Z" fill="#CED5E0"/>
        <path d="M109.7 47.6046L111.811 45.2016C111.811 45.2016 112.177 44.625 112.676 44.625C113.175 44.625 113.54 45.0279 113.54 45.0279L115.747 47.6032C115.747 47.6032 116.054 47.9691 115.747 48.2182C115.44 48.4673 114.362 48.8332 112.866 48.8332C111.37 48.8332 109.162 48.4289 109.7 47.6032V47.6046Z" fill="#CED5E0"/>
        <path d="M119.058 38.4263L116.658 40.5404C116.658 40.5404 116.082 40.9063 116.082 41.4045C116.082 41.9028 116.486 42.2701 116.486 42.2701L119.058 44.481C119.058 44.481 119.423 44.7885 119.672 44.481C119.922 44.1735 120.288 43.0944 120.288 41.5967C120.288 40.0991 119.884 37.8882 119.059 38.4263H119.058Z" fill="#CED5E0"/>
        <path d="M106.825 38.4259L109.225 40.54C109.225 40.54 109.801 40.9058 109.801 41.4055C109.801 41.9052 109.398 42.2711 109.398 42.2711L106.826 44.482C106.826 44.482 106.461 44.7895 106.212 44.482C105.962 44.1745 105.598 43.0954 105.598 41.5977C105.598 40.1001 106.001 37.8892 106.826 38.4273L106.825 38.4259Z" fill="#CED5E0"/>
        <path d="M44.0636 46.7843C41.6209 41.7134 40.2702 37.4383 40.128 29.3891C39.9787 20.9983 43.2745 15.3651 43.3086 15.3096L43.5219 15.4377C43.4892 15.4932 40.2289 21.0695 40.3768 29.3849C40.519 37.3884 41.8612 41.6379 44.2883 46.6775L44.0636 46.7857V46.7843Z" fill="#CED5E0"/>
        <path d="M75.3739 45.0634C75.3653 45.0292 74.4838 41.6424 74.0444 39.7989C73.6051 37.9581 73.9933 34.493 73.9933 34.2582V20.9345C73.9933 19.9722 75.1876 18.0318 75.3326 17.7898L77.3658 3.76855L77.6246 3.80415L75.6141 17.8752L75.6042 17.8965C75.5914 17.9179 74.3373 19.9978 74.3373 20.9331V34.2795C74.3331 34.3151 73.9008 37.9183 74.3345 39.7391C74.7738 41.5827 75.607 44.968 75.6156 45.0022L75.3739 45.062V45.0634Z" fill="#CED5E0"/>
        <path d="M106.802 27.8689L106.606 27.7166C107.22 26.9265 107.583 19.4838 107.572 17.8239C107.563 16.4316 106.113 14.5325 106.099 14.514L106.08 14.4812L102.238 4.24256L102.471 4.1543L106.308 14.3759C106.458 14.5737 107.812 16.3974 107.822 17.821C107.828 18.8247 107.535 26.9279 106.804 27.8675L106.802 27.8689Z" fill="#CED5E0"/>
        <path d="M39.6902 20.7091C38.8172 20.7091 38.284 20.4614 38.1475 19.9916C37.9627 19.3538 38.5442 18.8797 38.5684 18.8598C38.658 18.7915 47.4279 12.1446 52.5052 9.57639C57.6409 6.97829 60.4704 5.54614 67.5667 4.3204C71.9062 3.57016 76.429 3.48047 79.4575 3.48047C81.1069 3.48047 82.1562 3.59863 82.1676 3.59863H98.004C98.4888 3.59863 109.868 3.73672 112.583 5.4593C114.884 6.91708 117.219 8.81761 116.876 9.87251C116.592 10.7466 112.444 13.8216 109.4 14.2587C106.408 14.6886 84.9273 16.9294 84.7112 16.9522L63.2486 18.9068L40.5177 20.645C40.5177 20.645 40.141 20.7091 39.6902 20.7091ZM79.4575 3.60859C76.439 3.60859 71.9332 3.79651 67.6108 4.54249C60.5528 5.76253 57.7348 7.20323 52.6218 9.78994C47.5658 12.3482 38.8158 18.9879 38.7277 19.0534C38.7262 19.0548 38.2599 19.4421 38.3964 19.9133C38.5243 20.3517 39.1713 20.4471 39.6902 20.4471C40.1168 20.4471 40.4808 20.3845 40.485 20.3831L63.2273 18.642L84.6856 16.6845C84.9003 16.6617 106.376 14.4138 109.363 13.9839C112.4 13.5469 116.4 10.4619 116.629 9.75719C116.866 9.0283 115.146 7.26159 112.444 5.54898C109.788 3.86485 98.1191 3.59863 98.0011 3.59863H82.1604C82.1434 3.59863 81.0998 3.61002 79.4561 3.61002L79.4575 3.60859Z" fill="#CED5E0"/>
        <path d="M11.1526 42.1774H1.56946C1.50121 42.1774 1.44434 42.1033 1.44434 42.035C1.44434 41.9667 1.49979 41.8927 1.56946 41.8927H11.0403C11.1142 41.1808 11.5593 38.187 13.3821 35.1888C15.2603 32.0996 19.0253 28.3911 26.2937 28.3896C32.4531 28.3896 35.9537 31.7693 37.8063 34.6151C39.8083 37.6916 40.3642 40.805 40.3699 40.8363C40.3813 40.9047 40.3372 40.9659 40.269 40.9773C40.2007 40.9887 40.1367 40.9417 40.1254 40.8748C40.1197 40.8434 39.5708 37.767 37.5945 34.7319C35.776 31.9416 32.3394 28.6132 26.2952 28.6146C19.1419 28.6146 15.4409 32.232 13.5953 35.2671C11.5934 38.56 11.2792 41.9624 11.2763 41.9952C11.2706 42.0592 11.2166 42.1774 11.1526 42.1774Z" fill="#CED5E0"/>
        <path d="M44.1963 20.1188C44.1963 20.1188 44.8916 15.6444 47.7679 15.0778C50.6429 14.5126 51.1775 17.1691 51.2088 17.3399C51.2386 17.5122 51.7533 19.7643 49.504 20.1174C47.2547 20.4704 44.1679 21.2491 44.1977 20.1174L44.1963 20.1188Z" fill="#CED5E0"/>
        <path d="M62.7639 22.5472C62.7398 21.7941 64.4374 21.2602 66.401 21.0424C68.366 20.8246 70.3295 20.9698 70.5001 21.552C70.6708 22.1343 68.9717 23.5437 66.6327 23.4953C64.2924 23.4469 62.7881 23.3017 62.7639 22.5486V22.5472Z" fill="#CED5E0"/>
        <path d="M63.4107 22.596C63.4107 22.596 63.6211 21.9411 66.361 21.6009C69.1023 21.2606 69.8047 21.2606 69.8047 21.6009C69.8047 21.9411 68.5918 22.5718 67.8894 22.596C67.1856 22.6202 63.3225 23.2523 63.4107 22.596Z" fill="#CED5E0"/>
        <path d="M96.0422 19.0463C96.0181 18.2932 97.7158 17.7593 99.6807 17.5401C101.646 17.3209 103.609 17.4675 103.78 18.0497C103.949 18.632 102.251 20.0414 99.9111 19.9916C97.5707 19.9432 96.0664 19.7979 96.0422 19.0449V19.0463Z" fill="#CED5E0"/>
        <path d="M96.6909 19.095C96.6909 19.095 96.9014 18.4402 99.6412 18.0999C102.383 17.7597 103.085 17.7597 103.085 18.0999C103.085 18.4402 101.872 19.0708 101.17 19.095C100.466 19.1192 96.6028 19.7513 96.6909 19.095Z" fill="#CED5E0"/>
    </g>
    <defs>
        <clipPath id="clip0_1646_6298">
            <rect width="139" height="55" fill="white"/>
        </clipPath>
    </defs>
</svg>
