<svg width="129" height="39" viewBox="0 0 129 39" fill="none" xmlns="http://www.w3.org/2000/svg">
    <g clip-path="url(#clip0_1646_5987)">
        <path d="M89.1895 1.63776C89.1895 1.63776 91.011 0.197983 91.4531 0.0942041C91.8951 -0.00957522 92.2524 -0.0949632 92.2524 0.213747C92.2524 0.522458 91.487 1.67191 91.5887 2.10017C91.6904 2.52842 89.1895 1.63644 89.1895 1.63644V1.63776Z" fill="#CED5E0"/>
        <path d="M114.835 32.1002L112.353 34.3387L108.489 34.5922L89.8037 34.2283L34.2617 33.7278L32.7883 34.2283C32.7883 34.2283 30.5507 34.1666 29.638 34.2336C28.7252 34.3019 15.6677 34.5922 15.6677 34.5922C15.6677 34.5922 12.9321 34.7301 12.091 35.3003L9.63574 30.5829L11.6542 19.2526C11.6542 19.2526 18.183 16.4059 18.6967 16.3467C19.2105 16.2889 29.1881 15.9986 29.1881 15.9986L46.2604 17.6525L97.549 14.6035L113.453 15.0108L114.838 32.1015L114.835 32.1002Z" fill="#CED5E0"/>
        <path d="M127.531 27.6561C127.531 27.6561 127.175 28.6387 127.236 28.9041C127.298 29.1694 127.979 29.5754 127.979 30.0273C127.979 30.4792 127.236 31.8992 126.477 31.9925C126.477 31.9925 126.229 33.2405 125.393 33.2405C124.558 33.2405 119.062 33.4126 119.062 33.4126C119.062 33.4126 125.007 26.8456 127.531 27.6574V27.6561Z" fill="#CED5E0"/>
        <path d="M35.2412 12.4651C35.2412 12.4651 38.1529 9.8641 40.9993 8.53073C43.8458 7.19736 53.6553 1.81135 57.3493 1.20312C61.0433 0.594898 60.0953 4.12996 60.0953 4.2298C60.0953 4.32964 36.1018 18.0338 35.2412 12.4651Z" fill="#CED5E0"/>
        <path d="M119.392 13.5508H124.93L125.36 13.8188C125.36 13.8188 127.279 15.2612 125.79 18.5296C124.301 21.798 116.933 18.2366 119.393 13.5508H119.392Z" fill="#CED5E0"/>
        <path d="M92.9599 2.72972L95.5417 2.62988C95.5417 2.62988 108.076 5.63029 115.961 9.76438C123.846 13.8998 111.229 12.1316 111.229 12.1316C111.229 12.1316 91.8359 4.96295 92.9612 2.72972H92.9599Z" fill="#CED5E0"/>
        <path d="M34.0781 11.2753C34.0781 11.2753 35.7706 10.7525 36.3991 11.2753C37.0276 11.7982 36.8294 12.4655 36.8294 12.4655L34.0781 11.2753Z" fill="#CED5E0"/>
        <path d="M12.0883 35.3012C12.0883 35.3012 0.167844 34.4368 0.00224588 32.2693C0.00224588 32.2693 -0.0668622 31.8029 0.56163 31.5034C0.56163 31.5034 0.162629 24.5029 1.12232 22.3354C2.08201 20.1678 2.01551 17.5011 6.91305 15.6672C11.8106 13.8334 23.5264 11.6658 34.349 11.2665C34.349 11.2665 36.9633 12.1663 38.3533 12.1335C38.3533 12.1335 53.9078 2.6646 57.714 2.43077C57.714 2.43077 56.6552 1.69774 56.9199 1.36407C57.1846 1.0304 66.2195 -0.536795 77.6367 0.197542C89.0539 0.930566 95.5409 2.63176 95.5409 2.63176C95.5409 2.63176 93.8536 3.46593 94.0844 3.59861C94.3165 3.73129 111.691 9.53374 111.691 9.53374C111.691 9.53374 114.239 10.0671 115.629 9.46674C115.629 9.46674 118.706 10.3009 119.567 10.3666C120.428 10.4336 124.796 10.2668 124.862 10.8001C124.929 11.3335 124.796 12.3003 125.028 12.5C125.26 12.6997 126.45 14.5677 126.087 15.2009L125.359 13.8005C125.359 13.8005 119.27 14.1013 119.171 14.8672C119.072 15.6344 119.7 17.6351 120.031 18.0016C120.362 18.3681 125.989 18.1356 125.989 18.1356C125.989 18.1356 126.387 20.8365 126.916 21.203C127.445 21.5695 129.034 21.8703 129.001 22.8372C128.968 23.804 129.1 27.8055 127.512 28.0721C127.512 28.0721 125.659 27.8383 124.435 29.3057C123.21 30.773 121.82 32.8394 119.305 33.4398C116.79 34.0401 112.355 34.3396 112.355 34.3396C112.355 34.3396 113.48 19.8644 101.566 19.5307C89.6524 19.197 90.1492 34.2293 90.1492 34.2293H32.7869C32.7869 34.2293 35.8041 19.2351 22.3346 18.7018C8.86503 18.1684 12.0896 35.3012 12.0896 35.3012H12.0883Z" fill="#CED5E0"/>
        <path d="M87.1104 3.46396C82.7527 2.4104 68.4578 1.18081 61.6148 2.62978C54.7731 4.07875 47.7553 6.66929 41.2188 12.1578L42.4875 12.1315C44.0235 10.8783 47.9105 8.01711 53.9451 5.65909C61.9199 2.54177 67.1943 2.27772 73.4257 2.62978C79.6585 2.98184 85.6722 3.15656 89.5944 5.08896C93.5166 7.02135 97.8313 9.91929 97.5262 10.2267C97.2589 10.496 79.7471 11.2737 75.4859 11.4602L97.1337 11.0188C97.1337 11.0188 98.4846 10.9728 98.4846 10.4027C98.4846 9.83259 91.4681 4.51883 87.1104 3.46527V3.46396Z" fill="#CED5E0"/>
        <path d="M41.7415 12.7723L74.5587 11.4994C74.5587 11.4994 74.8952 11.4849 75.4858 11.46L42.4861 12.1326C41.9919 12.5359 41.7402 12.7736 41.7402 12.7736L41.7415 12.7723Z" fill="#CED5E0"/>
        <path d="M89.5942 5.08899C85.672 3.1566 79.657 2.98188 73.4256 2.62982C67.1928 2.27907 61.9197 2.5418 53.9449 5.65912C47.9116 8.01846 44.0233 10.8783 42.4873 12.1315L75.4871 11.4589C79.7483 11.2737 97.2587 10.496 97.5273 10.2254C97.8324 9.91801 93.5177 7.02008 89.5955 5.08768L89.5942 5.08899Z" fill="#CED5E0"/>
        <path d="M49.0201 11.0176C49.0201 11.0176 56.9088 5.61581 63.0529 4.56225C69.1983 3.5087 76.3451 4.07883 76.3451 4.07883C76.3451 4.07883 74.9069 11.2357 74.2967 11.5431C73.6864 11.8505 47.7227 12.0252 47.7227 12.0252L49.0201 11.0176Z" fill="#CED5E0"/>
        <path d="M80.181 4.34305L79.2656 10.7971L93.1681 10.3136C93.1681 10.3136 94.6063 10.357 94.6063 9.83021C94.6063 9.30343 88.2001 3.90297 80.181 4.34173V4.34305Z" fill="#CED5E0"/>
        <path d="M51.4304 10.5776C51.4669 10.3503 51.4604 10.1007 51.3913 9.83144C51.0588 8.5296 50.2712 7.25272 48.3883 7.90955C46.5055 8.56638 46.2342 9.59629 45.9891 10.5999C45.9891 10.5999 44.9681 10.3149 44.8821 10.7733C44.8299 11.0492 45.0098 11.4341 45.2719 11.7192C47.207 12.0318 49.8474 11.1911 51.4304 10.5776Z" fill="#CED5E0"/>
        <path d="M45.2734 11.7174C45.4482 11.9066 45.6607 12.0511 45.868 12.0865C46.3844 12.1732 47.3076 12.3598 47.6401 12.21C47.9726 12.0616 49.5842 12.256 50.1006 12.1154C50.51 12.0038 51.2911 11.4507 51.4319 10.5771C49.8489 11.1906 47.2098 12.0314 45.2734 11.7187V11.7174Z" fill="#CED5E0"/>
        <path d="M4.07849 18.173C4.07849 18.173 2.65069 18.6473 1.98439 20.7898C1.31938 22.9324 2.13042 22.4254 2.43946 22.3268C2.74849 22.2283 7.19487 21.7712 7.87683 21.6884C8.55878 21.6069 8.47794 21.0184 8.67222 20.7071C8.86651 20.3958 10.7181 18.3031 10.2148 17.7632C9.71145 17.2233 4.90648 17.7789 4.07849 18.1717V18.173Z" fill="#CED5E0"/>
        <path d="M0.962072 26.7751C0.962072 26.7751 1.02727 29.9962 1.3024 30.4704C1.57883 30.9446 2.25948 31.4189 3.29871 31.5502C4.33794 31.6816 6.30165 31.8445 6.46334 30.4875C6.62633 29.1305 6.90145 26.5793 6.90145 26.5793C6.90145 26.5793 0.879924 26.4808 0.960768 26.7751H0.962072Z" fill="#CED5E0"/>
        <path d="M33.0091 31.9218V31.7734C33.0991 31.7734 35.8034 31.7445 39.6448 31.7051C38.7086 30.2679 38.7999 27.1808 38.8038 27.0468C38.8012 26.9615 38.5521 17.9747 39.1558 15.4091C39.7661 12.8212 41.8315 11.7282 41.8523 11.7177C41.9123 11.6809 48.3498 7.7255 50.1936 6.71398C54.5839 4.30472 58.8295 2.80321 62.1453 2.48399C66.9308 2.02421 77.2044 2.22125 77.3074 2.22388C77.6921 2.26066 86.6278 3.12243 88.3542 3.85545C90.0741 4.58585 96.0748 8.27855 96.1348 8.31665C96.2221 8.36131 98.4075 9.47661 98.5288 10.2674C98.551 10.4133 98.5079 10.5407 98.3997 10.6458C97.8768 11.1594 96.3486 11.1397 94.4136 11.1147C93.5908 11.1042 92.742 11.0937 91.8905 11.1239C89.2227 11.2198 77.0688 11.5062 76.0308 11.5312C76.0308 11.7164 76.0595 12.255 76.4038 12.7279C76.4638 12.8107 76.5289 12.8948 76.5954 12.9815C77.0218 13.5345 77.5525 14.2229 77.4534 15.2488C77.4339 15.4577 77.4117 15.8623 77.3804 16.4233C77.2435 18.9205 76.9579 24.1147 76.0634 26.2245C74.9395 28.8741 74.3149 29.8765 72.8349 30.595C71.3367 31.3215 68.6285 31.663 66.7286 31.625C64.9044 31.5869 33.3273 31.9192 33.0078 31.9232L33.0091 31.9218ZM72.1764 2.33029C68.871 2.33029 64.7245 2.38809 62.161 2.63374C58.8634 2.95034 54.6386 4.4466 50.2653 6.84666C48.4241 7.85686 41.9906 11.8097 41.9254 11.8491C41.9006 11.8622 39.8938 12.9263 39.3006 15.4446C38.7008 17.9905 38.9498 26.9575 38.9524 27.0482C38.9524 27.0862 38.8559 30.3481 39.8234 31.7038C49.2991 31.6079 65.443 31.4502 66.7326 31.4765C68.6141 31.5146 71.2937 31.1783 72.7723 30.461C74.2106 29.7635 74.8221 28.7769 75.9291 26.1654C76.8132 24.0806 77.0975 18.9034 77.2344 16.4154C77.2657 15.8531 77.2878 15.4472 77.3074 15.2357C77.4 14.2688 76.911 13.6343 76.4794 13.0734C76.4116 12.9854 76.3464 12.9 76.2851 12.8173C75.8287 12.1919 75.8835 11.4839 75.8861 11.4537L75.8913 11.388H75.9578C76.0895 11.3827 89.1131 11.0767 91.8866 10.9781C92.7407 10.9479 93.5921 10.9584 94.4162 10.9689C96.2417 10.9926 97.8181 11.0123 98.298 10.542C98.371 10.4711 98.3984 10.3883 98.3841 10.2924C98.2928 9.69862 96.6785 8.76066 96.0644 8.44933C95.9992 8.4086 90.0076 4.72115 88.2982 3.99601C86.5926 3.27218 77.3935 2.38546 77.3009 2.37627C77.2552 2.37627 75.0281 2.33292 72.1764 2.33292V2.33029Z" fill="#CED5E0"/>
        <path d="M31.8767 28.5684C31.8767 33.7141 27.7368 37.8849 22.6293 37.8849C17.5218 37.8849 13.3818 33.7141 13.3818 28.5684C13.3818 23.4228 17.5218 19.252 22.6293 19.252C27.7368 19.252 31.8767 23.4228 31.8767 28.5684Z" fill="#CED5E0"/>
        <path d="M15.665 28.5685C15.665 32.4557 18.7932 35.6058 22.6515 35.6058C26.5098 35.6058 29.6366 32.4557 29.6366 28.5685C29.6366 24.6814 26.5098 21.5312 22.6515 21.5312C18.7932 21.5312 15.665 24.6814 15.665 28.5685Z" fill="#CED5E0"/>
        <path d="M20.2274 23.8498L21.8442 25.7008C21.8442 25.7008 22.1233 26.1448 22.5053 26.1448C22.8874 26.1448 23.1664 25.8335 23.1664 25.8335L24.8563 23.8498C24.8563 23.8498 25.091 23.5687 24.8563 23.3756C24.6216 23.1838 23.7962 22.9014 22.6514 22.9014C21.5065 22.9014 19.8153 23.2127 20.2274 23.8485V23.8498Z" fill="#CED5E0"/>
        <path d="M20.2274 33.2872L21.8442 31.4362C21.8442 31.4362 22.1246 30.9922 22.5053 30.9922C22.8861 30.9922 23.1664 31.3035 23.1664 31.3035L24.8563 33.2872C24.8563 33.2872 25.091 33.5683 24.8563 33.7614C24.6216 33.9532 23.7962 34.2356 22.6514 34.2356C21.5065 34.2356 19.8153 33.9243 20.2274 33.2885V33.2872Z" fill="#CED5E0"/>
        <path d="M27.3912 26.2161L25.554 27.8451C25.554 27.8451 25.1133 28.1262 25.1133 28.5111C25.1133 28.896 25.4223 29.1771 25.4223 29.1771L27.3912 30.8796C27.3912 30.8796 27.6703 31.1161 27.8607 30.8796C28.0523 30.6432 28.3314 29.8116 28.3314 28.6582C28.3314 27.5048 28.0223 25.801 27.3899 26.2161H27.3912Z" fill="#CED5E0"/>
        <path d="M18.0254 26.2161L19.8627 27.8451C19.8627 27.8451 20.3034 28.1262 20.3034 28.5111C20.3034 28.896 19.9943 29.1771 19.9943 29.1771L18.0254 30.8796C18.0254 30.8796 17.7464 31.1161 17.5547 30.8796C17.3643 30.6432 17.084 29.8116 17.084 28.6582C17.084 27.5048 17.393 25.801 18.0254 26.2161Z" fill="#CED5E0"/>
        <path d="M110.728 29.6837C110.728 34.8293 106.588 39.0002 101.481 39.0002C96.3734 39.0002 92.2334 34.8293 92.2334 29.6837C92.2334 24.5381 96.3734 20.3672 101.481 20.3672C106.588 20.3672 110.728 24.5381 110.728 29.6837Z" fill="#CED5E0"/>
        <path d="M94.5176 29.6838C94.5176 33.5709 97.6457 36.7211 101.504 36.7211C105.362 36.7211 108.489 33.5709 108.489 29.6838C108.489 25.7966 105.362 22.6465 101.504 22.6465C97.6457 22.6465 94.5176 25.798 94.5176 29.6838Z" fill="#CED5E0"/>
        <path d="M99.0799 24.9654L100.697 26.8164C100.697 26.8164 100.976 27.2604 101.358 27.2604C101.74 27.2604 102.019 26.949 102.019 26.949L103.709 24.9641C103.709 24.9641 103.944 24.683 103.709 24.4899C103.474 24.2967 102.649 24.0156 101.504 24.0156C100.359 24.0156 98.6679 24.327 99.0799 24.9628V24.9654Z" fill="#CED5E0"/>
        <path d="M99.0786 34.4024L100.695 32.5514C100.695 32.5514 100.975 32.1074 101.357 32.1074C101.739 32.1074 102.019 32.4188 102.019 32.4188L103.709 34.4037C103.709 34.4037 103.945 34.6848 103.709 34.8779C103.474 35.0697 102.649 35.3522 101.504 35.3522C100.359 35.3522 98.6679 35.0408 99.0799 34.405L99.0786 34.4024Z" fill="#CED5E0"/>
        <path d="M106.244 27.3313L104.407 28.9603C104.407 28.9603 103.966 29.2414 103.966 29.6263C103.966 30.0112 104.275 30.2923 104.275 30.2923L106.244 31.9948C106.244 31.9948 106.523 32.2313 106.713 31.9948C106.905 31.7584 107.184 30.9268 107.184 29.7734C107.184 28.62 106.875 26.9162 106.242 27.3313H106.244Z" fill="#CED5E0"/>
        <path d="M96.878 27.3317L98.7152 28.9607C98.7152 28.9607 99.1559 29.2418 99.1559 29.6267C99.1559 30.0116 98.8469 30.2927 98.8469 30.2927L96.878 31.9952C96.878 31.9952 96.5989 32.2317 96.4072 31.9952C96.2169 31.7588 95.9365 30.9272 95.9365 29.7725C95.9365 28.6178 96.2456 26.9153 96.878 27.3304V27.3317Z" fill="#CED5E0"/>
    </g>
    <defs>
        <clipPath id="clip0_1646_5987">
            <rect width="129" height="39" fill="white"/>
        </clipPath>
    </defs>
</svg>
