<svg width="119" height="42" viewBox="0 0 119 42" fill="none" xmlns="http://www.w3.org/2000/svg">
    <g clip-path="url(#clip0_1646_6409)">
        <path d="M0.962424 35.1306C1.34427 35.0058 1.29006 33.9032 1.25875 32.2068C0.0879107 32.6757 1.69118 23.8025 2.71024 21.3427C3.55464 19.3058 6.55883 14.6808 35.3009 13.7611C45.7529 7.58383 58.1876 -0.471568 71.9907 0.0215948C92.3984 0.749828 100.008 4.72179 105.369 7.85646C110.803 11.0335 112.843 15.2224 113.171 16.5577C115.229 16.8037 116.725 19.3749 117.084 22.6974C117.752 23.1784 117.626 27.7623 117.626 27.7623C119.524 27.7623 119.022 33.1834 118.639 34.1928C117.816 36.3569 113.687 36.7592 106.24 37.4159C98.7934 38.0727 47.5814 37.6789 34.6468 37.2851C21.7134 36.8913 -5.43983 37.2342 0.961219 35.1306H0.962424Z" fill="#CED5E0"/>
        <path d="M98.4013 21.1201C92.2689 21.1201 87.2964 26.1208 87.2964 32.2908C87.2964 32.6398 87.2266 34.9784 87.1543 37.7616C96.3644 37.7374 103.75 37.6356 106.241 37.4163C107.42 37.3121 108.527 37.1982 109.56 37.0673C109.537 34.6839 109.506 32.7343 109.506 32.292C109.506 26.1232 104.535 21.1213 98.4013 21.1213V21.1201Z" fill="#CED5E0"/>
        <path d="M27.3312 21.1201C21.1988 21.1201 16.2264 26.1208 16.2264 32.2908C16.2264 32.5998 16.2023 34.7081 16.1396 37.0661C22.0288 37.2442 28.7442 37.1049 34.6478 37.2854C35.6933 37.3169 36.9906 37.3496 38.4927 37.3799C38.4698 34.856 38.4361 32.7525 38.4361 32.2908C38.4361 26.122 33.4649 21.1201 27.3312 21.1201Z" fill="#CED5E0"/>
        <path d="M28.3725 41.9308C33.5648 41.2867 37.2549 36.5304 36.6146 31.3074C35.9743 26.0843 31.2461 22.3723 26.0538 23.0164C20.8615 23.6605 17.1714 28.4167 17.8117 33.6398C18.452 38.8629 23.1802 42.5749 28.3725 41.9308Z" fill="#CED5E0"/>
        <path d="M27.2152 25.1104C23.1739 25.1104 19.8975 28.4062 19.8975 32.4714C19.8975 36.5367 23.1739 39.8325 27.2152 39.8325C31.2565 39.8325 34.5329 36.5367 34.5329 32.4714C34.5329 28.4062 31.2565 25.1104 27.2152 25.1104ZM33.0248 35.1105L32.2623 34.5544L33.1886 34.7034C33.138 34.8415 33.0838 34.9772 33.0236 35.1105H33.0248ZM30.3711 33.1754L29.4244 32.4848L30.3711 31.7941L33.4825 31.2961C33.5524 31.6778 33.5945 32.0692 33.5945 32.4714C33.5945 32.8737 33.5524 33.2833 33.4789 33.6734L30.3723 33.1754H30.3711ZM21.2502 34.7276L22.3259 34.5556L21.4465 35.1966C21.3755 35.0439 21.3092 34.8876 21.2502 34.7276ZM20.9563 33.6977C20.8792 33.3002 20.837 32.8907 20.837 32.4702C20.837 32.0498 20.8792 31.6596 20.9527 31.2706L24.2182 31.7941L25.165 32.4848L24.2182 33.1754L20.9563 33.6977ZM21.4369 29.7657L22.3259 30.414L21.2405 30.2407C21.3008 30.0795 21.3658 29.9208 21.4369 29.7657ZM33.1982 30.2637L32.2623 30.414L33.0344 29.8505C33.0947 29.985 33.1477 30.1232 33.1982 30.2637ZM32.5213 28.9115L29.9544 30.7835L28.8004 30.9689L28.9847 29.8081L30.859 27.2078C31.5131 27.667 32.0792 28.2438 32.5225 28.9115H32.5213ZM29.3521 27.4865L29.5099 26.4893C29.6556 26.5462 29.7978 26.608 29.9375 26.6747L29.3521 27.4865ZM28.4884 26.1827L27.9801 29.3901L27.2935 30.3425L26.6069 29.3901L26.0949 26.1597C26.4587 26.0943 26.8309 26.0555 27.214 26.0555C27.65 26.0555 28.0752 26.1003 28.4872 26.1839L28.4884 26.1827ZM25.2361 27.4865L24.6097 26.6177C24.7603 26.5499 24.9133 26.4905 25.0699 26.4347L25.2361 27.4877V27.4865ZM23.6762 27.1327L25.6047 29.8069L25.789 30.9677L24.6338 30.7823L21.9621 28.8339C22.421 28.1638 23.0028 27.5846 23.6762 27.1315V27.1327ZM21.9753 36.1235L24.6338 34.1848L25.7878 33.9994L25.6035 35.1602L23.6894 37.815C23.0161 37.3655 22.4343 36.7899 21.9741 36.1223L21.9753 36.1235ZM25.2373 37.4818L25.0747 38.5081C24.9229 38.4536 24.7723 38.3954 24.6254 38.33L25.2373 37.4818ZM26.101 38.782L26.6081 35.5782L27.2947 34.6258L27.9813 35.5782L28.4848 38.7577C28.074 38.8414 27.65 38.885 27.2152 38.885C26.8345 38.885 26.4635 38.845 26.101 38.7808V38.782ZM29.3533 37.4818L29.9242 38.2731C29.7881 38.3373 29.6496 38.3979 29.5075 38.4524L29.3533 37.4818ZM30.8469 37.7423L28.9859 35.1602L28.8016 33.9982L29.9556 34.1836L32.5104 36.0472C32.066 36.7112 31.4998 37.2855 30.8457 37.7411L30.8469 37.7423Z" fill="#CED5E0"/>
        <path d="M28.6085 35.6723L29.6998 37.1858L28.9012 37.519L28.6085 35.6735V35.6723ZM24.8924 37.1858L25.9838 35.6723L25.6922 37.519L24.8936 37.1858H24.8924ZM27.2955 33.5931L26.2319 35.0689L26.5174 33.2683L24.7274 33.5555L26.1945 32.4856L24.7262 31.4144L26.5174 31.7016L26.2319 29.9022L27.2955 31.3781L28.3591 29.9022L28.0749 31.7028L29.8636 31.4156L28.3965 32.4856L29.8624 33.5555L28.0737 33.2683L28.3579 35.0689L27.2943 33.5931H27.2955ZM30.4647 33.8063L32.2993 34.1008L31.9692 34.9041L30.4647 33.8063ZM22.293 34.1008L24.1275 33.8063L22.623 34.9029L22.293 34.0995V34.1008ZM22.293 30.8716L22.6242 30.0682L24.1287 31.166L22.293 30.8716ZM31.9704 30.0682L32.3005 30.8716L30.4659 31.166L31.9704 30.0694V30.0682ZM28.9012 27.4521L29.6998 27.7854L28.6085 29.2988L28.9 27.4534L28.9012 27.4521ZM24.8936 27.7854L25.691 27.4534L25.9838 29.2988L24.8936 27.7854Z" fill="#CED5E0"/>
        <path d="M27.2154 24.2939C32.0818 24.2939 36.0448 28.1338 36.3014 32.9649C36.3098 32.8001 36.3267 32.6377 36.3267 32.4717C36.3267 27.4104 32.248 23.3076 27.2166 23.3076C22.1851 23.3076 18.1064 27.4104 18.1064 32.4717C18.1064 32.6389 18.1221 32.8013 18.1317 32.9649C18.3883 28.135 22.3513 24.2939 27.2178 24.2939H27.2154Z" fill="#CED5E0"/>
        <path d="M27.2157 39.8663C23.278 39.8663 20.0714 36.7583 19.8642 32.8506C19.857 32.9839 19.8438 33.1147 19.8438 33.2504C19.8438 37.346 23.1443 40.6661 27.2157 40.6661C31.2871 40.6661 34.5876 37.346 34.5876 33.2504C34.5876 33.116 34.5744 32.9839 34.5671 32.8506C34.3599 36.7595 31.1522 39.8663 27.2157 39.8663Z" fill="#CED5E0"/>
        <path d="M108.282 32.4712C108.282 37.7336 104.041 42 98.8096 42C93.5782 42 89.3369 37.7336 89.3369 32.4712C89.3369 27.2088 93.5782 22.9424 98.8096 22.9424C104.041 22.9424 108.282 27.2088 108.282 32.4712Z" fill="#CED5E0"/>
        <path d="M98.8099 25.1104C94.7686 25.1104 91.4922 28.4062 91.4922 32.4714C91.4922 36.5367 94.7686 39.8325 98.8099 39.8325C102.851 39.8325 106.128 36.5367 106.128 32.4714C106.128 28.4062 102.851 25.1104 98.8099 25.1104ZM104.62 35.1105L103.857 34.5544L104.783 34.7034C104.733 34.8415 104.679 34.9772 104.618 35.1105H104.62ZM101.966 33.1754L101.019 32.4848L101.966 31.7941L105.077 31.2961C105.147 31.6778 105.189 32.0692 105.189 32.4714C105.189 32.8737 105.147 33.2833 105.074 33.6734L101.966 33.1754ZM92.8449 34.7276L93.9206 34.5556L93.0413 35.1966C92.9702 35.0439 92.9039 34.8876 92.8449 34.7276ZM92.551 33.6977C92.4739 33.3002 92.4318 32.8907 92.4318 32.4702C92.4318 32.0498 92.4739 31.6596 92.5474 31.2706L95.813 31.7941L96.7597 32.4848L95.813 33.1754L92.551 33.6977ZM93.0316 29.7657L93.9206 30.414L92.8353 30.2407C92.8955 30.0795 92.9593 29.9208 93.0316 29.7657ZM104.793 30.2637L103.857 30.414L104.629 29.8505C104.689 29.985 104.742 30.1232 104.793 30.2637ZM104.116 28.9115L101.549 30.7835L100.395 30.9689L100.579 29.8081L102.454 27.2078C103.108 27.667 103.674 28.2438 104.117 28.9115H104.116ZM100.947 27.4865L101.105 26.4893C101.25 26.5462 101.392 26.608 101.532 26.6747L100.947 27.4865ZM100.083 26.1827L99.5748 29.3901L98.8882 30.3425L98.2016 29.3901L97.6897 26.1597C98.0534 26.0943 98.4257 26.0555 98.8087 26.0555C99.2448 26.0555 99.6712 26.1003 100.082 26.1839L100.083 26.1827ZM96.8308 27.4865L96.2044 26.6177C96.355 26.5499 96.508 26.4905 96.6646 26.4347L96.8308 27.4877V27.4865ZM95.2709 27.1327L97.1994 29.8069L97.3837 30.9677L96.2285 30.7823L93.5568 28.8339C94.0157 28.1638 94.5976 27.5846 95.2709 27.1315V27.1327ZM93.5701 36.1235L96.2285 34.1848L97.3825 33.9994L97.1982 35.1602L95.2842 37.815C94.6108 37.3655 94.029 36.7899 93.5689 36.1223L93.5701 36.1235ZM96.832 37.4818L96.6694 38.5081C96.5176 38.4536 96.3671 38.3954 96.2201 38.33L96.832 37.4818ZM97.6957 38.782L98.2028 35.5782L98.8894 34.6258L99.576 35.5782L100.08 38.7577C99.6688 38.8414 99.2448 38.885 98.8099 38.885C98.4293 38.885 98.0583 38.845 97.6957 38.7808V38.782ZM100.948 37.4818L101.519 38.2731C101.383 38.3373 101.244 38.3979 101.102 38.4524L100.948 37.4818ZM102.442 37.7423L100.581 35.1602L100.396 33.9982L101.55 34.1836L104.105 36.0472C103.661 36.7112 103.095 37.2855 102.44 37.7411L102.442 37.7423Z" fill="#CED5E0"/>
        <path d="M100.201 35.6723L101.293 37.1858L100.494 37.519L100.201 35.6735V35.6723ZM96.4852 37.1858L97.5765 35.6723L97.285 37.519L96.4864 37.1858H96.4852ZM98.8883 33.5931L97.8247 35.0689L98.1101 33.2683L96.3202 33.5555L97.7873 32.4856L96.319 31.4144L98.1101 31.7016L97.8247 29.9022L98.8883 31.3781L99.9519 29.9022L99.6676 31.7028L101.456 31.4156L99.9893 32.4856L101.455 33.5555L99.6664 33.2683L99.9507 35.0689L98.8871 33.5931H98.8883ZM102.058 33.8063L103.892 34.1008L103.562 34.9041L102.058 33.8063ZM93.8857 34.1008L95.7203 33.8063L94.2158 34.9029L93.8857 34.0995V34.1008ZM93.8857 30.8716L94.217 30.0682L95.7215 31.166L93.8857 30.8716ZM103.563 30.0682L103.893 30.8716L102.059 31.166L103.563 30.0694V30.0682ZM100.494 27.4521L101.293 27.7854L100.201 29.2988L100.493 27.4534L100.494 27.4521ZM96.4864 27.7854L97.285 27.4534L97.5777 29.2988L96.4876 27.7854H96.4864Z" fill="#CED5E0"/>
        <path d="M98.8101 24.293C103.677 24.293 107.64 28.1328 107.896 32.9639C107.905 32.7991 107.921 32.6367 107.921 32.4707C107.921 27.4095 103.843 23.3066 98.8113 23.3066C93.7798 23.3066 89.7012 27.4095 89.7012 32.4707C89.7012 32.638 89.7168 32.8003 89.7265 32.9639C89.983 28.1341 93.9461 24.293 98.8125 24.293H98.8101Z" fill="#CED5E0"/>
        <path d="M98.8097 39.8663C94.8719 39.8663 91.6654 36.7583 91.457 32.8506C91.4498 32.9839 91.4365 33.1147 91.4365 33.2504C91.4365 37.346 94.737 40.6661 98.8085 40.6661C102.88 40.6661 106.18 37.346 106.18 33.2504C106.18 33.116 106.167 32.9839 106.16 32.8506C105.953 36.7595 102.745 39.8663 98.8085 39.8663H98.8097Z" fill="#CED5E0"/>
        <path d="M4.60277 25.6913C5.43271 21.8962 8.68985 20.0508 14.5597 20.0508C16.1967 20.0508 17.8132 20.1877 19.1117 20.298L19.5044 20.3307L19.5321 20.5876C16.2208 21.6127 13.6201 25.6186 13.5936 25.6585L13.5539 25.7203H13.4804C13.4659 25.7179 12.0241 25.6852 10.2341 25.6852C8.58265 25.6852 6.28916 25.7131 4.7425 25.8488L4.56543 25.8645L4.60398 25.69L4.60277 25.6913Z" fill="#CED5E0"/>
        <path d="M4.73047 25.7193C7.73585 25.4563 13.484 25.5884 13.484 25.5884C13.484 25.5884 16.0967 21.5147 19.4936 20.4629C14.791 20.0691 6.16751 19.1482 4.73047 25.7193Z" fill="#CED5E0"/>
        <path d="M10.3942 25.5557C12.0782 23.7478 13.8176 21.9836 15.5281 20.2012C14.8427 20.1806 14.144 20.1782 13.443 20.2072C11.5181 21.8915 9.69075 23.6836 7.96582 25.5751C8.79456 25.5593 9.63053 25.5545 10.3942 25.5557Z" fill="#CED5E0"/>
        <path d="M12.2277 20.292C8.75973 20.641 5.5568 21.9399 4.73047 25.7192C5.37371 25.6623 6.14342 25.6247 6.9553 25.5992C8.6188 23.7381 10.3763 21.9605 12.2289 20.292H12.2277Z" fill="#CED5E0"/>
        <path d="M5.04968 24.7688C5.03643 24.7712 5.02438 24.7712 5.01113 24.7724C4.90152 25.0705 4.80515 25.3819 4.73047 25.7188C7.73585 25.4558 13.484 25.5879 13.484 25.5879C13.484 25.5879 16.0967 21.5142 19.4936 20.4624C18.7552 20.4006 17.9192 20.3255 17.0303 20.2686C13.3841 22.5199 9.2536 23.94 5.04847 24.7688H5.04968Z" fill="#CED5E0"/>
        <path d="M8.62873 32.207H1.25921C1.15923 33.1812 1.0701 34.1579 0.962891 35.1309L9.90677 35.5016C10.2778 35.5174 10.3717 35.1781 10.1188 34.7455L8.62873 32.207Z" fill="#CED5E0"/>
        <path d="M95.1749 13.9788C96.6626 13.9788 98.3224 13.9788 98.3718 13.9788C103.925 13.9788 103.008 2.9329 70.9837 1.53218C60.8063 1.08748 43.5172 12.5138 41.8393 13.4723C41.7959 13.4965 41.8441 13.5704 41.8477 13.6201L95.1773 13.98L95.1749 13.9788Z" fill="#CED5E0"/>
        <path d="M98.3713 13.571C99.6831 13.571 100.546 12.907 100.568 11.877C100.62 9.47542 95.4033 3.00857 70.9651 1.93985C70.7772 1.93137 70.5856 1.92773 70.3929 1.92773C64.3629 1.92773 55.1564 5.72763 43.0312 13.2196L95.1768 13.5722H95.1744H98.3701L98.3713 13.571Z" fill="#CED5E0"/>
        <path d="M48.1982 10.1552C57.795 4.6989 65.2524 1.92773 70.3923 1.92773C70.5851 1.92773 70.7766 1.93137 70.9645 1.93985C72.3546 2.00044 73.676 2.08162 74.9444 2.17492C73.3869 5.94695 71.5403 9.59781 70.0695 13.4025L49.3088 13.262C48.9282 12.2296 48.5548 11.196 48.1982 10.1552Z" fill="#CED5E0"/>
        <path d="M93.5124 13.5606L71.2461 13.4104C72.7349 9.64442 74.5719 6.02143 76.0981 2.26758C85.4672 3.05518 91.4334 4.72127 95.1278 6.49884C94.6182 8.85923 94.0641 11.2099 93.5137 13.5606H93.5124Z" fill="#CED5E0"/>
        <path d="M60.9969 1.31934C53.3492 3.07146 41.63 9.99148 35.2217 13.7635L37.9428 13.7247C46.6289 7.2591 61.8401 1.92761 60.9969 1.31934Z" fill="#CED5E0"/>
        <path d="M41.8289 13.5627L41.9157 13.6294C40.4702 16.7871 40.463 17.9285 40.6665 24.2705C40.7087 25.5816 40.7159 26.826 40.7219 28.0292C40.7472 32.5247 40.7653 35.772 42.6372 35.772H61.638C63.7749 35.772 65.766 33.6273 67.5548 29.3985C69.1075 25.727 69.9964 21.646 70.2325 20.4828C70.6421 18.458 71.1143 15.2361 70.6927 13.8136H70.7987C71.201 15.3003 70.7409 18.4871 70.3301 20.5167C70.094 21.6836 69.2014 25.7779 67.6439 29.4627C65.8359 33.7364 63.8158 35.9041 61.6392 35.9041H42.6384C40.6665 35.9041 40.6485 32.601 40.622 28.0305C40.6147 26.8284 40.6087 25.5852 40.5665 24.2754C40.3618 17.9006 40.3702 16.7519 41.8301 13.5615L41.8289 13.5627Z" fill="#CED5E0"/>
        <path d="M112.773 16.5205L103.236 20.2004L108.985 23.8804L117.084 22.6978C117.084 22.6978 116.693 16.6526 112.773 16.5217V16.5205Z" fill="#CED5E0"/>
        <path d="M114.412 20.7105C115.181 20.6851 115.948 20.6693 116.711 20.6197C116.312 19.1632 115.505 17.3699 113.893 16.7471C112.595 18.1308 111.341 19.5679 110.165 21.0644C111.578 20.9165 112.996 20.7566 114.412 20.7105Z" fill="#CED5E0"/>
        <path d="M114.069 21.4586C112.561 21.5458 111.054 21.7154 109.548 21.8645C109.144 22.3976 108.752 22.938 108.371 23.4869L108.984 23.8795L117.084 22.6969C117.084 22.6969 117.046 22.1274 116.881 21.335C115.948 21.3943 115.009 21.404 114.067 21.4573L114.069 21.4586Z" fill="#CED5E0"/>
        <path d="M104.412 19.9373L113.172 16.5578C113.043 16.5397 112.91 16.5251 112.773 16.5215L103.236 20.2014L108.45 23.5384L104.412 19.9385V19.9373Z" fill="#CED5E0"/>
        <g opacity="0.5">
            <path d="M14.0215 18.1485C14.0215 18.1485 71.8297 16.6302 96.6919 19.6898C104.653 17.9582 103.766 17.2579 110.476 16.7478C53.4517 10.5717 14.0227 18.1485 14.0227 18.1485H14.0215Z" fill="#CED5E0"/>
        </g>
        <g opacity="0.5">
            <path d="M28.5274 19.0258C23.7513 18.6926 14.3594 21.0784 11.2793 30.6048L16.0963 29.6621C19.268 21.1184 24.8222 20.7767 28.3612 21.0239C33.9311 21.4116 37.7279 25.9967 38.447 30.5575C38.8843 24.8734 34.0973 19.4135 28.5274 19.0258Z" fill="#CED5E0"/>
        </g>
        <g opacity="0.5">
            <path d="M39.2207 32.6843L86.9057 29.5303L73.187 33.249L39.2207 32.6843Z" fill="#CED5E0"/>
        </g>
        <g opacity="0.5">
            <path d="M8.65039 31.8515L16.1404 30.3623L15.897 32.564L8.65039 31.8515Z" fill="#CED5E0"/>
        </g>
        <g opacity="0.5">
            <path d="M0.962658 35.1309L16.145 35.5319L12.3084 36.4964L0.143555 35.4968L0.962658 35.1309Z" fill="#CED5E0"/>
        </g>
        <g opacity="0.5">
            <path d="M1.47461 31.506L9.3404 31.4951L7.51429 32.1204L0.927734 31.9047L1.47461 31.506Z" fill="#CED5E0"/>
        </g>
        <path d="M69.1746 16.748C69.1746 17.1151 67.964 17.412 66.4691 17.412C64.9755 17.412 63.7637 17.1139 63.7637 16.748C63.7637 16.3821 64.9743 16.084 66.4691 16.084C67.9628 16.084 69.1746 16.3809 69.1746 16.748Z" fill="#CED5E0"/>
        <path d="M68.8503 16.6054C68.8503 16.8501 67.7842 17.0476 66.4701 17.0476C65.1559 17.0476 64.0898 16.8501 64.0898 16.6054C64.0898 16.3606 65.1559 16.1631 66.4701 16.1631C67.7842 16.1631 68.8503 16.3606 68.8503 16.6054Z" fill="#CED5E0"/>
        <path d="M95.0261 16.748C95.0261 17.1151 93.8155 17.412 92.3207 17.412C90.8258 17.412 89.6152 17.1139 89.6152 16.748C89.6152 16.3821 90.827 16.084 92.3207 16.084C93.8143 16.084 95.0261 16.3809 95.0261 16.748Z" fill="#CED5E0"/>
        <path d="M94.7009 16.6054C94.7009 16.8501 93.6348 17.0476 92.3206 17.0476C91.0065 17.0476 89.9404 16.8501 89.9404 16.6054C89.9404 16.3606 91.0065 16.1631 92.3206 16.1631C93.6348 16.1631 94.7009 16.3606 94.7009 16.6054Z" fill="#CED5E0"/>
        <path d="M40.5749 14.6774C40.8423 16.0417 43.6947 16.6258 45.0438 16.3592C46.393 16.0914 47.2699 14.7695 47.0025 13.4039C46.7351 12.0395 45.4257 11.1489 44.0766 11.4167C42.7275 11.6845 40.3087 13.313 40.5761 14.6774H40.5749Z" fill="#CED5E0"/>
        <g opacity="0.5">
            <path d="M46.2421 12.5194C45.9795 13.181 45.4049 13.6996 44.6617 13.8462C43.8209 14.0122 42.3091 13.7953 41.4395 13.221C42.0791 12.437 43.2644 11.7597 44.0425 11.6046C44.9158 11.4313 45.7687 11.8191 46.2421 12.5182V12.5194Z" fill="#CED5E0"/>
        </g>
        <g opacity="0.5">
            <path d="M109.462 28.8445C109.462 28.8445 115.664 28.0799 117.057 27.9527C118.449 27.8255 118.702 29.6079 118.576 32.0907C118.07 30.7541 117.373 28.5888 109.462 28.8433V28.8445Z" fill="#CED5E0"/>
        </g>
        <path d="M60.7422 35.899H84.6227C84.7997 35.899 84.8094 35.5464 84.8322 34.6946C84.8792 32.9776 84.966 29.7799 86.6282 26.684C88.5531 23.0986 91.5959 21.8348 93.4136 21.0799C93.7448 20.9418 94.0303 20.823 94.2688 20.7079C95.118 20.2984 96.3322 17.2412 95.9202 15.4188C95.7082 14.4822 95.2614 13.5722 93.5196 13.5322L93.4256 13.9491C95.1529 13.9491 95.6191 14.544 95.8227 15.4419C96.2274 17.2279 95.0506 20.2184 94.2266 20.6183C93.9905 20.7322 93.7063 20.8497 93.3762 20.9878C91.5453 21.7476 88.4821 23.0198 86.5403 26.638C84.866 29.7545 84.7792 32.9679 84.7323 34.6946C84.719 35.1865 84.7022 35.7997 84.6239 35.7997H60.7434V35.9015L60.7422 35.899Z" fill="#CED5E0"/>
        <path d="M92.343 2.50684C98.6393 4.07235 102.359 6.09711 105.369 7.85771C107.486 9.09486 109.085 10.4847 110.269 11.7994C111.275 12.9154 104.145 6.49939 92.3418 2.50805L92.343 2.50684Z" fill="#CED5E0"/>
        <path d="M1.6221 30.3728C1.51248 30.7715 1.1993 31.1059 0.855998 31.2416C0.796974 29.0714 1.80278 23.866 2.57852 21.6982H3.20128C3.6542 21.6982 3.90475 22.1175 3.76261 22.6349L1.6221 30.3728Z" fill="#CED5E0"/>
    </g>
    <defs>
        <clipPath id="clip0_1646_6409">
            <rect width="119" height="42" fill="white"/>
        </clipPath>
    </defs>
</svg>
