<svg width="104" height="41" viewBox="0 0 104 41" fill="none" xmlns="http://www.w3.org/2000/svg">
<g id="Layer_1" clip-path="url(#clip0_1379_264)">
<path id="Vector" d="M21.752 16.127L22.1115 16.3796C21.8167 16.1815 21.5194 15.9802 21.2182 15.7768C20.9186 15.5722 20.6146 15.3683 20.3221 15.1463C19.7318 14.7085 19.1377 14.2673 18.5461 13.8279C19.1582 14.3463 19.8015 14.8854 20.4604 15.4169C21.1285 15.9356 21.8167 16.436 22.4977 16.9096C22.8398 17.1451 23.1772 17.3743 23.516 17.585C23.8585 17.7907 24.197 17.9857 24.5309 18.1642C25.197 18.5224 25.838 18.821 26.434 19.0323C26.5004 19.4303 29.1099 21.1391 29.2008 21.1091C29.7896 21.3836 30.3855 21.6593 30.9801 21.9519C34.7422 23.7855 38.7544 25.8916 43.0341 27.8413C43.3318 27.9755 43.6926 28.1383 44.1003 28.3227C44.5095 28.506 44.9743 28.6924 45.4688 28.9005C45.9636 29.1059 46.492 29.3266 47.0353 29.5525C47.5801 29.7786 48.1489 29.9885 48.7158 30.211C49.2831 30.4307 49.8504 30.6504 50.4016 30.8632C50.9573 31.0653 51.498 31.2622 52.0048 31.4466C52.5128 31.6326 52.9882 31.8063 53.4147 31.9623C53.8435 32.1129 54.2248 32.2461 54.5408 32.356C54.9071 32.4839 55.2705 32.6113 55.641 32.7399C55.2345 32.5909 54.828 32.4419 54.4214 32.2928C55.2105 32.5003 55.959 32.71 56.6904 32.8913C57.4206 33.0709 58.1256 33.2466 58.8185 33.426C58.5893 33.3126 58.5587 33.2606 58.004 33.0343L58.6939 33.2691C59.3621 33.3503 60.8365 33.7489 61.5426 33.8904C61.3767 33.9128 61.9187 34.0742 62.3976 34.217L62.2185 34.123C63.1303 34.3813 64.1274 34.6174 65.0953 34.8574C65.5788 34.9795 66.0613 35.0814 66.523 35.1872C66.9845 35.2944 67.4283 35.3959 67.8398 35.4923C68.0698 35.5458 68.2363 35.6107 68.3354 35.6564C68.866 35.763 69.4004 35.8545 69.9322 35.9528C69.7921 36.0122 71.232 36.311 70.4634 36.2011C71.6718 36.3647 72.8703 36.654 74.0262 36.7765C78.0922 37.55 82.4504 38.1837 86.7021 38.6091L86.6032 38.562C87.3473 38.6352 88.0526 38.6636 88.7957 38.7166C89.1666 38.7423 89.5481 38.7739 89.9481 38.8156C90.3486 38.8545 90.7689 38.9038 91.2179 38.9718C91.869 38.9888 92.6524 39.041 93.3413 39.064C94.0304 39.0856 94.6232 39.0891 94.8888 39.0266C96.3766 39.1672 96.9805 39.1281 98.4427 39.2303C98.0748 39.1036 99.8699 39.2641 99.1593 39.1233C98.2047 38.8996 98.1413 39.0011 97.3312 38.8175L97.3521 38.8494C93.5385 38.3245 89.7242 37.8037 85.8743 37.2273C83.2892 36.9565 80.5165 36.4458 77.853 36.0167C74.9866 35.5441 71.8911 34.9939 69.4421 34.5257C68.8537 34.4299 68.4536 34.2524 67.9695 34.0973C67.4094 33.9774 66.8128 33.8432 66.1928 33.7024C65.573 33.5602 64.9344 33.3922 64.2859 33.2312C62.985 32.9171 61.6614 32.5466 60.4082 32.2301C60.4548 32.2446 60.5001 32.2575 60.5289 32.2663C59.8632 32.0968 59.2949 31.9013 58.7298 31.7134C58.1646 31.5255 57.6023 31.3381 56.9574 31.1548C56.956 31.1817 56.7571 31.1217 56.658 31.1032C56.6121 31.0574 56.1142 30.8987 55.3883 30.6826C55.0243 30.5765 54.6039 30.4544 54.1534 30.3232C53.7022 30.1962 53.2283 30.0399 52.7483 29.8954C50.8269 29.3247 48.9015 28.6619 48.6903 28.5527C48.5578 28.5089 48.4214 28.4631 48.281 28.4152C47.9504 28.2886 47.6234 28.1484 47.2982 28.0055C46.9733 27.8613 46.647 27.7168 46.3221 27.5726C45.9988 27.4272 45.6757 27.2804 45.3536 27.1366C45.1927 27.064 45.0333 26.9902 44.8738 26.9179C44.7163 26.8415 44.5588 26.7652 44.4025 26.6905C43.152 26.0841 41.9402 25.5239 40.8411 25.0144C40.3389 24.8464 39.7804 24.6439 39.3495 24.5158C38.9811 24.2918 38.8652 24.3435 38.4061 24.1023C37.3333 23.3081 36.5994 23.0607 37.1695 23.4353C36.9228 23.3234 36.678 23.209 36.4364 23.0922C36.1929 22.978 35.9543 22.8602 35.7227 22.735C35.2568 22.4913 34.8044 22.254 34.3798 22.0312C33.9759 21.8416 33.5761 21.6526 33.1696 21.4612C32.8246 21.2981 32.6584 21.1589 32.5171 21.0165C31.6493 20.5706 31.9284 20.659 31.0492 20.1399C31.0051 20.0914 30.8405 19.9968 30.6121 19.8778C30.4978 19.8197 30.3686 19.755 30.2315 19.6862C30.096 19.6162 29.9525 19.5421 29.8077 19.4677C29.2322 19.1724 28.6476 18.88 28.5288 18.7954L28.6793 18.8706C28.1748 18.5622 27.7753 18.2718 27.3779 17.986C26.9846 17.6923 26.6006 17.3944 26.1139 17.083C25.7778 16.8641 25.4393 16.6419 25.0968 16.4177C24.7539 16.1963 24.4064 15.977 24.0673 15.7405C23.3829 15.2793 22.6932 14.8158 22.0086 14.356C21.8387 14.2405 21.6652 14.1288 21.4969 14.0121C21.3301 13.8943 21.1636 13.775 20.9983 13.6574C20.6662 13.422 20.3381 13.1886 20.014 12.9573C19.3677 12.4921 18.7271 12.0535 18.1464 11.5915C18.0706 11.6439 18.6797 11.9717 18.6388 12.0853C17.2542 11.0089 15.892 9.88158 14.5365 8.74822C14.3021 8.53107 14.0256 8.25293 13.9315 8.13941C13.5113 7.76138 13.6445 7.964 13.329 7.69685L13.3355 7.60066C13.0779 7.43988 12.9254 7.27712 12.7767 7.11782C12.628 6.95851 12.4868 6.79752 12.2594 6.62722C12.2155 6.63174 12.0552 6.50062 11.9021 6.36922C11.9493 6.29803 11.4246 5.97213 11.497 5.93209L11.4882 5.93355C11.396 5.85322 11.3264 5.80221 11.2228 5.69434C11.1267 5.62914 10.6235 5.29517 10.1261 4.95072C9.63573 4.59877 9.14371 4.248 9.04348 4.18214L8.97179 4.09933C8.72833 3.88503 8.58349 3.83785 8.71402 3.9757L8.41917 3.70468L8.45814 3.73085L8.16448 3.46144C8.11428 3.40633 8.08013 3.3223 8.18883 3.37092C8.00077 3.24257 7.80147 3.08528 7.64318 2.92304C8.07531 3.38016 8.60674 3.95448 9.03904 4.45595C8.8185 4.29674 8.48574 3.93823 8.26119 3.74979C8.04026 3.47471 7.53322 2.96429 7.14916 2.55765C7.05696 2.47733 6.93178 2.48759 6.75707 2.26555C6.70304 2.12548 6.52667 2.05046 6.39049 1.85738C6.60706 2.01453 6.78521 2.20566 6.97966 2.39363C6.99774 2.30641 6.53814 1.905 6.39852 1.74284C6.30893 1.69152 5.94872 1.31581 5.69715 1.10737C5.85107 1.15169 5.5386 0.892183 5.42487 0.72982C5.27153 0.572641 5.14857 0.496036 5.19481 0.576255C5.08712 0.584987 5.79822 1.21341 5.51734 1.06326C5.486 0.979672 5.16207 0.692617 4.99147 0.535572C4.95955 0.564847 5.08393 0.668841 4.94467 0.595382C4.76262 0.410793 4.52791 0.259355 4.45131 0.12573C4.49471 0.151169 4.56706 0.229792 4.62051 0.282554C4.38228 0.053351 6.14651 1.33703 5.81167 1.0554C5.86819 1.16155 4.239 -0.0765048 4.39978 0.0789908C4.53306 0.235861 4.23746 0.0333445 4.38216 0.190591L4.59095 0.315061C4.79029 0.526685 4.8233 0.663435 4.72906 0.614241C4.38038 0.274666 5.94041 1.35024 5.60699 1.096L5.71554 1.22752C5.56762 1.12696 5.20806 0.819978 5.1079 0.662618C5.07739 0.692114 4.89447 0.540273 4.74027 0.415843L4.69405 0.362793C4.531 0.239825 4.33033 0.0365706 4.38709 0.168492C5.26093 0.9856 3.50802 -0.0603768 4.33331 0.754786C4.04634 0.352034 4.52058 0.79722 4.89891 1.14005C4.91275 1.19799 5.04376 1.38739 5.29405 1.65853C5.53049 1.87173 5.45435 1.76248 5.51523 1.78639C5.62872 1.92298 5.8615 2.16848 5.7946 2.17364C6.01578 2.3015 6.05612 2.47372 6.28628 2.66305C6.49517 2.82328 6.29112 2.63236 6.44538 2.73821C6.58757 2.87504 6.75361 3.0428 6.91882 3.19757C7.08404 3.35233 7.2401 3.50136 7.35401 3.60799C7.412 3.72295 7.63045 4.03196 7.38175 3.90547C6.9431 3.49879 7.63173 3.96925 7.1579 3.56702C7.28556 3.82309 6.72638 3.22437 6.5918 3.20313C6.70097 3.37621 7.00392 3.64136 7.26161 3.85648L7.22144 3.80153C7.45204 3.98806 7.90793 4.36744 8.10746 4.62342C8.02629 4.60059 8.11158 4.71557 7.94232 4.57733L8.24189 4.85482C8.28809 4.8807 8.33569 4.9068 8.25419 4.82245C8.41686 4.92963 8.54997 5.06931 8.6453 5.18445C8.6493 5.21368 9.07978 5.54472 9.50199 5.86445C9.93297 6.17413 10.3559 6.4711 10.3217 6.45998C10.5463 6.64842 10.5618 6.74095 10.8064 6.89394C10.818 6.89292 10.6843 6.78459 10.4819 6.62825C10.278 6.47309 10.0075 6.26597 9.74603 6.06598C9.22137 5.66716 8.74673 5.2791 8.89326 5.40661C9.03507 5.62774 11.5522 7.42062 11.6388 7.60014C11.8067 7.73817 12.0121 7.90214 11.9994 7.83722C12.267 8.08965 11.8663 7.82478 12.0403 8.02383C12.0491 8.02237 12.0363 7.9946 12.0995 8.04892L12.2587 8.25133C12.7408 8.56479 13.3455 9.14783 13.864 9.45845C13.7019 9.38424 13.4993 9.32079 13.1733 9.11062L13.1338 9.05148C13.0831 9.02633 12.8266 8.83999 12.8081 8.87567C13.0761 9.12531 13.3261 9.31633 13.6509 9.52489C13.7 9.57839 13.7579 9.63901 13.7943 9.68192C13.7951 9.67634 13.7948 9.66914 13.7997 9.66562C13.8818 9.76437 13.8699 9.75819 13.8235 9.7423C13.8165 9.74119 13.8095 9.74009 13.7978 9.73251C13.8495 9.85077 14.1426 10.06 14.4826 10.2996C14.8213 10.5389 15.2071 10.8072 15.4578 11.0298C15.6251 11.1348 15.4844 11.0254 15.6937 11.1557C16.2104 11.6047 16.5633 11.9178 17.1167 12.3712C17.3299 12.4677 17.355 12.4631 17.1683 12.2535L17.5888 12.593C17.1154 12.4067 18.317 13.3042 17.8025 13.0871C17.91 13.207 18.1714 13.3984 18.4309 13.5566C18.4756 13.5465 18.5471 13.5306 18.8571 13.7512C19.2625 14.0954 19.1684 14.0091 19.5003 14.3002C19.5583 14.3966 19.4171 14.3171 19.4124 14.3564C19.997 14.7032 19.8372 14.7781 20.3627 15.1441C20.4458 15.2001 20.5498 15.2695 20.6575 15.3422C20.7686 15.4127 20.8849 15.4854 20.9912 15.5493C21.2064 15.6791 21.3867 15.7748 21.4167 15.7481C21.863 16.0516 21.8297 16.0992 21.7499 16.1223L21.752 16.127Z" fill="black"/>
</g>
<defs>
<clipPath id="clip0_1379_264">
<rect width="100.301" height="25.4732" fill="white" transform="translate(3.97266) rotate(8.97214)"/>
</clipPath>
</defs>
</svg>
