<svg width="94" height="82" viewBox="0 0 94 82" fill="none" xmlns="http://www.w3.org/2000/svg">
<g id="Layer_1" clip-path="url(#clip0_1379_266)">
<path id="Vector" d="M23.6246 59.7292L24.0486 59.6347C23.7075 59.7183 23.3625 59.8014 23.0132 59.886C22.6642 59.9687 22.3128 60.0552 21.9558 60.1211C21.2427 60.2609 20.5247 60.4013 19.8097 60.5409C20.5961 60.4389 21.4185 60.3277 22.2456 60.2002C23.0696 60.0574 23.8935 59.8877 24.693 59.7054C25.093 59.6123 25.4851 59.5184 25.8648 59.4111C26.2431 59.2977 26.611 59.1802 26.9638 59.0552C27.6692 58.8069 28.3142 58.5373 28.8655 58.2425C29.2006 58.4589 32.187 57.69 32.2256 57.6036C32.8184 57.3561 33.4166 57.1043 34.0264 56.8646C37.8715 55.3364 42.0824 53.807 46.357 51.9779C46.6534 51.8497 47.0126 51.6944 47.4189 51.5193C47.8253 51.3423 48.271 51.1267 48.7524 50.9041C49.232 50.6792 49.7451 50.4401 50.272 50.1934C50.8 49.9459 51.3322 49.67 51.8723 49.4039C52.4106 49.1356 52.9489 48.8674 53.4715 48.6063C53.9892 48.3348 54.4932 48.0708 54.9654 47.8233C55.4396 47.5759 55.8832 47.3442 56.2812 47.1364C56.6768 46.9233 57.028 46.7334 57.3187 46.5757C57.6561 46.3932 57.9913 46.2124 58.3319 46.0273C57.9523 46.2251 57.5727 46.423 57.1931 46.6208C57.8702 46.1824 58.5218 45.775 59.1413 45.3613C59.7589 44.9472 60.3567 44.549 60.9493 44.1622C60.7138 44.2542 60.6554 44.2419 60.1206 44.4966L60.7516 44.1488C61.2559 43.7145 62.529 42.9026 63.1026 42.4808C63.0085 42.617 63.4874 42.3283 63.9106 42.0735L63.7226 42.1417C64.5186 41.6475 65.3552 41.076 66.175 40.5286C66.5863 40.2565 66.982 39.9718 67.3668 39.7048C67.7525 39.439 68.1221 39.1823 68.4666 38.9458C68.6589 38.8133 68.8172 38.7349 68.9166 38.6929C69.3478 38.3762 69.7705 38.0466 70.1965 37.7234C70.1466 37.8653 71.3238 37.0121 70.7317 37.5005C71.6559 36.7265 72.6655 36.0433 73.5247 35.2801C76.7975 32.824 80.1628 30.0612 83.3049 27.2375L83.2047 27.2784C83.7537 26.7834 84.2442 26.2869 84.7777 25.7792C85.0435 25.5252 85.3206 25.2675 85.6175 25.003C85.9126 24.7363 86.2285 24.4618 86.5772 24.179C87.0232 23.7146 87.583 23.1769 88.0585 22.6888C88.5332 22.1996 88.9305 21.7687 89.0618 21.533C90.1552 20.5394 90.5288 20.0721 91.5772 19.0716C91.2396 19.2561 92.5522 18.0512 91.9762 18.4766C91.1771 19.0253 91.209 19.1393 90.5354 19.6089L90.5726 19.6149C87.6495 22.0522 84.729 24.4927 81.744 26.9223C79.8246 28.631 77.605 30.3171 75.5178 31.9777C73.2636 33.7577 70.8002 35.6533 68.8273 37.1312C68.3655 37.4974 67.9693 37.6715 67.5336 37.9221C67.073 38.2515 66.5777 38.5981 66.0619 38.9574C65.5453 39.3156 64.9972 39.6705 64.4478 40.0371C63.3519 40.7786 62.1997 41.4992 61.1339 42.2041C61.1755 42.1798 61.2151 42.1552 61.2408 42.14C60.6736 42.5137 60.1523 42.7987 59.6387 43.0866C59.125 43.3745 58.6136 43.6606 58.0502 44.0098C58.0689 44.0288 57.8927 44.1341 57.8132 44.1942C57.7491 44.1972 57.3016 44.4554 56.6602 44.842C56.3403 45.0373 55.9711 45.2632 55.5753 45.505C55.182 45.7502 54.7522 45.9924 54.327 46.247C52.6305 47.271 50.8639 48.2366 50.6435 48.3183C50.5233 48.3859 50.3989 48.4551 50.2704 48.5258C49.9578 48.6831 49.6375 48.8287 49.3166 48.9712C48.9949 49.1125 48.672 49.2548 48.3502 49.3962C48.0287 49.5356 47.7063 49.674 47.3867 49.8136C47.2265 49.8829 47.0665 49.9502 46.9073 50.0186C46.7467 50.0828 46.586 50.1471 46.4273 50.2115C45.1515 50.7216 43.9352 51.234 42.8309 51.6979C42.3738 51.9531 41.8538 52.2263 41.4733 52.4559C41.0643 52.5759 41.0249 52.6951 40.543 52.87C39.2482 53.1251 38.5786 53.4966 39.232 53.3294C38.986 53.4352 38.7393 53.5379 38.4931 53.6367C38.2475 53.7386 38.0026 53.8345 37.7568 53.9204C37.2685 54.0985 36.7938 54.2712 36.3482 54.433C35.9407 54.6019 35.5364 54.7682 35.1258 54.9379C34.7769 55.0813 34.5645 55.1101 34.3663 55.1185C33.4626 55.4558 33.7131 55.3106 32.7482 55.6074C32.6835 55.6074 32.5047 55.6647 32.2657 55.7523C32.1471 55.7972 32.0138 55.8485 31.8722 55.9029C31.7308 55.9553 31.5811 56.0108 31.4303 56.0671C30.8313 56.291 30.2283 56.5234 30.0874 56.554L30.2426 56.4941C29.6813 56.6574 29.203 56.7559 28.7295 56.856C28.253 56.9478 27.7795 57.03 27.2279 57.1784C26.8441 57.2782 26.4564 57.3776 26.0645 57.4786C25.6743 57.5817 25.2826 57.6896 24.8839 57.7799C24.0912 57.9729 23.2932 58.1683 22.5013 58.3623C22.3037 58.4096 22.1066 58.462 21.9092 58.5073C21.7121 58.5507 21.5141 58.593 21.318 58.6355C20.9249 58.7214 20.5358 58.8057 20.151 58.8885C19.3806 59.051 18.6336 59.2271 17.9092 59.3438C17.897 59.4341 18.5422 59.2072 18.598 59.3128C16.8893 59.6078 15.1584 59.8526 13.4276 60.0884C13.1128 60.1151 12.7254 60.1319 12.5798 60.1251C12.0237 60.1804 12.2605 60.218 11.8552 60.2707L11.7892 60.2018C11.5002 60.283 11.2797 60.2861 11.0643 60.2886C10.8489 60.2912 10.6371 60.2872 10.3613 60.34C10.3354 60.375 10.1328 60.4049 9.93483 60.4293C9.91421 60.3474 9.32666 60.5138 9.34562 60.4342L9.3408 60.4416C9.2207 60.4555 9.13712 60.4724 8.98927 60.4763C8.87767 60.503 8.29848 60.6484 7.71558 60.7825C7.13184 60.9065 6.54786 61.0324 6.43299 61.0618L6.32473 61.0591C6.00601 61.0943 5.87508 61.1687 6.06274 61.1651L5.66834 61.2001L5.71342 61.189L5.32099 61.2242C5.24728 61.2242 5.16314 61.1932 5.27105 61.1462C5.05203 61.1981 4.80437 61.239 4.5804 61.2466C5.20221 61.2353 5.97579 61.2294 6.63012 61.2474C6.36691 61.3025 5.88334 61.307 5.59611 61.3456C5.24797 61.3238 4.53733 61.3545 3.98442 61.3643C3.86432 61.3782 3.78846 61.4765 3.50987 61.4563C3.37153 61.4026 3.19925 61.4815 2.96748 61.4524C3.22653 61.3988 3.48483 61.3959 3.75168 61.379C3.69999 61.3077 3.1006 61.3762 2.88912 61.3703C2.79195 61.4016 2.27753 61.4146 1.95769 61.4596C2.09258 61.3767 1.69486 61.4322 1.50048 61.4072C1.28351 61.4146 1.14565 61.4534 1.23506 61.4731C1.16972 61.5576 2.10248 61.4564 1.80572 61.5617C1.72376 61.5289 1.29829 61.5745 1.06992 61.5946C1.07006 61.6374 1.22888 61.6157 1.08246 61.6686C0.826339 61.6787 0.559381 61.7494 0.410723 61.7164C0.458211 61.7016 0.563848 61.7011 0.637997 61.6971C0.311864 61.7186 2.42475 61.2842 1.99598 61.3413C2.11118 61.3707 0.121553 61.7368 0.342256 61.7229C0.54564 61.73 0.200802 61.8111 0.412075 61.8101L0.64207 61.7404C0.92946 61.7356 1.05137 61.8026 0.952664 61.8387C0.472328 61.8674 2.29716 61.4436 1.88935 61.518L2.05773 61.5262C1.88575 61.5673 1.42198 61.6257 1.2403 61.5941C1.24153 61.636 1.00876 61.6686 0.815148 61.6984L0.745602 61.6968C0.547163 61.7341 0.265009 61.7454 0.399206 61.7918C1.57822 61.6973 -0.35343 62.2818 0.791837 62.2215C0.306419 62.163 0.947545 62.1129 1.45001 62.0647C1.50157 62.0932 1.72722 62.1236 2.09202 62.1212C2.40527 62.0904 2.27474 62.0733 2.33275 62.0448C2.50814 62.0528 2.84255 62.0461 2.80177 62.0985C3.0425 62.022 3.19521 62.1072 3.48683 62.0651C3.74302 62.0191 3.46763 62.0411 3.6477 61.9989C3.84238 61.9861 4.07554 61.9765 4.29865 61.9588C4.52177 61.9411 4.7346 61.9263 4.88837 61.9141C5.011 61.9483 5.38228 61.9944 5.12424 62.0919C4.53494 62.1416 5.33731 61.9517 4.72784 62.0301C4.99998 62.1073 4.19009 62.1173 4.08495 62.2015C4.28412 62.237 4.67963 62.1921 5.00843 62.1471L4.94152 62.1398C5.2314 62.0955 5.81222 62.015 6.13214 62.0397C6.06141 62.0838 6.20223 62.098 5.9885 62.1297L6.39076 62.0955C6.44044 62.079 6.49121 62.0616 6.37529 62.065C6.56194 62.0175 6.75266 62.0132 6.90028 62.0202C6.9243 62.0368 7.45288 61.9427 7.96768 61.847C8.48098 61.7383 8.97962 61.627 8.94875 61.6446C9.23599 61.606 9.31397 61.6562 9.5886 61.5794C9.59561 61.5702 9.42738 61.5958 9.1784 61.6396C8.92921 61.6853 8.59775 61.745 8.27745 61.8029C7.63664 61.9207 7.03699 62.0092 7.22775 61.987C7.48377 62.0306 10.4701 61.3851 10.659 61.4414C10.8716 61.4106 11.1283 61.3697 11.0723 61.3358C11.435 61.3083 10.9746 61.4247 11.236 61.4301C11.2408 61.4227 11.2119 61.4136 11.2938 61.4035L11.5476 61.422C12.0977 61.2785 12.9265 61.2248 13.4988 61.0527C13.3366 61.1218 13.1553 61.2276 12.7846 61.3259L12.7151 61.3154C12.663 61.3356 12.356 61.399 12.3697 61.4363C12.7307 61.4067 13.0367 61.3512 13.4054 61.2527C13.4772 61.2525 13.5601 61.2505 13.6156 61.2525C13.6121 61.2482 13.6067 61.2436 13.6073 61.2377C13.7342 61.2435 13.7217 61.2481 13.6792 61.2714C13.6738 61.2758 13.6683 61.2801 13.6549 61.2837C13.7758 61.3246 14.1239 61.2498 14.5254 61.1608C14.9258 61.0727 15.3787 60.9694 15.7084 60.9344C15.8966 60.8821 15.7229 60.9121 15.9574 60.8459C16.6297 60.7673 17.0934 60.7179 17.7933 60.6154C18.0058 60.524 18.0192 60.5025 17.7417 60.4994L18.2698 60.4181C17.8184 60.6401 19.2744 60.3596 18.7731 60.591C18.9323 60.5923 19.2463 60.5288 19.5347 60.4445C19.5571 60.4051 19.5931 60.3423 19.9607 60.2626C20.4822 60.1956 20.3564 60.2069 20.7902 60.1582C20.8993 60.18 20.7472 60.2302 20.7727 60.2599C21.4155 60.0636 21.3638 60.2302 21.9812 60.09C22.0775 60.0665 22.1974 60.0367 22.3223 60.0064C22.4477 59.9722 22.5784 59.9356 22.6959 59.9005C22.934 59.8297 23.1239 59.7616 23.1244 59.7219C23.6435 59.5978 23.656 59.654 23.6198 59.7277L23.6246 59.7292Z" fill="black"/>
</g>
<defs>
<clipPath id="clip0_1379_266">
<rect width="99.1638" height="25.1845" fill="white" transform="translate(0 61.9824) rotate(-38.686)"/>
</clipPath>
</defs>
</svg>
