<svg width="102" height="37" viewBox="0 0 102 37" fill="none" xmlns="http://www.w3.org/2000/svg">
<g id="Layer_1" clip-path="url(#clip0_1379_258)">
<path id="Vector" d="M22.3592 23.2769L22.7277 23.0576C22.4337 23.2397 22.1359 23.4251 21.8355 23.6122C21.5349 23.798 21.2268 23.9804 20.9275 24.1772C20.3223 24.5619 19.7118 24.95 19.1067 25.336C19.7948 24.9596 20.5099 24.5616 21.222 24.15C21.9426 23.7513 22.667 23.348 23.3556 22.9293C23.7001 22.7214 24.0353 22.5075 24.3628 22.2988C24.6937 22.0953 25.0116 21.8891 25.315 21.6805C25.9208 21.2648 26.465 20.8425 26.917 20.4159C27.2918 20.5394 30.0107 19.2112 30.0288 19.116C30.5574 18.7745 31.1063 18.4488 31.6606 18.121C35.1777 16.0566 39.2671 14.3128 43.5763 12.7761C43.8749 12.6667 44.2356 12.5342 44.6464 12.3844C45.0556 12.2334 45.5199 12.0827 46.0128 11.9117C46.5058 11.742 47.0328 11.5612 47.5747 11.3758C48.1167 11.1903 48.6844 11.0201 49.2467 10.8392C49.8108 10.6624 50.3748 10.4841 50.9239 10.3119C51.4774 10.1518 52.0147 9.9979 52.5191 9.85221C53.0251 9.70775 53.4966 9.57028 53.9243 9.45503C54.3528 9.34673 54.7334 9.24987 55.0483 9.17083C55.4137 9.07722 55.7765 8.98533 56.1461 8.89121C55.7364 8.98785 55.3272 9.0849 54.9185 9.18235C55.6713 8.93191 56.3856 8.67908 57.0844 8.46054C57.7833 8.24338 58.4607 8.03447 59.1294 7.83507C58.8806 7.85538 58.8292 7.82642 58.2501 7.91497L58.9458 7.76439C59.541 7.4711 61.0012 7.1433 61.6735 6.92796C61.5414 7.02566 62.0834 6.91063 62.5606 6.80769L62.3634 6.81048C63.2711 6.61589 64.2518 6.4068 65.2046 6.18843C65.6807 6.07716 66.1549 5.98444 66.6105 5.88975C67.0665 5.79922 67.5033 5.71244 67.9097 5.63076C68.1371 5.58628 68.3109 5.57646 68.4183 5.57752C68.9358 5.45842 69.4553 5.35597 69.9752 5.24502C69.8697 5.35218 71.2869 5.08874 70.5504 5.27525C71.7041 4.95646 72.9089 4.83848 74.0128 4.55109C78.0228 3.90977 82.3035 3.31308 86.4734 2.75659L86.3679 2.7356C87.0977 2.633 87.7821 2.51758 88.5079 2.4056C88.8709 2.35031 89.2442 2.298 89.638 2.25304C90.0322 2.21085 90.4487 2.17724 90.8961 2.15536C91.5293 2.04757 92.2961 1.93625 92.9694 1.83346C93.6415 1.73222 94.2189 1.6298 94.4669 1.52226C95.9378 1.3875 96.52 1.26619 97.9631 1.12353C97.5855 1.05808 99.3615 0.925753 98.6461 0.90268C97.6789 0.839732 97.633 0.949519 96.8116 0.901287L96.8375 0.92912C93.0276 1.04481 89.2129 1.27234 85.3596 1.62424C82.7988 1.95176 80.0112 2.23637 77.352 2.61384C74.4919 3.04526 71.4108 3.59783 68.9855 4.12298C68.4066 4.24812 67.9751 4.26243 67.471 4.31793C66.9127 4.43777 66.3166 4.56077 65.6955 4.6868C65.0744 4.81283 64.4334 4.961 63.7815 5.10063C62.477 5.37433 61.147 5.70466 59.8988 6.02365C59.9456 6.01375 59.9923 6.00385 60.0226 5.99736C59.3576 6.15689 58.776 6.29502 58.1947 6.42328C57.6151 6.55413 57.0382 6.68327 56.3934 6.85864C56.4058 6.87967 56.2067 6.93621 56.1143 6.977C56.0506 6.9636 55.55 7.106 54.8262 7.32758C54.4659 7.44029 54.0484 7.56979 53.6024 7.70839C53.1562 7.84559 52.6887 8.01637 52.2157 8.17655C50.321 8.80773 48.4315 9.53968 48.1947 9.57685C48.0651 9.62496 47.9299 9.67375 47.7922 9.72565C47.4546 9.82716 47.118 9.93699 46.7815 10.0482C46.4432 10.1554 46.1064 10.2639 45.7681 10.3711C45.4296 10.477 45.0923 10.5813 44.7564 10.6854C44.5892 10.738 44.4205 10.7895 44.2547 10.842C44.0892 10.8973 43.924 10.9539 43.7599 11.009C42.448 11.454 41.1768 11.8744 40.0664 12.364C39.6019 12.6175 39.0749 12.8912 38.6906 13.1195C38.2743 13.2362 38.2402 13.3614 37.7633 13.5601C36.4714 13.8788 35.8108 14.2842 36.4624 14.0841C36.2199 14.2022 35.9755 14.3163 35.7322 14.4275C35.4889 14.5387 35.2454 14.6485 35.0111 14.7643C34.5378 14.9921 34.0791 15.2125 33.6471 15.4198C33.2548 15.6293 32.8652 15.8371 32.4701 16.047C32.1386 16.2337 31.9352 16.302 31.7393 16.3384C30.8882 16.8135 31.117 16.6294 30.1988 17.0745C30.1336 17.0838 29.9634 17.1693 29.74 17.2935C29.6292 17.3577 29.5038 17.4292 29.3705 17.5045C29.239 17.5839 29.1042 17.6706 28.9664 17.7563C28.42 18.1029 27.8731 18.4565 27.7405 18.5148L27.8805 18.4246C27.3596 18.7018 26.9081 18.9002 26.4593 19.0969C26.0142 19.3016 25.5771 19.5138 25.0758 19.8013C24.7272 19.9985 24.3734 20.1991 24.0182 20.3999C23.6633 20.6035 23.3055 20.8061 22.9556 21.0274C22.2537 21.4646 21.5479 21.9051 20.8487 22.3405C20.6743 22.4504 20.4983 22.5577 20.327 22.67C20.156 22.7837 19.9863 22.8972 19.8179 23.0092C19.4798 23.2347 19.1429 23.4586 18.8112 23.6791C18.1496 24.1227 17.493 24.5375 16.8876 24.9672C16.9124 25.0557 17.4127 24.574 17.5066 24.6499C16.0702 25.6508 14.543 26.5543 13.1298 27.6185C12.86 27.7907 12.5215 27.9895 12.3867 28.0537C11.9138 28.366 12.144 28.2859 11.8062 28.5255L11.7137 28.4958C11.4887 28.7006 11.3031 28.8217 11.1179 28.9357C10.9314 29.0498 10.747 29.1581 10.5329 29.3474C10.5284 29.3916 10.368 29.5238 10.208 29.6474C10.1487 29.5884 9.72213 30.0387 9.69724 29.9614L9.69825 29.9697C9.60014 30.045 9.53511 30.1022 9.40814 30.1838C9.32494 30.2657 8.89536 30.691 8.46578 31.1163C8.04605 31.5531 7.62616 31.9885 7.54676 32.0784L7.45375 32.1375C7.20691 32.3477 7.14018 32.484 7.29472 32.3737L6.98534 32.6267L7.01657 32.5933L6.70842 32.8448C6.6471 32.886 6.55823 32.9095 6.62221 32.8087C6.46745 32.9754 6.284 33.1497 6.10122 33.2832C6.61587 32.9194 7.26062 32.4764 7.81711 32.1202C7.62906 32.3148 7.22819 32.593 7.00904 32.7872C6.70811 32.9701 6.12253 33.389 5.67644 33.7248C5.58802 33.8101 5.58492 33.9358 5.34943 34.0883C5.20489 34.1298 5.11528 34.2984 4.91224 34.416C5.08954 34.2142 5.29449 34.0542 5.49758 33.8788C5.41394 33.8524 4.97256 34.2735 4.79867 34.3988C4.73979 34.4834 4.33336 34.8087 4.10329 35.0408C4.16155 34.8929 3.87479 35.1812 3.70328 35.2794C3.53247 35.4185 3.44636 35.5345 3.53026 35.4934C3.53037 35.599 4.21902 34.9479 4.04372 35.2128C3.9578 35.2373 3.64374 35.5331 3.47217 35.6891C3.49879 35.7225 3.61339 35.6086 3.52757 35.7387C3.3273 35.9024 3.15775 36.1216 3.01607 36.1866C3.04507 36.1465 3.12889 36.0814 3.18642 36.0322C2.93085 36.2519 4.36365 34.6163 4.0551 34.9227C4.16526 34.877 2.78997 36.3817 2.95976 36.2343C3.1272 36.114 2.90235 36.3891 3.07155 36.2602L3.21304 36.0656C3.441 35.8858 3.58077 35.8632 3.52396 35.9532C3.15457 36.2698 4.36024 34.8209 4.07863 35.1283L4.21938 35.0324C4.10626 35.17 3.76948 35.4996 3.60357 35.5859C3.63142 35.6177 3.46415 35.7859 3.32616 35.9279L3.26902 35.9687C3.13065 36.1192 2.91121 36.2993 3.04813 36.2532C3.93556 35.4611 2.75471 37.0915 3.63396 36.3483C3.20854 36.5985 3.6913 36.1695 4.06306 35.8259C4.12129 35.8174 4.32189 35.7029 4.6096 35.4807C4.84047 35.2668 4.72555 35.3315 4.75531 35.2744C4.8999 35.1751 5.16254 34.9672 5.16211 35.0335C5.30781 34.8271 5.48113 34.8019 5.68853 34.5922C5.86562 34.4003 5.65798 34.5847 5.77738 34.4406C5.92589 34.3156 6.1018 34.1604 6.27522 34.0197C6.4502 33.8802 6.61891 33.7471 6.73986 33.6507C6.86181 33.6092 7.1952 33.4377 7.03777 33.6639C6.57904 34.035 7.13355 33.4297 6.67346 33.8362C6.94641 33.7482 6.27364 34.2044 6.24513 34.3416C6.42133 34.247 6.72965 33.997 6.97341 33.7731L6.9137 33.8042C7.12817 33.6064 7.56319 33.2143 7.84162 33.0552C7.80849 33.131 7.93158 33.064 7.77413 33.2084L8.08646 32.9565C8.11807 32.9146 8.1509 32.8712 8.05612 32.939C8.18264 32.7955 8.33874 32.6864 8.46483 32.6092C8.49454 32.6098 8.87806 32.2352 9.24973 31.8676C9.6311 31.5101 10.0008 31.1611 9.9833 31.1913C10.2097 31.0104 10.3018 31.0133 10.4984 30.8078C10.4998 30.7963 10.3691 30.9051 10.1775 31.0706C9.98746 31.2373 9.73624 31.4579 9.4913 31.6721C9.00593 32.1028 8.57495 32.5282 8.71584 32.3985C8.91551 32.2531 11.1566 30.197 11.3417 30.1408C11.5087 30.005 11.7058 29.8389 11.6422 29.8382C11.9386 29.629 11.6041 29.9653 11.8296 29.8351C11.8299 29.8267 11.8011 29.833 11.8669 29.7827L12.0931 29.6694C12.5029 29.2789 13.216 28.853 13.6379 28.4343C13.5276 28.5716 13.4164 28.7484 13.1358 29.0064L13.0696 29.0299C13.0338 29.0723 12.7924 29.2691 12.8239 29.2963C13.129 29.1015 13.3715 28.913 13.6505 28.6538C13.7128 28.6209 13.7854 28.5797 13.8348 28.5568C13.8301 28.5532 13.8232 28.554 13.821 28.5472C13.9357 28.4925 13.9273 28.5048 13.8995 28.5434C13.896 28.5494 13.8925 28.5555 13.884 28.5664C14.0098 28.5455 14.2816 28.3196 14.5926 28.0565C14.9034 27.7921 15.2532 27.4891 15.5428 27.3287C15.6913 27.2036 15.5466 27.3014 15.7308 27.1453C16.3066 26.7966 16.7067 26.5594 17.2955 26.1782C17.4497 26.0073 17.4537 25.9815 17.2006 26.0939L17.6436 25.8022C17.3251 26.19 18.5271 25.3387 18.1669 25.7542C18.3117 25.6916 18.5806 25.5237 18.8152 25.3404C18.8211 25.296 18.8293 25.2246 19.1403 25.0193C19.5982 24.7694 19.4863 24.8238 19.8682 24.6226C19.9774 24.6037 19.8556 24.7044 19.8904 24.7241C20.4119 24.3116 20.4244 24.4847 20.9406 24.1334C21.0212 24.0771 21.12 24.0074 21.2254 23.9341C21.331 23.8621 21.4419 23.7881 21.5437 23.7194C21.744 23.5797 21.9014 23.4578 21.8883 23.4199C22.3375 23.1443 22.3672 23.1914 22.3573 23.2729L22.3592 23.2769Z" fill="black"/>
</g>
<defs>
<clipPath id="clip0_1379_258">
<rect width="99.428" height="25.0527" fill="white" transform="translate(0 11.9727) rotate(-6.91596)"/>
</clipPath>
</defs>
</svg>
