<svg width="146" height="57" viewBox="0 0 146 57" fill="none" xmlns="http://www.w3.org/2000/svg">
    <g clip-path="url(#clip0_1646_6473)">
        <path d="M108.008 47.164L109.976 48.3423C109.976 48.3423 111.71 47.3107 112.729 47.7539C113.748 48.1956 131.881 47.6546 131.881 47.6546C131.881 47.6546 135.636 48.1604 136.28 45.8451C136.924 43.5299 138.58 27.4086 121.044 30.6209C103.507 33.8332 107.632 43.8554 108.008 47.164Z" fill="#CED5E0"/>
        <path d="M12.249 46.4602L15.7814 49.182C15.7814 49.182 18.3646 48.1948 19.0085 48.4118C19.6524 48.6288 37.9462 49.9782 37.9462 49.9782C37.9462 49.9782 42.8284 50.4397 44.2236 49.1805C45.6187 47.9227 38.2153 26.9844 27.6468 29.046C17.0783 31.1076 12.2505 46.4587 12.2505 46.4587L12.249 46.4602Z" fill="#CED5E0"/>
        <path d="M4.06249 33.7311L3.30371 31.4724C3.30371 31.4724 7.53746 23.5408 15.3157 24.4333C23.0955 25.3258 4.06098 33.7311 4.06098 33.7311H4.06249Z" fill="#CED5E0"/>
        <path d="M132.298 3.23535L141.086 22.8288H145.143C144.159 17.9721 141.19 10.0345 132.298 3.23535Z" fill="#CED5E0"/>
        <path d="M141.086 22.8271L143.018 27.1337L144.615 27.3966C144.615 27.3966 145.294 27.4103 145.401 27.3064C145.565 27.149 145.701 25.5826 145.143 22.8271H141.086Z" fill="#CED5E0"/>
        <path d="M26.8867 20.8343L27.6682 19.4115C27.6682 19.4115 53.5815 2.11958 64.1138 2.43593C74.646 2.75227 29.7012 26.2641 26.8867 20.8343Z" fill="#CED5E0"/>
        <path d="M145.699 39.1609C145.699 39.1609 145.455 38.0591 145.608 35.4091H134.929C133.232 35.4091 131.169 34.0582 131.169 32.8524C131.169 31.6466 131.809 31.83 131.809 31.83H144.917V27.3064L144.266 27.227C144.266 27.227 144.364 24.5128 143.377 19.8426C142.39 15.1723 138.087 9.34361 135.638 5.711C133.191 2.0784 131.572 2.35806 125.136 1.39986C118.702 0.438603 90.9457 0 90.9457 0C90.9457 0 74.0863 0.559333 66.2294 1.7162C58.3726 2.8746 50.2785 7.26522 47.4353 8.82248C44.5921 10.3798 33.3571 18.9837 33.3571 18.9837C32.7812 19.3474 28.5142 18.9837 28.5142 18.9837C23.0939 19.3658 11.5339 24.7176 11.5339 24.7176C11.8755 24.681 13.585 25.063 13.585 25.063C14.9529 25.9188 12.7537 27.3752 11.9798 27.9758C11.2059 28.5764 7.23966 30.8886 5.88837 31.344C4.53859 31.7995 3.30368 31.4709 3.30368 31.4709C2.81698 32.0531 2.05971 34.7841 2.05971 34.7841C2.05971 34.7841 0.972931 35.3174 0.378906 36.3628L14.7519 36.1763C14.7519 36.1763 16.0941 36.0938 15.9566 36.7295C15.819 37.3668 14.8607 39.2756 13.0544 39.4146C11.5218 39.5323 2.95603 39.569 0.39251 39.5782C0.743181 40.3606 1.20117 40.8359 1.20117 40.8359V42.9938C0.569357 43.7029 0.696324 44.6397 0.696324 44.6397C1.43999 49.1541 15.7812 49.18 15.7812 49.18C14.5282 40.5195 17.0736 32.533 28.1288 32.533C38.1183 32.533 40.2088 42.1471 40.5186 45.2082L110.187 44.8933C110.848 40.3667 113.419 32.9762 123.162 32.8921C137.218 32.7729 134.76 47.3431 134.76 47.3431C134.76 47.3431 142.015 46.145 144.462 44.8276C146.909 43.5103 145.697 39.1594 145.697 39.1594L145.699 39.1609Z" fill="#CED5E0"/>
        <path d="M15.957 36.7297C16.0946 36.0925 14.7523 36.1765 14.7523 36.1765L0.379364 36.363C0.173799 36.7236 0.027182 37.1439 0.00450931 37.6237C-0.031767 38.3802 0.155661 39.0496 0.392968 39.5784C2.95649 39.5692 11.5222 39.5325 13.0549 39.4148C14.8612 39.2758 15.8195 37.367 15.957 36.7297Z" fill="#CED5E0"/>
        <path d="M40.5662 45.9461C40.5662 47.5828 41.4354 49.9776 41.4354 49.9776L109.976 48.3408C109.976 48.3408 109.907 47.1014 110.129 45.3271L40.5557 45.642C40.5632 45.7627 40.5678 45.8681 40.5678 45.9461H40.5662Z" fill="#CED5E0"/>
        <path d="M40.5558 45.6434L110.129 45.3285C110.147 45.1864 110.167 45.0412 110.188 44.8945L40.5195 45.2093C40.5362 45.3759 40.5467 45.5181 40.5543 45.6434H40.5558Z" fill="#CED5E0"/>
        <path d="M41.9084 38.0021L106.778 36.3256C106.778 36.3256 109.818 36.5655 110.687 34.2503C110.687 34.2503 111.003 33.6115 109.029 33.6512C107.055 33.6909 41.3552 36.0062 41.3552 36.0062C41.3552 36.0062 40.4467 37.0439 41.9084 38.0021Z" fill="#CED5E0"/>
        <path d="M84.0371 25.2695C84.0371 25.9633 80.1223 26.0367 75.2915 26.0367C70.4607 26.0367 66.5459 26.0779 66.5459 25.2695C66.5459 24.461 70.4607 24.5023 75.2915 24.5023C80.1223 24.5023 84.0371 24.5787 84.0371 25.2695Z" fill="#CED5E0"/>
        <path d="M130.891 32.7851C130.891 33.9909 133.23 35.5681 134.928 35.5681H145.607C145.613 35.2487 145.62 35.3327 145.628 35.2089C145.826 32.2946 144.917 31.7352 144.917 31.7352H131.81C131.81 31.7352 130.891 31.5778 130.891 32.7851Z" fill="#CED5E0"/>
        <path d="M33.2021 22.8276L75.3537 20.3824L130.418 18.1176C130.418 18.1176 135.9 18.1955 136.287 16.4778C136.673 14.76 133.944 7.65528 132.297 5.93907C130.649 4.22134 130.959 4.06546 129.956 3.7537C128.952 3.44194 109.647 2.11391 101.616 2.03597C93.5856 1.95803 68.7983 1.48886 61.2316 4.1434C53.665 6.79794 40.3063 14.1869 33.2021 22.8276Z" fill="#CED5E0"/>
        <path d="M35.4375 21.6473C35.4375 21.6473 46.0785 12.1112 49.4145 10.9023L48.3443 20.8328L35.4375 21.6473Z" fill="#CED5E0"/>
        <path d="M50.643 9.8521L49.8555 20.6414L72.3332 19.3684L74.6624 2.97658C74.6624 2.97658 59.709 2.9124 50.643 9.8521Z" fill="#CED5E0"/>
        <path d="M80.4867 2.97719L79.6992 19.0511L106.71 18.1281L104.349 2.69141C104.349 2.69141 86.0279 2.15042 80.4867 2.97719Z" fill="#CED5E0"/>
        <path d="M110.002 2.87109L112.251 17.1937H131.585C131.585 17.1937 133.941 17.0027 134.603 16.1759C135.264 15.3491 135.045 13.3318 134.351 11.9641C133.659 10.5948 131.391 4.71261 129.565 4.39474C127.74 4.07687 110.002 2.87262 110.002 2.87262V2.87109Z" fill="#CED5E0"/>
        <path d="M74.5522 45.0706C74.1864 42.442 75.1991 21.276 75.2429 20.3774V20.3682L77.8019 0.519531L78.0211 0.548568L75.4636 20.3927C75.4439 20.8099 74.4116 42.4435 74.7713 45.04L74.5522 45.0706Z" fill="#CED5E0"/>
        <path d="M108.032 44.9588L107.852 44.8274C110.757 40.7516 112.047 28.3958 112.154 25.2645C112.263 22.0644 110.119 19.0446 110.098 19.0155L110.082 18.9926L110.077 18.9651L107.725 2.46938L106.614 0.59118L106.805 0.476562L107.938 2.39449L110.293 18.9086C110.494 19.1989 112.48 22.1484 112.375 25.2752C112.267 28.4218 110.967 40.8448 108.032 44.9619V44.9588Z" fill="#CED5E0"/>
        <path d="M112.239 24.682C112.18 24.682 112.26 24.5307 112.254 24.329C112.248 24.1227 112.079 23.9897 112.229 23.9683L143.345 23.001H143.357C143.555 23.001 143.719 23.1691 143.725 23.3708C143.732 23.5771 143.571 23.7254 143.367 23.733L112.251 24.682H112.239Z" fill="#CED5E0"/>
        <path d="M14.0008 26.0611L13.96 25.8411C14.096 25.8151 27.6422 23.2232 33.1924 22.7158L33.2121 22.9389C27.6724 23.4448 14.1368 26.0351 14.0008 26.0611Z" fill="#CED5E0"/>
        <path d="M41.5107 23.9096L45.0174 19.2195C45.0174 19.2195 46.0664 16.0362 48.6904 15.758C51.3144 15.4784 54.6276 15.5074 54.8211 17.9923C55.0146 20.4772 53.8825 20.8409 52.8048 20.8119C51.7286 20.7844 47.4192 21.2872 47.4192 21.2872L47.779 23.2418C47.779 23.2418 41.8146 24.9733 41.5107 23.9112V23.9096Z" fill="#CED5E0"/>
        <path d="M39.1105 45.8455C39.1105 52.0074 34.1709 57.0016 28.0765 57.0016C21.9821 57.0016 17.0439 52.0074 17.0439 45.8455C17.0439 39.6837 21.9836 34.6895 28.0765 34.6895C34.1694 34.6895 39.1105 39.6837 39.1105 45.8455Z" fill="#CED5E0"/>
        <path d="M19.7676 45.8456C19.7676 50.5006 23.4995 54.2723 28.1036 54.2723C32.7076 54.2723 36.438 50.4991 36.438 45.8456C36.438 41.1921 32.7076 37.4189 28.1036 37.4189C23.4995 37.4189 19.7676 41.1921 19.7676 45.8456Z" fill="#CED5E0"/>
        <path d="M25.2111 40.196L27.1398 42.412C27.1398 42.412 27.4738 42.9438 27.9288 42.9438C28.3838 42.9438 28.7178 42.5709 28.7178 42.5709L30.7342 40.1945C30.7342 40.1945 31.0153 39.8568 30.7342 39.6275C30.4545 39.3968 29.469 39.0605 28.1041 39.0605C26.7392 39.0605 24.7199 39.4319 25.2111 40.1945V40.196Z" fill="#CED5E0"/>
        <path d="M25.2107 51.4958L27.1394 49.2799C27.1394 49.2799 27.4734 48.748 27.9284 48.748C28.3834 48.748 28.7174 49.1209 28.7174 49.1209L30.7338 51.4958C30.7338 51.4958 31.0149 51.8335 30.7338 52.0628C30.4541 52.2935 29.4686 52.6313 28.1022 52.6313C26.7358 52.6313 24.718 52.2584 25.2092 51.4958H25.2107Z" fill="#CED5E0"/>
        <path d="M33.7597 43.0278L31.568 44.9779C31.568 44.9779 31.042 45.3141 31.042 45.7756C31.042 46.2371 31.4108 46.5733 31.4108 46.5733L33.7612 48.612C33.7612 48.612 34.0952 48.8947 34.322 48.612C34.5502 48.3293 34.8843 47.3329 34.8843 45.9514C34.8843 44.5698 34.5154 42.5296 33.7627 43.0278H33.7597Z" fill="#CED5E0"/>
        <path d="M22.584 43.0278L24.7757 44.9779C24.7757 44.9779 25.3017 45.3141 25.3017 45.7756C25.3017 46.2371 24.9329 46.5733 24.9329 46.5733L22.584 48.612C22.584 48.612 22.2499 48.8947 22.0217 48.612C21.7935 48.3278 21.4609 47.3329 21.4609 45.9514C21.4609 44.5698 21.8297 42.5296 22.584 43.0278Z" fill="#CED5E0"/>
        <path d="M133.31 45.8455C133.31 52.0074 128.37 57.0016 122.276 57.0016C116.181 57.0016 111.243 52.0074 111.243 45.8455C111.243 39.6837 116.183 34.6895 122.276 34.6895C128.369 34.6895 133.31 39.6837 133.31 45.8455Z" fill="#CED5E0"/>
        <path d="M113.967 45.8456C113.967 50.5006 117.699 54.2723 122.303 54.2723C126.907 54.2723 130.637 50.4991 130.637 45.8456C130.637 41.1921 126.907 37.4189 122.303 37.4189C117.699 37.4189 113.967 41.1921 113.967 45.8456Z" fill="#CED5E0"/>
        <path d="M119.41 40.196L121.339 42.412C121.339 42.412 121.673 42.9438 122.128 42.9438C122.583 42.9438 122.917 42.5709 122.917 42.5709L124.933 40.1945C124.933 40.1945 125.215 39.8568 124.933 39.6275C124.654 39.3968 123.668 39.0605 122.303 39.0605C120.938 39.0605 118.919 39.4319 119.41 40.1945V40.196Z" fill="#CED5E0"/>
        <path d="M119.41 51.4958L121.339 49.2799C121.339 49.2799 121.673 48.748 122.128 48.748C122.583 48.748 122.917 49.1209 122.917 49.1209L124.933 51.4958C124.933 51.4958 125.214 51.8335 124.933 52.0628C124.652 52.2935 123.668 52.6313 122.301 52.6313C120.935 52.6313 118.917 52.2584 119.408 51.4958H119.41Z" fill="#CED5E0"/>
        <path d="M127.959 43.0278L125.767 44.9779C125.767 44.9779 125.241 45.3141 125.241 45.7756C125.241 46.2371 125.61 46.5733 125.61 46.5733L127.96 48.612C127.96 48.612 128.294 48.8947 128.521 48.612C128.749 48.3293 129.083 47.3329 129.083 45.9514C129.083 44.5698 128.715 42.5296 127.962 43.0278H127.959Z" fill="#CED5E0"/>
        <path d="M116.783 43.0278L118.975 44.9779C118.975 44.9779 119.501 45.3141 119.501 45.7756C119.501 46.2371 119.132 46.5733 119.132 46.5733L116.783 48.612C116.783 48.612 116.449 48.8947 116.221 48.612C115.993 48.3278 115.66 47.3329 115.66 45.9514C115.66 44.5698 116.029 42.5296 116.783 43.0278Z" fill="#CED5E0"/>
    </g>
    <defs>
        <clipPath id="clip0_1646_6473">
            <rect width="146" height="57" fill="white"/>
        </clipPath>
    </defs>
</svg>
