<svg width="161" height="52" viewBox="0 0 161 52" fill="none" xmlns="http://www.w3.org/2000/svg">
    <g clip-path="url(#clip0_1646_6153)">
        <path d="M139.975 39.7891L140.697 40.2423C140.697 40.2423 144.874 39.9641 145.474 40.015C146.074 40.0659 147.4 39.6807 148.684 41.0925C148.684 41.0925 150.868 40.5361 151.039 40.2148C151.21 39.8936 149.293 38.7926 148.428 38.4609C147.563 38.1291 141.708 38.1396 141.067 38.2898C140.425 38.44 139.976 39.7865 139.976 39.7865L139.975 39.7891Z" fill="#CED5E0"/>
        <path d="M156.837 32.3695C156.837 32.3695 160.647 32.4713 160.818 33.0708C160.988 33.6703 159.717 37.3284 159.717 37.3284C159.717 37.3284 159.363 38.526 158.613 38.6109C157.864 38.6958 151.68 38.2687 150.76 37.3271C149.84 36.3854 156.837 32.3682 156.837 32.3682V32.3695Z" fill="#CED5E0"/>
        <path d="M11.7788 23.7905C11.7788 23.7905 7.79895 24.0295 7.38869 23.9655C6.97842 23.9015 7.2332 23.6534 7.58337 22.5224C7.85775 21.6382 7.30899 20.7384 7.05682 20.3896C6.36695 20.5242 5.74763 20.7658 5.35827 21.1772C5.35827 21.1772 4.18366 22.747 3.62053 24.1222C3.48726 24.4461 3.38926 24.7596 3.34876 25.039C3.13448 26.5018 2.80261 30.7933 3.21157 31.1825C3.62183 31.573 8.38299 31.4711 8.38299 31.4711L11.5253 28.3158L13.463 23.9694L11.7788 23.7905Z" fill="#CED5E0"/>
        <path d="M7.58384 22.5238C7.23237 23.6548 6.97759 23.9029 7.38916 23.9669C7.79942 24.0309 11.7792 23.7919 11.7792 23.7919L13.4634 23.9708L14.5701 21.4907L11.058 20.3989C11.058 20.3989 8.82639 20.0463 7.05859 20.3924C7.31076 20.7424 7.85952 21.6409 7.58514 22.5251L7.58384 22.5238Z" fill="#CED5E0"/>
        <path d="M6.09005 26.9023H13.4461L12.521 31.2083H6.30041C6.30041 31.2083 5.86663 29.739 5.94502 28.608C6.02342 27.477 5.84572 27.0094 6.09005 26.9023Z" fill="#CED5E0"/>
        <path d="M5.30069 21.2752L4.94922 21.8042C4.94922 21.8042 6.43218 21.3144 6.76405 21.2752C7.09592 21.236 10.4904 20.8651 11.0379 22.3866C11.584 23.9081 8.45345 27.0008 8.08761 31.4712L9.30142 30.9096L13.9842 24.8236L13.2812 21.9948L11.5252 21.0388C11.5252 21.0388 6.74445 19.9274 5.30069 21.1942" fill="#CED5E0"/>
        <path d="M3.85681 24.2381C3.79932 24.2381 3.75359 24.1846 3.75098 24.1271C3.75098 24.0697 3.7954 24.0174 3.8542 24.0161L10.6837 23.8633C10.7398 23.862 10.7895 23.9064 10.7908 23.9652C10.7908 24.0226 10.7464 24.0788 10.6876 24.0801L3.85812 24.2381H3.8555H3.85681Z" fill="#CED5E0"/>
        <path d="M9.45259 26.5886H3.46195C3.40446 26.5886 3.35742 26.5808 3.35742 26.5233C3.35742 26.4658 3.40446 26.458 3.46195 26.458H9.45128C9.51008 26.458 9.55581 26.4658 9.55581 26.5233C9.55581 26.5808 9.50877 26.5886 9.45128 26.5886H9.45259Z" fill="#CED5E0"/>
        <path d="M7.142 24.3301H10.1889L9.33966 26.0096H6.93164L7.142 24.3301Z" fill="#CED5E0"/>
        <path d="M0.747393 33.9693C0.747393 33.9693 -0.224698 34.6628 0.0483761 35.7951C0.32145 36.9261 0.868905 39.0483 0.868905 39.0483C0.868905 39.0483 0.837547 39.7288 2.61318 39.9626C4.38882 40.1963 4.88139 40.3504 4.88139 40.3504V41.3979C4.88139 41.3979 3.53693 41.6578 3.57613 42.2233C3.61532 42.7888 5.03296 43.238 10.5754 43.238L10.7192 41.326L14.9564 41.3652L34.6073 40.9943C34.6073 40.9943 38.6472 42.2037 40.1497 42.4962C41.6523 42.7888 43.6043 43.1126 44.0917 43.0878C44.579 43.063 45.0677 39.3174 45.0677 39.3174L39.0771 23.8503L15.1341 22.5234L12.0793 28.5311L9.94437 31.3586L9.43742 31.4709L4.94542 31.4356C4.94542 31.4356 2.52956 32.3524 2.0409 32.8788C1.55355 33.4051 0.747393 33.968 0.747393 33.968V33.9693Z" fill="#CED5E0"/>
        <path d="M102.02 20.8037L98.6232 15.9258C98.6232 15.9258 97.2565 16.5043 96.5418 16.3999C95.8271 16.2954 63.3587 23.5424 63.3587 23.5424L38.3718 37.8523C38.3718 37.8523 37.8257 41.7129 39.4014 42.3437C40.9771 42.9745 50.3296 43.079 50.3296 43.079L100.243 42.3437C100.243 42.3437 102.029 43.1835 104.236 43.0777C106.443 42.9732 108.019 42.1308 108.019 42.1308H110.54C110.54 42.1308 115.375 42.0172 117.686 41.7025C119.997 41.3877 135.864 40.433 135.864 40.433H140.682V21.2308L102.02 20.8037Z" fill="#CED5E0"/>
        <path d="M59.3736 2.57115L57.7195 2.18457C57.7195 2.18457 39.6326 13.1368 37.9732 18.0787C36.3139 23.0193 43.6033 14.3853 43.6033 14.3853L59.3736 2.57115Z" fill="#CED5E0"/>
        <path d="M52.417 6.34244C54.2593 5.14483 58.3515 2.60203 58.3515 2.60203L57.9242 2.12012C57.7648 2.16583 57.6825 2.19195 57.7191 2.18542C57.9294 2.15016 58.1738 2.57069 58.1738 2.57069C53.7249 4.49705 44.1621 12.4794 43.3925 13.1454C42.6216 13.8102 39.8543 15.6673 39.1187 15.8045C39.1004 15.8084 39.0795 15.811 39.0586 15.8149C40.0385 16.4078 49.8078 8.03894 52.417 6.34375V6.34244Z" fill="#CED5E0"/>
        <path d="M96.5881 39.9848C96.1674 39.7392 96.3895 38.4737 96.3895 38.4737L95.6539 39.5068C95.8642 38.9818 97.3354 19.0599 97.3002 15.3143C97.2649 11.5673 96.3189 2.88501 95.3743 1.37918C94.4283 -0.126648 90.6811 -0.0913855 79.6118 0.0836195C68.5438 0.258625 62.7988 1.20417 61.9939 1.20417C61.3276 1.20417 58.6935 1.90028 57.9252 2.11969L58.3525 2.6016C58.3525 2.6016 54.2603 5.1444 52.418 6.34201C49.8088 8.03851 40.0395 16.4061 39.0596 15.8132C38.2495 15.9386 35.6991 15.9111 34.8459 15.8093C33.9692 15.7048 14.4581 18.4761 11.3406 19.0351C8.22316 19.5954 7.13347 19.8722 5.9863 20.3398C4.83913 20.8074 4.95019 21.8025 4.95019 21.8025C7.90697 19.854 11.031 21.6145 11.3459 22.1055C11.6608 22.5953 10.5397 25.0114 9.80411 26.3422C9.06851 27.673 8.08727 31.4709 8.08727 31.4709H12.676C13.9368 28.1092 15.5831 26.7876 17.2294 26.0523C18.8757 25.317 31.1352 23.6806 34.2527 25.9204C37.3702 28.1615 38.456 38.4202 38.5265 39.1555C38.5971 39.8907 39.1916 40.4863 39.1916 40.4863C39.2621 41.326 40.0056 41.6068 40.0056 41.6068L97.5628 41.0818V40.2407C97.5628 40.2407 97.0088 40.2303 96.5881 39.9848Z" fill="#CED5E0"/>
        <path d="M154.379 16.2139L157.616 17.9992C157.616 17.9992 158.293 19.6356 158.338 22.0726C158.382 24.5096 158.539 29.5639 157.734 30.5473C156.928 31.5307 152.052 27.5957 152.029 27.2379C152.007 26.88 154.379 16.2139 154.379 16.2139Z" fill="#CED5E0"/>
        <path d="M98.6264 15.9252C98.6264 15.9252 98.0227 15.7463 98.0227 16.7114C98.0227 17.6766 97.8816 25.544 97.7745 28.1181C97.6674 30.6923 96.2236 39.5888 96.6064 39.8226C96.9892 40.0563 98.1338 40.2627 98.1338 40.2627L98.0985 41.2148H106.966C106.966 41.2148 108.402 40.5552 109.189 40.5552C109.975 40.5552 110.226 40.0041 110.226 39.5039C110.226 39.0037 111.228 28.7332 115.915 26.6946C120.602 24.6559 132.586 24.7773 132.586 24.7773C132.586 24.7773 136.7 24.6232 138.024 29.0219C139.347 33.4205 139.812 37.7773 139.096 39.1722L147.825 38.0973C147.825 38.0973 155.159 37.81 156.304 35.5571C157.448 33.3043 157.913 30.1921 157.913 30.1921C157.913 30.1921 156.446 29.7271 156.018 27.6884C155.588 25.6498 154.622 23.0391 154.587 22.3952C154.552 21.7513 153.808 18.9264 154.702 18.4262C155.597 17.926 157.536 17.9966 157.536 17.9966V16.1864C157.536 16.1864 157.678 15.3506 156.89 15.3506C156.103 15.3506 98.6251 15.9226 98.6251 15.9226L98.6264 15.9252Z" fill="#CED5E0"/>
        <path d="M12.0789 32.0498H3.67242C3.67242 32.0498 0.83062 32.1399 0.596744 33.4459C0.362867 34.7532 0.675138 35.2404 0.889416 35.2796C1.10369 35.3187 11.3289 35.2796 11.3289 35.2796C11.3289 35.2796 11.4818 33.4616 12.0789 32.0498Z" fill="#CED5E0"/>
        <path d="M97.8783 29.738V32.3108H106.547C106.547 32.3108 106.975 32.3108 107.101 32.1841C107.228 32.0562 107.229 31.6069 107.229 31.6069V30.3688C107.229 30.3688 107.211 29.7733 106.785 29.7393C106.361 29.704 97.877 29.7393 97.877 29.7393L97.8783 29.738Z" fill="#CED5E0"/>
        <path d="M106.547 32.3121C106.547 32.3121 107.177 32.7862 108.158 31.0179C109.139 29.2482 110.68 22.3865 113.762 21.5467C116.844 20.707 144.025 18.3953 144.025 18.3953C144.025 18.3953 115.373 17.835 112.22 20.9159C109.068 23.9968 108.578 31.5246 106.546 32.3121H106.547Z" fill="#CED5E0"/>
        <path d="M44.839 16.3534C44.839 16.3534 44.4692 14.7927 46.0306 13.6029C47.5919 12.4119 55.6417 6.0072 55.6417 6.0072C55.6417 6.0072 59.4203 2.96942 64.3501 2.55803C69.2798 2.14794 75.5644 2.06567 75.5644 2.06567C75.5644 2.06567 77.0434 1.98339 77.0839 3.17447C77.1244 4.36555 76.2621 14.8763 76.2621 14.8763C76.2621 14.8763 76.509 15.7383 75.7695 16.1901C75.03 16.642 73.3876 16.5597 73.3876 16.5597L47.3045 17.7913C47.3045 17.7913 45.1277 17.6685 44.8403 16.3547L44.839 16.3534Z" fill="#CED5E0"/>
        <path d="M75.3595 15.0807L76.3042 3.83072C76.3042 3.83072 76.6321 2.96875 75.8312 2.96875C75.0303 2.96875 64.4744 2.96875 60.6122 4.65219C56.7513 6.33564 48.1253 11.4682 46.8514 15.0807C45.5775 18.6944 48.9876 16.4768 48.9876 16.4768L53.9983 16.3945L73.222 15.5325C73.222 15.5325 75.2994 15.7846 75.3582 15.0807H75.3595Z" fill="#CED5E0"/>
        <path d="M93.202 13.0187C93.202 14.7047 91.834 16.2706 90.1472 16.2706H83.6483C81.9615 16.2706 80.1885 14.5062 80.1885 12.8202V4.53747C80.1885 2.85141 81.9602 2.03516 83.6483 2.03516H89.3071C90.9939 2.03516 92.1057 2.57454 92.6689 4.81956L93.202 13.0187Z" fill="#CED5E0"/>
        <path d="M89.3061 2.53543C90.6558 2.53543 91.5391 2.89327 92.0421 4.84706L92.57 13.0645C92.5595 14.4449 91.4319 15.666 90.1463 15.666H83.6474C82.316 15.666 80.8016 14.1524 80.8016 12.8228V4.53754C80.8016 3.25112 82.2742 2.53412 83.6474 2.53412H89.314M89.3061 1.90332H83.6474C81.9606 1.90332 80.1719 2.85018 80.1719 4.53623V12.8189C80.1719 14.505 81.9606 16.2929 83.6474 16.2929H90.1463C91.8331 16.2929 93.201 14.7153 93.201 13.0292L92.668 4.75956C92.1048 2.51453 90.9929 1.90332 89.3061 1.90332Z" fill="#CED5E0"/>
        <path d="M44.4779 29.7376C43.7632 29.7376 43.6025 30.3175 43.6025 31.0319V31.0685C43.6025 31.7828 43.7619 32.3627 44.4779 32.3627H78.3848V29.7363H44.4779V29.7376Z" fill="#CED5E0"/>
        <path d="M96.0396 31.0335C96.0396 30.3191 96.0905 29.7393 95.3745 29.7393H79.2266V32.3656H95.3745C96.0892 32.3656 96.0396 31.7858 96.0396 31.0714V31.0348V31.0335Z" fill="#CED5E0"/>
        <path d="M45.0676 16.595C45.0676 16.595 44.8155 15.1323 46.3206 14.7705L46.5023 12.8898C46.5023 12.8898 46.433 11.9143 47.004 11.6635C47.5763 11.4128 50.5161 10.7023 51.7286 10.8838C52.9411 11.0654 52.5791 14.269 52.5504 14.7574C52.5217 15.2446 52.6758 16.1366 51.8671 16.4291C51.0583 16.7217 48.3406 17.6267 47.9643 17.7665C47.588 17.9062 45.0115 18.3372 45.0663 16.5963L45.0676 16.595Z" fill="#CED5E0"/>
        <path d="M78.8816 37.6905H78.751V20.1808L79.1978 0.0878906L79.4069 0.0931147L78.8816 20.1834V37.6905Z" fill="#CED5E0"/>
        <path d="M42.6558 38.4581L42.6297 38.3888C42.1514 37.0933 40.7221 27.4066 41.0121 23.8491C41.2891 20.4495 42.9223 13.5643 42.938 13.4937L43.198 13.3057C43.181 13.3762 41.4969 20.4822 41.2212 23.866C40.9455 27.2382 42.3161 36.7341 42.8021 38.2465L95.8673 37.4877L95.8699 37.698L42.6545 38.4594L42.6558 38.4581Z" fill="#CED5E0"/>
        <path d="M35.3734 41.2859C35.6683 35.0812 30.8753 29.8123 24.6678 29.5175C18.4604 29.2228 13.1892 34.0137 12.8943 40.2185C12.5994 46.4232 17.3925 51.6921 23.5999 51.9869C29.8073 52.2816 35.0785 47.4907 35.3734 41.2859Z" fill="#CED5E0"/>
        <path d="M15.6611 40.7524C15.6611 45.4449 19.4672 49.248 24.1617 49.248C28.8562 49.248 32.661 45.4436 32.661 40.7524C32.661 36.0612 28.8562 32.2568 24.1617 32.2568C19.4672 32.2568 15.6611 36.0599 15.6611 40.7524Z" fill="#CED5E0"/>
        <path d="M21.2125 35.0571L23.1802 37.2917C23.1802 37.2917 23.5199 37.8285 23.985 37.8285C24.4502 37.8285 24.7886 37.4524 24.7886 37.4524L26.8464 35.0571C26.8464 35.0571 27.1326 34.7176 26.8464 34.4851C26.5603 34.2526 25.5555 33.9131 24.1627 33.9131C22.7699 33.9131 20.7121 34.2879 21.2125 35.0571Z" fill="#CED5E0"/>
        <path d="M21.2119 46.4491L23.1783 44.2145C23.1783 44.2145 23.518 43.6777 23.9832 43.6777C24.4483 43.6777 24.788 44.0526 24.788 44.0526L26.8446 46.4478C26.8446 46.4478 27.1307 46.7873 26.8446 47.0198C26.5584 47.2523 25.555 47.5918 24.1609 47.5918C22.7667 47.5918 20.7102 47.2157 21.2119 46.4478V46.4491Z" fill="#CED5E0"/>
        <path d="M29.9298 37.9121L27.6942 39.8776C27.6942 39.8776 27.1572 40.2172 27.1572 40.6821C27.1572 41.1471 27.5322 41.4866 27.5322 41.4866L29.9285 43.5423C29.9285 43.5423 30.2682 43.8283 30.5007 43.5423C30.7333 43.2563 31.073 42.2533 31.073 40.8597C31.073 39.4662 30.6967 37.4106 29.9285 37.9121H29.9298Z" fill="#CED5E0"/>
        <path d="M18.5323 37.9121L20.7678 39.8776C20.7678 39.8776 21.3035 40.2172 21.3035 40.6821C21.3035 41.1471 20.9285 41.4866 20.9285 41.4866L18.5323 43.5423C18.5323 43.5423 18.1925 43.8283 17.96 43.5423C17.7274 43.2563 17.3877 42.2533 17.3877 40.8597C17.3877 39.4662 17.764 37.4106 18.5323 37.9121Z" fill="#CED5E0"/>
        <path d="M35.3734 41.2859C35.6683 35.0812 30.8753 29.8123 24.6678 29.5175C18.4604 29.2228 13.1892 34.0137 12.8943 40.2185C12.5994 46.4232 17.3925 51.6921 23.5999 51.9869C29.8073 52.2816 35.0785 47.4907 35.3734 41.2859Z" fill="#CED5E0"/>
        <path d="M15.6611 40.7524C15.6611 45.4449 19.4672 49.248 24.1617 49.248C28.8562 49.248 32.661 45.4436 32.661 40.7524C32.661 36.0612 28.8562 32.2568 24.1617 32.2568C19.4672 32.2568 15.6611 36.0599 15.6611 40.7524Z" fill="#CED5E0"/>
        <path d="M21.2125 35.0571L23.1802 37.2917C23.1802 37.2917 23.5199 37.8285 23.985 37.8285C24.4502 37.8285 24.7886 37.4524 24.7886 37.4524L26.8464 35.0571C26.8464 35.0571 27.1326 34.7176 26.8464 34.4851C26.5603 34.2526 25.5555 33.9131 24.1627 33.9131C22.7699 33.9131 20.7121 34.2879 21.2125 35.0571Z" fill="#CED5E0"/>
        <path d="M21.2119 46.4491L23.1783 44.2145C23.1783 44.2145 23.518 43.6777 23.9832 43.6777C24.4483 43.6777 24.788 44.0526 24.788 44.0526L26.8446 46.4478C26.8446 46.4478 27.1307 46.7873 26.8446 47.0198C26.5584 47.2523 25.555 47.5918 24.1609 47.5918C22.7667 47.5918 20.7102 47.2157 21.2119 46.4478V46.4491Z" fill="#CED5E0"/>
        <path d="M29.9298 37.9121L27.6942 39.8776C27.6942 39.8776 27.1572 40.2172 27.1572 40.6821C27.1572 41.1471 27.5322 41.4866 27.5322 41.4866L29.9285 43.5423C29.9285 43.5423 30.2682 43.8283 30.5007 43.5423C30.7333 43.2563 31.073 42.2533 31.073 40.8597C31.073 39.4662 30.6967 37.4106 29.9285 37.9121H29.9298Z" fill="#CED5E0"/>
        <path d="M18.5323 37.9121L20.7678 39.8776C20.7678 39.8776 21.3035 40.2172 21.3035 40.6821C21.3035 41.1471 20.9285 41.4866 20.9285 41.4866L18.5323 43.5423C18.5323 43.5423 18.1925 43.8283 17.96 43.5423C17.7274 43.2563 17.3877 42.2533 17.3877 40.8597C17.3877 39.4662 17.764 37.4106 18.5323 37.9121Z" fill="#CED5E0"/>
        <path d="M136.334 42.5588C137.33 36.4274 133.164 30.65 127.03 29.6547C120.896 28.6594 115.116 32.8231 114.12 38.9546C113.125 45.0861 117.29 50.8635 123.424 51.8588C129.558 52.854 135.338 48.6903 136.334 42.5588Z" fill="#CED5E0"/>
        <path d="M116.749 40.7524C116.749 45.4449 120.555 49.248 125.25 49.248C129.944 49.248 133.749 45.4436 133.749 40.7524C133.749 36.0612 129.944 32.2568 125.25 32.2568C120.555 32.2568 116.749 36.0599 116.749 40.7524Z" fill="#CED5E0"/>
        <path d="M122.3 35.0571L124.267 37.2917C124.267 37.2917 124.607 37.8285 125.072 37.8285C125.537 37.8285 125.876 37.4524 125.876 37.4524L127.932 35.0571C127.932 35.0571 128.219 34.7176 127.932 34.4851C127.646 34.2526 126.643 33.9131 125.249 33.9131C123.855 33.9131 121.798 34.2879 122.298 35.0571H122.3Z" fill="#CED5E0"/>
        <path d="M122.3 46.4491L124.266 44.2145C124.266 44.2145 124.606 43.6777 125.071 43.6777C125.536 43.6777 125.876 44.0526 125.876 44.0526L127.932 46.4478C127.932 46.4478 128.219 46.7873 127.932 47.0198C127.646 47.2523 126.643 47.5918 125.249 47.5918C123.855 47.5918 121.798 47.2157 122.3 46.4478V46.4491Z" fill="#CED5E0"/>
        <path d="M131.017 37.9121L128.781 39.8776C128.781 39.8776 128.244 40.2172 128.244 40.6821C128.244 41.1471 128.62 41.4866 128.62 41.4866L131.017 43.5423C131.017 43.5423 131.356 43.8283 131.589 43.5423C131.822 43.2563 132.161 42.2533 132.161 40.8597C132.161 39.4662 131.785 37.4106 131.017 37.9121Z" fill="#CED5E0"/>
        <path d="M119.621 37.9121L121.857 39.8776C121.857 39.8776 122.392 40.2172 122.392 40.6821C122.392 41.1471 122.017 41.4866 122.017 41.4866L119.621 43.5423C119.621 43.5423 119.281 43.8283 119.049 43.5423C118.816 43.2563 118.477 42.2533 118.477 40.8597C118.477 39.4662 118.853 37.4106 119.621 37.9121Z" fill="#CED5E0"/>
        <path d="M157.722 32.9883H160.454C160.454 32.9883 161.095 33.0366 160.988 33.721C160.881 34.4053 160.664 37.3752 159.36 37.4614C158.056 37.5462 155.681 38.1118 155.596 37.7696C155.51 37.4274 156.559 36.7222 156.901 35.9307C157.243 35.1393 157.535 32.9896 157.722 32.9896V32.9883Z" fill="#CED5E0"/>
        <path d="M68.4267 20.2265C68.4267 20.2265 68.4659 19.4546 68.8971 19.4246C69.3282 19.3945 70.0116 19.2888 70.0116 19.2888C70.0116 19.2888 70.7093 18.3941 71.4841 18.3941H73.1317C73.1317 18.3941 74.5506 18.1839 75.1895 19.2339H76.5993C76.5993 19.2339 77.3023 19.2587 77.3323 20.2121C77.3624 21.1655 76.6477 20.9866 76.6477 20.9866L75.2039 21.0127C75.2039 21.0127 74.5493 21.9648 73.9992 21.9648H72.3961C72.3961 21.9648 70.8752 22.0719 70.5172 21.5808C70.1605 21.0897 69.8182 21.0754 69.8182 21.0754L69.0447 21.031C69.0447 21.031 68.2764 20.7946 68.428 20.2252L68.4267 20.2265Z" fill="#CED5E0"/>
    </g>
    <defs>
        <clipPath id="clip0_1646_6153">
            <rect width="161" height="52" fill="white"/>
        </clipPath>
    </defs>
</svg>
