<svg width="111" height="33" viewBox="0 0 111 33" fill="none" xmlns="http://www.w3.org/2000/svg">
    <g clip-path="url(#clip0_1646_6212)">
        <path d="M107.351 24.4035H110.241C110.241 24.4035 111.228 26.4801 109.263 27.4101C107.297 28.3412 99.642 28.1113 99.642 28.1113L86.5277 28.1623L85.4572 29.0223H82.2986L34.2845 26.7159L32.5894 28.6563L29.3602 28.9844L14.586 27.5664C14.586 27.5664 13.0238 29.2521 11.3427 28.6373C9.66165 28.0237 9.52637 22.0923 9.52637 22.0923L12.5026 13.505L21.0102 12.2066L36.1056 14.6517L59.6579 18.7493L78.0719 15.1919L89.8486 10.502L97.3422 10.9876L103.498 16.3066L107.352 24.4035H107.351Z" fill="#CED5E0"/>
        <path d="M5.10059 17.3164C5.10059 17.3164 7.51335 12.8527 16.2245 12.251C24.9356 11.648 5.10059 17.3164 5.10059 17.3164Z" fill="#CED5E0"/>
        <path d="M108.07 8.98145C108.07 8.98145 109.264 10.852 109.264 12.2024C109.264 13.5529 108.896 14.6368 108.851 14.651C108.806 14.6653 104.031 14.0279 104.031 14.0279L103.324 11.0889L108.07 8.98145Z" fill="#CED5E0"/>
        <path d="M69.3859 4.01028C69.3859 4.01028 69.2388 2.90266 68.6894 3.04955C68.1389 3.19763 68.0295 3.56605 67.9189 4.7483C67.8095 5.93055 66.0849 8.84827 64.398 9.47612C62.7111 10.104 61.6476 10.1774 59.8501 10.252C58.0526 10.3255 42.4984 10.1063 42.1361 10.6584C41.7738 11.2104 42.7596 12.2564 42.9066 12.2517C43.0537 12.247 59.7407 14.0926 59.7407 14.0926L66.746 12.6888L71.1104 7.59257L69.4235 4.34197L69.387 4.00909L69.3859 4.01028Z" fill="#CED5E0"/>
        <path d="M31.6937 11.6378L31.1055 10.7363L31.369 10.4271C31.369 10.4271 46.222 2.98296 48.6018 2.2793C48.6018 2.2793 49.05 3.09669 48.4618 3.64635C47.8736 4.19601 40.4001 9.66423 39.6166 11.4127C38.8331 13.16 31.6948 11.6378 31.6948 11.6378H31.6937Z" fill="#CED5E0"/>
        <path d="M48.453 2.67983C48.453 2.67983 48.3613 1.8269 48.7648 1.66343C49.1695 1.49995 49.8529 1.10547 50.1788 1.10547C50.5047 1.10547 51.7093 2.54834 51.1552 3.26977C50.6023 3.99121 43.3405 9.36939 41.7771 11.8287C40.2137 14.2879 38.9443 12.2516 38.9443 12.2516L39.6937 11.4354C39.6937 11.4354 40.5348 9.52694 44.5098 6.75967C48.4848 3.99239 48.9412 3.33611 48.453 2.68102V2.67983Z" fill="#CED5E0"/>
        <path d="M75.2837 5.00812C75.2837 5.00812 75.5766 1.36896 74.0144 0.942496C72.451 0.516032 70.5299 0.0244141 70.5299 0.0244141C70.5299 0.0244141 70.8558 3.1068 70.1064 4.64799" fill="#CED5E0"/>
        <path d="M70.7972 4.67925C70.7972 4.84273 70.6654 4.97541 70.5031 4.97541C70.3407 4.97541 70.209 4.84273 70.209 4.67925V0.296155C70.209 0.132678 70.3407 0 70.5031 0C70.6654 0 70.7972 0.132678 70.7972 0.296155V4.67925Z" fill="#CED5E0"/>
        <path d="M6.10629 28.113C6.10629 28.113 2.68184 27.837 1.14078 27.0279C-0.400285 26.2176 0.0749743 25.5412 0.409067 25.5412H2.3301C2.3301 25.5412 3.69353 25.1443 3.35826 23.2549C3.02299 21.3654 6.44274 25.1432 6.10629 28.113Z" fill="#CED5E0"/>
        <path d="M0.0356515 21.1647C0.0356515 21.1647 1.57554 21.6445 2.16255 23.3065C2.75074 24.9697 3.81419 27.4503 5.46584 27.9574C7.11748 28.4644 11.3442 28.6338 11.3442 28.6338C11.3442 28.6338 10.2808 14.2856 22.401 14.2856C34.5213 14.2856 32.5909 28.6338 32.5909 28.6338C32.5909 28.6338 82.1931 28.9441 82.2778 28.9726C82.3613 29.001 79.2827 14.6529 92.4394 13.9196C105.596 13.1863 102.964 27.1115 102.964 27.1115L108.088 25.9281C108.088 25.9281 108.591 23.7579 109.208 22.9689C109.824 22.18 110.999 19.5015 110.999 17.8952C110.999 16.2888 111.111 14.4278 109.879 13.5547C109.879 13.5547 109.488 12.0325 109.208 11.7506L109.039 13.6957C109.039 13.6957 107.528 13.9492 106.772 13.2728C106.016 12.5964 104.506 11.6096 104.477 11.3276C104.449 11.0457 108.312 9.24152 108.564 8.93115C108.816 8.62078 108.788 8.02965 108.452 7.97279C108.116 7.91593 107.109 8.42413 105.625 8.42413C104.142 8.42413 98.3754 8.2263 96.0521 7.54988C93.7287 6.87346 81.7484 4.58951 79.3133 4.36444C76.8782 4.13936 70.4398 3.54705 69.0682 3.65959C69.0682 3.65959 67.0248 10.1714 62.7981 10.7069C58.5713 11.2423 45.3593 11.3549 45.3593 11.3549L31.391 10.791L31.3745 10.425C31.3745 10.425 19.6342 10.0862 15.2957 12.0313C15.2957 12.0313 14.4275 12.6509 13.3923 12.8203C12.3571 12.9897 7.73743 15.1883 5.72229 15.9204C3.70714 16.6537 0.907351 17.5268 0.375626 19.19C-0.156099 20.8532 0.0403571 21.1636 0.0403571 21.1636L0.0356515 21.1647Z" fill="#CED5E0"/>
        <path d="M46.2559 7.52128L46.8652 7.25L47.1499 7.25237C47.1499 7.25237 47.6134 8.1432 47.4934 8.93216C47.3734 9.71994 47.2264 10.503 47.2264 10.503H46.6523L46.257 7.52128H46.2559Z" fill="#CED5E0"/>
        <path d="M42.0557 11.2215C42.0557 11.2215 43.0779 10.1376 43.2379 9.77393C43.3991 9.41025 43.1979 8.54074 43.8402 8.15692C44.4825 7.7731 45.466 7.19975 46.8718 7.26371C46.8718 7.26371 47.5941 8.1972 46.9718 10.5013C46.9718 10.5013 45.6872 10.8247 45.246 10.461C45.246 10.461 44.7237 11.3507 44.8449 11.6539C44.9649 11.9572 42.058 11.4561 42.0557 11.2215Z" fill="#CED5E0"/>
        <path d="M89.1392 14.4654C89.1275 14.4488 87.8076 12.7145 86.3241 10.3145C85.2266 8.53872 83.749 8.81947 82.8656 8.98769C82.5421 9.04929 82.3092 9.09431 82.1703 9.02915C81.7974 8.85383 80.8857 7.46427 80.2822 6.54382C80.0846 6.24292 79.9293 6.006 79.8493 5.89701C79.5258 5.46226 79.2694 4.40321 79.2588 4.35938L79.3611 4.36174C79.3635 4.37241 79.6211 5.41724 79.9317 5.83423C80.014 5.9444 80.1705 6.18369 80.3693 6.48577C80.9293 7.33988 81.868 8.77091 82.215 8.9332C82.3233 8.98414 82.5538 8.94031 82.8479 8.88344C83.7573 8.71049 85.2772 8.42026 86.4124 10.2564C87.8934 12.6517 89.2369 14.4144 89.2486 14.431L89.1392 14.463V14.4654Z" fill="#CED5E0"/>
        <path d="M99.2599 15.4095L99.1729 15.3527C100.166 15.1951 104.844 11.8142 104.887 11.7822L104.967 11.8486C104.792 11.9801 100.279 15.2472 99.2611 15.4095H99.2599Z" fill="#CED5E0"/>
        <path d="M14.1547 16.6502C13.9688 16.6502 13.7382 16.5365 13.4547 16.3955C13.2159 16.2771 12.9453 16.1432 12.6454 16.0508C11.9513 15.8352 9.57265 14.4137 9.47266 14.3533L9.58559 14.3047C9.61029 14.3189 11.9925 15.7404 12.6748 15.9513C12.983 16.0473 13.2571 16.1823 13.4994 16.3031C13.7888 16.4465 14.0394 16.5697 14.2029 16.5436C14.5264 16.4891 15.4934 16.5507 15.5322 16.5531L15.4087 16.6585C15.3993 16.6585 14.5311 16.5934 14.2194 16.6455C14.1982 16.6491 14.1758 16.6514 14.1523 16.6514L14.1547 16.6502Z" fill="#CED5E0"/>
        <path d="M78.7667 27.2664C78.7667 27.2664 78.1162 27.2806 76.9762 27.3043C75.8375 27.3209 74.2094 27.3588 72.2566 27.3801C70.3038 27.4003 68.0251 27.4382 65.5842 27.4536C63.1432 27.469 60.5386 27.4856 57.9353 27.5022C55.3308 27.5045 52.7275 27.5057 50.2853 27.5081C47.8443 27.5116 45.5656 27.4891 43.6117 27.482C41.6589 27.4749 40.0308 27.4477 38.892 27.4394C37.7533 27.4228 37.1016 27.4145 37.1016 27.4145C37.1016 27.4145 37.7521 27.4003 38.892 27.3766C40.0308 27.36 41.6589 27.3221 43.6117 27.3008C45.5645 27.2806 47.8431 27.2415 50.2841 27.2285C52.7251 27.2131 55.3296 27.1965 57.933 27.1799C60.5375 27.1776 63.1408 27.1764 65.583 27.174C68.024 27.1716 70.3026 27.193 72.2554 27.2001C74.2082 27.2084 75.8363 27.2332 76.9751 27.2427C78.115 27.2581 78.7655 27.2676 78.7655 27.2676L78.7667 27.2664Z" fill="#CED5E0"/>
        <path d="M48.1321 27.6675C44.523 27.6675 41.5738 27.6332 40.9597 27.5301C39.3563 27.2612 38.8916 25.1538 38.8469 24.9299C38.7751 24.7901 38.3728 23.8507 37.3964 18.9855C36.3306 13.6712 37.7235 11.1989 37.7835 11.0971L37.9611 11.2025C37.947 11.2274 36.5494 13.7186 37.5988 18.9452C38.6387 24.1291 39.0175 24.8138 39.0328 24.841L39.0422 24.8564L39.0469 24.8754C39.0516 24.8979 39.4786 27.0717 40.995 27.3264C41.8914 27.4768 48.9579 27.4662 53.0906 27.446C58.7807 27.4188 64.1015 27.3512 64.3003 27.3252C64.5979 27.2754 66.2284 25.9392 67.5401 22.7087C68.8635 19.4486 71.8456 12.284 71.8762 12.2118L71.8845 12.1964C71.888 12.1905 72.2785 11.5437 71.8739 10.3211C71.4421 9.01449 72.5597 3.99643 72.6079 3.7832L72.8091 3.8294C72.7973 3.88153 71.6551 9.00501 72.0692 10.256C72.4868 11.5188 72.1162 12.213 72.0633 12.3006C71.9527 12.5672 69.0353 19.5754 67.7306 22.7893C66.3672 26.1477 64.6673 27.4768 64.3333 27.5325C64.2568 27.5455 55.001 27.6699 48.1333 27.6699L48.1321 27.6675Z" fill="#CED5E0"/>
        <path d="M25.9996 32.1451C30.2796 30.0736 32.0816 24.9005 30.0246 20.5905C27.9675 16.2806 22.8303 14.4659 18.5504 16.5374C14.2704 18.6088 12.4684 23.782 14.5254 28.0919C16.5825 32.4019 21.7196 34.2165 25.9996 32.1451Z" fill="#CED5E0"/>
        <path d="M15.7988 24.3413C15.7988 27.9532 18.7068 30.8816 22.2948 30.8816C25.8828 30.8816 28.7896 27.9532 28.7896 24.3413C28.7896 20.7294 25.8816 17.7998 22.2948 17.7998C18.708 17.7998 15.7988 20.7282 15.7988 24.3413Z" fill="#CED5E0"/>
        <path d="M20.0404 19.9566L21.5438 21.6766C21.5438 21.6766 21.8026 22.0901 22.1591 22.0901C22.5155 22.0901 22.7731 21.801 22.7731 21.801L24.3448 19.9566C24.3448 19.9566 24.5636 19.6948 24.3448 19.5159C24.126 19.337 23.359 19.0752 22.2943 19.0752C21.2297 19.0752 19.6569 19.3642 20.0404 19.9554V19.9566Z" fill="#CED5E0"/>
        <path d="M20.0409 28.727L21.5443 27.007C21.5443 27.007 21.8043 26.5947 22.1595 26.5947C22.5148 26.5947 22.7748 26.8838 22.7748 26.8838L24.3464 28.7282C24.3464 28.7282 24.5652 28.99 24.3464 29.1689C24.1276 29.3478 23.3606 29.6096 22.296 29.6096C21.2314 29.6096 19.6597 29.3205 20.0421 28.7294L20.0409 28.727Z" fill="#CED5E0"/>
        <path d="M26.7027 22.1555L24.9945 23.6695C24.9945 23.6695 24.584 23.9313 24.584 24.289C24.584 24.6468 24.871 24.9086 24.871 24.9086L26.7027 26.4913C26.7027 26.4913 26.9626 26.7116 27.1403 26.4913C27.3179 26.2709 27.5779 25.4985 27.5779 24.4265C27.5779 23.3544 27.2908 21.7717 26.7027 22.1567V22.1555Z" fill="#CED5E0"/>
        <path d="M17.9936 22.1555L19.7017 23.6695C19.7017 23.6695 20.1111 23.9313 20.1111 24.289C20.1111 24.6468 19.824 24.9086 19.824 24.9086L17.9924 26.4913C17.9924 26.4913 17.7324 26.7116 17.5548 26.4913C17.3772 26.2709 17.1172 25.4985 17.1172 24.4265C17.1172 23.3544 17.4042 21.7717 17.9924 22.1567L17.9936 22.1555Z" fill="#CED5E0"/>
        <path d="M95.692 32.1451C99.972 30.0736 101.774 24.9005 99.7169 20.5905C97.6599 16.2806 92.5227 14.4659 88.2427 16.5374C83.9628 18.6088 82.1607 23.782 84.2178 28.0919C86.2748 32.4019 91.412 34.2165 95.692 32.1451Z" fill="#CED5E0"/>
        <path d="M85.4922 24.3413C85.4922 27.9532 88.4002 30.8816 91.9882 30.8816C95.5761 30.8816 98.483 27.9532 98.483 24.3413C98.483 20.7294 95.575 17.7998 91.9882 17.7998C88.4014 17.7998 85.4922 20.7282 85.4922 24.3413Z" fill="#CED5E0"/>
        <path d="M89.7345 19.9556L91.238 21.6756C91.238 21.6756 91.4979 22.0891 91.8532 22.0891C92.2085 22.0891 92.4684 21.8 92.4684 21.8L94.0401 19.9556C94.0401 19.9556 94.2589 19.6938 94.0401 19.5149C93.8213 19.336 93.0543 19.0742 91.9897 19.0742C90.925 19.0742 89.3522 19.3633 89.7357 19.9544L89.7345 19.9556Z" fill="#CED5E0"/>
        <path d="M89.7345 28.7261L91.238 27.006C91.238 27.006 91.4979 26.5938 91.8532 26.5938C92.2085 26.5938 92.4684 26.8828 92.4684 26.8828L94.0401 28.7273C94.0401 28.7273 94.2589 28.9891 94.0401 29.1679C93.8213 29.3468 93.0543 29.6086 91.9897 29.6086C90.925 29.6086 89.3522 29.3196 89.7357 28.7284L89.7345 28.7261Z" fill="#CED5E0"/>
        <path d="M96.396 22.1546L94.6879 23.6685C94.6879 23.6685 94.2773 23.9303 94.2773 24.2881C94.2773 24.6458 94.5644 24.9076 94.5644 24.9076L96.396 26.4903C96.396 26.4903 96.656 26.7106 96.8336 26.4903C97.0113 26.2699 97.2712 25.4976 97.2712 24.4255C97.2712 23.3534 96.9842 21.7707 96.396 22.1557V22.1546Z" fill="#CED5E0"/>
        <path d="M87.686 22.1546L89.3941 23.6685C89.3941 23.6685 89.8035 23.9303 89.8035 24.2881C89.8035 24.6458 89.5164 24.9076 89.5164 24.9076L87.6848 26.4903C87.6848 26.4903 87.4248 26.7106 87.2472 26.4903C87.0695 26.2699 86.8096 25.4976 86.8096 24.4255C86.8096 23.3534 87.0966 21.7707 87.6836 22.1557L87.686 22.1546Z" fill="#CED5E0"/>
    </g>
    <defs>
        <clipPath id="clip0_1646_6212">
            <rect width="111" height="33" fill="white"/>
        </clipPath>
    </defs>
</svg>
