<svg width="142" height="46" viewBox="0 0 142 46" fill="none" xmlns="http://www.w3.org/2000/svg">
<g id="Isolation_Mode" clip-path="url(#clip0_1646_5918)">
<path id="Vector" d="M3.75488 36.9804L8.34589 39.9143C8.34589 39.9143 9.28399 37.5229 12.8082 38.2338C16.3324 38.9447 30.7157 40.0602 30.7157 40.0602C30.7157 40.0602 35.8972 41.5138 38.2936 39.8307C40.6886 38.1476 93.7943 38.2259 93.7943 38.2259L101.433 40.1477C101.433 40.1477 103.933 39.2776 105.702 39.2113C107.47 39.145 122.643 38.8121 122.643 38.8121L125.314 38.3479L131.626 32.7746L118.949 15.5137L25.9032 18.8892L6.98318 24.2357L3.75488 36.9804Z" fill="#CED5E0"/>
<path id="Vector_2" d="M135.826 34.4513H141.258C141.258 34.4513 141.977 34.4128 141.857 35.7829C141.736 37.153 140.607 36.9713 140.607 36.9713H135.354L135.826 34.4513Z" fill="#CED5E0"/>
<path id="Vector_3" d="M14.4751 17.9728L11.9435 17.6465C11.9435 17.6465 7.70938 18.311 5.32764 20.3562C2.94589 22.4014 1.94542 26.4016 2.08739 26.9733C2.2307 27.5449 9.94916 24.497 10.1389 24.2357C10.33 23.9731 14.4738 17.9728 14.4738 17.9728H14.4751Z" fill="#CED5E0"/>
<path id="Vector_4" d="M37.1127 14.0844C37.1127 14.0844 38.1397 13.5088 38.8801 13.2621C39.6205 13.0154 42.2092 12.6453 42.0447 12.8509C41.8801 13.0565 40.8531 13.5088 41.0575 14.0831C41.2631 14.6587 37.1113 14.0831 37.1113 14.0831L37.1127 14.0844Z" fill="#CED5E0"/>
<path id="Vector_5" d="M39.9482 14.1256C39.9482 14.1256 56.9336 4.60518 62.6883 2.5918L64.8989 2.70454L52.1157 9.73014L44.1 15.0302L39.9482 14.1256Z" fill="#CED5E0"/>
<path id="Vector_6" d="M134.82 13.4968C134.82 13.4968 136.868 12.8774 137.202 14.2594C137.535 15.6401 137.535 16.9744 138.106 18.4029C138.678 19.8314 139.059 20.6882 138.583 21.6882C138.106 22.6883 130.198 20.7359 130.198 20.7359C130.198 20.7359 130.15 13.5923 134.82 13.4968Z" fill="#CED5E0"/>
<path id="Vector_7" d="M35.7649 40.6803C40.2351 40.2811 91.5429 40.167 100.198 40.1511L100.149 37.7451L35.7529 38.8606C35.7556 39.5635 35.7596 40.1683 35.7635 40.6803H35.7649Z" fill="#CED5E0"/>
<path id="Vector_8" d="M139.458 24.012C139.458 23.5451 138.79 20.8115 138.79 20.8115C138.79 20.8115 137.923 20.7797 135.421 20.7121C132.92 20.6458 132.42 18.3472 131.852 17.2464C131.286 16.1455 135.855 14.4491 136.389 13.6493C136.922 12.8495 128.617 12.0896 126.85 11.8893C125.082 11.689 120.014 8.67026 113.342 5.40349C106.672 2.13805 98.233 0 82.1565 0C66.0801 0 61.6589 2.88213 61.6589 2.88213H63.5789C50.8714 8.78433 43.6651 13.7316 43.6651 13.7316C42.3302 14.1321 38.1944 13.6453 38.1944 13.6453C18.883 15.6123 11.9434 17.6482 11.9434 17.6482C11.9434 17.6482 13.7055 18.452 13.3393 18.9852C12.9717 19.5184 7.62439 23.3926 5.95783 24.8595C4.28994 26.3265 2.00107 26.2402 2.00107 26.2402C0.254899 27.0347 -0.058245 28.4459 0.008099 29.3797C0.074443 30.3134 0.775035 34.7805 0.808207 35.3814C0.841379 35.9809 -0.0927438 35.9145 0.208458 37.0154C0.508333 38.1163 3.14352 39.4161 3.14352 39.4161L7.47445 39.8325C7.21305 38.5473 6.47266 34.2699 7.55539 31.5628C8.84246 28.3478 12.1345 21.8288 21.2806 21.8288C28.674 21.8288 35.7502 26.662 35.7502 36.8403C35.7502 37.595 35.7503 38.2635 35.7529 38.8617L100.149 37.7462L100.116 36.1161C100.116 36.1161 102.089 21.614 114.765 22.244C125.649 22.7838 127.602 32.4873 126.311 38.2622C128.694 38.0566 134.599 37.5552 135.421 37.5817C136.455 37.6149 136.889 36.7488 136.889 36.7488C142.66 35.0816 140.657 33.181 140.657 33.181C141.924 30.6477 141.825 28.9804 141.992 26.6129C142.159 24.2454 139.456 24.012 139.456 24.012H139.458Z" fill="#CED5E0"/>
<path id="Vector_9" d="M114.764 22.2426C102.088 21.6126 100.115 36.1148 100.115 36.1148L100.196 40.1508C100.998 40.1495 101.434 40.1481 101.434 40.1481C101.234 37.4477 101.335 23.9668 114.875 23.8183C127.05 23.6843 125.315 38.347 125.315 38.347C125.315 38.347 125.699 38.3125 126.31 38.2608C127.602 32.4859 125.648 22.7824 114.764 22.2426Z" fill="#CED5E0"/>
<path id="Vector_10" d="M21.2802 21.8265C12.1353 21.8265 8.84203 28.3455 7.55496 31.5605C6.47222 34.2676 7.21262 38.545 7.47402 39.8302L8.34578 39.9138C7.01226 32.5128 10.1132 22.044 22.554 23.0773C34.9948 24.1105 35.2284 38.0131 35.2284 39.1471C35.2284 40.2812 35.4951 40.7136 35.4951 40.7136C35.5442 40.7016 35.6357 40.6897 35.7631 40.6791C35.7538 39.7321 35.7485 38.4787 35.7485 36.8367C35.7485 26.6584 28.6722 21.8252 21.2789 21.8252L21.2802 21.8265Z" fill="#CED5E0"/>
<path id="Vector_11" d="M45.8926 15.5124C45.8926 15.5124 62.4786 4.06874 64.8988 3.64829C64.8988 3.64829 75.8349 0.595063 84.7489 1.44259C93.6629 2.29012 110.139 3.64166 110.611 8.80906C111.084 13.9778 110.317 13.0334 110.317 13.0334L45.8926 15.5124Z" fill="#CED5E0"/>
<path id="Vector_12" d="M80.2602 1.9375L77.7803 14.4289L83.0944 14.1703L83.9808 1.9375H80.2602Z" fill="#CED5E0"/>
<path id="Vector_13" d="M21.5165 45.9966C27.3134 45.8519 31.8955 41.0372 31.7508 35.2426C31.6061 29.448 26.7894 24.8678 20.9924 25.0125C15.1955 25.1571 10.6134 29.9719 10.7581 35.7664C10.9028 41.561 15.7195 46.1412 21.5165 45.9966Z" fill="#CED5E0"/>
<path id="Vector_14" d="M13.3486 35.505C13.3486 39.8832 16.8994 43.4338 21.2807 43.4338C25.6621 43.4338 29.2115 39.8846 29.2115 35.505C29.2115 31.1254 25.6607 27.5762 21.2807 27.5762C16.9007 27.5762 13.3486 31.1254 13.3486 35.505Z" fill="#CED5E0"/>
<g id="Group">
<path id="Vector_15" d="M18.5287 30.1884L20.3638 32.2734C20.3638 32.2734 20.6809 32.7735 21.1148 32.7735C21.5487 32.7735 21.8658 32.4233 21.8658 32.4233L23.7858 30.1884C23.7858 30.1884 24.0525 29.8714 23.7858 29.6553C23.5191 29.4377 22.5823 29.1221 21.282 29.1221C19.9816 29.1221 18.0616 29.4722 18.5287 30.1898V30.1884Z" fill="#CED5E0"/>
<path id="Vector_16" d="M18.5271 40.8204L20.3622 38.7354C20.3622 38.7354 20.6793 38.2354 21.1132 38.2354C21.5471 38.2354 21.8642 38.5855 21.8642 38.5855L23.7829 40.8204C23.7829 40.8204 24.0509 41.1374 23.7829 41.3536C23.5162 41.5711 22.5794 41.8881 21.2791 41.8881C19.9787 41.8881 18.0587 41.5379 18.5271 40.8204Z" fill="#CED5E0"/>
<path id="Vector_17" d="M26.6632 32.8532L24.5774 34.6876C24.5774 34.6876 24.0771 35.0046 24.0771 35.4383C24.0771 35.872 24.4274 36.189 24.4274 36.189L26.6632 38.1069C26.6632 38.1069 26.9804 38.3735 27.1966 38.1069C27.4129 37.8403 27.7314 36.9039 27.7314 35.6041C27.7314 34.3043 27.3811 32.3851 26.6632 32.8532Z" fill="#CED5E0"/>
<path id="Vector_18" d="M16.0271 32.8532L18.113 34.6876C18.113 34.6876 18.6132 35.0046 18.6132 35.4383C18.6132 35.872 18.2629 36.189 18.2629 36.189L16.0271 38.1069C16.0271 38.1069 15.71 38.3735 15.4924 38.1069C15.2761 37.8403 14.959 36.9039 14.959 35.6041C14.959 34.3043 15.3093 32.3851 16.0271 32.8532Z" fill="#CED5E0"/>
</g>
<g id="Group_2">
<path id="Vector_19" d="M124.11 35.5051C124.11 41.3012 119.408 46.0004 113.61 46.0004C107.811 46.0004 103.11 41.3012 103.11 35.5051C103.11 29.709 107.811 25.0098 113.61 25.0098C119.408 25.0098 124.11 29.709 124.11 35.5051Z" fill="#CED5E0"/>
<path id="Vector_20" d="M105.703 35.505C105.703 39.8832 109.254 43.4338 113.635 43.4338C118.017 43.4338 121.566 39.8846 121.566 35.505C121.566 31.1254 118.015 27.5762 113.635 27.5762C109.255 27.5762 105.703 31.1254 105.703 35.505Z" fill="#CED5E0"/>
<g id="Group_3">
<path id="Vector_21" d="M110.882 30.1894L112.717 32.2744C112.717 32.2744 113.034 32.7745 113.468 32.7745C113.902 32.7745 114.219 32.4243 114.219 32.4243L116.137 30.1894C116.137 30.1894 116.404 29.8724 116.137 29.6562C115.871 29.4387 114.934 29.123 113.634 29.123C112.333 29.123 110.413 29.4732 110.882 30.1907V30.1894Z" fill="#CED5E0"/>
<path id="Vector_22" d="M110.882 40.8214L112.717 38.7364C112.717 38.7364 113.034 38.2363 113.468 38.2363C113.902 38.2363 114.219 38.5865 114.219 38.5865L116.137 40.8214C116.137 40.8214 116.405 41.1384 116.137 41.3545C115.871 41.5721 114.934 41.8891 113.634 41.8891C112.333 41.8891 110.413 41.5389 110.882 40.8214Z" fill="#CED5E0"/>
<path id="Vector_23" d="M119.017 32.8542L116.931 34.6885C116.931 34.6885 116.43 35.0055 116.43 35.4393C116.43 35.873 116.78 36.19 116.78 36.19L119.016 38.1078C119.016 38.1078 119.333 38.3744 119.549 38.1078C119.767 37.8413 120.084 36.9049 120.084 35.605C120.084 34.3052 119.734 32.386 119.016 32.8542H119.017Z" fill="#CED5E0"/>
<path id="Vector_24" d="M108.382 32.8542L110.468 34.6885C110.468 34.6885 110.968 35.0055 110.968 35.4393C110.968 35.873 110.618 36.19 110.618 36.19L108.382 38.1078C108.382 38.1078 108.065 38.3744 107.847 38.1078C107.631 37.8413 107.312 36.9049 107.312 35.605C107.312 34.3052 107.663 32.386 108.381 32.8542H108.382Z" fill="#CED5E0"/>
</g>
</g>
<path id="Vector_25" d="M104.71 4.14647C104.71 4.14647 96.0764 0.957959 82.1919 1.33464C82.1919 1.33464 70.5207 1.25506 64.9903 3.17427C64.9903 3.17427 56.4438 6.38665 44.417 15.9853H46.3065L46.946 15.9204L111.608 13.3579C111.578 12.7584 111.695 11.6363 111.517 10.3192C111.152 7.61219 110.205 5.49138 104.71 4.14514V4.14647ZM109.686 12.7929L80.4935 13.8818L46.6515 15.4217C49.9209 13.1443 62.1693 5.0192 65.8156 3.65838C70.0682 2.07208 83.0557 1.97659 84.4569 2.04688C85.8581 2.11718 100.667 2.53763 107.312 5.97018C107.312 5.97018 111.618 7.07237 109.685 12.7929H109.686Z" fill="#CED5E0"/>
<path id="Vector_26" d="M42.3022 36.981L42.2929 36.8723C42.2823 36.7516 41.2009 24.7933 41.9373 21.1472C42.6552 17.594 43.1634 16.7226 45.5637 14.9347L45.6844 14.8445C55.4038 7.6027 62.6963 3.32526 66.7738 2.47641C70.4294 1.71376 77.1899 1.20312 83.5974 1.20312C88.3675 1.20312 95.1306 1.47502 100.254 2.77483C109.846 5.20601 111.041 6.65702 111.484 9.38529C111.908 11.9955 111.819 20.8952 111.076 22.5518L111.052 22.6049L110.995 22.6182C110.897 22.6407 101.237 24.9777 100.343 36.2423L100.335 36.3497L42.3035 36.9824L42.3022 36.981ZM83.5974 1.43789C77.2044 1.43789 70.4626 1.9472 66.8216 2.70719C62.8357 3.53748 55.3799 7.91571 45.8251 15.0342L45.703 15.1244C43.365 16.8658 42.8701 17.716 42.1669 21.1937C41.4742 24.6222 42.4097 35.5314 42.5158 36.7423L100.114 36.1136C101.035 25.2284 110.057 22.6168 110.881 22.4006C111.571 20.6817 111.654 11.9159 111.25 9.41978C110.824 6.79761 109.651 5.39833 100.194 3.00031C95.0948 1.70713 88.3529 1.43656 83.596 1.43656L83.5974 1.43789Z" fill="#CED5E0"/>
<path id="Vector_27" d="M12.8081 25.5205L6.85974 25.5484C6.85974 25.5484 6.61559 26.6983 8.03535 26.7872C9.45512 26.876 11.3446 26.9105 11.3446 26.9105C11.3446 26.9105 12.2084 25.9542 12.8068 25.5205H12.8081Z" fill="#CED5E0"/>
<path id="Vector_28" d="M102.182 27.3911C102.19 27.8023 89.1017 28.0383 72.9563 28.3434C56.8108 28.6485 43.7225 28.9097 43.7158 28.4986C43.7079 28.0874 56.8426 27.6511 72.9881 27.346C89.1336 27.0396 102.175 26.9799 102.183 27.3924L102.182 27.3911Z" fill="#CED5E0"/>
<path id="Vector_29" d="M79.3649 36.4738C78.3923 29.4111 80.3959 13.7086 80.4158 13.5508L81.9576 1.30469L82.1925 1.33387L80.6506 13.5799C80.6307 13.7378 78.6311 29.4084 79.5984 36.4407L79.3649 36.4725V36.4738Z" fill="#CED5E0"/>
<path id="Vector_30" d="M69.9415 18.6258C69.9415 18.6258 69.8805 17.712 71.4648 17.3101C73.0491 16.9082 73.5002 16.8711 74.023 16.8711C74.5458 16.8711 77.8484 17.0899 77.8723 18.3075C77.8962 19.5251 75.4242 19.927 74.4609 19.9999C73.4989 20.0729 69.8792 20.183 69.9402 18.6232L69.9415 18.6258Z" fill="#CED5E0"/>
<path id="Vector_31" d="M101.12 17.9178C101.12 17.9178 101.059 17.004 102.643 16.6021C104.226 16.2002 104.677 16.1631 105.201 16.1631C105.725 16.1631 109.027 16.3819 109.052 17.5995C109.076 18.8171 106.603 19.219 105.641 19.2919C104.679 19.3649 101.059 19.4749 101.12 17.9152V17.9178Z" fill="#CED5E0"/>
<path id="Vector_32" d="M76.5411 18.2237C76.5478 18.5168 76.3156 18.7609 76.0223 18.7675L71.6542 18.8696C71.361 18.8763 71.1168 18.6441 71.1102 18.351L71.1076 18.233C71.1009 17.9399 71.3331 17.6971 71.6264 17.6892L75.9945 17.5871C76.2877 17.5804 76.5318 17.8125 76.5385 18.1056L76.5411 18.2237Z" fill="#CED5E0"/>
<path id="Vector_33" d="M107.719 17.5157C107.726 17.8088 107.493 18.0529 107.2 18.0595L102.832 18.1616C102.539 18.1682 102.296 17.9361 102.288 17.643L102.285 17.525C102.279 17.2319 102.511 16.9891 102.804 16.9812L107.172 16.879C107.465 16.8724 107.71 17.1045 107.716 17.3976L107.719 17.5157Z" fill="#CED5E0"/>
</g>
<defs>
<clipPath id="clip0_1646_5918">
<rect width="142" height="46" fill="white"/>
</clipPath>
</defs>
</svg>
