<svg width="111" height="36" viewBox="0 0 111 36" fill="none" xmlns="http://www.w3.org/2000/svg">
    <g clip-path="url(#clip0_1646_6516)">
        <path d="M108.332 18.4022C108.79 20.2025 109.667 21.5332 110.294 21.3754C110.92 21.2176 111.057 19.6306 110.599 17.8316C110.142 16.0325 109.264 14.7006 108.638 14.8584C108.011 15.0162 107.874 16.6032 108.332 18.4022Z" fill="#CED5E0"/>
        <path d="M82.8578 7.96862C82.2123 9.04805 82.5673 10.4444 83.6516 11.087C84.7359 11.7296 86.1385 11.3761 86.784 10.2967L87.9533 8.34232C88.5988 7.26289 88.2437 5.86657 87.1594 5.22396C86.0751 4.58135 84.6725 4.93485 84.027 6.01428L82.8578 7.96862Z" fill="#CED5E0"/>
        <path d="M62.7777 9.22155C62.1322 10.301 62.4873 11.6973 63.5716 12.3399C64.6559 12.9825 66.0585 12.629 66.704 11.5496L67.8732 9.59525C68.5187 8.51582 68.1636 7.1195 67.0793 6.47689C65.9951 5.83428 64.5924 6.18778 63.9469 7.26721L62.7777 9.22155Z" fill="#CED5E0"/>
        <path d="M1.08454 29.4642C1.45104 29.3455 1.39905 28.2963 1.36988 26.6816C0.243736 27.1273 -0.538734 20.0624 0.455521 17.728C2.21449 13.6009 17.7243 9.12917 34.1003 9.12917C41.0347 5.07404 48.7998 1.19566 54.8605 0.00512634C55.1978 -0.0605233 57.1723 0.500024 54.3938 1.938C49.5011 4.47057 39.2644 9.12538 47.5963 9.12538C77.027 9.12538 83.2144 9.00418 83.9449 7.54979C86.9873 2.70308 96.5646 8.59261 100.983 10.254C106.636 12.3814 110.159 13.3042 109.4 16.2572C108.797 18.6004 109.459 19.6319 110.567 19.9992C111.807 20.4108 110.256 29.5967 107.562 30.3024C105.57 30.8251 102.224 31.3756 99.2252 31.6382C94.5431 32.0472 48.4092 31.9639 33.4726 31.5132C21.0368 31.1382 -5.07121 31.4639 1.08454 29.4642Z" fill="#CED5E0"/>
        <path d="M1.08472 29.4641C1.27495 29.4022 1.3523 29.0841 1.37767 28.5715C7.5537 29.2356 23.8688 29.1447 32.9921 29.4136C48.2699 29.8643 95.4627 29.9476 100.253 29.5386C103.322 29.2772 106.743 28.7255 108.781 28.2041C109.118 28.117 109.438 27.9011 109.737 27.5918C109.164 28.9856 108.422 30.0789 107.562 30.3036C105.57 30.8263 102.225 31.3768 99.2254 31.6394C94.5432 32.0484 48.4094 31.9651 33.4728 31.5144C21.037 31.1394 -5.07102 31.4651 1.08472 29.4653V29.4641Z" fill="#CED5E0"/>
        <path d="M1.37047 21.5926C1.40091 23.2073 1.45164 24.2552 1.08513 24.3751C0.722434 24.4925 0.481473 24.6024 0.333096 24.7046C-0.0143853 22.9321 -0.128519 20.378 0.184721 18.7002C0.420603 20.4475 0.858128 21.7946 1.3692 21.5926H1.37047Z" fill="#CED5E0"/>
        <path d="M91.6882 16.1321C85.7912 16.1321 81.0114 20.8905 81.0114 26.7611C81.0114 27.0931 80.9442 29.3189 80.8744 31.9663C89.7301 31.9436 96.8307 31.8464 99.225 31.6368C100.359 31.5371 101.424 31.4285 102.417 31.3048C102.394 29.0373 102.365 27.1815 102.365 26.7598C102.365 20.8892 97.5852 16.1309 91.6882 16.1309V16.1321Z" fill="#CED5E0"/>
        <path d="M26.4386 16.1318C20.5415 16.1318 15.7618 20.8902 15.7618 26.7608C15.7618 27.0549 15.7389 29.061 15.6781 31.3045C21.3405 31.4737 27.7968 31.3411 33.4732 31.5128C34.4788 31.5431 35.7255 31.5734 37.1699 31.6037C37.1471 29.2024 37.1154 27.2001 37.1154 26.7608C37.1154 20.8902 32.3356 16.1318 26.4386 16.1318Z" fill="#CED5E0"/>
        <path d="M26.3275 35.9997C21.2972 35.9997 17.2194 31.9402 17.2194 26.9325C17.2194 21.9248 21.2972 17.8652 26.3275 17.8652C31.3577 17.8652 35.4355 21.9248 35.4355 26.9325C35.4355 31.9402 31.3577 35.9997 26.3275 35.9997Z" fill="#CED5E0"/>
        <path d="M30.2788 29.5504C28.3892 31.4315 28.6441 28.1276 26.7545 26.2465C24.8649 24.3653 21.5461 24.6191 23.4357 22.738C25.3253 20.8569 28.3892 20.8569 30.2801 22.738C32.1697 24.6191 32.1697 27.6693 30.2801 29.5504H30.2788Z" fill="#CED5E0"/>
        <path d="M33.3633 26.932C33.3633 30.8003 30.2131 33.9364 26.3274 33.9364C22.4417 33.9364 19.2916 30.8003 19.2916 26.932C19.2916 23.0638 22.4417 19.9277 26.3274 19.9277C30.2131 19.9277 33.3633 23.0638 33.3633 26.932ZM32.071 29.0568L31.1795 28.9154L31.9125 29.4444C31.9696 29.3169 32.0215 29.1881 32.071 29.0568ZM32.3487 28.0759C32.4198 27.7047 32.4603 27.3234 32.4603 26.932C32.4603 26.5407 32.421 26.1771 32.3525 25.8135L29.3609 26.2882L28.4504 26.9447L29.3596 27.6012L32.3475 28.0746L32.3487 28.0759ZM20.7804 29.5252L21.6263 28.9154L20.5914 29.0795C20.6485 29.231 20.7119 29.38 20.7804 29.5252ZM23.4448 27.6024L24.3541 26.9459L23.4436 26.2894L20.3036 25.792C20.2325 26.1619 20.1932 26.5432 20.1932 26.9333C20.1932 27.3234 20.2351 27.7224 20.3086 28.1011L23.4448 27.6037V27.6024ZM20.5826 24.8098L21.6263 24.9752L20.7715 24.3578C20.703 24.5055 20.6396 24.6558 20.5826 24.8098ZM31.9226 24.4399L31.1807 24.9752L32.0812 24.8325C32.0317 24.7 31.981 24.5687 31.9239 24.4399H31.9226ZM29.8314 21.925L28.0293 24.3982L27.853 25.5029L28.9627 25.3274L31.4306 23.546C31.0045 22.911 30.4604 22.3618 29.8314 21.925ZM28.9462 21.4175C28.8118 21.3544 28.6748 21.295 28.5353 21.2407L28.3831 22.1901L28.9462 21.4175ZM26.3287 20.8266C25.9609 20.8266 25.6033 20.8645 25.2533 20.9264L25.7453 24.0005L26.4048 24.907L27.0642 24.0005L27.5525 20.9491C27.1568 20.8696 26.7472 20.8266 26.3274 20.8266H26.3287ZM24.2654 21.1877C24.1157 21.2407 23.9673 21.2975 23.8228 21.3619L24.4252 22.1889L24.2641 21.1864L24.2654 21.1877ZM21.2763 23.4728L23.8456 25.3274L24.9565 25.5029L24.7802 24.3982L22.9262 21.853C22.2781 22.2835 21.7189 22.834 21.2775 23.4728H21.2763ZM22.9388 32.0186L24.779 29.4924L24.9552 28.3877L23.8456 28.5632L21.2889 30.409C21.7315 31.044 22.2908 31.5906 22.9376 32.0186H22.9388ZM23.838 32.5085C23.9788 32.5703 24.1233 32.6259 24.2692 32.6777L24.4252 31.7005L23.8367 32.5085H23.838ZM26.3287 33.0375C26.7472 33.0375 27.1543 32.9958 27.5487 32.9163L27.0642 29.8913L26.4048 28.9849L25.7453 29.8901L25.2571 32.939C25.6058 33.0009 25.9622 33.0375 26.3287 33.0375ZM28.5315 32.6246C28.6672 32.5729 28.8004 32.5148 28.9323 32.4542L28.3831 31.7005L28.5315 32.6246ZM31.4204 30.3357L28.964 28.5619L27.8543 28.3864L28.0306 29.4924L29.82 31.9492C30.449 31.5149 30.9931 30.9695 31.4204 30.337V30.3357Z" fill="#CED5E0"/>
        <path d="M27.9474 31.7345L28.7159 31.4176L27.6672 29.9784L27.9487 31.7345H27.9474ZM24.8619 31.7345L25.1422 29.9784L24.0934 31.4189L24.8619 31.7358V31.7345ZM27.4275 29.4039L27.1536 27.6907L28.8732 27.9634L27.463 26.9459L28.8732 25.927L27.1536 26.1997L27.4275 24.4865L26.4041 25.8917L25.3819 24.4878L25.6558 26.1997L23.9336 25.927L25.3451 26.9459L23.9336 27.9634L25.6546 27.6907L25.3806 29.4039L26.4028 27.9988L27.4262 29.4039H27.4275ZM30.8985 29.2461L31.2155 28.4811L29.4515 28.202L30.8985 29.2461ZM21.9122 29.2461L23.3579 28.202L21.5938 28.4811L21.9109 29.2449L21.9122 29.2461ZM23.3591 25.6897L21.9122 24.6456L21.5938 25.4094L23.3591 25.6897ZM29.4528 25.6897L31.2168 25.4094L30.8998 24.6456L29.454 25.6897H29.4528ZM27.6672 23.9134L28.7159 22.4741L27.9474 22.1572L27.6672 23.9134ZM25.1435 23.9134L24.8619 22.1572L24.0947 22.4728L25.1435 23.9121V23.9134Z" fill="#CED5E0"/>
        <path d="M26.3276 19.1522C31.0059 19.1522 34.8168 22.8058 35.0628 27.4026C35.0717 27.246 35.0869 27.092 35.0869 26.9329C35.0869 22.1165 31.1657 18.2129 26.3276 18.2129C21.4895 18.2129 17.5683 22.1165 17.5683 26.9329C17.5683 27.092 17.5835 27.246 17.5924 27.4026C17.8384 22.8058 21.6493 19.1522 26.3276 19.1522Z" fill="#CED5E0"/>
        <path d="M26.3272 33.97C22.5417 33.97 19.4575 31.0133 19.2584 27.2939C19.252 27.4202 19.2393 27.5464 19.2393 27.674C19.2393 31.5713 22.4123 34.73 26.3272 34.73C30.2421 34.73 33.415 31.5713 33.415 27.674C33.415 27.5452 33.4024 27.4202 33.396 27.2939C33.1969 31.0133 30.1127 33.97 26.3272 33.97Z" fill="#CED5E0"/>
        <path d="M101.188 26.9325C101.188 31.9408 97.11 35.9997 92.0804 35.9997C87.0508 35.9997 82.9723 31.9408 82.9723 26.9325C82.9723 21.9242 87.0495 17.8652 92.0804 17.8652C97.1113 17.8652 101.188 21.9254 101.188 26.9325Z" fill="#CED5E0"/>
        <path d="M96.0317 29.5504C94.1421 31.4315 94.3971 28.1276 92.5075 26.2465C90.6179 24.3653 87.299 24.6191 89.1886 22.738C91.0782 20.8569 94.1421 20.8569 96.033 22.738C97.9226 24.6191 97.9226 27.6693 96.033 29.5504H96.0317Z" fill="#CED5E0"/>
        <path d="M99.1162 26.932C99.1162 30.8003 95.9661 33.9364 92.0803 33.9364C88.1946 33.9364 85.0445 30.8003 85.0445 26.932C85.0445 23.0638 88.1946 19.9277 92.0803 19.9277C95.9661 19.9277 99.1162 23.0638 99.1162 26.932ZM97.8239 29.0568L96.9324 28.9154L97.6654 29.4444C97.7225 29.3169 97.7745 29.1881 97.8239 29.0568ZM98.1017 28.0759C98.1727 27.7047 98.2133 27.3234 98.2133 26.932C98.2133 26.5407 98.174 26.1771 98.1055 25.8135L95.1138 26.2882L94.2033 26.9447L95.1126 27.6012L98.1004 28.0746L98.1017 28.0759ZM86.5333 29.5252L87.3792 28.9154L86.3444 29.0795C86.4014 29.231 86.4648 29.38 86.5333 29.5252ZM89.1978 27.6024L90.1071 26.9459L89.1965 26.2894L86.0565 25.792C85.9855 26.1619 85.9462 26.5432 85.9462 26.9333C85.9462 27.3234 85.988 27.7224 86.0616 28.1011L89.1978 27.6037V27.6024ZM86.3355 24.8098L87.3792 24.9752L86.5245 24.3578C86.456 24.5055 86.3926 24.6558 86.3355 24.8098ZM97.6756 24.4399L96.9337 24.9752L97.8341 24.8325C97.7846 24.7 97.7339 24.5687 97.6756 24.4399ZM95.5843 21.925L93.7822 24.3982L93.606 25.5029L94.7156 25.3274L97.1835 23.546C96.7574 22.911 96.2133 22.3618 95.5843 21.925ZM94.6991 21.4175C94.5647 21.3544 94.4277 21.295 94.2882 21.2407L94.1361 22.1901L94.6991 21.4175ZM92.0816 20.8266C91.7138 20.8266 91.3562 20.8645 91.0062 20.9264L91.4983 24.0005L92.1577 24.907L92.8172 24.0005L93.3054 20.9491C92.9097 20.8696 92.5001 20.8266 92.0803 20.8266H92.0816ZM90.0183 21.1877C89.8686 21.2407 89.7203 21.2975 89.5757 21.3619L90.1781 22.1889L90.0183 21.1864V21.1877ZM87.0292 23.4728L89.5985 25.3274L90.7094 25.5029L90.5332 24.3982L88.6791 21.853C88.031 22.2835 87.4718 22.834 87.0305 23.4728H87.0292ZM88.6918 32.0186L90.5319 29.4924L90.7082 28.3877L89.5985 28.5632L87.0419 30.409C87.4845 31.044 88.0437 31.5906 88.6905 32.0186H88.6918ZM89.5909 32.5085C89.7317 32.5703 89.8762 32.6259 90.0234 32.6777L90.1793 31.7005L89.5909 32.5085ZM92.0816 33.0375C92.5001 33.0375 92.9072 32.9958 93.3016 32.9163L92.8172 29.8913L92.1577 28.9849L91.4983 29.8901L91.01 32.939C91.3588 33.0009 91.7151 33.0375 92.0816 33.0375ZM94.2844 32.6246C94.4201 32.5729 94.5533 32.5148 94.6852 32.4542L94.1361 31.7005L94.2844 32.6246ZM97.1734 30.3357L94.7169 28.5619L93.6072 28.3864L93.7835 29.4924L95.5729 31.9492C96.2019 31.5149 96.746 30.9695 97.1734 30.337V30.3357Z" fill="#CED5E0"/>
        <path d="M93.7004 31.7345L94.4689 31.4176L93.4201 29.9784L93.7016 31.7345H93.7004ZM90.6149 31.7345L90.8951 29.9784L89.8464 31.4189L90.6149 31.7358V31.7345ZM93.1804 29.4039L92.9065 27.6907L94.6261 27.9634L93.2159 26.9459L94.6261 25.927L92.9065 26.1997L93.1804 24.4865L92.157 25.8917L91.1348 24.4878L91.4088 26.1997L89.6866 25.927L91.0981 26.9459L89.6866 27.9634L91.4075 27.6907L91.1336 29.4039L92.1557 27.9988L93.1791 29.4039H93.1804ZM96.6514 29.2461L96.9685 28.4811L95.2044 28.202L96.6514 29.2461ZM87.6651 29.2461L89.1108 28.202L87.3468 28.4811L87.6638 29.2449L87.6651 29.2461ZM89.1121 25.6897L87.6651 24.6456L87.3468 25.4094L89.1121 25.6897ZM95.2057 25.6897L96.9697 25.4094L96.6527 24.6456L95.207 25.6897H95.2057ZM93.4201 23.9134L94.4689 22.4741L93.7004 22.1572L93.4201 23.9134ZM90.8964 23.9134L90.6149 22.1572L89.8476 22.4728L90.8964 23.9121V23.9134Z" fill="#CED5E0"/>
        <path d="M92.0805 19.1522C96.7588 19.1522 100.57 22.8058 100.816 27.4026C100.825 27.246 100.84 27.092 100.84 26.9329C100.84 22.1165 96.9186 18.2129 92.0805 18.2129C87.2424 18.2129 83.3212 22.1165 83.3212 26.9329C83.3212 27.092 83.3364 27.246 83.3453 27.4026C83.5913 22.8058 87.4022 19.1522 92.0805 19.1522Z" fill="#CED5E0"/>
        <path d="M92.0801 33.97C88.2946 33.97 85.2104 31.0133 85.0113 27.2939C85.0049 27.4202 84.9923 27.5464 84.9923 27.674C84.9923 31.5713 88.1652 34.73 92.0801 34.73C95.995 34.73 99.168 31.5713 99.168 27.674C99.168 27.5452 99.1553 27.4202 99.1489 27.2939C98.9498 31.0133 95.8656 33.97 92.0801 33.97Z" fill="#CED5E0"/>
        <path d="M7.83008 26.4457L6.43128 24.0861C6.18652 23.6733 5.69954 23.3274 5.34318 23.3135L1.80115 23.3413C1.22667 23.3413 0.690225 26.4457 1.2292 26.4457H7.83008Z" fill="#CED5E0"/>
        <path d="M12.5791 29.5534L10.7047 27.6357C10.46 27.2229 9.93241 27.0411 9.57478 27.0272L1.8186 26.7734C1.24411 26.7734 1.22382 29.2719 1.7628 29.2719L12.5791 29.5534Z" fill="#CED5E0"/>
        <path d="M54.8167 0.0566406C47.4638 1.72439 40.187 5.54344 34.0261 9.13271L36.6437 9.09609C44.9934 2.94396 55.6271 0.634863 54.8167 0.0566406Z" fill="#CED5E0"/>
        <path d="M64.7979 30.2005H41.764C39.3126 30.2005 39.2898 27.0582 39.2581 22.7089C39.2492 21.5651 39.2403 20.3821 39.1883 19.136C38.9347 13.0698 38.9435 11.9777 40.7583 8.94141L40.8661 9.00579C39.0704 12.0105 39.0602 13.0963 39.3139 19.131C39.3658 20.3783 39.3747 21.5626 39.3836 22.7076C39.4153 26.985 39.4381 30.0755 41.764 30.0755H64.7979C67.4548 30.0755 69.929 28.0354 72.1521 24.0105C74.0823 20.5172 75.1869 16.6338 75.4798 15.5266C76.0404 13.4068 75.8996 11.7858 75.0651 10.7064C74.3106 9.73299 72.9815 9.21915 71.2187 9.21915V9.09417C73.0221 9.09417 74.3866 9.62568 75.1653 10.6306C76.0264 11.7416 76.1735 13.4005 75.6028 15.5594C75.3086 16.6704 74.2002 20.5652 72.2637 24.0724C70.0165 28.1401 67.5055 30.2018 64.7992 30.2018L64.7979 30.2005Z" fill="#CED5E0"/>
        <g opacity="0.5">
            <path d="M19.0558 12.6696C50.5891 12.6809 68.6023 12.1608 90.0435 14.7729C93.6426 12.7579 100.68 13.5634 100.68 13.5634C58.6712 7.02749 19.0558 12.6696 19.0558 12.6696Z" fill="#CED5E0"/>
        </g>
        <g opacity="0.5">
            <path d="M27.5887 14.1405C22.9966 13.8236 13.9659 16.0936 11.0047 25.1583L15.6361 24.2607C18.6848 16.1302 24.0264 15.8057 27.4289 16.0406C32.7844 16.4092 36.4355 20.7724 37.1267 25.1128C37.5465 19.7043 32.9442 14.5092 27.5887 14.1393V14.1405Z" fill="#CED5E0"/>
        </g>
        <g opacity="0.5">
            <path d="M37.8197 25.482L83.2637 17.7139L72.2597 21.2526L37.8197 25.482Z" fill="#CED5E0"/>
        </g>
        <g opacity="0.5">
            <path d="M8.47672 26.3443L15.6787 24.9277L15.4441 27.0222L8.47672 26.3443Z" fill="#CED5E0"/>
        </g>
        <g opacity="0.5">
            <path d="M1.0846 29.4639L15.6826 29.8464L11.9935 30.763L0.298324 29.8123L1.0846 29.4639Z" fill="#CED5E0"/>
        </g>
        <path d="M71.9559 14.4076C70.1306 14.4076 68.651 14.1109 68.651 13.7448C68.651 13.3788 70.1306 13.082 71.9559 13.082C73.7811 13.082 75.2607 13.3788 75.2607 13.7448C75.2607 14.1109 73.7811 14.4076 71.9559 14.4076Z" fill="#CED5E0"/>
        <path d="M74.8633 13.602C74.8633 13.8457 73.5609 14.0439 71.9553 14.0439C70.3498 14.0439 69.0474 13.8457 69.0474 13.602C69.0474 13.3584 70.3498 13.1602 71.9553 13.1602C73.5609 13.1602 74.8633 13.3584 74.8633 13.602Z" fill="#CED5E0"/>
        <path d="M39.1717 10.0017C39.4292 11.3008 42.171 11.8563 43.4683 11.6013C44.7657 11.3475 45.6077 10.0875 45.3516 8.7897C45.0941 7.49059 43.8348 6.64472 42.5387 6.89848C41.2414 7.15351 38.9156 8.70259 39.173 10.0017H39.1717Z" fill="#CED5E0"/>
        <g opacity="0.5">
            <path d="M44.6198 7.94783C44.3675 8.57655 43.8145 9.07019 43.1005 9.21032C42.2927 9.3694 40.8394 9.16235 40.0024 8.61569C40.6174 7.86956 41.7575 7.22442 42.5058 7.07797C43.3453 6.91385 44.1658 7.28123 44.6211 7.94783H44.6198Z" fill="#CED5E0"/>
        </g>
        <g opacity="0.5">
            <path d="M55.2018 1.45579C54.9862 1.26641 54.5994 1.1894 54.4713 1.21339C48.9953 2.23475 43.57 5.77478 36.8461 9.48903C12.0177 11.7906 4.74215 15.4177 2.03839 19.5448C1.28889 20.6886 1.15574 23.5974 0.458241 25.2702C0.15007 23.5355 -0.338181 20.2846 0.512772 17.8025C1.84182 13.9254 16.8216 9.24663 34.1018 9.12922C41.0349 5.07409 48.8 1.19571 54.8606 0.00518186C55.1574 -0.0528928 56.716 0.37383 55.2018 1.45452V1.45579Z" fill="#CED5E0"/>
            <path d="M110.06 21.0651C108.831 20.6548 107.901 19.5438 107.941 17.0844C107.991 14.062 104.295 13.1025 98.3296 10.9538C93.7667 9.30999 89.5665 6.78121 83.9446 8.88453C79.0824 10.3528 75.1675 9.68369 47.5111 9.4779C45.3843 9.46149 44.5841 9.12693 44.6272 8.60552C44.9874 8.9325 45.9043 9.12693 47.5973 9.12693C77.028 9.12693 83.2154 9.00573 83.9459 7.55134C86.9882 2.70462 96.5655 8.59415 100.984 10.2556C106.636 12.3816 110.159 13.3045 109.4 16.2575C108.797 18.6007 109.459 19.6321 110.566 19.9995C110.991 20.1409 111.081 21.3188 110.918 22.825C110.688 21.8516 110.389 21.1736 110.06 21.0638V21.0651Z" fill="#CED5E0"/>
        </g>
        <path d="M1.43302 20.0656C0.793855 21.0087 1.06778 21.8041 2.07218 21.8041H7.83859C8.84299 21.8041 9.98435 21.0075 10.3699 20.0656L10.7592 19.1137C11.1118 18.2527 10.6514 17.5811 9.74467 17.5811H4.76072C3.85397 17.5811 2.66315 18.2527 2.07852 19.1137L1.43302 20.0656Z" fill="#CED5E0"/>
        <path d="M8.12389 21.5797C8.9685 21.5797 9.96276 20.8942 10.2938 20.0824L10.6831 19.1305C10.8036 18.8376 10.8036 18.5788 10.6831 18.4007C10.5651 18.2265 10.3331 18.1318 10.0287 18.1318H5.04476C4.25341 18.1318 3.19448 18.7429 2.68468 19.4941L2.03917 20.446C1.73988 20.8866 1.72213 21.2085 1.80456 21.3626C1.90474 21.5519 2.19262 21.5797 2.35621 21.5797H8.12389Z" fill="#CED5E0"/>
        <path d="M7.23213 28.2319C6.86056 27.7875 6.92016 27.4277 7.36656 27.4277H8.85794C9.30434 27.4277 9.9676 27.7875 10.3392 28.2319C10.7108 28.6763 10.6511 29.0362 10.2047 29.0362H8.71337C8.26697 29.0362 7.60371 28.6763 7.23213 28.2319Z" fill="#CED5E0"/>
        <path d="M1.76508 21.2085C1.75113 21.0318 1.81707 20.7717 2.039 20.446L2.68451 19.4941C3.19432 18.7429 4.25325 18.1318 5.04459 18.1318H10.0285C10.3329 18.1318 10.5662 18.2278 10.6829 18.4007C10.7907 18.5611 10.7869 18.7921 10.7007 19.0497C7.38438 18.6684 3.94635 18.8376 1.76508 21.2098V21.2085Z" fill="#CED5E0"/>
        <path d="M9.95508 20.6289C9.49727 21.1781 8.76806 21.5783 8.12383 21.5783H4.53361C6.3116 21.0885 8.11875 20.7791 9.95508 20.6289Z" fill="#CED5E0"/>
    </g>
    <defs>
        <clipPath id="clip0_1646_6516">
            <rect width="111" height="36" fill="white" transform="matrix(-1 0 0 1 111 0)"/>
        </clipPath>
    </defs>
</svg>
