<svg width="116" height="48" viewBox="0 0 116 48" fill="none" xmlns="http://www.w3.org/2000/svg">
    <g clip-path="url(#clip0_1646_6245)">
        <path d="M5.74636 39.4332C5.74636 39.4332 8.45933 41.4991 8.62666 41.3797C8.794 41.2603 8.49927 40.5449 8.62666 40.4179C8.75405 40.2919 10.5181 39.8544 10.5181 39.8544L28.5642 40.9368C28.5642 40.9368 31.1876 41.1789 31.6809 40.9574C32.1743 40.7349 83.6245 39.2432 83.6245 39.2432L84.2064 39.875C84.2064 39.875 85.7092 39.3985 86.6311 40.5905C87.5531 41.7836 108.721 39.2769 109.169 39.875C109.616 40.4732 107.979 23.1379 107.979 23.1379L64.8162 25.4514L14.926 22.9512C14.926 22.9512 3.98126 31.1542 5.74636 39.4332Z" fill="#CED5E0"/>
        <path d="M50.5508 2.46637C50.5508 2.46637 52.6797 0.726106 55.262 0.485096C57.8444 0.244087 91.4385 -0.504997 99.2373 0.538292C107.037 1.58267 76.8502 9.53273 76.8502 9.53273L50.5508 2.46637Z" fill="#CED5E0"/>
        <path d="M28.084 16.1198C28.084 16.1198 46.7984 3.29742 48.1824 3.08355C49.5664 2.86968 50.2584 4.10078 50.2584 4.10078L29.1225 17.8329L28.084 16.1198Z" fill="#CED5E0"/>
        <path d="M31.0703 16.1151C31.0703 16.1151 41.8153 7.57014 48.6619 3.22762L47.0469 3.58045C47.0469 3.58045 49.7501 0.296426 70.818 0.967344C91.8858 1.63826 100.839 1.17904 106.212 1.77939C106.212 1.77939 107.049 1.62089 107.125 3.54463C107.125 3.54463 104.983 4.56838 105.053 5.13399C105.124 5.69851 95.1872 14.9502 95.1872 14.9502L53.3332 17.3158L31.0714 16.1151H31.0703Z" fill="#CED5E0"/>
        <path d="M113.437 32.0378L113.711 26.626C113.711 26.626 115.156 26.8518 115.355 27.8788C115.554 28.9058 116.701 34.3709 115.355 34.994C114.01 35.6182 115.281 37.2988 115.281 37.2988L113.513 39.4538C113.513 39.4538 111.619 33.1647 113.438 32.0378H113.437Z" fill="#CED5E0"/>
        <path d="M2.53084 27.4824C2.53084 27.4824 1.01512 27.6789 0.770055 29.8437C0.526072 32.0073 0.232429 36.2369 1.11228 38.647C1.99213 41.0571 2.72624 39.1193 2.72624 39.1193L2.53084 27.4835V27.4824Z" fill="#CED5E0"/>
        <path d="M1.04177 35.8155C1.12273 37.1139 1.05364 38.1757 0.886309 38.1865C0.720055 38.1974 0.518175 37.153 0.437207 35.8535C0.356239 34.5551 0.425332 33.4934 0.591586 33.4825C0.758919 33.4716 0.95972 34.516 1.04069 35.8155H1.04177Z" fill="#CED5E0"/>
        <path d="M110.212 12.7661C110.212 12.7661 111.017 12.3959 111.154 12.7661C111.292 13.1363 110.74 13.5434 110.457 13.5814C110.174 13.6183 110.211 12.7661 110.211 12.7661H110.212Z" fill="#CED5E0"/>
        <path d="M107.176 3.11669C107.176 3.11669 105.303 2.53696 104.751 5.4345C104.199 8.33205 104.343 15.7925 104.343 15.7925L108.209 21.5387L112.051 22.7036C112.051 22.7036 111.642 22.0696 111.474 20.3076C111.474 20.3076 111.258 20.0178 111.258 19.438C111.258 18.8583 110.369 14.1499 110.777 14.0294C110.777 14.0294 109.601 8.11384 107.176 3.1156V3.11669Z" fill="#CED5E0"/>
        <path d="M6.8408 19.4511C6.8408 19.4511 5.18905 20.311 5.01632 20.6584C4.84467 21.0047 3.48009 23.2443 3.79101 25.5046C4.10192 27.7638 7.05131 26.524 7.05131 26.524L10.8536 24.3354L16.5008 18.7162C16.5008 18.7162 8.39646 18.2222 6.8408 19.4522V19.4511Z" fill="#CED5E0"/>
        <path d="M106.743 4.50879L107.811 6.75713C107.811 6.75713 107.265 7.40633 107.464 8.30632C107.662 9.20522 108.806 14.6269 109.129 15.1523C109.451 15.6767 110.296 16.5517 110.32 16.9262C110.345 17.3008 110.618 19.8998 110.618 19.8998C110.618 19.8998 107.165 17.3767 106.743 16.2271C106.321 15.0774 105.45 6.53349 105.748 5.73338C106.046 4.93436 106.743 4.50879 106.743 4.50879Z" fill="#CED5E0"/>
        <path d="M108.153 7.98145C108.153 7.98145 107.861 8.25611 108.035 8.95634C108.208 9.65549 109.127 14.5028 109.451 14.8524C109.774 15.202 109.898 15.5016 109.972 15.3268C110.047 15.152 108.689 8.8912 108.153 7.98145Z" fill="#CED5E0"/>
        <path d="M110.862 17.1987C110.862 17.1987 110.387 14.0753 110.618 13.9516C110.849 13.8278 111.414 15.3097 111.622 17.2356C111.831 19.1615 111.782 20.2851 111.512 20.334C111.242 20.3828 110.996 18.2474 110.861 17.1976L110.862 17.1987Z" fill="#CED5E0"/>
        <path d="M19.061 23.8437C31.9231 23.8437 33.7335 37.7615 33.7335 37.7615L81.32 37.2697C81.32 37.2697 81.9072 23.1392 97.4099 23.1392C108.188 23.1392 111.154 35.2037 111.154 35.2037L113.544 35.0756C113.494 35.0724 113.461 35.0778 113.461 35.0778C113.379 34.9117 113.585 32.7567 113.708 32.3833C113.831 32.0098 113.955 30.1035 113.955 30.1035C113.955 30.1035 114.08 29.3565 113.955 26.8281C113.831 24.2997 112.636 23.6364 112.512 23.4703C112.389 23.3042 111.852 22.3564 111.852 22.3564C111.852 22.3564 109.255 20.2785 107.359 18.7033C105.463 17.128 105.298 15.9675 105.092 14.2261C104.886 12.4848 104.833 5.06234 104.833 5.06234L98.0425 4.7334C98.619 5.43797 95.1978 10.9106 94.4152 12.2373C93.6325 13.5639 91.5295 13.4814 91.5295 13.4814L65.1868 14.3933L35.1747 15.5767C35.1747 15.5767 29.3213 15.9686 27.9189 15.8025C26.5176 15.6364 18.8494 16.798 12.996 17.6263C7.14257 18.4557 5.45196 20.1971 5.45196 20.1971C5.45196 20.1971 4.25579 21.3164 5.82333 20.0723C7.38979 18.8281 13.1612 18.8705 13.8618 18.9117C14.5625 18.953 14.9338 19.4925 14.9338 19.4925C14.068 19.7411 9.36865 23.4312 8.09043 24.2194C6.81222 25.0075 5.65708 25.381 4.66819 25.381C3.6793 25.381 3.76027 24.697 3.76027 24.697C2.68826 26.2495 2.35899 25.5775 1.82244 26.9866C1.28697 28.3958 1.93903 36.7128 1.93903 36.7128L5.76072 36.8539C5.76072 36.8539 6.19902 23.8426 19.061 23.8426V23.8437Z" fill="#CED5E0"/>
        <path d="M114.483 35.1565C114.483 36.4094 114.726 37.4244 115.028 37.4244C115.329 37.4244 115.571 36.4094 115.571 35.1565C115.571 33.9037 115.328 32.8887 115.028 32.8887C114.727 32.8887 114.483 33.9037 114.483 35.1565Z" fill="#CED5E0"/>
        <path d="M41.4355 14.7928L62.8585 14.0144L65.4743 4.02441H51.1452C51.1452 4.02441 41.5823 10.7412 41.0598 11.7215C40.5373 12.7018 41.4355 14.7928 41.4355 14.7928Z" fill="#CED5E0"/>
        <path d="M69.2344 4.12207L67.8418 13.7321L88.5998 13.0915L89.1569 7.63842L87.6584 4.50855L69.2344 4.12207Z" fill="#CED5E0"/>
        <path d="M89.1562 4.50879L92.7091 12.6022C92.7091 12.6022 92.8829 12.9626 93.6851 12.0159C94.4861 11.0703 97.1678 6.23711 97.1678 6.23711C97.1678 6.23711 97.551 5.67693 97.1678 5.18622C96.7845 4.69552 95.5311 4.76717 95.5311 4.76717L89.1573 4.50879H89.1562Z" fill="#CED5E0"/>
        <path d="M26.6387 18.6163C26.6387 18.6163 27.3199 20.3859 29.3937 20.3208C31.4676 20.2556 32.8538 20.0928 32.8538 20.0928C32.8538 20.0928 33.21 18.3894 33.3471 18.168L26.6387 18.6163Z" fill="#CED5E0"/>
        <path d="M33.7732 37.7896C31.8019 31.811 32.7951 20.6735 32.8275 20.3196C32.8167 20.1383 32.7346 17.8292 34.9931 15.3974C37.2742 12.9417 50.6588 3.22749 50.7937 3.12978L50.8196 3.11133H50.852L84.8175 3.53147C85.2461 3.5293 95.3887 3.47176 97.13 3.86041C97.6806 3.98309 98.066 4.24147 98.2744 4.62578C98.6209 5.26413 98.3542 6.01213 98.3434 6.04361L98.1599 5.9763C98.1621 5.96979 98.4071 5.27824 98.1027 4.71914C97.9213 4.38694 97.5802 4.16222 97.0879 4.05257C95.3681 3.66826 84.9233 3.72797 84.8175 3.72797L50.8833 3.30891C50.2129 3.79527 37.3584 13.1425 35.1377 15.532C32.8955 17.9454 33.0229 20.2914 33.025 20.3142V20.3218V20.3294C33.0142 20.4423 31.98 31.7209 33.9599 37.7266L33.7742 37.7885L33.7732 37.7896Z" fill="#CED5E0"/>
        <path d="M33.3382 18.0632L14.9268 19.4033L14.9409 19.5993L33.3523 18.2592L33.3382 18.0632Z" fill="#CED5E0"/>
        <path d="M32.462 18.9248H27.9624C27.9624 18.9248 27.8652 19.6934 28.9081 19.9941C28.9081 19.9941 32.2558 19.9941 32.462 19.7987C32.6671 19.6033 32.462 18.9248 32.462 18.9248Z" fill="#CED5E0"/>
        <path d="M41.1914 10.7147L41.6427 10.3174H42.244C42.244 10.3174 42.6035 10.4791 42.638 12.3334C42.6737 14.1887 42.4308 14.6545 41.9147 14.7457C41.3987 14.8369 41.1914 10.7136 41.1914 10.7136V10.7147Z" fill="#CED5E0"/>
        <path d="M37.8643 13.3873C37.8643 13.3873 38.308 14.8149 39.1597 14.9224C40.0115 15.0299 41.7863 14.8334 42.0346 14.7085C42.2829 14.5837 42.2819 12.0466 42.1404 11.6014C41.999 11.1563 39.7276 11.4961 39.7276 11.4961L38.7873 12.103L38.5746 13.0128C38.5746 13.0128 37.8826 13.0844 37.8643 13.3873Z" fill="#CED5E0"/>
        <path d="M38.7317 12.9447C38.7317 12.9447 38.8041 13.1097 39.0351 12.9447C39.2661 12.7796 39.8977 12.3324 42.2263 12.4398L42.1497 11.7125C42.1497 11.7125 38.2686 11.2359 38.7317 12.9447Z" fill="#CED5E0"/>
        <path d="M38.4502 13.0837C38.4502 13.0837 38.5387 10.6388 40.5618 10.425C42.585 10.2111 41.7332 10.3175 41.7332 10.3175C41.7332 10.3175 42.0344 10.0493 42.1596 11.8341C42.1596 11.8341 39.7997 11.8341 39.356 12.0121C38.9123 12.1902 38.7168 12.4051 38.7352 12.8513C38.7525 13.2975 38.4513 13.0837 38.4513 13.0837H38.4502Z" fill="#CED5E0"/>
        <path d="M63.9288 37.6232C63.7744 37.0543 63.6622 33.7182 63.5888 31.5111C63.5672 30.8804 63.5488 30.3354 63.5348 29.9945C63.4743 28.5984 63.8511 19.3456 64.1231 17.8148C64.3747 16.3981 65.3107 14.0846 65.3798 13.9163L67.3187 3.41504L67.5108 3.45087L65.5687 13.9717L65.5644 13.9815C65.5547 14.0053 64.5722 16.4068 64.3164 17.8496C64.0681 19.25 63.6622 28.3888 63.7313 29.9869C63.7464 30.3278 63.7637 30.8739 63.7852 31.5057C63.8543 33.5695 63.9698 37.025 64.1188 37.5722L63.9299 37.6243L63.9288 37.6232Z" fill="#CED5E0"/>
        <path d="M33.733 37.7605C33.733 37.7605 31.9237 23.8428 19.0606 23.8428C6.19746 23.8428 5.76023 36.854 5.76023 36.854L1.93855 36.7129C1.02307 36.6467 1.20552 37.1938 1.20552 37.3589C1.20552 37.5239 0.958299 37.8148 0.793124 38.0222C0.62795 38.2295 0.29868 37.7736 0.00935501 39.3488C-0.278891 40.9241 5.03908 41.0489 5.03908 41.0489C5.16215 41.2975 5.6987 41.38 5.6987 41.38C8.0079 41.7535 8.62542 41.38 8.62542 41.38C5.45148 36.8616 10.2739 25.1705 19.7968 26.5807C31.955 28.3807 30.9931 40.9588 30.9931 40.9588H84.8076C84.5258 40.0176 84.4697 38.7126 84.6715 37.2698H81.3184L33.7319 37.7616L33.733 37.7605Z" fill="#CED5E0"/>
        <path d="M115.768 38.2289C115.48 37.9391 115.356 36.4463 115.356 36.4463C115.356 36.4463 115.027 37.6904 114.696 37.6481C114.367 37.6068 114.078 36.239 114.01 35.6169C113.959 35.1577 113.684 35.0828 113.543 35.0752L111.153 35.2033C111.153 35.2033 108.188 23.1387 97.4093 23.1387C81.9055 23.1387 81.3193 37.2692 81.3193 37.2692H84.6725C85.3559 32.3817 89.0124 25.9211 96.9699 26.7212C110.384 28.0696 108.39 40.5912 108.39 40.5912C108.39 40.5912 112.595 40.2178 114.367 39.8454C116.14 39.472 116.057 38.5188 115.768 38.2289Z" fill="#CED5E0"/>
        <path d="M83.0958 37.4313L82.9004 37.4171C83.4153 30.4778 88.0543 27.4815 90.8266 25.6913C91.2325 25.4296 91.5823 25.2027 91.8749 24.9932C93.8105 23.6025 93.8311 19.5748 93.8429 17.168C93.8451 16.7793 93.8462 16.4439 93.8548 16.1529C93.9174 14.0739 92.1901 12.9818 92.1728 12.972L92.1469 12.9557L92.135 12.9275L88.0564 3.73659L88.2346 3.65625L92.3013 12.8211C92.5269 12.972 94.1117 14.1087 94.0502 16.1594C94.0416 16.4482 94.0394 16.7826 94.0373 17.1702C94.0243 19.615 94.0049 23.7056 91.9871 25.155C91.6903 25.3677 91.3383 25.5957 90.9302 25.8584C88.1892 27.6291 83.601 30.5918 83.0936 37.4334L83.0958 37.4313Z" fill="#CED5E0"/>
        <path d="M31.6807 39.417C31.7012 39.8512 32.1028 40.2855 32.5972 40.2855H82.8945C83.3889 40.2855 83.7905 39.8512 83.811 39.417H31.6807Z" fill="#CED5E0"/>
        <path d="M60.9336 19.741C60.9865 20.6203 60.4046 21.3434 59.6359 21.3901L58.7086 21.4465C57.9399 21.4932 57.276 20.8462 57.2231 19.9657C57.1702 19.0864 57.7521 18.3633 58.5207 18.3166L59.4481 18.2602C60.2167 18.2135 60.8807 18.8605 60.9336 19.741Z" fill="#CED5E0"/>
        <path d="M63.1743 19.6683C63.1829 19.9559 62.9713 20.1959 62.7014 20.2046L55.858 20.4184C55.5881 20.4271 55.3625 20.2002 55.3528 19.9125C55.3442 19.6248 55.5558 19.3838 55.8256 19.3762L62.6691 19.1624C62.9389 19.1537 63.1646 19.3806 63.1743 19.6683Z" fill="#CED5E0"/>
        <path d="M89.788 18.5603C89.8409 19.4397 89.2591 20.1627 88.4904 20.2094L87.5631 20.2658C86.7944 20.3125 86.1305 19.6655 86.0776 18.785C86.0247 17.9057 86.6065 17.1827 87.3752 17.136L88.3026 17.0795C89.0712 17.0328 89.7351 17.6799 89.788 18.5603Z" fill="#CED5E0"/>
        <path d="M92.0288 18.4886C92.0374 18.7763 91.8258 19.0162 91.5559 19.0249L84.7125 19.2387C84.4426 19.2474 84.217 19.0205 84.2073 18.7328C84.1986 18.4451 84.4102 18.2052 84.6801 18.1965L91.5235 17.9827C91.7934 17.974 92.0191 18.2009 92.0288 18.4886Z" fill="#CED5E0"/>
        <path d="M29.6808 37.9643C29.6808 43.5075 25.2125 48.0009 19.7012 48.0009C14.19 48.0009 9.72168 43.5075 9.72168 37.9643C9.72168 32.421 14.19 27.9287 19.7012 27.9287C25.2125 27.9287 29.6808 32.4221 29.6808 37.9643Z" fill="#CED5E0"/>
        <path d="M12.1855 37.9647C12.1855 42.152 15.5614 45.5468 19.7253 45.5468C23.8892 45.5468 27.2639 42.152 27.2639 37.9647C27.2639 33.7775 23.8892 30.3838 19.7253 30.3838C15.5614 30.3838 12.1855 33.7786 12.1855 37.9647Z" fill="#CED5E0"/>
        <path d="M17.1082 32.8818L18.8528 34.8761C18.8528 34.8761 19.154 35.3549 19.5664 35.3549C19.9788 35.3549 20.28 35.0194 20.28 35.0194L22.1045 32.8818C22.1045 32.8818 22.3582 32.5789 22.1045 32.3716C21.8508 32.1642 20.9601 31.8613 19.724 31.8613C18.4879 31.8613 16.6634 32.1957 17.1071 32.8818H17.1082Z" fill="#CED5E0"/>
        <path d="M17.1081 43.0473L18.8526 41.053C18.8526 41.053 19.1549 40.5742 19.5662 40.5742C19.9776 40.5742 20.2809 40.9086 20.2809 40.9086L22.1043 43.0462C22.1043 43.0462 22.358 43.3491 22.1043 43.5564C21.8506 43.7638 20.96 44.0667 19.7249 44.0667C18.4899 44.0667 16.6644 43.7312 17.1081 43.0462V43.0473Z" fill="#CED5E0"/>
        <path d="M24.841 35.4301L22.8589 37.1844C22.8589 37.1844 22.3828 37.4873 22.3828 37.902C22.3828 38.3168 22.7164 38.6196 22.7164 38.6196L24.8421 40.4544C24.8421 40.4544 25.1433 40.7095 25.3495 40.4544C25.5557 40.1992 25.858 39.3036 25.858 38.0605C25.858 36.8175 25.5244 34.9828 24.8421 35.4301H24.841Z" fill="#CED5E0"/>
        <path d="M14.7317 35.4301L16.7149 37.1844C16.7149 37.1844 17.191 37.4873 17.191 37.902C17.191 38.3168 16.8574 38.6196 16.8574 38.6196L14.7317 40.4544C14.7317 40.4544 14.4305 40.7095 14.2232 40.4544C14.017 40.1992 13.7158 39.3036 13.7158 38.0605C13.7158 36.8175 14.0494 34.9828 14.7317 35.4301Z" fill="#CED5E0"/>
        <path d="M105.987 37.9643C105.987 43.5075 101.518 48.0009 96.0059 48.0009C90.4936 48.0009 86.0264 43.5075 86.0264 37.9643C86.0264 32.421 90.4947 27.9287 96.0059 27.9287C101.517 27.9287 105.987 32.4221 105.987 37.9643Z" fill="#CED5E0"/>
        <path d="M88.4912 37.9647C88.4912 42.152 91.867 45.5468 96.0309 45.5468C100.195 45.5468 103.57 42.152 103.57 37.9647C103.57 33.7775 100.195 30.3838 96.0309 30.3838C91.867 30.3838 88.4912 33.7786 88.4912 37.9647Z" fill="#CED5E0"/>
        <path d="M93.4138 32.8818L95.1583 34.8761C95.1583 34.8761 95.4595 35.3549 95.8719 35.3549C96.2843 35.3549 96.5866 35.0194 96.5866 35.0194L98.41 32.8818C98.41 32.8818 98.6637 32.5789 98.41 32.3716C98.1563 32.1642 97.2668 31.8613 96.0306 31.8613C94.7945 31.8613 92.9701 32.1957 93.4138 32.8818Z" fill="#CED5E0"/>
        <path d="M93.4139 43.0473L95.1585 41.053C95.1585 41.053 95.4608 40.5742 95.8721 40.5742C96.2834 40.5742 96.5868 40.9086 96.5868 40.9086L98.4102 43.0462C98.4102 43.0462 98.665 43.3491 98.4102 43.5564C98.1565 43.7638 97.2658 44.0667 96.0308 44.0667C94.7958 44.0667 92.9702 43.7312 93.415 43.0462L93.4139 43.0473Z" fill="#CED5E0"/>
        <path d="M101.146 35.4301L99.1636 37.1844C99.1636 37.1844 98.6875 37.4873 98.6875 37.902C98.6875 38.3168 99.0211 38.6196 99.0211 38.6196L101.147 40.4544C101.147 40.4544 101.448 40.7095 101.654 40.4544C101.861 40.1992 102.163 39.3036 102.163 38.0605C102.163 36.8175 101.829 34.9828 101.147 35.4301H101.146Z" fill="#CED5E0"/>
        <path d="M91.0374 35.4301L93.0205 37.1844C93.0205 37.1844 93.4966 37.4873 93.4966 37.902C93.4966 38.3168 93.163 38.6196 93.163 38.6196L91.0374 40.4544C91.0374 40.4544 90.7362 40.7095 90.5289 40.4544C90.3227 40.1992 90.0215 39.3036 90.0215 38.0605C90.0215 36.8175 90.3551 34.9828 91.0374 35.4301Z" fill="#CED5E0"/>
    </g>
    <defs>
        <clipPath id="clip0_1646_6245">
            <rect width="116" height="48" fill="white"/>
        </clipPath>
    </defs>
</svg>
