<svg width="121" height="54" viewBox="0 0 121 54" fill="none" xmlns="http://www.w3.org/2000/svg">
    <g clip-path="url(#clip0_1646_6068)">
        <path d="M52.9779 19.0214L28.2826 18.9762C31.7159 15.103 39.211 6.62169 42.7828 2.3779C44.0363 2.14802 46.2402 1.81213 57.0742 1.5791L52.9769 19.0224L52.9779 19.0214Z" fill="#CED5E0"/>
        <path d="M55.6963 2.12695C45.6501 2.35578 43.4074 2.67803 42.3269 2.87117C38.9145 6.91657 32.1454 14.5865 28.69 18.4881L51.8423 18.5301L55.6963 2.128V2.12695Z" fill="#CED5E0"/>
        <path d="M112.859 11.6729H120.042C120.571 11.6729 121 12.1019 121 12.6312V31.7981C121 32.3274 120.571 32.7564 120.042 32.7564H112.859C112.33 32.7564 111.901 32.3274 111.901 31.7981V12.6312C111.901 12.1019 112.33 11.6729 112.859 11.6729Z" fill="#CED5E0"/>
        <path d="M113.164 11.8633H119.738C120.223 11.8633 120.615 12.2559 120.615 12.7408V15.957C120.615 15.4731 120.223 15.0795 119.738 15.0795H113.164C112.68 15.0795 112.287 15.472 112.287 15.957V12.7408C112.287 12.2569 112.68 11.8633 113.164 11.8633Z" fill="#CED5E0"/>
        <path d="M113.164 32.4081H119.738C120.223 32.4081 120.615 32.0156 120.615 31.5306V28.3145C120.615 28.7994 120.223 29.192 119.738 29.192H113.164C112.68 29.192 112.287 28.7994 112.287 28.3145V31.5306C112.287 32.0156 112.68 32.4081 113.164 32.4081Z" fill="#CED5E0"/>
        <path d="M39.1535 41.3416C39.1535 42.5329 40.1186 43.4976 41.3081 43.4976H74.3503C75.5409 43.4976 76.5049 42.5319 76.5049 41.3416C76.5049 40.1502 75.5398 39.1855 74.3503 39.1855H41.3092C40.1186 39.1855 39.1545 40.1512 39.1545 41.3416H39.1535Z" fill="#CED5E0"/>
        <path d="M109.982 40.9436H1.14693C0.461937 40.444 0.00667572 39.6798 0.00667572 38.5073C0.00667572 35.4727 -0.152763 32.118 1.12386 31.9585V26.7679C1.12386 22.9345 3.99704 23.6535 3.99704 23.6535C3.99704 23.6535 4.15649 22.5356 6.07195 20.7785C9.74342 19.9797 30.9729 18.5427 30.9729 18.5427C30.9729 18.5427 41.2394 5.23925 44.1954 1.06893C45.3136 -0.689257 105.597 0.253342 105.597 0.253342C107.421 4.44045 113.339 19.501 113.339 19.501C114.529 26.6041 114.096 33.0764 114.456 33.0764C115.254 33.0764 114.296 39.7848 114.296 39.7848C114.296 39.7848 112.441 40.3873 109.982 40.9436Z" fill="#CED5E0"/>
        <path opacity="0.7" d="M4.79508 23.9717L112.54 20.3787L112.062 18.2217L31.6125 19.4204L6.47137 21.3371L4.79508 23.9717Z" fill="#CED5E0"/>
        <path d="M33.5278 20.6975H113.179V20.2178H33.5278V20.6975ZM33.5278 26.6071H82.8503V27.0868H33.5268V26.6071H33.5278ZM33.9118 25.169H83.808V25.6477H33.9118V25.169Z" fill="#CED5E0"/>
        <path d="M60.5835 38.3913V2.52842L59.3656 2.54942C48.5212 2.73941 46.0445 3.00707 44.5749 3.24429L44.086 3.32302L43.7955 3.72399C41.2055 7.30125 35.5357 14.6248 33.2185 17.6069L33.165 17.6751L33.5468 28.0195L38.0386 38.3461L60.5825 38.3902L60.5835 38.3913ZM60.1052 3.01652V37.9105L38.3544 37.8685L34.0052 27.8715L33.6507 17.8336C36.0015 14.8074 41.6094 7.56261 44.1836 4.00635L44.3577 3.76598L44.6514 3.71769C46.1053 3.48362 48.5621 3.217 59.3751 3.02911L60.1062 3.01652H60.1052ZM60.8237 38.3482H75.3176L84.1659 25.4919L84.6914 18.0803L84.6788 18.0383C83.1116 12.7952 81.5707 7.94154 79.9668 3.20126L79.6909 2.38672H78.8317C71.258 2.39407 66.9477 2.4371 61.644 2.51478L60.8237 2.53472V38.3472V38.3482ZM75.0659 37.8696H61.3031V3.00287L61.6545 2.99447C66.954 2.9168 71.2622 2.87376 78.8328 2.86642H79.3489L79.5146 3.35451C81.1123 8.07695 82.648 12.9117 84.2089 18.1338L83.698 25.3282L75.0669 37.8685L75.0659 37.8696Z" fill="#CED5E0"/>
        <path d="M59.3869 3.74668C48.1386 3.94297 45.984 4.23058 44.765 4.42686C42.1898 7.98418 36.6868 15.0957 34.1639 18.3423L59.3869 18.3811V3.74668ZM80.9919 3.58398C89.9923 3.58503 101.309 3.60183 104.553 3.62807C106.154 7.50343 108.974 14.8101 110.33 18.3433L85.661 18.3822C84.1882 13.4246 82.6399 8.48907 80.9919 3.58503V3.58398ZM78.7104 3.58398C80.3699 8.48802 81.9276 13.4225 83.4098 18.3811H61.5394V3.71204C66.4823 3.63962 70.8513 3.59133 78.7104 3.58398Z" fill="#CED5E0"/>
        <path d="M82.7214 17.8684C81.2654 13.02 79.8293 8.50429 78.3429 4.09675C71.2077 4.10515 67.0064 4.14609 62.0521 4.21746V17.8684H82.7214ZM109.585 17.8306C108.105 13.9804 105.701 7.77058 104.209 4.13664C100.685 4.11355 90.2919 4.09885 81.7028 4.0957C83.1756 8.50639 84.5991 13.0231 86.0425 17.8673L109.585 17.8306ZM58.8736 4.26785C48.4341 4.45784 46.1315 4.7318 45.0542 4.8987C42.6793 8.1663 38.1194 14.0791 35.2084 17.8316L58.8736 17.8673V4.26785Z" fill="#CED5E0"/>
        <path d="M36.0164 40.8464C35.7751 40.8275 35.6314 40.8086 35.6199 40.7876L30.5438 31.9893C30.4483 31.8245 30.3288 31.665 30.1976 31.5107C29.8085 31.2178 29.435 30.9103 29.0847 30.5796C28.4122 30.1724 27.6444 29.9131 26.952 29.9131H16.7989C15.4761 29.9131 13.869 30.842 13.2071 31.9883L8.13107 40.7866C5.99323 40.5032 1.83083 42.1039 1.83083 42.1039L21.2372 47.77L40.6781 42.1921C40.6707 42.1595 36.0237 40.8779 36.0174 40.8453L36.0164 40.8464ZM76.5001 40.8359C76.5001 40.8359 76.5106 40.8359 76.5148 40.8348C76.5326 40.8327 76.5483 40.8317 76.5641 40.8296C76.6092 40.8244 76.6459 40.8191 76.6763 40.8149C76.6878 40.8128 76.7004 40.8107 76.7099 40.8086C76.7413 40.8013 76.7644 40.795 76.7686 40.7876L81.8447 31.9893C82.5055 30.8431 84.1136 29.9141 85.4364 29.9141H95.5896C96.9124 29.9141 98.5194 30.8431 99.1813 31.9893L104.257 40.7876C104.27 40.8107 104.295 40.8348 104.33 40.8611C104.363 40.8873 104.407 40.9146 104.459 40.944L113.259 41.8614L90.5125 48.0912L67.3676 40.4244C67.3812 40.3887 76.4864 40.8716 76.5001 40.8359Z" fill="#CED5E0"/>
        <path d="M104.89 42.4985L100.161 31.9893C99.5955 30.843 98.0661 29.9141 96.7444 29.9141H86.5912C85.2684 29.9141 83.5827 30.843 82.8253 31.9893L77.0097 40.7876C76.7601 41.1655 36.0477 41.1655 35.861 40.7876L31.5234 31.9893C30.9591 30.843 29.4286 29.9141 28.1058 29.9141H17.9526C16.6298 29.9141 14.9441 30.843 14.1867 31.9893L8.37115 40.7876C8.12148 41.1655 1.9597 42.1049 1.9597 42.1049C0.939034 41.6357 0.245659 40.8086 0.368393 39.3485C0.387276 39.1239 0.405106 38.8961 0.422943 38.6683H6.45464L11.8202 30.5512C13.1661 28.5159 15.8462 27.0391 18.1949 27.0391H28.3481C30.6968 27.0391 33.1294 28.5159 34.1333 30.5512L38.1341 38.6683H75.0922L80.4578 30.5512C81.8036 28.5159 84.4838 27.0391 86.8325 27.0391H96.9857C99.3343 27.0391 101.767 28.5159 102.771 30.5512L106.772 38.6683H114.958C114.732 39.7683 114.247 42.34 114.247 42.34C114.247 42.34 112.325 43.0433 108.773 43.6574C108.773 43.6574 105.077 42.8764 104.89 42.4985Z" fill="#CED5E0"/>
        <path d="M106.7 39.5101L102.7 31.3931C101.696 29.3578 99.263 27.8809 96.9143 27.8809H86.7611C84.4125 27.8809 81.7312 29.3578 80.3864 31.3931L75.0208 39.5101H38.0628L34.062 31.3931C33.0581 29.3578 30.6255 27.8809 28.2768 27.8809H18.1236C15.7749 27.8809 13.0937 29.3578 11.7489 31.3931L6.38329 39.5101H0.365234C0.367332 39.4555 0.363136 39.4052 0.368385 39.3485C0.387268 39.1228 0.405098 38.8961 0.422935 38.6683H6.45463L11.8202 30.5512C13.1661 28.5159 15.8462 27.0391 18.1949 27.0391H28.3481C30.6968 27.0391 33.1294 28.5159 34.1333 30.5512L38.1341 38.6683H75.0922L80.4578 30.5512C81.8036 28.5159 84.4838 27.0391 86.8325 27.0391H96.9857C99.3343 27.0391 101.767 28.5159 102.771 30.5512L106.772 38.6683H114.958C114.896 38.9727 114.835 39.2551 114.78 39.5101H106.7Z" fill="#CED5E0"/>
        <path d="M90.5117 54.0007C84.3406 54.0007 79.3379 48.9948 79.3379 42.8197C79.3379 36.6446 84.3406 31.6387 90.5117 31.6387C96.6828 31.6387 101.686 36.6446 101.686 42.8197C101.686 48.9948 96.6828 54.0007 90.5117 54.0007Z" fill="#CED5E0"/>
        <path d="M90.5118 34.7539C94.9637 34.7539 98.5723 38.3648 98.5723 42.8195C98.5723 47.2743 94.9637 50.8852 90.5118 50.8852C86.0599 50.8852 82.4514 47.2743 82.4514 42.8195C82.4514 38.3648 86.0599 34.7539 90.5118 34.7539ZM83.0892 42.8195C83.0892 43.167 83.1217 43.506 83.1678 43.8398L85.6886 43.7327L87.1855 42.7398L85.6917 41.7489L83.1909 41.6429C83.1301 42.027 83.0892 42.4186 83.0892 42.8195ZM88.6488 44.3993C88.525 44.4759 88.4138 44.5788 88.3289 44.7131L87.9575 45.2988L88.545 44.9252C88.675 44.8422 88.7757 44.7341 88.8523 44.6145C88.8785 44.5 88.9184 44.3898 88.9698 44.2859C88.867 44.3352 88.76 44.3741 88.6478 44.4003L88.6488 44.3993ZM88.9782 41.2009C88.9289 41.0981 88.8901 40.991 88.8639 40.8787C88.7862 40.7548 88.6845 40.6436 88.5502 40.5596L87.9649 40.188L88.3383 40.7758C88.4212 40.906 88.5292 41.0068 88.6488 41.0834C88.7632 41.1107 88.8733 41.1495 88.9772 41.2009H88.9782ZM88.1422 43.5323C88.2229 43.4462 88.3121 43.3717 88.4086 43.3066C88.2953 43.2982 88.1831 43.2782 88.0729 43.2446C87.9271 43.2499 87.7803 43.2824 87.6397 43.3559L87.025 43.6771L87.7205 43.6477C87.8747 43.6414 88.0152 43.5984 88.1422 43.5333V43.5323ZM87.646 42.1289C87.7824 42.2002 87.9261 42.2338 88.0677 42.2401C88.181 42.2055 88.2953 42.1855 88.4117 42.1782C88.3173 42.1142 88.2313 42.0407 88.1526 41.9567C88.0247 41.8885 87.8799 41.8433 87.7215 41.837L87.0292 41.8077L87.646 42.1299V42.1289ZM87.6344 41.075L86.8362 39.47L84.7487 38.1433C84.2892 38.7101 83.9126 39.3462 83.6346 40.0337L85.8428 41.1873L87.6355 41.076L87.6344 41.075ZM87.2474 39.0565L88.8555 39.8574L88.9656 38.0677L87.8337 35.898C87.1435 36.1657 86.5026 36.532 85.9298 36.9823L87.2463 39.0565H87.2474ZM89.0233 37.1524L89.124 35.5265C88.781 35.5915 88.4474 35.6818 88.1222 35.792L89.0233 37.1524ZM89.0107 48.3376L88.0331 49.8134C88.3845 49.9384 88.7464 50.0402 89.1209 50.1116L89.0107 48.3376ZM88.9541 47.4223L88.8429 45.6284L87.239 46.4272L85.8585 48.6021C86.4281 49.0619 87.068 49.4366 87.7593 49.7127L88.9541 47.4223ZM87.6271 44.4056L85.8386 44.2954L83.5853 45.4731C83.8518 46.168 84.2168 46.8125 84.6679 47.3887L86.8267 46.0158L87.6271 44.4066V44.4056ZM84.9239 44.2387L83.2109 44.1327C83.2759 44.4969 83.3672 44.8506 83.4825 45.1949L84.9228 44.2387H84.9239ZM84.927 41.2419L83.5297 40.315C83.4102 40.6499 83.3063 40.9921 83.235 41.3468L84.927 41.2419ZM84.949 37.9113L86.4271 38.6471L85.6938 37.1734C85.4274 37.4012 85.1798 37.6489 84.949 37.9113ZM89.4261 35.4792L89.5289 37.9155L90.5213 39.4134L91.5115 37.9186L91.6143 35.4824C91.2535 35.4278 90.8863 35.3911 90.5097 35.3911C90.1331 35.3911 89.7796 35.4267 89.4251 35.4792H89.4261ZM89.9454 44.8506C89.8814 44.9451 89.808 45.0312 89.724 45.1099C89.6558 45.238 89.6107 45.3828 89.6044 45.5413L89.5751 46.2341L89.8971 45.6169C89.9684 45.4804 90.002 45.3366 90.0083 45.1949C89.9737 45.0816 89.9538 44.9671 89.9454 44.8506ZM90.0188 40.3014C90.0136 40.1555 89.98 40.0075 89.9076 39.8679L89.5866 39.2528L89.616 39.9487C89.6223 40.103 89.6653 40.2437 89.7303 40.3696C89.8163 40.4504 89.8908 40.5397 89.9559 40.6362C89.9643 40.5229 89.9842 40.4105 90.0177 40.3003L90.0188 40.3014ZM91.415 45.5413C91.4087 45.387 91.3657 45.2464 91.3007 45.1193C91.2146 45.0385 91.1402 44.9493 91.0751 44.8527C91.0667 44.9661 91.0468 45.0784 91.0132 45.1886C91.0185 45.3345 91.0521 45.4825 91.1244 45.6221L91.4454 46.2372L91.4161 45.5413H91.415ZM91.4559 39.257L91.1339 39.8752C91.0625 40.0117 91.029 40.1555 91.0227 40.2972C91.0573 40.4095 91.0772 40.525 91.0846 40.6415C91.1486 40.547 91.222 40.4609 91.3059 40.3812C91.3741 40.2531 91.4192 40.1082 91.4255 39.9497L91.4549 39.257H91.4559ZM97.9334 42.8185C97.9334 42.4217 97.8936 42.0344 97.8338 41.6544L95.3424 41.7604L93.8455 42.7534L95.3393 43.7443L97.8537 43.8514C97.9009 43.5134 97.9334 43.1701 97.9334 42.8195V42.8185ZM93.384 43.3643C93.2476 43.2929 93.1039 43.2593 92.9612 43.253C92.849 43.2877 92.7336 43.3076 92.6182 43.315C92.7126 43.379 92.7986 43.4525 92.8773 43.5365C93.0053 43.6047 93.15 43.6498 93.3084 43.6561L94.0008 43.6855L93.3829 43.3633L93.384 43.3643ZM93.3903 42.1372L94.005 41.8161L93.3095 41.8454C93.1553 41.8517 93.0147 41.8948 92.8888 41.9599C92.8081 42.0459 92.7189 42.1205 92.6224 42.1855C92.7357 42.1939 92.8479 42.2139 92.9581 42.2475C93.1039 42.2422 93.2518 42.2086 93.3913 42.1362L93.3903 42.1372ZM92.6906 44.7163C92.6077 44.5861 92.4997 44.4853 92.3801 44.4087C92.2657 44.3814 92.1556 44.3426 92.0517 44.2912C92.101 44.394 92.1399 44.5011 92.1661 44.6134C92.2427 44.7362 92.3455 44.8485 92.4787 44.9325L93.064 45.3041L92.6906 44.7163ZM92.3811 41.0928C92.5049 41.0162 92.6161 40.9133 92.7 40.78L93.0714 40.1943L92.4839 40.568C92.3539 40.6509 92.2531 40.759 92.1766 40.8787C92.1503 40.9931 92.1105 41.1033 92.0591 41.2072C92.1619 41.1579 92.2689 41.1191 92.3811 41.0928ZM92.186 39.8626L93.7899 39.0638L95.1054 36.9918C94.5337 36.5394 93.8948 36.172 93.2046 35.9022L92.0748 38.0677L92.186 39.8616V39.8626ZM93.4028 41.0844L95.1914 41.1957L97.3942 40.0453C97.1173 39.3577 96.7428 38.7206 96.2844 38.1538L94.2043 39.4763L93.4039 41.0855L93.4028 41.0844ZM96.1061 41.2513L97.7887 41.3552C97.7184 41.0015 97.6166 40.6614 97.4981 40.3276L96.1061 41.2503V41.2513ZM96.1029 44.2481L97.5369 45.1991C97.6523 44.8569 97.7446 44.5053 97.8096 44.1421L96.104 44.2481H96.1029ZM95.1893 44.3048L93.3965 44.4161L94.1948 46.021L96.3505 47.3919C96.8016 46.8156 97.1677 46.1722 97.4352 45.4783L95.1893 44.3048ZM93.7826 46.4335L92.1745 45.6326L92.0633 47.4223L93.2581 49.7116C93.9494 49.4356 94.5892 49.0619 95.1589 48.6021L93.7826 46.4335ZM92.0066 48.3376L91.8975 50.1084C92.271 50.0381 92.6329 49.9363 92.9832 49.8113L92.0066 48.3376ZM92.0192 37.1524L92.9182 35.7962C92.5941 35.685 92.2615 35.5926 91.9185 35.5265L92.0192 37.1524ZM95.3424 37.1839L94.6113 38.6534L96.0841 37.9207C95.8543 37.6583 95.6068 37.4117 95.3424 37.1849V37.1839ZM96.1659 47.6207L94.6029 46.8418L95.3833 48.41C95.6634 48.1655 95.9257 47.9031 96.1669 47.6196L96.1659 47.6207ZM91.6101 50.1525L91.501 47.5735L90.5087 46.0756L89.5184 47.5703L89.4093 50.1525C89.7702 50.206 90.1363 50.2438 90.5118 50.2438C90.8874 50.2438 91.2514 50.2071 91.6101 50.1535V50.1525ZM85.6361 48.4069L86.4187 46.8324L84.8504 47.6133C85.0917 47.8978 85.355 48.1613 85.6361 48.4069Z" fill="#CED5E0"/>
        <path d="M90.5118 33.6994C85.0077 33.6994 80.4992 37.9464 80.0691 43.3427C80.0471 43.0645 80.0324 42.7843 80.0324 42.4998C80.0324 36.7088 84.7235 32.0137 90.5118 32.0137C96.3001 32.0137 100.991 36.7078 100.991 42.4998C100.991 42.7832 100.977 43.0645 100.954 43.3427C100.525 37.9464 96.0158 33.6994 90.5118 33.6994Z" fill="#CED5E0"/>
        <path d="M90.5117 52.8418C96.4888 52.8418 101.37 48.1456 101.671 42.2402C101.68 42.4323 101.686 42.6255 101.686 42.8196C101.686 48.9948 96.6829 54.0007 90.5117 54.0007C84.3405 54.0007 79.3379 48.9948 79.3379 42.8196C79.3379 42.6255 79.3431 42.4323 79.3525 42.2402C79.6536 48.1456 84.5346 52.8418 90.5117 52.8418Z" fill="#CED5E0"/>
        <path d="M90.5119 34.754C86.1408 34.754 82.591 38.2379 82.463 42.5803C82.4609 42.5006 82.4504 42.4218 82.4504 42.341C82.4504 37.8862 86.0589 34.2754 90.5108 34.2754C94.9628 34.2754 98.5713 37.8862 98.5713 42.341C98.5713 42.4218 98.5618 42.5006 98.5587 42.5803C98.4307 38.2379 94.8809 34.754 90.5098 34.754H90.5119Z" fill="#CED5E0"/>
        <path d="M90.5119 50.9103C86.1408 50.9103 82.591 47.4264 82.463 43.084C82.4609 43.1648 82.4504 43.2425 82.4504 43.3233C82.4504 47.7781 86.0589 51.3889 90.5108 51.3889C94.9628 51.3889 98.5713 47.7781 98.5713 43.3233C98.5713 43.2425 98.5618 43.1638 98.5587 43.084C98.4307 47.4264 94.8809 50.9103 90.5098 50.9103H90.5119Z" fill="#CED5E0"/>
        <path d="M21.6152 54.0007C15.4441 54.0007 10.4414 48.9948 10.4414 42.8197C10.4414 36.6446 15.4441 31.6387 21.6152 31.6387C27.7864 31.6387 32.7891 36.6446 32.7891 42.8197C32.7891 48.9948 27.7864 54.0007 21.6152 54.0007Z" fill="#CED5E0"/>
        <path d="M21.6153 34.7539C26.0673 34.7539 29.6758 38.3648 29.6758 42.8195C29.6758 47.2743 26.0673 50.8852 21.6153 50.8852C17.1634 50.8852 13.5549 47.2743 13.5549 42.8195C13.5549 38.3648 17.1634 34.7539 21.6153 34.7539ZM14.1927 42.8195C14.1927 43.167 14.2252 43.506 14.2714 43.8398L16.7921 43.7327L18.289 42.7398L16.7952 41.7489L14.2944 41.6429C14.2326 42.027 14.1927 42.4186 14.1927 42.8195ZM19.7523 44.3993C19.6296 44.4759 19.5174 44.5788 19.4324 44.7131L19.061 45.2988L19.6485 44.9252C19.7786 44.8422 19.8793 44.7341 19.9558 44.6145C19.9831 44.5 20.0219 44.3898 20.0733 44.2859C19.9705 44.3352 19.8635 44.3741 19.7513 44.4003L19.7523 44.3993ZM20.0817 41.2009C20.0324 41.0981 19.9936 40.991 19.9674 40.8787C19.8908 40.7548 19.788 40.6436 19.6548 40.5596L19.0694 40.188L19.4429 40.7758C19.5258 40.906 19.6338 41.0068 19.7523 41.0834C19.8667 41.1107 19.9768 41.1495 20.0807 41.2009H20.0817ZM19.2457 43.5323C19.3264 43.4462 19.4156 43.3717 19.5121 43.3066C19.3988 43.2982 19.2866 43.2782 19.1764 43.2446C19.0317 43.2499 18.8838 43.2824 18.7432 43.3559L18.1285 43.6771L18.824 43.6477C18.9782 43.6414 19.1187 43.5984 19.2457 43.5333V43.5323ZM18.7495 42.1289C18.8859 42.2002 19.0296 42.2338 19.1712 42.2401C19.2834 42.2055 19.3988 42.1855 19.5153 42.1782C19.4209 42.1142 19.3338 42.0407 19.2551 41.9567C19.1271 41.8885 18.9824 41.8433 18.824 41.837L18.1316 41.8077L18.7495 42.1299V42.1289ZM18.738 41.075L17.9397 39.47L15.8522 38.1433C15.3917 38.7101 15.0161 39.3462 14.7382 40.0337L16.9463 41.1873L18.739 41.076L18.738 41.075ZM18.3509 39.0565L19.959 39.8574L20.0702 38.0677L18.9383 35.898C18.2481 36.1657 17.6072 36.532 17.0344 36.9823L18.3509 39.0565ZM20.1268 37.1524L20.2275 35.5265C19.8845 35.5915 19.5509 35.6818 19.2257 35.792L20.1268 37.1524ZM20.1142 48.3376L19.1366 49.8134C19.488 49.9384 19.8499 50.0402 20.2244 50.1116L20.1142 48.3376ZM20.0576 47.4223L19.9464 45.6284L18.3425 46.4272L16.962 48.6021C17.5327 49.0619 18.1726 49.4366 18.8628 49.7127L20.0576 47.4223ZM18.7306 44.4056L16.9421 44.2954L14.6889 45.4731C14.9553 46.168 15.3203 46.8125 15.7714 47.3887L17.9313 46.0158L18.7317 44.4066L18.7306 44.4056ZM16.0274 44.2387L14.3144 44.1327C14.3794 44.4969 14.4707 44.8506 14.5861 45.1949L16.0263 44.2387H16.0274ZM16.0305 41.2419L14.6333 40.315C14.5137 40.6499 14.4098 40.9921 14.3385 41.3468L16.0305 41.2419ZM16.0525 37.9113L17.5306 38.6471L16.7973 37.1734C16.5309 37.4012 16.2833 37.6489 16.0525 37.9113ZM20.5296 35.4792L20.6324 37.9155L21.6248 39.4134L22.615 37.9186L22.7178 35.4824C22.357 35.4278 21.9898 35.3911 21.6132 35.3911C21.2367 35.3911 20.8831 35.4267 20.5286 35.4792H20.5296ZM21.0489 44.8506C20.9849 44.9451 20.9115 45.0312 20.8275 45.1099C20.7594 45.238 20.7143 45.3828 20.7069 45.5413L20.6775 46.2341L20.9996 45.6169C21.0709 45.4804 21.1045 45.3366 21.1108 45.1949C21.0762 45.0816 21.0562 44.9671 21.0489 44.8506ZM21.1223 40.3014C21.1171 40.1555 21.0835 40.0075 21.0111 39.8679L20.6901 39.2528L20.7195 39.9487C20.7258 40.103 20.7688 40.2437 20.8338 40.3696C20.9199 40.4504 20.9943 40.5397 21.0594 40.6362C21.0678 40.5229 21.0877 40.4105 21.1213 40.3003L21.1223 40.3014ZM22.5185 45.5413C22.5122 45.387 22.4692 45.2464 22.4042 45.1193C22.3182 45.0385 22.2437 44.9493 22.1786 44.8527C22.1703 44.9661 22.1503 45.0784 22.1168 45.1886C22.122 45.3345 22.1545 45.4825 22.2279 45.6221L22.5489 46.2372L22.5196 45.5413H22.5185ZM22.5594 39.257L22.2374 39.8752C22.1661 40.0117 22.1325 40.1555 22.1262 40.2972C22.1608 40.4095 22.1808 40.525 22.1881 40.6415C22.2521 40.547 22.3255 40.4609 22.4094 40.3812C22.4776 40.2531 22.5227 40.1082 22.529 39.9497L22.5584 39.257H22.5594ZM29.0369 42.8185C29.0369 42.4217 28.9971 42.0344 28.9373 41.6544L26.4459 41.7604L24.949 42.7534L26.4428 43.7443L28.9572 43.8514C29.0044 43.5134 29.0369 43.1701 29.0369 42.8195V42.8185ZM24.4875 43.3643C24.3511 43.2929 24.2074 43.2593 24.0658 43.253C23.9535 43.2877 23.8382 43.3076 23.7217 43.315C23.8161 43.379 23.9021 43.4525 23.9808 43.5365C24.1088 43.6047 24.2536 43.6498 24.4119 43.6561L25.1043 43.6855L24.4864 43.3633L24.4875 43.3643ZM24.4938 42.1372L25.1085 41.8161L24.413 41.8454C24.2588 41.8517 24.1182 41.8948 23.9913 41.9599C23.9105 42.0459 23.8214 42.1205 23.7249 42.1855C23.8382 42.1939 23.9504 42.2139 24.0605 42.2475C24.2053 42.2422 24.3543 42.2086 24.4938 42.1362V42.1372ZM23.7941 44.7163C23.7112 44.5861 23.6032 44.4853 23.4846 44.4087C23.3693 44.3814 23.2602 44.3426 23.1563 44.2912C23.2056 44.394 23.2444 44.5011 23.2696 44.6134C23.3462 44.7362 23.45 44.8485 23.5832 44.9325L24.1686 45.3041L23.7951 44.7163H23.7941ZM23.4846 41.0928C23.6074 41.0162 23.7196 40.9133 23.8035 40.78L24.1749 40.1943L23.5874 40.568C23.4574 40.6509 23.3567 40.759 23.2801 40.8787C23.2528 40.9931 23.214 41.1033 23.1626 41.2072C23.2654 41.1579 23.3724 41.1191 23.4846 41.0928ZM23.2895 39.8626L24.8934 39.0638L26.2089 36.9918C25.6372 36.5394 24.9983 36.172 24.3081 35.9022L23.1783 38.0677L23.2895 39.8616V39.8626ZM24.5053 41.0844L26.2938 41.1957L28.4967 40.0453C28.2198 39.3577 27.8453 38.7206 27.3869 38.1538L25.3067 39.4763L24.5064 41.0855L24.5053 41.0844ZM27.2086 41.2513L28.8911 41.3552C28.8209 41.0015 28.7191 40.6614 28.6006 40.3276L27.2086 41.2503V41.2513ZM27.2054 44.2481L28.6394 45.1991C28.7548 44.8569 28.8471 44.5053 28.9121 44.1421L27.2054 44.2481ZM26.2907 44.3048L24.498 44.4161L25.2962 46.021L27.4519 47.3919C27.903 46.8156 28.2691 46.1722 28.5366 45.4783L26.2907 44.3048ZM24.884 46.4335L23.2759 45.6326L23.1647 47.4223L24.3595 49.7116C25.0508 49.4356 25.6907 49.0619 26.2603 48.6021L24.884 46.4335ZM23.1081 48.3376L22.999 50.1084C23.3724 50.0381 23.7343 49.9363 24.0857 49.8113L23.1091 48.3376H23.1081ZM23.1206 37.1524L24.0196 35.7962C23.6955 35.685 23.363 35.5926 23.0199 35.5265L23.1206 37.1524ZM26.4438 37.1839L25.7127 38.6534L27.1855 37.9207C26.9547 37.6583 26.7082 37.4117 26.4438 37.1849V37.1839ZM27.2673 47.6207L25.7033 46.8418L26.4837 48.41C26.7638 48.1655 27.026 47.9031 27.2673 47.6196V47.6207ZM22.7115 50.1525L22.6024 47.5735L21.6101 46.0756L20.6199 47.5703L20.5108 50.1525C20.8716 50.206 21.2377 50.2438 21.6132 50.2438C21.9888 50.2438 22.3528 50.2071 22.7115 50.1535V50.1525ZM16.7375 48.4069L17.5201 46.8324L15.9518 47.6133C16.1931 47.8978 16.4564 48.1613 16.7375 48.4069Z" fill="#CED5E0"/>
        <path d="M21.6153 33.6994C16.1113 33.6994 11.6027 37.9464 11.1726 43.3427C11.1506 43.0645 11.1359 42.7843 11.1359 42.4998C11.1359 36.7088 15.827 32.0137 21.6153 32.0137C27.4036 32.0137 32.0947 36.7078 32.0947 42.4998C32.0947 42.7832 32.08 43.0645 32.058 43.3427C31.629 37.9464 27.1194 33.6994 21.6153 33.6994Z" fill="#CED5E0"/>
        <path d="M21.6153 52.8418C27.5924 52.8418 32.4734 48.1456 32.7734 42.2402C32.7828 42.4323 32.7881 42.6255 32.7881 42.8196C32.7881 48.9948 27.7854 54.0007 21.6142 54.0007C15.443 54.0007 10.4404 48.9948 10.4404 42.8196C10.4404 42.6255 10.4456 42.4323 10.4551 42.2402C10.7561 48.1456 15.6371 52.8418 21.6142 52.8418H21.6153Z" fill="#CED5E0"/>
        <path d="M21.6153 34.754C17.2442 34.754 13.6944 38.2379 13.5664 42.5803C13.5643 42.5006 13.5549 42.4218 13.5549 42.341C13.5549 37.8862 17.1634 34.2754 21.6153 34.2754C26.0673 34.2754 29.6758 37.8862 29.6758 42.341C29.6758 42.4218 29.6663 42.5006 29.6642 42.5803C29.5363 38.2379 25.9865 34.754 21.6153 34.754Z" fill="#CED5E0"/>
        <path d="M21.6153 50.9103C17.2442 50.9103 13.6944 47.4264 13.5664 43.084C13.5643 43.1648 13.5549 43.2425 13.5549 43.3233C13.5549 47.7781 17.1634 51.3889 21.6153 51.3889C26.0673 51.3889 29.6758 47.7781 29.6758 43.3233C29.6758 43.2425 29.6663 43.1638 29.6642 43.084C29.5363 47.4264 25.9865 50.9103 21.6153 50.9103Z" fill="#CED5E0"/>
        <path d="M34.3247 41.6217C34.3247 42.1067 34.7181 42.5003 35.2027 42.5003H76.705C77.1896 42.5003 77.583 42.1067 77.583 41.6217C77.583 41.1368 77.1896 40.7432 76.705 40.7432H35.2038C34.7192 40.7432 34.3258 41.1368 34.3258 41.6217H34.3247Z" fill="#CED5E0"/>
        <path d="M34.3507 41.4224C34.4409 41.0329 34.7881 40.7422 35.2035 40.7422H76.7058C77.1222 40.7422 77.4684 41.0329 77.5586 41.4224H34.3507Z" fill="#CED5E0"/>
        <path d="M77.4238 42.1191C77.2665 42.348 77.0042 42.4991 76.7042 42.4991H35.203C34.904 42.4991 34.6418 42.348 34.4834 42.1191H77.4238Z" fill="#CED5E0"/>
        <path d="M77.4894 21.031C77.4999 20.862 77.6373 20.7266 77.8093 20.7266H83.0333C83.2064 20.7266 83.3459 20.8641 83.3543 21.0352H83.3574V22.3032C83.3574 22.4816 83.2127 22.6265 83.0333 22.6265H77.8093C77.631 22.6265 77.4852 22.4816 77.4852 22.3032V21.031C77.4852 21.031 77.4873 21.031 77.4894 21.031ZM83.0333 20.8557H77.8093C77.7023 20.8557 77.6152 20.9428 77.6152 21.0499V21.7027C77.6152 21.8098 77.7023 21.8969 77.8093 21.8969H83.0333C83.1403 21.8969 83.2273 21.8098 83.2273 21.7027V21.0499C83.2273 20.9428 83.1403 20.8557 83.0333 20.8557ZM77.8093 22.4973H83.0333C83.1403 22.4973 83.2273 22.4102 83.2273 22.3032V21.9557C83.1728 21.9977 83.1078 22.0271 83.0333 22.0271H77.8093C77.7348 22.0271 77.6698 21.9977 77.6152 21.9557V22.3032C77.6152 22.4102 77.7023 22.4973 77.8093 22.4973Z" fill="#CED5E0"/>
        <path d="M53.5597 21.031C53.5702 20.862 53.7076 20.7266 53.8796 20.7266H59.1036C59.2767 20.7266 59.4162 20.8641 59.4246 21.0352H59.4277V22.3032C59.4277 22.4816 59.283 22.6265 59.1036 22.6265H53.8796C53.7013 22.6265 53.5555 22.4816 53.5555 22.3032V21.031C53.5555 21.031 53.5576 21.031 53.5597 21.031ZM59.1036 20.8557H53.8796C53.7726 20.8557 53.6856 20.9428 53.6856 21.0499V21.7027C53.6856 21.8098 53.7726 21.8969 53.8796 21.8969H59.1036C59.2106 21.8969 59.2977 21.8098 59.2977 21.7027V21.0499C59.2977 20.9428 59.2106 20.8557 59.1036 20.8557ZM53.8796 22.4973H59.1036C59.2106 22.4973 59.2977 22.4102 59.2977 22.3032V21.9557C59.2431 21.9977 59.1781 22.0271 59.1036 22.0271H53.8796C53.8051 22.0271 53.7401 21.9977 53.6856 21.9557V22.3032C53.6856 22.4102 53.7726 22.4973 53.8796 22.4973Z" fill="#CED5E0"/>
        <path opacity="0.7" d="M9.42383 32.7559H1.60256C0.00599861 32.7559 0.65427 36.2817 0.65427 36.2817L7.82727 36.1095L9.42383 32.7559Z" fill="#CED5E0"/>
        <path d="M110.424 37.5892V33.1953H114.61C114.903 33.7138 114.745 35.8804 114.565 37.5892H110.424Z" fill="#CED5E0"/>
        <path d="M110.424 34.2356V31.918H114.61C114.788 32.235 114.798 33.1681 114.739 34.2356H110.424Z" fill="#CED5E0"/>
        <path d="M6.87135 23.6934V23.3333C6.87135 22.8043 7.30039 22.375 7.82908 22.375H11.3411C11.8698 22.375 12.2988 22.8043 12.2988 23.3333V23.6934H6.87135Z" fill="#CED5E0"/>
        <path d="M33.3393 17.8035C33.5113 20.2996 35.3785 19.6583 36.2764 19.6195C37.1744 19.5817 37.4219 18.7671 37.3128 17.7007C37.1597 16.1976 36.6037 15.7231 35.7068 15.7619C34.8089 15.7997 33.1924 15.6643 33.3393 17.8035Z" fill="#CED5E0"/>
        <path d="M37.126 16.859C36.9424 17.3271 36.5543 17.6494 36.0592 17.6714C35.499 17.6955 33.0255 18.2624 33.9213 16.3646C34.3566 15.8492 35.1633 15.9216 35.6815 15.8996C36.2627 15.8744 36.8228 16.2712 37.126 16.859Z" fill="#CED5E0"/>
        <path opacity="0.7" d="M24.374 24.0332L2.40082 24.6987L1.96759 27.9285L24.374 24.0332Z" fill="#CED5E0"/>
    </g>
    <defs>
        <clipPath id="clip0_1646_6068">
            <rect width="121" height="54" fill="white" transform="matrix(-1 0 0 1 121 0)"/>
        </clipPath>
    </defs>
</svg>
