<svg width="208" height="49" fill="none" xmlns="http://www.w3.org/2000/svg"><g clip-path="url(#clip0_1639_3397)"><path d="M19.907 48.472c-.41-.033-.684-.134-.825-.303-.129-.174-.448-.92-.448-1.296 0 0-1.684-12.91-1.684-14.672 0-.915 1.684-1.634 1.684-1.634l11.782.028h2.806s.841 1.123-3.928 1.123c-.791.028-3.495.045-4.421.034l-2.907-.028v6.196h7.087c1.425 0 2.435 1.7 0 1.7-1.246 0-7.087.147-7.087.147s.348 6.23.595 7.1c.264.219 5.1-.252 5.1-.252 1.173 0 4.13-.702 5.162-1.039 1.033-.337 2.357-.673 3.49-.954 0 .011.011.056.04.146a4.677 4.677 0 01.18.808c.033.174.05.348.05.522 0 .41-.107.718-.315.932-.207.207-.544.365-1.01.46-.46.09-5.42 1.078-5.42 1.078-.594-.011-7.103.017-7.625 0a42.112 42.112 0 01-1.386-.05 28.287 28.287 0 01-.931-.051l.011.005zm91.026-9.172h8.977v1.685h-8.977V39.3zM63.24 33.122s-2.581-1.79-4.489-1.965c-4.191-.387-7.692 2.588-8.416 6.735.842 10.104 7.575 9.542 7.575 9.542s3.366 0 6.172-3.087c1.122-.28 1.963-.561 3.927.561-2.244 3.649-7.013 4.49-12.344 3.93-4.55-.478-7.917-3.346-8.697-7.858-.886-5.125 1.123-11.226 13.186-11.226 0 0 2.525.28 4.208 1.403.696.46 1.403 1.965 1.403 1.965H63.24z" fill="#fff"/><path fill-rule="evenodd" clip-rule="evenodd" d="M71.376 43.51l-1.122 5.052 2.805.281 1.964-5.613 7.575-.28 1.964 5.893h3.927l-2.244-6.455s5.05.562 4.208-1.122h-4.208c-3.367-8.139-7.294-11.226-8.978-11.226-1.346 0-2.059.747-2.244 1.123l-3.086 11.506h-1.683l.28.842h.842zm6.453-9.26l-2.245 7.577h6.453l-4.208-7.577zm15.429-1.404c-.561-.56-1.403-.56-1.683-.56-.5 0 1.402-1.685 2.244-2.246h10.38c1.403 0 5.611 2.806 5.611 3.368 0 1.964 1.683 3.929-8.697 7.296 0 0 4.769 2.526 12.624 8.139h-4.488s-10.38-7.297-12.064-7.297c-.56 0 1.403 7.297 1.403 7.297h-3.366c-.657-.747-1.964-2.863-1.964-5.332V32.846zm12.624 1.965c-.673 1.796-6.638 3.929-9.258 4.77-.185-2.43-.449-7.464 0-8.138.45-.673 3.367-.657 4.769-.561 1.779.561 5.162 2.133 4.489 3.929z" fill="#fff"/><path d="M35.747 38.74h6.733v1.684h-6.733V38.74zm102.959-5.613s-2.581-1.791-4.489-1.965c-4.191-.387-7.692 2.587-8.416 6.735.841 10.104 7.574 9.542 7.574 9.542s3.367 0 6.172-3.087c1.123-.28 1.964-.561 3.928.561-2.244 3.649-7.014 4.49-12.344 3.93-4.55-.478-7.917-3.346-8.697-7.859-.886-5.124 1.122-11.225 13.186-11.225 0 0 2.525.28 4.208 1.403.696.46 1.403 1.965 1.403 1.965h-2.525zM150.489 48c-1.123 0-2.907.074-3.367 0V30.04h3.928l8.696 11.787-1.402-12.348h4.769l.842 19.083h-3.928s-8.697-12.91-8.977-12.91c-.281 6.736-.561 12.068-.561 12.349z" fill="#fff"/><path d="M184.715 9.272c-9.819.562-14.027 5.613-14.588 8.42l25.249-4.49c-2.806 4.49-44.983 8.604-54.987 8.138-30.972.449-75.561-.185-94.823-.842-6.172-.842-21.49-.169-22.163.28-.842.562-8.136 3.93-14.027 4.49-2.245 0-5.33 3.088-5.611 6.456-4.775 0-3.647 8.419-3.653 11.787 1.683-10.104 5.611-11.226 6.453-11.226 4.937 0 8.046-2.902 9.538-4.21-2.525-1.122-2.525-.903-2.525-1.403s7.014-1.403 10.66-1.965c56.951-.841 107.729.562 115.304-.841 7.855 0 20.76-1.123 20.76-1.123 6.172 1.965 9.258 4.77 12.344 7.577-5.05-1.964-7.294-2.806-12.905-5.051 1.964 5.613 7.76 7.392 10.38 7.577 4.208.28 9.539 3.368 9.539 3.368.656-1.97-3.928-8.42-7.295-12.348 20.761 5.051 32.543-10.48 35.629-17.4-.561.657-2.356 2.133-5.049 2.806-3.367.842-8.978.28-18.236 0h.006z" fill="#9BCB30"/><path d="M135.9 20.498l26.371-1.404-15.149-9.822c-.842-.561-.842-2.526.841-5.332.146-.242-9.819 0-9.819 0-50.778-8.7-70.696-.28-70.696-.28s1.122 1.835.28 2.244c-8.697 4.21-21.04 13.471-21.04 13.471h4.488S66.886 5.343 88.77 4.782c.561.28-1.964 15.435-1.964 15.435h3.928L94.94 4.501s40.117-.561 44.606 6.174c.281 6.736-3.647 9.823-3.647 9.823z" fill="#9BCB30"/><path d="M57.349 8.71s3.086-3.086 10.1-5.05l.28.56c-2.716 1.364-10.38 4.49-10.38 4.49z" fill="#000"/></g><defs><clipPath id="clip0_1639_3397"><path fill="#fff" d="M0 0h208v49H0z"/></clipPath></defs></svg>