<svg width="122" height="29" fill="none" xmlns="http://www.w3.org/2000/svg"><g clip-path="url(#clip0_1651_13552)"><path d="M11.677 28.688c-.24-.02-.402-.08-.484-.18-.076-.103-.263-.545-.263-.767 0 0-.988-7.64-.988-8.683 0-.542.988-.967.988-.967l6.91.016h1.646s.494.665-2.303.665c-.465.016-2.05.026-2.594.02l-1.705-.017v3.668h4.157c.836 0 1.428 1.006 0 1.006-.73 0-4.157.086-4.157.086s.205 3.688.35 4.203c.154.13 2.99-.15 2.99-.15.689 0 2.423-.415 3.029-.614a31.46 31.46 0 012.047-.565.56.56 0 00.023.086 2.65 2.65 0 01.105.478c.02.104.03.207.03.31 0 .242-.063.425-.185.55-.122.124-.319.217-.592.273-.27.053-3.18.638-3.18.638-.348-.007-4.166.01-4.472 0a24.716 24.716 0 01-.813-.03 16.45 16.45 0 01-.546-.03l.007.004zm53.389-5.428h5.266v.996h-5.266v-.996zm-27.973-3.658s-1.514-1.06-2.633-1.162c-2.458-.23-4.512 1.531-4.937 3.986.494 5.98 4.443 5.647 4.443 5.647s1.975 0 3.62-1.827c.659-.166 1.152-.332 2.304.332-1.316 2.16-4.114 2.658-7.24 2.326-2.67-.283-4.644-1.98-5.101-4.65-.52-3.034.658-6.645 7.734-6.645 0 0 1.48.166 2.468.83.408.273.823 1.163.823 1.163h-1.481z" fill="#000"/><path fill-rule="evenodd" clip-rule="evenodd" d="M41.864 25.751l-.658 2.99 1.645.166 1.152-3.322 4.443-.166 1.152 3.488h2.304l-1.317-3.82s2.962.332 2.469-.664h-2.469c-1.974-4.817-4.278-6.644-5.265-6.644-.79 0-1.208.442-1.317.664l-1.81 6.81h-.987l.165.498h.493zm3.785-5.48l-1.316 4.484h3.784L45.65 20.27zm9.051-.831c-.33-.332-.823-.332-.988-.332-.293 0 .823-.997 1.317-1.33h6.088c.823 0 3.291 1.662 3.291 1.994 0 1.163.987 2.325-5.101 4.318 0 0 2.797 1.495 7.405 4.817h-2.633s-6.088-4.318-7.076-4.318c-.329 0 .823 4.318.823 4.318h-1.974c-.386-.442-1.152-1.694-1.152-3.156V19.44zm7.404 1.162c-.395 1.063-3.893 2.326-5.43 2.824-.108-1.438-.263-4.418 0-4.817.264-.398 1.975-.388 2.797-.332 1.044.332 3.028 1.262 2.633 2.325z" fill="#000"/><path d="M20.967 22.928h3.949v.996h-3.95v-.996zm60.389-3.322s-1.513-1.06-2.632-1.163c-2.459-.229-4.512 1.532-4.937 3.986.494 5.98 4.443 5.648 4.443 5.648s1.975 0 3.62-1.827c.658-.166 1.152-.332 2.304.332-1.317 2.16-4.114 2.657-7.24 2.325-2.67-.282-4.644-1.98-5.101-4.65-.52-3.033.658-6.644 7.733-6.644 0 0 1.481.166 2.469.83.408.273.822 1.163.822 1.163h-1.48zm6.912 8.803c-.659 0-1.705.043-1.975 0v-10.63h2.304l5.1 6.975-.822-7.308h2.797l.494 11.295h-2.304s-5.1-7.64-5.265-7.64c-.165 3.986-.33 7.141-.33 7.308z" fill="#000"/><path d="M108.342 5.488c-5.759.332-8.227 3.321-8.556 4.982l14.809-2.657c-1.645 2.657-26.383 5.092-32.251 4.817-18.166.265-44.32-.11-55.618-.499-3.62-.498-12.604-.1-13 .166-.493.333-4.771 2.326-8.227 2.658-1.316 0-3.126 1.827-3.29 3.82-2.801 0-2.14 4.983-2.143 6.976.987-5.98 3.29-6.644 3.784-6.644 2.897 0 4.72-1.717 5.595-2.491-1.48-.665-1.48-.535-1.48-.83 0-.296 4.113-.831 6.252-1.163 33.403-.498 63.187.332 67.63-.498 4.607 0 12.176-.665 12.176-.665 3.62 1.163 5.43 2.824 7.241 4.485-2.962-1.163-4.279-1.661-7.57-2.99 1.152 3.322 4.552 4.375 6.089 4.484 2.468.167 5.594 1.994 5.594 1.994.385-1.166-2.303-4.983-4.278-7.309 12.177 2.99 19.088-6.201 20.898-10.297-.329.388-1.382 1.262-2.962 1.66-1.975.499-5.266.167-10.696 0h.003z" fill="#9BCB30"/><path d="M79.71 12.131l15.468-.83-8.886-5.813c-.493-.333-.493-1.495.494-3.156.086-.143-5.76 0-5.76 0-29.783-5.15-41.466-.166-41.466-.166s.659 1.086.165 1.328c-5.101 2.492-12.341 7.973-12.341 7.973h2.633s9.214-8.305 22.05-8.637c.328.166-1.153 9.135-1.153 9.135h2.304l2.468-9.301s23.53-.332 26.164 3.654c.164 3.986-2.14 5.813-2.14 5.813z" fill="#9BCB30"/><path d="M33.637 5.156s1.81-1.827 5.923-2.99l.165.332c-1.593.807-6.088 2.658-6.088 2.658z" fill="#000"/></g><defs><clipPath id="clip0_1651_13552"><path fill="#fff" d="M0 0h122v29H0z"/></clipPath></defs></svg>