<svg width="20" height="20" fill="none" xmlns="http://www.w3.org/2000/svg"><g id="Linear / Time / Calendar"><path id="Vector" d="M1.667 10c0-3.143 0-4.714.976-5.69.977-.976 2.548-.976 5.69-.976h3.334c3.143 0 4.714 0 5.69.976.977.976.977 2.547.977 5.69v1.667c0 3.143 0 4.714-.977 5.69-.976.977-2.547.977-5.69.977H8.334c-3.143 0-4.714 0-5.69-.977-.977-.976-.977-2.547-.977-5.69V10z" stroke="#fff" stroke-width="1.5"/><path id="Vector_2" d="M5.833 3.333v-1.25" stroke="#fff" stroke-width="1.5" stroke-linecap="round"/><path id="Vector_3" d="M14.167 3.333v-1.25" stroke="#fff" stroke-width="1.5" stroke-linecap="round"/><path id="Vector_4" d="M2.083 7.5h15.833" stroke="#fff" stroke-width="1.5" stroke-linecap="round"/><path d="M15 14.167a.833.833 0 11-1.667 0 .833.833 0 011.667 0zm0-3.334a.833.833 0 11-1.667 0 .833.833 0 011.667 0z" id="Vector_5" fill="#fff"/><path d="M10.834 14.167a.833.833 0 11-1.667 0 .833.833 0 011.667 0zm0-3.334a.833.833 0 11-1.667 0 .833.833 0 011.667 0z" id="Vector_6" fill="#fff"/><path d="M6.667 14.167a.833.833 0 11-1.667 0 .833.833 0 011.667 0zm0-3.334a.833.833 0 11-1.667 0 .833.833 0 011.667 0z" id="Vector_7" fill="#fff"/></g></svg>