<svg width="18" height="18" fill="none" xmlns="http://www.w3.org/2000/svg"><g id="Linear / Messages, Conversation / Letter" stroke="#1C274C"><path id="Vector" d="M1.5 9c0-2.828 0-4.243.879-5.121C3.257 3 4.672 3 7.5 3h3c2.828 0 4.243 0 5.121.879.879.878.879 2.293.879 5.121 0 2.828 0 4.243-.879 5.121C14.743 15 13.328 15 10.5 15h-3c-2.828 0-4.243 0-5.121-.879C1.5 13.243 1.5 11.828 1.5 9z"/><path id="Vector_2" d="M4.5 6l1.62 1.35C7.496 8.496 8.184 9.07 9 9.07s1.503-.574 2.88-1.722L13.5 6" stroke-linecap="round"/></g></svg>