<svg width="16" height="16" fill="none" xmlns="http://www.w3.org/2000/svg"><g id="Linear / Like / Heart"><path id="Vector" d="M5.974 12.607l.464-.59-.464.59zM8 3.667l-.54.52a.75.75 0 001.08 0L8 3.667zm2.025 8.94l.464.589-.464-.59zm-3.587-.59c-1.025-.807-2.102-1.565-2.96-2.53-.83-.937-1.395-2.01-1.395-3.396h-1.5c0 1.855.776 3.267 1.774 4.392.973 1.095 2.217 1.975 3.153 2.713l.928-1.178zM2.083 6.092c0-1.34.757-2.452 1.77-2.915.966-.441 2.298-.348 3.606 1.01l1.081-1.04C6.848 1.39 4.847 1.074 3.23 1.813 1.66 2.53.583 4.19.583 6.091h1.5zm3.427 7.105c.339.267.72.565 1.108.793.389.227.858.427 1.382.427v-1.5c-.143 0-.34-.056-.625-.223-.284-.165-.584-.397-.937-.675l-.928 1.178zm4.98 0c.936-.738 2.18-1.618 3.152-2.713.999-1.125 1.774-2.537 1.774-4.392h-1.5c0 1.387-.564 2.46-1.395 3.396-.858.965-1.935 1.723-2.96 2.53l.928 1.179zm4.926-7.105c0-1.902-1.076-3.561-2.646-4.279-1.618-.74-3.619-.423-5.31 1.335l1.08 1.04c1.308-1.36 2.64-1.452 3.606-1.01 1.013.462 1.77 1.574 1.77 2.914h1.5zm-5.855 5.927c-.353.278-.652.51-.937.675-.284.167-.481.223-.624.223v1.5c.523 0 .992-.2 1.381-.427.39-.228.77-.526 1.108-.793l-.928-1.178z" fill="#fff"/></g></svg>