<svg width="21" height="21" fill="none" xmlns="http://www.w3.org/2000/svg"><g clip-path="url(#clip0_1896_6444)" fill="#fff"><path d="M10.5 1.892c2.804 0 3.135.01 4.242.062 1.022.047 1.578.218 1.949.36.489.191.84.418 1.208.787.368.368.595.716.786 1.208.143.37.313.926.36 1.949.05 1.107.062 1.44.062 4.242s-.01 3.135-.062 4.242c-.047 1.023-.217 1.579-.36 1.95-.19.488-.418.84-.786 1.207a3.24 3.24 0 01-1.208.786c-.37.143-.927.314-1.95.36-1.106.05-1.437.063-4.242.063-2.804 0-3.135-.01-4.241-.062-1.023-.047-1.58-.218-1.95-.36a3.26 3.26 0 01-1.208-.787 3.239 3.239 0 01-.786-1.208c-.143-.37-.313-.926-.36-1.949-.05-1.107-.062-1.44-.062-4.242s.01-3.135.062-4.242c.047-1.023.217-1.579.36-1.95.19-.488.418-.84.786-1.207a3.239 3.239 0 011.208-.786c.37-.143.927-.314 1.95-.36 1.106-.05 1.44-.063 4.241-.063zM10.5 0C7.647 0 7.29.012 6.17.064c-1.117.052-1.88.228-2.55.49a5.195 5.195 0 00-1.86 1.21 5.12 5.12 0 00-1.21 1.86c-.26.667-.438 1.43-.49 2.55-.052 1.12-.064 1.477-.064 4.328s.012 3.21.064 4.329c.052 1.117.228 1.88.49 2.55a5.195 5.195 0 001.21 1.86 5.12 5.12 0 001.86 1.21c.667.26 1.43.438 2.55.49 1.12.052 1.477.064 4.328.064 2.852 0 3.21-.012 4.329-.064 1.117-.052 1.88-.228 2.55-.49a5.193 5.193 0 001.86-1.21 5.118 5.118 0 001.21-1.86c.26-.668.438-1.43.49-2.55.052-1.12.064-1.477.064-4.329 0-2.85-.012-3.209-.064-4.328-.052-1.117-.227-1.88-.49-2.55a5.194 5.194 0 00-1.21-1.86 5.12 5.12 0 00-1.86-1.21c-.667-.26-1.43-.438-2.55-.49C13.708.012 13.351 0 10.499 0z"/><path d="M10.5 5.11a5.391 5.391 0 100 10.781 5.391 5.391 0 000-10.782zm0 8.89a3.501 3.501 0 110-7 3.501 3.501 0 010 7.002zm5.606-7.846a1.26 1.26 0 100-2.52 1.26 1.26 0 000 2.52z"/></g><defs><clipPath id="clip0_1896_6444"><path fill="#fff" d="M0 0h21v21H0z"/></clipPath></defs></svg>