<svg width="22" height="22" fill="none" xmlns="http://www.w3.org/2000/svg"><g id="Isolation_Mode" clip-path="url(#clip0_1682_10036)" fill="#FEFEFE"><path id="Vector" d="M12.15 9.29c.304-.344.555-.692.868-.987.963-.91 2.101-1.368 3.432-1.357.732.006 1.452.058 2.156.262 1.612.466 2.547 1.58 2.995 3.158.335 1.183.396 2.399.399 3.618.005 2.57-.009 5.143 0 7.713 0 .24-.066.303-.303.303-1.32-.011-2.642-.011-3.962 0-.234 0-.284-.069-.284-.29.008-2.445.008-4.892 0-7.34 0-.612-.041-1.227-.212-1.823-.316-1.098-1.1-1.657-2.246-1.597-1.568.083-2.382.86-2.58 2.457-.046.38-.071.764-.069 1.148 0 2.38 0 4.76.006 7.139 0 .237-.058.306-.3.306a241.577 241.577 0 00-3.993 0c-.214 0-.275-.055-.275-.273.006-4.71.006-9.423 0-14.133 0-.234.077-.286.297-.286 1.262.008 2.527.01 3.79 0 .233 0 .291.074.289.295-.014.562-.006 1.125-.006 1.69l-.003-.003z"/><path id="Vector_2" d="M4.912 14.673c0 2.33-.003 4.66.005 6.99 0 .26-.063.337-.33.334-1.32-.014-2.64-.01-3.962 0-.212 0-.275-.052-.275-.27.005-4.718.005-9.436 0-14.157 0-.196.046-.265.253-.265a278.8 278.8 0 004.017 0c.259 0 .292.096.292.32-.006 2.35-.003 4.699-.003 7.048h.003z"/><path id="Vector_3" d="M5.275 2.63a2.65 2.65 0 01-2.64 2.656C1.199 5.29.005 4.095 0 2.656A2.654 2.654 0 012.643 0a2.649 2.649 0 012.634 2.63h-.002z"/></g><defs><clipPath id="clip0_1682_10036"><path fill="#fff" d="M0 0h22v22H0z"/></clipPath></defs></svg>