<svg width="22" height="22" fill="none" xmlns="http://www.w3.org/2000/svg"><g id="Linear / Map &amp; Location / Map" stroke="#fff" stroke-width="1.5"><path id="Vector" d="M2.75 7.984c0-1.351 0-2.027.36-2.42.128-.14.283-.252.456-.33.488-.216 1.128-.003 2.41.425.978.326 1.467.489 1.962.472a2.75 2.75 0 00.538-.072c.482-.114.91-.4 1.769-.972l1.267-.845c1.099-.733 1.649-1.099 2.28-1.183.63-.085 1.257.124 2.51.542l1.068.356c.907.302 1.36.453 1.62.813.26.36.26.839.26 1.795v7.451c0 1.351 0 2.027-.36 2.42-.128.14-.283.252-.456.33-.488.216-1.128.003-2.41-.425-.978-.326-1.467-.489-1.962-.472a2.75 2.75 0 00-.538.072c-.482.114-.91.4-1.769.972l-1.267.845c-1.099.733-1.648 1.099-2.28 1.184-.63.084-1.257-.125-2.51-.543l-1.068-.355c-.907-.303-1.36-.454-1.62-.814-.26-.36-.26-.839-.26-1.795V7.984z"/><path id="Vector_2" d="M8.25 6.085v12.707"/><path id="Vector_3" d="M13.75 2.75v12.833"/></g></svg>