<svg width="58" height="42" fill="none" xmlns="http://www.w3.org/2000/svg"><path d="M29.02 4.746c-1.797.781-3.848 1.856-6.153 3.223-2.265 1.328-4.082 2.617-5.449 3.867a31.117 31.117 0 00-4.277 4.746c-1.25 1.758-2.227 3.77-2.93 6.035h3.281c3.399 0 5.938.645 7.617 1.934 1.68 1.289 2.52 3.086 2.52 5.39 0 2.97-1.25 5.684-3.75 8.145-2.5 2.422-5.469 3.633-8.906 3.633-3.633 0-6.27-.977-7.91-2.93C1.46 36.797.66 34.24.66 31.113c0-6.133 2.578-12.011 7.735-17.636C13.59 7.852 19.918 3.555 27.379.586l1.64 4.16zm28.886 0c-1.797.781-3.847 1.856-6.152 3.223-2.266 1.328-4.082 2.617-5.45 3.867a31.117 31.117 0 00-4.277 4.746c-1.25 1.758-2.226 3.77-2.93 6.035h3.282c3.398 0 5.937.645 7.617 1.934 1.68 1.289 2.52 3.086 2.52 5.39 0 2.97-1.25 5.684-3.75 8.145-2.5 2.422-5.47 3.633-8.907 3.633-3.632 0-6.27-.977-7.91-2.93-1.601-1.992-2.402-4.55-2.402-7.676 0-6.133 2.578-12.011 7.734-17.636C42.477 7.852 48.805 3.555 56.266.586l1.64 4.16z" fill="#DBE8ED"/></svg>