<svg width="25" height="24" fill="none" xmlns="http://www.w3.org/2000/svg"><circle cx="12.5" cy="12" r="3" stroke="#000" stroke-width="1.5"/><path d="M14.266 2.152C13.898 2 13.432 2 12.5 2s-1.398 0-1.766.152a2 2 0 00-1.082 1.083c-.093.223-.13.484-.143.863a1.617 1.617 0 01-.79 1.353 1.617 1.617 0 01-1.567.008c-.336-.178-.58-.276-.82-.308a2 2 0 00-1.478.396C4.539 5.79 4.306 6.193 3.84 7c-.466.807-.699 1.21-.75 1.605a2 2 0 00.396 1.479c.147.192.354.353.676.555.472.297.776.803.776 1.361 0 .558-.304 1.064-.776 1.36-.322.203-.529.364-.676.556a2 2 0 00-.397 1.479c.052.394.285.798.751 1.605.466.807.7 1.21 1.015 1.453a2 2 0 001.478.396c.24-.032.484-.13.82-.308a1.617 1.617 0 011.566.008c.484.28.77.795.79 1.353.015.38.051.64.144.863a2 2 0 001.082 1.083c.368.152.834.152 1.766.152.931 0 1.397 0 1.765-.152a2 2 0 001.082-1.083c.093-.223.13-.483.143-.863a1.617 1.617 0 01.79-1.353 1.617 1.617 0 011.567-.008c.336.178.58.276.82.308a2 2 0 001.478-.396c.316-.242.549-.646 1.015-1.453.466-.807.698-1.21.75-1.605a2 2 0 00-.396-1.479c-.147-.192-.354-.353-.676-.555A1.617 1.617 0 0120.063 12c0-.558.304-1.064.776-1.36.322-.203.529-.364.676-.556a2 2 0 00.397-1.479c-.052-.394-.285-.798-.751-1.605-.466-.807-.7-1.21-1.015-1.453a2 2 0 00-1.478-.396c-.24.032-.484.13-.82.308a1.617 1.617 0 01-1.566-.008 1.617 1.617 0 01-.79-1.353c-.015-.38-.051-.64-.144-.863a2 2 0 00-1.082-1.083z" stroke="#000" stroke-width="1.5"/></svg>