<svg width="22" height="18" fill="none" xmlns="http://www.w3.org/2000/svg"><path id="Vector" d="M5.377 10.312L.437 8.736s-.59-.236-.399-.768c.04-.108.117-.203.354-.364C1.487 6.854 20.654.1 20.654.1s.54-.179.86-.058c.148.053.24.114.319.34.03.083.045.257.042.427 0 .124-.018.241-.03.42-.117 1.847-3.612 15.627-3.612 15.627s-.21.806-.957.835c-.273.01-.605-.044-1.001-.379-1.47-1.24-6.551-4.587-7.673-5.322-.063-.04-.081-.094-.093-.146-.015-.077.069-.174.069-.174s8.845-7.706 9.08-8.515c.017-.061-.052-.094-.145-.067-.588.211-10.77 6.515-11.896 7.212-.066.041-.249.015-.249.015l.01-.003z" fill="#fff"/></svg>