<svg width="21" height="17" fill="none" xmlns="http://www.w3.org/2000/svg"><path id="Vector" d="M6.388 17c7.668 0 11.86-6.539 11.86-12.211a14.6 14.6 0 00-.011-.556 8.638 8.638 0 002.08-2.222 8.089 8.089 0 01-2.394.675A4.29 4.29 0 0019.756.314a8.2 8.2 0 01-2.647 1.041A4.112 4.112 0 0014.067 0c-2.302 0-4.17 1.923-4.17 4.29 0 .338.038.664.11.98C6.542 5.09 3.47 3.383 1.414.785a4.38 4.38 0 00-.565 2.158c0 1.489.735 2.803 1.856 3.572A4.062 4.062 0 01.816 5.98v.055c0 2.078 1.437 3.814 3.344 4.207a4.067 4.067 0 01-1.881.074c.53 1.705 2.07 2.945 3.893 2.98A8.21 8.21 0 010 15.073 11.559 11.559 0 006.388 17z" fill="#fff"/></svg>