<svg width="123" height="39" fill="none" xmlns="http://www.w3.org/2000/svg"><g clip-path="url(#clip0_1646_6024)" fill="#CED5E0"><path d="M9.361 30.753l2.152 2.195s1.876-.058 2.506-.514c.63-.456 14.604 1.232 14.73 1.114.126-.118 4.867-.243 5.246-.616.377-.373-2.224-14.391-2.224-14.391l-12.01-2.667S9.279 20.894 9.364 30.753H9.36zm75.452.396l2.748 1.675s2.33 1.48 3.169 1.687c.84.206 16.995-3.362 16.995-3.362s1.889.12 1.889.724 2.811-6.688 2.811-6.688l-7.175-7.443-14.981.291s-7.26 8.841-5.455 13.117l-.001-.001zm29.015-.274h7.142s.755-.957.718-1.542c-.037-.585-7.337 0-7.337 0l-.522 1.542h-.001zM53.532.795s.719-1.087 2.452 0 2.156 2.048 1.48 2.467c-.677.418-12.893 6.534-13.274 8.306-.38 1.771-8.793 2.105-8.793 2.105l1.817-3.22S50.108 1.883 53.532.796z"/><path d="M52.13 11.111a.578.578 0 01-.199.798.592.592 0 01-.806-.197l-2.198-3.606a.578.578 0 01.199-.797.592.592 0 01.806.197l2.198 3.605zm20.953-7.297s-2.231 1.183-2.092 3.288c.138 2.105.721 2.928.721 2.928l3.361.588s.596-3.726.315-4.795c-.281-1.068-.89-2.012-2.305-2.01z"/><path d="M72.179 10.062s.164-1.7.629-1.992c.464-.292 8.708-.627 12.682-.417 3.973.21 16.316-1.045 19.275.543 2.96 1.589-31.314 2.73-32.586 1.867v-.001zm-41.051.684s1.014-.878 1.648-.795c.635.084 3.512-1.328 5.011-.56 1.5.768-2.389 3.068-2.389 3.068l-4.269-1.714h-.001z"/><path d="M35.397 11.164S46.937 2.258 54.038 0c0 0 .972.544.72.878-.255.334-5.411 1.63-16.699 9.742 0 0 16.317-.501 35.085-1.087 18.769-.585 33.251-2.764 33.407-.963.157 1.8-70.986 3.89-71.156 2.594zm83.572-.878s1.184 1.715 1.226 2.426c.042.71-.633 3.541-.846 3.804-1.86 2.3-6.426-.878-6.426-1.003 0-.124-.254-5.603 6.045-5.227h.001z"/><path d="M11.514 32.95S9.443 18.315 21.913 18.315c12.47 0 11.201 14.803 11.201 14.803l54.445-.292s-1.14-13.84 11.034-13.84c12.174 0 10.737 13.296 10.737 13.296l8.243-1.421s3.212 0 4.861-3.805c0 0 .676.084.549-.837-.127-.92-.422-1.003-.422-1.003l.169-4.18s-2.071-1.381-2.155-1.799c-.085-.418-1.014-3.261-1.014-3.261s-2.833.543-3.17.251c-.338-.292-2.368-2.927-2.156-3.68.212-.753 5.115-1.463 5.115-1.463s1.014-1.213.549-1.714c-.464-.502-1.056 1.003-13.907-.878 0 0-30.31 1.547-32.635 1.547-2.325 0-35.719 1.38-37.706.92-1.987-.46-5.2-1.004-5.2-1.004S7.71 12.213 2.806 17.816c0 0-1.817 1.757-1.987 6.774 0 0-.677.711-.38.794.297.084.422 1.003.55 1.463.127.46 0 2.006 0 2.006s-1.437 1.84-.847 2.342c.592.502 3.847 1.547 11.372 1.756zM92.548 8.113s1.269-2.3-.972-2.592c-2.24-.292-4.777 2.927-4.86 2.969-.085.042 5.834-.376 5.834-.376l-.002-.001z"/><path d="M2.463 20.005S2.3 17.56 5.096 17.072c2.795-.49 5.74-.919 5.891-.34.152.58-2.693 3.832-4.892 3.892-2.2.06-1.504-.52-2.058-.56-.555-.039-1.504.26-1.574-.059zm-.727 7.116s-.252-1.037.05-1.247c.303-.21 2.46-.579 2.895.06.434.639 1.291 2.106 1.281 2.944-.01.838-.05 1.337-.777 1.267-.726-.07-3.086.16-3.227-.458-.141-.619.191-1.53.06-1.823 0 0-.801.116-.888-.063-.086-.18-.121-.639.07-.66.192-.02.534-.02.534-.02h.002zm33.19-10.956c0 .16-.131.29-.294.29H32.87a.292.292 0 01-.294-.29c0-.16.131-.291.294-.291h1.762c.161 0 .294.13.294.29zm37.224-.629c0 .748-.613 1.355-1.37 1.355h-1.613c-.756 0-1.37-.607-1.37-1.355s.614-1.355 1.37-1.355h1.614c.756 0 1.37.607 1.37 1.355z"/><path d="M73.227 15.487c0 .268-.22.484-.49.484h-5.38a.487.487 0 01-.489-.484c0-.267.22-.484.49-.484h5.38c.27 0 .489.217.489.484zm49.331 8.952s-3.447 1.291-5.192 1.53c-1.745.238-1.632.589-1.39.8.241.21 4.107.357 6.586-1.555l-.004-.774v-.002zm-13.236 4.757s9.476-1.53 9.476-.66c0 .872-9.433 2.232-9.433 2.232s.028-1.137-.043-1.572zm-3.769-7.903l-.016-.095c.089-.014 8.882-1.358 10.041-1.613 1.121-.247.935-3.264.932-3.294l.098-.007c.009.128.192 3.132-1.009 3.396-1.162.255-9.959 1.6-10.048 1.614l.002-.001zm-93.806-4.838s.385-.062 1.11-.168c.361-.053.807-.12 1.332-.192.525-.072 1.128-.158 1.805-.245l2.244-.283c.409-.053.833-.1 1.275-.15l1.371-.155c.473-.052.96-.11 1.462-.162l1.551-.155 1.633-.161c.279-.027.561-.058.846-.082l.866-.072 3.64-.302 3.9-.256c.335-.021.671-.044 1.012-.064l1.024-.055 2.086-.104c1.407-.067 2.844-.128 4.306-.19l4.453-.176 2.27-.086c.76-.027 1.525-.053 2.292-.082 3.07-.106 6.19-.207 9.31-.304 3.12-.093 6.239-.18 9.31-.26 3.071-.084 6.093-.15 9.019-.213a1357.075 1357.075 0 0115.993-.251c2.34-.022 4.487-.03 6.388-.028 1.902.002 3.56.015 4.926.04.342.007.664.01.968.018.305.01.59.017.854.024.132.004.261.008.383.01l.352.015c.224.008.428.017.611.025.182.006.344.017.482.027a126.736 126.736 0 01.637.04l-.286-.012a68.65 68.65 0 01-.351-.016c-.138-.006-.3-.014-.484-.016-.73-.018-1.803-.032-3.168-.03-1.365 0-3.022.017-4.924.04l-3.028.048c-1.067.02-2.188.04-3.358.063l-7.555.168-8.432.215-9.017.25c-3.07.087-6.19.18-9.308.276-3.118.092-6.238.189-9.307.29l-4.563.15-4.453.155-4.304.164-2.085.087c-.344.015-.686.03-1.025.047-.339.016-.675.038-1.01.055-1.338.077-2.64.15-3.898.221l-3.64.26-.865.063c-.285.022-.567.048-.846.071l-1.633.141-1.552.132c-.503.045-.991.097-1.464.142l-1.372.135c-.442.044-.868.082-1.278.13l-2.246.243c-.34.036-.66.078-.962.112l-.849.1c-.526.059-.974.116-1.336.163-.726.09-1.112.145-1.112.145v.005zM33.75 27.863s2.65-1.734 11.306-2.287c8.659-.556 41.675-5.273 42.335-.337l-21.277 1.307s-33.31 2.867-32.578 1.724M42.42 10.1s.311 1.078.188 1.314-.214 1.033.872 1.293c1.085.26 1.48-.447 1.447-.716-.034-.268-.271-1.001-.116-1.326.157-.325-2.393-.565-2.393-.565h.001zm4.583-.905a2.881 2.881 0 00-.11-.707c-.47-1.661-1.407-1.496-1.407-1.496s-3.575.922-3.402 2.668c.946.001 3.678-.033 4.919-.465z"/><path d="M42.084 9.66a.781.781 0 00.006.054c.255 1.78 4.111 1.204 4.111 1.204s.828-.55.801-1.724c-1.24.432-3.972.466-4.918.465z"/><path d="M36.12 30.753a.119.119 0 01-.048-.011c-.355-.159-.611-2.1-.723-5.464-.167-5.008-.191-13.524 1.518-14.286l.04.087c-1.21.54-1.742 5.714-1.46 14.196.155 4.659.539 5.289.653 5.372a.04.04 0 00.02.008l.01-.007h.018c.24-.003 24.13-.294 29.74-.517 4.672-.186 5.093-1.457 5.5-2.686.084-.255.172-.52.296-.77.49-.992 1.654-5.601 2.504-8.968.393-1.557.733-2.902.918-3.542.574-1.985-1.117-4.095-1.135-4.116l.076-.06c.018.02 1.74 2.17 1.153 4.203-.185.639-.524 1.982-.917 3.538-.851 3.37-2.017 7.985-2.511 8.986-.121.245-.207.505-.292.758-.417 1.261-.848 2.564-5.588 2.753-5.56.221-29.07.508-29.73.516a.096.096 0 01-.04.008l-.001.002zm-4.17-1.386c0 5.32-4.36 9.633-9.74 9.633-5.379 0-9.737-4.313-9.737-9.633 0-5.32 4.36-9.634 9.738-9.634 5.378 0 9.739 4.313 9.739 9.634z"/><path d="M14.877 29.368c0 4.019 3.294 7.276 7.358 7.276 4.063 0 7.356-3.257 7.356-7.276 0-4.02-3.293-7.277-7.356-7.277-4.064 0-7.358 3.258-7.358 7.277z"/><path d="M19.681 24.488l1.703 1.914s.294.46.695.46c.402 0 .698-.322.698-.322l1.779-2.052s.248-.29 0-.49-1.116-.49-2.323-.49c-1.206 0-2.987.321-2.553.979l.001.001zm0 9.757l1.703-1.913s.294-.459.697-.459c.403 0 .697.321.697.321l1.78 2.051s.247.291 0 .49c-.248.2-1.117.49-2.323.49-1.205 0-2.986-.32-2.553-.98zm7.546-7.311l-1.935 1.684s-.465.29-.465.688c0 .398.325.69.325.69l2.075 1.761s.294.245.494 0c.201-.245.495-1.105.495-2.297 0-1.193-.324-2.954-.99-2.525v-.001zm-9.864 0l1.935 1.684s.464.29.464.688c0 .398-.324.69-.324.69l-2.074 1.761s-.294.245-.495 0c-.202-.245-.496-1.105-.496-2.297 0-1.193.326-2.954.991-2.525l-.001-.001zm90.847 2.433c0 5.32-4.36 9.633-9.74 9.633-5.379 0-9.738-4.313-9.738-9.633 0-5.32 4.36-9.634 9.738-9.634 5.378 0 9.74 4.313 9.74 9.634z"/><path d="M91.139 29.368c0 4.019 3.294 7.276 7.357 7.276 4.064 0 7.357-3.257 7.357-7.276 0-4.02-3.293-7.277-7.357-7.277-4.063 0-7.357 3.258-7.357 7.277z"/><path d="M95.941 24.488l1.702 1.914s.294.46.696.46c.402 0 .697-.322.697-.322l1.78-2.052s.248-.29 0-.49-1.116-.49-2.323-.49c-1.206 0-2.987.321-2.553.979l.001.001zm0 9.757l1.703-1.913s.295-.459.697-.459c.402 0 .697.321.697.321l1.779 2.051s.248.291 0 .49c-.247.2-1.117.49-2.322.49-1.206 0-2.986-.32-2.554-.98zm7.546-7.311l-1.934 1.684s-.465.29-.465.688c0 .398.325.69.325.69l2.074 1.761s.294.245.495 0 .495-1.105.495-2.297c0-1.193-.325-2.954-.99-2.525v-.001zm-9.864 0l1.934 1.684s.465.29.465.688c0 .398-.325.69-.325.69l-2.073 1.761s-.294.245-.496 0c-.201-.245-.495-1.105-.495-2.297 0-1.193.326-2.954.99-2.525v-.001z"/></g><defs><clipPath id="clip0_1646_6024"><path fill="#fff" d="M0 0h123v39H0z"/></clipPath></defs></svg>