<svg width="153" height="62" fill="none" xmlns="http://www.w3.org/2000/svg"><path d="M7.04 47.553l1.943 1.753s.757-.736 2.236-.877c1.477-.14 21.998 1.587 21.998 1.587s2.728-.457 3.809-.71c1.08-.252 70.215-.847 70.215-.847l.806 1.064s1.497-1.007 3.628-1.262c2.132-.255 21.573-1.332 21.573-1.332s1.115.937 1.865.653c.75-.285 3.365-2.55 3.365-2.55l-2.728-13.451-17.48-2.578-21.87-1.019-64.32 2.095-24.142 1.36-1.864 10.11.967 6.004H7.04zm13.646-26.195s-.424-1.536-.264-1.635c.159-.098 3.978-1.463 4.425-1.726.449-.262 16.912-15.879 19.942-15.59 3.029.288-2.74 10-2.74 10l-17.754 10.63-3.609-1.68zm129.718 18.286s2.429.432 2.462 1.592c.033 1.16 1.465 5.536-5.889 5.205-7.354-.331-.599-7.393 3.427-6.797z" fill="#CED5E0"/><path d="M5.908 26.738l-1.266.688s-1.579 3.565-1.525 5.008c.052 1.444-.014 5.582.216 5.98.23.396 2.575.344 2.575.344l2.028-.314s-.421-10.946-2.028-11.706z" fill="#CED5E0"/><path d="M148.109 18.386c.266-.863-2.387-9.636-2.387-9.636h2.226c-.78-2.44-1.745-4.536-2.936-5.873 0 0-.366-3.116-8.017-2.446L114.099 0l-52.73.575S45.78.048 42.796 3.355l-18.185 17.02s-3.568.52-4.19-.65L5.319 26.28s-.561.123-.675 1.146c0 0 1.66.232 1.775 1.88.113 1.65.345 8.872-.112 9.042-.456.17-2.852 0-3.024-.454 0 0-.14.357.12.595.26.239 1.162.485 1.67.507.509.021 6.05.175 6.05.175s4.42-5.83 12.144-4.63c7.722 1.198 10.2 5.392 11.356 9.3 1.155 3.907 1.106 5.536 2.718 5.681 1.612.144 70.707 0 70.707 0s.939-1.367.722-2.157c-.216-.79.073-15.246 13.714-14.31 13.641.934 12.631 14.526 12.631 14.526l13.243-1.08s.758-.79.758-2.013v-3.883s2.021.504 2.021-1.295v-9.635s-.21-5.285-1.094-11.29h-1.934z" fill="#CED5E0"/><path d="M37.166 11.845s5.668-5.724 6.957-6.39c1.289-.666 3.24-2.138 6.44-2.09 3.2.048 6.104-.33 6.104-.33h3.454s.94-.132 1.179.773c.24.903 0 14.521 0 14.521s.048.86-.478 1.004c-.525.142-22.972.478-22.972.478l-.685-7.965.001-.001zM3.987 37.565S0 38.32 0 39.709v7.082s.518 2.401 3.207 2.517c2.689.115 5.776 0 5.776 0s-1.663-8.54 2.11-10.134c.72-.305-7.106-1.608-7.106-1.608v-.002zm144.122-19.179h1.933c-.478-3.241-1.15-6.692-2.093-9.636h-2.226s2.653 8.773 2.386 9.636zM33.753 49.306c0 6.47-5.264 11.716-11.759 11.716-6.494 0-11.757-5.245-11.757-11.716 0-6.47 5.264-11.714 11.757-11.714 6.494 0 11.759 5.245 11.759 11.714z" fill="#CED5E0"/><path d="M13.142 49.306c0 4.887 3.976 8.85 8.882 8.85s8.881-3.962 8.881-8.85-3.976-8.849-8.88-8.849c-4.906 0-8.883 3.962-8.883 8.849z" fill="#CED5E0"/><path d="M18.94 43.373l2.055 2.327s.355.559.84.559c.486 0 .843-.391.843-.391l2.148-2.495s.3-.354 0-.595c-.299-.243-1.347-.595-2.803-.595s-3.606.39-3.082 1.191l-.002-.001zm0 11.865l2.054-2.327s.355-.559.84-.559c.486 0 .843.391.843.391l2.148 2.495s.3.354 0 .596c-.299.242-1.347.596-2.803.596s-3.606-.391-3.082-1.192zm9.11-8.89l-2.335 2.048s-.56.354-.56.837c0 .484.392.838.392.838l2.504 2.142s.355.298.597 0c.243-.298.599-1.343.599-2.794 0-1.452-.393-3.593-1.196-3.071zm-11.908 0l2.335 2.048s.56.354.56.837c0 .484-.391.838-.391.838l-2.504 2.142s-.356.298-.599 0c-.242-.298-.599-1.343-.599-2.794 0-1.452.393-3.593 1.198-3.071zm117.79 2.238c0 6.471-5.264 11.716-11.759 11.716-6.494 0-11.757-5.245-11.757-11.716 0-6.47 5.264-11.714 11.757-11.714 6.493 0 11.759 5.245 11.759 11.714z" fill="#CED5E0"/><path d="M113.32 48.586c0 4.888 3.977 8.85 8.883 8.85 4.906 0 8.881-3.962 8.881-8.85s-3.976-8.849-8.881-8.849-8.883 3.962-8.883 8.85z" fill="#CED5E0"/><path d="M119.12 42.653l2.056 2.328s.355.558.841.558c.485 0 .842-.39.842-.39l2.148-2.496s.3-.354 0-.595c-.299-.242-1.347-.595-2.804-.595-1.457 0-3.606.39-3.083 1.191zm0 11.867l2.055-2.328s.355-.558.841-.558c.487 0 .842.39.842.39l2.149 2.495s.299.355 0 .596c-.299.242-1.348.596-2.803.596-1.456 0-3.606-.39-3.083-1.191h-.001zm9.109-8.892l-2.336 2.048s-.56.355-.56.838.392.838.392.838l2.504 2.14s.356.299.598 0c.243-.298.598-1.342.598-2.794s-.392-3.593-1.196-3.071v.001zm-11.908 0l2.336 2.048s.56.354.56.838c0 .483-.392.837-.392.837l-2.504 2.142s-.355.299-.599 0c-.242-.298-.597-1.342-.597-2.794s.392-3.593 1.196-3.071zm-51.252 2.601H38.568c-1.019 0-1.255-.46-1.278-.512l-.01-.034c-.117-.693-.614-2.006-1.242-3.667-1.134-3.004-2.69-7.118-3.153-10.658-.71-5.423.318-20.99.328-21.148l.288.02c-.01.155-1.038 15.696-.33 21.09.46 3.507 2.008 7.603 3.137 10.594.627 1.657 1.123 2.97 1.252 3.697.039.055.261.33 1.008.33h26.418c.115-.08.516-.394.516-.888 0-.657-.472-46.02-.478-46.477l.29-.003c.005.458.477 45.822.477 46.48 0 .74-.66 1.139-.688 1.157l-.034.02v-.001z" fill="#CED5E0"/><path d="M38.21 11.41h-.057c-1.02 0-1.848.825-1.848 1.841v5.379c0 1.017.827 1.84 1.848 1.84h.057c1.02 0 1.848-.823 1.848-1.84v-5.378a1.845 1.845 0 00-1.848-1.842zm26.27 15.208c0 .819-.641 1.417-1.461 1.417h-.083c-.822 0-1.513-.598-1.513-1.417v-3.762c0-.819.691-1.548 1.513-1.548h.083c.821 0 1.46.73 1.46 1.548v3.762z" fill="#CED5E0"/><path d="M63.356 21.942h-.046a.486.486 0 00-.487.485v3.853c0 .268.218.485.487.485h.046a.486.486 0 00.486-.485v-3.853a.486.486 0 00-.486-.485zm79.815.111h-71.26c-1.486 0-2.839-1.348-2.839-2.829V7.623c0-1.401 1.274-2.541 2.84-2.541h67.651c1.483 0 2.107.954 2.686 2.602l3.617 11.59v.022c0 1.495-1.234 2.757-2.695 2.757zM71.911 5.369c-1.406 0-2.55 1.011-2.55 2.254v11.601c0 1.33 1.215 2.54 2.55 2.54h71.26c1.297 0 2.395-1.117 2.406-2.447l-3.602-11.545c-.547-1.557-1.095-2.403-2.412-2.403H71.911zm-33.064 5.406h-.058c-1.02 0-1.848.825-1.848 1.842v5.378c0 1.017.828 1.841 1.848 1.841h.058c1.02 0 1.848-.824 1.848-1.841v-5.378a1.845 1.845 0 00-1.848-1.842z" fill="#CED5E0"/></svg>