<svg xmlns="http://www.w3.org/2000/svg" width="125" height="44" fill="none"><g clip-path="url(#clip0_1646_5955)" fill="#CED5E0"><path d="M55.516 2.487s-6.526 1.815-20.273 11.3l-.698 3.737 13.184-1.3s9.774-10.48 9.774-10.643c0-.162-1.987-3.094-1.987-3.094z"/><path d="M31.886 14.195l1.96-.406s1.1-1.247 1.612-1.138c.51.108 1.127.19.833.514-.295.325-.591 1.87-1.612 2.33-1.02.46-3.463.081-2.793-1.301zm-21.073 21.76l2.428 2.903s.813.21 1.73-.714c.918-.926 15.656 1.052 15.656 1.052s3.06.006 4.893-.006c1.834-.011 47.64-2.046 47.64-2.046l7.1 1.715s2.544-.553 3.776-.344c1.232.21 15.053-.432 15.053-.432s3.976.715 4.587-.506c.612-1.222 5.196-17.076-7.064-17.322-12.26-.247-68.022 9.253-68.022 9.253L23.96 20.81l-12.72 3.985-.43 11.161h.003z"/><path d="M124.981 23.918c.214-1.165-1.451-1.733-1.451-1.733s.188-.731 0-1.842c-.188-1.11-.645-4.605-1.154-5.58-.51-.975-.894-1.085-.894-1.085l-.1.598c-1.004-.514-5.063-1.084-5.843-1.22-.779-.134-1.838-.947-4.254-3.52-2.417-2.573-3.437-5.417-3.437-5.417l1.611-1.246c.349-.759-3.893-1.03-3.893-1.03C104.09 1.681 85.401.083 74.472.001 63.544-.081 55.06 2.519 54.602 2.818c-.457.297-.188 1.192-.188 1.192-2.309.406-16.97 10.59-17.883 10.833-.913.244-3.249.352-4.19-.054-.939-.407 1.128-.92 1.128-.92s-5.183-.055-18.232 3.114C2.187 20.153.791 23.565.603 24.297c-.187.73-.456 1.868-.456 1.868-.188.975-.08 4.144-.13 4.496-.05.351.023.623.023.623a3.17 3.17 0 00-.022.376c.404.04.961.085 1.374.085.726 0 2.54.314 2.452 1.34-.086 1.029.328 2.056-1.14 2.353-1.28.258-1.93.318-2.36-.168a1.038 1.038 0 00-.114.183c-.215.461.407.691.407.691 2.094 1.452 12.601 2.713 12.601 2.713-1.273-3.45-1.305-15.047 10-15.129 11.303-.082 11.491 15.466 11.491 15.466l55.529-.337c-.672-2.069-2.041-14.586 10.606-14.56 12.648.027 11.692 13.907 11.692 13.907h.15c1.451 0 4.323-.873 5.29-1.035.966-.163 4.135-1.93 5.263-2.58 1.127-.65.832-4.388.832-4.875 0-.487-.563-2.194-.457-2.87.108-.678 1.128-1.76 1.343-2.925l.004-.001z"/><path d="M2.706 35.437c1.468-.296 1.054-1.324 1.14-2.352.086-1.029-1.727-1.341-2.452-1.341-.413 0-.97-.046-1.374-.085-.004 1.36.86 2.263.91 2.71.046.418-.338.576-.584.9.432.486 1.082.426 2.36.168zM109.041 2.606s.453.242 1.145.673c.693.43 10.124 8.036 11.59 10.884 1.466 2.848-3.09 1.128-3.09 1.128l-12.895-7.82s.399-3.978 3.25-4.865zm-70.45 13.968s9.24-8.67 16.294-11.415c7.054-2.746 12.534-2.995 25.067-2.672 12.535.323 17.906 1.588 20.162 3.466 2.256 1.879 3.33 3.048 3.186 4.053-.143 1.005-1.038 3.425-2.005 3.569-.966.144-25.712 1.409-26.214 1.445-.502.036-36.491 1.553-36.491 1.553h.001z"/><path d="M46.72 11.083l-.501 4.335L73.9 14.407 77.34 3.28s-14.646-.687-19.624 1.553c-4.979 2.239-6.769 2.89-10.994 6.25zm35.784-7.24L80.4 11.798s-.373 1.102 0 1.317c.373.215 11.856-.27 11.856-.27s8.206-.16 8.5-.429c.293-.268 1.705-1.931.986-3.116-.72-1.183-2.664-3.306-6.688-4.167-4.023-.86-11.642-1.451-12.548-1.29h-.002z"/><path d="M68.296 36.086c-.473 0-.792-.016-.845-.018l-29.52-.285-.025-.094c-1.808-6.659-1.375-13.831-.893-16.694.435-2.582 1.789-2.629 1.847-2.629.07-.004.128.057.13.129a.13.13 0 01-.127.13c-.05.002-1.2.064-1.597 2.414-.476 2.829-.904 9.9.863 16.487l29.33.283c.059.003 5.41.26 6.208-1.438.837-1.781 3.926-14.762 3.13-19.822l-.005-.025.005-.025 2.719-12.047a.129.129 0 11.25.059l-2.711 12.022c.789 5.12-2.313 18.158-3.155 19.95-.672 1.429-4.008 1.604-5.604 1.604v-.001zM1.064 25.734s.094-1.349 1.658-2.23c1.641-.923 2.521-1.01 3.092-.662.57.348 1.364 1.41 1.415 2.021.052.61.242 1.881-1.122 1.916-1.364.035-4.819.697-5.043-1.045zm110.821-8.111s1.483-1.763 4.351-1.738c2.867.025 5.877.766 5.83 2.71-.046 1.945-4.192 1.338-4.192 1.338s-7.062-.596-5.989-2.31zm-6.743 7.847a.13.13 0 01-.126-.103.132.132 0 01.099-.155l8.316-1.772c2.548-.282 9.3-1.214 10.084-2.15a.127.127 0 01.181-.015.132.132 0 01.016.183c-1.011 1.207-9.864 2.198-10.24 2.24l-8.303 1.769-.027.002z"/><path d="M44.229 14.904s-.956-1.548 1.414-2.833c2.37-1.285 2.37.683 2.39 1.105.02.422.12 1.948-.637 2.089-.757.14-2.98.302-3.166-.363l-.001.002zm-12.976 6.701s.216.547.578.729c.36.182.938.145 1.66.109.722-.037 1.985-.127 1.787-.692-.199-.565-3.537-.492-4.025-.146zm78.878 13.135c0 5.113-4.109 9.26-9.18 9.26s-9.18-4.145-9.18-9.26 4.109-9.26 9.18-9.26 9.18 4.145 9.18 9.26z"/><path d="M94.038 34.74c0 3.863 3.104 6.995 6.935 6.995 3.83 0 6.934-3.132 6.934-6.995 0-3.864-3.104-6.995-6.934-6.995s-6.935 3.131-6.935 6.995z"/><path d="M98.566 30.05l1.605 1.84s.276.442.656.442.656-.31.656-.31l1.679-1.971s.233-.28 0-.471c-.233-.191-1.053-.472-2.189-.472-1.137 0-2.817.31-2.407.942zm0 9.38l1.605-1.84s.278-.44.656-.44.656.308.656.308l1.677 1.972s.235.28 0 .472c-.232.19-1.052.47-2.189.47-1.136 0-2.815-.308-2.407-.94l.002-.002zm7.113-7.028l-1.823 1.619s-.438.279-.438.662.306.662.306.662l1.955 1.693s.278.235.466 0c.191-.235.467-1.062.467-2.208 0-1.147-.306-2.84-.934-2.428h.001zm-9.299 0l1.824 1.619s.438.279.438.662-.306.662-.306.662l-1.955 1.693s-.278.236-.468 0c-.189-.235-.467-1.062-.467-2.208 0-1.147.307-2.84.935-2.428zM32.264 34.74c0 5.113-4.11 9.26-9.18 9.26-5.071 0-9.18-4.145-9.18-9.26s4.109-9.26 9.18-9.26c5.07 0 9.18 4.145 9.18 9.26z"/><path d="M16.17 34.74c0 3.863 3.105 6.995 6.937 6.995 3.831 0 6.934-3.132 6.934-6.995 0-3.864-3.104-6.995-6.934-6.995s-6.936 3.131-6.936 6.995z"/><path d="M20.7 30.05l1.605 1.84s.277.442.657.442.656-.31.656-.31l1.678-1.971s.233-.28 0-.471c-.233-.191-1.053-.472-2.189-.472-1.136 0-2.815.31-2.407.942zm-.001 9.38l1.604-1.84s.278-.44.657-.44c.378 0 .656.308.656.308l1.677 1.972s.235.28 0 .472c-.233.19-1.052.47-2.189.47-1.136 0-2.815-.308-2.407-.94l.002-.002zm7.113-7.028l-1.824 1.619s-.437.279-.437.662.306.662.306.662l1.955 1.693s.278.235.467 0c.19-.235.468-1.062.468-2.208 0-1.147-.307-2.84-.935-2.428zm-9.298 0l1.823 1.619s.438.279.438.662-.306.662-.306.662l-1.956 1.693s-.278.236-.467 0c-.189-.235-.467-1.062-.467-2.208 0-1.147.306-2.84.934-2.428z"/></g><defs><clipPath id="clip0_1646_5955"><path fill="#fff" d="M0 0h125v44H0z"/></clipPath></defs></svg>