<svg width="124" height="66" fill="none" xmlns="http://www.w3.org/2000/svg"><g id="_241" clip-path="url(#clip0_1379_139)" fill="#000"><g id="Group"><path id="Vector" d="M119.745 55.045l.11-.109.348-.4c.312-.53 1.138-1.477 2.22-2.717 0-.036-.147.11.238-.419.881-1.203.936-1.622 1.027-1.877.055-.256.147-.42.294-1.477-.073.657-.33 1.44-.495 1.732.513-1.276.66-2.68.385-4.01.037.565 0 1.02-.11.364-.055.401-.367-.856-.679-1.239.22.638.257 1.185.275 1.44-.073-.073-.146-.71-.422-1.44 0 .055 0 .128.037.237-.018-.11-.037-.182-.037-.237a8.206 8.206 0 00-.733-1.44c.146.255.293.529.183.401a6.35 6.35 0 01.77 2.06c0 .073 0 0-.055-.128.055.182.074.365.129.565l-.037-.437c0-.164.055.127.11.437.055.602.019.748 0 1.04 0 .4-.036.801-.11 1.184 0 .237.202-.529.239-1.148 0-.602.036-1.021.073-.037l-.073.602c-.074.911-.551 2.06-.844 2.606-.587.747-1.504 2.005-1.688 2.06a499.37 499.37 0 01-3.393 4.028h-3.21c-1.009 0-1.926-.036-2.88-.073-.569.073-.734.255-2.018.31 0-.146-.018-.401-.018-.747.036-.438.036-1.058.055-.857-.055-.51-.055-.747-.147-1.076.055.31.055.493.073.948.019.383 0 .784-.036 1.003 0-2.26-.092.82-.184.948.019-.547.037-1.112.037-1.677-.055-.62-.037-.875-.11-1.203v.237c.037.145.037.273.037.455 0 .237.036.474 0 .73l-.074 1.549c2.898.054 5.852.09 8.768.146l1.871-2.188.055-.073.019-.073z"/><g id="Group_2"><path id="Vector_2" d="M93.514 45.349c-2.073.82-3.302 1.932-3.486 1.859.496-.474 1.046-.875 1.615-1.258a12.065 12.065 0 00-2.88 2.315 11.67 11.67 0 00-1.21 2.06c-.331.51-.514.747-.551.765-.349.838-.642 1.695-.826 2.552-.091.419-.183.893-.201 1.276a6.85 6.85 0 00-.074 1.02c-.385.055-.88-.036-1.265-.036-.55-.037-1.101-.055-1.651-.091-1.138-.055-2.275-.11-3.449-.164-3.026.09-6.475.09-11.244-.055l.037.11c-3.54.018-7.191.036-10.97.072H47.253c-.331 0-.716.037-.991-.036.073-.802-.129-2.752-.66-4.192a12.302 12.302 0 00-2.459-4.156c-2.164-2.443-5.393-4.01-8.768-4.138-3.375-.164-6.842 1.13-9.3 3.555a12.43 12.43 0 00-2.843 4.301c-.312.802-.569 1.659-.697 2.516-.073.4-.147.947-.147 1.22a5.865 5.865 0 000 .803c-.128.073-.385 0-.568.036h-2.587c-1.247-.054-2.604.091-3.632-.164a4.536 4.536 0 01-2.66-1.895 4.193 4.193 0 01-.642-1.532c-.11-.528-.091-1.093-.091-1.767 0-3.901.018-7.838.036-11.757a21.708 21.708 0 01-2.09-.966v4.138c0 1.786.018 3.827.073 5.978.036 1.057.055 2.17.091 3.263 0 1.294.44 2.715 1.248 3.773a6.357 6.357 0 003.136 2.242c.606.182 1.23.31 1.835.31h1.504c.935 0 1.834.036 2.696.036 1.138.036 2.257.073 3.504.127 0-.492 0-.984.018-1.512-.018-1.33.074-1.55.165-2.133.074-.51.239-1.02.386-1.513.33-1.002.843-1.914 1.449-2.77 1.229-1.677 2.971-3.008 4.934-3.682l-.202.2c3.1-1.257 6.934-.893 9.795 1.112 1.431.985 2.642 2.333 3.394 3.9.422.766.66 1.605.88 2.462.055.437.184.856.184 1.294.092.802-.037 1.932-.055 2.861 6.842-.073 13.537-.127 19.682-.2 5.65-.037 7.356-.347 9.924 0l6.071.054c2.495 0 5.026-.018 7.594-.036-.036-.875-.165-1.896-.073-2.68 0-.437.11-.874.147-1.312.183-.856.422-1.713.807-2.515.715-1.622 1.87-3.026 3.283-4.083 2.807-2.187 6.64-2.697 9.759-1.695 0-.11 1.394.219-.404-.42-2.586-.692-5.503-.327-7.557.511l.092.037z"/><path id="Vector_3" d="M120.387 42.323c-.349-.565-.698-1.148-1.083-1.768a6.677 6.677 0 00-1.577-1.75c-.679-.528-1.523-.93-2.44-1.166a4.913 4.913 0 00-.715-.128c-.33-.036-.551-.11-.826-.146l-1.596-.328c-4.292-.875-8.933-1.804-12.785-2.588l.33-.055c1.615.274 2.789.401 4.77.857l.568-.11c-3.21-1.421-13.812-2.57-16.564-3.226-5.851-1.367 3.944.31 1.12-.218 2.512.382 2.31.237.935-.146-1.486-.365-3.76-.948-5.723-1.44-.807-.747-1.541-1.422-2.055-1.896-2.843-2.643-7.594-6.616-12.638-10.717l-.459-.383-.183-.164-.294-.255a6.626 6.626 0 00-1.32-.82c-.936-.456-2-.675-3.027-.675-1.633 0-3.265 0-4.843.018-3.173 0-6.163.037-8.731.037-3.54.11-7.337.182-11.263.2.129.675.22 1.367.275 2.078 7.485-.164 15.042-.31 21.902-.455l-3.999-.073c.918-.055 2.183-.11 3.669-.164.752-.019 1.54-.037 2.366-.055.826-.037 1.67-.018 2.495.273.825.274 1.54.802 2.201 1.404.697.565 1.394 1.112 2.073 1.659 1.357 1.111 2.623 2.15 3.742 3.062l-.514-.274c-6.145-4.94.386.365-2.274-1.422l-1.1-.82.586.547 1.1.82c-.164-.054-.11.091-1.136-.71l1.412 1.166c2.861 2.716 2.696 2.916 2.11 2.862.825.62.201-.31 3.521 2.551l-.513-.273 3.833 2.88 1.706 1.567c.11.073.202.164.294.237.917.146 1.724.274 2.476.401.679.11 1.358.237 2.183.42l.569-.11c7.704 1.604 17.462 3.281 25.295 4.994.917 0 2.146.274 3.412 1.294.642.53 1.082 1.13 1.706 2.06a72.456 72.456 0 001.889 2.661l-.88-1.713z"/></g></g><g id="Group_3"><path id="Vector_4" d="M39.86 63.503c.202-.018.312-.036.495-.036.55-.219 1.413-.93 1.743-.985.055.055-.385.912-.532.985-1.357.984-2.238.984-3.852 1.403-.147 0-.569.365-1.046.583h.33c-.66.365-1.797.365-2.66.456.184.055.184.055.294.091-.715-.237-2.183-.273-3.228-.62-.202-.109-.33-.2-.459-.273-.935-.31-1.742-.802-2.751-1.422-.844-.565-1.724-1.713-2.403-2.825-1.12-2.041-1.12-4.556-1.12-6.616 0-.346.148-1.003.515-1.477-.019-.692.348-1.585.898-2.424.55-.856 1.376-1.567 2.11-2.096a2.318 2.318 0 011.32-.474c1.358-1.02 3.21-1.677 5.063-1.64 2.33 0 4.77.856 6.567 2.734.257.237.752.71 1.046.93l.183.437c.899 1.166 1.65 2.406 1.853 3.718.202 1.805-.477 1.987-.88 2.17-.386-1.75-1.413-3.045-2.55-5.068-.312-.583-1.156-1.185-1.871-1.586-.624-.273-1.193-.875-1.871-.783-.33-.329-1.028-.657-1.853-.857-.844-.164-1.798-.128-2.568.11-.129 0 0-.074-.239-.055-2.072.802-4.255 2.223-5.32 4.502-.476 1.111-1.026 2.551-.788 4.064.018.146-.037.784.073 1.185.055.128.129.255.202.383.22 1.039.88 2.078 1.192 2.788.422.82 1.083 1.368 1.67 1.914.88.893 2.825 1.404 3.815 1.805.129.073.569.055.844.073.128.054.257.09.404.127.293 0 .458-.2.733-.218 1.871-.073 3.852-1.222 4.843-1.477-.11.128-.569.547-.257.51l.055-.036z"/><path id="Vector_5" d="M44.556 56.723c.073.09.11-.237.11-.456-.092.182-.183.291-.275.656l.055-.583c-.165-.31-.074.583-.129.218.037-.328.074-.583.166-.419-.056.055-.019.2-.056.383.11.037.184-.273.276-.456l-.055.948-.074-.31-.018.019z"/><path id="Vector_6" d="M44.005 58.746l.073-.183c-.055-.109-.146.073-.238.237.312-.765.22.055.458-.4-.055-.037-.256.455-.293.346z"/><path id="Vector_7" d="M43.914 57.634c.202-.31.128-.693.312-.747-.073.31-.202.601-.294.893v-.146h-.018z"/><path id="Vector_8" d="M41.235 62.956c-.165.219-.073.11-.422.401l.477-.419-.055.036v-.018z"/><path id="Vector_9" d="M29.367 64.177c.257.274.459.51.972.766-.55-.237-.898-.675-.972-.766z"/><path id="Vector_10" d="M26.213 59.821s0-.182.128.037c.019.109-.183.036.055.346l-.183-.365v-.018z"/><path id="Vector_11" d="M38.613 65.234h-.055s-.055.037-.074.055l.129-.055z"/><path id="Vector_12" d="M37.732 65.49l.642-.11s.074-.073.11-.09c-.403.145-.311-.02-.752.2z"/><path id="Vector_13" d="M38.484 65.198h.092c.459-.292.77-.2 1.413-.675-.55.22-1.083.474-1.505.675z"/><path id="Vector_14" d="M38.998 64.815l.165-.164c.165-.091.183-.018.202 0l.33-.237c.073-.164-.99.42-1.302.51l.623-.127-.018.018z"/><path id="Vector_15" d="M40.245 62.318l.11.183c.33-.329.477-.31.826-.711-.294-.019-.532.419-.936.528z"/><path id="Vector_16" d="M36.962 65.508c.513-.11.862-.274.99-.438-.311.091-.605.2-.917.256.386 0 0 .09-.055.182h-.018z"/><path id="Vector_17" d="M36.1 65.29c.146-.02.293-.056.422-.11h-.202s-.074.054-.22.11z"/><path id="Vector_18" d="M36.338 65.162s-.055-.037-.22-.037c.073 0 .147.037.22.037z"/><path id="Vector_19" d="M37.127 64.797c-.294-.054-.239.091-.716.164 0 .146.477-.11.715-.164z"/><path id="Vector_20" d="M35.164 65.107l-.165-.11-.019.165.184-.055z"/><path id="Vector_21" d="M31.458 65.344c.495 0-.238-.219-.238-.31l.238.31z"/><path id="Vector_22" d="M34.632 64.797l.147.127.073-.072c.11 0 .293-.019.404.036.073-.164-.404-.055-.624-.091z"/><path id="Vector_23" d="M32.816 65.016c-.146-.055-.293-.11-.422-.183l.422.183z"/><path id="Vector_24" d="M35.604 64.214s-.623-.164.074-.2c-.257.018-.642.09-.404-.074-.422.037 0 .146-.294.237.239-.09.422.019.643.037h-.019z"/><path id="Vector_25" d="M34.54 64.177c-.202 0-.459-.09-.587-.036.22 0 .404.164.587.036z"/><path id="Vector_26" d="M34.356 63.83l.276.11-.184-.146-.092.037z"/><path id="Vector_27" d="M33.164 63.721c.239.037.477.073.734.055-.22-.036-.422-.09-.642-.146-.404.019-.22.11.055.2-.073-.036-.128-.072-.147-.108z"/><path id="Vector_28" d="M33.916 64.05l.22-.037s-.33-.054-.605-.09c.184.054.367.09.386.145v-.018z"/><path id="Vector_29" d="M33.531 63.904l-.238-.073s.147.055.238.073z"/><path id="Vector_30" d="M28.304 62.537c.183.164.348.365.568.51-.201-.2-.366-.382-.568-.51z"/><path id="Vector_31" d="M32.688 63.448h-.092l-.073.11c.201.018.146-.091.164-.11z"/><path id="Vector_32" d="M31.953 62.956c-.128-.146-.513-.164-.642-.237.147.2.404.274.66.401-.256-.127-.036-.11 0-.164h-.018z"/><path id="Vector_33" d="M31.275 62.464c.166.091.33.182.514.237-.037-.182-.294-.128-.514-.237z"/><path id="Vector_34" d="M30.45 62.063s-.037.037-.147 0c.036.091.22.182.33.255l-.183-.273v.018z"/><path id="Vector_35" d="M35.292 64.688c-.202 0-.385.036-.568.054.293.018.568.055.862.037-.092-.037-.184-.055-.275-.073l-.019-.019z"/><path id="Vector_36" d="M43.748 51.82c-.624-.875-1.78-2.352-2.605-3.008-1.247-1.203-3.32-2.005-5.246-2.187v-.055c-1.486-.364-3.503-.036-5.044.602l.11.036c.275-.091.605-.2.44-.036-.348.09-.844.218-.954.218l-.202.22c-.238.054-.201-.292-.733.108-.202.401-1.358.675-1.174.967-.33 0-.697.565-.917.783l.256-.054c-.531.419-1.118.765-1.265 1.075-.459.71-1.01 1.75-1.193 2.643-.238.146.33-.893-.055-.401-.367 1.695-.972 4.174-.146 6.215 0-.054-.037-.255.036-.127 0 .437.294.911.532 1.567.055-.127-.293-.948-.367-1.257.367.09-.036.2.404.947 0-.054-.037-.182 0-.182.422.73-.037.383.33.93a2.132 2.132 0 01-.092-.365c.294.565.129.164.55.73-.201 0-.11.364 0 .528.11.018.478.62.551.437.349.875.807.748 1.229 1.513.367.128-.183-.328-.055-.42.715.457.11.31.312.53.238.127 1.192.692 1.596 1.002l.073-.091c.587.474 1.78.838 2.018 1.057.348-.091-.239-.219-.734-.383-.073-.11.459-.018.679.073-.129-.036-.147-.11-.294-.091 0-.11.33.037.477.055.862.219-.348 0 0 .145.33.037 1.156.165.826-.018.697.092.256.2.623.292-.55-.128-.77.036-1.155-.164-.147.036-.11.091.055.164.587.091 1.742.255 1.724.091l.294.091.293-.127h.128c-.293-.128-.843-.183-1.063-.365-.037-.091.33 0 .513-.036l.147.127c.495 0 .367-.237 1.045-.291-.403.236.79.164 1.284.127.422-.437-.128-.2.22-.583.477-.146 1.138-.51 1.706-.71-1.284.637.734-.11-.256.491.238-.073.403-.2.623-.346.294.11-.22.364.165.346v-.2c.386-.073.68-.037 1.284-.438.037-.11.239-.419.496-.601.146 0 .257.036.715-.456.642-1.148-1.192.656-1.577.529-.716.51-1.23.546-1.743.583-.532 0-1.082.055-2.036.219-.275.164-.165.2-.734.346-.367.346.917.073 1.32.091a.983.983 0 01-.531.182l.238.128c-.972.328-.587-.146-1.43.073l.183-.073c-.165.036-.33.091-.495.11h.11c-.312.054-.404.182-.88.145l.385-.127c-.257.09-.33-.092-.716-.073.202-.055.275-.128.404-.146-.55-.091-1.027-.128-1.468-.237-1.596-.146-3.045-.93-4.109-1.987a.582.582 0 00.11.146c-.256-.128-.311-.31-.385-.474-.183-.2-.367-.42-.513-.656-.422-.42-.753-.802-1.101-1.44.055-.073.11-.055.165.018-.147-.219-.257-.328-.202-.073-.238-.383-.238-.62-.366-.93l.458.62c-.073-.31-.257-.218-.367-.637-.293-.62-.037.328-.165.31-.037-.092-.073-.165-.092-.256a2.27 2.27 0 00-.036.346c-.202-.601-.147-.947-.129-1.22 0 .145.055.29.074.437.238.09-.202-.693-.11-.93l.036.055c-.165-.638-.073.164-.201-.274l.055-.82-.11.146c-.147-.456.018-1.385.183-2.114.092-.42.11-1.003.257-1.55-.074.091-.165.292-.184.22.11-.329.367-1.003.404-.712 0-.164.055-.31.092-.474a1.41 1.41 0 01.22-.346l-.11.091c.055-.182.165-.346.238-.528.018.018.183-.128.055.127.44-.456.697-1.276 1.468-1.914l-.166.255c.367-.473.55-.346 1.01-.783h-.184c.33-.347 1.174-.656 1.082-.51-.073-.274.275-.055.404-.383l.348.109c.239-.182.495-.31.275-.346.477-.073.844-.128 1.064-.347.092-.054.55-.09.33-.164 1.083-.164.587.146 1.596.073l.037-.182c.789.073 1.578 0 2.201.073l.037.164c.403.073-.037-.182.605 0 .074.055.129.127.11.164.606.182 1.321.638 2.073 1.185-.018.018-.128-.037-.202-.055.33.219.88.565 1.248.857.623.93 1.302 2.26 1.779 3.536.679.893 1.156 1.604 1.614 1.677.22-.31.44-1.66-.11-3.336v-.036z"/></g><g id="Group_4"><path id="Vector_37" d="M104.061 63.503c.202-.018.312-.036.495-.036.551-.219 1.413-.93 1.743-.985.055.055-.385.912-.532.985-1.357.984-2.238.984-3.852 1.403-.147 0-.569.365-1.046.583h.331c-.661.365-1.798.365-2.66.456.183.055.183.055.293.091-.715-.237-2.182-.273-3.228-.62-.202-.109-.33-.2-.459-.273-.935-.31-1.742-.802-2.751-1.422-.844-.565-1.724-1.713-2.403-2.825-1.119-2.041-1.119-4.556-1.119-6.616 0-.346.147-1.003.514-1.477-.019-.692.348-1.585.898-2.424.55-.856 1.376-1.567 2.11-2.096a2.318 2.318 0 011.32-.474c1.358-1.02 3.21-1.677 5.063-1.64 2.33 0 4.77.856 6.567 2.734.257.237.752.71 1.046.93l.183.437c.899 1.166 1.651 2.406 1.853 3.718.202 1.805-.477 1.987-.881 2.17-.385-1.75-1.412-3.045-2.549-5.068-.312-.583-1.156-1.185-1.871-1.586-.624-.273-1.193-.875-1.871-.783-.33-.329-1.028-.657-1.853-.857-.844-.164-1.798-.128-2.568.11-.128 0 0-.074-.239-.055-2.072.802-4.255 2.223-5.319 4.502-.477 1.111-1.027 2.551-.789 4.064.019.146-.036.784.074 1.185.055.128.128.255.201.383.22 1.039.88 2.078 1.193 2.788.422.82 1.082 1.368 1.669 1.914.88.893 2.825 1.404 3.815 1.805.129.073.569.055.844.073.129.054.257.09.404.127.293 0 .458-.2.733-.218 1.871-.073 3.852-1.222 4.843-1.477-.11.128-.569.547-.257.51l.055-.036z"/><path id="Vector_38" d="M108.757 56.723c.073.09.11-.237.11-.456-.092.182-.183.291-.275.656l.055-.583c-.165-.31-.073.583-.128.218.036-.328.073-.583.165-.419-.055.055-.019.2-.055.383.11.037.183-.273.275-.456l-.055.948-.074-.31-.018.019z"/><path id="Vector_39" d="M108.206 58.746l.073-.183c-.055-.109-.146.073-.238.237.312-.765.22.055.459-.4-.055-.037-.257.455-.294.346z"/><path id="Vector_40" d="M108.115 57.634c.202-.31.129-.693.312-.747-.073.31-.202.601-.293.893v-.146h-.019z"/><path id="Vector_41" d="M105.437 62.956c-.166.219-.074.11-.422.401l.477-.419-.055.036v-.018z"/><path id="Vector_42" d="M93.568 64.177c.257.274.459.51.973.766-.55-.237-.9-.675-.973-.766z"/><path id="Vector_43" d="M90.414 59.821s0-.182.129.037c.018.109-.184.036.054.346l-.183-.365v-.018z"/><path id="Vector_44" d="M102.814 65.234h-.055s-.055.037-.073.055l.128-.055z"/><path id="Vector_45" d="M101.934 65.49l.642-.11s.073-.073.11-.09c-.404.145-.312-.02-.752.2z"/><path id="Vector_46" d="M102.686 65.198h.091c.459-.292.771-.2 1.413-.675-.551.22-1.083.474-1.504.675z"/><path id="Vector_47" d="M103.199 64.815l.165-.164c.165-.091.184-.018.202 0l.33-.237c.073-.164-.99.42-1.302.51l.623-.127-.018.018z"/><path id="Vector_48" d="M104.446 62.318l.11.183c.331-.329.477-.31.826-.711-.294-.019-.532.419-.936.528z"/><path id="Vector_49" d="M101.163 65.508c.514-.11.862-.274.991-.438-.312.091-.606.2-.918.256.386 0 0 .09-.055.182h-.018z"/><path id="Vector_50" d="M100.301 65.29a1.6 1.6 0 00.422-.11h-.202s-.073.054-.22.11z"/><path id="Vector_51" d="M100.539 65.162s-.055-.037-.22-.037c.074 0 .147.037.22.037z"/><path id="Vector_52" d="M101.328 64.797c-.294-.054-.239.091-.716.164 0 .146.477-.11.716-.164z"/><path id="Vector_53" d="M99.365 65.107l-.165-.11-.018.165.183-.055z"/><path id="Vector_54" d="M95.66 65.344c.495 0-.24-.219-.24-.31l.24.31z"/><path id="Vector_55" d="M98.833 64.797l.147.127.073-.072c.11 0 .294-.019.404.036.073-.164-.404-.055-.624-.091z"/><path id="Vector_56" d="M97.018 65.016a2.933 2.933 0 01-.422-.183l.422.183z"/><path id="Vector_57" d="M99.805 64.214s-.623-.164.074-.2c-.257.018-.642.09-.404-.074-.422.037 0 .146-.293.237.238-.09.421.019.642.037h-.019z"/><path id="Vector_58" d="M98.741 64.177c-.201 0-.458-.09-.587-.036.22 0 .404.164.587.036z"/><path id="Vector_59" d="M98.558 63.83l.275.11-.184-.146-.091.037z"/><path id="Vector_60" d="M97.365 63.721c.239.037.477.073.734.055-.22-.036-.422-.09-.642-.146-.403.019-.22.11.055.2-.073-.036-.128-.072-.147-.108z"/><path id="Vector_61" d="M98.118 64.05l.22-.037s-.33-.054-.606-.09c.184.054.367.09.386.145v-.018z"/><path id="Vector_62" d="M97.733 63.904l-.239-.073s.147.055.239.073z"/><path id="Vector_63" d="M92.505 62.537c.183.164.348.365.569.51-.202-.2-.367-.382-.57-.51z"/><path id="Vector_64" d="M96.889 63.448h-.092l-.073.11c.201.018.146-.091.165-.11z"/><path id="Vector_65" d="M96.155 62.956c-.129-.146-.514-.164-.642-.237.146.2.403.274.66.401-.257-.127-.037-.11 0-.164h-.018z"/><path id="Vector_66" d="M95.477 62.464c.165.091.33.182.513.237-.036-.182-.293-.128-.513-.237z"/><path id="Vector_67" d="M94.65 62.063s-.036.037-.146 0c.037.091.22.182.33.255l-.183-.273v.018z"/><path id="Vector_68" d="M99.493 64.688c-.201 0-.385.036-.568.054.293.018.568.055.862.037-.092-.037-.184-.055-.275-.073l-.019-.019z"/><path id="Vector_69" d="M107.95 51.82c-.623-.875-1.779-2.352-2.605-3.008-1.247-1.203-3.32-2.005-5.246-2.187v-.055c-1.486-.364-3.503-.036-5.044.602l.11.036c.275-.091.605-.2.44-.036-.348.09-.844.218-.954.218l-.201.22c-.239.054-.202-.292-.734.108-.202.401-1.357.675-1.174.967-.33 0-.697.565-.917.783l.257-.054c-.532.419-1.12.765-1.266 1.075-.459.71-1.009 1.75-1.192 2.643-.239.146.33-.893-.056-.401-.366 1.695-.972 4.174-.146 6.215 0-.054-.037-.255.037-.127 0 .437.293.911.531 1.567.055-.127-.293-.948-.366-1.257.366.09-.037.2.403.947 0-.054-.037-.182 0-.182.422.73-.037.383.33.93a2.114 2.114 0 01-.091-.365c.293.565.128.164.55.73-.202 0-.11.364 0 .528.11.018.477.62.55.437.349.875.807.748 1.23 1.513.366.128-.184-.328-.056-.42.715.457.11.31.312.53.238.127 1.192.692 1.596 1.002l.073-.091c.587.474 1.78.838 2.018 1.057.349-.091-.239-.219-.734-.383-.073-.11.459-.018.679.073-.129-.036-.147-.11-.294-.091 0-.11.33.037.477.055.862.219-.348 0 0 .145.33.037 1.156.165.826-.018.697.092.257.2.623.292-.55-.128-.77.036-1.155-.164-.147.036-.11.091.055.164.587.091 1.742.255 1.724.091l.294.091.293-.127h.129c-.294-.128-.844-.183-1.064-.365-.037-.091.33 0 .513-.036l.147.127c.495 0 .367-.237 1.045-.291-.403.236.789.164 1.285.127.421-.437-.129-.2.22-.583.477-.146 1.137-.51 1.706-.71-1.284.637.733-.11-.257.491.238-.073.403-.2.623-.346.294.11-.22.364.166.346v-.2c.385-.073.678-.037 1.284-.438.036-.11.238-.419.495-.601.147 0 .257.036.715-.456.642-1.148-1.192.656-1.577.529-.716.51-1.229.546-1.743.583-.532 0-1.082.055-2.036.219-.275.164-.165.2-.734.346-.367.346.917.073 1.321.091a.984.984 0 01-.532.182l.238.128c-.972.328-.586-.146-1.43.073l.183-.073c-.165.036-.33.091-.495.11h.11c-.312.054-.404.182-.88.145l.385-.127c-.257.09-.33-.092-.716-.073.202-.055.276-.128.404-.146-.55-.091-1.027-.128-1.468-.237-1.596-.146-3.045-.93-4.109-1.987a.58.58 0 00.11.146c-.256-.128-.311-.31-.385-.474a4.51 4.51 0 01-.513-.656c-.422-.42-.752-.802-1.1-1.44.054-.073.11-.055.164.018-.147-.219-.257-.328-.202-.073-.238-.383-.238-.62-.366-.93l.458.62c-.073-.31-.257-.218-.367-.637-.293-.62-.036.328-.165.31-.036-.092-.073-.165-.091-.256-.019.11-.037.237-.037.346-.202-.601-.147-.947-.129-1.22 0 .145.055.29.074.437.238.09-.202-.693-.11-.93l.036.055c-.165-.638-.073.164-.201-.274l.055-.82-.11.146c-.147-.456.018-1.385.183-2.114.092-.42.11-1.003.257-1.55-.073.091-.165.292-.184.22.11-.329.367-1.003.404-.712 0-.164.055-.31.092-.474a1.44 1.44 0 01.22-.346l-.11.091c.055-.182.165-.346.238-.528.019.018.184-.128.055.127.44-.456.697-1.276 1.468-1.914l-.165.255c.367-.473.55-.346 1.008-.783h-.183c.33-.347 1.174-.656 1.082-.51-.073-.274.276-.055.404-.383l.348.109c.239-.182.496-.31.275-.346.478-.073.844-.128 1.064-.347.092-.054.55-.09.33-.164 1.083-.164.588.146 1.596.073l.037-.182c.789.073 1.578 0 2.201.073l.037.164c.404.073-.037-.182.605 0 .074.055.129.127.11.164.606.182 1.321.638 2.073 1.185-.018.018-.128-.037-.202-.055.331.219.881.565 1.248.857.623.93 1.302 2.26 1.779 3.536.679.893 1.156 1.604 1.614 1.677.22-.31.44-1.66-.11-3.336v-.036z"/></g><g id="Group_5"><path id="Vector_70" d="M19.719.146c0 .145-1.32.145-3.632.674-.183.036-.385.11-.587.164-.202.055-.422.11-.624.182-.22.073-.44.146-.66.237-.22.091-.459.164-.697.237-.275 0-.477.183-.697.328-.22.146-.44.31-.752.31a3.582 3.582 0 00-.404.146 3.892 3.892 0 00-.385.2 4.395 4.395 0 00-.385.237c-.129.092-.239.164-.367.256-.128.09-.257.164-.385.237-.129.072-.275.164-.404.237a3.3 3.3 0 00-.77.583c-.184.31-.477.455-.807.601-.312.146-.624.347-.752.711-.459.529-.99 1.02-1.486 1.568-.679.419-.954 1.166-1.358 1.84-.66.51-.99 1.295-1.173 2.097-.698.583-.991 1.421-.918 2.351-.238.82-.623 1.64-.605 2.552-.11.893-.147 1.804-.22 2.734.238.93.275 1.84.202 2.825.403.911.513 1.86.678 2.843.037.237.129.474.22.711.092.237.22.456.33.675.11.218.257.437.35.674.11.237.201.456.274.71.459.912 1.064 1.75 1.67 2.607.532.894 1.192 1.787 2.146 2.333.844.675 1.742 1.258 2.586 1.95 1.082.347 1.963.93 2.953 1.495 1.046.365 2.091.875 3.247.93 1.12.255 2.275.2 3.412.328 1.156.091 2.33.055 3.412-.328.532-.2 1.082-.31 1.632-.438.275-.054.55-.127.826-.2a5.77 5.77 0 00.789-.292c.146-.018.275-.036.421-.09.129-.037.257-.092.386-.147.128-.054.256-.109.385-.182.128-.073.238-.146.367-.219l.348-.218.349-.237c.238-.146.458-.292.715-.42.899-.601 1.89-1.13 2.587-1.95.752-.765 1.43-1.567 2.146-2.333.146-.547.458-.948.788-1.33l.496-.602c.073-.11.146-.219.22-.31.055-.11.128-.218.165-.346.624-.838.844-1.841 1.174-2.77.11-.493.293-.948.422-1.404.036-.11.073-.237.11-.346a2.62 2.62 0 00.073-.365c.037-.237.074-.474.055-.729.037-.237.074-.474.092-.71 0-.238 0-.475.018-.712 0-.237 0-.474.019-.71 0-.238.036-.475.073-.693a2.966 2.966 0 01-.073-.693V16.55c0-.219-.055-.456-.129-.656-.128-.893-.385-1.732-.605-2.552a2.57 2.57 0 00-.073-.656 4.116 4.116 0 00-.239-.602 5.588 5.588 0 00-.312-.565c-.11-.182-.202-.364-.312-.546-.165-.365-.403-.711-.623-1.04-.22-.346-.44-.656-.55-1.057-.422-.656-.771-1.367-1.358-1.84-.257-.274-.422-.62-.624-.93-.201-.31-.458-.565-.862-.656-.293-.2-.495-.492-.715-.748-.239-.255-.477-.492-.826-.565-.348-.073-.587-.273-.843-.474-.129-.109-.239-.218-.349-.31-.11-.109-.238-.2-.367-.273-.128-.073-.257-.164-.385-.237l-.385-.219a3.892 3.892 0 00-.385-.2 3.535 3.535 0 00-.386-.182 19.152 19.152 0 00-3.136-1.203c-.24-.073-.46-.129-.68-.183-.22-.054-.44-.09-.642-.145C22.526.6 22.14.565 21.81.49a30.482 30.482 0 00-1.54-.218c-.35-.054-.533-.09-.533-.146 0-.054.22-.09.679-.127.22-.018.495-.018.825-.018h.532c.184 0 .386.018.606.036a17.37 17.37 0 013.118.547c1.21.328 2.55.838 3.962 1.604l.44.219c.147.072.294.145.459.218.312.146.587.347.807.62.294.2.587.383.88.583.294.2.588.438.826.73.752.291 1.137 1.02 1.65 1.622.551.583.955 1.294 1.523 1.932.294.31.514.674.716 1.075.202.383.367.784.623 1.167.22.874.624 1.676 1.064 2.515.037.237.074.474.129.693.055.218.146.455.202.674.073.237.146.455.22.692l.165.711c-.129 1.003.183 1.95.293 2.953.11 1.02-.073 2.041-.165 3.08-.202 1.021-.312 2.097-.697 3.117-.202 1.076-.587 2.133-1.247 3.062-.44 1.04-1.1 1.969-1.798 2.88-.605.985-1.504 1.768-2.348 2.589-.422.419-.917.747-1.412 1.075-.239.164-.495.328-.734.51-.238.183-.477.365-.679.602-1.009.674-2.128 1.148-3.265 1.658-1.155.42-2.366.73-3.577 1.04-1.284-.055-2.494.236-3.778.364-1.284.091-2.55-.091-3.78-.365-1.246-.2-2.439-.583-3.576-1.039-1.192-.382-2.183-1.13-3.265-1.658a5.43 5.43 0 01-.77-.474 10.481 10.481 0 01-.698-.565c-.458-.383-.88-.802-1.357-1.148-.935-.73-1.76-1.586-2.348-2.589-.348-.455-.624-.966-.88-1.458-.147-.237-.275-.492-.422-.729a2.316 2.316 0 00-.239-.346 4.208 4.208 0 00-.256-.347l-.44-.71c-.147-.237-.294-.474-.423-.73a4.11 4.11 0 01-.311-.783 3.18 3.18 0 01-.092-.839c-.202-.51-.312-1.039-.385-1.567-.019-.128-.037-.274-.055-.401 0-.128-.037-.255-.055-.401a5.792 5.792 0 00-.184-.766 3.8 3.8 0 00.037-.784c0-.255-.037-.51-.074-.765-.036-.255-.073-.51-.091-.766a3.572 3.572 0 01-.037-.765c.055-1.02.275-1.987.294-2.953 0-.255.036-.492.073-.729.055-.237.128-.474.183-.693.074-.236.165-.455.239-.674.073-.219.147-.456.202-.674a4.06 4.06 0 01.183-.675c.092-.219.202-.419.312-.62l.33-.601c.11-.2.183-.401.238-.62.422-.783.808-1.567 1.34-2.223.018-.237.11-.438.22-.62s.238-.346.385-.492c.293-.292.642-.547.917-.82.55-.566.88-1.35 1.65-1.623.184-.364.46-.62.753-.82.312-.182.642-.346.954-.51.312-.164.568-.383.844-.584.128-.09.275-.2.403-.273a1.42 1.42 0 01.459-.182c.11-.128.238-.219.385-.31.147-.073.293-.128.44-.182.147-.055.294-.091.44-.146.147-.055.276-.11.404-.182.587-.11 1.064-.438 1.56-.584.238-.109.476-.2.714-.273.239-.055.477-.11.716-.128.22-.054.459-.09.66-.145.22-.037.422-.092.624-.11 2.421-.346 3.76-.127 3.76-.036l-.018.073z"/><path id="Vector_71" d="M19.719 9.569c0 .128-1.009.2-2.825.437-.312.037-.624.092-.972.128a9.903 9.903 0 01-1.1.182c-.202-.054-.404.055-.588.146-.201.091-.385.182-.623.091-.22 0-.44.037-.66.091-.22.055-.44.128-.661.2-.22.074-.459.11-.715.147-.239.054-.496.11-.716.237-.202.218-.477.2-.752.2s-.55.037-.752.292a4.89 4.89 0 01-.77.328c-.257.11-.532.2-.807.291-.312 0-.587.128-.844.274-.257.146-.496.346-.752.51-.66.055-1.156.474-1.56 1.003-.733.054-1.228.547-1.43 1.24-.11.127-.22.236-.33.345-.11.11-.22.237-.312.365s-.184.255-.275.401a1.932 1.932 0 00-.166.456c-.275.565-.366 1.184-.458 1.786.22.638.312 1.148.385 1.86.129.127.239.254.349.382.055.073.091.128.146.2.055.073.092.128.147.2.184.293.367.602.55.894.202.31.514.529.826.73.33.2.642.382.899.692.642.455 1.375.765 2.072 1.148.68.437 1.413.875 2.293.911.826.2 1.651.347 2.458.693.9-.091 1.725.2 2.568.474.88.091 1.743.383 2.642.292.899.109 1.797-.037 2.715.09.917.074 1.834.128 2.714-.09.88-.256 1.78-.092 2.66-.292.917.128 1.706-.383 2.568-.474.826-.219 1.706-.292 2.458-.693.789-.31 1.523-.674 2.293-.911a1.4 1.4 0 01.477-.401c.165-.11.367-.164.55-.237.367-.128.77-.255 1.064-.492.752-.292 1.21-.93 1.743-1.422.11-.146.238-.273.348-.4.11-.128.257-.256.367-.384l.165-.2s.092-.146.129-.219c.091-.146.146-.31.183-.474.037-.073.073-.145.092-.218l.073-.237c.037-.164.055-.31.092-.474.037-.31.073-.62.128-.93a.484.484 0 01-.055-.218l-.055-.22c0-.145-.036-.31-.055-.455 0-.164-.055-.31-.092-.456a1.83 1.83 0 00-.22-.419c-.293-.565-.697-1.057-1.1-1.53a1.313 1.313 0 00-.605-.748c-.129-.091-.276-.164-.404-.255-.147-.073-.275-.164-.404-.237-.495-.401-1.137-.51-1.559-1.003-.257-.146-.513-.328-.77-.474a2.694 2.694 0 00-.826-.328c-.275-.091-.495-.292-.733-.474-.239-.164-.496-.273-.826-.164-.275-.054-.495-.2-.733-.346-.239-.128-.477-.219-.77-.164-.276.073-.514 0-.753-.11-.22-.109-.44-.218-.679-.273-.22-.055-.458-.11-.678-.164-.22-.055-.44-.11-.66-.146-1.909-.4-3.45-.565-4.513-.692-.257-.037-.495-.055-.697-.092-.202-.018-.367-.054-.514-.072-.275-.037-.422-.092-.422-.128 0-.091.697-.2 2.018-.219 1.32 0 3.247.055 5.668.492.239.055.495.037.752.073.257.037.514.091.752.256.257.072.532.109.807.164.276.054.55.127.79.273.31-.055.604.036.861.164.275.128.532.292.807.42.294.109.569.254.844.4.294.128.569.274.88.383.66.164 1.12.729 1.743 1.02.459.548 1.027.949 1.67 1.368.091.164.201.328.33.455.11.146.238.292.385.438.128.146.257.31.385.455.11.165.22.329.33.51.018.22.074.42.147.602.055.2.128.383.202.584.073.2.146.4.202.601.036.11.054.2.091.31.019.11.037.219.074.328.073.438.018.893-.074 1.33-.055.22-.11.438-.183.639l-.11.31a5.91 5.91 0 01-.11.31c-.404.783-.826 1.585-1.468 2.187-.513.729-1.192 1.33-2 1.695-.678.565-1.503.93-2.292 1.312-.752.474-1.633.693-2.477 1.003-.843.346-1.797.255-2.622.765-.881.255-1.798.328-2.715.529-.918.109-1.853.164-2.788.31-.954-.238-1.89 0-2.844.109-.953.073-1.907 0-2.843-.11-.935-.036-1.87-.164-2.788-.31-.936-.054-1.798-.437-2.715-.528-.917-.091-1.724-.583-2.623-.765-.88-.201-1.743-.493-2.476-1.021a4.749 4.749 0 01-.587-.328c-.184-.128-.367-.237-.55-.365-.367-.237-.734-.474-1.175-.62-.385-.218-.788-.4-1.155-.656-.367-.255-.697-.583-.844-1.039-.348-.291-.587-.656-.807-1.039-.055-.09-.11-.2-.165-.291-.055-.11-.092-.2-.147-.292-.11-.182-.22-.383-.348-.565 0-.11-.037-.219-.037-.346 0-.11-.037-.219-.073-.328-.055-.22-.11-.42-.166-.638-.11-.42-.22-.857-.183-1.294 0-.11.018-.22.037-.328l.073-.31c.037-.22.11-.42.184-.62.055-.2.146-.383.201-.583.074-.2.147-.383.202-.584.073-.2.165-.382.257-.546.11-.164.238-.329.367-.474.128-.146.275-.292.403-.42a2.75 2.75 0 00.386-.419c.091-.164.238-.291.366-.419.147-.128.294-.219.459-.31.147-.11.312-.182.459-.291.146-.11.275-.22.385-.365.587-.383 1.137-.766 1.742-1.02.184-.329.477-.493.807-.566.312-.09.642-.11.936-.2.293-.091.55-.255.807-.401.257-.146.55-.237.862-.182.22-.237.495-.329.77-.383.276-.037.57-.037.826-.055.275-.018.514-.11.752-.2.239-.092.477-.146.752-.11.22-.164.459-.182.697-.182.239 0 .477.018.697-.055.239.037.44 0 .66-.036.202-.037.404-.091.606-.11.385-.109.77-.127 1.137-.09.349 0 .697-.019 1.01-.037 1.87-.037 2.879.11 2.879.219l-.055.036z"/><path id="Vector_72" d="M19.719.146s-.074.054-.202.091c-.074 0-.147.036-.239.055-.055 0-.091 0-.146.018-.055 0-.11.036-.166.036-.495.11-1.21.292-2.054.711-.147.073-.275.146-.44.219l-.44.273c-.294.219-.587.438-.918.675-.22.054-.33.255-.44.437-.128.182-.238.365-.495.438a2.426 2.426 0 00-.495.473c-.147.183-.275.383-.422.584-.129.2-.312.383-.477.583-.165.2-.312.42-.404.674 0 .31-.238.474-.44.693-.202.2-.404.42-.367.766-.055.127-.11.273-.165.4-.055.128-.11.274-.183.402a17.65 17.65 0 00-.386.82c-.22.237-.33.528-.421.838-.074.31-.129.62-.202.948-.459.529-.532 1.221-.514 1.914-.532.565-.605 1.294-.385 2.06-.055.346-.128.71-.202 1.057-.055.364-.091.729-.036 1.111 0 .365-.019.748-.019 1.13 0 .383 0 .766-.055 1.149.11.383.202.765.202 1.166.018.383-.018.784-.092 1.185.312.784.312 1.568.294 2.406 0 .839.532 1.586.513 2.443.202.82.514 1.604.77 2.424.203.838.441 1.713 1.065 2.37.458.747.99 1.44 1.412 2.223.752.529 1.23 1.24 1.798 1.914.183.127.33.273.513.419l.257.219.257.2c.348.255.752.474 1.174.565.385.183.807.292 1.229.347.422.072.844.09 1.266.164.862.09 1.779-.037 2.513-.51.348-.256.733-.438 1.119-.639l.293-.164c.092-.054.183-.11.275-.182a2.72 2.72 0 00.514-.42c.422-.181.733-.51.99-.856l.386-.547c.128-.182.256-.364.403-.51.514-.71 1.119-1.385 1.413-2.224.366-.802.66-1.604 1.063-2.37-.055-.473.11-.856.294-1.257.092-.182.202-.383.275-.583.092-.2.165-.401.183-.602.386-.783.349-1.64.514-2.442.037-.82.404-1.604.294-2.406.055-.401.018-.802.036-1.185 0-.4 0-.784.074-1.166-.11-.383-.074-.766-.037-1.149 0-.182.037-.382.037-.565a1.79 1.79 0 00-.074-.547c-.018-.364-.073-.729-.11-1.093-.037-.365-.091-.71-.11-1.075.202-.766-.202-1.404-.385-2.06-.128-.675-.514-1.24-.514-1.914-.091-.31-.165-.62-.238-.93-.092-.291-.202-.601-.385-.838-.147-.273-.147-.601-.22-.893a1.628 1.628 0 00-.147-.42.73.73 0 00-.349-.31c-.165-.236-.238-.51-.33-.783-.092-.273-.22-.51-.477-.656-.257-.146-.403-.365-.513-.583-.11-.237-.22-.474-.367-.675-.147-.182-.294-.383-.459-.565-.165-.164-.312-.346-.459-.51a11.027 11.027 0 00-2.072-1.695 9.183 9.183 0 00-1.816-.839C20.232.255 19.627.237 19.627.128c0-.055.183-.092.55-.128h.679c.275.036.587.073.935.164a8.19 8.19 0 012.422 1.02c.88.53 1.797 1.313 2.678 2.316.165.2.385.382.568.583.184.2.367.42.44.729.313.474.771.893.936 1.495.129.109.239.218.33.346.092.127.147.273.202.42.128.29.183.619.312.91.128.292.22.602.349.912.11.31.22.62.385.93.366.6.33 1.348.605 2.004 0 .73.165 1.44.459 2.151-.037.383.036.747.11 1.13.073.383.183.748.201 1.149-.055.2-.073.4-.073.601 0 .2 0 .401.018.583.055.401.129.784.184 1.203.055.401.036.82 0 1.221-.037.42-.055.82-.074 1.258-.11.838-.091 1.695-.256 2.552 0 .875-.129 1.768-.514 2.606-.147.893-.477 1.75-.789 2.625-.22.911-.715 1.732-1.137 2.588-.202.438-.495.82-.789 1.222-.293.382-.568.783-.752 1.275-.569.82-1.32 1.513-2.073 2.224-.807.638-1.724 1.185-2.696 1.695-.569.055-1.082.2-1.614.328a11.74 11.74 0 01-1.633.328c-1.119.073-2.256-.218-3.247-.674-1.008-.401-1.907-1.002-2.678-1.695-.422-.31-.77-.693-1.1-1.076-.165-.2-.312-.4-.477-.583-.165-.2-.312-.383-.495-.565-.349-.364-.606-.784-.826-1.221-.22-.438-.44-.857-.715-1.258-.514-.802-.954-1.677-1.138-2.588-.33-.875-.33-1.823-.788-2.625-.275-.856-.79-1.677-.514-2.606-.238-.857-.037-1.732-.257-2.552.11-.437.11-.838.055-1.258-.036-.4-.128-.82-.11-1.22.037-.402.074-.803.129-1.204.036-.4.055-.784 0-1.184-.055-.402.018-.784.091-1.149.074-.383.184-.747.22-1.112-.055-.765.496-1.421.46-2.15.2-.693.33-1.386.604-2.005-.091-.383.019-.711.202-1.003.184-.292.385-.565.532-.838.165-.292.22-.602.33-.912.055-.146.11-.291.184-.419.091-.128.183-.255.33-.346 0-.693.55-1.076.935-1.495a5.82 5.82 0 00.477-.692c.147-.237.312-.456.532-.602.092-.273.275-.456.477-.601.22-.146.422-.292.569-.474.44-.237.697-.638 1.082-.875.312-.31.679-.529 1.064-.656.183-.092.348-.164.514-.256.165-.073.33-.127.495-.2.954-.365 1.76-.456 2.274-.438h.349c.092 0 .183.019.257.037.128.018.201.055.201.073h.11z"/><path id="Vector_73" d="M19.719 37.657c-.11 0-.22-.42-.33-1.166 0-.128-.037-.256-.056-.401a1.824 1.824 0 01-.055-.456c.147-.164-.275-.328-.055-.51.074-.183 0-.365-.055-.566-.055-.2.092-.4-.036-.62-.294-.218.33-.437-.037-.656-.073-.236-.055-.473-.037-.71.22-.237 0-.492-.037-.748.276-.255.147-.528-.036-.802.385-.273.312-.546-.037-.838 0-.292.129-.583-.037-.875-.018-.292-.091-.601-.036-.911-.257-.31-.239-.62-.019-.948-.275-.328-.165-.638-.018-.966.147-.328-.238-.656-.018-1.003 0-.346-.055-.674 0-1.039.11-.346.238-.692 0-1.057-.074-.364-.165-.71 0-1.075-.294-.365-.165-.73 0-1.094-.055-.364.165-.747 0-1.13.036-.383-.129-.765 0-1.148.091-.383.165-.766 0-1.148-.184-.383.073-.748 0-1.13.275-.365-.092-.748 0-1.112-.019-.365.146-.73 0-1.076-.055-.364-.11-.71 0-1.057-.422-.346.11-.692 0-1.039.183-.346-.019-.674.018-1.002-.073-.328.183-.657.018-.966.037-.328-.128-.638.019-.948-.202-.31.165-.62.037-.912 0-.291 0-.583.036-.874.33-.292.055-.565.037-.839.037-.273-.184-.528.037-.802.018-.255.165-.51.036-.747-.055-.237.477-.474.037-.711-.073-.237.33-.456.037-.674-.257-.22.036-.42.036-.62s.037-.383.055-.565c.147-1.622.312-2.552.477-2.552.202 0 .367 1.148.532 3.117 0 .2.239.4.037.62 0 .218.165.437.037.674.293.237.055.474.036.71 0 .238-.073.493.037.748.165.255-.092.529.037.802-.184.274-.129.547.036.839-.183.291.037.583.037.874-.275.292-.073.602.037.912.11.31-.037.62.018.948-.055.31.073.638.018.966.129.328.184.656.019 1.002.091.347 0 .675 0 1.04.11.345 0 .692 0 1.056.055.365-.294.711 0 1.076.036.364-.055.729 0 1.112-.037.364-.074.747 0 1.13-.294.382-.11.765 0 1.148.091.383.036.765 0 1.148.036.383 0 .748 0 1.13.091.365-.129.73 0 1.094.128.364-.147.729 0 1.075.091.365.128.711 0 1.057 0 .347-.276.693 0 1.04.055.346.403.674-.019 1.002.11.328-.201.656-.018.966-.312.328 0 .638-.018.948-.055.31-.165.62-.037.911.147.292-.073.583-.037.875.184.292-.238.565-.036.838-.037.274.018.529-.037.802.422.256 0 .51-.037.748-.055.237.275.474-.037.71.312.238.037.456-.036.657-.092.218.128.419-.037.62.22.2-.128.382-.055.565-.147.182 0 .346-.055.51a.503.503 0 01-.055.456c0 .145-.037.273-.055.4-.11.766-.22 1.167-.33 1.167h.037z"/></g></g><defs><clipPath id="clip0_1379_139"><path fill="#fff" d="M0 0h124v66H0z"/></clipPath></defs></svg>