<svg width="74" height="71" fill="none" xmlns="http://www.w3.org/2000/svg"><g id="Isolation_Mode" clip-path="url(#clip0_1379_111)" fill="#000"><path id="Vector" d="M.711.82c.051 0 .094.615.137 1.785.043 1.178.086 2.903.129 5.15.017.742.025 1.554.042 2.408.026.862.052 1.776.043 2.732-.128.965.231 1.982.034 3.05-.051 1.067 0 2.185.035 3.355.042 1.17-.077 2.383.034 3.647.248 1.264-.266 2.57.034 3.928.069 1.358.052 2.758.034 4.202-.188 1.443 0 2.929.035 4.457a12.861 12.861 0 00-.129 1.905c0 .324 0 .64.026.965v.102l.008.06.018.111c.008.077.025.137.034.197.145-.026.274-.052.377-.077h.051l.077.017.154.025.3.043c.205.026.402.051.608.068.41.034.822.052 1.233.043a15.665 15.665 0 002.5-.24c1.687-.008 3.417.112 5.172-.025 1.764-.017 3.554-.077 5.386-.025 1.833-.205 3.69-.197 5.583-.017 1.893-.222 3.82-.137 5.772-.017 1.952.12 3.939-.197 5.95-.018 2.013.017 4.05-.05 6.115-.017 2.063.094 4.153.197 6.268-.008 2.115-.051 4.255-.128 6.413-.009 2.158-.239 4.342-.128 6.542 0 2.2-.042 4.427.128 6.662 0 1.122.017 2.243 0 3.374-.025.565-.009 1.13-.017 1.695-.017h.428l.394.008c.035 0 .069.017.12.026 0 0 .017-.069.026-.12 0-.273.017-.546.026-.82a55.75 55.75 0 00.025-1.69c.009-1.128 0-2.246-.077-3.365-.154-2.238.06-4.45 0-6.644.223-2.195-.068-4.373 0-6.525-.025-2.152.129-4.287.009-6.396-.043-2.11-.086-4.193.008-6.251-.162-1.008-.145-2.015-.094-3.023.026-.495.06-1 .086-1.495l.017-.375v-.41h-.026s-.085-.026-.145-.034h-.351l-.377-.009c-.497 0-1.002 0-1.499.009-.993.017-1.978.05-2.954.034-1.952.06-3.879-.154-5.771-.017-1.893-.026-3.76.11-5.592-.026-1.832.17-3.622-.145-5.386-.026-1.764 0-3.485.009-5.172-.025-1.687-.265-3.34-.043-4.95-.026-1.609-.025-3.184.154-4.717-.025-1.533-.026-3.023-.137-4.47-.035-1.447.043-2.852-.384-4.213-.034-1.361.06-2.672-.273-3.939-.034-1.267.222-2.492-.026-3.656-.034a474.038 474.038 0 00-3.365-.034c-4.821-.06-8.615-.12-11.2-.188A131.022 131.022 0 011.686.888C1.02.854.668.82.668.786c0-.043.428-.077 1.25-.12A183.55 183.55 0 015.55.556C8.717.486 13.36.418 19.215.358 20.39.35 21.605.162 22.872.325c1.267 0 2.586-.137 3.939-.034 1.361-.248 2.765-.043 4.212-.035 1.448-.008 2.938.069 4.47-.034 1.533-.145 3.109.069 4.718-.025 1.61.153 3.263.11 4.95-.026 1.687.145 3.416-.034 5.172-.026 1.764.222 3.553.069 5.386-.025 1.832-.086 3.69.034 5.583-.017 1.892.042 3.819-.06 5.78-.017a55.42 55.42 0 012.954-.094c.496 0 .993 0 1.49.008.719.026 1.438.043 2.158.069h.188c.008.743.017 1.477.034 2.228v1.495c0 1-.017 2.007-.017 3.023.086 2.058-.008 4.142.009 6.251.043 2.11-.24 4.244.008 6.396.034 2.152-.043 4.33 0 6.525-.034 2.195-.068 4.415 0 6.644a27.545 27.545 0 00-.128 3.364c.008.564.025 1.128.051 1.691.009.29.026.59.034.88.009.53.026 1.067.035 1.605-.831.01-1.661.026-2.492.035H69.71c-1.13 0-2.252-.026-3.373-.043-2.244.026-4.462.009-6.662 0-2.2.077-4.384-.102-6.542 0-2.158.102-4.299-.111-6.414-.009-2.115.069-4.204.111-6.268-.008-2.063 0-4.101-.222-6.114-.017-2.012.051-3.999.324-5.95-.017-1.953.085-3.88-.163-5.772-.017-1.893-.256-3.76-.017-5.583-.026-1.833-.051-3.622-.137-5.386-.026-1.764.12-3.485-.068-5.172-.025-.848.077-1.678.025-2.5-.017a29.718 29.718 0 00-1.234-.051h-.607c-.103 0-.206 0-.3.017l-.326.025c-.48 0-.95 0-1.43-.008v-2.537c0-.64 0-1.28.026-1.904-.342-1.529 0-3.015.034-4.458.052-1.443-.222-2.844.035-4.201-.257-1.358-.035-2.665.034-3.929.077-1.264-.111-2.485.034-3.646-.18-1.17.103-2.289.034-3.356.12-1.068 0-2.084.035-3.05a22.027 22.027 0 01.042-2.732C.37 9.31.377 8.506.394 7.763c.043-2.246.086-3.98.129-5.15C.566 1.443.617.83.66.83L.71.82z"/><path id="Vector_2" d="M15.61 6.055s.043.11.052.333c0 .222.034.546-.026.982-.077.854-.36 2.152-1.25 3.587-.146.239-.326.47-.497.717-.188.24-.402.461-.608.709-.111.11-.231.23-.35.341-.12.111-.24.248-.378.342-.274.205-.54.444-.865.615a2.702 2.702 0 00-.488.265 7.667 7.667 0 00-.488.307c-.085.051-.162.111-.248.154-.086.042-.18.085-.274.12a2.228 2.228 0 01-.59.153c-.198.034-.403.085-.6.128-.103.026-.197.06-.3.068l-.308.052c-.103.017-.214.042-.317.06-.103.017-.231.05-.274.05l-.36.052h-.068s-.017 0-.017.008v.752c-.009.444-.017.888.042 1.35.24.922-.274 1.87.035 2.852.068.982.051 1.998.034 3.048a5.964 5.964 0 00-.077.794v.607l.008.102v.086c.018.128.035.256.06.35.155-.009.283-.026.411-.026 0 0 .018 0 .026.009l.051.017.112.034.214.068c.145.043.291.077.428.111.283.077.574.163.865.23.291.078.574.18.873.257.291.094.582.205.882.299.231.222.471.436.711.623.231.214.47.402.72.598.12.103.239.205.359.299.12.102.257.188.377.299.12.102.248.205.376.307l.197.154.189.162c.197.265.402.521.556.812.086.145.163.29.249.427.077.145.145.298.214.452.068.154.145.3.214.453l.18.47c.137.307.23.64.35.956l.07.248.042.256c.034.17.06.341.086.512l.025.128v.06l.009.077.017.145v.017h.283c.334 0 .659 0 .993.026 1.327-.205 2.68-.197 4.059-.026 1.378-.222 2.774-.136 4.195-.017 1.422.12 2.86-.196 4.325-.017 1.464.017 2.945-.051 4.444-.017 1.498.094 3.023.196 4.555-.009 1.533-.05 3.091-.128 4.658-.008 1.567-.23 3.151-.128 4.753 0 1.601-.034 3.21.128 4.838 0 .813.017 1.627 0 2.449-.026.41-.008.822-.017 1.233-.008h.411s.051.017.094.034c.008-.034.026-.077.034-.128v-.034l.026-.077.06-.325.06-.324c.026-.111.034-.222.068-.325l.18-.64c.017-.052.026-.103.043-.162l.06-.154.111-.308.111-.307c.035-.103.086-.205.129-.299l.265-.606.309-.59a6.523 6.523 0 011.695-2.015c.086-.068.163-.145.248-.213l.266-.188c.18-.12.35-.256.54-.367l.565-.334.137-.085.145-.077.291-.145c.411-.154.83-.256 1.233-.41.206-.06.411-.111.617-.17l.308-.086.317-.06.625-.12.137-.034s.043 0 .06-.008v-.103l.008-.068c-.017-1.563.129-3.117.009-4.646-.017-.768-.043-1.528-.043-2.28 0-.375 0-.76.009-1.135l.017-.564.017-.282v-.145l.009-.034s-.069-.043-.095-.043c-.008 0-.017 0-.042.008-.018 0-.035 0-.043.01h-.12c-.206-.052-.403-.095-.6-.138-.102-.025-.196-.042-.3-.068l-.29-.094a11.198 11.198 0 00-.574-.188c-.18-.077-.368-.153-.548-.23l-.274-.103-.274-.12c-.171-.102-.343-.196-.514-.29-.171-.102-.325-.213-.496-.316-.343-.196-.643-.444-.96-.657-.154-.111-.3-.248-.445-.367-.145-.129-.3-.248-.428-.393-.137-.137-.265-.282-.394-.427l-.094-.103-.086-.11-.171-.231c-.505-.581-.822-1.29-1.113-1.973A19.126 19.126 0 0157.73 7.6l-.077-.538c0-.05 0-.102-.017-.153v-.077l-.009-.017v-.009h-.034l-.111.017h-.865c-.334 0-.668-.025-1.002-.05-1.328.17-2.638-.146-3.913-.026-1.276 0-2.535.008-3.76-.026-1.224-.265-2.423-.043-3.596-.026-1.173-.025-2.312.154-3.425-.025-1.113-.026-2.192-.137-3.245-.035-1.054.035-2.073-.384-3.057-.034-.985.06-1.944-.273-2.86-.034-.917.222-1.807-.025-2.655-.034a250.72 250.72 0 00-2.44-.034c-3.502-.06-6.26-.12-8.135-.188-1.884-.068-2.886-.137-2.886-.205 0-.077 1.242-.154 3.545-.23 2.304-.069 5.67-.137 9.925-.197.848-.009 1.738-.196 2.654-.034.925 0 1.876-.145 2.86-.034.985-.248 2.004-.043 3.057-.034 1.053-.009 2.132.068 3.245-.035 1.114-.145 2.252.069 3.426-.025 1.173.153 2.372.11 3.596-.026 1.224.145 2.475-.034 3.76-.025 1.275.222 2.585.068 3.912-.026a39.25 39.25 0 011.002-.034h1.157c.3 0 .6 0 .9.008h.265v.162l.017.436c.017.29.034.58.043.871v.068l.017.06.026.12.042.23c.026.316.112.624.197.931.035.154.094.3.154.453.06.145.12.299.18.444.291.572.6 1.136.985 1.657l.163.188.077.093.085.086.351.341c.112.12.249.214.369.325.128.102.24.222.376.316.266.188.514.41.797.572.137.085.274.188.41.273.146.077.292.163.429.257.077.034.154.068.231.093l.24.077c.163.052.317.103.47.163.163.042.326.076.489.12l.24.068c.085.017.162.025.248.042.163.026.334.06.497.086.025 0 .034 0 .068.008h.12l.248.026.497.025.488.026h.12l.06.008c.017 0 0 .018.008.026v1.324l.026.657c0 .188.009.376.009.564v1.136c-.009.76-.035 1.52-.017 2.28.042 1.529-.24 3.083.008 4.646v1.614s-.017.025-.043.025h-.068l-.137.009H67.2a46.8 46.8 0 01-1.061.06l-.549.076-.265.035-.265.068c-.172.043-.352.085-.523.136-.334.129-.685.24-1.002.419l-.248.111-.128.06-.12.068-.471.273c-.154.094-.3.214-.454.316l-.223.163-.205.179c-.565.47-1.028 1.067-1.413 1.7l-.36.435c-.102.162-.188.324-.282.487-.043.085-.094.162-.129.247l-.102.265-.095.265-.042.136c-.018.043-.026.094-.035.137l-.12.555c-.025.094-.025.188-.034.282l-.026.282-.025.282v.503c0 .376-.017.752-.017 1.128-.377.017-.762.017-1.156.025-.274 0-.548 0-.822.009h-1.233c-.822 0-1.636-.026-2.45-.043-1.626.026-3.245.009-4.837 0-1.602.077-3.186-.102-4.753 0-1.567.103-3.125-.11-4.658-.008-1.533.068-3.057.11-4.555-.009-1.499 0-2.98-.222-4.444-.017-1.465.051-2.903.325-4.325-.017-1.421.085-2.817-.162-4.196-.017-1.378-.248-2.731-.009-4.058-.017-.334-.017-.66-.026-.994-.043-.265 0-.522-.008-.779-.017h-.41l-.206-.009h-.103v-.102c-.009-.265-.026-.53-.034-.786l-.017-.393v-.17l-.026-.111c-.026-.145-.052-.29-.086-.444l-.051-.214-.077-.213c-.103-.274-.18-.556-.291-.829-.052-.136-.095-.273-.146-.41-.051-.136-.111-.264-.171-.401-.06-.128-.111-.265-.171-.393a8.346 8.346 0 00-.215-.376c-.128-.256-.316-.478-.488-.7l-.145-.154a2.388 2.388 0 00-.154-.145c-.103-.102-.189-.205-.283-.307-.085-.111-.188-.205-.291-.308-.094-.102-.188-.205-.291-.307-.206-.197-.42-.367-.634-.547a3.96 3.96 0 00-.728-.384c-.24-.12-.48-.248-.727-.359-.257-.085-.506-.188-.754-.264-.257-.06-.514-.137-.77-.188-.13-.026-.258-.043-.386-.069l-.188-.034-.095-.017h-.05l-.078-.017c-.454.06-.968.077-1.456.068h-.008v-.725c0-.248.008-.496.025-.735 0-.077 0-.094.01-.128v-.102l.033-.205c.017-.137.035-.265.043-.402.034-.265.06-.53.069-.794.051-1.05-.223-2.067.034-3.049-.257-.982-.034-1.938.034-2.852.034-.461.009-.905 0-1.35 0-.11 0-.23-.008-.34v-.505c0-.17 0-.333.017-.495l.017-.23s.026-.018.043-.018h.06l.128.009c.274-.06.59-.094.9-.111.179 0 .247-.017.35-.026.094 0 .197-.017.291-.017.095 0 .197-.008.291-.017.095 0 .189-.026.283-.043.188-.034.368-.076.548-.136.18-.034.36-.086.53-.137.087-.025.172-.06.258-.085.085-.034.162-.077.24-.12.154-.085.316-.162.462-.239.146-.094.291-.18.437-.265.282-.179.53-.401.796-.58.137-.086.248-.197.368-.29.12-.095.24-.189.368-.283.206-.222.411-.427.6-.64.171-.222.35-.427.505-.65a8.876 8.876 0 001.421-3.33c.103-.41.12-.726.163-.939.034-.213.06-.325.086-.325l-.009-.042z"/><path id="Vector_3" d="M36.957 8.813c0 .111-.796.137-2.158.478-.11.026-.23.069-.35.094-.12.034-.249.069-.369.111-.128.052-.257.094-.385.146a4.615 4.615 0 01-.411.145c-.163-.009-.283.102-.411.205-.129.102-.257.205-.445.188-.163.042-.317.12-.463.204-.154.086-.291.197-.437.3-.145.102-.316.187-.48.281a1.29 1.29 0 00-.444.359c-.086.205-.274.282-.48.358-.197.077-.385.18-.445.428-.257.333-.574.614-.874.947-.436.214-.565.7-.805 1.093-.445.265-.616.752-.684 1.256-.489.307-.66.82-.54 1.392-.146.487-.394.965-.343 1.52-.06.53-.068 1.067-.12 1.614.206.555.215 1.085.13 1.674.299.53.333 1.084.401 1.682.018.145.06.29.12.427s.137.265.215.393c.154.256.308.512.368.82.265.538.642 1.025.984 1.537.3.547.66 1.093 1.268 1.375.505.384 1.044.709 1.524 1.153.668.145 1.173.52 1.738.88.617.204 1.216.554 1.91.554.65.163 1.335.086 2.012.188.676.069 1.379.069 2.012-.188.308-.136.634-.196.96-.264.162-.026.325-.069.479-.111a2.71 2.71 0 00.462-.171c.171 0 .334-.051.488-.12.077-.034.154-.068.223-.102l.205-.128.206-.137.197-.145c.137-.094.274-.17.42-.248.53-.358 1.138-.632 1.524-1.153.436-.46.822-.939 1.267-1.374.051-.35.24-.573.445-.803a3.84 3.84 0 00.308-.342c.052-.06.095-.12.137-.188.035-.068.069-.136.095-.205.402-.47.488-1.093.702-1.64.051-.29.171-.554.265-.828l.069-.205c.017-.068.034-.136.042-.213.026-.137.043-.282.026-.427.111-.564 0-1.127.129-1.674a1.359 1.359 0 01-.06-.41c0-.137 0-.273.008-.41a2.16 2.16 0 000-.41 1.03 1.03 0 00-.077-.393c-.077-.52-.231-1.024-.342-1.52a1.051 1.051 0 00-.009-.401 1.245 1.245 0 00-.137-.35c-.051-.111-.128-.222-.197-.325-.068-.102-.128-.213-.188-.316-.103-.222-.24-.418-.377-.614-.128-.197-.257-.393-.308-.64-.24-.394-.428-.838-.805-1.094-.154-.154-.24-.376-.343-.572-.102-.197-.257-.359-.53-.367-.18-.111-.283-.3-.412-.462-.128-.153-.274-.307-.505-.324-.222-.026-.368-.137-.514-.265-.137-.128-.256-.282-.41-.376a8.773 8.773 0 00-.454-.264c-.154-.086-.3-.171-.446-.24a12.12 12.12 0 00-1.85-.742c-.556-.171-1.053-.274-1.446-.359-.403-.068-.711-.128-.925-.162-.214-.043-.325-.077-.325-.111 0-.069.547-.18 1.584-.12.513.034 1.156.12 1.883.308.728.187 1.55.495 2.407.956.17.085.368.154.556.24.189.085.36.204.488.392.172.12.36.23.548.35.189.12.36.265.497.453.497.128.702.606 1.002.982.334.359.565.803.933 1.17.197.18.334.41.437.649.12.239.205.486.377.709.094.555.342 1.033.65 1.528.026.58.351 1.093.437 1.691-.128.615.094 1.187.188 1.81.086.624-.06 1.247-.094 1.888-.137.623-.18 1.29-.42 1.913-.094.666-.333 1.323-.761 1.87-.249.64-.677 1.204-1.096 1.768-.351.615-.917 1.084-1.43 1.588-.249.256-.566.453-.874.64-.154.103-.308.189-.454.308-.145.111-.282.24-.402.384-.608.419-1.31.7-1.987 1.017-.71.247-1.447.427-2.183.64-.797-.102-1.516.12-2.304.222-.779.068-1.558-.043-2.303-.222a9.456 9.456 0 01-2.184-.64c-.736-.214-1.318-.71-1.986-1.017a2.437 2.437 0 01-.48-.282 5.327 5.327 0 01-.428-.35c-.274-.239-.53-.495-.83-.7-.583-.435-1.105-.948-1.43-1.588-.214-.282-.369-.598-.523-.905-.085-.154-.162-.308-.248-.453-.051-.068-.094-.145-.154-.205a1.878 1.878 0 00-.172-.197c-.18-.29-.393-.572-.556-.87a2.313 2.313 0 01-.188-.479 1.556 1.556 0 01-.018-.53c-.137-.307-.188-.631-.222-.964-.009-.077-.026-.163-.034-.24-.009-.076-.018-.162-.035-.239a2.25 2.25 0 00-.128-.47c.043-.17.051-.332.051-.486 0-.162-.017-.316-.043-.47a10.41 10.41 0 01-.068-.46c-.017-.155-.043-.308-.034-.462.051-.623.205-1.204.188-1.81-.026-.615.308-1.136.437-1.691.008-.145.051-.282.103-.419.06-.128.128-.247.205-.367.069-.12.146-.239.206-.359s.102-.247.128-.384c.265-.47.488-.956.813-1.358 0-.307.155-.52.343-.691.188-.171.411-.308.59-.479.343-.333.497-.862 1.003-.982a.945.945 0 01.445-.512c.197-.111.402-.197.6-.282.196-.094.342-.24.505-.359.162-.128.325-.239.53-.273.12-.18.309-.248.489-.299.188-.051.368-.085.522-.18.368-.042.642-.264.95-.34.146-.069.291-.129.437-.172a1.92 1.92 0 01.437-.06c.137-.033.274-.05.402-.076a3.16 3.16 0 01.377-.06c1.473-.188 2.27-.026 2.26.051l.026-.034z"/><path id="Vector_4" d="M40.468 16.79c-.051 0-.094-.086-.154-.248-.017-.043-.026-.086-.043-.128a1.152 1.152 0 00-.06-.154c-.017-.06-.043-.111-.06-.18-.026-.06-.051-.127-.085-.196-.018-.042-.035-.094-.06-.136-.026-.043-.052-.094-.077-.137-.06-.094-.137-.18-.189-.29.026-.086-.06-.111-.137-.137-.077-.026-.145-.051-.103-.162-.042-.137-.17-.214-.316-.274-.069-.034-.103-.102-.163-.145-.052-.05-.111-.102-.214-.094-.137.06-.163-.034-.206-.128-.042-.085-.102-.17-.24-.068-.18 0-.333-.077-.496-.137-.129-.222-.36-.076-.548-.068-.171-.248-.394-.154-.582.017-.214-.299-.463-.213-.591.111-.094.026-.206.034-.308.051-.103.026-.206.069-.266.171-.086.06-.18.111-.257.18a1.977 1.977 0 01-.265.162c-.043.281-.154.393-.428.444a.345.345 0 010 .188.39.39 0 01-.06.136.344.344 0 01-.112.111c-.042.034-.077.077-.128.111-.043.043-.077.086-.077.146s0 .12.008.17v.171c0 .051-.025.103-.077.154-.025.11 0 .23 0 .35.017.094.026.162.035.248 0 .025-.018.042-.018.068v.077c0 .051 0 .102.026.145.034.094.129.18.274.196.189.137.411.24.548.496.351-.026.514.205.702.47.274.119.454.41.797.443.257.18.608.205.847.445.257.213.514.427.865.47.368.033.54.384.856.512.078.179.232.264.386.333.154.076.325.136.437.281.068.052.137.12.197.18.05.068.11.145.162.213.06.069.112.145.172.214.06.068.128.128.205.196.06.077.128.145.18.222l.154.256c.077.188.145.385.137.59.214.162.206.401.154.589-.068.18-.154.333-.137.512a.674.674 0 00-.094.248.655.655 0 00-.017.128l-.026.128c-.017.086-.026.171-.043.256a1.132 1.132 0 01-.085.24.82.82 0 01-.095.239l-.154.205c-.051.068-.103.128-.154.196a.562.562 0 00-.103.23c-.12.12-.197.265-.308.385-.111.12-.231.239-.394.273a.414.414 0 01-.162.18c-.069.034-.146.06-.223.085-.154.051-.308.06-.411.18-.137.059-.266.11-.403.161-.137.035-.273.077-.41.086a.444.444 0 00-.42-.043c-.129.034-.248.12-.386.128-.256-.017-.522.162-.761-.043-.249-.042-.454-.204-.703-.153-.12-.017-.205-.137-.282-.222-.086-.094-.172-.145-.343-.026-.111-.017-.18-.128-.248-.213-.069-.094-.137-.163-.291-.12-.146.043-.231-.034-.283-.12-.06-.085-.094-.196-.154-.264-.137-.128-.24-.282-.343-.419-.428-.657-.522-1.264-.513-1.656 0-.197.034-.342.06-.444.025-.103.06-.146.094-.146.043 0 .077.06.128.171.026.051.043.12.069.205.034.077.068.17.094.265.026.102.086.205.137.324.017.06.06.111.094.171.034.06.06.12.103.18.154.247.368.495.65.708.06.043.146.06.223.077.078.017.129.06.154.171.069.043.155.051.232.068.085.017.154.043.205.128.129-.076.206-.068.274-.017.069.052.137.12.223.154.171.034.342.145.548.068.103-.06.188-.042.282-.017a.382.382 0 00.292 0c.205.146.42.069.59-.11.112.05.215 0 .309-.043.085-.06.171-.137.265-.18.137.06.248.034.326-.051a.485.485 0 00.102-.128l.077-.154c.112-.18.334-.247.42-.444.154-.145.18-.367.291-.546v-.171c0-.06 0-.111.009-.163 0-.025.008-.05.025-.076 0-.026.017-.052.026-.077a.496.496 0 01.094-.154 1.203 1.203 0 01-.008-.35v-.137c0-.042 0-.094-.009-.136a.584.584 0 01-.111-.248l-.052-.137a.6.6 0 00-.085-.136.473.473 0 01-.094-.145c-.026-.052-.043-.12-.078-.171a.405.405 0 00-.12-.145.334.334 0 00-.214-.052c-.214-.145-.393-.367-.667-.486-.223-.188-.471-.368-.771-.453-.146-.367-.505-.384-.83-.444-.317-.085-.591-.265-.857-.453a5.664 5.664 0 01-.856-.486c-.326-.111-.505-.445-.84-.573a.77.77 0 01-.222-.145c-.069-.06-.12-.128-.18-.205-.111-.136-.214-.299-.377-.41a1.705 1.705 0 01-.385-.46 1.092 1.092 0 01-.12-.291c-.017-.051-.025-.103-.034-.154v-.17c-.06-.206-.017-.428.009-.616a.715.715 0 00-.043-.512 1.4 1.4 0 00-.026-.265c0-.042-.017-.094-.017-.136v-.137c0-.094.026-.18.077-.256a.515.515 0 01.24-.197.723.723 0 01.085-.239c.052-.068.103-.136.163-.205.052-.068.111-.128.163-.196a.563.563 0 00.102-.23c.206-.052.309-.163.403-.3.094-.128.171-.281.308-.367.069-.034.137-.077.214-.11.069-.026.146-.06.214-.095.137-.068.266-.128.377-.247.112-.12.257-.154.403-.18.145-.017.29-.025.42-.077.12-.093.265-.085.41-.06.137.035.274.052.394-.033.257.017.522-.035.762.042.137-.153.274-.145.386-.068.11.068.214.18.316.23.103.06.232.026.351.043.12.017.232.051.283.214.154-.069.265-.026.343.05.077.086.136.206.205.283a.646.646 0 00.257.17c.094.043.171.103.197.223.128 0 .188.076.214.179.034.094.051.196.128.248 0 .102.052.17.103.239.051.06.12.12.137.196a.498.498 0 01.154.41c.017.068.035.128.052.188.017.06.017.12.034.18.017.085.025.17.034.247v.393c0 .05-.017.102-.026.145-.034.18-.077.265-.128.265l-.06-.017z"/><path id="Vector_5" d="M36.966 28.668c-.094 0-.188-.188-.274-.538-.009-.06-.026-.12-.043-.188a.454.454 0 01-.043-.213c.129-.077-.23-.154-.034-.24.051-.085 0-.17-.034-.256-.043-.094.077-.18-.034-.282-.249-.093.274-.196-.035-.307-.068-.102-.043-.213-.034-.324.188-.111 0-.223-.034-.342.222-.12.128-.24-.026-.359.308-.12.257-.247-.026-.384-.008-.128.112-.265-.025-.401-.017-.137-.077-.274-.026-.419-.206-.145-.197-.282-.017-.427-.223-.145-.137-.29-.017-.444.12-.154-.197-.307-.017-.461.017-.154-.052-.316-.017-.47.094-.162.197-.316-.009-.478-.051-.162-.128-.325-.009-.495-.24-.163-.128-.333 0-.504-.034-.17.129-.342 0-.512.035-.171-.102-.35 0-.521.069-.18.137-.35 0-.521-.154-.171.06-.342 0-.513.223-.17-.068-.341 0-.504-.025-.162.129-.333.009-.495-.043-.162-.086-.324.009-.487-.343-.162.085-.316.017-.47.145-.153-.026-.307.017-.46-.06-.154.154-.3.017-.445.026-.145-.111-.29.017-.427-.171-.145.146-.281.026-.418 0-.137-.009-.265.025-.401.266-.128.043-.257.026-.385.026-.128-.154-.247.026-.358.025-.12.137-.231.034-.342-.043-.111.385-.222.034-.325-.06-.102.274-.204.035-.307-.215-.094.025-.188.034-.282.008-.094.026-.18.034-.256.111-.743.248-1.17.394-1.17.163 0 .308.53.428 1.426.009.094.197.188.034.282 0 .103.146.197.035.308.248.102.042.213.034.324.008.111-.069.23.034.342.146.12-.068.239.026.358-.154.128-.112.248.025.385-.145.128.035.264.026.4-.222.138-.068.274.026.42.085.145-.034.281.026.426-.043.146.06.29.017.445.102.153.145.298.017.46.068.154.017.317.017.47.094.163-.009.325.008.487.043.162-.24.325.009.495.034.171-.043.333 0 .504-.034.171-.069.342 0 .513-.248.17-.094.35 0 .52.069.18.034.35 0 .521.026.171.009.342 0 .513.077.17-.103.341 0 .504.103.17-.111.333-.009.495.069.162.112.324-.008.478 0 .163-.223.316-.017.47.051.154.325.307-.017.461.085.154-.163.299-.017.444-.257.145-.018.29-.026.427-.052.137-.137.282-.026.419.12.136-.068.264-.026.401.146.128-.188.256-.025.384-.035.12.025.248-.026.359.343.12 0 .23-.034.341-.052.111.222.223-.034.325.256.103.034.205-.035.308-.077.102.112.187-.034.281.18.094-.103.18-.034.256-.12.086 0 .163-.034.24.042.076.025.145-.043.213-.017.068-.026.128-.043.188-.086.35-.171.538-.266.538h-.008z"/><path id="Vector_6" d="M.736 47.08c-.051 0-.094-.444-.137-1.29-.043-.845-.086-2.092-.128-3.715-.018-.538-.026-1.118-.043-1.742-.009-.41-.026-.837-.034-1.28.23 0 .462 0 .693-.01h.668c.702.129 1.439-.23 2.21-.033.77.06 1.583 0 2.423-.035.847-.042 1.73.077 2.637-.034.916-.247 1.867.274 2.843-.034.984-.068 1.995-.051 3.04-.034 1.044.188 2.115 0 3.22-.034 1.104.222 2.243.128 3.399-.026 1.164.308 2.354.256 3.57-.025 1.216-.009 2.466.11 3.734-.026 1.267-.017 2.569-.077 3.887-.026 1.319-.205 2.663-.196 4.033-.017 1.37-.222 2.758-.136 4.17-.017 1.413.12 2.843-.196 4.29-.017 1.447.017 2.92-.051 4.41-.017 1.49.094 2.997.197 4.521-.008 1.525-.052 3.066-.129 4.624-.009 1.559-.24 3.134-.128 4.718 0 1.585-.043 3.194.128 4.804 0 .805.017 1.619 0 2.432-.026.403-.008.814-.017 1.225-.017.282 0 .573 0 .856.009.385 0 .762.017 1.13.025 0 .385-.017.769-.025 1.145v.538l-.026.307c-.017.41-.026.812-.034 1.221-.009.812.008 1.623.077 2.426.042.47.06.94.051 1.409-.009.726-.026 1.451-.034 2.177l-1.773-.025h-.993c-1.593-.222-3.16.068-4.718 0-1.559.025-3.1-.128-4.624-.009-1.524.043-3.031.086-4.521-.008-1.49.341-2.963-.086-4.41-.017-1.447-.145-2.886.017-4.29-.017-1.413.06-2.8-.154-4.17-.017-1.37-.026-2.706.11-4.033-.026-1.319.17-2.612-.145-3.888-.026-1.267 0-2.517.009-3.733-.025-1.216-.265-2.406-.043-3.57-.026-1.165-.026-2.296.154-3.4-.026-1.105-.025-2.184-.136-3.229-.034-1.044.043-2.055-.384-3.04-.034-.975.06-1.926-.273-2.842-.034-.916.222-1.798-.026-2.638-.034-.847-.009-1.652-.026-2.431-.034-3.477-.06-6.217-.12-8.084-.188-1.866-.069-2.86-.137-2.86-.205 0-.077 1.233-.154 3.52-.23a673.49 673.49 0 019.855-.197c.848-.009 1.722-.197 2.638-.034.916 0 1.858-.137 2.843-.035.984-.247 1.995-.042 3.04-.034 1.044-.008 2.114.069 3.228-.034 1.104-.145 2.235.069 3.4-.034 1.164.154 2.354.111 3.57-.026 1.216.145 2.466-.034 3.733-.025 1.267.222 2.569.068 3.888-.026 1.318-.085 2.663.034 4.033-.017 1.37.043 2.757-.06 4.17-.017 1.413-.102 2.843-.145 4.29-.017 1.455-.077 2.92-.017 4.41-.017 1.49-.086 2.997.008 4.52-.009 1.525-.042 3.066.24 4.625-.008 1.558-.034 3.134.042 4.718 0 .325 0 .66.017.993.017h.154l.086.008v-.657c-.009-.47-.017-.94-.043-1.41.12-.802.146-1.613.129-2.425-.009-.41-.035-.81-.052-1.22l-.017-.308v-.077s-.034-.051-.051-.06l-.077.026H70.71c-.813 0-1.626-.026-2.431-.043-1.619.026-3.22.009-4.804 0-1.593.077-3.16-.102-4.718 0-1.559.102-3.1-.111-4.624-.008-1.524.068-3.031.11-4.521-.009-1.49 0-2.963-.222-4.41-.017-1.456.051-2.886.324-4.29-.017-1.413.085-2.8-.162-4.17-.017-1.37-.257-2.706-.017-4.033-.026-1.319-.051-2.612-.136-3.888-.026-1.267.12-2.517-.068-3.733-.025-1.216.145-2.406-.188-3.57-.026-1.165-.034-2.296.017-3.4-.025-1.105.341-2.184 0-3.22-.035-1.045-.05-2.055.223-3.04-.034-.985.257-1.926.035-2.843-.034-.916-.077-1.79.111-2.637-.034-.848.18-1.653-.102-2.423-.034-.771-.12-1.507 0-2.21-.043h-.128l-.077.017h-.435c0 .086-.01.171-.018.265-.017.102-.026.196-.043.299-.017.623-.025 1.195-.042 1.742-.043 1.614-.086 2.87-.129 3.715-.043.845-.094 1.29-.137 1.29v-.01z"/><path id="Vector_7" d="M.711 47.072c.051 0 .094.444.137 1.29.043.844.086 2.1.128 3.714.018.538.026 1.119.043 1.742.009.197.026.401.034.606.103 0 .215 0 .326-.008h.377c.693.128 1.438-.23 2.209-.043.77.06 1.584 0 2.423-.034.848-.043 1.73.077 2.637-.034.917-.248 1.859.273 2.843-.034.976-.069 1.995-.052 3.04-.035 1.045.188 2.115 0 3.228-.034 1.105.222 2.235.128 3.4-.025 1.164.307 2.355.256 3.57-.026 1.216-.008 2.467.111 3.734-.026 1.267-.017 2.569-.076 3.887-.025 1.32-.205 2.663-.197 4.034-.026 1.37-.222 2.757-.136 4.161-.017 1.413.12 2.843-.196 4.29-.017 1.447.017 2.92-.051 4.41-.017 1.49.094 2.997.188 4.521-.009 1.524-.05 3.066-.128 4.624-.008 1.558-.24 3.134-.128 4.718 0 1.584-.043 3.194.128 4.804 0 .805.017 1.618 0 2.432-.026.402 0 .813-.017 1.224-.017h.368c.026 0 .052.017.095.026 0 0 .017-.043.025-.077v-.393c.026-.41.034-.811.043-1.221.009-.811 0-1.623-.077-2.425-.043-.47-.06-.94-.051-1.41v-.35l.008-.162v-.017s.017-.051.026-.094a.122.122 0 01-.052-.017h-.034l-.017-.008h-1.105c-1.584-.222-3.16.068-4.718 0-1.558.017-3.1-.128-4.623-.009-1.525.043-3.032.085-4.522-.008-1.49.341-2.962-.086-4.41-.018-1.447-.145-2.885.017-4.29-.017-1.412.06-2.8-.153-4.161-.017-1.37-.025-2.706.111-4.033-.017-1.319.17-2.612-.145-3.888-.026-1.267 0-2.517.01-3.733-.025-1.216-.265-2.406-.043-3.57-.026-1.165-.025-2.296.145-3.4-.025-1.105-.026-2.184-.137-3.228-.035-1.045.035-2.055-.384-3.04-.034-.976.06-1.927-.273-2.843-.034-.916.214-1.798-.025-2.637-.034-.848-.017-1.653-.026-2.424-.034-3.476-.06-6.216-.12-8.083-.188s-2.86-.137-2.86-.205c0-.077 1.233-.154 3.52-.23a783.88 783.88 0 019.855-.206c.848-.008 1.721-.196 2.638-.034.916 0 1.858-.145 2.842-.034.977-.247 1.995-.042 3.04-.034 1.045-.008 2.115.068 3.228-.034 1.105-.145 2.235.068 3.4-.026 1.164.154 2.354.111 3.57-.025 1.216.145 2.467-.034 3.734-.026 1.267.23 2.569.068 3.887-.026 1.32-.085 2.663.035 4.034-.017 1.37.043 2.757-.06 4.17-.017 1.413-.102 2.842-.145 4.29-.017 1.455-.068 2.92-.017 4.41-.017 1.49-.094 2.996.009 4.52-.008 1.525-.043 3.066.239 4.625-.009 1.558-.034 3.133.043 4.718 0 .334 0 .659.009.993.017.582 0 1.165.009 1.747.017v2.152c0 .47.017.94.034 1.41a14.34 14.34 0 00-.128 2.425c.008.4.025.81.05 1.22l.018.308.017.538c.009.385.026.777.034 1.17-.676.009-1.344.026-2.012.034h-1.224c-.814 0-1.627-.025-2.432-.042-1.618.025-3.22.008-4.804 0-1.584.077-3.16-.103-4.718 0-1.559.102-3.1-.111-4.624-.009-1.524.068-3.031.111-4.521-.008-1.49 0-2.963-.222-4.41-.017-1.456.05-2.886.324-4.29-.018-1.413.086-2.8-.162-4.161-.017-1.37-.247-2.715-.008-4.034-.017-1.318-.051-2.611-.136-3.887-.025-1.267.12-2.518-.069-3.733-.026-1.216.145-2.407-.188-3.571-.026-1.165-.034-2.295.026-3.4-.025-1.104.341-2.183 0-3.228-.034-1.044-.052-2.055.222-3.04-.035-.976.257-1.926.035-2.843-.034-.916-.077-1.798.111-2.637-.034-.848.18-1.652-.102-2.423-.034-.77-.12-1.507 0-2.21-.043h-.128l-.18.017H.343c0-.23.008-.47.017-.691 0-.111.008-.222.017-.333v-.163l.017-.077v-.06c.017-.623.034-1.195.052-1.742.042-1.614.085-2.869.128-3.714.043-.846.094-1.29.137-1.29v-.025z"/><path id="Vector_8" d="M.736 62.426c-.051 0-.094-.444-.137-1.29a167.27 167.27 0 01-.128-3.714c-.018-.538-.026-1.12-.043-1.734-.009-.41-.026-.828-.034-1.272.23 0 .462 0 .702-.009h.668c.702.128 1.43-.23 2.209-.043.77.06 1.584 0 2.432-.034.847-.042 1.72.077 2.637-.034.916-.248 1.858.273 2.843-.034.976-.068 1.995-.051 3.04-.034 1.044.188 2.115 0 3.22-.034 1.104.222 2.234.128 3.399-.026 1.164.307 2.354.256 3.57-.026 1.216-.008 2.466.111 3.734-.025 1.267-.017 2.569-.077 3.887-.026 1.32-.205 2.663-.196 4.034-.026 1.37-.221 2.757-.136 4.161-.017 1.413.12 2.843-.196 4.29-.017 1.447.017 2.92-.05 4.41-.017 1.49.094 2.997.188 4.521-.008 1.524-.051 3.066-.128 4.624-.009 1.558-.239 3.134-.128 4.718 0 1.584-.042 3.194.128 4.804 0 .805.017 1.618 0 2.432-.026.402 0 .813-.016 1.224-.016.283 0 .574 0 .856.008.386 0 .763.017 1.13.026 0 .384-.016.76-.025 1.144v.53l-.026.307c-.017.41-.025.811-.034 1.221-.008.811.009 1.623.077 2.425.043.47.06.94.052 1.41-.009.725-.026 1.451-.035 2.177l-1.78-.026h-.994c-1.593-.222-3.16.069-4.718 0-1.559.026-3.1-.128-4.624-.008-1.524.043-3.031.085-4.521-.009-1.49.342-2.963-.085-4.41-.017-1.456-.145-2.886.017-4.29-.017-1.413.06-2.8-.154-4.162-.017-1.37-.026-2.706.111-4.033-.026-1.318.171-2.611-.145-3.887-.025-1.268 0-2.518.008-3.734-.026-1.216-.264-2.406-.042-3.57-.025-1.165-.026-2.295.153-3.4-.026-1.104-.026-2.175-.137-3.228-.034-1.045.043-2.055-.384-3.031-.034-.985.06-1.927-.273-2.843-.034-.916.222-1.79-.026-2.637-.035-.848-.017-1.653-.025-2.432-.034-3.477-.06-6.217-.12-8.084-.188-1.866-.068-2.86-.136-2.86-.205 0-.076 1.233-.153 3.52-.23 2.286-.069 5.625-.137 9.855-.197.848-.008 1.722-.196 2.638-.034.916 0 1.858-.145 2.843-.034.976-.247 1.995-.043 3.031-.034 1.045-.009 2.124.068 3.228-.034 1.105-.145 2.235.068 3.4-.026 1.164.154 2.354.111 3.57-.025 1.216.145 2.466-.035 3.734-.026 1.267.222 2.569.068 3.887-.026 1.319-.085 2.663.035 4.033-.025 1.362.042 2.758-.06 4.162-.017 1.413-.103 2.843-.146 4.29-.018 1.447-.076 2.92-.017 4.41-.017 1.49-.093 2.997.009 4.52-.008 1.525-.051 3.066.239 4.625-.009 1.558-.034 3.134.035 4.718 0 .334 0 .66.009.993.018h.171l.086.008v-.649c-.009-.47-.017-.94-.043-1.41.12-.802.146-1.613.129-2.424-.009-.41-.035-.812-.052-1.222l-.017-.307v-.077s-.034-.051-.051-.06l-.077.026h-.36c-.41.008-.813.008-1.224.008-.814 0-1.627-.025-2.432-.042-1.619.025-3.22.008-4.804 0-1.584.077-3.16-.103-4.718 0-1.558.102-3.1-.111-4.624-.009-1.524.069-3.031.111-4.521-.008-1.49 0-2.963-.222-4.41-.017-1.456.05-2.886.324-4.29-.017-1.413.085-2.8-.163-4.161-.017-1.37-.248-2.706-.01-4.034-.018-1.318-.05-2.611-.136-3.887-.025-1.267.12-2.518-.069-3.733-.026-1.216.145-2.407-.188-3.571-.026-1.165-.034-2.295.026-3.4-.025-1.104.341-2.175 0-3.22-.034-1.044-.052-2.054.222-3.04-.034-.984.256-1.926.034-2.842-.035-.916-.076-1.79.111-2.637-.034-.848.18-1.653-.102-2.432-.034-.77-.12-1.507 0-2.21-.043-.076 0-.145.009-.213.017h-.437c0 .086-.009.171-.017.265-.017.103-.026.197-.043.29-.017.616-.026 1.196-.043 1.743-.043 1.614-.086 2.87-.128 3.715-.043.845-.095 1.289-.137 1.289l-.009-.017z"/><path id="Vector_9" d="M.711 62.426c.051 0 .094.444.137 1.29.043.845.086 2.1.128 3.714.018.538.026 1.119.043 1.734.009.196.026.401.034.606.103 0 .215 0 .326-.008h.377c.693.128 1.438-.231 2.209-.035.77.052 1.584 0 2.423-.034.848-.043 1.73.077 2.637-.034.917-.248 1.859.273 2.843-.034.976-.068 1.995-.051 3.04-.034 1.045.188 2.115 0 3.228-.034 1.105.222 2.235.128 3.4-.026 1.164.307 2.355.256 3.57-.026 1.216-.008 2.467.111 3.734-.025 1.267-.017 2.569-.077 3.887-.026 1.32-.205 2.663-.196 4.034-.017 1.37-.222 2.757-.137 4.161-.017 1.413.12 2.843-.197 4.29-.017 1.447.008 2.92-.051 4.41-.017 1.49.094 2.997.196 4.521-.009 1.524-.051 3.066-.128 4.624-.008 1.558-.24 3.134-.128 4.718 0 1.584-.043 3.194.128 4.804 0 .805.017 1.618 0 2.432-.026.402-.008.813-.017 1.224-.017h.368s.052.017.095.034l.025-.077v-.392c.026-.41.034-.812.043-1.222.009-.811 0-1.622-.077-2.425-.043-.47-.06-.94-.051-1.41v-.35l.008-.162v-.017s.017-.05.026-.093a.121.121 0 01-.052-.018h-.034l-.017-.008h-1.105c-1.584-.222-3.16.068-4.718 0-1.558.026-3.1-.128-4.623-.009-1.525.043-3.032.086-4.522-.008-1.49.341-2.962-.086-4.41-.017-1.447-.145-2.885.017-4.29-.017-1.412.06-2.8-.154-4.161-.017-1.37-.026-2.706.11-4.033-.026-1.319.17-2.612-.145-3.888-.026-1.267 0-2.517.009-3.733-.025-1.216-.265-2.406-.043-3.57-.026-1.165-.026-2.296.154-3.4-.026-1.105-.025-2.184-.136-3.228-.034-1.045.043-2.055-.384-3.04-.034-.976.06-1.927-.273-2.843-.034-.916.222-1.798-.026-2.637-.034-.848-.017-1.653-.026-2.424-.034-3.476-.06-6.216-.12-8.083-.188-1.867-.069-2.86-.137-2.86-.205 0-.077 1.233-.154 3.52-.23 2.286-.07 5.625-.137 9.855-.197.848-.009 1.721-.197 2.638-.034.916 0 1.858-.146 2.842-.035.977-.247 1.995-.042 3.04-.034 1.045-.008 2.115.069 3.228-.034 1.105-.145 2.235.069 3.4-.025 1.164.153 2.354.11 3.57-.026 1.216.145 2.467-.034 3.734-.026 1.267.222 2.569.069 3.887-.025 1.32-.086 2.663.034 4.034-.026 1.37.043 2.757-.06 4.17-.017 1.413-.102 2.842-.145 4.29-.017 1.455-.077 2.92-.017 4.41-.017 1.49-.094 2.996.008 4.52-.009 1.525-.05 3.066.24 4.625-.008 1.558-.034 3.133.034 4.718 0 .334 0 .659.008.993.017.582 0 1.165.008 1.747.017v2.152c0 .47.017.94.034 1.41a14.34 14.34 0 00-.128 2.424c.008.41.025.812.05 1.222l.018.307.017.538c.009.384.026.777.034 1.161-.676.009-1.344.026-2.012.035h-1.224c-.814 0-1.627-.026-2.432-.043-1.618.025-3.22.008-4.804 0-1.584.077-3.16-.103-4.718 0-1.559.102-3.1-.111-4.624-.009-1.524.069-3.031.111-4.521-.008-1.49 0-2.963-.222-4.41-.017-1.456.051-2.886.324-4.29-.017-1.413.085-2.8-.163-4.161-.017-1.37-.248-2.715-.017-4.034-.026-1.318-.051-2.611-.137-3.887-.026-1.267.12-2.518-.068-3.733-.025-1.216.145-2.407-.188-3.571-.026-1.165-.034-2.295.017-3.4-.025-1.104.341-2.183 0-3.228-.035-1.044-.05-2.055.222-3.04-.034-.976.256-1.926.034-2.843-.034-.916-.077-1.798.111-2.637-.034-.848.18-1.652-.103-2.423-.034-.77-.12-1.507 0-2.21-.035h-.128l-.18.018H.343c0-.24.008-.47.017-.692 0-.111.008-.222.017-.333v-.162l.017-.077v-.06c.017-.623.034-1.196.052-1.742.042-1.614.085-2.87.128-3.715.043-.846.094-1.29.137-1.29v-.025z"/></g><defs><clipPath id="clip0_1379_111"><path fill="#fff" d="M0 0h74v71H0z"/></clipPath></defs></svg>