<svg width="68" height="62" fill="none" xmlns="http://www.w3.org/2000/svg"><g id="Isolation_Mode" clip-path="url(#clip0_1379_224)" fill="#000"><path id="Vector" d="M6.672 25.107s-.12.048-.342.08c-.112.016-.255.024-.422.072-.08.016-.175.04-.27.056a1.258 1.258 0 00-.152.032c-.048.016-.104.032-.151.048-.104.032-.215.065-.335.105-.12.04-.239.096-.366.144-.064.024-.127.056-.191.08-.064.032-.128.072-.191.104-.064.032-.136.072-.2.104-.031.016-.071.04-.103.056a.451.451 0 01-.103.064 5.869 5.869 0 00-1.633 1.497c-.342.44-.62.977-.828 1.577-.199.609-.294 1.273-.31 1.994-.112.752.207 1.545.032 2.37-.048.832 0 1.697.031 2.61.04.904-.071 1.857.032 2.834.215.985-.239 2.002.032 3.058.032.52.032 1.065.048 1.602 0 .128.016.248.016.376v.096l.016.096.024.192c.024.256.095.497.159.753a3.43 3.43 0 00.613 1.449c.318.432.717.809 1.139 1.153.358.424.836.744 1.361.96.534.209 1.115.28 1.68.257.136.04.279.08.43.112.16.024.31.048.47.064.31.032.63.04.948.04a9.93 9.93 0 001.927-.208c1.297-.008 2.627.096 3.989-.024 1.353-.016 2.739-.072 4.148-.024 1.41-.184 2.843-.176 4.308-.016 1.457-.2 2.946-.12 4.451-.016 1.505.112 3.034-.176 4.587-.016 1.552.016 3.12-.048 4.713-.016 1.593.08 3.201.168 4.834-.008 1.632-.048 3.28-.112 4.944 0 1.664-.209 3.345-.12 5.04 0 1.697-.032 3.409.112 5.136 0 1.728.032 3.464-.096 5.216 0a4.83 4.83 0 002.27-.457 4.49 4.49 0 001.775-1.473c.43-.64.78-1.313.995-2.041.024-.089.056-.185.08-.273l.055-.28c.048-.184.048-.376.064-.56.016-.176.016-.409.016-.617 0-.216 0-.424-.008-.64.2-1.706-.064-3.395 0-5.068-.016-1.674.112-3.33 0-4.972 0-.408-.016-.817-.024-1.225 0-.104-.008-.192-.016-.28l-.016-.272c0-.088-.023-.177-.031-.265l-.04-.264a6.15 6.15 0 00-.765-1.985c-.525-.497-.995-.985-1.552-1.41-.55-.416-1.187-.752-1.88-.848l-.254-.064-.128-.032-.127-.016-.263-.024h-.127c-.048-.016-.096-.016-.144-.016-.382 0-.764 0-1.154.008-.765.016-1.521.048-2.278.024-1.504.056-2.993-.136-4.45-.016-1.458-.024-2.899.096-4.308-.016-1.41.152-2.795-.128-4.149-.024-1.353 0-2.683.008-3.989-.024-1.298-.232-2.572-.04-3.814-.024-1.242-.024-2.453.136-3.63-.024-1.18-.016-2.334-.12-3.449-.024-1.114.032-2.197-.345-3.248-.032-1.051.056-2.063-.24-3.034-.032-.98.192-1.92-.024-2.819-.032-.9-.008-1.768-.024-2.596-.032a607.95 607.95 0 01-8.631-.16c-1.99-.057-3.058-.12-3.058-.185 0-.032.327-.072.964-.104s1.576-.064 2.795-.096c2.444-.064 6.011-.128 10.526-.176.9-.008 1.84-.176 2.819-.032.98 0 1.99-.128 3.034-.032 1.05-.216 2.126-.04 3.248-.032 1.115-.008 2.262.056 3.448-.024 1.178-.128 2.389.064 3.631-.024 1.242.136 2.516.096 3.814-.024 1.298.128 2.628-.024 3.99-.024 1.353.2 2.738.064 4.148-.024 1.41-.072 2.842.032 4.308-.016 1.457.04 2.946-.048 4.45-.016.757-.048 1.513-.08 2.278-.088.382 0 .764 0 1.154.008h.152l.159.016.326.032.16.016.159.032.318.072a5.98 5.98 0 012.421.929c.733.48 1.37 1.12 1.863 1.857.534.713.892 1.57 1.043 2.458l.048.336c.016.112.04.224.032.337l.016.336c0 .112.008.232 0 .328v1.225c.04 1.641-.215 3.299 0 4.972.032 1.673-.032 3.362 0 5.068 0 .216 0 .424-.008.64 0 .216 0 .416-.016.665-.016.24-.024.48-.072.712l-.055.352c-.024.12-.056.233-.088.353a7.26 7.26 0 01-1.258 2.578c-.7.672-1.465 1.249-2.317 1.681a6.92 6.92 0 01-2.78.76c-1.75.065-3.487.033-5.215 0-1.727.025-3.44.009-5.135 0-1.696.065-3.376-.095-5.04 0-1.665.097-3.313-.103-4.945-.007-1.633.064-3.241.096-4.834-.008-1.592 0-3.16-.2-4.713-.016-1.553.04-3.082.288-4.587-.016-1.505.08-2.994-.153-4.45-.016-1.458-.224-2.9-.008-4.309-.016-1.409-.04-2.794-.12-4.148-.024-1.354.104-2.684-.056-3.99-.024-.652.064-1.297.024-1.926-.016-.319-.016-.637-.04-.948-.048h-.47c-.167 0-.334 0-.51.008a6.98 6.98 0 01-1.942-.473 6.183 6.183 0 01-1.656-1.025c-.59-.296-1.027-.808-1.346-1.353-.318-.552-.494-1.16-.669-1.737-.064-.296-.16-.584-.207-.88l-.048-.217-.024-.112-.015-.112-.048-.448c0-.072-.008-.145-.016-.209v-.6c.008-.272.04-.536.095-.793-.23-1.056-.031-2.073.032-3.058.064-.985-.095-1.93.032-2.834-.16-.905.088-1.777.032-2.61.103-.833 0-1.625.032-2.37-.04-.785.12-1.545.414-2.178.255-.648.581-1.225.971-1.689a6.01 6.01 0 011.824-1.521l.111-.064c.04-.016.08-.032.112-.048.071-.032.151-.064.223-.096l.215-.096c.071-.024.143-.049.207-.073.135-.04.262-.088.39-.128.127-.024.247-.056.358-.08.056-.008.112-.024.167-.032.056-.008.104-.016.16-.016.103-.008.199-.016.286-.032.175-.024.319-.016.438-.008.239.008.35.024.35.048l.032-.056z"/><path id="Vector_2" d="M6.68 25.123s.088-.392.367-1.08c.278-.697.7-1.714 1.266-3.019.19-.44.39-.905.605-1.409.207-.504.43-1.04.693-1.593.358-.512.342-1.233.78-1.777.326-.593.59-1.266.86-1.954.279-.689.7-1.345.947-2.122.144-.824.908-1.385 1.02-2.281.31-.81.692-1.61 1.09-2.434.534-.76.78-1.69 1.163-2.586.59-.8.924-1.738 1.226-2.722.191-.225.35-.465.502-.713.04-.064.071-.128.103-.184a1.73 1.73 0 00.112-.216c.087-.184.175-.369.255-.56.159 0 .326-.017.493-.025h.128l.063-.016h.056l.175-.024c.24-.032.47-.08.709-.136C20.36.264 21.45.368 22.558.248c1.114-.016 2.245-.072 3.4-.024C27.112.04 28.29.048 29.485.208c1.194-.2 2.413-.12 3.647-.016 1.234.112 2.484-.176 3.758-.016 1.274.016 2.556-.048 3.862-.016 1.306.08 2.628.168 3.957-.008C46.047.104 47.393.04 48.762.144c.231-.032.462-.064.693-.08l.175-.016h.327l.692-.024.295.616.207.457c.096.208.183.424.27.632.176.425.335.857.494 1.297.614 1.25 1.075 2.594 1.776 3.835.565 1.305 1.274 2.554 1.8 3.9.549 1.336 1.09 2.657 1.8 3.898.716 1.233 1.138 2.594 1.767 3.835.406 1.353 1.226 2.498 1.736 3.771.207.433.398.865.58 1.305l.073.168.127.297.255.576c.175.384.342.76.517 1.137-.732 0-1.433.008-2.173.04l-1.012.024c-.334.008-.66.016-.995.016-.66 0-1.314-.008-1.967-.048-1.306.304-2.596-.08-3.862-.016-1.274-.128-2.524.016-3.758-.016-1.234.056-2.452-.136-3.647-.016-1.194-.024-2.373.096-3.527-.016-1.155.152-2.293-.128-3.4-.024-1.115 0-2.198.008-3.265-.024-1.067-.232-2.11-.04-3.129-.024-1.02-.024-2.007.136-2.978-.024-.963-.016-1.903-.12-2.819-.024-.915.032-1.8-.345-2.66-.032-.86.056-1.687-.24-2.491-.032-.797.192-1.57-.024-2.31-.032s-1.449-.024-2.126-.032a408.566 408.566 0 01-7.07-.16c-1.633-.056-2.509-.12-2.509-.185 0-.072 1.075-.136 3.082-.2a478.25 478.25 0 018.623-.176c.74-.008 1.513-.176 2.31-.032.796 0 1.632-.128 2.492-.032.86-.216 1.744-.04 2.66-.032.915-.008 1.854.056 2.818-.024.963-.128 1.959.064 2.978-.024 1.02.136 2.062.096 3.13-.024 1.066.128 2.157-.024 3.264-.024 1.115.2 2.245.064 3.4-.024 1.154-.072 2.333.032 3.527-.016 1.195.04 2.413-.048 3.647-.016 1.234-.096 2.484-.128 3.758-.016 1.266-.064 2.556-.016 3.862-.016.653-.04 1.306-.04 1.967-.024.327 0 .66.008.995.016h.988c.055-.016.103 0 .207.024v-.104c0-.024-.008-.048-.016-.072l-.016-.04-.072-.16a8.695 8.695 0 00-.677-1.257c-.597-1.233-1.122-2.514-1.743-3.763-.558-1.281-1.123-2.57-1.776-3.835-.398-1.385-1.123-2.626-1.8-3.9-.66-1.28-1.234-2.593-1.8-3.898a181.265 181.265 0 01-1.767-3.835 18.013 18.013 0 01-.589-1.257c-.088-.208-.183-.425-.27-.633l-.064-.16s0-.024-.008-.032l-.016-.056h-.271c-.231 0-.462.016-.693.024-1.361.096-2.715-.096-4.053 0-1.337.064-2.651.096-3.957-.008-1.306 0-2.596-.2-3.862-.016-1.274.04-2.524.296-3.758-.016-1.235.08-2.453-.144-3.647-.016-1.195-.224-2.373-.008-3.527-.016-1.155-.04-2.294-.12-3.4-.024-1.115.104-2.206-.056-3.265-.024a4.21 4.21 0 01-.709.032h-.239l-.111-.032c-.024.032-.056.064-.08.104 0 0-.056.088-.087.144l-.096.192a4.88 4.88 0 00-.326.793c-.454.913-.829 1.841-1.274 2.706-.136 1.009-.805 1.737-1.21 2.562-.423.817-.582 1.73-1.147 2.41-.16.88-.685 1.553-1.075 2.258-.398.704-.573 1.473-1.004 2.09-.167.744-.692 1.28-.923 1.92-.382.57-.566 1.202-.844 1.746a9.472 9.472 0 01-.765 1.561c-.238.489-.461.953-.676 1.377a108.244 108.244 0 01-1.481 2.923c-.35.664-.55 1-.59.976l.008-.024z"/><path id="Vector_3" d="M6.656 49.446c.088 0 .168.489.24 1.393.007.153.023.313.039.48.024.169.048.353.032.553-.112.192.207.4.032.609-.048.216 0 .44.032.672.04.232-.072.48.031.729.215.256-.238.52.032.784.056.273.04.553.032.841-.167.288 0 .585.024.897-.2.304-.112.624.024.944-.27.32-.231.657.024.993.008.337-.096.68.024 1.033.008.176.024.352.031.536v.41c0 .04 0 .104-.015.104.119.056.159.008.127.072 0 .016-.016.056-.016.104a.661.661 0 00.088-.104c.008-.008 0-.016.024-.016h.143c.19 0 .382.056.581.104.39.112.78-.176 1.187-.016.398.016.804-.048 1.218-.016.414.08.828.168 1.25-.008.422-.048.844-.112 1.274-.008.43-.208.868-.12 1.306 0 .438-.032.884.112 1.33 0h.334c.104 0 .27-.016.239-.024.024-.016.024-.024.103.024 0 0 .064-.032.072-.088 0 .016 0-.152-.008-.248a2.457 2.457 0 00-.056-.337c-.135-.448.056-.896 0-1.337.2-.44-.063-.88 0-1.313-.016-.432.112-.864 0-1.28-.04-.425-.071-.841.008-1.258-.302-.416.08-.824.016-1.224.128-.4-.016-.801.016-1.194-.056-.392.143-.776.016-1.152.016-.193-.016-.377-.024-.569 0-.096-.008-.184 0-.28v-.016s0-.016.008-.024c0-.008.016-.024.032-.04-.072-.016-.048-.048-.008-.128 0-.04-.056-.08-.127-.032h-.343c-.175 0-.342 0-.51-.024-.334-.232-.66-.04-.987-.024-.318-.024-.637.136-.94-.024-.302-.016-.604-.12-.891-.024-.287.032-.566-.344-.836-.032-.27.056-.534-.24-.78-.032-.255.192-.494-.024-.725-.032-.231-.008-.454-.024-.669-.032-1.919-.104-3.018-.224-3.018-.345 0-.144 1.362-.272 3.695-.384.23-.008.478-.176.724-.032.255 0 .518-.128.78-.032.271-.216.55-.04.837-.032.287-.008.581.056.892-.032.302-.128.62.064.94-.024.318.136.644.096.987-.024.167.064.334.056.51.04.087-.016.174-.024.262-.04h.103l.112-.008h.23c.28.104.526.12.845.096.024.264.072.52.12.833.007.08.015.16.015.24v.512c-.008.184-.024.377 0 .569-.04.376.048.76.016 1.153.096.392.128.784.016 1.193.064.4.016.808.016 1.224.08.417-.008.833.008 1.257.04.425-.215.85.008 1.281.032.433-.032.865 0 1.313-.024.44-.056.89 0 1.337a1.09 1.09 0 00-.104.337c-.015.12-.015.184-.008.424.016.392.072.825.112 1.297-.398.032-.836.04-1.266.032-.263 0-.319 0-.438-.016l-.335-.024c-.445.024-.883.008-1.33 0-.437.064-.875-.096-1.305 0-.43.096-.852-.104-1.274 0-.422.064-.836.096-1.25-.008-.414 0-.82-.2-1.218-.016-.399.04-.797.288-1.187-.016-.191.04-.39 0-.581-.032-.048 0-.096-.016-.143-.016-.072 0-.16-.008-.24-.008a2.99 2.99 0 00-.517.04 1.466 1.466 0 00-.557-.104c0-.208-.016-.4-.04-.6a4.089 4.089 0 01-.04-.633c0-.096.008-.128.016-.176l.016-.136c.008-.088.024-.184.032-.273.016-.176 0-.36-.04-.536-.104-.352.056-.696.024-1.033-.128-.336.167-.672.024-.992.032-.32-.016-.641.024-.945-.303-.304 0-.609.031-.897.04-.288-.199-.568.032-.84-.23-.273-.032-.537.032-.785.064-.256-.095-.496.032-.729-.16-.232.088-.456.032-.672.103-.216 0-.417.032-.609a1.078 1.078 0 01.04-.552c.015-.168.023-.336.04-.48.071-.897.15-1.394.238-1.394l-.016-.048z"/><path id="Vector_4" d="M50.96 49.447c.088 0 .168.488.24 1.392.007.153.023.313.04.48.023.17.047.353.031.553-.111.193.207.4.032.617-.048.216 0 .44.032.672.04.233-.072.48.032.737.215.256-.24.512.031.784.056.273.04.553.032.841-.167.288 0 .585.032.897-.199.304-.111.624.024.945-.27.32-.23.656.024.992.008.337-.096.68.024 1.033.008.176.024.352.032.537v.408c0 .04 0 .104-.016.104.12.056.159.008.127.072 0 .016-.016.056-.016.104a.666.666 0 00.088-.104h.008v-.016h.159c.191 0 .382.056.581.104.39.112.78-.176 1.187-.016.398.016.804-.048 1.218-.016.414.08.828.168 1.25-.008.422-.048.844-.112 1.274-.008.43-.208.868-.12 1.306 0 .438-.032.884.112 1.33 0h.334c.104 0 .27-.016.239-.024.024-.016.024-.024.103.024 0 0 .064-.032.072-.088 0 .016 0-.152-.008-.248a1.668 1.668 0 00-.064-.337c-.135-.448.056-.896 0-1.337.2-.44-.063-.88 0-1.313-.016-.432.112-.856 0-1.28-.04-.425-.071-.841.008-1.258-.302-.416.08-.824.016-1.224.128-.4-.016-.801.016-1.193-.056-.393.136-.777.016-1.153.016-.192-.008-.377-.024-.569 0-.096-.008-.184 0-.28v-.016s0-.016.008-.024c0-.008.016-.024.032-.04-.072-.016-.048-.048 0-.128 0-.04-.056-.08-.127-.032h-.343c-.175 0-.342 0-.51-.024-.334-.232-.66-.04-.987-.024-.318-.024-.637.136-.94-.024-.302-.016-.596-.12-.891-.024-.287.032-.565-.344-.836-.032-.27.056-.534-.24-.788-.032-.255.192-.494-.024-.725-.032-.23-.008-.454-.024-.669-.032-1.919-.104-3.018-.224-3.018-.345 0-.144 1.362-.272 3.687-.384.231-.008.478-.176.725-.032.254 0 .517-.128.788-.032.27-.216.55-.04.836-.032.287-.008.581.056.892-.032.302-.128.62.064.94-.024.318.136.652.096.987-.024.167.064.334.056.51.04.087-.016.175-.024.262-.04h.104l.111-.008h.231c.279.104.526.12.844.096.024.264.072.52.111.825l.024.24v.232c0 .088 0 .184-.008.28-.008.184-.024.377 0 .569-.04.376.056.768.016 1.153.096.392.128.784.016 1.193.064.4.016.808.016 1.224.08.417-.008.833.008 1.258.04.424-.215.848.008 1.28.032.433-.032.873 0 1.313-.032.44-.056.89 0 1.338a1.09 1.09 0 00-.103.336c-.016.12-.016.184-.008.424.016.392.071.825.111 1.297-.398.032-.836.04-1.266.032-.263 0-.318 0-.438-.016l-.334-.024c-.446.024-.884.008-1.33 0-.438.064-.876-.096-1.306 0-.43.096-.852-.104-1.274 0-.422.064-.836.096-1.25-.008-.414 0-.82-.2-1.218-.016-.398.04-.797.288-1.187-.016-.19.04-.39 0-.581-.032-.048 0-.096-.016-.143-.016-.072 0-.16-.008-.24-.008-.166 0-.326.008-.517.04a1.478 1.478 0 00-.565-.104c0-.208-.024-.4-.04-.6a5.39 5.39 0 01-.04-.633c0-.096.008-.128.016-.176l.016-.136c.008-.088.024-.184.024-.272.016-.184 0-.36-.04-.537-.103-.352.056-.696.024-1.033-.127-.336.167-.664.024-.992.032-.32-.016-.64.024-.945-.303-.304 0-.609.032-.897.04-.288-.2-.568.032-.84-.231-.273-.032-.537.032-.785.063-.256-.096-.496.031-.737-.159-.232.088-.456.032-.672.104-.216 0-.417.032-.617a1.078 1.078 0 01.04-.552c.016-.168.024-.336.04-.48.071-.897.15-1.394.239-1.394l.008-.04z"/><path id="Vector_5" d="M11.553 29.375c0 .04-.072.088-.207.136-.064.024-.151.04-.247.072-.095.032-.207.072-.326.104-.08.032-.167.064-.255.104-.048.024-.088.048-.135.064a.532.532 0 01-.144.056c-.143-.064-.127.264-.302.16-.128.008-.223.096-.31.2-.088.105-.271.072-.311.249.008.128-.08.12-.175.12-.088 0-.176.024-.136.168-.032.072-.087.128-.135.184a1.508 1.508 0 01-.16.16c-.119 0-.167.072-.19.144-.032.08-.04.168-.072.248-.247.032-.279.233-.223.449-.16.016-.255.072-.279.168-.024.088.016.2.104.328-.024.08-.064.168-.104.248a.379.379 0 00-.032.136c0 .049.008.097.032.145v.28c0 .096 0 .184-.032.28.088.096.144.184.144.28 0 .048 0 .096-.024.144-.016.048-.032.096-.064.152.215.169.191.345.143.577-.016.112.056.192.128.272.071.08.143.152.12.28.031.096.103.176.166.265.056.088.128.16.176.256.016.056.031.112.047.16.024.048.048.096.08.144.032.04.072.08.12.112a.54.54 0 00.183.048c.095.056.19.104.286.16a.8.8 0 01.231.232c.295-.056.422.105.59.297.11.016.198.096.302.136.103.04.215.088.334.048a.946.946 0 00.335.024c.111-.008.223-.016.342.04.112.024.231.048.35.048.112 0 .231-.04.327-.12.095-.088.199-.104.319-.112.111 0 .23-.016.326-.08.143.056.239-.024.326-.096l.064-.056s.04-.04.056-.065a.258.258 0 01.143-.08c.088-.056.191-.112.287-.16a.438.438 0 00.23-.232c.033-.04.072-.08.096-.128.032-.048.064-.088.096-.128a.743.743 0 01.111-.112c.04-.04.08-.072.128-.096-.056-.176.016-.24.103-.304.088-.065.223-.105.231-.217a.416.416 0 00.167-.256c.016-.104.024-.208.08-.296 0-.104.056-.192.104-.28a.282.282 0 00.031-.072c0-.024.016-.048.016-.072 0-.048 0-.096-.016-.152.016-.049.016-.097.016-.145 0-.048-.008-.096-.016-.144a.5.5 0 01.048-.28c-.08-.096-.056-.184-.016-.28.032-.096.048-.192-.016-.28 0-.048-.016-.088-.024-.136l-.031-.129c-.024-.088-.032-.176-.048-.264.08-.12.056-.208.008-.288-.048-.08-.144-.128-.183-.2-.048-.176-.28-.224-.223-.448-.04-.073-.064-.153-.096-.225-.032-.072-.08-.144-.167-.168-.064-.048-.056-.16-.064-.256-.016-.096-.072-.152-.223-.088-.071-.024-.087-.12-.12-.2-.031-.072-.079-.136-.19-.096-.215.072-.207-.169-.319-.248-.103-.08-.215-.137-.31-.2-.462-.265-.876-.401-1.163-.497-.287-.08-.454-.144-.454-.208 0-.032.048-.064.151-.096.048-.016.112-.024.192-.04s.167-.016.262-.016c.399-.016 1.012.056 1.696.4.136.072.367.008.422.232.064.048.152.08.231.112.08.04.152.096.184.192.135-.016.222.032.27.12.048.08.08.185.143.265.072.064.12.152.176.24.055.08.12.16.215.216.215.112.167.384.334.536a.667.667 0 00.056.337c.048.104.12.192.215.28-.024.128 0 .24.056.344.023.056.055.104.08.16a.64.64 0 01.047.176.475.475 0 00-.048.369c.024.12.088.24.136.36.047.128.023.256 0 .376 0 .064-.016.128-.024.193a1.553 1.553 0 00-.016.192c-.072.248-.048.528-.152.784 0 .144-.015.28-.063.416a.924.924 0 01-.24.353c-.023.144-.103.264-.182.384-.072.12-.175.224-.255.344a.736.736 0 01-.104.193 1.423 1.423 0 01-.15.16l-.16.152a1.438 1.438 0 00-.16.152c-.095.112-.238.176-.374.24a.618.618 0 00-.326.312c-.239.193-.541.273-.804.425-.152.04-.295.088-.446.12-.151.032-.295.088-.446.144a.677.677 0 00-.478-.048c-.151.024-.302.088-.462.136a2.38 2.38 0 01-.477.016 4.285 4.285 0 01-.462-.104c-.16-.016-.303-.064-.454-.096-.151-.04-.287-.112-.43-.168a.5.5 0 01-.215-.08l-.191-.12c-.128-.08-.239-.185-.398-.225-.16-.032-.263-.152-.367-.256-.103-.104-.199-.224-.334-.288-.064-.04-.127-.072-.191-.12a1.434 1.434 0 01-.16-.152c-.047-.056-.095-.112-.135-.169-.04-.063-.063-.136-.087-.208a1.162 1.162 0 01-.175-.392.59.59 0 00-.263-.328c-.08-.12-.207-.208-.287-.328a.372.372 0 01-.008-.433c-.08-.12-.071-.264-.08-.392-.007-.136 0-.264-.08-.384a.347.347 0 00.065-.2.525.525 0 00-.016-.193c-.032-.12-.096-.248-.08-.376.024-.128.064-.248.08-.368a.722.722 0 000-.368.36.36 0 010-.185c.016-.056.04-.112.063-.168.056-.112.112-.216.128-.328-.024-.128.056-.224.135-.312.072-.088.16-.168.143-.297.112-.184.192-.384.335-.544-.072-.168 0-.256.095-.312.096-.056.215-.088.295-.144.08-.056.104-.16.151-.248.04-.089.12-.153.255-.129-.008-.144.056-.216.143-.248.088-.032.2-.032.28-.056.166-.048.222-.264.413-.232.024-.112.104-.128.183-.128.08 0 .168.016.215-.04.168.032.247-.096.383-.12a.406.406 0 01.167-.08c.056-.008.12 0 .183.008.111-.016.207-.032.302-.04h.383c.111 0 .199.024.278.04.144.032.223.072.223.112l.032-.016z"/><path id="Vector_6" d="M56.502 29.375c0 .04-.071.088-.207.136-.063.024-.15.04-.246.072-.096.032-.207.072-.327.104-.08.032-.167.064-.255.104-.047.024-.087.048-.135.064a.53.53 0 01-.143.056c-.144-.064-.128.264-.303.16-.127.008-.223.096-.31.2-.088.104-.263.072-.319.249.008.128-.08.12-.167.12-.088 0-.175.024-.136.168-.031.072-.087.128-.135.184a1.515 1.515 0 01-.16.16c-.118 0-.166.072-.19.144-.032.08-.04.168-.072.248-.247.032-.279.232-.223.449-.16.016-.255.072-.279.168-.023.088.016.2.104.328-.024.08-.064.168-.096.248a.377.377 0 00-.031.128.32.32 0 00.032.145v.28c0 .096 0 .184-.032.28.087.096.143.184.143.28 0 .048 0 .096-.024.144-.016.048-.032.096-.064.152.215.169.191.345.144.577-.016.112.055.192.127.272.072.08.151.152.12.28.031.096.111.176.167.264.056.088.127.16.175.257.016.056.032.112.048.16.024.048.047.096.08.144.031.04.071.08.119.112s.111.04.183.048c.095.056.191.104.286.16a.713.713 0 01.232.232c.294-.064.422.104.589.297.111.016.199.096.302.136.104.04.215.088.335.048a.947.947 0 00.334.024c.112-.008.223-.016.343.04.111.024.23.048.35.048.111 0 .23-.04.326-.12.096-.088.2-.104.319-.112.111 0 .23-.016.326-.08.144.056.24-.025.327-.096l.063-.057.064-.064a.258.258 0 01.143-.08c.088-.056.192-.112.287-.16a.438.438 0 00.231-.232c.032-.04.072-.08.096-.128.031-.048.063-.088.095-.128a.743.743 0 01.112-.112.5.5 0 01.127-.096c-.056-.177.016-.24.103-.305.088-.064.224-.104.231-.216a.416.416 0 00.168-.256c.016-.104.024-.208.08-.296 0-.104.055-.192.103-.28a.32.32 0 00.056-.145c0-.048 0-.096-.016-.152.016-.048.016-.096.016-.144a.884.884 0 00-.016-.144.447.447 0 01.055-.28c-.08-.096-.055-.184-.024-.28.032-.096.056-.192-.016-.28 0-.049-.015-.089-.023-.137l-.032-.128c-.024-.088-.032-.176-.048-.264.08-.12.056-.208.008-.288-.048-.08-.143-.128-.183-.2-.048-.176-.279-.224-.223-.449-.04-.072-.064-.152-.096-.232-.032-.072-.08-.144-.167-.168-.064-.048-.056-.16-.072-.256-.015-.096-.071-.152-.222-.088-.072-.024-.08-.12-.112-.2-.032-.072-.08-.136-.191-.096-.215.072-.207-.169-.319-.249-.103-.08-.215-.136-.31-.2-.462-.264-.876-.4-1.163-.496-.286-.08-.453-.144-.453-.208 0-.032.047-.064.15-.096.049-.016.112-.024.192-.04.08-.017.167-.017.263-.017.398-.016 1.01.057 1.696.4.135.073.366.009.422.233.063.048.151.08.239.112.08.04.15.096.183.192.135-.016.223.032.27.12.048.08.08.184.144.265.071.064.12.152.175.24.056.08.12.16.215.216.215.112.167.384.334.536a.668.668 0 00.056.337c.048.104.12.192.215.28a.515.515 0 00.056.344c.024.056.055.104.08.16a.64.64 0 01.047.176.475.475 0 00-.048.369c.024.12.088.24.136.36.048.128.024.256 0 .376l-.024.192a1.557 1.557 0 00-.016.193c-.016.064-.032.128-.04.192 0 .064-.016.128-.024.2-.024.128-.04.264-.095.392 0 .144-.016.28-.064.416a.868.868 0 01-.239.353c-.024.144-.103.264-.183.384-.072.12-.175.224-.255.344a.739.739 0 01-.103.192 1.438 1.438 0 01-.152.16l-.159.153a1.53 1.53 0 00-.16.152c-.095.112-.238.176-.373.24a.579.579 0 00-.319.312c-.239.192-.541.272-.804.425-.151.04-.295.088-.446.12-.151.032-.295.088-.446.144a.677.677 0 00-.478-.048c-.15.024-.302.088-.461.136-.16.024-.319.024-.478.016a4.285 4.285 0 01-.462-.104 3.048 3.048 0 01-.454-.096c-.151-.04-.286-.112-.43-.169a.5.5 0 01-.215-.08l-.19-.12c-.128-.08-.24-.184-.4-.224-.158-.032-.262-.152-.365-.264-.104-.104-.2-.224-.335-.288-.063-.04-.127-.072-.19-.12a1.355 1.355 0 01-.16-.152 2.517 2.517 0 01-.136-.169c-.04-.064-.063-.136-.087-.208-.088-.112-.128-.256-.175-.392a.59.59 0 00-.263-.328c-.08-.12-.207-.209-.287-.329a.385.385 0 01-.016-.432c-.071-.12-.071-.264-.071-.392-.008-.136 0-.264-.08-.385a.347.347 0 00.064-.2c0-.064 0-.128-.016-.192-.024-.12-.096-.248-.08-.376.024-.128.064-.248.08-.368a.722.722 0 000-.369.36.36 0 010-.184c.016-.056.04-.112.064-.168a1.4 1.4 0 00.127-.328c-.024-.128.056-.224.135-.312.072-.088.16-.169.144-.297.111-.184.19-.384.334-.536-.072-.168 0-.256.088-.312.095-.056.215-.088.294-.144.08-.056.104-.16.152-.249.04-.088.119-.152.254-.128-.008-.144.048-.216.136-.248.087-.032.199-.032.279-.056.167-.048.222-.264.413-.232.024-.112.104-.128.184-.128s.167.016.215-.04c.167.032.247-.096.382-.12a.53.53 0 01.167-.08c.056-.008.12 0 .183.008.112-.016.207-.032.303-.04h.382c.111 0 .199.024.279.04.143.032.223.072.223.112h.015z"/><path id="Vector_7" d="M47.616 18.95c0 .04-.088.089-.247.137-.08.024-.183.048-.295.072-.12.024-.247.072-.398.112-.048.016-.103.024-.151.04l-.16.048c-.11.048-.222.104-.35.128-.167-.08-.19.28-.382.16-.151 0-.279.096-.398.2-.064.048-.143.072-.215.096-.08.024-.151.056-.2.152-.015.137-.119.129-.222.129-.104 0-.207 0-.2.176-.103.16-.27.248-.421.36-.128 0-.2.072-.255.152-.056.088-.096.184-.151.272-.279.016-.374.224-.382.489-.168 0-.287.056-.343.152-.056.096-.048.24 0 .392a.527.527 0 01-.095.136.526.526 0 00-.096.136.568.568 0 00-.096.328c-.047.105-.063.217-.095.329a1.581 1.581 0 01-.127.32.65.65 0 01.047.376.764.764 0 01-.071.169c-.032.056-.064.112-.112.16l.048.096c0 .024.016.016.016.016h.016s.024.024.016.024c-.008.016-.056.04-.112.112-.032.032-.032.056-.024.064a.475.475 0 00.088-.048c.064-.04.072-.064.072.008h.04c.071 0 .143-.008.214-.016.144-.008.287-.016.438 0 .295.08.59.168.884-.008.303-.048.605-.112.908 0 .303-.208.613-.12.924 0 .31-.032.629.112.947 0 .319.032.637-.096.956 0 .318.064.645.128.955 0 .319-.136.63.056.948 0 .31.2.62-.064.923 0 .303-.016.605.112.908 0 .303-.032.597-.072.884.008.143-.152.294-.136.438-.08.072.024.143.056.207.08.016.024.032.032.04.016.047.064.095.056.12.04l.023-.024c-.008-.024-.016-.04 0-.048-.032-.048 0-.048.032-.08.008-.016.016-.032.016-.056v-.016l-.008-.024a.24.24 0 00-.048-.088c0-.064-.016-.12-.032-.177-.016-.056-.048-.112-.063-.168a.658.658 0 01-.048-.352c-.112-.088-.12-.208-.128-.328 0-.12 0-.248-.103-.328-.096-.209-.2-.409-.295-.6.04-.153 0-.257-.08-.337-.079-.072-.19-.128-.254-.208-.048-.096-.136-.152-.223-.216a.378.378 0 01-.16-.265c-.055-.08-.11-.168-.175-.248a.5.5 0 00-.23-.176c-.08-.056-.104-.168-.152-.264s-.111-.168-.27-.096c-.088-.032-.136-.12-.184-.2-.055-.08-.12-.145-.239-.097-.119.04-.19 0-.246-.064-.056-.064-.104-.152-.176-.184a2.383 2.383 0 00-.406-.2l-.215-.096c-.071-.032-.143-.056-.207-.08a9.806 9.806 0 01-.382-.144c-.247-.064-.454-.136-.629-.176-.35-.08-.55-.144-.55-.209 0-.064.24-.136.717-.16.462 0 1.163.056 1.99.377.08.032.184.032.28.048.095.016.183.056.23.168.16.104.407.096.526.288.287-.048.366.216.526.368.087.072.159.16.238.24.08.08.168.153.28.217.127.04.19.144.262.248.072.104.12.216.23.288a.654.654 0 00.16.352c.08.097.175.193.295.265.008.144.087.248.167.36.08.112.167.216.23.336-.031.16 0 .296.065.416.063.12.167.233.254.36.072.129.104.273.128.417l.04.216c.008.072.023.144.047.216v.113l.016.168c.016.12.032.24.056.36.024.24.056.504.048.736.032.145.056.289.08.433 0 .016 0 .008-.017.008h-.023l-.048.008h-.088c-.063.016-.127.016-.19.024-.264.008-.55 0-.821-.056a3.077 3.077 0 01-.39.032h-.223c-.144 0-.287-.016-.438-.016-.295.08-.59-.008-.884.008-.303.04-.605-.216-.908.008-.302.032-.613-.032-.923 0-.31-.024-.63-.056-.948 0-.318-.216-.637-.088-.955 0-.319.064-.645.032-.956 0-.318.024-.629.008-.947 0-.31.064-.621-.096-.924 0-.303.096-.605-.104-.908-.008-.302.064-.597.096-.884-.008-.143 0-.294-.048-.438-.08a.68.68 0 00-.223-.016c-.119 0-.246.024-.39.072-.262.016-.565.088-.86.112a1.715 1.715 0 01-.406 0c.024-.152.08-.328.16-.505-.024-.224.023-.504.063-.744.024-.12.056-.24.072-.352 0-.056.008-.12.008-.169 0-.04 0-.08-.016-.112a.5.5 0 00.127-.2.978.978 0 00.048-.208c.016-.144 0-.296.04-.44.064-.128.143-.248.199-.377.056-.128.096-.256.12-.4.007-.144.08-.264.167-.376.04-.056.08-.104.127-.16.04-.056.08-.104.104-.168.016-.144.111-.24.223-.32.111-.08.215-.16.23-.297.168-.184.303-.392.494-.536-.032-.192.056-.273.175-.32.112-.049.255-.065.343-.129.095-.064.15-.16.223-.248.071-.088.159-.152.302-.12.016-.16.104-.216.207-.248.104-.032.223-.024.319-.048.095-.024.167-.088.247-.136.071-.056.15-.104.262-.08.096-.232.35-.056.478-.16.183.048.295-.112.446-.112a.56.56 0 01.406-.064 1.37 1.37 0 01.183-.017c.064 0 .12 0 .175-.008.168 0 .31-.016.438 0s.231.025.319.04c.167.032.255.072.255.113h-.024z"/><path id="Vector_8" d="M47.624 25.108c-.064.064-.167.072-.302.032-.024 0-.048-.016-.072-.024-.032 0-.064 0-.08-.032.056-.097-.183.104-.087-.04.016-.057-.04-.049-.088-.04-.048 0 0-.097-.095-.049-.176.129.12-.224-.096-.056-.064.016-.08-.024-.103-.064.087-.144-.056-.056-.104-.072.111-.168.016-.144-.111-.072.159-.224.103-.232-.112-.08-.04-.024 0-.136-.12-.088-.047-.024-.119-.024-.119-.088-.167.096-.199.048-.12-.096-.174.104-.159.008-.127-.104.04-.112-.199.048-.127-.104-.032-.048-.111-.048-.127-.112.016-.096.04-.2-.128-.112-.072 0-.167 0-.127-.12-.191.104-.167 0-.136-.12-.063-.017 0-.169-.135-.129-.024-.064-.151-.024-.135-.128 0-.088 0-.176-.128-.136-.135.048-.047-.128-.127-.136.095-.184-.128-.04-.12-.128-.055-.032 0-.168-.119-.128-.064-.016-.135-.032-.111-.128-.255.176-.024-.136-.112-.128.048-.129-.087-.064-.103-.129-.08 0 .023-.176-.104-.128-.016-.056-.143 0-.096-.12-.143.072.016-.16-.087-.12-.032-.032-.072-.064-.088-.12.136-.2-.04-.096-.08-.112-.015-.048-.159.032-.071-.112-.016-.04.024-.144-.064-.104-.055 0 .183-.296-.063-.104-.064.016.12-.224-.056-.096-.16.112-.032-.064-.048-.096s-.032-.064-.04-.088c-.12-.265-.135-.449-.047-.545.095-.096.326-.056.629.096.031.016.167-.08.095.048.024.024.136-.04.096.056.183-.128.08.024.103.064.04.024.016.096.104.072.12-.064.016.104.111.072-.064.129 0 .137.112.08-.064.129.087.049.12.089-.112.176.023.112.118.088.088-.016.048.096.12.096.008.064.111.04.127.104.104-.032.168-.016.128.104.087 0 .087.072.127.112.096-.016.072.088.127.112.072.008-.071.232.128.12.064.024.056.112.135.12.024.064.048.128.136.128-.112.2.031.145.135.129.088 0 .111.064.127.136a.35.35 0 01.128.136c.087 0 .016.152.12.136.11-.024.015.152.119.128.087 0 .151.016.111.128.04.04-.063.224.112.128.071.008.286-.128.103.128.096-.016-.032.184.104.128-.12.192.063.08.095.12 0 .064-.016.152.088.12.111-.04.024.113.087.12.12-.056-.055.185.08.113.008.056.072.048.072.112.247-.184.055.056.063.104 0 .056.2-.088.064.104.191-.136.072.032.056.096-.024.072.12-.016.048.096.135-.088-.016.104.04.088-.056.096.04.048.031.088.048 0 .056.024.032.08 0 .024.016.048.024.072.032.144.024.248-.032.305h-.008z"/><path id="Vector_9" d="M47.624 25.123c-.064-.064-.072-.168-.032-.304 0-.024.016-.048.024-.072 0-.032 0-.064.032-.08.095.064-.104-.184.031-.088.056.016.048-.04.04-.088 0-.048.096 0 .048-.096-.128-.176.223.12.056-.096-.016-.072.023-.08.063-.104.144.088.056-.056.064-.104.167.112.143.016.072-.112.223.16.223.104.08-.112.023-.04.135 0 .087-.12.024-.049.024-.12.087-.12-.095-.169-.047-.193.096-.12-.103-.177-.008-.16.104-.129.111.04-.048-.2.103-.128.048-.032.048-.112.111-.128.096.016.2.04.112-.128 0-.072 0-.168.12-.128-.104-.192 0-.168.119-.128.016-.064.167 0 .127-.136.064-.024.024-.152.136-.137.087 0 .175 0 .135-.128-.048-.136.127-.048.135-.128.184.096.04-.128.136-.12.032-.056.167 0 .127-.12.016-.064.032-.136.128-.112-.176-.256.135-.024.127-.112.127.048.064-.088.127-.104 0-.08.175.024.128-.104.056-.016 0-.144.12-.096-.072-.144.158.016.119-.088.032-.032.063-.072.12-.088.198.136.095-.04.11-.08.048-.016-.031-.16.112-.073.048-.016.143.025.104-.064 0-.056.294.185.103-.064-.016-.064.223.12.096-.056-.112-.16.063-.032.095-.048a.762.762 0 01.088-.04c.262-.12.454-.144.541-.048.096.096.056.328-.095.633-.016.032.08.168-.048.096-.024.024.04.136-.056.096.127.184-.024.08-.064.104-.023.032-.095.016-.063.104.063.12-.104.016-.072.112-.127-.064-.135 0-.08.112-.127-.056-.047.088-.087.12-.175-.112-.112.024-.088.12.016.088-.095.048-.095.12-.064.009-.04.113-.104.129.032.104.016.168-.103.128 0 .088-.072.088-.112.128.016.096-.087.072-.111.128-.008.072-.231-.072-.12.128-.024.064-.111.056-.127.128-.064.024-.127.048-.127.136-.2-.112-.144.032-.128.136 0 .088-.064.112-.135.128a.299.299 0 01-.136.128c0 .088-.15.017-.135.12.024.105-.151.017-.127.12 0 .089-.016.153-.128.113-.04.04-.223-.064-.127.112-.008.072.127.288-.128.104.016.096-.183-.032-.127.104-.191-.12-.08.064-.12.096-.063 0-.15-.016-.119.088.04.112-.111.024-.12.088.056.12-.182-.056-.11.08-.049.008-.049.08-.112.072.183.248-.064.056-.104.064-.055 0 .088.2-.103.064.135.192-.032.072-.096.056-.072-.024.016.12-.095.049.087.136-.104-.017-.088.04-.096-.056-.048.04-.088.032 0 .048-.023.056-.08.032l-.07.024c-.144.032-.248.024-.303-.032v-.009z"/><path id="Vector_10" d="M45.235 32.289c0 .088-.247.168-.709.24-.08.008-.159.024-.247.04a.653.653 0 01-.278.032c-.096-.112-.2.208-.31.032-.112-.048-.224 0-.343.032-.12.04-.247-.072-.374.032-.128.216-.263-.24-.399.032-.135.056-.278.04-.43.032-.143-.168-.294 0-.453.024-.16-.2-.319-.112-.478.024-.167-.272-.335-.232-.502.024-.167.008-.35-.096-.525.024-.175.016-.359.072-.55.024-.183.184-.374.176-.565.016-.191.2-.39.12-.59.016-.198-.112-.397.177-.605.016-.207-.016-.413.048-.62.016-.208-.08-.423-.168-.638.008-.215.048-.43.112-.652 0-.223.208-.438.12-.661 0-.223.032-.446-.112-.677 0-.231-.032-.454.096-.685 0-.23-.064-.462-.128-.685 0-.23.136-.454-.056-.677 0-.223-.2-.446.064-.66 0-.223.016-.438-.112-.653 0-.215.04-.43.072-.637-.008-.207.305-.414-.08-.622-.016-.207-.128-.405.016-.605-.016-.199.056-.39-.136-.589-.016-.19-.024-.382.096-.565-.016-.183.152-.366-.128-.55-.024-.175 0-.35.008-.525-.024-.167-.24-.334-.04-.502-.024-.167-.024-.326.136-.477-.024-.16-.016-.311-.12-.454-.024-.144.032-.287-.344-.43-.032-.136.056-.271-.24-.398-.032-.128.192-.255-.024-.375-.032s-.23-.024-.342-.032c-.98-.104-1.537-.224-1.537-.352 0-.144.693-.272 1.88-.384.119-.008.238-.177.373-.032.128 0 .263-.129.399-.032.135-.217.278-.04.43-.032.15-.008.294.056.454-.024.15-.129.318.063.477-.024.16.136.327.096.502-.025.175.128.35-.024.525-.024.176.2.359.056.55-.024.183-.072.374.032.565-.016.191.04.39-.048.59-.016.199-.096.398-.128.605-.016.207-.064.414-.016.62-.016.208-.08.423.008.638-.008.215-.04.43.216.653-.008.223-.032.437.032.66 0 .223.024.446.056.677 0 .231.216.454.08.685 0 .231-.064.462-.032.685 0 .23-.024.454-.008.677 0 .223-.064.446.096.66 0 .224-.096.438.104.653.008.215-.064.43-.096.637.008.208 0 .414.2.621.016.208-.04.407-.288.606.016.199-.08.39.152.589.016.191.225.382.008.565.016.183.04.367.12.55.024.175-.104.35.056.525.024.175-.128.343.169.502.024.167.033.326-.016.478.024.15-.304.31 0 .453.024.152.049.287-.2.43.032.136-.232.271-.032.398.032.128.065.255-.096.375.033.12-.16.23.088.342.032.112.104.215 0 .31.032a.29.29 0 01.28.032c.087.016.167.024.246.04.454.072.709.16.709.24v.016z"/><path id="Vector_11" d="M45.235 36.044c0 .088-.247.168-.709.24-.08.008-.159.024-.247.04a.653.653 0 01-.278.032c-.096-.112-.2.208-.31.032-.112-.048-.224 0-.343.032-.12.04-.247-.072-.374.032-.128.216-.263-.24-.399.032-.135.056-.278.04-.43.032-.143-.168-.294 0-.453.024-.16-.2-.319-.112-.478.024-.167-.272-.335-.232-.502.024-.167 0-.35-.096-.525.024-.175.016-.359.072-.55.024-.183.184-.374.176-.565.016-.191.2-.39.12-.59.016-.198-.112-.397.176-.605.016-.207-.016-.413.048-.62.016-.208-.08-.423-.168-.638.008-.215.048-.43.112-.652 0-.223.208-.438.12-.661 0-.223.032-.446-.112-.677 0-.231-.032-.454.096-.685 0-.23-.064-.462-.128-.685 0-.23.136-.454-.056-.677 0-.223-.2-.446.064-.66 0-.223.016-.438-.112-.653 0-.215.04-.43.072-.637-.008-.207.304-.414-.08-.622-.016-.207-.128-.405.016-.605-.016-.199.056-.39-.136-.589-.016-.19-.024-.382.096-.565-.016-.183.152-.366-.128-.55-.024-.175 0-.35.008-.525-.024-.167-.24-.334-.04-.502-.024-.167-.024-.326.136-.477-.024-.16-.016-.311-.12-.454-.024-.144.032-.287-.344-.43-.032-.136.056-.271-.24-.398-.032-.128.192-.255-.024-.375-.032s-.23-.024-.342-.032c-.98-.104-1.537-.224-1.537-.352 0-.144.693-.273 1.88-.385.119-.008.238-.176.373-.032.128 0 .263-.128.399-.032.135-.216.278-.04.43-.032.15-.008.294.056.454-.024.15-.128.318.064.477-.024.16.136.327.096.502-.024.175.128.35-.024.525-.024.176.2.359.056.55-.024.183-.072.374.032.565-.016.191.04.39-.048.59-.016.199-.096.398-.128.605-.016.207-.064.414-.016.62-.016.208-.08.423.008.638-.008.215-.04.43.216.653-.008.223-.032.437.032.66 0 .223.024.446.056.677 0 .231.216.454.08.685 0 .231-.064.462-.032.685 0 .23-.024.454-.008.677 0 .223-.064.446.096.66 0 .224-.096.438.104.653.008.215-.064.43-.096.637.008.208 0 .414.2.621.016.208-.04.407-.288.606.016.199-.08.39.144.589.016.191.224.382.008.565.016.183.04.367.12.55.024.175-.104.35.056.525.024.175-.128.343.168.502.024.167.032.326-.016.478.024.15-.304.31 0 .453.024.152.048.287-.2.43.032.136-.232.271-.032.398.032.128.065.255-.096.375.032.12-.16.23.088.342.032.112.105.215 0 .31.032a.29.29 0 01.28.032c.087.017.167.025.246.04.454.073.709.16.709.24v.017z"/><path id="Vector_12" d="M45.235 39.79c0 .089-.247.169-.709.241-.08.008-.159.024-.247.04a.651.651 0 01-.278.032c-.096-.112-.2.208-.31.032-.112-.048-.224 0-.343.032-.12.04-.247-.072-.374.032-.128.216-.263-.24-.399.032-.135.056-.278.04-.43.032-.143-.168-.294 0-.453.024-.16-.2-.319-.112-.478.024-.167-.272-.335-.232-.502.024-.167.008-.35-.096-.525.024-.175.016-.359.072-.55.024-.183.184-.374.176-.565.016-.191.2-.39.12-.59.016-.198-.112-.397.176-.605.016-.207-.016-.413.048-.62.016-.208-.08-.423-.168-.638.008-.215.048-.43.112-.652.008-.223.209-.438.12-.661 0-.223.032-.446-.112-.677 0-.231-.032-.454.088-.685 0-.23-.064-.462-.128-.685 0-.23.136-.454-.056-.677 0-.223-.2-.446.064-.66 0-.223.016-.438-.112-.653-.008-.215.04-.43.072-.637-.008-.207.305-.414-.08-.622-.016-.207-.128-.405.016-.605-.016-.199.056-.39-.136-.589-.016-.19-.024-.382.096-.565-.016-.183.152-.366-.128-.55-.024-.175 0-.35.008-.525-.024-.167-.24-.334-.04-.502-.024-.167-.024-.326.136-.477-.024-.16-.016-.311-.12-.454-.024-.144.032-.287-.344-.43-.032-.136.056-.271-.24-.398-.032-.128.192-.255-.024-.375-.032a5.452 5.452 0 00-.342-.032c-.98-.104-1.537-.224-1.537-.352 0-.144.693-.272 1.88-.385.119-.008.238-.176.373-.032.128 0 .263-.128.399-.032.135-.216.278-.04.43-.032.15-.008.294.065.454-.024.15-.128.318.065.477-.024.16.137.327.096.502-.024.175.129.35-.032.525-.024.176.2.359.056.55-.024.183-.072.374.032.565-.016.191.04.39-.048.59-.016.199-.096.398-.128.605-.016.207-.064.414-.016.62-.016.208-.08.423.008.638-.008.215-.04.43.217.653-.008.223-.032.437.032.66 0 .223.032.446.056.677 0 .231.217.454.08.685 0 .231-.064.462-.032.685 0 .23-.024.454-.008.677 0 .223-.064.446.096.66 0 .224-.096.438.104.653.008.215-.064.43-.096.637.008.208 0 .414.2.621.016.208-.04.407-.288.606.016.199-.08.39.152.589.016.191.225.382.008.565.016.183.04.367.12.55.024.175-.104.35.056.525.024.175-.128.343.169.502.024.167.032.326-.016.478.024.15-.304.31 0 .453.024.152.048.287-.2.43.032.136-.232.271-.032.398.032.128.065.255-.096.375.032.12-.16.23.089.342.032.112.105.215 0 .31.033a.29.29 0 01.28.032c.087.016.167.024.246.04.454.072.709.152.709.24v.016z"/><path id="Vector_13" d="M45.235 43.546c0 .088-.247.168-.709.24-.08.008-.159.024-.247.04a.651.651 0 01-.278.032c-.096-.112-.2.208-.31.032-.112-.048-.224 0-.343.032-.12.04-.247-.072-.374.032-.128.216-.263-.24-.399.032-.135.056-.278.04-.43.032-.143-.168-.294 0-.453.024-.16-.2-.319-.112-.478.024-.167-.272-.335-.232-.502.024-.167.008-.35-.096-.525.024-.175.016-.359.072-.55.024-.183.184-.374.176-.565.016-.191.2-.39.12-.59.016-.198-.112-.397.176-.605.016-.207-.016-.413.048-.62.016-.208-.08-.423-.168-.638.008-.215.048-.43.112-.652 0-.223.208-.438.12-.661 0-.223.032-.446-.112-.677 0-.231-.032-.454.088-.685 0-.23-.064-.462-.128-.685 0-.23.136-.454-.056-.677 0-.223-.2-.446.064-.66 0-.223.016-.438-.112-.653 0-.215.032-.43.072-.637-.008-.207.304-.414-.08-.622-.016-.207-.128-.405.016-.605-.016-.199.056-.39-.136-.589-.016-.19-.024-.382.096-.565-.016-.183.152-.366-.128-.55-.024-.175 0-.35.008-.525-.024-.167-.232-.334-.04-.502-.024-.167-.024-.326.136-.477-.024-.16-.016-.311-.12-.454-.024-.144.032-.287-.344-.43-.032-.136.056-.271-.24-.398-.032-.128.192-.255-.024-.375-.032a5.447 5.447 0 00-.342-.032c-.98-.104-1.537-.224-1.537-.352 0-.144.693-.272 1.88-.385.119-.008.238-.176.373-.032.128 0 .263-.128.399-.032.135-.216.278-.04.43-.032.15-.008.294.056.454-.024.15-.128.318.064.477-.024.16.136.327.096.502-.024.175.128.35-.032.525-.024.176.2.359.064.55-.024.183-.072.374.032.565-.016.191.04.39-.056.59-.016.199-.096.398-.128.605-.016.207-.064.414-.016.62-.016.208-.08.423.008.638-.008.215-.04.43.216.653-.008.223-.032.437.032.66 0 .223.032.446.056.677 0 .231.216.454.088.685 0 .231-.064.462-.032.685 0 .23-.024.454-.008.677 0 .223-.064.446.096.66 0 .224-.096.438.104.653.008.215-.064.43-.096.637.008.208 0 .414.2.621.016.208-.04.407-.288.606.016.199-.08.39.152.589.016.191.224.382.008.565.016.183.04.367.12.55.024.175-.104.35.056.525.024.175-.128.343.168.502.024.167.032.326-.016.478.024.15-.304.31 0 .453.024.152.04.287-.2.43.032.136-.232.271-.032.398.032.128.064.255-.096.375.032.12-.16.23.089.342.032.112.104.215 0 .31.032a.293.293 0 01.28.04c.087.017.167.025.246.032.454.073.709.16.709.24v.017z"/><path id="Vector_14" d="M67.29 31.384c.088 0 .168.2.24.569.016.064.024.128.04.2a.533.533 0 01.04.224c-.112.08.206.16.031.248-.047.088 0 .176.032.272.04.096-.072.193.032.297.215.104-.239.208.032.32.056.112.04.224.032.344-.168.12 0 .24.031.368-.198.128-.111.257.024.385-.27.128-.23.264.024.4v.112a.847.847 0 00.024.544c.016.249.072.553.024.777 0 .016.008.024.016.04-.088.168-.446.152-.772 0-.096.096-.24.128-.39.12a1.08 1.08 0 01-.224-.032.81.81 0 01-.119-.064c-.16-.112-.318.176-.486.016-.167-.016-.326.048-.493.016-.168-.08-.335-.168-.51.008-.175.048-.342.112-.518.008-.175.208-.35.12-.533 0-.088.016-.175-.008-.27-.032h-.032l-.064-.008h-.12a.832.832 0 00-.263.048c-.159-.016-.334 0-.525.024-.183.016-.374.024-.502-.024.032-.208.064-.392.072-.56 0-.168 0-.313-.072-.465a.626.626 0 01-.047-.248V35.1s.016-.024.016-.032c.023-.088.055-.184.031-.272.2-.176-.063-.36 0-.537-.016-.176.112-.352.008-.52-.031-.176-.071-.344.008-.512-.302-.169.08-.337.016-.497.128-.16-.016-.328.016-.488 0-.024-.008-.04-.008-.064v-.104c.008-.072.024-.136.04-.2.024-.137.048-.249-.016-.417.008-.112 0-.232-.016-.352a.995.995 0 010-.344c.048 0 .104.024.16.04.063-.072.23-.04.382 0 .15.04.286.08.39.024.23 0 .525-.008.62.024.136.232.272.04.399.024.127.024.255-.136.382.024.128.016.247.12.367.024.119-.032.23.344.342.032.111-.056.215.24.318.032.104-.192.2.024.295.032.096.016.183.024.27.032.781.104 1.235.224 1.235.344 0 .144-.558.272-1.505.384-.096.009-.191.177-.295.032-.103 0-.207.129-.318.032-.112.217-.223.04-.343.032-.119.009-.238-.064-.366.024-.127.129-.255-.064-.382.025-.127-.136-.263-.096-.398.024-.064-.064-.16-.056-.167-.04-.024.024-.032.064-.048.056-.056-.104-.104-.112-.12-.096-.015.024 0 .072.024.12v.024c.008.024 0 .024-.008.032-.008 0-.016.024 0 .048-.016 0 0 .032 0 .048 0 .008.016.016.016.024v.08c.096.16.128.32.016.488.064.168.016.328.016.497.08.168-.008.336.008.512.04.168-.215.344.008.52.032.176-.032.353 0 .537a1.489 1.489 0 00-.032.272v.048l.032.016c-.111.048-.127.096-.111.104.016.016.071-.008.111-.04.08-.064.048-.032.064 0l.016-.008h.031c.088 0 .184.008.271.016.175-.064.359.096.534 0 .175-.096.35.104.517 0 .167-.064.343-.096.51.008.167 0 .334.2.494.016.159-.04.326-.288.485.016a.204.204 0 01.12-.008.17.17 0 01.024.04c.023.032.055.056.047-.016.064.112.104.112.112.096.008-.024-.016-.072 0-.072 0 0 .048 0 .064-.008.008-.016 0-.048-.04-.088-.056-.04-.04-.048-.016-.056.008 0 .024-.016.032-.024 0 0 .008-.016.008-.04v-.048c-.128-.136.167-.272.024-.4.031-.128-.016-.257.023-.385-.302-.128 0-.248.032-.368.04-.12-.199-.232.032-.344-.23-.112-.032-.216.032-.32.064-.105-.096-.2.032-.297-.16-.096.087-.184.032-.272.103-.088 0-.168.031-.248-.04-.08-.023-.152.032-.224.016-.072.024-.136.04-.2.072-.369.151-.569.24-.569l.03-.008z"/><path id="Vector_15" d="M5.295 31.384c.088 0 .167.2.239.569.016.064.024.128.04.2a.53.53 0 01.04.224c-.112.08.207.16.031.248-.047.088 0 .176.032.272.04.096-.071.193.032.297.215.104-.239.208.032.32.056.112.04.224.032.344-.167.12 0 .24.032.368-.2.129-.112.257.024.385-.271.136-.231.264.024.408v.12a.847.847 0 00.024.544c.015.249.071.553.023.777l.016.032c-.087.168-.446.16-.772 0-.096.096-.239.128-.39.12a1.07 1.07 0 01-.223-.032.874.874 0 01-.12-.064c-.159-.112-.318.176-.485.016-.16-.016-.327.048-.494.016-.167-.08-.335-.168-.51.008-.175.048-.342.112-.517.008-.175.208-.35.12-.534 0-.087.016-.175-.008-.27-.032h-.032l-.064-.008h-.12a.831.831 0 00-.262.048 2.38 2.38 0 00-.526.024c-.183.016-.374.024-.501-.024H.088c.031-.208.063-.392.071-.56 0-.168-.008-.312-.071-.465A.627.627 0 01.04 35.3v-.192l.016-.032c.024-.088.056-.184.032-.272.199-.176-.064-.36 0-.536-.016-.177.111-.353 0-.52-.04-.17-.072-.345.008-.513-.303-.169.08-.337.016-.497.127-.168-.016-.328.015-.488 0-.016-.008-.04-.008-.056v-.104c.008-.072.024-.136.04-.2.024-.136.048-.249-.016-.417a1.82 1.82 0 00-.016-.352.997.997 0 010-.344c.056 0 .112.024.168.04.063-.072.23-.04.382 0 .151.04.287.08.39.024h.51s.071.016.103.016c.135.232.27.04.398.024.128.024.255-.136.382.024.128.016.247.12.359.024.12-.032.23.344.342.032.112-.056.215.24.319.032.103-.192.199.024.294.032.096.016.183.024.271.032.78.104 1.234.224 1.234.344 0 .144-.557.273-1.505.385-.095.008-.19.176-.294.032-.104 0-.207.128-.319.032-.111.216-.223.04-.342.032-.12.008-.24-.064-.359.024-.127.128-.254-.064-.382.024-.127-.136-.263-.096-.398.024a.154.154 0 00-.103-.048h-.048s-.008 0-.016.016c-.024.024-.032.064-.048.056-.056-.104-.103-.112-.12-.096-.015.024 0 .072.025.12v.024c.008.024 0 .024-.008.032-.008 0-.016.024 0 .048-.016 0 0 .032 0 .048 0 .008.016.016.016.024v.064c.095.16.127.32.015.488.064.168.016.328.016.497.08.168-.008.336.008.512.04.176-.215.344.008.52.032.177-.032.353 0 .537a1.489 1.489 0 00-.032.272v.04l.032.016c-.111.048-.127.096-.111.104.016.016.072-.008.111-.04.08-.064.048-.032.064 0l.016-.008h.032c.087 0 .183.008.27.016.176-.064.359.096.534 0 .175-.096.35.104.518 0 .167-.064.342-.096.51.008.166 0 .334.2.493.016.16-.04.326-.288.486.016a.204.204 0 01.119-.008c.016.008.016.024.032.04.024.032.056.056.048-.016.063.112.103.112.111.096.008-.024-.016-.072 0-.072 0 0 .048 0 .064-.008.016-.016 0-.048-.04-.088-.056-.04-.04-.04-.016-.056.008 0 .024-.016.032-.024v-.08c-.127-.136.167-.272.024-.408.032-.128-.016-.256.024-.385-.303-.128 0-.248.024-.368.04-.12-.2-.232.031-.344-.23-.112-.031-.216.032-.32.064-.104-.095-.2.032-.297-.16-.096.088-.184.032-.272.104-.088 0-.168.032-.248a.199.199 0 01.04-.224c.016-.072.024-.136.04-.2.071-.369.15-.569.238-.569h.048z"/></g><defs><clipPath id="clip0_1379_224"><path fill="#fff" d="M0 0h68v62H0z"/></clipPath></defs></svg>