<svg width="61" height="77" fill="none" xmlns="http://www.w3.org/2000/svg"><g id="Isolation_Mode" clip-path="url(#clip0_1379_121)" fill="#000"><path id="Vector" d="M.716 9.015c.045 0 .1.768.145 2.25.045 1.472.09 3.658.136 6.476.01.94.027 1.951.045 3.035.028 1.084.055 2.232.037 3.442-.127 1.22.235 2.493.036 3.84-.054 1.345 0 2.755.036 4.218.045 1.472-.081 2.999.036 4.589.245 1.59-.272 3.243.037 4.941.063 1.707.045 3.469.036 5.285-.19 1.815 0 3.685.027 5.61-.226 1.923-.127 3.893.027 5.916-.308 2.024-.263 4.092.027 6.215.01 2.114-.108 4.282.028 6.495.018 1.346.027 2.71.045 4.092.435 0 .87.018 1.305.027 2.302-.208 4.65-.199 7.034-.018 2.384-.226 4.804-.135 7.269-.018 2.465.127 4.958-.199 7.496-.018 2.529.009 5.103-.054 7.704-.018 2.602.09 5.23.19 7.895-.01 2.665-.053 5.357-.126 8.076-.008 1.16-.1 2.32-.136 3.49-.145.58 0 1.169 0 1.758.018.29 0 .58.018.86.028.019.008.046.017.082.036 0-.01.018-.028.028-.046v-.018h.009v-.343c-.028-2.764.145-5.546 0-8.356.036-2.81-.1-5.645 0-8.491.072-2.855.145-5.682 0-8.491l-.028-.524v-.091l-.009-.027c0-.018 0-.027-.009-.045v-.018l-.027.01c-.018 0-.027.008-.045.017h-.018l-.136.036c-.372.109-.753.145-1.133.199l-.145.018h-.145l-.29.018c-.19 0-.381.018-.571.01l-.571-.037-.281-.018-.281-.045-.562-.09c-.19-.037-.372-.09-.553-.136-.372-.081-.725-.226-1.079-.343l-.127-.063-.127-.073-.244-.135-.245-.136a3.47 3.47 0 01-.245-.144c-.308-.208-.634-.398-.924-.633-.608-.433-1.142-.957-1.64-1.508l-.345-.434-.172-.217-.155-.235-.299-.47a8.57 8.57 0 01-.254-.496c-.18-.325-.29-.678-.425-1.03-.037-.09-.055-.18-.082-.262l-.063-.27c-.046-.181-.1-.362-.118-.543a8.854 8.854 0 01.272-4.354c.453-1.391 1.232-2.638 2.202-3.713A9.086 9.086 0 0149.19 31.5a8.467 8.467 0 014.242-.235c.181 0 .362 0 .534.045l.263.046h.064s0 .009.009.009l.036-.037v-.207l.027-.48c.055-1.282.145-2.547.109-3.811.145-2.52-.018-5.014.018-7.47-.063-2.458.154-4.87.018-7.245v-1.926c0-.117 0-.298-.009-.28v-.162h-1.287c-.661 0-1.314-.018-1.967-.054-2.302.171-4.568-.145-6.78-.027h-2.592v1.011c0 .542-.009 1.084-.018 1.626-.127 1.04-.145 2.069-.118 3.08.01.507.027 1.012.046 1.51l.018.379v.19l.009.28c0 .415.009.821.018 1.237h-1.45c-.254 0-.508 0-.762.009-.498.009-.997.018-1.495.036-.988.018-1.967.018-2.928-.072-1.93-.018-3.807-.136-5.628-.036-1.822.036-3.59-.389-5.303-.037-1.713.064-3.363-.27-4.958-.036-.797.109-1.577.1-2.338.073-.381-.018-.762-.046-1.133-.064h-.145l-.173-.018c-.135 0-.271 0-.416-.009-.272 0-.535-.009-.807-.018v-.027c.018-1.617.027-3.162.036-4.634l.027-2.656c0-.74.018-1.454.027-2.14a1754.92 1754.92 0 01-5.628-.082c-1.731-.027-3.2-.054-4.378-.081a83.439 83.439 0 01-2.701-.09c-.607-.028-.925-.064-.925-.09 0-.028.318-.064.925-.091.607-.027 1.514-.054 2.7-.09a638.23 638.23 0 014.379-.082c.86-.009 1.794-.027 2.791-.036 1.106-.009 2.284-.027 3.526-.036.027 2.728.055 5.826.09 9.259h.418l.036-.009h.218c.371-.018.752-.036 1.133-.045.761-.027 1.54-.036 2.338.045 1.595 0 3.245-.145 4.958-.036 1.713-.244 3.48-.045 5.303-.036 1.821-.01 3.697.072 5.628-.027.96-.073 1.94-.055 2.928-.037.498.01.997.028 1.495.028h.743c.091 0 .173-.01.245-.027h.046a1.1 1.1 0 00.045-.226v-.101l.009-.19v-.379c.027-.506.027-1.002.027-1.508a50.918 50.918 0 00-.127-3.08c.036-.543.055-1.085.055-1.627V9.81c0-.46-.01-.912-.019-1.373.445 0 .889-.018 1.333-.018.29 0 .58-.018.87-.018.535-.018 1.079-.027 1.623-.018 2.22.226 4.477.072 6.78-.027.652-.027 1.305-.027 1.966-.027.888 0 1.786.009 2.692.018 0 .74 0 1.481-.009 2.23 0 .516 0 1.03.018 1.546-.045 2.375.055 4.787.018 7.244.11 2.457.145 4.942.018 7.47.037 1.265.037 2.53.037 3.813v2.945h-.01l-.054-.027-.843-.29c-.28-.099-.553-.198-.852-.288l-.217-.073-.109-.036-.054-.018-.218-.054c-.145-.045-.29-.054-.435-.081-1.17-.145-2.375-.073-3.517.27-1.133.362-2.202.976-3.054 1.834-.825.877-1.523 1.897-1.93 3.063-.39 1.165-.463 2.466-.119 3.65a7.93 7.93 0 001.56 3.314c.407.47.833.93 1.35 1.283.245.199.516.343.788.506a.915.915 0 00.209.108l.217.1.209.1.109.053.108.036c.3.109.58.235.889.307.154.037.299.09.453.118l.471.072.236.036h.235l.472.045c.154 0 .317-.008.471-.017h.236l.118-.019.117-.018c.309-.054.635-.081.934-.18l.118-.027.236-.073.47-.153.907-.316.453-.163v1.445l.019.922v.524c-.236 2.809-.082 5.645.009 8.491.072 2.855.036 5.682 0 8.491.027 2.81.009 5.6 0 8.356v.307l.009.56v1.166h-1.677c-.3 0-.598 0-.898-.01l-1.758-.027a64.193 64.193 0 00-3.49.018c-2.719.109-5.41-.117-8.075-.009-2.665.073-5.294.109-7.895-.009-2.601 0-5.166-.225-7.704-.018-2.538.046-5.03.335-7.496-.018-2.466.09-4.886-.162-7.27-.018-2.383-.253-4.73-.009-7.033-.018-.335 0-.662-.018-.997-.027-.544 0-1.088-.018-1.632-.027 0-.614.019-1.228.019-1.843 0-.397.009-.804.009-1.201 0-.795-.019-1.59-.055-2.376-.118-2.213.064-4.372.027-6.495-.145-2.114.19-4.191.028-6.215.036-2.023-.019-3.993.027-5.917-.345-1.924 0-3.794.036-5.61.045-1.815-.227-3.577.036-5.284-.263-1.707-.036-3.351.037-4.941.072-1.59-.11-3.117.036-4.589-.181-1.472.1-2.882.036-4.219.118-1.346 0-2.628.036-3.839a35.715 35.715 0 01.046-3.441c.018-1.084.027-2.096.045-3.036.045-2.818.082-5.004.136-6.476.045-1.473.09-2.25.136-2.25l.027-.009z"/><path id="Vector_2" d="M8.82 15.98c.045 0 .09.524.135 1.526.046 1.003.091 2.485.136 4.409.01.641.028 1.328.046 2.06.027.73.054 1.517.045 2.339-.127.83.236 1.698.036 2.61-.054.913 0 1.87.037 2.873.045 1.003-.082 2.042.036 3.126.245 1.084-.272 2.204.036 3.36.064 1.165.045 2.358.036 3.595-.19 1.238 0 2.511.037 3.812-.227 1.31-.127 2.647.027 4.02-.308 1.373-.263 2.782.027 4.219.01 1.445-.109 2.908.027 4.417.018 1.5.082 3.035.027 4.598.209 1.563.2 3.153.019 4.77.018.117.027.234.045.36l.018.182.018.036.045.063s.064-.018.091-.018h.408l.435.018c.58.018 1.17.054 1.758.1 1.677.126 3.372-.2 5.094-.019 1.722.018 3.472-.054 5.24-.018 1.767.09 3.561.19 5.365-.009 1.813-.054 3.644-.126 5.493 0 1.849-.235 3.716-.135 5.601 0 1.886-.036 3.789.127 5.701 0h1.487l-.018-.126v-.868c0-.587 0-1.174.036-1.761.072-1.942.136-3.866 0-5.772-.154-1.915.063-3.803 0-5.682.227-1.88-.072-3.74 0-5.583v-1.336l.018-.064c0-.01-.009-.018-.027-.036l-.036-.036-.444-.398a11.41 11.41 0 01-.997-1.093c-.3-.388-.599-.786-.852-1.201-.064-.109-.118-.217-.182-.325-.054-.109-.118-.217-.163-.326a8.654 8.654 0 01-.67-2.096c-.164-.957-.173-1.95.017-2.89-.027-.488.064-.976.19-1.436.146-.461.336-.904.581-1.32a2.15 2.15 0 01.19-.306c.064-.1.127-.2.2-.298.145-.19.272-.389.426-.57.29-.37.616-.713.924-1.056.181-.154.354-.308.544-.443l.136-.108s.1-.082.109-.082l.1-.063c.045-.018.027-.054.036-.081v-.154c0-.208 0-.424-.01-.632-.017-.85-.054-1.69-.026-2.52-.064-1.672.154-3.316.018-4.924.027-1.617-.11-3.207.018-4.77-.073-.677-.055-1.354-.018-2.032l.054-1.002v-.145l.01-.081v-.154a.645.645 0 00-.191.027h-3.653c-.172 0-.345 0-.517-.009a1.055 1.055 0 00-.38-.108c-.019.072-.019.162-.028.262v.442c.028.588.046 1.166.064 1.744-.254 0-.517.018-.77.027-.254 0-.499 0-.744.009-1.377-.027-2.728.154-4.033-.027-1.315-.018-2.583-.136-3.825-.036-1.242.036-2.438-.389-3.608-.036-1.16.063-2.293-.271-3.371-.037-1.088.217-2.13-.027-3.137-.036-1.006-.009-1.966-.027-2.882-.036-1.849-.027-3.526-.054-5.021-.072 0-.542.018-1.057.027-1.554 0-.307.018-.605.027-.894-.852-.027-1.604-.045-2.257-.063-.725-.018-1.341-.046-1.84-.064-.988-.045-1.504-.09-1.504-.135 0-.045.516-.09 1.504-.135.499-.019 1.115-.046 1.84-.064.363-.009.753-.018 1.179-.036.507-.009 1.051-.018 1.622-.036 0 .46.018.94.027 1.436 0 .172 0 .344.01.524 0 .127 0 .262.008.398.173 0 .345-.01.526-.018.272 0 .553-.01.834-.018.59 0 1.196-.018 1.83-.028 1.27-.018 2.63-.036 4.08-.054 1.006-.009 2.048-.198 3.136-.036 1.087 0 2.211-.144 3.371-.036 1.16-.244 2.366-.045 3.608-.036 1.242-.01 2.51.072 3.825-.027 1.314-.145 2.656.072 4.033-.027h.064s.018.009.027.009h.045s.064.027.09.036l.21.027c.008-.072.017-.154.017-.235v-.425c0-.253-.009-.514-.018-.776-.009-.335-.027-.669-.036-1.003.444-.018.907-.045 1.405-.072l.3.027.271.018c.181 0 .363.018.544.018.362 0 .734 0 1.106-.018.371-.018.743-.027 1.114-.045.19 0 .372-.01.563-.018h.806c.316.027.625.054.924.072-.018.289-.028.569-.037.84 0 .244-.009.497-.018.75 0 .334 0 .668.018 1.002.028.669.082 1.346.118 2.033.082 1.563-.036 3.152.018 4.77-.045 1.617.055 3.26.019 4.923.054.83.09 1.67.1 2.52v1.165c-.028.19.063.443-.164.524l-.462.343c-.09.064-.109.082-.154.118l-.118.09c-.154.118-.3.244-.453.37-.254.299-.508.597-.734.922-.118.154-.218.325-.327.488-.054.081-.1.171-.145.253-.045.081-.1.171-.136.262a8.99 8.99 0 00-.462 1.093c-.118.38-.227.768-.272 1.165a9.28 9.28 0 00.064 2.403c.072.397.154.795.29 1.174.063.199.145.38.217.57.045.09.09.18.136.28.045.09.09.18.145.27.2.362.435.696.67 1.04.245.333.508.65.807.948l.227.217.054.054.028.027h.018l.027.036.227.171.226.172.109.09.027.019s.01 0 .01.009v1.075l.026.343c.019.226.037.46.073.686.036 1.843-.036 3.704 0 5.583-.027 1.879-.063 3.776 0 5.682-.254 1.915-.1 3.84 0 5.772.018.587.036 1.174.036 1.762v2.584c-.652 0-1.305-.01-1.958-.019-.38 0-.752-.018-1.133-.018-1.921.027-3.816.01-5.7 0-1.886.072-3.753-.108-5.602 0-1.85.109-3.68-.117-5.493-.009-1.813.072-3.598.109-5.366-.009-1.767 0-3.517-.226-5.239-.018-1.722.045-3.426.334-5.094-.018a22.81 22.81 0 01-1.758 0c-.3-.01-.598-.027-.897-.036l-1.505-.027v-1.563l-.018-.18c0-.118-.018-.236-.027-.362.253-1.617.009-3.207.018-4.77.045-1.563.136-3.09.027-4.598-.118-1.5.063-2.972.027-4.417-.145-1.436.19-2.846.027-4.218.037-1.374-.018-2.72.028-4.02-.345-1.31 0-2.575.027-3.812.054-1.238-.227-2.43.036-3.596-.263-1.156-.036-2.276.036-3.36.073-1.084-.108-2.123.037-3.126-.182-1.002.1-1.96.036-2.872.118-.913 0-1.789.036-2.61a16.575 16.575 0 01.036-2.34c.018-.732.027-1.419.046-2.06.045-1.915.09-3.406.136-4.408.045-1.003.09-1.527.145-1.527l-.01-.09z"/><path id="Vector_3" d="M14.683 7.317c.1 0 .19.912.272 2.574.01.28.027.579.045.895.028.316.055.66.037 1.02-.127.362.235.741.036 1.139-.055.397 0 .813.036 1.246.046.434-.081.886.036 1.355.245.47-.271.958.037 1.464.018.108.027.226.036.334 0 .072 0 .144.009.217v.289h.072c.019.045.082.072.146.081h.1c.054 0 .108 0 .162-.009.281-.027.562-.081.843-.1.571.227 1.16.127 1.759-.026.598.307 1.214.262 1.84-.027.625-.01 1.269.108 1.921-.028.653-.018 1.324-.08 2.003-.018.68-.207 1.378-.198 2.076-.018.707-.225 1.423-.135 2.148-.018.725.127 1.468-.199 2.212-.018.752.018 1.504-.054 2.275-.018.77.09 1.55.19 2.33-.009.788-.054 1.585-.126 2.383-.009.807-.235 1.613-.136 2.438 0h.417s.082.027.127.036a.203.203 0 00.01-.108c0-.018 0-.036-.02-.064 0-.099-.017-.198-.035-.298.036-.83-.11-1.67 0-2.51.072-.84.136-1.681 0-2.512-.154-.831.063-1.653 0-2.475.108-.398.09-.795.063-1.193l-.027-.289-.027-.045s-.018-.045 0-.09c0 0-.064 0-.09-.018h-.028l-.01-.01h-.063l-.299-.017c-.399-.018-.797-.027-1.187.036-.789.045-1.568.081-2.33-.01-.19.082-.38.127-.57.136h-.462a10.982 10.982 0 00-.545-.036l-.507-.045h-.091c-.009 0 0-.018 0-.027v-.415c0-.181-.009-.353-.027-.525 0-.08-.018-.171-.027-.253 0-.045 0-.072-.018-.144v-.054l-.019-.027c0-.172-.009-.344-.036-.506a4.207 4.207 0 00-.145-.479l-.045-.117-.054-.118-.11-.226-.099-.226-.109-.216c-.172-.28-.317-.56-.471-.85a6.25 6.25 0 00-.281-.397 1.79 1.79 0 00-.362-.325c-.1-.127-.227-.226-.345-.325-.127-.1-.245-.2-.38-.28-.137-.082-.254-.181-.381-.262a2.666 2.666 0 01-.372-.28c-.154-.046-.3-.082-.435-.154a3.94 3.94 0 01-.2-.108c-.063-.036-.135-.064-.199-.1-.136-.063-.263-.153-.408-.198a1.846 1.846 0 00-.444-.09 1.864 1.864 0 00-.217-.046l-.218-.036c-.145-.018-.29-.045-.435-.054-.145 0-.29-.018-.435-.027h-.435a1.66 1.66 0 00-.227-.073c-.072-.018-.145-.009-.217-.009-.145 0-.29.027-.426.064a5.238 5.238 0 00-.399.153c-.064.027-.127.045-.2.072l-.19.082a2.34 2.34 0 00-.38.144 6.915 6.915 0 01-.354.199c-.054.036-.118.063-.172.09-.055.036-.118.064-.172.1a1.363 1.363 0 01-.381.135c-.435.28-.934.515-1.197.958-.072.1-.18.171-.28.244-.1.08-.2.153-.3.234-.045.037-.1.082-.145.127a.892.892 0 00-.1.153.65.65 0 00-.072.38c-.09.217-.245.397-.399.578-.127.19-.244.397-.2.641.046.244-.026.443-.108.642-.036.1-.081.198-.118.298-.036.108-.081.162-.1.37-.036.316-.063.624-.108.904-.3 0-.598-.01-.888-.019-.136 0-.281 0-.417-.009-.11 0-.218 0-.327-.009-.208 0-.417-.018-.616-.018-.399-.018-.78-.036-1.124-.045-.698-.036-1.296-.063-1.776-.1-.961-.062-1.478-.135-1.478-.207 0-.081.635-.154 1.813-.226.59-.036 1.314-.072 2.166-.108.426-.018.88-.036 1.369-.045h.245c.063-.01.136-.018.199-.018h.045s.037 0 .037-.028v-.108c0-.072 0-.135.009-.208 0 0 .009-.171.018-.28 0-.117.009-.244.018-.361.027-.244.1-.488.245-.705.081-.235.154-.487.226-.74.1-.244.209-.488.399-.696.018-.144.063-.28.127-.406.036-.064.072-.127.109-.181l.136-.163c.1-.108.2-.207.299-.307.1-.1.217-.19.317-.298.38-.443.906-.74 1.35-1.174.11-.109.245-.199.372-.28.073-.036.136-.082.209-.118.072-.027.145-.054.217-.09.145-.054.3-.118.444-.18.154-.055.3-.11.444-.19.082 0 .164-.019.245-.037.082 0 .163-.018.245-.027.163-.027.317-.063.48-.099.163-.027.326-.063.49-.108.081-.018.163-.055.244-.073.082-.018.164-.036.254-.063.172.027.345.036.517.036.172.01.344.01.517 0 .172-.009.353 0 .525.018.09 0 .181.01.263.018.09 0 .181.018.263.046.163.099.326.171.498.234.173.064.336.127.508.172.09.027.172.045.263.072.09.027.172.054.263.082.172.063.362.099.534.18.173.072.336.163.499.262.163.1.308.226.462.334.154.109.29.244.435.37l.435.38c.127.154.263.29.39.434.127.144.254.298.38.451.236.317.472.642.626 1.012.453.66.78 1.464.77 2.304v.036l.019.018v-.01.019s.018.018.027.036v.018s0 .01.009.01h.19c.19 0 .381.008.571.008.77-.09 1.55.01 2.33-.009.87-.045 1.25.244 3.118-.009h.109v1.653l-.01.307c0 .398-.009.795.01 1.193-.037.813-.064 1.644 0 2.475-.254.83-.1 1.662 0 2.511.072.84.036 1.68 0 2.511v.298l.009.57v1.138h-1.759l-.317-.01c-.816.073-1.632-.108-2.438 0-.807.11-1.605-.108-2.384 0-.789.073-1.568.11-2.33-.008-.77 0-1.531-.226-2.274-.018-.753.045-1.487.325-2.212-.018-.725.09-1.441-.172-2.148-.018-.707-.253-1.396-.01-2.076-.018-.68-.046-1.35-.136-2.003-.028-.652.118-1.296-.063-1.921-.027-.626.145-1.242-.19-1.84-.027-.599-.036-1.188.018-1.759-.027-.28.172-.562.172-.843.127l-.109-.018-.172-.028c-.118-.018-.226-.036-.344-.045-.218-.027-.426-.054-.635-.063h-.308c0-.361-.054-.714-.072-1.093v-.479a1.15 1.15 0 01.1-.334c-.264-.506-.037-.994.036-1.463.072-.47-.11-.922.036-1.356-.181-.433.1-.849.036-1.246.118-.398 0-.777.036-1.138a3.18 3.18 0 01.037-1.021c.018-.316.027-.623.045-.894.082-1.662.172-2.575.272-2.575l.045-.054z"/><path id="Vector_4" d="M39.691 30.018c0 .1-.136.19-.39.27-.045.019-.09.028-.136.046-.045.027-.1.054-.154.045-.054-.126-.108.235-.172.036-.063-.054-.127 0-.19.036-.064.046-.136-.081-.209.036-.072.244-.145-.27-.226.037-.073.063-.154.045-.236.036-.081-.19-.163 0-.254.036-.09-.226-.172-.127-.262.027-.091-.307-.182-.262-.282.027-.1.01-.19-.108-.29.027-.1.018-.199.081-.308.027-.1.208-.208.199-.317.018-.109.226-.218.136-.326.018-.109-.126-.227.2-.336.018-.117-.009-.226.055-.344.018-.118-.09-.236-.19-.354.01-.117.054-.244.126-.362 0-.127.234-.245.135-.372 0-.127.036-.254-.127-.38 0-.127-.037-.254.108-.381 0-.127-.073-.254-.145-.38 0-.128.153-.255-.064-.382 0-.126-.226-.244.072-.371 0-.118.018-.245-.127-.363 0-.117.036-.235.08-.353-.01-.118.344-.236-.09-.345-.018-.108-.144-.226.018-.335-.018-.109.064-.218-.153-.326-.018-.109-.027-.209.109-.317-.018-.1.172-.209-.144-.3-.027-.1 0-.199.01-.29-.027-.09-.262-.19-.045-.28-.027-.091-.027-.182.153-.263-.027-.091-.018-.173-.136-.254-.036-.082.036-.163-.389-.236-.036-.072.063-.154-.271-.217-.037-.073.217-.145-.027-.209-.036-.063-.009-.127-.027-.19-.036-.544-.117-.861-.253-.861-.388 0-.163.39-.307 1.051-.434.064-.009.136-.199.209-.036.072 0 .145-.144.217-.036.082-.244.154-.045.236-.036.081-.01.163.072.254-.027.081-.145.172.072.262-.027.091.153.182.108.281-.028.091.145.19-.027.29-.027.1.226.2.073.3-.027.1-.081.208.036.317-.018.108.045.217-.063.326-.018.109-.108.227-.144.335-.018.118-.072.227-.018.345-.018.118-.09.236.009.353-.01.118-.044.245.245.363 0 .118-.035.245.037.371 0 .127.037.254.064.381 0 .127.245.254.091.38 0 .128-.071.255-.035.382 0 .127-.026.253-.008.38 0 .127-.071.245.11.372 0 .118-.107.245.11.362 0 .118-.071.236-.107.354.01.118 0 .236.226.344.018.11-.045.227-.334.336.018.108-.09.217.172.326.018.109.253.209.01.317.018.1.045.209.136.308.027.1-.117.2.064.29.027.091-.144.19.19.282.027.09.037.18-.017.262.028.082-.344.173 0 .254.027.082.045.163-.226.236.036.072-.262.154-.036.226.036.073.072.145-.108.209.036.063-.18.127.1.19.036.064.118.118 0 .172.036.055-.036.11-.027.154.046.046.009.091.027.136.036.254.081.39.171.39.27z"/><path id="Vector_5" d="M39.691 35.031c0 .1-.136.19-.39.271-.045.019-.09.028-.136.046-.045.027-.1.054-.154.045-.054-.127-.108.235-.172.036-.063-.054-.127 0-.19.036-.064.045-.136-.081-.209.036-.072.244-.145-.27-.226.036-.073.063-.154.045-.236.036-.081-.19-.163 0-.254.027-.09-.225-.172-.126-.262.028-.091-.308-.182-.262-.282.027-.1.009-.19-.109-.29.027-.1.018-.199.081-.308.027-.1.208-.208.199-.317.018-.109.226-.218.135-.326.018-.109-.127-.227.199-.336.018-.117-.009-.226.054-.344.018-.118-.09-.236-.19-.354.01-.117.053-.244.126-.362.008-.127.235-.245.127-.372 0-.127.036-.254-.126-.38 0-.127-.036-.254.109-.381 0-.127-.072-.254-.135-.38 0-.128.154-.255-.063-.382 0-.126-.217-.244.072-.371 0-.118.018-.245-.126-.363-.009-.117.045-.235.081-.353-.009-.118.343-.236-.09-.345-.018-.108-.145-.226.018-.335-.018-.109.063-.218-.154-.326-.018-.109-.027-.209.108-.317-.018-.1.171-.209-.145-.3-.027-.1 0-.199.009-.29-.027-.09-.262-.19-.046-.28-.027-.091-.028-.182.153-.263-.028-.091-.018-.173-.135-.254-.027-.082.036-.163-.388-.236-.036-.072.063-.154-.27-.217-.036-.073.217-.145-.027-.209-.036-.063-.01-.127-.027-.19-.036-.544-.118-.861-.253-.861-.398 0-.162.39-.307 1.051-.433.064-.01.136-.199.209-.036.072 0 .145-.145.217-.036.082-.244.154-.046.236-.037.081-.009.163.064.254-.036.081-.144.172.072.262-.027.091.154.182.109.281-.027.091.145.19-.036.29-.027.1.226.2.072.3-.027.1-.081.208.036.317-.018.108.045.217-.054.326-.018.109-.109.227-.145.335-.018.118-.073.227-.018.345-.018.118-.09.236.009.353-.01.118-.045.245.245.363-.008.118-.037.245.036.371 0 .127.036.254.063.381 0 .127.252.254.099.38 0 .128-.073.255-.037.382 0 .127-.028.253-.01.38 0 .127-.073.245.108.372 0 .118-.109.245.108.362.009.118-.073.236-.109.354.009.118 0 .236.225.344.018.11-.045.227-.335.336.018.108-.082.217.171.326.018.109.253.209.009.317.018.1.045.209.135.308.027.1-.117.2.063.29.027.091-.145.19.19.282.027.09.036.18-.018.262.027.082-.343.173 0 .254.036.082.046.163-.225.236.037.072-.262.154-.037.226.036.073.072.145-.109.209.036.063-.18.127.1.19.036.064.117.118 0 .172.036.055-.045.11-.027.154.045.046.018.091.027.136.045.254.082.39.172.39.271z"/><path id="Vector_6" d="M21.245 30.036c.1 0 .19.226.272.623.01.072.027.145.046.217a.462.462 0 01.036.244c-.127.09.236.18.036.28-.054.1 0 .198.036.307.046.108-.081.217.037.325.244.118-.272.235.036.352.063.127.045.253.036.38-.19.126 0 .262.036.397-.226.136-.127.28.028.425-.309.144-.263.298.027.451 0 .037 0 .073-.01.118 0 .063-.017.126-.026.19-.01.126 0 .252.063.415.018.271.082.614.027.858l.055.136c-.118.153-.49.126-.843-.036-.1.108-.263.144-.426.135-.154 0-.372-.063-.426-.117-.182-.127-.354.198-.535.018-.181-.01-.372.054-.553.018-.19-.09-.372-.19-.571.009-.19.054-.38.126-.58.009-.19.235-.39.126-.59 0a.683.683 0 01-.298-.036h-.254a.902.902 0 00-.29.054c-.181-.018-.38 0-.58.027-.2.018-.417.027-.553-.027.036-.226.072-.434.081-.623 0-.19 0-.353-.081-.515a.658.658 0 01-.055-.271v-.217l.01-.036v-.018c.036-.1.072-.199.045-.298.226-.2-.073-.398 0-.587-.018-.2.127-.389 0-.579-.037-.19-.082-.379.009-.569-.345-.19.09-.37.018-.55.145-.181-.018-.362.018-.534 0-.018-.009-.045-.009-.063v-.108c.01-.082.027-.154.045-.226.027-.145.055-.28-.018-.46.01-.127 0-.272-.027-.425-.018-.145-.027-.299.018-.389.036 0 .073.018.109.027.063-.081.254-.045.426 0s.326.09.435.027h.608c.054 0 .08.01.117.018.154.262.3.046.453.027.145.028.29-.153.426.028.136.018.272.135.408.036.127-.036.263.388.38.036.128-.063.246.27.354.036.118-.217.227.027.336.036.108.01.208.027.308.036.87.118 1.369.253 1.369.389 0 .162-.617.307-1.677.433-.109.01-.218.199-.336.036-.117 0-.235.145-.353.037-.127.243-.254.045-.38.036-.128.009-.264-.073-.409.027-.136.144-.28-.073-.426.027-.145-.154-.299-.109-.453.027a.175.175 0 00-.109-.054c-.009 0-.027 0-.036.018-.027.027-.036.072-.054.063-.073-.117-.118-.135-.136-.108-.018.027 0 .081.027.135v.018c.018.036.009.036 0 .045-.01 0-.018.018 0 .055-.018 0 0 .036 0 .054 0 .009.018.018.018.027v.081c.109.18.145.353.018.533.073.18.018.361.018.551.091.19-.009.38.01.57.045.189-.245.388.008.577.037.19-.036.389 0 .588-.018.099-.036.198-.036.298v.036s.018.009.037.009c-.127.054-.146.108-.127.117.018.018.081-.009.127-.045.09-.072.054-.036.072 0l.018-.009h.027c.1 0 .2.01.3.018.199-.072.398.109.588 0 .2-.108.39.109.58.01.191-.073.381-.11.572.008.19 0 .371.226.553.018.18-.045.362-.334.534.018a.168.168 0 01.064-.018h.018s.018.027.036.046c.027.036.073.063.055-.01.072.118.117.127.126.109.019-.018-.009-.072 0-.081v-.018c.028 0 .055 0 .073-.01.018-.018 0-.054-.045-.099-.064-.045-.046-.045-.018-.063.009 0 .027-.018.036-.027a.22.22 0 000-.109c-.145-.153.19-.298.027-.451.036-.145-.018-.29.027-.425-.344-.135 0-.27.027-.397.055-.136-.226-.262.037-.38-.263-.126-.037-.244.036-.352.072-.118-.109-.226.036-.325-.181-.109.1-.208.036-.307.118-.1 0-.19.037-.28-.046-.09-.028-.172.036-.244.018-.082.027-.154.045-.217.082-.407.181-.623.272-.623l.045.027z"/><path id="Vector_7" d="M39.691 44.363c0 .1-.136.19-.39.27-.045.019-.09.028-.136.046-.045.027-.1.054-.154.036-.054-.126-.108.235-.172.036-.063-.054-.127 0-.19.036-.064.046-.136-.08-.209.037-.072.243-.145-.271-.226.036-.073.063-.154.045-.236.036-.081-.19-.163 0-.254.036-.09-.226-.172-.127-.262.027-.091-.307-.182-.262-.282.027-.1.01-.19-.108-.29.027-.1.018-.199.081-.308.027-.1.208-.208.2-.317.018-.109.226-.218.136-.326.019-.109-.127-.227.19-.336.017-.117-.017-.226.055-.344.019-.118-.09-.236-.19-.354.009-.117.054-.244.126-.362.009-.127.234-.245.135-.372 0-.127.036-.254-.127-.38 0-.127-.037-.254.108-.381 0-.127-.073-.254-.145-.38 0-.128.153-.255-.064-.382 0-.126-.226-.244.072-.371 0-.118.018-.245-.127-.363-.01-.117.037-.235.082-.353-.008-.118.343-.236-.09-.345-.019-.108-.144-.226.019-.335-.017-.109.063-.218-.154-.326-.019-.109-.027-.209.109-.317-.018-.1.172-.209-.144-.3-.027-.1 0-.199.01-.29-.027-.09-.262-.19-.045-.28-.027-.091-.027-.182.154-.263-.027-.091-.018-.173-.136-.254-.036-.082.036-.163-.389-.236-.036-.072.063-.154-.271-.217-.036-.073.216-.145-.027-.209-.037-.063-.009-.127-.027-.19-.036-.544-.117-.861-.253-.861-.388 0-.163.39-.307 1.051-.434.064-.009.136-.199.209-.036.072 0 .145-.144.217-.036.082-.244.154-.045.236-.036.081-.01.163.063.254-.036.081-.145.172.072.262-.027.091.153.182.108.281-.028.091.145.19-.027.29-.027.1.226.2.073.3-.027.1-.081.208.036.317-.018.108.045.217-.054.326-.018.109-.108.227-.144.335-.018.118-.072.227-.018.345-.018.118-.09.236.01.353-.009.118-.045.245.244.363-.009.118-.036.245.036.371 0 .127.027.254.063.381 0 .127.253.254.1.38 0 .128-.072.255-.036.382 0 .127-.027.253-.009.38 0 .127-.072.245.108.372 0 .118-.108.245.108.362.009.118-.072.236-.108.354.01.118 0 .236.225.344.017.11-.045.227-.325.336.018.108-.09.217.163.326.018.109.253.209.01.317.018.1.045.209.136.308.027.1-.117.2.064.29.027.091-.144.19.19.282.028.09.036.18-.018.262.027.082-.343.173 0 .254.036.082.045.163-.226.236.036.072-.262.154-.036.226.036.073.072.145-.108.209.036.063-.18.127.1.19.036.064.118.118 0 .172.036.055-.036.11-.027.154.037.046.018.091.027.136.045.254.081.39.18.39.27v.01z"/><path id="Vector_8" d="M39.691 49.367c0 .1-.136.19-.39.271-.045.018-.09.027-.136.045-.045.028-.1.055-.154.036-.054-.126-.108.235-.172.037-.063-.054-.127 0-.19.036-.064.045-.136-.081-.209.036-.072.244-.145-.271-.226.036-.073.063-.154.045-.236.036-.081-.19-.163 0-.254.027-.09-.225-.172-.126-.262.027-.091-.307-.182-.262-.282.027-.1.01-.19-.108-.29.028-.1.018-.199.08-.308.027-.1.207-.208.198-.317.018-.109.226-.218.135-.326.018-.109-.127-.227.199-.336.018-.117-.018-.226.054-.344.018-.118-.09-.236-.19-.354.009-.117.054-.244.127-.362 0-.127.235-.245.136-.372 0-.127.036-.254-.127-.38 0-.127-.036-.254.108-.381 0-.127-.072-.254-.145-.38 0-.128.154-.255-.063-.382 0-.126-.226-.244.072-.371 0-.118.018-.245-.127-.363 0-.117.036-.235.081-.353-.009-.118.343-.236-.09-.345-.018-.108-.145-.226.018-.335-.018-.109.063-.218-.154-.326-.018-.109-.027-.209.108-.317-.018-.1.171-.209-.145-.3-.027-.1 0-.199.009-.29-.028-.09-.262-.19-.045-.28-.027-.091-.027-.182.154-.263-.027-.091-.018-.173-.135-.254-.027-.082.036-.163-.388-.236-.036-.072.063-.154-.27-.217-.036-.073.217-.145-.027-.209-.036-.063-.01-.127-.027-.19-.036-.544-.118-.861-.253-.861-.398 0-.162.39-.307 1.051-.433.064-.01.136-.2.209-.036.072 0 .145-.145.217-.037.082-.244.154-.045.236-.036.081-.009.163.072.254-.027.081-.144.172.072.262-.027.091.154.182.108.281-.027.091.144.19-.027.29-.027.1.226.2.063.3-.027.1-.082.208.036.317-.018.108.045.217-.055.326-.018.109-.109.227-.145.335-.019.118-.072.227-.018.345-.018.118-.09.236.01.353-.009.118-.045.245.244.363 0 .118-.036.245.037.371 0 .127.028.254.064.381 0 .127.244.254.09.38 0 .128-.072.255-.036.382 0 .127-.027.253-.009.38 0 .127-.072.245.109.372 0 .118-.108.245.109.362 0 .118-.072.236-.108.354.01.118 0 .236.225.344.017.11-.045.227-.325.336.019.108-.09.217.171.326.018.109.253.209.009.317.018.1.045.209.135.308.027.1-.118.2.063.29.027.091-.145.19.19.282.027.09.036.18-.018.262.027.082-.343.173 0 .254.027.082.054.163-.226.236.036.072-.262.154-.036.226.037.073.072.145-.109.209.036.063-.181.127.099.19.036.064.117.118 0 .172.036.055-.045.11-.027.154.036.046.018.091.027.136.045.254.081.39.18.39.271v.018z"/><path id="Vector_9" d="M21.246 44.372c.1 0 .19.217.272.623.009.063.027.145.045.217a.462.462 0 01.036.244c-.127.09.236.18.036.28-.054.1 0 .199.037.307.045.108-.082.217.036.334.245.118-.272.235.036.352.064.127.046.254.037.38-.19.126 0 .262.036.406-.227.136-.127.28.027.425-.308.145-.263.298.027.443 0 .045 0 .072-.009.126 0 .063-.018.127-.027.19a.896.896 0 00.063.415c.018.271.082.615.027.858l.055.136c-.118.154-.49.127-.843-.027-.1.108-.263.144-.426.135-.163 0-.372-.063-.426-.117-.181-.127-.354.199-.535.018-.181-.018-.362.054-.553.018-.19-.09-.371-.19-.57.01-.191.053-.39.126-.58 0-.2.234-.39.135-.59 0a.683.683 0 01-.3-.037h-.262a.905.905 0 00-.29.054c-.181-.018-.38 0-.58.027-.2.018-.417.027-.553-.027.036-.226.072-.433.082-.623 0-.19 0-.343-.082-.515a.689.689 0 01-.054-.271v-.217l.009-.036v-.018c.036-.1.072-.199.045-.298.227-.199-.072-.398 0-.587-.018-.199.127-.389 0-.578-.036-.19-.082-.38.01-.56-.345-.19.09-.37.017-.552.145-.18-.018-.36.018-.541 0-.019-.009-.046-.009-.064v-.108c.01-.081.027-.154.046-.226.027-.145.054-.28-.019-.46.01-.127 0-.272-.027-.425-.018-.145-.027-.298.018-.389.037 0 .073.018.118.036.064-.08.254-.045.426 0 .172.046.326.09.435.028h.608c.054 0 .081.009.117.018.154.27.3.045.444.027.146.027.29-.154.427.027.136.018.271.135.407.027.127-.036.263.388.381.036.127-.063.245.271.354.036.117-.217.226.027.335.036.109.01.208.027.308.036.87.118 1.369.253 1.369.389 0 .163-.617.307-1.677.434-.109.009-.218.198-.335.036-.118 0-.236.144-.354.036-.118.244-.254.045-.38.036-.128.009-.264-.063-.409.027-.135.145-.28-.072-.426.027-.145-.153-.299-.108-.444.027a.176.176 0 00-.108-.054c-.01 0-.028 0-.037.018-.027.027-.036.072-.054.063-.072-.117-.118-.126-.136-.108-.018.027 0 .081.027.135v.019c.018.036.01.036 0 .045-.009 0-.018.018 0 .054-.018 0 0 .036 0 .054 0 .01.018.018.018.027v.081c.11.181.145.353.018.542.073.181.019.362.019.551.09.19-.01.37.009.56.045.19-.245.389.009.579.036.19-.037.388 0 .587-.018.1-.037.199-.037.298v.036s.019.01.037.01c-.127.053-.145.108-.127.117.018.018.081-.01.127-.046.09-.072.054-.036.072 0l.018-.009h.028c.1 0 .199.01.299.018.2-.072.399.109.589 0 .19-.108.39.109.58 0 .19-.072.38-.108.57.01.191 0 .373.225.554.017.181-.045.362-.325.535.019a.167.167 0 01.063-.019h.018c0 .01.018.028.036.046.028.036.073.063.055-.018.072.117.118.126.127.108.009-.018-.01-.072 0-.081v-.018h.072c.018-.018 0-.055-.045-.1-.063-.045-.045-.045-.018-.063.009 0 .027-.018.036-.027a.215.215 0 000-.108c-.145-.154.19-.299.027-.443.037-.145-.018-.29.027-.425-.344-.135 0-.27.028-.406.054-.127-.227-.253.036-.38-.263-.126-.036-.243.036-.352.073-.117-.109-.226.036-.334-.18-.108.1-.208.037-.307.117-.1 0-.19.036-.28-.045-.09-.027-.172.036-.244.018-.081.027-.154.046-.217.081-.407.18-.623.271-.623l.046.027z"/><path id="Vector_10" d="M39.691 58.699c0 .099-.136.19-.39.27-.045.019-.09.028-.136.046-.045.027-.1.054-.154.036-.054-.127-.108.235-.172.036-.063-.054-.127 0-.19.036-.064.045-.136-.081-.209.036-.072.244-.145-.27-.226.036-.073.064-.154.045-.236.036-.081-.19-.163 0-.254.037-.09-.226-.172-.127-.262.027-.091-.307-.182-.262-.282.027-.1.009-.19-.109-.29.027-.1.018-.199.081-.308.027-.1.208-.208.199-.317.018-.109.226-.218.136-.326.018-.109-.126-.227.199-.336.018-.117-.018-.226.054-.344.018-.118-.09-.236-.19-.354.01-.117.053-.244.126-.362 0-.127.234-.245.135-.372 0-.127.035-.254-.127-.38 0-.127-.037-.254.108-.381 0-.127-.073-.254-.145-.38 0-.128.153-.255-.064-.382 0-.126-.227-.244.072-.371 0-.118.017-.245-.127-.363 0-.117.035-.235.08-.353-.01-.118.344-.236-.09-.345-.018-.108-.144-.226.018-.335-.018-.109.063-.218-.153-.326-.018-.109-.027-.209.108-.317-.018-.1.172-.209-.145-.3-.027-.1 0-.199.009-.29-.027-.09-.271-.19-.045-.28-.027-.091-.027-.182.153-.263-.027-.091-.018-.173-.136-.254-.037-.082.037-.163-.388-.236-.036-.072.064-.154-.27-.217-.036-.073.217-.145-.027-.209-.036-.063-.009-.127-.027-.19-.036-.544-.118-.861-.253-.861-.398 0-.162.39-.307 1.051-.433.064-.01.136-.199.209-.036.072 0 .145-.145.217-.036.082-.244.154-.045.236-.036.081-.01.163.063.254-.037.081-.144.172.073.262-.027.091.154.182.109.281-.027.091.145.19-.036.29-.027.1.226.2.072.3-.027.1-.081.208.036.317-.018.108.045.217-.054.326-.018.109-.109.227-.145.335-.018.118-.072.227-.01.345-.01.118-.09.236.01.353-.008.118-.045.245.244.363-.01.118-.035.245.037.371 0 .127.037.254.064.381 0 .127.245.254.1.38 0 .128-.072.255-.035.382 0 .127-.026.253-.008.38 0 .127-.072.245.11.372 0 .118-.108.245.11.362.01.118-.073.236-.109.354.009.118 0 .236.226.344.009.11-.045.227-.325.336.018.108-.081.217.162.326.018.109.253.209.009.317.018.1.045.209.136.308.027.1-.117.2.063.29.027.091-.144.19.19.282.027.09.036.18-.018.262.027.082-.343.173 0 .254.037.082.045.163-.226.236.036.072-.262.154-.036.226.036.073.072.145-.109.209.036.063-.18.127.1.19.036.064.117.118 0 .172.036.055-.036.11-.027.154.036.046.01.091.027.136.046.254.08.39.171.39.27v.019z"/><path id="Vector_11" d="M39.691 63.703c0 .09-.136.19-.39.271-.045.018-.09.027-.136.045-.045.027-.1.055-.154.036-.054-.126-.108.235-.172.037-.063-.055-.127 0-.19.036-.064.045-.136-.082-.209.036-.072.244-.145-.271-.226.036-.073.063-.154.045-.236.036-.081-.19-.163 0-.254.036-.09-.226-.172-.126-.262.027-.091-.307-.182-.262-.282.027-.1.01-.19-.108-.29.028-.1.018-.199.08-.308.027-.1.207-.208.198-.317.018-.109.226-.218.135-.326.018-.109-.127-.227.198-.336.018-.117-.01-.226.054-.344.018-.118-.09-.236-.19-.354.009-.117.054-.244.126-.362.009-.127.235-.245.135-.372 0-.127.036-.254-.126-.38 0-.127-.036-.254.108-.381 0-.127-.072-.254-.136-.38 0-.128.154-.255-.063-.382 0-.126-.226-.244.072-.371 0-.118.018-.245-.127-.363-.009-.117.036-.235.081-.353-.01-.118.344-.236-.09-.345-.017-.108-.145-.226.018-.335-.018-.109.063-.218-.154-.326-.018-.109-.027-.209.108-.317-.018-.1.171-.209-.145-.3-.027-.1 0-.199.009-.29-.028-.09-.261-.19-.045-.28-.027-.091-.027-.182.154-.263-.027-.091-.018-.173-.135-.254-.036-.082.036-.163-.388-.236-.036-.072.063-.154-.271-.217-.036-.073.217-.145-.027-.209-.036-.063-.01-.127-.027-.19-.036-.544-.118-.861-.253-.861-.389 0-.162.39-.307 1.051-.433.064-.01.136-.2.209-.037.072 0 .145-.144.217-.036.082-.244.154-.045.236-.036.081-.009.163.063.254-.036.081-.145.172.072.262-.027.091.154.182.108.281-.027.091.144.19-.027.29-.027.1.226.2.072.3-.027.1-.082.208.036.317-.018.108.045.217-.055.326-.019.109-.108.227-.144.335-.018.118-.072.227-.018.345-.018.118-.09.236.01.353-.009.118-.045.245.244.363-.009.118-.036.245.036.371 0 .127.027.254.064.381 0 .127.253.254.1.38 0 .128-.072.255-.036.382 0 .127-.027.253-.009.38 0 .127-.072.245.109.372 0 .118-.108.245.109.362.01.118-.073.236-.109.354.008.118 0 .236.226.344.018.11-.045.227-.325.336.018.108-.09.217.163.326.019.109.252.209.009.317.018.1.045.209.135.308.027.1-.118.2.063.29.027.091-.145.19.19.282.027.09.036.18-.018.262.027.082-.343.173 0 .254.036.082.045.163-.226.236.036.072-.262.154-.036.226.036.073.073.145-.108.209.037.063-.181.127.099.19.036.064.117.118 0 .172.036.055-.045.11-.027.154.036.046.018.091.027.136.045.254.081.39.18.39.271v.01z"/><path id="Vector_12" d="M21.246 58.707c.1 0 .19.217.272.624.009.063.027.144.045.216.027.082.054.163.036.244-.127.09.236.181.036.28-.054.1 0 .2.037.308.045.108-.082.216.036.334.245.117-.272.235.036.352.064.127.046.253.037.38-.19.126 0 .261.036.406-.227.135-.127.28.027.425-.308.144-.263.298.027.442 0 .045 0 .072-.009.127 0 .063-.018.126-.027.19a.896.896 0 00.063.415c.018.27.082.614.027.849l.055.135c-.118.154-.49.127-.843-.027-.1.109-.263.145-.426.136-.163 0-.372-.063-.426-.118-.181-.126-.354.2-.535.019-.181-.01-.362.054-.553.017-.19-.09-.371-.19-.57.01-.191.054-.39.126-.58.009-.2.234-.39.135-.59 0a.683.683 0 01-.3-.037h-.126s-.09-.009-.136 0a.902.902 0 00-.29.055c-.181-.018-.38 0-.58.027-.2.018-.417.027-.553-.027.036-.226.072-.434.082-.624 0-.19 0-.343-.082-.515a.658.658 0 01-.054-.27v-.217l.009-.036v-.018c.036-.1.072-.2.045-.299.227-.198-.072-.397 0-.587-.018-.199.127-.388 0-.578-.036-.19-.082-.38.01-.56-.345-.19.09-.37.017-.551.145-.18-.018-.361.018-.533 0-.018-.009-.045-.009-.063v-.1c.01-.08.027-.153.046-.225.027-.145.054-.28-.019-.461.01-.127 0-.271-.027-.425-.018-.144-.027-.298.018-.388.037 0 .073.018.118.036.064-.081.254-.045.426 0s.326.09.435.027h.608c.054 0 .081.01.117.018.154.262.3.045.444.027.146.027.29-.153.427.027.136.018.271.136.407.036.127-.036.263.389.381.037.127-.064.245.27.354.036.117-.217.226.027.335.036.109.009.208.027.308.036.87.117 1.369.253 1.369.398 0 .162-.617.307-1.677.433-.109.01-.218.199-.335.036-.118 0-.236.145-.354.036-.118.244-.254.045-.38.036-.128.01-.264-.063-.409.037-.135.144-.28-.073-.426.027-.145-.154-.299-.109-.444.027a.176.176 0 00-.108-.054c-.01 0-.028 0-.037.018-.027.027-.036.072-.054.063-.072-.117-.118-.136-.136-.108-.018.027 0 .09.027.135v.018c.018.036.01.036 0 .045-.009 0-.018.018 0 .054-.018 0 0 .037 0 .055 0 .009.018.018.018.027v.081c.11.172.145.352.018.533.073.18.019.361.019.551.09.19-.01.38.009.56.045.19-.245.389.009.578.036.19-.037.389 0 .587-.018.1-.037.2-.037.299v.036s.019.009.037.009c-.127.054-.145.108-.127.117.018.018.081-.009.127-.054.09-.072.054-.036.072 0l.018-.01h.028c.1 0 .199.01.299.019.2-.072.399.108.589 0 .19-.108.39.108.58.009.19-.072.38-.108.57.009.191 0 .373.226.554.018.181-.045.362-.325.535.018a.167.167 0 01.063-.018h.018s.018.027.036.045c.028.036.073.063.055-.009.072.118.118.127.127.109.009-.018-.01-.073 0-.082v-.018c.027 0 .054 0 .072-.009.018-.018 0-.054-.045-.1-.063-.044-.045-.044-.018-.062.009 0 .027-.018.036-.027a.215.215 0 000-.109c-.145-.153.19-.298.027-.442.037-.145-.018-.29.027-.425-.344-.136 0-.271.028-.407.054-.126-.227-.262.036-.379-.263-.117-.036-.244.036-.352.073-.118-.109-.226.036-.334-.18-.109.1-.208.037-.308.117-.099 0-.19.036-.28-.045-.09-.027-.171.036-.244.018-.072.027-.153.046-.216.081-.407.18-.624.271-.624l.046-.009z"/><path id="Vector_13" d="M27.962 7.86c0 .044-.054.098-.154.144-.045.027-.108.045-.172.08-.072.037-.145.064-.226.1-.055.027-.118.055-.182.09l-.09.064c-.037.018-.064.036-.1.045-.118-.09-.054.262-.209.127-.1-.01-.154.063-.208.153-.054.081-.2.027-.208.18.036.127-.046.1-.118.082-.073-.018-.154-.018-.082.127-.036.108-.109.171-.19.243-.109-.027-.145.028-.154.082-.01.063 0 .135-.018.19-.245-.028-.236.135-.136.307-.336-.037-.345.135-.11.334-.017.054-.053.108-.08.162a.152.152 0 00-.028.09c0 .037.018.064.045.1 0 .063 0 .127.01.19 0 .063 0 .126-.028.19.1.063.163.117.163.18 0 .027 0 .063-.027.09a.43.43 0 01-.081.109c.235.09.181.217.1.38-.037.08.036.126.09.18.064.045.127.081.073.19.018.063.072.117.117.171.037.054.091.1.118.172 0 .045 0 .081.01.126a.18.18 0 00.045.109c.036.063.108.1.235.072.073.027.145.054.209.081.063.036.108.09.136.172.244-.127.299.018.39.19.072 0 .126.063.199.108.063.036.136.072.226.018a.387.387 0 00.227 0 .263.263 0 01.227.036.714.714 0 00.235.072.283.283 0 00.218-.108c.054-.09.127-.09.208-.081.073.009.154.018.218-.036.109.081.172.018.226-.036.055-.064.082-.154.164-.154.054-.045.127-.063.199-.09.072-.027.136-.073.145-.163.036-.063.072-.126.109-.18.018-.028.045-.046.072-.073.027-.018.064-.036.1-.054-.1-.154-.036-.19.036-.217.082-.027.2-.036.19-.117.091-.027.118-.09.128-.163 0-.072 0-.144.036-.199-.01-.072.036-.126.09-.18.055-.054.073-.127.018-.199.01-.036.01-.063.01-.1 0-.036-.01-.063-.019-.099-.018-.063 0-.126.055-.19-.09-.063-.055-.117-.018-.19.036-.062.072-.135 0-.189l-.018-.09-.019-.09c-.018-.055-.018-.118-.018-.181.11-.1.09-.163.055-.208-.046-.054-.127-.072-.163-.126-.019-.127-.236-.118-.136-.308-.019-.054-.028-.117-.046-.171-.018-.054-.045-.1-.127-.109-.054-.027-.009-.126 0-.207 0-.082-.027-.127-.18-.036-.055 0-.046-.1-.055-.163-.01-.063-.037-.118-.145-.045-.2.117-.136-.118-.209-.18-.072-.064-.145-.1-.208-.154-.635-.407-1.133-.48-1.133-.642 0-.036.036-.081.118-.108a.912.912 0 01.344-.082c.308-.036.78 0 1.314.244.1.046.318-.045.327.172.054.036.127.045.19.072.063.027.127.073.136.154.136-.045.2 0 .235.063.037.072.046.163.091.217.055.045.09.117.127.19.045.063.09.117.181.162.209.063.11.307.272.416-.063.216.027.343.227.47a.284.284 0 00.036.27.573.573 0 01.073.127c.018.045.036.09.045.135-.1.109-.1.2-.073.29.028.09.1.18.146.28.045.099.027.198.009.298 0 .054-.019.099-.028.144a.44.44 0 000 .154c-.063.19-.018.415-.117.614a.825.825 0 01-.019.334.495.495 0 01-.208.262c-.01.118-.073.208-.136.307-.064.1-.145.172-.209.262-.018.064-.045.109-.072.163-.036.045-.073.081-.118.126-.081.082-.181.145-.254.235-.072.1-.19.127-.308.172-.118.036-.208.1-.235.262-.19.153-.436.199-.635.334l-.353.081a1.577 1.577 0 00-.345.127c-.145-.1-.263-.109-.38-.072-.118.027-.236.09-.363.144a1.08 1.08 0 01-.38.018 1.658 1.658 0 01-.363-.1c-.127 0-.245-.044-.363-.072-.118-.036-.227-.09-.344-.135-.127 0-.227-.09-.327-.163-.1-.072-.18-.153-.317-.171-.136-.018-.208-.118-.29-.208-.081-.09-.145-.19-.263-.226a.791.791 0 01-.29-.199c-.045-.045-.072-.09-.109-.135a.53.53 0 01-.054-.18.928.928 0 01-.118-.326.323.323 0 00-.226-.244c-.073-.09-.19-.153-.263-.244-.073-.09-.09-.208.036-.361-.073-.09-.054-.208-.054-.316 0-.109.027-.208-.073-.298.054-.064.082-.109.09-.163a.26.26 0 00-.017-.145c-.028-.09-.1-.19-.091-.289.027-.099.072-.19.09-.28.019-.09.037-.18-.009-.289a.21.21 0 01-.018-.144c.01-.045.037-.09.055-.127a.713.713 0 00.118-.253c-.037-.108.036-.18.108-.243.073-.064.154-.118.11-.226.099-.136.144-.307.271-.416-.1-.162-.045-.226.036-.262.082-.036.2-.036.263-.081.073-.036.073-.127.1-.208.027-.072.082-.126.227-.081-.037-.145.009-.199.09-.217.073-.018.172 0 .245 0 .136-.018.154-.235.326-.172.01-.225.254-.018.317-.117.145.063.19-.072.3-.072a.242.242 0 01.126-.064c.046 0 .091 0 .145.028.082 0 .164-.019.236-.019.109 0 .209.01.29.019.082.009.154.036.209.054.108.036.163.081.163.135l-.037-.036z"/><path id="Vector_14" d="M51.927 31.851c0-.045.145-.09.426-.117.145-.01.317-.036.526-.036.208.009.444.027.715.045.182.018.372.063.58.1.11.017.218.026.327.044.109.028.218.064.326.109.172.199.553-.063.707.244.109.081.227.144.354.19.063.027.127.045.2.072.063.027.126.054.198.081.272.117.463.361.77.46.2 0 .291.145.382.29.09.144.172.298.398.298.073.045.145.09.209.144.072.055.136.109.19.172.118.127.236.262.345.406.054.19.154.335.29.47.127.136.29.244.408.398 0 .451.299.704.607 1.012a.896.896 0 00-.018.343c0 .054.018.1.036.153.01.046.027.1.045.145.082.19.227.343.435.497.073.198.091.415.136.623.019.108.046.208.082.316.027.108.063.208.109.316.036.217.108.434.136.66.018.226.036.451.018.686.063.118.09.235.108.353.019.117.028.234.019.352 0 .117-.027.235-.055.352-.036.118-.09.235-.154.343.037.127.055.253.055.38v.19c-.01.063-.028.117-.046.18a3.8 3.8 0 01-.299.687c-.145.217-.181.46-.235.713-.055.253-.145.488-.336.687l-.081.171-.1.163c-.064.108-.127.226-.19.343a3.12 3.12 0 01-.445.642l-.29.27c-.1.082-.2.172-.299.263-.09.09-.181.19-.254.298-.081.108-.163.217-.226.343-.181.199-.354.416-.58.578-.218.172-.435.343-.707.425-.345.497-.916.677-1.487.768-.127.054-.263.099-.398.144-.136.036-.272.082-.408.1a3.421 3.421 0 00-.825.234c-.29.027-.562.1-.852.154a3.52 3.52 0 01-.87.018 9.42 9.42 0 00-.861-.126c-.281-.037-.562-.073-.861-.046-.3.027-.572-.08-.843-.171-.136-.045-.263-.118-.39-.172a2.985 2.985 0 00-.399-.144c-.054-.055-.118-.09-.172-.136a.74.74 0 00-.181-.108 2.513 2.513 0 00-.39-.154l-.2-.063-.19-.081a1.766 1.766 0 01-.353-.217c-.245-.127-.445-.325-.644-.506-.208-.172-.399-.361-.643-.497a4.32 4.32 0 01-.318-.253c-.1-.09-.19-.19-.28-.289-.091-.1-.182-.199-.264-.298a2.602 2.602 0 01-.199-.343.798.798 0 01-.344-.244c-.091-.1-.136-.226-.182-.352-.045-.127-.081-.253-.127-.38-.018-.063-.045-.117-.072-.18a1.024 1.024 0 00-.09-.172c-.046-.262-.173-.479-.282-.705-.108-.226-.217-.451-.29-.695-.1-.226-.118-.48-.154-.723 0-.063-.018-.117-.027-.18 0-.064-.01-.118-.018-.181a1.284 1.284 0 00-.1-.353c-.009-.117-.036-.234-.054-.352-.018-.117-.028-.235-.046-.352-.009-.118-.027-.235-.027-.352a.89.89 0 01.055-.344c-.073-.235-.028-.46.027-.686.054-.226.154-.434.127-.66l.054-.325.082-.316c.063-.208.108-.416.199-.614a.886.886 0 00.326-.542c.019-.1.046-.2.073-.298.027-.1.054-.2.09-.29.182-.352.254-.776.608-1.011.118-.154.263-.28.38-.416.127-.135.236-.28.318-.443.108-.144.299-.216.453-.297.072-.046.154-.09.208-.154A.406.406 0 0046 33.63c.109-.136.272-.199.426-.262.154-.063.3-.136.354-.325.117-.38.525-.316.77-.461.063-.036.127-.072.19-.1.064-.035.127-.053.19-.08.127-.055.254-.109.372-.154a7.801 7.801 0 012.656-.551c.625.018.952.081.952.153 0 .037-.1.082-.29.136-.091.027-.209.045-.345.072-.063.018-.145.027-.217.045-.082.018-.163.045-.245.063a8.642 8.642 0 00-2.819 1.175c-.218.153-.344.424-.662.47-.108.08-.208.198-.308.298-.1.108-.19.217-.344.27-.027.2-.136.29-.245.39-.118.098-.263.17-.372.288-.108.118-.217.235-.317.361-.1.127-.2.262-.254.425-.027.18-.127.316-.235.452a.96.96 0 00-.245.451 1.04 1.04 0 00-.19.208.611.611 0 00-.118.244 1.84 1.84 0 00-.073.551c-.136.145-.163.334-.19.524 0 .09-.018.19-.027.28 0 .1 0 .19-.018.28a.826.826 0 00-.19.56c.008.199.063.398.099.596.01.1.027.2.036.298v.597c.018.099.037.198.064.298 0 .1.018.199.036.307.01.045.018.1.027.153l.046.145c.072.199.126.388.172.596.127.18.226.361.308.551.081.19.163.38.2.605.036.046.063.09.09.136l.09.135c.064.09.118.181.173.271.054.09.1.19.163.28l.19.271c.082.073.154.154.227.244.082.082.145.163.217.244l.209.262c.072.081.163.154.245.226.18.136.308.334.47.497.164.163.336.325.608.325.399.217.789.488 1.233.623l.326.145c.109.045.218.1.327.126.226.055.462.118.697.127.209.153.454.226.698.226.245 0 .49-.054.735-.09.244-.046.48-.073.716-.073.235-.018.47-.045.707-.063.226-.054.453-.127.68-.18.117-.028.226-.073.335-.11l.335-.108c.399-.244.897-.289 1.233-.623.172-.153.362-.28.562-.388.208-.109.39-.244.516-.434.073-.09.145-.172.218-.262a2.94 2.94 0 01.444-.497c.072-.081.154-.153.245-.226.127-.171.317-.316.444-.487.072-.082.136-.172.181-.271a.775.775 0 00.064-.154.994.994 0 00.018-.172c.072-.207.1-.424.145-.632a.726.726 0 01.362-.533c.018-.208.1-.397.19-.596.019-.045.046-.1.064-.145.018-.045.027-.099.036-.144a.876.876 0 000-.307.814.814 0 00.154-.29 1.11 1.11 0 00.01-.306c-.01-.1-.028-.2-.037-.299l-.027-.298c.018-.198.036-.397.045-.587 0-.199-.045-.38-.127-.56a.776.776 0 01-.081-.27c-.027-.091-.036-.182-.045-.272-.028-.18-.018-.38-.1-.542-.136-.144-.145-.325-.163-.515 0-.045 0-.09-.018-.135-.01-.046-.028-.09-.037-.127a.598.598 0 00-.154-.217c-.108-.334-.353-.587-.48-.903-.236-.045-.336-.163-.39-.325-.054-.154-.072-.343-.181-.47-.09-.135-.236-.208-.363-.298a.917.917 0 01-.172-.154.398.398 0 01-.09-.225c-.2 0-.309-.1-.4-.208-.09-.108-.162-.253-.253-.361-.181-.244-.517-.208-.662-.47a.322.322 0 01-.19-.045.636.636 0 01-.154-.118c-.09-.09-.181-.19-.3-.217-.163-.225-.425-.19-.616-.289a1.051 1.051 0 01-.299-.09.96.96 0 01-.272-.135c-.181-.064-.353-.127-.516-.172-.245-.054-.472-.117-.662-.163-.19-.045-.363-.063-.49-.099-.262-.063-.407-.118-.407-.163l.018-.009z"/><path id="Vector_15" d="M55.117 37.308c.073.063.073.207 0 .415-.009.036-.027.072-.036.108 0 .046-.009.1-.045.127-.127-.045.118.217-.064.136-.072 0-.063.072-.072.144 0 .072-.136.036-.082.154.154.198-.29-.082-.09.162.009.09-.046.127-.1.172-.19-.072-.09.1-.109.171-.217-.09-.19.028-.118.181-.29-.144-.299-.054-.127.19-.045.063-.18.045-.126.199-.037.072-.046.171-.136.207.108.199.045.253-.145.208.117.208 0 .217-.154.217-.155-.01.036.262-.164.217-.072.063-.081.171-.163.225-.127.01-.272.019-.172.226-.018.109-.027.235-.181.226.117.226-.028.235-.19.235-.037.1-.227.072-.191.235-.09.054-.054.226-.2.235-.117.036-.244.072-.199.235.055.171-.181.117-.2.225-.235-.063-.072.2-.199.226-.027.045-.081.063-.127.082a.323.323 0 00-.144.216c-.082.163-.19.353-.345.389.027.235-.054.298-.127.298-.081 0-.154-.036-.2.072-.072-.027-.117.036-.162.118-.046.08-.1.19-.145.226-.055.126-.118.108-.173.126-.036-.081-.072-.145-.117-.108-.046-.082-.091-.1-.145-.145-.046-.036-.1-.1-.127-.244-.073.054-.11-.054-.136-.163-.027-.108-.046-.207-.118-.198-.082-.109-.172-.208-.227-.343.046-.163.018-.217-.036-.244-.054-.028-.136-.037-.172-.073-.01-.027-.037-.045-.064-.063-.018 0-.045-.018-.063-.027-.036-.018-.054-.045 0-.127-.027-.072.027-.19-.1-.18-.072-.027.227-.343-.09-.172-.091-.009.145-.262-.082-.162-.209.09-.045-.109-.073-.154-.018-.054-.045-.1-.063-.145-.172-.415-.218-.704-.109-.785.127-.1.435.063.852.415.046.036.227-.036.127.109.036.045.181 0 .136.117.236-.1.109.072.145.136.045.045.027.144.145.144.082-.018.082.027.09.063 0 .018 0 .045.01.064 0 0 .009.009.036 0-.1.117-.036.135.063.036-.036.072-.018.08 0 .063.019-.01.055-.045.055-.036-.045.126-.036.162-.018.153a.543.543 0 00.063-.126c.018-.045.018-.027.018 0s0 .054.019.018c0 .036 0 .027.018.018 0-.036.009-.081.018-.054 0-.172-.018-.208.027-.063-.01-.1.009-.037.027-.055-.036-.099.027-.009.018-.045-.009-.027.028.018.073.027.054-.018.1-.045.036-.162.036-.1.154-.127.19-.235.091-.054.182-.109.19-.235.264.081.21-.1.2-.235.01-.126.109-.18.2-.235a.68.68 0 01.199-.226c0-.126.208-.08.2-.226-.019-.144.208-.08.19-.216 0-.118.036-.217.19-.208.063-.072.3 0 .19-.208.019-.1-.136-.352.19-.198 0-.127.245-.028.182-.19.254.1.118-.127.181-.18.09-.037.209-.037.172-.172-.036-.136.155-.082.173-.163-.064-.154.244 0 .163-.154.072-.036.072-.126.163-.144-.218-.271.09-.109.154-.136.082-.018-.09-.244.145-.126-.154-.217.054-.118.145-.118.1 0-.009-.153.136-.108-.109-.154.145-.018.127-.09.127.036.063-.073.118-.082 0-.063.036-.081.109-.072.036-.018.072-.036.1-.054.199-.1.335-.136.416-.072l.027-.01z"/></g><defs><clipPath id="clip0_1379_121"><path fill="#fff" d="M0 0h61v77H0z"/></clipPath></defs></svg>