<svg width="76" height="77" fill="none" xmlns="http://www.w3.org/2000/svg"><g id="Isolation_Mode" clip-path="url(#clip0_1379_100)" fill="#000"><path id="Vector" d="M53.486 76.128s-.35.098-1.003-.018a5.144 5.144 0 01-1.172-.373 6.067 6.067 0 01-1.432-.9 8.968 8.968 0 01-.975-.96A6.427 6.427 0 0148 72.613a1.442 1.442 0 00-.179-.373 29.28 29.28 0 00-.25-.356c-.17-.24-.322-.499-.34-.819-.162-.578-.403-1.165-.591-1.797-.197-.632-.188-1.326-.394-2.011a1.365 1.365 0 01-.125-.525c0-.178.018-.365.036-.552.018-.186.045-.373.036-.551v-.071s0-.027-.01-.045c0-.027-.008-.044-.017-.071a.243.243 0 00-.08-.107c0-.035-.019-.071-.028-.107 0-.017 0-.035-.009-.053h-.062c-.08.018-.161.018-.242.018h-.465c-.197 0-.394 0-.59-.01-.797-.195-1.611 0-2.453.036-.84-.23-1.7-.133-2.586.027-.886-.32-1.79-.267-2.72.027-.93.009-1.88-.116-2.837.027-.966.017-1.95.08-2.953.026-1.002.214-2.031.205-3.07.018-1.037.231-2.093.142-3.167.018-1.074-.125-2.166.205-3.266.018-1.1-.018-2.228.053-3.356.017-1.136-.097-2.282-.195-3.445.01-1.163.053-2.336.133-3.517.008-1.181.25-2.38.134-3.588 0-1.208.036-2.425-.133-3.66 0-.528-.018-1.056 0-1.593.018h-.394c-.116.018-.322.018-.286.018h-.09c0 .018-.018.027-.035.044 0 0 0 .018-.018.027v.018l-.01.018v.053l-.026.463c-.018.311-.027.623-.036.925 0 .614.009 1.228.08 1.842.036.302.054.614.063.916 0 .294-.018.632 0 .863-.018.258.027.507.063.757l.107.373c.036.125.099.232.152.347.01.063.018.134.045.196s.045.125.072.178c.053.116.098.24.179.347.071.107.152.214.232.32.09.098.188.187.278.285.09.098.197.17.295.258.107.08.197.17.313.24.108.08.215.152.313.232.108.07.215.142.323.222.456.258.912.516 1.413.685.242.098.502.151.761.205.125.027.26.027.394.044.125.01.26.018.394 0h.823c.286 0 .573-.017.859-.017.573 0 1.145.008 1.71.062 1.136-.356 2.254.089 3.355.018 1.11.15 2.192-.027 3.266.017 1.074-.062 2.13.16 3.168.018 1.038.027 2.058-.115 3.07.018 1.001-.178 1.986.151 2.952.027.967 0 1.915-.01 2.837.026.93.276 1.834.045 2.72.027.886.027 1.745-.16 2.586.027.842.018 1.656.142 2.452.035.797-.044 1.566.4 2.309.036.743-.062 1.468.285 2.166.036.697-.223 1.369.026 2.004.035.644.018 1.262.027 1.843.036 2.65.062 4.725.124 6.148.196 1.423.07 2.184.142 2.184.213 0 .08-.94.16-2.676.24-1.736.072-4.287.143-7.499.205-.644.009-1.315.205-2.005.036-.697 0-1.413.15-2.165.035-.743.258-1.521.045-2.309.036-.796.009-1.61-.072-2.452.035-.84.152-1.7-.07-2.586.027-.886-.16-1.79-.116-2.72.027-.93-.152-1.87.035-2.837.026-.966-.24-1.95-.07-2.953.027-1.002.09-2.022-.035-3.07.027-1.037-.045-2.093.062-3.167.018-1.074.106-2.166.15-3.266.017-1.1.08-2.228.018-3.356.018-.564.045-1.136.045-1.71.036-.285 0-.572-.01-.858-.018h-.439l-.483-.018c-.16 0-.322-.018-.483-.044-.161-.027-.322-.045-.474-.09-.314-.088-.627-.168-.922-.293-.609-.213-1.181-.498-1.817-.73-1.145-.676-2.067-1.735-2.675-2.98-.063-.16-.134-.32-.188-.49L.26 71.76c-.063-.347-.135-.685-.135-1.04-.026-.374-.017-.65-.026-.953 0-.302-.018-.614-.036-.916.134-.614.152-1.228.134-1.842a16.038 16.038 0 00-.054-.925l-.035-.463v-.053l-.01-.107v-.214l-.026-.445c0-.338-.018-.676-.027-1.014a85.706 85.706 0 011.53-.018h.922c.537.01 1.065.027 1.593.045 1.226-.027 2.452-.01 3.66 0 1.208-.08 2.407.106 3.588 0 1.19-.107 2.362.115 3.517.009 1.163-.072 2.308-.116 3.445.008 1.136 0 2.255.232 3.356.018 1.1-.053 2.192-.338 3.266.018 1.074-.089 2.13.17 3.168.018 1.038.267 2.058.018 3.069.026 1.002.054 1.987.143 2.953.027.966-.124 1.915.071 2.837.027.921-.151 1.834.196 2.72.027.886.035 1.745-.027 2.586.026.841-.356 1.656 0 2.452.036.197.009.394 0 .59-.009.216-.018.332-.036.708-.053.33-.018.662-.027.975-.01.08 0 .152 0 .224.019.009 0 .009.008.009.017v.223c-.027.169-.045.338-.08.507.035.124.062.267.089.418.009.071.026.151.035.231v.107l.018.063c.027.177.018.355.018.524 0 .178-.018.348-.035.525-.01.17-.018.347-.018.516 0 .686.304 1.282.304 1.922.16.285.215.57.26.872.026.143.044.294.08.436.036.143.08.276.143.41.09.578.43 1.023.644 1.477.287.427.537.827.77 1.219.268.364.555.676.841.952a6.137 6.137 0 002.309 1.405c.6.196.93.24.93.294l-.035.009z"/><path id="Vector_2" d="M60.85 65.318c-.045 0-.098-.668-.143-1.931-.045-1.273-.09-3.15-.134-5.579-.01-.81-.027-1.682-.045-2.607a78.194 78.194 0 01-.045-2.963c.135-1.05-.241-2.153-.036-3.31.063-1.156 0-2.366-.035-3.639-.045-1.263.08-2.59-.036-3.95-.26-1.37.286-2.794-.036-4.262-.072-1.468-.054-2.99-.036-4.547.197-1.566 0-3.177-.035-4.832.232-1.654.134-3.354-.027-5.098.322-1.744.268-3.523-.027-5.347 0-.908.027-1.833.036-2.767 0-.463.009-.935 0-1.406 0-.472-.027-.934-.054-1.433 0-.979.063-1.975.215-2.972a13.17 13.17 0 01.796-2.971 8.015 8.015 0 011.423-2.892c.689-.872 1.62-1.62 2.711-2.029a5.065 5.065 0 012.533-.712v1.7c-1.307.018-2.631-.045-3.973-.116-2.13-.124-4.287.205-6.47.018-2.184-.018-4.403.053-6.649.018-2.246-.098-4.519-.205-6.819.009-2.3.053-4.617.133-6.97.009-2.345.249-4.717.133-7.115 0-2.389.044-4.805-.134-7.24 0a6.157 6.157 0 00-3.131.783c-.94.525-1.727 1.29-2.237 2.188-.25.454-.412.952-.475 1.468-.017.134-.017.25-.026.392v.454c-.018.302-.018.614-.027.916-.01 1.22 0 2.438.071 3.648.152 2.42-.071 4.823 0 7.198-.232 2.376.072 4.734-.009 7.074.018 2.331-.134 4.645-.009 6.931.045 2.287.081 4.547-.017 6.78.358 2.234-.09 4.44-.018 6.611-.152 2.171.018 4.316-.018 6.433.062 2.118-.161 4.19-.018 6.237-.018.988.009 1.967.027 2.937 0 .48.009.97 0 1.45v.56c-.01.054-.027.116-.036.187h.045l.107-.018h.045l.018-.017h.035c.251 0 .493-.01.743 0 .492 0 .985.026 1.468.044.975.045 1.942.09 2.9.036 1.914 0 3.784-.01 5.619.026 1.834.276 3.624.045 5.378.027 1.754.027 3.463-.151 5.127.036 1.665.018 3.285.142 4.86.035.599-.017 1.199.036 1.79.09.142.017.294.026.438.035l.214.018h.108l.134.017c.412.018.796.018 1.208.018 0 .24.027.472.054.712.018.125.027.24.053.374l.018.098s.01.07.018.08l.036.124c.063.712.063 1.424.116 2.118.063.694.18 1.37.484 1.975.295.605.51 1.201.751 1.789.233.578.492 1.148.85 1.637.707.979 1.602 1.744 2.595 2.18a4.841 4.841 0 003.374.222c1.047-.311 1.915-.943 2.586-1.655a8.652 8.652 0 001.513-2.25c.357-.757.608-1.487.787-2.154.358-1.335.465-2.402.546-3.114.071-.721.098-1.095.134-1.095.036 0 .09.463.08 1.362a14.318 14.318 0 01-.125 1.663c-.08.659-.223 1.415-.474 2.252-.25.836-.608 1.753-1.19 2.678-.582.916-1.387 1.85-2.533 2.509a5.638 5.638 0 01-4.143.614 6.295 6.295 0 01-2.13-.97 7.95 7.95 0 01-1.753-1.708c-.403-.534-.797-1.095-1.119-1.7-.322-.614-.582-1.272-.698-1.975-.394-1.353-.76-2.803-.716-4.315l-.027-.134s0-.035-.009-.044v-.027l-.044-.089c-.018-.053-.036-.098-.045-.142-.099.009-.18.017-.26.009-.134 0-.268 0-.402-.01-.144 0-.296-.008-.439-.017-.59-.027-1.181-.062-1.79-.062-1.575.008-3.194-.072-4.859.035-1.664.151-3.373-.071-5.127.027-1.754-.16-3.544-.116-5.378.027-1.835-.152-3.714.035-5.62.026-.957-.115-1.924-.133-2.9-.115-.491.008-.975.035-1.467.062-.25.018-.492.027-.742.035-.43.01-.86.027-1.29.036h-.384c0-.418-.009-.845-.018-1.272v-.89c0-.48 0-.97.01-1.45.008-.97.026-1.949 0-2.937.044-2.046-.063-4.128-.019-6.237-.107-2.109-.152-4.253-.018-6.433-.08-2.17-.018-4.377-.018-6.61-.089-2.234.018-4.494-.008-6.78-.054-2.287.25-4.6 0-6.932-.036-2.331.044-4.689 0-7.074.035-2.375.071-4.778 0-7.198.134-1.21.16-2.429.143-3.648 0-.302-.018-.614-.018-.916l-.018-.463v-.516a5.73 5.73 0 01.501-2.064c.609-1.3 1.673-2.314 2.89-2.954 1.2-.623 2.587-.917 3.92-.89 2.434-.027 4.85-.009 7.24 0 2.389-.08 4.76.107 7.113 0C39.33 0 41.656.223 43.955.116c2.3-.071 4.573-.116 6.82.018 2.245 0 4.455.231 6.648.017 2.192-.053 4.34-.338 6.47.018 1.333-.053 2.657.027 3.973.054V1.62a3.581 3.581 0 00-1.915.471c-.877.258-1.62.899-2.166 1.637-.555.757-.94 1.61-1.27 2.474-.707 1.726-1.056 3.621-.976 5.463.027.454.036.943.036 1.406 0 .471-.009.943-.027 1.406-.027.934-.063 1.85-.045 2.767.153 1.824-.197 3.612-.026 5.347-.036 1.744.026 3.444-.036 5.099.358 1.655 0 3.265-.036 4.831-.054 1.566.233 3.079-.036 4.547.269 1.468.036 2.891-.036 4.262-.08 1.37.117 2.687-.035 3.95.188 1.264-.108 2.483-.036 3.64-.126 1.156 0 2.26-.036 3.31.045 1.05.027 2.037-.045 2.962-.018.934-.027 1.797-.044 2.616-.045 2.43-.09 4.306-.135 5.579-.044 1.272-.098 1.93-.143 1.93h-.009z"/><path id="Vector_3" d="M60.85 12.092c-.045 0-.099-.125-.143-.356a7.28 7.28 0 01-.099-1.023v-.48a1.912 1.912 0 01.01-.552c.151-.178-.198-.427.035-.614a.788.788 0 00.063-.32v-.348c0-.24.17-.453.107-.73-.099-.15 0-.266.098-.382.099-.115.18-.231.063-.4 0-.143.036-.276.072-.418.044-.134.098-.276.152-.41a.631.631 0 00.223-.391c.027-.151.036-.32.08-.463a.753.753 0 00.323-.374c.054-.15.072-.329.08-.507.224-.07.359-.178.44-.329a.58.58 0 00.07-.258 1.796 1.796 0 000-.311c.189-.303.52-.508.654-.881.242-.285.465-.614.814-.819.17-.418.537-.667.994-.712.25-.409.715-.516 1.163-.534.232 0 .42-.106.635-.195.108-.045.215-.08.322-.098a.779.779 0 01.35.018c.447-.027.921-.08 1.377.026.448.17.842.383 1.36.356.457.116.931.285 1.262.65.537.062.868.471 1.11.898.376.312.555.775.948 1.077.251.4.636.73.77 1.21.09.223.152.454.25.667.081.223.206.419.35.614.33.383.26.899.447 1.308-.054.25.027.463.116.668.08.213.188.418.188.64.108.436.018.89.188 1.3.099.426.17.845.099 1.272.044.053.08.098.107.151 0 .018.009.027.018.036 0 .026 0 .053.009.07 0 .054.018.099.018.152.018.196 0 .391-.027.57l-.08.507c-.01.08-.019.16-.027.249v.196h-.063a4.53 4.53 0 00-1.074-.045c-.17.009-.34.018-.51.036h-.313c-.385.062-.76-.16-1.137-.018-.376-.027-.742.116-1.1-.027-.358.178-.716-.151-1.056-.027-.35 0-.69.01-1.02-.026-.332-.276-.663-.045-.976-.027-.313-.027-.626.151-.93-.036-.305-.026-.591-.142-.877-.035-.287.035-.564-.4-.824-.036-.268.063-.528-.284-.778-.035-.25.231-.492-.027-.716-.036a16.301 16.301 0 00-.662-.035c-1.897-.125-2.989-.259-2.98-.41 0-.169 1.342-.311 3.65-.445.234-.009.475-.204.717-.035.25 0 .51-.143.778-.036.269-.258.546-.044.824-.035.286-.01.581.07.877-.036.304-.151.608.071.93-.027.313.16.644.116.976-.026.33.15.67-.036 1.02-.027.349.231.698.071 1.056-.027.358-.089.725.036 1.1-.018.376.045.752-.062 1.137-.017.044-.018.098-.027.143-.036l.072-.018h.035v-.018a.123.123 0 01.027-.035c.01 0 .027.018.134.08-.026-.062-.044-.09-.035-.107v-.036l.009-.008v-.187c-.117-.383-.045-.783-.117-1.175-.09-.382.143-.827-.197-1.183a6.868 6.868 0 01-.125-.587c-.045-.196-.09-.4-.161-.588-.08-.391-.179-.8-.403-1.156.054-.24-.018-.436-.116-.623a2.606 2.606 0 00-.403-.49c-.26-.329-.447-.676-.644-1.023-.26-.311-.501-.605-.77-.89-.16-.106-.286-.249-.42-.39a4.22 4.22 0 00-.206-.197.846.846 0 00-.25-.133c-.188-.054-.323-.178-.475-.285a1.046 1.046 0 00-.232-.151.633.633 0 00-.26-.08c-.358-.063-.689-.107-1.011-.294a1.147 1.147 0 01-.25-.062 2.645 2.645 0 00-.251-.071c-.17-.036-.35-.036-.51.089a.918.918 0 00-.242.098c-.08.035-.152.08-.224.115a.507.507 0 01-.51-.035.556.556 0 01-.223.097l-.242.054a1.24 1.24 0 00-.242.071.477.477 0 00-.197.16.524.524 0 00-.268.027 1.064 1.064 0 00-.206.142c-.062.054-.107.125-.17.187a1.017 1.017 0 01-.17.17c-.286.16-.573.337-.707.64-.107.32-.456.436-.59.72a.4.4 0 01-.099.205.726.726 0 01-.17.16c-.125.098-.233.214-.233.383a1.754 1.754 0 00-.205.383 5.115 5.115 0 01-.197.382c.107.196.053.32-.045.436-.09.107-.241.205-.295.33-.072.124-.054.266-.072.4 0 .133-.036.258-.206.347.188.311-.098.49-.223.712-.126.222 0 .48-.18.676.072.124.028.231-.035.329-.054.098-.125.196-.108.302-.152.187-.062.392-.116.579.018.187-.018.365-.09.525-.026.16-.053.32-.08.462-.063.427-.125.766-.17.997-.053.231-.098.347-.152.347l.045.009z"/><path id="Vector_4" d="M21.459 12.101c0-.098.376-.196 1.065-.276.116-.018.241-.026.367-.044.134-.027.268-.054.42-.045.143.134.305-.24.466-.035.16.053.33 0 .51-.036.179-.044.367.08.555-.036.196-.258.393.276.6-.035.205-.071.42-.054.643-.036.224.196.448 0 .68-.035.233.231.475.133.716-.027.242.32.502.267.752-.027.26-.009.519.116.787-.026.269-.018.546-.08.824-.027.277-.214.563-.205.85-.027.286-.231.582-.142.886-.018.295.125.6-.204.913-.017.304.017.617-.054.93-.018.313.098.636.195.958-.01.322-.053.653-.133.975-.008.331-.25.662-.133 1.002 0 .34-.036.672.133 1.02 0 .34.036.69-.107 1.038 0 .35.071.69.142 1.03 0 .34-.16.68.062 1.02 0 .34.231.67-.071 1.002 0 .331-.027.653.133.975.009.323-.045.645-.09.958.009.313-.356.626.089.93.018.305.15.609-.018.904.017.296-.07.59.16.886.018.286.027.573-.115.85.027.278-.178.555.151.824.027.268 0 .527-.01.787.026.26.276.51.045.752.027.241.027.483-.16.716.027.232.026.456.142.68.035.223-.044.438.4.644.036.206-.063.412.285.6.035.196-.23.375.027.554.036.18.018.35.027.51.036 1.468.115 2.318.258 2.318.409 0 .169-1.038.32-2.828.445-.179.018-.367.204-.554.035-.197 0-.394.152-.6.036-.206.258-.42.044-.644.036-.224.008-.448-.072-.68.035-.233.151-.475-.071-.716.027-.25-.16-.501-.116-.752.027-.26-.152-.519.035-.787.026-.269-.231-.546-.071-.824.027-.277.089-.563-.036-.85.018-.286-.045-.582.062-.886.018-.295.106-.6.15-.904.017-.304.08-.617.018-.93.018-.313.09-.636-.009-.958.009-.322.044-.653-.25-.975.009-.331.035-.662-.045-1.002 0-.34-.036-.671-.071-1.02 0-.34-.258-.69-.098-1.03 0-.348.071-.689.035-1.038 0-.34.027-.68.009-1.02 0-.33.071-.67-.107-1.002 0-.331.107-.653-.116-.975-.009-.322.071-.645.116-.958-.009-.313 0-.626-.231-.93-.018-.305.054-.609.338-.913-.018-.295.09-.59-.169-.886-.017-.287-.267-.573-.018-.85-.018-.278-.053-.555-.143-.824-.027-.268.125-.527-.071-.787-.026-.26.15-.51-.196-.752-.027-.241-.036-.483.027-.716-.027-.232.356-.456 0-.68-.035-.223-.054-.438.23-.644-.036-.206.267-.412.036-.6-.036-.196-.08-.375.116-.554-.035-.18.187-.35-.107-.51-.036-.161-.124-.323 0-.466-.035a.532.532 0 01-.42-.045c-.134-.018-.25-.027-.367-.044-.69-.09-1.065-.178-1.065-.285v-.01z"/><path id="Vector_5" d="M21.459 20.331c0-.098.376-.196 1.065-.276.116-.018.241-.026.367-.044.134-.027.268-.054.42-.045.143.134.305-.24.466-.044.16.053.33 0 .51-.036.179-.044.367.08.555-.035.196-.258.393.284.6-.036.205-.071.42-.053.643-.036.224.196.448 0 .68-.035.233.231.475.133.716-.027.242.32.502.267.752-.027.26-.009.519.116.787-.026.269-.018.546-.08.824-.027.277-.214.563-.205.85-.018.286-.231.582-.142.886-.018.295.125.6-.204.913-.017.304.017.617-.054.93-.018.313.098.636.204.958-.01.322-.053.653-.133.975-.008.331-.25.662-.133 1.002 0 .34-.044.672.133 1.02 0 .34.036.69-.107 1.038 0 .35.071.69.142 1.03 0 .34-.16.68.062 1.02 0 .34.231.67-.071 1.002 0 .331-.027.653.133.975.009.323-.045.645-.09.958.009.313-.356.626.089.93.018.305.15.609-.027.904.017.296-.07.59.16.886.018.286.027.573-.116.85.018.278-.178.555.151.824.027.268 0 .527-.01.787.026.26.276.51.045.752.027.241.027.483-.16.716.027.232.026.456.142.68.035.223-.044.438.4.644.036.206-.062.412.285.6.035.196-.222.375.027.554.036.18.018.35.027.51.036 1.468.115 2.318.258 2.318.409 0 .169-1.038.32-2.828.445-.179.009-.367.204-.554.035-.197 0-.394.152-.6.036-.206.258-.42.044-.644.036-.224.009-.448-.072-.68.035-.233.152-.475-.071-.716.027-.25-.16-.501-.116-.752.027-.26-.152-.519.035-.787.026-.269-.231-.546-.07-.824.027-.277.089-.563-.036-.85.027-.286-.045-.582.062-.886.018-.295.106-.6.15-.904.017-.304.08-.617.018-.93.018-.313.098-.636-.009-.958.009-.322.053-.653-.25-.975.009-.331.035-.662-.045-1.002 0-.34-.036-.671-.071-1.02 0-.34-.258-.69-.098-1.03 0-.348.071-.689.035-1.038 0-.34.027-.68.009-1.02 0-.33.08-.67-.107-1.002 0-.331.107-.653-.116-.975-.009-.322.071-.645.116-.958-.009-.313 0-.626-.231-.93-.018-.305.054-.609.338-.913-.017-.295.088-.59-.17-.886-.018-.287-.267-.573-.018-.85-.027-.278-.053-.555-.142-.824-.027-.268.125-.527-.07-.787-.026-.26.15-.51-.196-.752-.027-.241-.036-.483.027-.716-.027-.232.356-.456 0-.68-.035-.223-.054-.438.231-.644-.036-.206.267-.412.036-.6-.036-.196-.08-.375.116-.554-.035-.18.187-.35-.107-.51-.036-.161-.124-.323 0-.466-.044a.532.532 0 01-.42-.045c-.134-.017-.25-.026-.367-.044-.69-.09-1.065-.178-1.065-.285v.009z"/><path id="Vector_6" d="M21.459 28.588c0-.098.376-.196 1.065-.276.116-.018.241-.027.367-.045.134-.026.268-.053.42-.044.143.134.305-.24.466-.036.16.054.33 0 .51-.035.179-.045.367.08.555-.036.196-.258.393.285.6-.035.205-.072.42-.054.643-.036.224.196.448 0 .68-.036.233.232.475.134.716-.026.242.32.502.267.752-.027.26-.009.519.116.787-.027.269-.017.546-.08.824-.026.277-.214.563-.205.85-.027.286-.231.582-.142.886-.018.295.125.6-.204.913-.018.304.018.617-.053.93-.017.313.098.636.195.958-.01.322-.053.653-.133.975-.008.331-.25.662-.134 1.002 0 .34-.045.672.133 1.02 0 .34.035.69-.107 1.038 0 .35.071.69.142 1.03 0 .34-.16.68.062 1.02 0 .34.231.67-.071 1.002 0 .331-.027.653.133.975.009.323-.045.645-.09.958.009.313-.356.626.089.93.017.305.152.609-.017.904.018.296-.062.59.16.886.018.286.027.573-.116.85.027.278-.178.555.151.824.026.268 0 .527-.008.787.027.26.276.51.045.752.027.241.026.483-.16.716.026.232.027.456.143.68.036.223-.044.438.4.644.036.206-.063.412.284.6.035.196-.231.375.027.554.036.18.018.35.026.51.035 1.468.116 2.318.258 2.318.41 0 .169-1.038.32-2.828.445-.179.017-.367.204-.554.035-.197 0-.394.151-.6.036-.206.258-.42.044-.644.035-.224.01-.448-.07-.68.036-.233.151-.475-.071-.716.027-.25-.16-.501-.116-.752.026-.26-.15-.519.036-.787.027-.269-.231-.546-.071-.824.027-.277.089-.563-.036-.85.017-.286-.044-.582.063-.886.018-.295.107-.6.152-.904.018-.304.08-.617.018-.93.018-.313.089-.636-.009-.958.009-.322.053-.653-.25-.975.009-.331.035-.662-.045-1.002 0-.34-.036-.671-.072-1.02 0-.34-.258-.69-.098-1.03 0-.348.07-.689.035-1.038 0-.34.026-.68.009-1.02 0-.33.08-.67-.107-1.002 0-.331.107-.653-.116-.975-.01-.322.072-.645.116-.958-.008-.313 0-.626-.231-.93-.018-.305.053-.609.338-.913-.018-.295.09-.59-.169-.886-.018-.287-.266-.573-.017-.85-.017-.278-.054-.555-.143-.824-.027-.268.125-.527-.071-.787-.027-.26.152-.51-.195-.752-.026-.241-.036-.483.026-.716-.027-.232.356-.456 0-.68-.036-.223-.053-.438.232-.644-.035-.206.267-.412.035-.6-.036-.196-.08-.375.116-.554-.035-.18.186-.35-.107-.51-.036-.161-.125-.323 0-.466-.036a.532.532 0 01-.42-.044c-.134-.018-.25-.027-.367-.045-.69-.088-1.065-.178-1.065-.275v-.018z"/><path id="Vector_7" d="M21.459 36.827c0-.098.376-.196 1.065-.276.116-.017.241-.026.367-.044.134-.027.268-.053.42-.045.143.134.305-.24.466-.044.16.053.33 0 .51-.036.179-.044.367.08.555-.035.196-.258.393.284.6-.036.205-.071.42-.053.643-.035.224.195.448 0 .68-.036.233.231.475.133.716-.027.242.32.502.276.752-.026.26-.01.519.115.787-.027.269-.018.546-.08.824-.027.277-.213.563-.205.85-.027.286-.23.582-.142.886-.017.295.124.6-.205.913-.018.304.018.617-.053.93-.018.313.098.636.196.958-.009.322-.053.653-.133.975-.009.331-.249.662-.133 1.002 0 .34-.035.672.134 1.02 0 .34.036.69-.106 1.038 0 .35.072.69.143 1.03 0 .34-.16.68.063 1.02 0 .34.232.67-.07 1.002 0 .331-.017.653.134.975.01.323-.045.645-.09.958.008.313-.356.626.09.93.018.305.151.609-.018.904.018.296-.063.59.16.886.017.286.027.573-.115.85.027.278-.178.555.151.824.027.268 0 .527-.009.787.027.26.275.51.044.752.026.241.027.483-.16.716.027.232.027.456.142.68.035.223-.044.438.4.644.036.206-.062.412.285.6.036.196-.232.375.026.554.035.18.018.35.027.51.036 1.468.116 2.318.258 2.318.41 0 .168-1.038.32-2.828.444-.179.018-.367.205-.554.036-.197 0-.394.15-.6.035-.206.258-.42.045-.644.036-.224.009-.448-.071-.68.035-.233.152-.475-.07-.716.027-.25-.16-.501-.116-.752.027-.26-.152-.519.035-.787.026-.269-.23-.546-.07-.824.027-.277.09-.563-.035-.85.018-.286-.044-.582.062-.886.018-.295.115-.6.151-.904.018-.304.08-.617.017-.93.017-.313.09-.636-.008-.958.01-.322.044-.653-.25-.975.008-.331.036-.662-.044-1.002 0-.34-.035-.671-.071-1.02 0-.34-.258-.69-.098-1.03 0-.348.071-.689.036-1.038 0-.34.027-.68.01-1.02 0-.33.071-.67-.107-1.002 0-.331.107-.653-.115-.975-.009-.322.071-.645.116-.958-.009-.313 0-.626-.231-.93-.017-.305.053-.609.338-.913-.018-.295.089-.59-.17-.886-.018-.287-.267-.573-.018-.85-.018-.278-.053-.555-.142-.824-.026-.268.124-.527-.072-.787-.027-.26.151-.51-.196-.752-.027-.241-.035-.483.027-.716-.027-.232.356-.456 0-.68-.035-.223-.054-.438.231-.644-.036-.206.267-.412.036-.6-.035-.196-.08-.375.115-.554-.036-.18.187-.35-.107-.51-.035-.161-.125-.323 0-.466-.036a.532.532 0 01-.42-.045c-.134-.017-.25-.026-.367-.044-.69-.09-1.065-.187-1.065-.285z"/><path id="Vector_8" d="M21.459 45.075c0-.098.376-.195 1.065-.284.116-.018.241-.027.367-.045.134-.027.268-.053.42-.044.143.133.305-.24.466-.045.16.062.33 0 .51-.035.179-.045.367.08.555-.036.196-.258.393.285.6-.036.205-.07.42-.053.643-.035.224.196.448 0 .68-.036.233.232.475.134.716-.026.242.32.502.275.752-.027.26-.01.519.115.787-.027.269-.018.546-.08.824-.027.277-.213.563-.204.85-.026.286-.232.582-.143.886-.018.295.124.6-.205.913-.018.304.018.617-.053.93-.018.313.098.636.205.958-.009.322-.053.653-.133.975-.008.331-.25.662-.134 1.002 0 .34-.045.672.133 1.02 0 .34.035.69-.107 1.038 0 .35.07.69.142 1.03 0 .34-.16.68.062 1.02 0 .34.23.67-.072 1.002 0 .331-.027.653.133.975.008.323-.044.645-.089.958.01.313-.357.626.088.93.017.305.151.609-.018.904.018.296-.062.59.16.886.018.286.026.573-.116.85.026.278-.178.555.152.824.027.268 0 .527-.009.787.027.26.276.51.044.752.026.241.027.483-.16.716.027.232.027.456.143.68.036.223-.036.438.4.644.035.206-.062.412.285.6.036.196-.231.375.027.554.036.18.017.35.026.51.035 1.468.116 2.318.258 2.318.41 0 .169-1.038.32-2.828.444-.179.01-.367.205-.554.036-.197 0-.394.142-.6.036-.206.258-.42.044-.644.035-.224.009-.448-.071-.68.036-.233.15-.475-.072-.716.026-.25-.16-.501-.115-.752.027-.26-.151-.519.036-.787.027-.269-.24-.546-.071-.824.026-.277.09-.563-.035-.85.018-.286-.044-.582.063-.886.018-.295.107-.6.151-.904.018-.304.08-.617.018-.93.018-.313.089-.636-.01-.958.008-.322.054-.653-.249-.975.01-.331.035-.662-.045-1.002 0-.34-.036-.671-.072-1.02 0-.34-.259-.69-.098-1.03 0-.348.07-.689.035-1.038 0-.34.026-.68.008-1.02 0-.33.07-.67-.107-1.002 0-.331.106-.653-.116-.975-.01-.322.072-.645.116-.958-.008-.313 0-.626-.232-.93-.018-.305.053-.609.338-.913-.018-.295.089-.59-.169-.886-.018-.287-.258-.573-.017-.85-.017-.278-.054-.555-.143-.824-.027-.268.124-.527-.071-.787-.027-.26.151-.51-.196-.752-.027-.241-.035-.483.027-.716-.026-.232.356-.456 0-.68-.036-.223-.053-.438.231-.644-.035-.206.266-.412.035-.6-.036-.196-.08-.375.116-.554-.036-.18.187-.35-.107-.51-.035-.161-.125-.323 0-.466-.045a.532.532 0 01-.42-.044c-.134-.018-.25-.027-.367-.045-.69-.089-1.065-.187-1.065-.285v.018z"/><path id="Vector_9" d="M21.459 53.315c0-.098.376-.196 1.065-.276.116-.018.241-.027.367-.045.134-.026.268-.053.42-.044.143.133.305-.24.466-.036.16.054.33 0 .51-.035.179-.045.367.08.555-.036.196-.258.393.285.6-.035.205-.072.42-.054.643-.036.224.196.448 0 .68-.036.233.232.475.134.716-.026.242.32.502.276.752-.027.26-.009.519.116.787-.027.269-.017.546-.08.824-.026.277-.214.563-.205.85-.018.286-.232.582-.143.886-.018.295.125.6-.205.913-.018.304.018.617-.053.93-.017.313.097.636.195.958-.01.322-.053.653-.133.975-.008.331-.25.662-.134 1.002 0 .34-.036.672.133 1.02 0 .34.035.69-.107 1.038 0 .35.07.69.142 1.03 0 .34-.16.68.062 1.02 0 .34.231.67-.08 1.002 0 .331-.018.653.133.975.009.323-.045.645-.09.958.009.313-.356.626.088.93.017.305.151.609-.017.904.018.296-.062.59.16.886.018.286.026.573-.116.85.018.278-.178.555.15.824.026.268 0 .527-.009.787.027.26.276.51.044.752.027.241.026.483-.16.716.026.232.027.456.143.68.036.223-.044.438.4.644.036.206-.063.412.284.6.035.196-.231.375.027.554.036.18.018.35.027.51.035 1.468.116 2.318.258 2.318.41 0 .169-1.038.32-2.828.445-.179.008-.367.204-.554.035-.197 0-.394.151-.6.036-.206.258-.42.044-.644.035-.224.01-.448-.07-.68.036-.233.151-.475-.071-.716.027-.25-.16-.501-.116-.752.026-.26-.151-.519.036-.787.027-.269-.24-.546-.071-.824.027-.277.089-.563-.036-.85.017-.286-.044-.582.063-.886.018-.295.107-.6.152-.904.018-.304.08-.617.018-.93.018-.313.089-.636-.01-.958.009-.322.044-.653-.25-.975.009-.331.035-.662-.045-1.002 0-.34-.036-.671-.072-1.02 0-.34-.258-.69-.098-1.03 0-.348.07-.689.035-1.038 0-.34.026-.68.008-1.02 0-.33.07-.67-.107-1.002 0-.331.106-.653-.116-.975-.01-.322.072-.645.116-.958-.008-.313 0-.626-.231-.93-.018-.305.053-.609.338-.913-.018-.295.09-.59-.178-.886-.017-.287-.259-.573-.01-.85-.018-.278-.054-.555-.143-.824-.027-.268.124-.527-.071-.787-.027-.26.151-.51-.195-.752-.026-.241-.036-.483.026-.716-.027-.232.356-.456 0-.68-.036-.223-.053-.438.232-.644-.035-.206.267-.412.035-.6-.036-.196-.08-.375.116-.554-.035-.18.186-.35-.107-.51-.036-.161-.125-.323 0-.466-.036a.532.532 0 01-.42-.044c-.134-.018-.25-.027-.367-.045-.69-.089-1.065-.178-1.065-.284v-.01z"/><path id="Vector_10" d="M21.459 61.563c0-.098.376-.196 1.065-.276.116-.018.241-.027.367-.045.134-.026.268-.053.42-.044.143.133.305-.24.466-.045.16.054.33 0 .51-.035.179-.045.367.08.555-.036.196-.258.393.285.6-.035.205-.072.42-.054.643-.036.224.196.448 0 .68-.036.233.232.475.134.716-.026.242.32.502.275.752-.027.26-.009.519.116.787-.027.269-.018.546-.08.824-.027.277-.213.563-.204.85-.026.286-.231.582-.142.886-.018.295.125.6-.205.913-.018.304.018.617-.053.93-.018.313.098.636.196.958-.008.322-.054.653-.134.975-.01.331-.248.662-.133 1.002 0 .34-.044.672.134 1.02 0 .34.036.69-.106 1.038 0 .35.072.69.143 1.03 0 .34-.16.68.063 1.02 0 .34.232.67-.07 1.002 0 .331-.026.653.134.975.01.323-.045.645-.09.958.008.313-.355.626.09.93.018.305.152.609-.018.904.018.296-.062.59.16.886.018.286.026.573-.116.85.026.278-.177.555.152.824.027.268 0 .527-.009.787.027.26.276.51.044.752.027.241.026.483-.16.716.026.232.027.456.143.68.036.223-.045.438.4.644.035.206-.062.412.285.6.036.196-.231.375.027.554.036.18.017.35.026.51.035 1.468.116 2.318.258 2.318.41 0 .169-1.038.32-2.828.444-.179.01-.367.205-.554.036-.197 0-.394.151-.6.036-.206.258-.42.044-.644.035-.224.01-.448-.071-.68.036-.233.151-.475-.071-.716.035-.25-.16-.501-.115-.752.027-.26-.151-.519.036-.787.027-.269-.24-.546-.071-.824.026-.277.09-.563-.035-.85.018-.286-.044-.582.063-.886.018-.295.107-.6.151-.904.018-.304.08-.617.018-.93.018-.313.089-.636-.01-.958.008-.322.054-.653-.249-.975.01-.331.035-.662-.045-1.002 0-.34-.036-.671-.072-1.02 0-.34-.259-.69-.098-1.03 0-.348.07-.689.035-1.038 0-.34.026-.68.008-1.02 0-.33.08-.67-.107-1.002 0-.331.106-.653-.116-.975-.01-.322.072-.645.116-.958-.008-.313 0-.626-.232-.93-.018-.305.053-.609.338-.913-.018-.295.089-.59-.169-.886-.018-.287-.258-.573-.009-.85-.018-.278-.053-.555-.142-.824-.026-.268.124-.527-.071-.787-.027-.26.151-.51-.196-.752-.027-.241-.035-.483.027-.716-.035-.232.356-.456 0-.68-.036-.223-.053-.438.232-.644-.035-.206.267-.412.035-.6-.036-.196-.08-.375.116-.554-.036-.18.187-.35-.106-.51-.035-.161-.125-.323 0-.466-.045a.532.532 0 01-.42-.044c-.134-.018-.25-.027-.367-.045-.69-.089-1.065-.187-1.065-.284v.008z"/></g><defs><clipPath id="clip0_1379_100"><path fill="#fff" d="M0 0h76v77H0z"/></clipPath></defs></svg>