<svg width="72" height="86" fill="none" xmlns="http://www.w3.org/2000/svg"><g id="Isolation_Mode" clip-path="url(#clip0_1379_80)" fill="#000"><path id="Vector" d="M7.1 69.26c.1-.06.84 1 2.29 2.84.25.31.51.63.79.98.3.34.61.7.91 1.1.2.49.86.64 1.04 1.21.31.47.73.88 1.18 1.3.44.42.77.99 1.32 1.37.66.27.71 1.18 1.47 1.41.56.43 1.09.93 1.65 1.41.44.64 1.18.94 1.85 1.34.5.65 1.28.97 2.07 1.13.57.65 1.47.87 2.28.61.39.03.78.05 1.16 0 .38-.05.76-.18 1.07-.43l.25-.15.27-.18c.18-.13.35-.26.53-.39.35-.27.7-.55 1.04-.84.48-.78 1.03-1.41 1.41-2.02-.02-.18-.05-.33-.08-.45a2.44 2.44 0 00-.14-.34c0-.02 0-.02-.02-.05l-.05-.08-.09-.17c-.06-.11-.12-.23-.17-.34-.11-.23-.22-.47-.32-.7-.41-.95-1.26-1.65-1.63-2.67-.27-.46-.55-.9-.84-1.36-.14-.22-.28-.44-.41-.66-.09-.15-.21-.28-.34-.39-.21-.22-.51-.39-.85-.44-.17-.02-.34-.01-.5.04-.08.03-.16.05-.23.1-.04.02-.08.04-.11.07l-.05.04h-.01s0 .01-.02.02l-.08.05c-.16.08-.32.17-.49.25-.59.21-1.2.35-1.82.41-.62.06-1.25.03-1.86-.11-.64.06-1.28-.04-1.88-.24-.61-.2-1.17-.53-1.69-.9a6.014 6.014 0 01-1.18-.78l-.18-.15-.18-.16-.35-.31c-.11-.11-.23-.21-.35-.32-.24-.2-.46-.43-.71-.62-.2-.24-.41-.47-.62-.71-.19-.24-.41-.47-.6-.73-.38-.49-.74-1.02-1-1.58-.56-1.1-1.04-2.22-1.65-3.3-.31-.54-.5-1.14-.62-1.76a23 23 0 01-.29-1.88c.08-.65.07-1.28.13-1.93.06-.64.2-1.31.55-1.88.28-.6.71-1.11 1.16-1.55.46-.44.95-.82 1.41-1.21.12-.09.25-.17.37-.26.08-.06.14-.11.21-.17.12-.12.23-.26.31-.41.17-.3.24-.64.25-.99-.12-.16-.22-.29-.3-.42l-.08-.13c-.03-.06-.06-.12-.1-.18l-.18-.36c-.22-.49-.41-1-.72-1.43-.4-.99-1.11-1.78-1.6-2.68-.15-.21-.28-.43-.4-.65l-.18-.34-.16-.32a.744.744 0 00-.28-.33.866.866 0 00-.47-.13c-.34-.09-.77-.06-1.18.02-.42.07-.84.18-1.29.25-.39.23-.82.35-1.24.49-.21.07-.42.15-.61.24-.1.05-.19.1-.28.15-.09.06-.16.12-.23.19-.64.44-1.09 1.06-1.43 1.77-.29.3-.42.7-.48 1.1-.05.4-.04.81-.05 1.2-.09.8.16 1.57.03 2.36.05.77.05 1.55.33 2.26.19.71-.11 1.55.48 2.12.26.65.09 1.42.56 1.96.45.54.39 1.23.6 1.8.2.58.4 1.12.6 1.65.9 2.35 1.72 4.16 2.28 5.39.56 1.23.88 1.89.81 1.93-.08.05-.63-.67-1.48-2.12-.84-1.45-1.98-3.62-3.16-6.49-.23-.57-.66-1.11-.69-1.81-.21-.64-.58-1.26-.66-1.99-.47-.62-.43-1.42-.58-2.18-.17-.76-.22-1.56-.42-2.38-.1-.38-.1-.81-.1-1.24.01-.43.05-.87.02-1.32.24-.89.34-1.78.57-2.77.27-.43.51-.87.8-1.3.29-.43.65-.84 1.1-1.15.13-.05.26-.1.38-.15.12-.05.23-.1.35-.15.23-.1.45-.21.67-.33.44-.23.88-.49 1.35-.7.48-.2 1-.33 1.55-.39s1.13-.07 1.77.04c.31.08.64.21.94.4.31.19.59.46.79.76l.12.18.1.16.2.32c.13.22.27.44.39.66.64.81 1.22 1.68 1.63 2.66.31.43.59.88.86 1.35l.2.35.1.18.05.09.07.12c.17.33.29.68.35 1.05.17.73.03 1.52-.36 2.17-.19.32-.45.62-.74.86-.14.12-.31.23-.46.33a8.9 8.9 0 00-.32.21c-.4.3-.83.55-1.2.88-.37.32-.67.73-.76 1.22-.2.43-.35.88-.44 1.36-.09.48-.11.99-.04 1.5.05 1.03.31 2.11.8 3.11.15 1.15.85 2.11 1.53 3.04.65.94 1.26 1.87 1.98 2.7.77.77 1.59 1.47 2.5 1.99.48.21.93.45 1.42.63.48.18.98.32 1.5.32.51 0 1.01.04 1.51.04s1.02-.06 1.46-.26l.17-.07.08-.03H23l.03-.02.11-.06c.07-.04.15-.07.23-.11.15-.07.31-.12.47-.17.33-.09.67-.11 1-.09.67.05 1.31.32 1.79.77.3.22.54.51.72.83.02.04.05.08.06.11l.05.09.09.18.18.36c.25.48.52.93.9 1.32.59.88 1.41 1.6 1.6 2.68.15.21.29.43.41.65.06.11.12.23.18.34l.09.17.1.2c.16.32.25.68.28 1.03.03.35 0 .7-.04 1.02-.16.3-.31.55-.46.8-.15.25-.29.48-.45.71-.3.46-.62.89-1 1.24-.4.33-.81.62-1.22.9-.42.29-.83.58-1.25.86-.45.31-.99.47-1.51.53-.53.06-1.04.03-1.54 0-.51.04-.98-.12-1.42-.3-.44-.18-.84-.39-1.29-.49-.8-.4-1.58-.78-2.24-1.3-.46-.07-.8-.31-1.09-.6-.29-.29-.53-.62-.82-.88-.56-.54-1.34-.8-1.66-1.52-.74-.28-1.05-.97-1.46-1.51-.4-.55-1-.88-1.28-1.46-.57-.33-.71-.99-1.13-1.38-.25-.53-.7-.86-.98-1.29-.35-.37-.64-.77-.85-1.17-.26-.37-.5-.72-.72-1.05C7.57 70.5 7 69.32 7.1 69.27v-.01z"/><path id="Vector_2" d="M21.8 72.31c.09-.06.36.17.76.64.07.08.14.16.21.25.08.08.18.17.23.29-.06.19.37.09.25.33.02.16.15.26.27.37.13.11.09.33.29.4.33 0-.09.46.31.44.16.12.24.29.33.47-.08.28.2.34.34.5-.12.31.09.44.36.53-.2.37-.03.54.37.56.13.19.13.46.39.58.14.19.33.36.4.61.33.09.46.31.41.63.35.09.4.36.42.66.01.3.47.34.43.68.13.24.33.44.44.7.03.15.05.3.11.42.03.06.07.13.12.17.03 0 .07 0 .12-.03.04 0 .07-.02.08-.02.01 0 0 .02 0 .13.05-.18.05-.26.05-.23 0 .02 0 .11.04.17 0-.04.04-.01.07-.01h.02l.02-.02a.31.31 0 00.09-.19c.22-.18.24-.48.48-.62.21-.16.4-.36.32-.62-.06-.13 0-.21.03-.29.05-.08.09-.17.06-.25.11-.09.09-.18.02-.24-.05-.07-.16-.1-.15-.2-.17-.23-.17-.57-.44-.75-.19-.22-.38-.44-.43-.73-.48-.03-.2-.53-.41-.72 0-.32-.3-.45-.4-.7-.2-.19-.11-.54-.39-.68-.1-.24-.37-.37-.37-.66-.3-.11-.11-.51-.35-.64-.12-.21-.25-.4-.33-.61.07-.18.03-.28-.06-.36-.04-.04-.09-.07-.14-.11-.02-.02-.05-.04-.07-.06-.02-.01-.04-.03-.05-.04a.218.218 0 00-.07-.09c-.03-.02-.07-.04-.1-.06-.06-.05-.11-.09-.09-.22-.09-.11-.15-.33-.35-.28-.07-.02-.09-.14-.14-.23-.05-.09-.13-.13-.24.05-.08.02-.13-.07-.19-.13s-.14-.1-.21.04c-.07.13-.13.12-.19.08-.06-.04-.14-.11-.2-.1-.06 0-.13 0-.19.02-.06.01-.12.02-.18.04-.12.03-.22.07-.33.11l-.2.06h.01-.07c-.07.02-.13.03-.19.05-.12.03-.24.03-.34.04-.11 0-.2.02-.29.02-.09 0-.17 0-.25-.01-.29-.02-.45-.07-.46-.14 0-.07.13-.17.38-.28.06-.03.13-.06.21-.09.08-.04.16-.07.25-.11.09-.04.19-.07.29-.13.05-.02.1-.05.15-.07l.04-.02h.02l.05-.03c.06-.03.13-.05.2-.06l-.22.06c.25-.18.56-.35.93-.44.09-.03.18-.09.28-.14.1-.05.21-.05.31.05.1 0 .21-.03.33-.04.11-.01.23 0 .33.09.14-.11.27-.09.38-.02.11.07.2.17.3.24.23.1.38.32.65.4.15.03.24.14.31.27.04.06.07.12.11.18a.7.7 0 00.14.16c0 .04 0 .08.01.12 0 .03 0 .06.01.09.01.06.04.11.07.15.07.09.17.16.3.22-.03.28.27.38.39.58-.1.34.18.45.4.61.21.16.22.45.41.63.09.25.32.41.42.66.24.16.42.37.43.68.21.19.3.46.44.7.23.18.28.49.45.72.2.22.06.64.46.74.25.36.31.81.4 1.24-.02.45-.13.84-.18 1.25-.21.13-.3.29-.36.46-.06.18-.09.36-.14.55-.13.35-.38.61-.64.83-.05.07-.1.14-.16.2l-.02.02-.04.04-.08.08-.15.15c-.21.2-.42.37-.62.54-.2.22-.41.36-.61.5-.1.07-.2.14-.3.22l-.04.03s-.02-.02-.03-.04c-.02-.03-.04-.05-.06-.07-.04-.05-.07-.09-.11-.13-.16-.14-.3-.42-.42-.68-.12-.26-.23-.49-.42-.67-.08-.09-.17-.2-.25-.3-.06-.06-.09-.11-.13-.17a.805.805 0 01-.14-.41c-.14-.24-.06-.61-.41-.72-.19-.2-.61-.26-.4-.7-.22-.17-.11-.55-.38-.68.12-.37-.25-.44-.37-.66-.08-.24-.12-.5-.35-.64-.24-.13-.18-.44-.34-.61-.26-.11-.04-.5-.32-.59-.08-.21-.24-.36-.3-.56-.45.03-.21-.35-.28-.54-.05-.2-.42-.19-.26-.51-.35 0-.22-.29-.24-.48-.01-.19-.28-.22-.22-.45-.26-.03-.06-.33-.2-.41.04-.2-.14-.25-.18-.38a.379.379 0 01-.15-.34c-.05-.11-.09-.21-.13-.3-.23-.57-.31-.91-.22-.97l.04-.02z"/><path id="Vector_3" d="M4.8 44.18c.09-.06.35.17.75.63.06.08.13.16.21.25.08.08.17.17.23.29-.06.19.37.09.25.33.02.16.15.25.27.36.12.11.08.32.29.4.33 0-.09.46.31.43.16.11.24.29.32.46-.09.28.2.34.34.49-.12.31.09.43.35.52-.2.37-.04.53.37.55.13.19.13.45.38.57.14.19.32.36.39.6.33.08.45.3.41.62.35.08.4.35.42.65.01.3.47.33.43.67.13.24.33.43.44.69.03.15.05.29.11.42.02.03.03.06.05.09 0 .01.02.03.03.04h.02c.03 0 .07 0 .12-.04.04 0 .07-.02.08-.03.01 0 0 .02 0 .14.06-.2.05-.25.05-.23 0 .02.01.09.05.15 0-.02 0-.02.02-.01l.03-.01.06-.02.11-.05a.72.72 0 00.21-.12c.02-.01.03-.03.05-.04 0 0 .02-.02.02-.03.01-.02.03-.05.03-.07.05-.01.08-.05.11-.09.04-.03.06-.08.08-.12.03-.04.05-.08.08-.11s.07-.06.12-.09c.17-.11.34-.3.22-.52-.07-.11-.04-.19 0-.28.04-.09.07-.19.03-.28.05-.06.07-.11.07-.16a.33.33 0 00-.07-.13c-.04-.04-.08-.07-.11-.11-.03-.04-.06-.07-.06-.12 0 0-.01-.02-.02-.03l-.03-.05s-.03-.07-.05-.1c-.03-.07-.05-.14-.08-.2-.06-.13-.12-.26-.25-.34-.19-.22-.37-.43-.42-.72-.48-.03-.2-.52-.41-.71 0-.32-.3-.44-.39-.69-.2-.19-.11-.54-.38-.67-.1-.23-.37-.36-.36-.65-.29-.11-.11-.5-.35-.63-.12-.2-.25-.39-.33-.61.15-.35-.19-.41-.31-.58-.02-.06-.05-.07-.08-.09l-.09-.06c-.06-.04-.1-.06-.07-.19-.05-.05-.08-.12-.12-.18-.05-.05-.12-.09-.2-.06-.07 0-.1-.13-.16-.22-.06-.08-.14-.12-.24.07-.08.03-.14-.06-.21-.12-.07-.07-.15-.09-.23.05-.14.25-.29-.02-.44-.03h-.42c-.6.03-1.1.11-1.44.15-.34.04-.54.03-.58-.05-.03-.08.14-.26.53-.47.39-.21.98-.48 1.82-.64.17-.02.35-.26.54-.06.18 0 .41-.14.61.01.13-.12.26-.11.36-.06.11.06.21.16.32.21.12.04.22.12.34.19.11.08.22.15.37.19.15.04.26.15.33.28.03.07.06.14.1.2.04.06.09.13.14.15-.04.28.11.44.37.55-.03.28.27.37.38.58-.1.34.18.45.4.6.21.16.22.44.41.62.09.24.32.4.42.65.24.16.42.36.43.67.21.19.29.45.44.69.23.18.28.48.45.71.1.11.11.26.15.41.02.07.05.14.09.19.02.03.05.05.09.07.02 0 .04.02.06.03.02.01.05.03.08.04.23.33.29.74.41 1.13.03.41-.02.8-.03 1.22-.09.09-.16.17-.21.26-.05.09-.08.18-.11.28-.02.1-.05.19-.07.3-.02.1-.05.21-.08.31-.16.4-.5.69-.86.89l-.12.09-.1.08c-.06.04-.11.08-.17.11l-.08.05-.04.03h-.02l-.04.04-.35.24c-.21.21-.44.35-.65.48-.11.07-.21.13-.31.21-.05.04-.11.08-.16.13-.03.02-.05.05-.08.08l-.02.02h-.01l-.03-.03c-.16-.15-.29-.43-.41-.69-.12-.27-.23-.51-.41-.68-.08-.1-.17-.2-.25-.31l-.06-.08-.04-.05s-.04-.06-.06-.08a.802.802 0 01-.14-.4c-.14-.24-.06-.6-.41-.71-.19-.2-.6-.26-.39-.69-.22-.17-.1-.54-.38-.67.12-.37-.25-.44-.36-.65-.08-.24-.12-.49-.35-.63-.24-.13-.17-.44-.33-.6-.26-.11-.04-.5-.31-.58-.08-.2-.24-.35-.3-.56-.45.03-.21-.35-.28-.53-.05-.19-.42-.19-.26-.5-.35 0-.22-.28-.24-.47-.01-.19-.28-.22-.22-.44-.26-.03-.06-.32-.19-.41.05-.2-.14-.24-.17-.37a.379.379 0 01-.15-.34c-.04-.11-.09-.21-.12-.3-.23-.56-.31-.9-.21-.96l-.07-.01z"/><path id="Vector_4" d="M40.37.14c0 .14-1.12.14-3.02.69-.16.05-.32.1-.49.16-.17.06-.34.13-.51.19-.17.07-.35.15-.53.24-.18.08-.37.16-.56.24-.22.02-.4.17-.56.33-.17.16-.35.29-.6.32-.44.18-.82.49-1.2.83-.19.17-.41.3-.62.47-.21.16-.43.33-.58.57-.05.15-.15.25-.25.34-.11.09-.23.17-.36.24-.26.15-.49.33-.56.67-.17.24-.34.49-.53.72-.18.25-.38.48-.56.74-.13.1-.24.22-.34.34-.1.13-.17.27-.24.42-.15.29-.25.61-.39.91-.54.47-.74 1.15-.82 1.87-.6.52-.77 1.26-.63 2.05-.17.71-.45 1.42-.4 2.2-.07.76-.07 1.53-.14 2.32.24.79.25 1.57.15 2.4.35.78.38 1.59.47 2.44.01.21.07.42.14.62s.15.4.25.59c.09.19.18.39.26.59.08.2.14.4.17.62.32.8.78 1.55 1.2 2.33.36.81.81 1.63 1.58 2.15.64.64 1.34 1.2 1.97 1.88.88.35 1.56.93 2.32 1.48.21.1.42.19.63.3.21.1.42.19.63.29.21.09.44.17.66.24.22.06.46.1.69.13.91.26 1.86.22 2.8.33.95.08 1.93.05 2.8-.34.21-.11.44-.18.66-.25.22-.08.45-.13.67-.2.22-.07.45-.13.66-.22.21-.09.43-.18.63-.3.23-.05.46-.13.66-.24.2-.12.4-.24.58-.39.18-.15.36-.29.54-.44.17-.15.36-.28.55-.41.69-.58 1.48-1.1 1.96-1.88.55-.71 1.03-1.46 1.58-2.15.01-.12.04-.23.08-.34.03-.11.07-.21.12-.31.1-.19.22-.37.34-.55.26-.36.52-.71.66-1.13.49-.74.57-1.62.82-2.42.14-.82.53-1.6.47-2.44.13-.81 0-1.62.15-2.41-.05-.2-.07-.39-.07-.59 0-.19 0-.39.01-.59 0-.1.01-.19.02-.29v-.29c0-.19-.03-.38-.09-.57-.11-.75-.26-1.48-.4-2.2.11-.79-.35-1.41-.63-2.04-.1-.34-.29-.63-.45-.93-.16-.3-.31-.59-.37-.94-.15-.29-.27-.61-.42-.89-.08-.14-.15-.29-.24-.41a2.11 2.11 0 00-.31-.36c-.19-.25-.3-.55-.42-.84-.14-.28-.32-.53-.67-.62-.23-.19-.36-.47-.52-.7-.08-.12-.17-.24-.27-.33-.1-.1-.23-.17-.38-.21-.29-.09-.48-.27-.66-.47-.17-.2-.34-.41-.54-.57-.4-.31-.81-.59-1.2-.83A13.756 13.756 0 0042.18.51c-.28-.07-.53-.1-.75-.14-.22-.04-.4-.07-.55-.09-.3-.05-.45-.09-.45-.14 0-.08.77-.22 2.23-.07.72.09 1.61.26 2.61.61 1 .35 2.12.87 3.24 1.65.22.16.49.27.72.43.24.15.47.34.62.61.11.1.23.19.35.29l.35.29c.24.19.45.43.62.7.32.14.53.39.72.66.18.28.33.58.52.86.1.14.19.28.28.42.09.15.17.3.26.45.18.3.35.6.57.89.24.28.38.61.52.96.12.35.25.69.43 1.03.12.76.38 1.47.74 2.19.03.8.38 1.54.49 2.36-.04.21-.06.42-.05.63 0 .1 0 .21.02.31 0 .1.02.21.03.31.03.21.07.41.11.62.03.21.07.42.1.63.1.86-.06 1.72-.11 2.61-.15.87-.19 1.78-.46 2.66-.11.92-.36 1.84-.86 2.66-.29.91-.78 1.74-1.29 2.58-.42.89-1.1 1.63-1.73 2.41-.16.2-.33.38-.52.55-.19.17-.39.33-.58.49-.2.16-.4.32-.58.5-.18.18-.36.36-.51.58-.79.67-1.71 1.17-2.62 1.69-.96.44-1.97.78-3 1.11-.28 0-.55 0-.82.03-.27.02-.53.06-.8.11-.27.04-.53.08-.8.14-.27.04-.54.07-.81.11-1.1.08-2.19-.09-3.23-.39-1.06-.22-2.06-.62-3-1.11-.24-.1-.48-.22-.7-.36-.22-.14-.44-.28-.65-.44-.21-.15-.42-.31-.63-.46-.2-.16-.42-.3-.64-.44-.22-.14-.42-.3-.61-.47-.19-.18-.36-.36-.54-.55-.17-.19-.33-.38-.51-.57-.17-.19-.34-.37-.53-.54-.72-.7-1.34-1.5-1.73-2.41-.51-.84-.7-1.8-1.29-2.58-.1-.21-.21-.42-.33-.63-.11-.21-.22-.42-.31-.64-.1-.21-.16-.44-.21-.67-.04-.23-.06-.47 0-.72-.08-.22-.14-.44-.17-.66-.03-.22-.06-.45-.08-.68-.02-.22-.03-.45-.07-.67l-.06-.33c-.02-.11-.05-.22-.08-.33.18-.91-.12-1.75-.11-2.61.06-.86.24-1.68.2-2.51-.02-.84.34-1.59.49-2.36 0-.2.06-.39.12-.58.07-.18.14-.37.23-.54.17-.35.34-.69.39-1.07.3-.69.56-1.38.95-1.98 0-.41.17-.73.4-.99l.36-.39c.13-.12.25-.25.35-.38.21-.26.37-.56.53-.85.18-.27.38-.54.71-.67.1-.33.3-.58.55-.77.12-.09.25-.18.38-.27l.39-.24c.24-.17.45-.38.65-.57.2-.2.43-.37.69-.47.32-.5.95-.51 1.34-.81.5-.12.86-.46 1.29-.6.19-.12.4-.2.6-.27.2-.07.4-.13.6-.15.19-.05.37-.11.56-.15.18-.04.36-.08.53-.12.97-.19 1.77-.2 2.31-.2.54.03.82.08.82.14h-.01z"/><path id="Vector_5" d="M17.99 81.85c-.07.09-.36-.01-.84-.28-.08-.05-.16-.1-.26-.15-.1-.05-.21-.09-.28-.18 0-.19-.36.04-.31-.21-.05-.14-.19-.18-.33-.24s-.15-.26-.36-.27c-.31.11 0-.45-.37-.3-.17-.06-.28-.19-.39-.33.03-.28-.25-.25-.41-.35.06-.32-.15-.37-.42-.39.12-.39-.05-.49-.44-.41-.15-.14-.19-.39-.45-.44-.16-.14-.36-.26-.46-.46-.33 0-.48-.18-.47-.49-.34 0-.42-.25-.47-.51a.228.228 0 00-.09-.15c-.03-.01-.05 0-.07.01-.05.02-.07.06-.04-.06-.01-.03-.03-.03-.05-.03-.02 0-.03 0-.04-.05a.875.875 0 00-.07-.28c-.03-.05-.05-.03 0 .2 0 .05.01.13.02.15 0 .02 0-.02-.09-.22.03.08.05.15.07.22l.07.2c-.02-.06-.08-.19-.15-.31.02.07-.02 0-.04-.01-.02-.02-.03 0 .04.14-.02 0 0 .05.03.09.02.04.03.05-.03.03-.04 0-.08 0-.09.04 0 .01 0 .03.01.05l.01.01s.01.03.02.04c.01.03.03.07.05.1.18.27-.07.53 0 .8-.26.26.08.52 0 .78.03.26-.15.51-.01.77.05.25.1.5-.01.75.4.25-.1.49-.02.73-.08.03-.08.07-.06.09.02.02.06.03.04.06.04 0 0 .05-.04.11 0 .04.02.06.1-.02.02.02.06-.02.09-.03.03-.02.04-.02.07.06v-.02l.03-.01c.01 0 .03-.02.04-.02.03 0 .05-.01.08-.01.05 0 .11.03.16.05.11.05.21.11.32.04.21 0 .42-.01.62.03.2.31.4.05.59.03.19.03.38-.18.56.03.18.03.36.16.53.04.17-.04.34.45.5.04.16-.07.32.32.47.04.15-.26.3.03.44.04.14.02.27.03.4.04 1.15.13 1.81.29 1.81.46 0 .19-.81.36-2.21.5-.14.01-.29.23-.44.04-.15 0-.31.16-.47.04-.16.29-.33.05-.5.04-.17.01-.35-.08-.53.04-.18.17-.37-.08-.56.03-.19-.18-.39-.13-.59.03-.2-.17-.41.04-.62.03-.1-.13-.21-.15-.32-.13-.05.01-.11.04-.16.07l-.08.04-.04.02h-.02l-.04.02c-.19.05-.4.04-.59.02-.19-.01-.38-.03-.6 0-.19-.03-.41 0-.64.01-.02-.18-.03-.38-.01-.6-.06-.17-.1-.37-.11-.6 0-.22.02-.47.09-.68-.08-.24-.02-.48-.02-.73-.1-.25.01-.5-.01-.75-.05-.25.28-.51-.01-.77-.04-.26.05-.52 0-.78.04-.26.08-.53 0-.8.15-.09.17-.36.15-.59-.02-.24-.09-.51-.15-.8-.08-.57-.04-1.08 0-1.52-.03-.55-.01-1.03 0-1.48-.04-.3-.02-.48 0-.63.03-.15.05-.3.04-.54.03.03.06.05.08.06.09.02.28.31.46.59.18.28.33.53.45.58.13.09.27.22.42.41.15.18.31.42.46.72.15.18.29.46.41.67.13.22.25.37.44.41.15.14.35.24.53.39.09.07.18.17.22.27.02.06.02.14-.02.25.23.11.15.47.43.53-.08.36.28.34.42.51.1.2.17.42.41.49.24.06.22.36.39.47.26.03.11.44.38.44.1.16.28.25.36.42.41-.16.25.25.35.39.08.16.42.04.33.37.32-.11.25.19.31.35.05.16.3.1.29.32.24-.07.12.27.26.3 0 .19.18.17.24.28.11.04.19.12.22.24l.19.22c.35.41.51.68.44.77l-.04-.02z"/><path id="Vector_6" d="M29.56 38.03c0 .06-.53.09-1.53.23-1 .13-2.48.37-4.28 1.01-.6.21-1.24.47-1.89.79-.65.33-1.33.71-2.03 1.13-.39.15-.7.44-1.02.74-.32.3-.64.6-1.06.8-.74.52-1.4 1.22-2.02 1.98-.62.76-1.37 1.49-1.84 2.46-.17.52-.51.95-.83 1.4-.05.06-.12.15-.16.21l-.07.1c0 .04.03.07.05.11.02.04.04.07.07.1l.09.12c.09.11.19.22.31.33.08.12.17.24.25.37l.12.19c.05.08.1.16.14.24.17.33.27.71.3 1.09a3 3 0 01-.71 2.15c-.25.23-.52.42-.8.58l-.03.02h-.01l.06-.03-.04.03-.08.05h-.05l-.03.02.21-.13-.04.04-.1.09-.1.03h-.03l.14-.07-.06.04-.15.11h-.17l.29-.09h-.02l-.04.04c-.02.02-.04.03-.06.04l-.09.05h-.01l.03-.01-.03.02-.09.07-.03.02-.05.04.04-.03-.03.03-.13.11h-.2c.1-.04.21-.07.31-.1l-.03.02h-.01l-.04.04-.03.02-.03.02h-.02l.11-.07-.02.03-.06.04-.04.03.08-.07-.03.03-.02.02-.06.05-.03.02.08-.06-.03.04-.02.02-.05.04-.03.02.08-.07-.03.03-.02.02-.07.05-.04.03.09-.07-.02.02-.03.03s-.04.04-.09.08c-.01 0-.02.02-.03.03h-.01s-.01.02-.02.03l-.02.02-.06.06-.07.07s-.09.1-.14.15l-.06.07-.03.04-.05.08s-.01.03 0 .04v.39c-.19.63-.23 1.28-.21 1.96.02.68.09 1.37.18 2.06-.18.7-.26 1.4-.24 2.11 0 .36.03.71.08 1.08.02.18.05.36.09.54.02.11.03.12.05.16.02.03.06.05.09.07.3.62.61 1.28.97 1.91.35.64.75 1.24 1.25 1.77.9 1.14 1.99 2.12 3.21 2.91 1.37.53 2.71.93 4.2 1.12l.53-.1.55-.11h.08v-.01l.04-.01-.08.02h.03l.01-.01.1-.02h.05l-.11.01.1-.03.09-.02h.06l.05-.02h.12l-.18.02.05-.01h.06l.09-.02h.03l-.28.07.05-.02.16-.08h.27c-.23.09-.45.19-.68.29l.19-.21.31-.07h.06l.06-.03h.02l.09-.05.1-.02h.02l-.11.02.08-.02-.07.02.08-.03.06-.02h.05l.02-.01-.12.03h.03l-.07.01h.02l.08-.04.06-.02h.01l-.1.03h.02v-.01l.19-.07h.18l-.42.1h.03l.21-.11h.21c-.14.03-.29.07-.43.1h.01l.07-.04.05-.02h.03l.03-.02-.09.04H23l-.22.13.28-.23h.33c-.28.17-.56.35-.85.52l.28-.54h.57l.01.01c-.25.12-.5.24-.74.36l.12-.15.13-.08c.46-.27.99-.42 1.52-.43.53-.01 1.05.11 1.51.34.5.26.95.62 1.29 1.07.18.25.27.41.4.59.12.18.24.35.36.53.49.71.97 1.43 1.33 2.23.56.96 1.16 1.89 1.76 2.87l.05.1.08.17.02.05.02.07v.04l-.02-.1.04.09c.04.12.06.21.08.3l.04.21v.07l.01.08v.51l-.03.11v-.12.13l-.03.13-.03.13c0-.07.02-.14.03-.21v.15l-.03.11-.02.05v.02l.01-.05v.03l-.02.07v.04l-.03.05-.03.09-.02.05v.02s-.02.03-.05.11l-.02.04-.04.09-.02.03-.05.09.03-.06-.02.03-.05.1s-.03.04-.04.07l-.06.1-.11.18-.08.13-.05.04c.05-.06.1-.13.15-.2l-.04.07-.09.16-.06.06-.02.02.11-.13-.05.07.03-.06-.02.03-.05.08-.07.09-.05.05.05-.07s-.06.09-.1.14c-.04.05-.08.09-.11.13l-.22.25-.08.07c-.18-.44-.36-.87-.54-1.31 1.28.06 2.58.07 3.88-.1 1.83-.06 3.68-.15 5.54-.01 1.87-.28 3.75-.15 5.65 0 1.9-.05 3.82.15 5.75 0 1.93.04 3.88-.12 5.85 0 1.96.08 3.91.16 5.85 0 1.93-.18 3.85.07 5.75 0 .43.06.87.09 1.3.09h.35c.05 0 .1-.01.14-.02a.802.802 0 00-.04-.18v-.04h-.01v-.12l-.02-.38c-.02-.51-.03-1.02 0-1.52-.03-1.87.15-3.71.01-5.54-.05-1.83-.1-3.63.01-5.42-.4-1.78.1-3.55.02-5.28.17-1.74-.03-3.45.02-5.14-.02-.42-.02-.81-.03-1.22-.01-.4-.02-.8-.06-1.2-.06-.8-.18-1.59-.46-2.33-.18-.76-.45-1.5-.75-2.2-.3-.71-.63-1.4-.93-2.1-.45-.62-.81-1.27-1.21-1.9-.4-.63-.82-1.24-1.37-1.73-.99-1.08-2.09-2-3.23-2.82-.49-.52-1.1-.9-1.72-1.19-.62-.3-1.27-.52-1.9-.75-.62-.26-1.26-.43-1.9-.58-.64-.15-1.26-.28-1.88-.49-.63-.11-1.25-.22-1.87-.28a9.642 9.642 0 00-1.87.01c-1.25.04-2.46-.45-3.64-.04-.23.02-.46.01-.69 0h-.17l-.04-.01h-.02l-.04-.01-.18-.03-.1.08-.06.04s-.03.03-.07.06l-.36.36c-.23.25-.43.51-.59.82-.53.99-1.44 1.59-2.12 2.34-.57.63-1.13 1.24-1.65 1.82-.18-.26-.34-.49-.5-.71.05-.02.09-.03.13-.05-.07.26-.12.49-.18.71-.07-.09-.14-.16-.2-.24-.93-1.09-1.79-2.1-2.57-3.02-.39-.46-.77-.91-1.12-1.33-.18-.21-.35-.42-.52-.62-.14-.17-.27-.33-.4-.48-.89-.03-1.69-.05-2.37-.08-.72-.02-1.33-.05-1.83-.08-.99-.05-1.5-.11-1.5-.16s.51-.11 1.5-.16c.49-.03 1.1-.05 1.83-.08.36-.01.75-.02 1.17-.04.46-.01.96-.02 1.48-.04.72.78 1.53 1.66 2.43 2.63.85.93 1.79 1.96 2.8 3.06l.46.5-.65.26-.13.05-.53-.76c.51-.6 1.04-1.22 1.6-1.87.66-.77 1.19-1.7 2.06-2.4.22-.25.43-.51.64-.77.11-.13.21-.27.32-.4.17-.21.34-.41.52-.62h.97c.23 0 .46.02.69.05 1.17-.29 2.39-.05 3.64-.04h.95c.33 0 .66.02.99.05.66.04 1.33.11 2.02.16.69.03 1.37.19 2.04.4.67.21 1.34.46 2.03.67 1.28.69 2.59 1.32 3.93 2.04.58.5 1.19.95 1.79 1.43.6.48 1.2.99 1.74 1.57.44.67.92 1.29 1.41 1.93.49.63.99 1.28 1.43 1.98.88 1.4 1.39 3.02 1.87 4.66.19.83.36 1.67.48 2.54.12.85.19 1.75.16 2.61.12 1.69.17 3.4.02 5.14.08 1.74.02 3.5.02 5.28.11 1.78-.01 3.59.01 5.42.05 1.83-.28 3.67.01 5.54 0 .51.01 1.01 0 1.52 0 .81 0 1.62-.01 2.43h-2.19c-.43 0-.87 0-1.3.02-1.9-.04-3.82-.08-5.75 0-1.93-.29-3.88-.11-5.85 0-1.96.08-3.91.04-5.85 0-1.93.03-3.85.01-5.75 0-1.9.09-3.79-.12-5.65 0-1.87.12-3.71-.13-5.54-.01-1.3.06-2.6.1-3.88.07l-2.34-.06 1.66-1.58.02-.02.01-.01.04-.05.08-.1.07-.08s.04-.05.06-.08l.06-.08.02-.03-.06.09.02-.03.04-.06.05-.07.09-.12.03-.03.02-.02-.18.24.04-.07.1-.17.07-.06-.14.18.1-.16s.02-.03.04-.07c.02-.03.04-.07.07-.11l-.05.11.02-.03.03-.07.02-.03.03-.08.02-.04.04-.09-.02.07.04-.12.03-.09-.03.1V80l.02-.06.02-.06-.03.24v-.15l.02-.08s0-.03.01-.04v-.06.13-.13l.02-.06v-.22.1-.21l.02.15-.02-.16s-.01-.07 0-.07v-.03l-.03-.08v-.02l-.01-.04.04.12-.02-.07v-.03h-.02c-.52-.99-1.06-1.98-1.77-2.84-.47-.73-1-1.42-1.48-2.13-.12-.18-.23-.36-.35-.54-.11-.17-.23-.4-.27-.47-.12-.21-.28-.41-.49-.61-.48-.16-1-.16-1.45.07l.22-.2-.28.34-.36-.02h-.01c.24-.15.48-.3.73-.45l-.27.48-.46-.02h-.01c.17-.06.34-.12.52-.19l-.12.09-.07.03h-.02l-.08.04h-.03l.1-.04h-.01l-.21.1h-.15l.36-.08h-.03l-.21.1h-.17l.3-.06h-.02l-.04.02-.07.02h-.03l.12-.04h-.02l-.06.03h-.03l-.09.03h-.03l.09-.03-.06.02-.06.02h-.06l-.09.03h-.03l.17-.04s-.03.01-.05.02l-.06.02s-.08.03-.13.04c-.05 0-.12.02-.17.03l.41-.22-.26.25h-.3l-.05-.01.31-.07-.05.02-.13.05h-.09l-.03.01.1-.02h-.06l-.09.03-.09.02h-.06.14-.09l-.06.02h-.06l-.03.02h-.06l.09-.01h-.03l-.04.02h-.02l-.11.02h-.1l-.13.03-.17.02-.32.04-.64.07c-.89-.14-1.75-.26-2.6-.46-.84-.2-1.67-.49-2.41-.93-.72-.46-1.36-1-1.95-1.58-.59-.57-1.13-1.17-1.66-1.77-.54-.59-.96-1.27-1.31-1.95-.36-.68-.68-1.35-1.03-2.04l-.11-.21c-.04-.07-.09-.14-.07-.22 0-.14 0-.27-.01-.41v-.54c.01-.36.04-.72.06-1.08.05-.71.1-1.42 0-2.11.02-.7.01-1.38 0-2.06 0-.67 0-1.38.08-2.06-.02-.08-.03-.16-.04-.24v-.67c0-.03.04-.05.05-.08.08-.1.16-.21.24-.31.04-.05.09-.1.13-.15l.09-.1c.06-.06.12-.12.18-.17l.09-.08.02-.02h.01v-.01l-.04.04.07-.07c.02-.02.05-.04.08-.06l.04-.03.01-.01.05-.04-.04.04.02-.02.11-.09h.03l.04-.04-.13.11.03-.03.11-.09h.02l.03-.03-.08.06.02-.02-.03.03.01-.01.11-.09.03-.02-.12.1.03-.03.12-.1.04-.03-.13.11.15-.13h.03l.02-.03-.05.03.03-.02-.08.06.03-.02.05-.04.03-.02.29-.18.18.02c-.17.06-.33.12-.49.18l.04-.02.06-.04.04-.02.05-.03.03-.02-.05.03.04-.02h.02v-.01l.05-.04.03-.02.06-.03c.02 0 .04-.02.04-.02h.02l.04-.02.05-.03.25-.14.15.02h.01c-.15.05-.29.1-.43.15l.06-.04.17-.1h.03l.03-.01-.27.17.03-.02.21-.16.07-.02h.03l-.17.08.04-.02.07-.04H12l-.05.02c.18-.08.35-.19.48-.33.32-.34.41-.84.34-1.26-.03-.21-.09-.41-.17-.61l-.06-.14-.09-.2c-.06-.14-.11-.28-.16-.42a4.48 4.48 0 01-.3-.33l-.03-.04-.05-.07-.11-.15c-.07-.1-.14-.21-.21-.31l-.1-.16-.05-.08-.02-.04s-.02-.03 0-.04l.16-.33.08-.16.08-.15.16-.29c.32-.52.68-.96 1.02-1.41.68-.89 1.18-1.89 2.01-2.55.27-.46.65-.8 1.05-1.11.39-.31.8-.58 1.14-.91.82-.49 1.48-1.11 2.23-1.53.7-.49 1.44-.85 2.16-1.09.7-.3 1.37-.53 2-.72 1.9-.56 3.43-.71 4.45-.74 1.03-.03 1.56.05 1.56.1l.04-.01z"/><path id="Vector_7" d="M29.56 38.03c0 .11-.45.21-1.24.36-.13.03-.22.05-.32.07-.09.04-.17.08-.29.08-.12-.06-.12 0-.11.07.01.06.04.11-.17.02-.05 0-.09-.01-.13 0h-.06s.01.02.02.03c.05.06.12.13.19.19.06.06.06.1.07.15.01.05.05.11.15.16.19.04.12.07.08.15-.04.08-.06.15.17.19.19.17.3.4.42.64-.05.34.27.46.44.68-.09.37.16.56.46.72-.16.44.04.67.48.76.17.26.2.6.5.79.18.26.41.51.52.83.38.16.54.46.54.86.4.16.48.52.55.89.06.38.56.5.56.92.17.32.42.6.58.95.1.38.19.76.59.97.12.15.25.3.36.46.04.06.03.04.03.05v.02c0 .02-.01.04-.03.09.14-.16.09-.22.09-.07 0 .04 0 .1.01.14.02-.05.04-.02.08-.03.02 0 .04-.01.05-.03v-.03s0-.01.01-.03l.02-.03s.02-.05.03-.07c.31-.27.47-.68.84-.9.34-.25.68-.49.84-.9.15-.42.61-.54.83-.88.46-.12.48-.64.81-.86.25-.3.64-.47.8-.84.11-.16.23-.31.35-.45.06-.07.13-.14.2-.2.04-.03.07-.06.11-.09l.06-.04h.03c-.11-.12-.14-.11-.1-.11.04 0 .14.01.22-.01.02-.01.01-.03-.02-.04.08-.04.02-.09-.02-.11-.01 0-.02-.01-.04-.01l-.02-.03-.05-.04c-.07-.06-.13-.13-.18-.2-.29-.22-.33-.65-.68-.8-.2-.28-.55-.43-.65-.78-.37-.12-.31-.6-.63-.75-.21-.24-.43-.46-.6-.72.03-.43-.36-.49-.57-.69-.17-.24-.51-.32-.54-.66-.04-.06-.04-.15-.09-.23-.05-.01-.11 0-.16.05h-.04l-.03-.02c-.02 0-.03-.02-.05-.02-.06-.03-.13-.08-.19-.11-.13-.07-.25-.09-.38.12-.25.07-.48-.32-.71-.04-.23.26-.45-.03-.66-.04-.21-.02-.42-.03-.61-.04-1.75-.13-2.75-.29-2.75-.46 0-.19 1.24-.36 3.36-.5.21-.01.43-.23.66-.04.23 0 .47-.17.71-.04.12-.14.25-.16.38-.13.06.01.13.03.19.05l.05.02s.05 0 .07.01c.05 0 .1.01.16.02.18 0 .35 0 .53.01.16.2.32.39.54.54.31.1.31.48.59.62.06.34.29.53.62.65.07.34.44.44.64.68.01.42.37.54.67.71.29.19.41.53.69.74.19.29.51.47.71.77.08.05.16.09.24.15l.05.04.03.02.05.05c.06.06.12.12.18.19.24.25.45.53.58.8.11.1.22.21.33.32-.34.4-.76.79-1.13 1.19l-.07.1-.04.06s-.06.08-.09.11c-.06.07-.13.14-.2.2-.14.13-.29.25-.41.4-.22.32-.73.37-.78.86-.24.31-.57.55-.8.87-.3.27-.6.54-.82.89-.49.1-.64.52-.83.9-.22.36-.53.63-.84.9l-.05.06-.06.07-.19.21-.39.42c-.26.28-.52.55-.78.81-.14.18-.28.34-.42.48-.14-.25-.27-.53-.39-.77-.13-.25-.26-.47-.42-.66-.11-.13-.21-.29-.3-.45-.04-.08-.09-.17-.13-.25-.04-.08-.09-.18-.1-.21-.07-.18-.14-.37-.29-.5-.27-.29-.5-.59-.56-.99-.19-.32-.15-.78-.55-.96-.23-.29-.7-.43-.53-.94-.27-.25-.19-.71-.51-.91.08-.45-.33-.6-.49-.89-.12-.32-.2-.65-.47-.86-.28-.2-.25-.58-.45-.82-.3-.18-.12-.63-.43-.79-.11-.27-.31-.48-.4-.75-.48-.04-.28-.47-.38-.72-.08-.26-.49-.31-.35-.68-.05 0-.09-.02-.12-.03-.03 0-.07-.05-.1-.09a.939.939 0 01-.14-.26c-.06-.18-.07-.36-.11-.51-.04-.15-.15-.29-.27-.45-.11-.15-.21-.31-.17-.4-.23-.19-.27-.32-.27-.42v-.03h.08c.05 0 .1.01.15.01.1 0 .17 0 .22-.03.23.04.35.02.46 0 .11-.03.22-.07.35-.07.2-.08.47-.09.71-.04h.56c.83.04 1.28.16 1.28.27l.02-.06z"/><path id="Vector_8" d="M45.33 38.03c.08.07-.13.48-.6 1.15-.08.11-.16.23-.25.36-.08.14-.17.28-.29.4-.23.04-.04.45-.33.45-.18.1-.27.29-.37.49-.1.19-.36.26-.41.52.06.36-.55.14-.44.56-.11.24-.29.41-.48.6-.34.05-.35.4-.51.63-.09 0-.17.03-.24.07-.02 0-.03.02-.04.03 0 0-.02 0-.02.02-.02.01-.03.03-.04.04-.03.07-.01.15.06.21-.19 0-.33.04-.4.09.03.08.24.16.49.12.02.02.03.04.04.06l.02.04.01.03.04.05c.1.12.21.24.37.3.24.22.51.41.69.7.4.08.62.33.71.72.42.07.59.4.73.75.14.36.65.37.75.78.24.28.54.5.77.8.18.35.35.71.79.82l.23.18s.02.02.03.02h.03c.02 0 .01.02.02.13.04-.14.03-.22.03-.21 0 .01.02.12.08.18 0-.05.04-.03.08-.05.01 0 .02-.01.03-.02.02-.04.05-.08.07-.12.04-.08.07-.17.09-.26.23-.3.26-.67.56-.95.27-.29.54-.6.56-.95 0-.34.44-.61.55-.93.23-.14.3-.3.35-.46.04-.16.06-.31.2-.46.15-.3.54-.62.54-.9.12-.29.22-.56.54-.88-.18-.09-.06-.23.11-.4.17-.16.4-.34.42-.47.4-.35.3-.56.52-.85.05-.23.59-.65.51-.83.21-.29.11-.45.5-.81-.08-.06.06-.22.21-.38s.32-.34.28-.41l.06-.09v-.02h-.02l-.07-.01a.16.16 0 01-.11-.05c.09-.15 0-.17-.08-.15-.08.02-.15.09-.23.09-.28-.05-.56.14-.82-.07-.27-.03-.53-.17-.79-.04-.26.04-.52-.45-.76-.04-.25.07-.48-.32-.71-.04-.23.26-.45-.03-.66-.04-.21-.02-.42-.03-.61-.04-1.75-.13-2.75-.29-2.75-.46 0-.19 1.24-.36 3.36-.5.21-.01.43-.23.66-.04.23 0 .47-.17.71-.04.25-.29.5-.05.76-.04.26-.02.54.08.83-.03.29-.16.58.11.89 0 .11.05.21.09.32.12.11.03.23.04.34.05.24.02.5 0 .82-.04.09.05.18.1.29.13.05.02.09.04.14.05l.08.02.06.03.12.06.08.08c.07.05.01.12-.02.2-.4.4-.39.61-.45.88-.07.27-.36.63-.47.92-.22.33-.27.62-.49.96-.05.3-.18.64-.51 1-.1.33-.35.68-.54 1.03-.08.35-.39.71-.56 1.06-.14.37-.67.69-.59 1.09-.16.37-.45.73-.61 1.11-.24.36-.49.72-.63 1.13-.49.28-.53.71-.65 1.14-.14.41-.4.78-.66 1.13-.05.1-.1.19-.15.29l-.08.14-.15.25c-.2.33-.39.65-.59.96-.18.4-.41.71-.61 1-.24-.29-.45-.55-.69-.73-.26-.19-.52-.51-.74-.8l-.17-.22c-.05-.06-.1-.13-.16-.19a.817.817 0 00-.22-.19c-.32-.22-.61-.47-.76-.84-.25-.27-.31-.72-.74-.82-.29-.23-.78-.27-.72-.8-.32-.19-.34-.65-.7-.78-.02-.45-.45-.51-.67-.76-.19-.28-.33-.59-.65-.73-.16-.07-.25-.2-.34-.33l-.03-.05s-.04-.05-.05-.07c-.04-.05-.08-.11-.12-.16-.08-.1-.16-.2-.26-.29-.16-.1-.28-.22-.36-.34-.09-.12-.14-.24-.21-.35.18-.15.31-.28.35-.44.18-.18.33-.36.49-.54l.12-.13.06-.07.04-.04c.05-.05.1-.1.16-.14-.12-.47.36-.41.56-.58.22-.16.14-.56.53-.55-.06-.38.29-.39.5-.51.22-.11.2-.42.47-.47-.02-.3.36-.23.44-.43.23-.05.26-.28.4-.39.08-.16.2-.28.36-.34.12-.11.22-.21.33-.3.61-.55.99-.81 1.07-.74l-.03-.02z"/><path id="Vector_9" d="M21.01 55.82c.11 0 .22.18.32.52.02.06.03.12.05.18.03.06.06.13.05.2-.15.07.27.15.05.23-.06.08 0 .16.04.25.05.09-.09.18.04.27.29.09-.32.19.04.29.08.1.06.21.04.31-.22.11 0 .22.04.33-.26.11-.15.23.03.35-.36.12-.3.24.03.37.01.13-.13.25.03.39.02.13.09.26.03.4.24.14.23.28.02.42.26.14.16.28.02.43-.14.14.23.29.02.44-.02.15.06.3.02.46-.11.15-.23.31.01.47.06.16.15.32.01.48.28.16.15.32 0 .49.05.16-.15.33 0 .5-.04.17.12.33 0 .5-.08.17-.16.34 0 .5.18.17-.07.33 0 .5-.26.16.08.33 0 .49.03.16-.15.32-.01.48.05.16.1.31-.01.47.4.15-.1.31-.02.46-.17.15.02.3-.02.44.07.15-.18.29-.02.43-.03.14.13.28-.02.42.2.14-.17.27-.03.4 0 .13.01.26-.03.39-.31.13-.05.25-.03.37-.03.12.18.24-.03.35-.03.11-.16.23-.04.33.05.11-.45.21-.04.31.07.1-.32.2-.04.29.25.09-.03.19-.04.27-.01.09-.03.17-.04.25-.13.72-.29 1.13-.46 1.13-.18 0-.36-.51-.5-1.38-.01-.09-.23-.18-.04-.27 0-.09-.16-.19-.04-.29-.29-.1-.05-.21-.04-.31-.01-.11.08-.22-.04-.33-.17-.11.08-.23-.03-.35.18-.12.13-.24-.03-.37.17-.13-.04-.25-.03-.39.26-.13.08-.26-.03-.4-.1-.14.04-.28-.03-.42.05-.14-.07-.28-.02-.43-.12-.15-.17-.29-.02-.44-.09-.15-.02-.3-.02-.46-.1-.15.01-.31-.01-.47-.06-.16.28-.32-.01-.48-.04-.16.05-.32 0-.49.04-.16.08-.33 0-.5.29-.17.11-.33 0-.5-.08-.17-.04-.34 0-.5-.03-.17-.01-.33 0-.5-.08-.16.12-.33 0-.49-.12-.16.13-.32.01-.48-.08-.16-.13-.31.01-.47 0-.15.26-.31.02-.46-.06-.15-.38-.3.02-.44-.1-.15.19-.29.02-.43.29-.14.02-.28.03-.42.06-.14.16-.27.03-.4-.14-.13.08-.26.03-.39-.17-.13.22-.25.03-.37.04-.12-.02-.24.03-.35-.4-.11 0-.23.04-.33.06-.11-.26-.21.04-.31-.3-.1-.04-.2.04-.29.09-.09-.13-.19.04-.27-.21-.09.12-.17.04-.25.14-.08 0-.16.05-.23-.05-.07-.03-.14.05-.2.02-.06.03-.12.05-.18.1-.34.2-.52.31-.52h-.01z"/><path id="Vector_10" d="M59.74 81.86c-.11 0-.22-.29-.32-.82-.01-.09-.03-.18-.05-.28a.86.86 0 01-.05-.32c.15-.11-.27-.23-.05-.36.07-.13 0-.26-.04-.39-.05-.14.09-.28-.04-.43-.29-.15.32-.3-.04-.46-.08-.16-.06-.32-.04-.49.22-.17 0-.34-.04-.52.26-.18.15-.36-.03-.55.36-.19.3-.38-.03-.58-.01-.2.13-.4-.03-.61-.02-.21-.09-.42-.03-.63-.24-.21-.23-.43-.03-.65-.26-.22-.16-.45-.02-.68.14-.23-.23-.46-.02-.7.02-.24-.06-.47-.02-.72.11-.24.22-.49-.01-.73-.06-.25-.15-.5-.01-.75-.28-.25-.15-.51 0-.77-.04-.26.15-.52 0-.78.04-.26-.12-.53 0-.79.08-.27.16-.53 0-.79-.18-.26.07-.52 0-.78.26-.26-.08-.51 0-.77-.03-.25.15-.5.01-.75-.05-.25-.1-.49.01-.73-.4-.24.1-.48.02-.72.17-.24-.03-.47.02-.7-.08-.23.18-.46.02-.68.03-.22-.13-.44.03-.66-.2-.21.17-.42.03-.63 0-.21-.01-.41.03-.61.31-.2.05-.39.03-.58.03-.19-.18-.37.03-.55.02-.18.16-.35.04-.52-.05-.17.45-.33.04-.49-.07-.16.32-.31.04-.46-.25-.15.03-.29.04-.43.02-.14.03-.27.04-.39.13-1.13.29-1.78.46-1.78.18 0 .36.8.5 2.17.01.14.23.28.04.43 0 .15.16.3.04.46.29.16.05.32.04.49.01.17-.08.34.04.52.17.18-.08.36.03.55-.18.19-.13.38.03.58-.17.2.04.4.03.61-.27.21-.08.42.03.63.1.21-.04.43.03.66-.05.22.07.45.02.68.12.23.17.46.02.7.09.24.02.48.02.72.11.24-.01.49.01.73.05.25-.28.5.01.75.04.25-.05.51 0 .77-.04.26-.08.52 0 .78-.29.26-.11.53 0 .79.08.27.04.53 0 .79.03.26.01.52 0 .78.09.26-.12.51 0 .77.12.25-.13.5-.01.75.08.25.13.49-.01.73 0 .24-.26.48-.02.72.06.24.38.47-.02.7.1.23-.19.45-.02.68-.29.22-.01.44-.03.65-.06.21-.16.42-.03.63.14.21-.08.41-.03.61.17.2-.22.39-.03.58-.04.19.03.37-.03.55.4.18 0 .35-.04.52-.06.17.26.34-.04.49.3.16.04.31-.04.46-.09.15.13.29-.04.43.21.14-.12.27-.04.39-.14.13 0 .24-.05.36.05.11.03.22-.05.32-.02.1-.03.2-.05.28-.1.53-.2.82-.31.82h.01z"/><path id="Vector_11" d="M45.34 33.19c.04.1-.27.37-.93.7-.11.06-.23.11-.36.17-.13.07-.26.14-.42.17-.19-.1-.25.35-.48.16-.19-.03-.35.07-.54.15-.18.08-.4-.03-.59.14-.18.31-.46-.26-.65.11-.22.09-.46.09-.7.08-.25-.21-.49 0-.75.03-.25-.27-.5-.17-.79-.02-.23-.38-.5-.36-.83-.08-.28-.04-.54-.23-.86-.14-.29-.04-.61-.06-.89-.21-.06.01-.06.04-.07.06-.01.02-.02.04-.03.05-.01.03-.02.04-.03.04-.01 0-.03-.06-.11-.2.04.17.07.21.02.16a.812.812 0 00-.13-.11c-.07-.04-.02.07.03.12.05.07.09.08-.01.08v.06c0 .08 0 .16.02.24.01.16.02.33 0 .49-.11.33-.22.66.01 1 .06.34.15.68.01 1.02.04.05.07.09.09.14 0 .01.01.03.02.03h.04s-.03.01-.05.03c-.02.02-.06.03 0 .13.27.23.35.63.7.79.2.3.56.46.71.81.18.33.36.65.71.81.37.15.41.58.7.8.04.43.52.46.68.78.25.24.34.61.67.77.21.18.43.37.57.6l1.11 1.83-1.76-.33c-.05-.01-.11-.02-.16-.04h-.01l-.4.48-.25-1.9c-.06-.49.51-.41.66-.7.34-.13.4-.49.64-.7.15-.28.55-.34.62-.68.23-.2.3-.53.61-.65.04-.35.51-.32.59-.62.19-.21.36-.42.57-.6.41 0 .39-.36.55-.57.19-.17.2-.5.52-.54.05-.04.1-.08.14-.11l.08-.05.04-.03h.02c.05-.03.1-.08.07-.14-.02-.06.09-.07.16-.14.03-.02.06-.1.04-.15-.01-.06-.06-.11-.16-.16-.07-.22.32-.43.04-.63-.26-.2.03-.4.04-.58.02-.19.03-.36.04-.54.13-1.54.29-2.41.46-2.41.18 0 .36 1.09.5 2.95.01.19.23.38.04.58 0 .2.16.41.04.63.07.05.11.11.13.16 0 .03.01.05.01.08v.12c-.03.19-.09.36-.1.54-.12.15-.26.28-.39.42l-.08.09s-.04.05-.05.07c-.03.05-.06.11-.08.17-.04.29-.39.32-.47.59-.3.08-.44.3-.5.61-.31.09-.33.43-.52.64-.38.04-.43.37-.55.66-.12.28-.42.42-.57.68-.24.19-.35.5-.59.7-.11.32-.29.58-.61.73-.15.29-.41.49-.62.73-.22-.48-.44-.97-.66-1.46h.01c.05-.02.11-.03.16-.04-.22.51-.45 1.02-.67 1.54-.23-.19-.34-.45-.55-.65-.26-.22-.24-.7-.69-.76-.26-.23-.42-.55-.7-.78-.2-.29-.41-.58-.71-.79-.02-.46-.39-.61-.71-.81-.3-.22-.51-.51-.71-.81-.26-.25-.48-.52-.7-.8-.05-.02-.17-.16-.27-.27-.1-.12-.18-.23-.27-.35.01-.18.03-.36.03-.53v-.23l-.03-.14c-.12-.34.13-.68.01-1.02-.08-.34-.13-.67.01-1 0-.16.07-.33.1-.49.02-.08.03-.16.02-.24 0-.03 0-.06-.01-.09 0-.04-.01-.07-.02-.11-.02-.07-.04-.15-.07-.23-.03-.29-.12-.64-.16-.98-.04-.34-.02-.67.18-.73-.02-.14-.02-.26-.02-.37 0-.05 0-.1.01-.15v-.07s.02-.04.03-.05c.37.21.7.42.95.42.33.3.55.39.78.45.12.03.24.04.36.07.06.01.12.02.19.04.06.01.13.03.16.04.24.13.48.3.77.24.29-.08.49.18.75.18.27-.13.47.29.73.13.24.06.48.01.7.08.24-.39.45.01.67.04.22.05.41-.28.64 0 .18-.31.39-.08.6-.02.21.06.35-.18.56-.04.13-.24.37.05.51-.06.19.1.31-.07.47-.07a.52.52 0 01.42-.07c.13-.02.25-.05.37-.07.69-.13 1.08-.21 1.13-.1h.02z"/><path id="Vector_12" d="M45.62 49.29c-.08.07-.39-.1-.89-.49-.08-.07-.17-.14-.26-.21-.1-.07-.21-.14-.29-.25.02-.2-.39-.02-.32-.28-.05-.15-.2-.23-.35-.31-.15-.08-.16-.31-.38-.34-.33.06-.01-.48-.4-.37-.19-.09-.3-.24-.43-.4.02-.3-.28-.3-.45-.43.05-.33-.18-.42-.47-.46.11-.41-.08-.54-.49-.48-.08-.08-.14-.19-.21-.29l-.03-.05s-.02-.01-.03-.02c-.02 0-.05 0-.08.02-.03-.02-.06-.02-.09-.02-.02 0-.04-.03-.06-.09v.05c-.04.33.02.24-.12.1.04.15.07.17.05.18-.1.09-.23.15-.38.2-.29.1-.21.56-.55.62-.2.19-.34.45-.57.63-.27.14-.56.27-.58.65-.15.26-.29.54-.6.66 0 .41-.3.55-.61.67-.17.25-.53.35-.63.68-.06.05-.04.04-.05.05v.03c0 .02.02.03 0 .04 0 0-.01.01-.04.02-.02 0-.03.03-.04.04 0 0 0 .02-.01.03v.01s0 .03.01.05c.05.15.12.29.25.4.28.23.16.6.33.86-.13.38.3.54.32.85.07.14.08.29.12.44v.05s.01.01.01.02v.02c0 .01.03.02.06 0h.05c.03-.02.04 0 .06.06.01-.05.02-.08.03-.11 0-.03 0-.04.04-.04.07 0 .14.01.21.05.14.06.28.17.42.12.28.17.55-.02.83.02.27-.07.54.18.8.02.26.03.52-.13.78.02.25-.2.5.17.75.03.24 0 .48-.01.72.03.23.31.46.05.69.03.22.03.44-.18.65.03.03 0 .04 0 .05.01l.03.02s.05.03.08.04c.05.02.11.02.12-.04.01 0 .04 0 .07.03.04.01.12.05.16.03.04-.02.05-.09-.08-.22-.01-.06.06-.04.14-.1.08-.06.14-.14.04-.27-.17-.26.15-.31.22-.46.07-.15.14-.29.21-.42.61-1.2 1.03-1.86 1.19-1.8.17.07 0 1.01-.46 2.58-.05.16.09.39-.15.49-.03.08-.03.18-.04.27 0 .02 0 .06-.02.09 0 .04-.02.07-.04.11a.76.76 0 01-.12.19c.05.18.03.33-.02.44-.05.12-.13.21-.19.3a.892.892 0 00-.22-.03c-.32.01-.68-.08-.98.04-.21.17-.43-.08-.65.03-.22-.18-.45-.13-.69.03-.23-.17-.47.04-.72.03-.25-.27-.49-.08-.75.03-.25.1-.51-.04-.78.02-.26-.05-.53.07-.8.02-.27.12-.55.17-.83.02-.14.04-.28.05-.42.04-.07 0-.14 0-.21-.01h-.37c-.34.06-.68.04-1 .02-.07-.21-.13-.41-.22-.59-.06-.12-.1-.25-.13-.39-.01-.07-.03-.14-.04-.2 0-.03-.02-.08-.02-.09v-.06c-.02-.15-.06-.3-.26-.38-.14-.27-.17-.58-.34-.84-.08-.3-.15-.6-.34-.86a.52.52 0 00-.03-.49l-.09-.15c-.04-.06-.08-.12-.11-.19-.08-.13-.17-.26-.25-.4-.07-.14-.14-.28-.2-.41.14-.17.3-.34.46-.5l.25-.24c.08-.07.18-.17.21-.19.19-.25.41-.46.63-.67.14-.28.5-.36.62-.66.11-.3.5-.35.61-.64.14-.27.3-.52.6-.63.2-.21.58-.24.59-.61.15-.24.1-.67.58-.59.06-.13.18-.2.3-.27.18-.14.35-.28.47-.53.21-.03.34-.15.48-.33.13-.18.27-.41.41-.58l.06.06c.15.2.29.41.43.58.14.17.28.31.45.41.09.05.17.12.25.19.04.04.07.08.1.12l.05.06s.02.03.03.04c.06.11.11.22.21.29.28.06.15.49.44.52.12.19.32.31.42.5.44-.11.28.31.4.48.09.19.46.11.37.45.35-.07.28.24.34.43.05.19.33.16.31.4.26-.03.13.31.29.37 0 .21.19.22.26.34.13.07.2.17.22.31.07.1.13.19.19.28.35.52.51.85.43.92l.03.07z"/><path id="Vector_13" d="M38.55 53.12c0-.11.62-.22 1.76-.32.19-.02.39-.03.61-.05.11-.01.22-.03.34-.04h.46c.13.06.28.02.48-.03.19-.05.41-.11.55-.07 0 .06-.02.12-.04.2-.01.22 0 .41.04.6.03.19.08.39.12.6.08.29-.04.61.13.92.31.29-.25.68.13.99.11.33.12.69.14 1.06-.18.39.07.74.14 1.12-.22.41-.07.8.15 1.19-.32.44-.23.85.15 1.25.05.42-.05.87.15 1.3.07.44.18.89.16 1.36.28.44.32.91.16 1.41.3.45.25.95.16 1.46-.1.51.32.97.16 1.5.03.51.16 1.02.16 1.54-.06.53-.12 1.07.16 1.58.11.53.25 1.06.16 1.62l.04.06.02.03.02.04c.02.08.05.16.07.24.04.16.07.33.1.5-.1.16-.21.32-.32.47l-.09.11-.04.05-.02.03s-.06.07-.1.11c-.14.14-.29.27-.44.4-.29.48-.78.82-.98 1.38-.37.44-.57 1-1 1.4-.1.11-.2.2-.3.32-.16.2-.32.4-.47.6-.3.4-.57.82-.87 1.37-.05.11-.11.21-.17.3-.58-.65-1.12-1.75-1.61-2.32-.12-.6-.72-.85-.96-1.35-.34-.43-.51-.97-.94-1.33-.18-.2-.35-.41-.51-.62-.08-.11-.15-.22-.22-.33l-.18-.29c-.06-.1-.12-.2-.18-.31-.02-.01-.04-.03-.06-.04-.07-.21-.08-.46-.06-.71 0-.14.04-.25.09-.38.09-.25.21-.49.19-.74.22-.49.07-1.01.16-1.5-.03-.5.27-.96.16-1.46.08-.47-.04-.96.16-1.41-.15-.48.25-.9.16-1.36.04-.44.07-.88.15-1.3.35-.4.13-.84.15-1.25.07-.4-.1-.82.15-1.19.06-.38.23-.75.14-1.12-.01-.37.52-.68.14-1.06-.04-.35.38-.64.13-.99-.22-.34.09-.62.13-.92.04-.29.08-.58.12-.85.36-2.42.65-3.8.82-3.79.18.02.19 1.76.06 4.73-.01.3.17.62-.05.93-.03.32.1.67-.05 1 .25.37-.01.7-.06 1.07-.02.37-.15.73-.07 1.13.13.4-.16.78-.08 1.19-.21.39-.21.81-.09 1.25-.21.41-.04.86-.09 1.31-.3.42-.16.89-.1 1.36.05.47-.13.93-.11 1.41-.1.47-.02.97-.12 1.46.08.5.08 1.01-.12 1.5.02.25 0 .5-.03.75-.02.12-.03.25-.05.37 0 .02-.01.04-.02.06 0 0 .03.01.04.02h.01l.03.03c.08.1.15.21.23.33.14.22.28.45.45.66.36.4.4 1.04.96 1.31.35.42.6.92.97 1.34l.03.04.02.03v.04c0 .02.01.04.03.06.02.04.05.07.07.06 0-.02 0-.03.01-.05.03.2.11.14.14.06.02-.04.02-.09.02-.13.06-.13.12-.26.18-.4.27-.52.63-.96 1-1.39.31-.48.65-.93.99-1.37.09-.18.21-.33.33-.48l.1-.11.02-.03h.01s.03-.02.05-.03v-.04s0-.01-.01-.02v-.05l-.03-.06c-.17-.53.03-1.1-.14-1.62-.13-.53-.23-1.05-.14-1.58-.05-.52.16-1.06-.13-1.55-.1-.5-.48-.97-.12-1.5-.15-.48.1-1-.12-1.46.25-.51-.08-.95-.11-1.41.01-.47.07-.93-.1-1.36-.18-.43 0-.89-.09-1.31-.21-.41.14-.86-.09-1.25 0-.41-.1-.8-.08-1.19-.43-.35-.07-.76-.07-1.13.02-.37-.33-.7-.06-1.07-.33-.31-.11-.67-.05-1 .06-.33-.19-.62-.05-.93-.11-.07-.09-.11-.05-.21.04-.09.09-.22.05-.26l.03-.09c-.04-.04-.12-.03-.19-.02-.08.01-.14.03-.2.01-.04.01-.08.02-.11.02h-.14c-.12 0-.23-.03-.34-.07-.22-.02-.42-.03-.61-.05-1.14-.1-1.76-.2-1.76-.32l-.01.03z"/><path id="Vector_14" d="M40.36 6.67c.09.06.07.27-.06.6-.02.06-.04.11-.07.18-.02.07-.03.15-.09.19-.16-.04.12.29-.11.21-.1.02-.11.13-.13.23-.02.1-.19.08-.15.24.15.26-.37-.06-.17.25-.01.13-.1.2-.19.27-.23-.07-.15.17-.21.28-.27-.1-.27.06-.24.28-.34-.17-.39-.04-.25.29-.09.1-.28.08-.28.29-.09.11-.15.25-.3.3.05.27-.08.36-.32.29.05.3-.13.32-.34.3-.21-.02-.11.37-.36.29-.13.08-.23.23-.38.29-.2 0-.39 0-.4.28-.11.14-.21.3-.42.27 0 .33-.22.31-.44.26-.13.12-.37.04-.46.25-.18.04-.26.27-.47.24-.2 0-.39 0-.48.22-.09.24-.35.07-.48.2-.26-.17-.28.21-.48.18-.15.08-.36-.02-.47.16-.14.1-.28.2-.47.14-.03.43-.34 0-.46.13-.2-.11-.29.11-.45.11-.13.11-.34-.1-.44.09-.15 0-.25.19-.43.08-.1.22-.31-.1-.41.06-.13.03-.26.06-.4.05-.18-.28-.26 0-.38.03-.13-.01-.22.21-.36.02-.12 0-.25-.13-.34.01-.11.06-.27-.42-.33 0-.1.09-.23-.29-.3-.01-.07.26-.19-.01-.28-.02-.09 0-.18-.02-.26-.03-.75-.09-1.16-.27-1.15-.43 0-.19.51-.33 1.34-.54.08-.02.15-.24.26-.06.09 0 .17-.18.28-.07.07-.3.19-.07.3-.07.1-.03.22.05.31-.08.08-.18.23.05.33-.09.14.16.25.09.34-.09.15.15.23-.08.36-.1.18.23.27.02.37-.11.11-.13.27-.02.38-.12.15.02.25-.13.39-.13.1-.16.22-.24.4-.14.11-.12.27-.1.41-.14.1-.15.28-.08.41-.16.12-.1.38.16.42-.17.13-.09.3-.07.43-.18.16-.03.32-.05.43-.19.26.2.34-.03.43-.2.11-.15.27-.18.43-.21.13-.09.27-.16.41-.22.09-.15.33-.04.4-.22s.33-.05.39-.23c.08-.15.17-.27.37-.23.12-.08.39.05.36-.23.08-.13 0-.47.35-.23.05-.16.34-.02.33-.24.29.14.22-.16.32-.23.13-.04.29-.05.3-.23 0-.19.24-.11.29-.22-.03-.2.32 0 .27-.22.11-.05.14-.18.26-.21-.21-.35.15-.15.25-.21.11-.04-.06-.33.23-.2-.16-.27.1-.17.22-.18.12-.01.02-.22.2-.18-.11-.2.2-.05.19-.16.16.03.1-.11.18-.14 0-.08.06-.13.16-.13.05-.04.1-.08.14-.11.28-.2.47-.29.56-.22l.01.02z"/><path id="Vector_15" d="M40.36 6.69c.09-.06.28.02.55.22.04.03.09.07.14.11.06.03.12.07.15.13-.07.14.3-.06.17.14 0 .1.1.12.19.16.09.03.04.19.2.18.27-.12-.12.34.22.18.12.02.17.11.23.2-.09.22.13.16.24.21-.11.26.05.26.26.21-.18.34-.05.38.27.22.1.07.09.26.29.22.11.07.24.1.3.23.26-.1.35-.01.32.23.27-.12.3.05.33.24.02.2.35-.02.34.23.1.1.26.12.36.23.06.17.11.35.37.23.16.03.33.03.38.23.27-.15.33.02.4.22.16.03.19.29.41.22.12.11.33.04.42.21.1.15.22.28.42.2.21-.09.25.2.42.19.04.3.31.05.42.18.15.03.23.25.41.17.16 0 .31 0 .41.16.26-.33.24.18.4.15.09.21.28.06.4.14.15-.04.21.25.38.13.12.06.29-.06.38.12.17-.16.21.22.37.11.12.03.24.04.35.1.06.33.22.1.34.09.11.05.25-.14.32.09.1.04.19.19.31.08.11-.03.15.47.29.07.1-.06.16.34.27.07.11-.25.17.05.26.06l.24.06c.68.18 1.08.31 1.09.48 0 .18-.5.38-1.4.46-.09 0-.2.21-.28.02-.09 0-.21.15-.3.01-.13.27-.22.03-.32 0-.11 0-.21-.11-.34-.01-.14.15-.22-.12-.36-.02-.09-.19-.22-.17-.38-.03-.09-.19-.26-.01-.39-.05-.08-.29-.25-.13-.41-.06-.16.06-.27-.11-.42-.08-.13-.08-.3-.01-.43-.09-.18.08-.34.08-.44-.11-.17.03-.3-.07-.45-.13-.18.05-.3-.12-.46-.15-.17 0-.2-.38-.47-.17-.17-.02-.29-.17-.47-.19-.14-.1-.28-.2-.47-.2-.03-.34-.26-.24-.47-.22-.19 0-.33-.13-.47-.24-.17-.05-.31-.16-.45-.26-.19-.01-.23-.27-.43-.27-.21.02-.21-.29-.41-.27-.18-.02-.34-.08-.39-.29-.13-.09-.11-.39-.38-.29-.16-.05-.48.12-.36-.29-.19 0-.11-.34-.33-.3.08-.32-.21-.2-.31-.29-.07-.14-.1-.3-.29-.3-.2.01-.15-.24-.27-.29-.21.03-.03-.34-.24-.29-.06-.11-.19-.16-.23-.28-.37.19-.16-.17-.21-.28-.03-.12-.34.01-.18-.26-.3.12-.17-.13-.17-.25 0-.13-.22-.07-.14-.24-.22.07-.02-.21-.13-.22.06-.15-.09-.13-.11-.21-.08-.03-.11-.1-.09-.19-.03-.06-.05-.12-.07-.18-.12-.33-.14-.54-.05-.6l-.05.01z"/><path id="Vector_16" d="M45.74 27.01c.07.08.04.25-.1.47-.02.04-.05.07-.08.11-.02.05-.05.11-.1.12-.12-.1.04.29-.12.12-.08-.03-.11.06-.14.13-.04.07-.16-.02-.16.13.06.29-.26-.23-.18.13-.04.1-.12.11-.2.13-.16-.17-.15.06-.22.12-.17-.22-.21-.08-.23.12-.2-.31-.26-.23-.25.11-.09.04-.21-.07-.27.11-.09.05-.17.14-.28.1-.04.26-.15.27-.29.09-.05.27-.18.2-.31.08-.13-.13-.18.26-.32.07-.11 0-.21.09-.33.06-.13-.09-.25-.2-.34.05-.11.08-.22.17-.35.04-.1.28-.23.17-.36.03-.12.05-.25-.14-.36.02-.12-.04-.24.13-.37 0-.12-.08-.24-.17-.37 0s-.24-.08-.36-.02c-.1-.26-.24.07-.35-.03-.12.02-.22-.17-.35-.04-.12.04-.24.07-.34-.05-.17.38-.21-.13-.33-.06-.08-.18-.22-.01-.32-.07-.12.05-.17-.22-.31-.08-.09-.05-.23.08-.29-.09-.15.17-.15-.21-.28-.1-.09-.03-.19-.04-.27-.11 0-.32-.16-.11-.25-.11-.07-.06-.23.11-.24-.12-.07-.05-.1-.21-.22-.12-.09 0 .03-.48-.2-.13-.1.04 0-.35-.18-.13-.18.2-.11-.09-.16-.13-.05-.04-.1-.09-.14-.13-.4-.38-.52-.71-.41-.83.13-.15.47-.05 1.02.07.06.01.2-.16.17.04.05.03.18-.1.18.04.17-.24.14 0 .19.04.07 0 .1.12.21.04.12-.13.11.13.22.04.02.19.11.17.23.04.03.19.16 0 .24.04.01.28.14.12.25.03.11-.07.16.08.26.03.08.07.19-.03.27.03.11-.11.21-.14.28.03.11-.07.19 0 .29.02.11-.09.19.04.3.02.1-.04.18.3.3.02.11-.03.2.06.31.01.1.04.21.09.32 0 .1.29.21.11.32 0 .11-.09.21-.04.32 0 .11-.03.21-.02.32 0 .1-.09.22.11.31-.01.09-.13.21.12.3-.02.09-.09.18-.15.3-.02.09-.01.23.23.29-.02.09-.07.12-.41.28-.03.07-.11.22.15.27-.03.15.27.18-.02.26-.03.1.03.2.11.25-.03.04-.16.18.03.24-.04.02-.18.21.16.23-.04.08.01.13-.07.22-.04-.07-.4.13-.05.21-.04.08.03.02-.29.19-.04-.07-.3.09-.09.18-.04.09.05.04-.16.17-.04-.05-.21.15.05.16-.04.11.1.09-.04.15-.03.01-.06.06-.07.13-.03.04 0 .08-.02.12-.02.23-.04.39-.04.46.05l.01.01z"/><path id="Vector_17" d="M44.93 16.71c0 .11-.1.21-.2.35-.01.02-.03.04-.05.07-.01.04-.02.08-.05.07-.05-.06-.03.01 0 .07.02.06.04.1-.04.02-.06-.04-.05.04-.04.09.01.06-.11-.02-.04.1.1.11.03.07-.04.04-.07-.03-.13-.05 0 .07.04.08 0 .09-.03.12-.21-.07-.04.07-.02.13-.26-.07-.17.04-.01.13-.35-.07-.33.02 0 .14 0 .04-.15.07 0 .15.02.05.08.1.02.15.24.05.23.08.03.15.26.02.16.07.05.15-.07.04 0 .05.05.06.05.01.1.02 0 .07 0 .05.09.07.07.13-.08.08-.14.21.08.1.08 0 .16-.04.08.08.11-.09.14-.11.13-.1-.01.01-.05.07-.08.13.02-.02 0 .02 0 .05 0 .03 0 .04.04-.03 0 .02.02 0 .02-.02s.01-.04.02.03c0 .04.02.08.03.09.01 0 .02-.01 0-.1-.02-.09-.01-.07 0-.04.02.03.05.06.04.03.07.11.08.08.05.04-.02-.04-.05-.09 0-.07 0-.03.16.04.08-.08-.01-.06-.04-.12.08-.1-.17-.11-.14-.11-.07-.11s.17.02.14-.02c.17 0 0-.1.06-.14-.03-.03.02-.05.06-.07.04-.02.06-.04-.01-.08.04-.05-.12-.1.03-.15-.2-.04.16-.11.02-.15 0-.05-.03-.09 0-.15.29-.12.03-.11 0-.14.01-.05-.19-.02-.02-.13 0-.05.11-.15-.02-.13-.03 0 .06-.08.1-.13.05-.05.05-.09-.13.02-.04 0 .01-.05.04-.1s.04-.08-.08 0c-.21.15-.02-.06-.04-.1-.01-.03-.03-.06-.04-.09-.12-.26-.33-.4-.33-.57 0-.05.02-.09.06-.13.04-.04.11-.08.2-.1.18-.05.48-.02.78.15.06.03.27-.06.18.12.04.05.23.01.17.15.28-.1.14.11.16.18.06.07 0 .18.15.21.19.02-.01.19.13.24-.14.14-.08.2.1.26-.15.12.07.18.07.28-.25.12-.06.2.05.3.1.11-.04.21.01.32-.06.1.04.23-.03.33.1.14.11.28-.07.34.04.14-.07.24-.13.35.03.17-.14.22-.19.35-.01.07-.12.09-.19.11-.07.03-.13.06-.08.22-.08.13-.27.18-.38.31-.17.06-.33.09-.47.21-.12-.11-.2-.13-.28-.09-.08.03-.15.11-.24.17-.18.08-.37.01-.52-.08a.963.963 0 01-.47-.21c-.1 0-.15-.08-.2-.16-.05-.07-.09-.13-.18-.15-.1 0-.13-.09-.15-.16-.02-.08-.04-.15-.12-.17-.15-.06-.26-.17-.19-.35-.03-.06 0-.14.02-.21 0-.07 0-.12-.14-.14-.05-.05-.15-.08-.21-.13-.05-.05-.05-.12.14-.22-.06-.05-.02-.11 0-.17.03-.06.06-.12-.03-.16.28-.13 0-.21.01-.32.06-.11.16-.19.05-.3-.13-.12.1-.19.08-.28-.08-.07 0-.1.06-.13s.12-.06.05-.13c.07-.07.03-.18.13-.24-.32-.25.08-.16.15-.21.08-.04-.13-.29.16-.18-.2-.24.07-.15.17-.15.11 0 .01-.2.18-.12-.08-.21.18 0 .18-.09.13.08.1-.06.17-.06.03-.07.09-.08.16-.03h.14c.27.03.38.15.38.26v-.02z"/><path id="Vector_18" d="M35.82 16.71c0 .11-.1.21-.2.35-.02.02-.03.04-.05.07 0 .04-.02.08-.05.07-.05-.06-.03.01 0 .07.02.06.04.1-.04.02-.06-.04-.05.04-.04.09.02.06-.11-.02-.04.1.1.11.03.07-.04.04-.06-.03-.13-.05 0 .07.04.08 0 .09-.03.12-.21-.07-.04.07-.02.13-.26-.07-.17.04-.02.13-.35-.07-.33.02 0 .14 0 .04-.15.07 0 .15.01.05.08.1.02.15.24.05.23.08.03.15.26.02.16.07.04.15-.07.04 0 .05.05.06.05.01.1.02 0 .07 0 .05.09.07.07.13-.08.08-.14.21.08.1.08 0 .16-.04.08.08.11-.09.14-.11.13-.1-.01.01-.05.07-.08.13.02-.02 0 .02 0 .05 0 .03 0 .04.04-.03 0 .02.02 0 .02-.02s.01-.04.02.03c0 .04.02.08.03.09.01 0 .02-.01 0-.1-.02-.09-.01-.07 0-.04.02.03.05.06.04.03.07.11.08.08.05.04-.02-.04-.05-.09 0-.07 0-.03.16.04.08-.08-.01-.06-.04-.12.08-.1-.17-.11-.14-.11-.07-.11s.17.02.14-.02c.17 0 0-.1.06-.14-.03-.03.02-.05.06-.07.04-.02.06-.04-.01-.08.04-.05-.12-.1.03-.15-.2-.04.16-.11.02-.15 0-.05-.03-.09 0-.15.29-.12.03-.11 0-.14.01-.05-.19-.02-.01-.13 0-.05.11-.15-.02-.13-.03 0 .06-.08.1-.13.05-.05.05-.09-.13.02-.04 0 .01-.05.04-.1s.04-.08-.08 0c-.21.15-.02-.06-.04-.1-.01-.03-.03-.06-.04-.09-.12-.26-.33-.4-.33-.57 0-.05.02-.09.06-.13.04-.04.11-.08.2-.1.18-.05.48-.02.78.15.05.03.27-.07.18.12.04.05.23.01.17.15.28-.1.14.11.16.18.06.07 0 .18.15.21.19.02-.01.19.13.24-.14.14-.08.2.1.26-.15.12.07.18.08.28-.25.12-.07.2.04.3.1.11-.04.21.01.32-.06.1.04.23-.03.33.1.13.11.28-.07.34.04.14-.07.24-.13.35.03.17-.14.22-.19.35-.01.07-.12.09-.19.11-.07.03-.13.06-.08.22-.08.13-.27.18-.38.31-.17.06-.33.09-.47.21-.12-.11-.2-.13-.28-.09-.08.03-.15.11-.24.17-.18.08-.37.01-.52-.08a.963.963 0 01-.47-.21c-.1 0-.15-.08-.2-.16-.05-.07-.09-.13-.18-.15-.1 0-.13-.09-.15-.16-.02-.08-.04-.15-.12-.17-.15-.06-.26-.17-.19-.35-.03-.06 0-.14.02-.21 0-.07 0-.12-.14-.14-.05-.05-.15-.08-.21-.13-.05-.05-.05-.12.13-.22-.06-.05-.02-.11 0-.17.03-.06.06-.12-.03-.16.28-.13 0-.21.01-.32.06-.11.16-.19.05-.3-.13-.12.1-.19.08-.28-.07-.07 0-.1.06-.13s.12-.06.05-.13c.07-.07.03-.18.13-.24-.33-.25.08-.16.15-.21.08-.04-.13-.29.16-.18-.2-.24.07-.15.17-.15.11 0 .01-.2.18-.12-.08-.21.18 0 .18-.09.13.08.1-.06.17-.06.03-.07.09-.08.16-.03h.15c.27.03.38.15.38.26l.01-.02z"/><path id="Vector_19" d="M41.07 24.26a.4.4 0 01-.16.32c-.02.02-.04.03-.07.05-.03.03-.06.06-.08.05.01-.15-.12.27-.09.04 0-.06-.05 0-.1.04-.05.05-.03-.09-.11.04-.07.14-.06.06-.05 0 .01-.07.02-.13-.08.05-.08.08-.11.06-.14.04.08-.22-.08 0-.15.04.12-.26.01-.15-.16.03.2-.36.14-.31-.18.03-.06.01 0-.13-.18.03-.08.02-.2.09-.2.03-.29.24-.36.23-.2.03-.34.26-.31.16-.21.02.11-.15-.41.23-.22.02-.02 0-.08 0-.13.02 0-.02 0-.05.03-.1.16-.17.33-.32.04-.19-.06-.01-.15-.02.04-.2-.32.13-.14-.05.05-.21-.03-.05.22-.22.06-.21.07-.09-.1-.1.06-.22.12-.11.23-.2.07-.22-.18-.03.12-.17.07-.22.15-.06.14-.08.1-.11-.04-.03-.09-.06-.03-.1 0-.07.19-.14.07-.21-.03-.07-.06-.15.07-.2-.19-.06-.15-.1-.08-.12.07-.02.18-.03.15-.07.18 0 0-.08.05-.11-.06-.05.2-.02.05-.09.04-.02-.1-.1.05-.09-.18-.09.18-.02.05-.09 0-.03 0-.06.05-.08.31.06.07-.04.05-.08.04-.02-.15-.1.06-.07.03-.02.17 0 .06-.07-.04-.04.45.07.06-.06-.07-.05.32.04.06-.06-.24-.09.04-.04.06-.05.02-.02.04-.03.06-.05.18-.13.36-.19.52-.14.18.05.31.22.39.46 0 .03.21.11.02.08 0 .02.15.09.02.08.27.1.04.06.02.08 0 .03-.09.03.01.09.15.07-.09.03 0 .09-.18-.02-.14.02 0 .1-.17-.02.02.07 0 .1-.26-.04-.09.04 0 .1.08.06-.06.06 0 .11-.06.02.04.09 0 .11.11.07.14.13 0 .1.08.03.01.01.01.02.1.02-.02 0 0 .02.06 0-.3.02 0 .02.04 0-.05.02 0 .01-.04.01-.09.03 0 .01-.33.09-.13.06 0 .01.1-.03.05-.01 0 .01.03 0 .01 0 0 .02.1-.05-.16.1-.01.02.15-.09-.17.12-.02.02.11-.06.17-.11-.02.03-.02.02-.08.07-.13.1-.05.04-.05.05.12-.08.09-.06.47-.38 0 .02.12-.1-.2.19 0 .02-.3.3 0 .02 0 .02-.05.06-.12.16 0 .03.13-.14-.05.08 0 .03.13-.17-.14.22 0 .03-.01.04.04-.03 0 .03.25-.4.01 0 0 .04-.01.06.15-.26.01.04.14-.3.03-.04.02.04-.02.09.06-.13.02.04.08-.21-.01.12.02.04-.03.14.02 0 .02.05.02-.05.02-.03.02.05 0 .02.02.03.02.05.04.1.09.2.09.32v-.02z"/></g><defs><clipPath id="clip0_1379_80"><path fill="#fff" d="M0 0h71.31v85.45H0z"/></clipPath></defs></svg>