<svg width="139" height="55" fill="none" xmlns="http://www.w3.org/2000/svg"><g clip-path="url(#clip0_1646_6298)" fill="#CED5E0"><path d="M109.977 2.337s1.227-2.498 4.652-2.329c0 0 1.058 1.27-.169 2.625-1.226 1.356-4.483-.296-4.483-.296z"/><path d="M138.491 30.933c-.085-.236-.186-.417-.304-.523-1.057-.96-1.213-1.867-1.213-1.867v-5.011c0-1.351-3.101-1.254-6.467-2.234-3.365-.98-4.901-3.604-4.842-4.485.058-.882 1.839-1.431 6.182-1.156 4.343.274 3.678-.412 3.678-.412-2.407-1.37-1.664-.293-6.182-2.135-4.52-1.842-8.57-6.015-8.57-6.015s5.986-2.507 5.184-3.33c-.801-.823-18.176-2.312-34.163-2.312-15.987 0-21.796.588-25.494 1.116-3.698.53-16.18 5.447-21.111 9.345-4.931 3.898-10.78 5.7-11.642 6.073-.86.373-7.964 1.194-16.963 2.822-9 1.625-12.6 4.505-12.6 4.505S1.44 27.666.326 33.464a18.242 18.242 0 00-.29 2.156c-.3 4.168 1.276 5.768 1.58 6.328.353.646-.545 1.332-.545 1.332-.979.588-.937 1.041-.937 1.041-.059 1.88 12.155 3.47 12.155 3.47S10.375 29.255 25.6 29.679c15.225.424 13.917 17.497 13.917 17.497l1.776-.027c.589-.432 1.698-.888 3.785-1.106 4.602-.481 48.824-1.825 50.67-1.418.831.184 1.241.92 1.441 1.672l1.9-.029s-.906-19.721 14.258-18.45c15.165 1.27 13.176 16.227 13.176 16.227 1.057-.647 5.479-1.666 6.926-2.018 1.448-.353 3.953-3.115 4.735-3.448.695-.296.989-5.758.304-7.645h.003z"/><path d="M96.147 43.393c.072.238 2.945 2.876 2.945 2.876s3.076.07 3.903-.437c.828-.507 20.408-1.887 20.408-1.887s2.794.501 3.512-.095c.716-.595 3.52-13.068 3.52-13.068l-20.085-8.605S92.93 32.623 96.147 43.392zm28.865-39.349s.856-.422 1.002 0c.147.423-1.002 2.057 4.074 5.747s4.47 5.565 4.47 5.565l-14.621-3.81s-3.202-6.595 5.075-7.502z"/><path d="M133.591 15.054s2.598 0 3.081 1.39c.484 1.391.363 7.079 0 7.502-.362.424-14.682-5.143-14.682-5.143s3.022-5.142 11.601-3.75zM10.288 43.348s1.293 4.336 2.002 4.446c.71.11 2.778-.443 3.422-.534.645-.093 18.57 3.192 18.57 3.192s4.274-1.486 5.79-3.811c1.518-2.325 2.897-16.039 2.897-16.039l-16.34-2.807-7.652 1.38-5.653 5.154-3.034 9.02-.002-.001zm83.906 1.382l-.136-.208c.024-.016 2.46-1.631 2.968-3.082.044-.125.107-.346.185-.624.428-1.513 1.43-5.056 3.659-8.26 2.785-4.007 6.505-6.128 11.059-6.306 6.045-.236 9.842 2.28 11.962 4.43 2.06 2.091 2.978 4.257 3.152 4.698 4.605.098 11.467-.16 11.717-1.278l.243.054c-.061.274-.249 1.113-6.215 1.396-2.906.138-5.805.076-5.835.076h-.085l-.029-.083c-.008-.024-.871-2.403-3.132-4.695-2.083-2.111-5.818-4.58-11.767-4.348-6.988.274-11.862 5.113-14.487 14.386a12.74 12.74 0 01-.19.638c-.535 1.53-2.964 3.14-3.066 3.209l-.003-.003z"/><path d="M11.672 34.158s3.884-9.218 13.207-8.012c9.323 1.206 17.869 8.012 17.869 8.012s0 4.473 20.393 3.112c20.393-1.36 29.911-2.333 29.911-2.333s2.913-1.167-6.603-.972c-9.518.195-35.738 0-35.738 0s-7.963-1.674-7.38-5.99c.582-4.317 19.422-.186 31.658-1.474 12.236-1.287 26.998 1.426 26.998 1.426s6.41-6.173 12.819-4.248c6.41 1.924 13.087 8.148 13.924 8.148.684 0 7.431.735 9.763-.892-.086-.236-.187-.417-.305-.524-1.056-.96-1.213-1.866-1.213-1.866v-5.011c0-1.351-3.101-1.254-6.466-2.234-3.366-.98-4.901-3.604-4.843-4.486.058-.88 1.84-1.43 6.182-1.155 4.344.274 3.679-.412 3.679-.412-2.408-1.37-1.664-.293-6.183-2.135-4.52-1.842-8.569-6.015-8.569-6.015s5.986-2.507 5.184-3.33c-.802-.823-18.177-2.312-34.164-2.312-15.987 0-21.795.588-25.493 1.116-3.699.53-16.18 5.447-21.112 9.345-4.93 3.898-10.78 5.7-11.642 6.073-.86.373-7.963 1.194-16.962 2.822-9 1.625-12.6 4.505-12.6 4.505s-2.544 2.352-3.659 8.15c-.15.786-.243 1.502-.29 2.156 2.367-.901 7.789-2.648 11.634-1.464h.001z"/><path d="M128.729 31.826c-.837 0-7.514-6.223-13.924-8.148-6.409-1.923-12.819 4.248-12.819 4.248S87.224 25.213 74.988 26.5c-12.236 1.288-31.076-2.843-31.658 1.473-.584 4.317 7.38 5.99 7.38 5.99s26.22.196 35.738 0c9.516-.194 6.603.973 6.603.973s-9.518.972-29.911 2.333c-20.394 1.361-20.394-3.112-20.394-3.112s-8.545-6.806-17.868-8.012c-9.323-1.206-13.207 8.012-13.207 8.012-3.845-1.184-9.266.563-11.634 1.464-.298 4.168 1.277 5.768 1.582 6.328.352.646-.546 1.332-.546 1.332-.979.588-.937 1.041-.937 1.041-.059 1.88 12.155 3.47 12.155 3.47S10.377 29.255 25.602 29.68c15.225.424 13.917 17.497 13.917 17.497l1.776-.027c.588-.432 1.697-.888 3.785-1.106 4.602-.481 48.824-1.825 50.67-1.418.832.184 1.241.92 1.441 1.672l1.9-.029s-.906-19.721 14.258-18.45c15.165 1.27 13.176 16.226 13.176 16.226 1.057-.646 5.479-1.665 6.926-2.017 1.447-.353 3.953-3.115 4.735-3.448.695-.296.989-5.758.304-7.645-2.332 1.628-9.078.892-9.762.892h.001z"/><path d="M95.75 44.627c-1.843-.408-46.065.936-50.67 1.417-2.088.218-3.195.674-3.784 1.107l55.896-.852c-.2-.753-.61-1.487-1.441-1.671v-.002zM2.149 30.537s-.126-2.684 2.321-4.49c2.447-1.807 12.505-4.58 13.22-3.739.716.842-2.233 2.003-3.055 2.774-.822.768-5.181 5.241-7.396 5.455-2.216.215-5.29 1.542-5.093.071m-1.32 6.225c-.196-.18-.357-.518.43-.662.786-.144 2.982-.305 2.982-.305s.929-.07 1.644.967c.715 1.038 1.537 3.022 1.537 3.022s.929 1.54-.518 1.556c-1.446.017-5.073 0-5.073 0s.804-.43.643-1.215c-.16-.788-.84-2.935-.84-2.935s-.607-.25-.804-.43l-.001.002z"/><path d="M1.881 36.744L3.4 40.303s.196.501 1.053.43c.858-.071 2.215.107 2.215.107s.482.16 0-.752c-.482-.913-1.929-3.452-1.929-3.452s-.018-.107-.857-.18c-.84-.07-2.251.197-2.251.197s.054.142.25.09v.001zM38.65 18.96s8.788-6.676 13.914-9.27c5.126-2.592 8-4.03 15.026-5.244 7.027-1.214 14.573-.857 14.573-.857h15.843s11.794.187 14.51 1.91c2.716 1.722 4.51 3.463 4.237 4.297-.272.834-4.347 3.88-7.371 4.315-3.024.436-24.684 2.702-24.684 2.702l-21.46 1.959-22.73 1.741s-1.973.35-2.236-.558c-.163-.562.378-.995.378-.995z"/><path d="M42.45 20.467l1.269-4.083s8.882-6.154 11.419-7.16c2.538-1.007 9.128-4.546 22.372-4.275 0 0 11.13-.837 24.552-.488l3.464 10.017 1.179-.181-4.26-10.442S69.546 2.319 60.303 6.22c-9.243 3.902-23.11 12.341-21.84 13.974l3.987.272z"/><path d="M75.212 4.435l-3.194 13.387 6.955-.62V4.406l-3.76.029zm23.481 10.939l-.544-.035.671-10.949.544-.192-.671 11.176zm3.776-10.989s1.471-.03 2.758.078c1.287.109 4.587.091 7.786 2.278s2.874 3.888 2.731 4.164c-.142.276.552-.198.552-.198l.152-1.168-2.421-3.17-3.787-1.667-8.161-.95.387.634.003-.001z"/><path d="M107.859 4.466s3.827.253 6.719 3.354c2.3 2.466 1.502 2.992 0 4.026-1.503 1.034-4.129 2.14-4.129 2.14s6.266-1.976 6.755-3.881c.489-1.904-3.224-5.766-9.345-5.64zm-70.091 38.44C37.768 49.586 32.361 55 25.69 55c-6.671 0-12.079-5.414-12.079-12.094S19.02 30.813 25.69 30.813s12.078 5.414 12.078 12.093z"/><path d="M16.595 42.906c0 5.045 4.085 9.135 9.125 9.135s9.124-4.09 9.124-9.135-4.085-9.136-9.124-9.136c-5.039 0-9.125 4.09-9.125 9.136z"/><path d="M22.553 36.78l2.111 2.404s.366.576.865.576.864-.404.864-.404l2.208-2.575s.307-.365 0-.615-1.385-.615-2.88-.615c-1.496 0-3.704.404-3.167 1.23h-.001zm-.001 12.251l2.111-2.403s.366-.576.865-.576.864.403.864.403L28.6 49.03s.307.366 0 .615c-.307.25-1.385.615-2.88.615-1.496 0-3.704-.404-3.167-1.23l-.001.001zm9.358-9.178l-2.4 2.114s-.575.366-.575.864c0 .499.403.866.403.866l2.572 2.21s.366.308.615 0c.25-.307.615-1.386.615-2.883 0-1.498-.403-3.709-1.228-3.17h-.002zm-12.233-.002l2.4 2.114s.576.366.576.864c0 .499-.404.866-.404.866l-2.572 2.21s-.366.308-.614 0c-.25-.307-.615-1.386-.615-2.883 0-1.498.404-3.709 1.229-3.17zm105.239 1.629c0 6.68-5.407 12.094-12.079 12.094-6.671 0-12.078-5.414-12.078-12.094s5.407-12.093 12.078-12.093c6.672 0 12.079 5.414 12.079 12.093z"/><path d="M103.742 41.48c0 5.045 4.085 9.135 9.126 9.135 5.04 0 9.123-4.09 9.123-9.135s-4.084-9.135-9.123-9.135-9.126 4.09-9.126 9.135z"/><path d="M109.7 35.355l2.111 2.404s.364.576.863.576.865-.403.865-.403l2.208-2.575s.307-.364 0-.615c-.307-.25-1.385-.615-2.881-.615-1.496 0-3.704.404-3.166 1.23v-.002zm0 12.25l2.111-2.403s.366-.577.865-.577.864.403.864.403l2.207 2.575s.307.366 0 .615c-.307.25-1.385.615-2.881.615-1.496 0-3.704-.404-3.166-1.23v.002zm9.358-9.179l-2.4 2.114s-.576.366-.576.864c0 .499.404.866.404.866l2.572 2.211s.365.307.614 0c.25-.308.616-1.387.616-2.884 0-1.498-.404-3.709-1.229-3.17h-.001zm-12.233 0l2.4 2.114s.576.366.576.866-.403.865-.403.865l-2.572 2.211s-.365.307-.614 0c-.25-.307-.614-1.387-.614-2.884 0-1.498.403-3.709 1.228-3.17l-.001-.002zm-62.761 8.358c-2.443-5.07-3.794-9.346-3.936-17.395-.15-8.39 3.147-14.024 3.18-14.08l.214.129c-.033.055-3.293 5.632-3.145 13.947.142 8.003 1.484 12.253 3.911 17.293l-.224.108v-.002zm31.31-1.721c-.009-.034-.89-3.42-1.33-5.264-.439-1.84-.05-5.306-.05-5.54V20.933c0-.962 1.194-2.902 1.339-3.144l2.033-14.021.259.035-2.01 14.071-.01.021c-.014.022-1.268 2.102-1.268 3.037V34.28c-.004.036-.436 3.64-.002 5.46.439 1.844 1.272 5.229 1.28 5.263l-.241.06v.001zm31.428-17.194l-.196-.152c.614-.79.977-8.233.966-9.893-.009-1.392-1.459-3.292-1.473-3.31l-.019-.033-3.842-10.238.233-.089 3.837 10.222c.15.198 1.504 2.021 1.514 3.445.006 1.004-.287 9.107-1.018 10.046l-.002.002z"/><path d="M39.69 20.71c-.873 0-1.406-.249-1.542-.718-.185-.638.396-1.112.42-1.132.09-.069 8.86-6.715 13.937-9.284 5.136-2.598 7.965-4.03 15.062-5.256 4.34-.75 8.862-.84 11.89-.84 1.65 0 2.7.119 2.71.119h15.837c.485 0 11.864.138 14.579 1.86 2.301 1.458 4.636 3.359 4.293 4.414-.284.874-4.432 3.949-7.476 4.386-2.992.43-24.473 2.67-24.689 2.693L63.25 18.907l-22.731 1.738s-.377.064-.828.064zM79.457 3.608c-3.018 0-7.524.188-11.846.933-7.058 1.22-9.876 2.661-14.99 5.248-5.055 2.558-13.805 9.198-13.893 9.263-.002.002-.468.39-.332.86.128.439.775.534 1.294.534.427 0 .79-.063.795-.064l22.742-1.741 21.459-1.957c.214-.023 21.69-2.271 24.677-2.701 3.037-.437 7.037-3.522 7.266-4.227.237-.729-1.483-2.495-4.185-4.208-2.656-1.684-14.325-1.95-14.443-1.95h-15.84c-.018 0-1.061.011-2.705.011l.001-.001zM11.153 42.177H1.569c-.068 0-.125-.074-.125-.142 0-.068.056-.142.125-.142h9.471c.074-.712.52-3.706 2.342-6.704 1.878-3.09 5.643-6.798 12.912-6.8 6.16 0 9.66 3.38 11.512 6.226 2.002 3.077 2.558 6.19 2.564 6.221a.12.12 0 01-.101.141.125.125 0 01-.144-.102c-.005-.032-.554-3.108-2.53-6.143-1.819-2.79-5.256-6.119-11.3-6.117-7.153 0-10.854 3.617-12.7 6.652-2.002 3.293-2.316 6.695-2.319 6.728-.005.064-.06.182-.123.182z"/><path d="M44.196 20.119s.696-4.475 3.572-5.041c2.875-.565 3.41 2.091 3.44 2.262.03.172.545 2.424-1.704 2.777-2.25.353-5.336 1.132-5.306 0l-.002.002zm18.568 2.428c-.024-.753 1.673-1.287 3.637-1.505 1.965-.217 3.928-.072 4.1.51.17.582-1.53 1.992-3.868 1.943-2.34-.048-3.845-.193-3.87-.946v-.002z"/><path d="M63.41 22.596s.211-.655 2.951-.995c2.741-.34 3.444-.34 3.444 0s-1.213.97-1.916.995c-.703.024-4.566.656-4.478 0zm32.632-3.55c-.024-.753 1.674-1.287 3.639-1.506 1.965-.22 3.928-.072 4.099.51.169.582-1.529 1.991-3.869 1.942-2.34-.049-3.845-.194-3.869-.947v.001z"/><path d="M96.69 19.095s.211-.655 2.951-.995c2.742-.34 3.444-.34 3.444 0s-1.213.97-1.915.995c-.704.024-4.567.656-4.48 0z"/></g><defs><clipPath id="clip0_1646_6298"><path fill="#fff" d="M0 0h139v55H0z"/></clipPath></defs></svg>