<svg width="129" height="39" fill="none" xmlns="http://www.w3.org/2000/svg"><g clip-path="url(#clip0_1646_5987)" fill="#CED5E0"><path d="M89.19 1.638S91.01.198 91.453.094c.442-.104.8-.189.8.12 0 .308-.766 1.458-.664 1.886.101.428-2.4-.464-2.4-.464v.002zM114.835 32.1l-2.482 2.239-3.864.253-18.685-.364-55.542-.5-1.474.5s-2.237-.061-3.15.006c-.913.068-13.97.358-13.97.358s-2.736.138-3.577.708l-2.455-4.717 2.018-11.33s6.529-2.847 7.043-2.906c.514-.058 10.491-.348 10.491-.348l17.072 1.653 51.289-3.049 15.904.408 1.385 17.09h-.003zm12.696-4.444s-.356.983-.295 1.248c.062.265.743.671.743 1.123 0 .452-.743 1.872-1.502 1.965 0 0-.248 1.248-1.084 1.248-.835 0-6.331.173-6.331.173s5.945-6.567 8.469-5.756zm-92.29-15.191s2.912-2.6 5.758-3.934c2.847-1.334 12.656-6.72 16.35-7.328 3.694-.608 2.746 2.927 2.746 3.027 0 .1-23.993 13.804-24.854 8.235zm84.151 1.085h5.538l.43.269s1.919 1.442.43 4.71c-1.489 3.269-8.857-.292-6.397-4.978h-.001zM92.96 2.73l2.582-.1s12.534 3 20.419 7.134c7.885 4.136-4.732 2.368-4.732 2.368S91.836 4.963 92.961 2.73h-.001z"/><path d="M34.078 11.275s1.693-.523 2.321 0c.629.523.43 1.19.43 1.19l-2.75-1.19z"/><path d="M12.088 35.301S.168 34.437.002 32.27c0 0-.069-.466.56-.766 0 0-.4-7 .56-9.168.96-2.167.894-4.834 5.791-6.668 4.898-1.834 16.613-4.001 27.436-4.4 0 0 2.614.9 4.004.867 0 0 15.555-9.47 19.361-9.703 0 0-1.059-.733-.794-1.067.265-.334 9.3-1.9 20.717-1.166C89.054.93 95.54 2.632 95.54 2.632s-1.687.834-1.457.967c.233.132 17.607 5.935 17.607 5.935s2.548.533 3.938-.067c0 0 3.077.834 3.938.9.861.067 5.229-.1 5.295.433.067.534-.066 1.5.166 1.7.232.2 1.422 2.068 1.059 2.7l-.728-1.4s-6.089.301-6.188 1.067c-.099.767.529 2.768.86 3.135.331.366 5.958.134 5.958.134s.398 2.7.927 3.067 2.118.667 2.085 1.634c-.033.967.099 4.968-1.489 5.235 0 0-1.853-.234-3.077 1.234-1.225 1.467-2.615 3.533-5.13 4.134-2.515.6-6.95.9-6.95.9s1.125-14.476-10.789-14.81c-11.914-.333-11.417 14.7-11.417 14.7H32.787s3.017-14.995-10.452-15.528c-13.47-.534-10.245 16.6-10.245 16.6h-.002z"/><path d="M87.11 3.464C82.753 2.41 68.458 1.181 61.615 2.63c-6.842 1.449-13.86 4.04-20.396 9.528l1.268-.026c1.536-1.254 5.423-4.115 11.458-6.473 7.975-3.117 13.25-3.381 19.48-3.03 6.234.353 12.247.528 16.17 2.46 3.922 1.932 8.236 4.83 7.931 5.138-.267.269-17.779 1.047-22.04 1.233l21.648-.441s1.35-.046 1.35-.616-7.016-5.884-11.374-6.938v-.001zm-45.368 9.308L74.559 11.5l.927-.039-33 .673c-.494.403-.746.64-.746.64h.002z"/><path d="M89.594 5.089c-3.922-1.932-9.937-2.107-16.168-2.46-6.233-.35-11.506-.087-19.481 3.03-6.033 2.36-9.922 5.22-11.458 6.473l33-.673c4.261-.185 21.772-.963 22.04-1.234.305-.307-4.01-3.205-7.931-5.137l-.002.001z"/><path d="M49.02 11.018s7.889-5.402 14.033-6.456c6.145-1.053 13.292-.483 13.292-.483s-1.438 7.157-2.048 7.464c-.61.308-26.574.482-26.574.482l1.297-1.007zm31.161-6.675l-.915 6.454 13.902-.483s1.438.043 1.438-.484S88.2 3.903 80.181 4.342v.001z"/><path d="M51.43 10.578c.037-.228.03-.477-.039-.747-.332-1.301-1.12-2.578-3.003-1.921-1.883.656-2.154 1.686-2.399 2.69 0 0-1.02-.285-1.107.173-.052.276.128.661.39.946 1.935.313 4.575-.528 6.158-1.141z"/><path d="M45.273 11.717c.175.19.388.334.595.37.516.086 1.44.273 1.772.123.333-.148 1.944.046 2.46-.095.41-.111 1.191-.664 1.332-1.538-1.583.614-4.222 1.454-6.159 1.142v-.002zM4.078 18.173s-1.427.474-2.094 2.617c-.665 2.142.146 1.635.455 1.537.31-.099 4.756-.556 5.438-.639.682-.081.6-.67.795-.98.195-.312 2.046-2.405 1.543-2.945-.504-.54-5.309.016-6.137.409v.001zM.962 26.775s.065 3.221.34 3.695c.277.475.957.949 1.997 1.08 1.039.132 3.003.294 3.164-1.063.163-1.356.438-3.908.438-3.908s-6.021-.098-5.94.196h.001z"/><path d="M33.01 31.922v-.149l6.635-.068c-.936-1.437-.845-4.524-.841-4.658-.003-.085-.252-9.072.352-11.638.61-2.588 2.675-3.68 2.696-3.691.06-.037 6.498-3.992 8.342-5.004 4.39-2.41 8.636-3.91 11.951-4.23 4.786-.46 15.06-.263 15.162-.26.385.037 9.32.898 11.047 1.631 1.72.73 7.72 4.424 7.78 4.462.088.044 2.273 1.16 2.395 1.95a.416.416 0 01-.13.379c-.522.513-2.05.494-3.985.469a52.277 52.277 0 00-2.523.009c-2.668.096-14.822.382-15.86.407 0 .185.028.724.373 1.197.06.083.125.167.191.254.427.553.957 1.24.858 2.267-.02.209-.041.613-.073 1.174-.136 2.498-.422 7.692-1.317 9.802-1.124 2.65-1.748 3.651-3.228 4.37-1.498.727-4.206 1.068-6.106 1.03-1.825-.038-33.402.294-33.721.298l.001-.001zM72.175 2.33c-3.305 0-7.451.058-10.015.304-3.298.316-7.522 1.813-11.896 4.213-1.84 1.01-8.274 4.963-8.34 5.002-.024.013-2.031 1.077-2.624 3.596-.6 2.546-.351 11.512-.349 11.603 0 .038-.096 3.3.871 4.656 9.476-.096 25.62-.254 26.91-.227 1.881.038 4.56-.299 6.04-1.016 1.438-.697 2.05-1.684 3.156-4.296.884-2.084 1.168-7.262 1.305-9.75.032-.562.054-.968.073-1.18.093-.966-.396-1.6-.828-2.162a17.436 17.436 0 01-.194-.256 2.192 2.192 0 01-.399-1.363l.005-.066h.067c.132-.005 13.155-.311 15.929-.41.854-.03 1.705-.02 2.53-.01 1.825.025 3.401.044 3.881-.426.073-.07.1-.154.086-.25-.091-.593-1.706-1.531-2.32-1.843-.065-.04-6.056-3.728-7.766-4.453-1.705-.724-10.904-1.61-10.997-1.62-.046 0-2.273-.043-5.125-.043V2.33zM31.877 28.568c0 5.146-4.14 9.317-9.248 9.317-5.107 0-9.247-4.17-9.247-9.317 0-5.145 4.14-9.316 9.247-9.316 5.108 0 9.248 4.17 9.248 9.316z"/><path d="M15.665 28.569c0 3.887 3.128 7.037 6.986 7.037 3.859 0 6.986-3.15 6.986-7.038 0-3.887-3.127-7.037-6.986-7.037-3.858 0-6.986 3.15-6.986 7.038z"/><path d="M20.227 23.85l1.617 1.85s.28.445.661.445c.382 0 .661-.311.661-.311l1.69-1.984s.235-.281 0-.474c-.234-.192-1.06-.475-2.205-.475s-2.836.312-2.424.948zm0 9.437l1.617-1.85s.28-.445.661-.445.661.311.661.311l1.69 1.984s.235.281 0 .474c-.234.192-1.06.475-2.205.475s-2.836-.312-2.424-.947v-.002zm7.164-7.071l-1.837 1.63s-.44.28-.44.665.308.666.308.666l1.97 1.703s.278.236.469 0c.191-.237.47-1.068.47-2.222 0-1.153-.309-2.857-.941-2.442h.001zm-9.366 0l1.838 1.63s.44.28.44.665-.309.666-.309.666l-1.969 1.703s-.279.236-.47 0c-.19-.237-.471-1.068-.471-2.222 0-1.153.309-2.857.941-2.442zm92.703 3.468c0 5.145-4.14 9.316-9.247 9.316-5.108 0-9.248-4.17-9.248-9.316 0-5.146 4.14-9.317 9.248-9.317 5.107 0 9.247 4.171 9.247 9.317z"/><path d="M94.518 29.684c0 3.887 3.128 7.037 6.986 7.037 3.858 0 6.985-3.15 6.985-7.037s-3.127-7.038-6.985-7.038c-3.858 0-6.986 3.152-6.986 7.038z"/><path d="M99.08 24.965l1.617 1.851s.279.444.661.444.661-.311.661-.311l1.69-1.985s.235-.281 0-.474c-.235-.193-1.06-.474-2.205-.474s-2.836.311-2.424.947v.002zm-.001 9.437l1.616-1.85s.28-.445.662-.445.662.312.662.312l1.69 1.985s.236.28 0 .474c-.235.192-1.06.474-2.205.474s-2.836-.311-2.424-.947l-.001-.003zm7.165-7.071l-1.837 1.63s-.441.28-.441.665.309.666.309.666l1.969 1.703s.279.236.469 0c.192-.237.471-1.068.471-2.222 0-1.153-.309-2.857-.942-2.442h.002zm-9.366.001l1.837 1.629s.44.28.44.666c0 .385-.308.666-.308.666l-1.969 1.702s-.28.237-.47 0c-.191-.236-.472-1.068-.472-2.223 0-1.154.31-2.857.942-2.442v.002z"/></g><defs><clipPath id="clip0_1646_5987"><path fill="#fff" d="M0 0h129v39H0z"/></clipPath></defs></svg>