<svg width="119" height="42" fill="none" xmlns="http://www.w3.org/2000/svg"><g clip-path="url(#clip0_1646_6409)" fill="#CED5E0"><path d="M.962 35.13c.382-.124.328-1.227.297-2.923-1.171.469.432-8.405 1.451-10.864.845-2.037 3.849-6.662 32.59-7.582C45.754 7.584 58.189-.472 71.99.021c20.408.729 28.018 4.7 33.379 7.835 5.434 3.178 7.474 7.366 7.802 8.702 2.058.246 3.554 2.817 3.913 6.14.668.48.542 5.064.542 5.064 1.898 0 1.396 5.421 1.013 6.43-.823 2.165-4.952 2.567-12.399 3.224-7.447.657-58.659.263-71.593-.13C21.713 36.89-5.44 37.233.96 35.13h.001z"/><path d="M98.401 21.12c-6.132 0-11.105 5-11.105 11.17 0 .35-.07 2.688-.142 5.472 9.21-.025 16.596-.126 19.087-.346a88.687 88.687 0 003.319-.349c-.023-2.383-.054-4.333-.054-4.775 0-6.169-4.971-11.17-11.105-11.17v-.002zm-71.07 0c-6.132 0-11.105 5-11.105 11.17 0 .31-.024 2.418-.086 4.776 5.889.178 12.604.039 18.508.22 1.045.03 2.343.064 3.845.094-.023-2.524-.057-4.628-.057-5.09 0-6.168-4.971-11.17-11.105-11.17z"/><path d="M28.372 41.93c5.193-.643 8.883-5.4 8.243-10.623-.64-5.223-5.369-8.935-10.561-8.29-5.192.643-8.883 5.4-8.242 10.623.64 5.223 5.368 8.935 10.56 8.29z"/><path d="M27.215 25.11c-4.041 0-7.317 3.296-7.317 7.361 0 4.066 3.276 7.362 7.317 7.362s7.318-3.296 7.318-7.362c0-4.065-3.277-7.36-7.318-7.36zm5.81 10l-.763-.556.927.15a6.533 6.533 0 01-.165.407zm-2.654-1.935l-.947-.69.947-.69 3.112-.499a6.5 6.5 0 01.111 1.175c0 .403-.042.812-.115 1.202l-3.107-.498zm-9.12 1.553l1.075-.172-.88.64a6.207 6.207 0 01-.196-.468zm-.295-1.03a6.369 6.369 0 01-.004-2.427l3.266.523.947.69-.947.691-3.262.523zm.48-3.932l.89.648-1.085-.173c.06-.162.125-.32.196-.475zm11.762.498l-.936.15.772-.564c.06.135.114.273.164.414zm-.677-1.352l-2.567 1.872-1.154.185.185-1.16 1.874-2.601a6.43 6.43 0 011.663 1.704zm-3.169-1.425l.158-.998c.146.057.288.119.427.186l-.585.811zm-.864-1.304l-.508 3.207-.686.953-.687-.953-.512-3.23a6.306 6.306 0 011.119-.105c.436 0 .861.045 1.273.129l.001-.001zm-3.252 1.303l-.626-.868a5.95 5.95 0 01.46-.183l.166 1.053v-.002zm-1.56-.353l1.929 2.674.184 1.16-1.155-.185-2.672-1.948a6.433 6.433 0 011.714-1.703v.002zm-1.7 8.99l2.658-1.938 1.154-.186-.184 1.161-1.915 2.655a6.406 6.406 0 01-1.715-1.693l.001.002zm3.261 1.359l-.162 1.026a6.524 6.524 0 01-.45-.178l.612-.848zm.864 1.3l.507-3.204.687-.952.686.952.504 3.18a6.35 6.35 0 01-1.27.127c-.38 0-.752-.04-1.114-.104v.001zm3.252-1.3l.571.791a6.082 6.082 0 01-.416.18l-.155-.971zm1.494.26l-1.861-2.582-.184-1.162 1.154.186 2.554 1.863a6.415 6.415 0 01-1.664 1.694v.001z"/><path d="M28.608 35.672l1.092 1.514-.799.333-.293-1.846zm-3.716 1.514l1.092-1.514-.292 1.847-.798-.333h-.002zm2.404-3.593l-1.064 1.476.285-1.8-1.79.287 1.468-1.07-1.469-1.072 1.791.288-.285-1.8 1.064 1.476 1.063-1.476-.284 1.8 1.789-.286-1.468 1.07 1.466 1.07-1.788-.288.284 1.8-1.064-1.475h.002zm3.169.213l1.834.295-.33.803-1.504-1.098zm-8.172.295l1.835-.295-1.505 1.097-.33-.803zm0-3.23l.331-.803 1.505 1.098-1.836-.294zm9.677-.803l.33.804-1.834.294 1.504-1.097zm-3.069-2.616l.799.333-1.091 1.514.291-1.846h.001zm-4.007.333l.797-.332.293 1.846-1.09-1.514z"/><path d="M27.215 24.294c4.867 0 8.83 3.84 9.086 8.67.009-.164.026-.326.026-.492 0-5.062-4.079-9.164-9.11-9.164-5.032 0-9.11 4.102-9.11 9.164 0 .167.015.33.025.493.256-4.83 4.22-8.671 9.086-8.671h-.003z"/><path d="M27.216 39.866c-3.938 0-7.145-3.108-7.352-7.015-.007.133-.02.264-.02.4 0 4.095 3.3 7.415 7.372 7.415 4.071 0 7.372-3.32 7.372-7.416 0-.134-.014-.266-.02-.4-.208 3.91-3.416 7.016-7.352 7.016zm81.066-7.395c0 5.263-4.241 9.529-9.472 9.529-5.232 0-9.473-4.266-9.473-9.529 0-5.262 4.241-9.529 9.473-9.529 5.231 0 9.472 4.267 9.472 9.53z"/><path d="M98.81 25.11c-4.041 0-7.318 3.296-7.318 7.361 0 4.066 3.277 7.362 7.318 7.362 4.041 0 7.318-3.296 7.318-7.362 0-4.065-3.277-7.36-7.318-7.36zm5.81 10l-.763-.556.926.15c-.05.138-.104.273-.165.407h.002zm-2.654-1.935l-.947-.69.947-.69 3.111-.499a6.5 6.5 0 01.112 1.175c0 .403-.042.812-.115 1.202l-3.108-.498zm-9.121 1.553l1.076-.172-.88.64a6.167 6.167 0 01-.196-.468zm-.294-1.03a6.369 6.369 0 01-.004-2.427l3.266.523.947.69-.947.691-3.262.523zm.48-3.932l.89.648-1.086-.173c.06-.162.124-.32.197-.475zm11.762.498l-.936.15.772-.564c.06.135.113.273.164.414zm-.677-1.352l-2.567 1.872-1.154.185.184-1.16 1.875-2.601a6.425 6.425 0 011.663 1.704h-.001zm-3.169-1.425l.158-.998c.145.057.287.119.427.186l-.585.811zm-.864-1.304l-.508 3.207-.687.953-.686-.953-.512-3.23a6.304 6.304 0 011.119-.105c.436 0 .862.045 1.273.129l.001-.001zm-3.252 1.303l-.627-.868c.151-.068.304-.127.46-.183l.167 1.053v-.002zm-1.56-.353l1.928 2.674.185 1.16-1.156-.185-2.671-1.948a6.435 6.435 0 011.714-1.703v.002zm-1.7 8.99l2.657-1.938 1.154-.186-.184 1.161-1.914 2.655a6.403 6.403 0 01-1.715-1.693l.001.002zm3.261 1.359l-.163 1.026a6.544 6.544 0 01-.449-.178l.612-.848zm.864 1.3l.507-3.204.686-.952.687.952.504 3.18a6.357 6.357 0 01-1.27.127c-.38 0-.752-.04-1.114-.104v.001zm3.252-1.3l.571.791a6.09 6.09 0 01-.417.18l-.154-.971zm1.494.26l-1.861-2.582-.185-1.162 1.154.186 2.555 1.863a6.397 6.397 0 01-1.665 1.694l.002.001z"/><path d="M100.201 35.672l1.092 1.514-.799.333-.293-1.846zm-3.716 1.514l1.091-1.514-.291 1.847-.799-.333zm2.403-3.593l-1.063 1.476.285-1.8-1.79.287 1.467-1.07-1.468-1.072 1.791.288-.285-1.8 1.063 1.476 1.064-1.476-.284 1.8 1.788-.286-1.467 1.07 1.466 1.07-1.789-.288.285 1.8-1.064-1.475h.001zm3.17.213l1.834.295-.33.803-1.504-1.098zm-8.172.295l1.834-.295-1.504 1.097-.33-.803zm0-3.23l.331-.803 1.505 1.098-1.836-.294zm9.677-.803l.33.804-1.834.294 1.504-1.097zm-3.069-2.616l.799.333-1.092 1.514.292-1.846h.001zm-4.008.333l.799-.332.293 1.846-1.09-1.514h-.002z"/><path d="M98.81 24.293c4.867 0 8.83 3.84 9.086 8.67.009-.164.025-.326.025-.492 0-5.061-4.078-9.164-9.11-9.164-5.031 0-9.11 4.103-9.11 9.164 0 .167.016.33.026.493.256-4.83 4.22-8.671 9.085-8.671h-.002z"/><path d="M98.81 39.866c-3.938 0-7.145-3.108-7.353-7.015-.007.133-.02.264-.02.4 0 4.095 3.3 7.415 7.371 7.415 4.072 0 7.372-3.32 7.372-7.416 0-.134-.013-.266-.02-.4-.207 3.91-3.415 7.016-7.352 7.016h.002zM4.603 25.691c.83-3.795 4.087-5.64 9.957-5.64 1.637 0 3.253.137 4.552.247l.392.033.028.257c-3.311 1.025-5.912 5.03-5.938 5.07l-.04.062h-.074a135.32 135.32 0 00-3.246-.035c-1.651 0-3.945.028-5.492.164l-.177.015.039-.174-.001.001z"/><path d="M4.73 25.72c3.006-.264 8.754-.132 8.754-.132s2.613-4.073 6.01-5.125c-4.703-.394-13.326-1.315-14.764 5.256z"/><path d="M10.394 25.556c1.684-1.808 3.424-3.572 5.134-5.355a29.253 29.253 0 00-2.085.006 68.137 68.137 0 00-5.477 5.368c.829-.016 1.665-.02 2.428-.02zm1.834-5.264c-3.468.349-6.671 1.648-7.498 5.427a40.8 40.8 0 012.225-.12 69.186 69.186 0 015.274-5.307h-.001z"/><path d="M5.05 24.769l-.039.003c-.11.299-.206.61-.28.947 3.005-.263 8.753-.131 8.753-.131s2.613-4.074 6.01-5.126c-.739-.061-1.575-.136-2.464-.193-3.646 2.25-7.776 3.671-11.982 4.5h.002zm3.579 7.438h-7.37c-.1.974-.189 1.95-.296 2.924l8.944.37c.37.016.465-.323.212-.755l-1.49-2.539zm86.546-18.228h3.197c5.553 0 4.636-11.046-27.388-12.447-10.178-.445-27.467 10.982-29.145 11.94-.043.024.005.098.009.148l53.33.36-.003-.001z"/><path d="M98.371 13.571c1.312 0 2.175-.664 2.197-1.694.052-2.402-5.165-8.868-29.603-9.937-.188-.009-.38-.012-.572-.012-6.03 0-15.237 3.8-27.362 11.292l52.146.352h-.003 3.196l.001-.001z"/><path d="M48.198 10.155C57.795 4.7 65.252 1.928 70.392 1.928c.193 0 .385.003.573.012 1.39.06 2.711.142 3.98.235-1.558 3.772-3.405 7.423-4.875 11.227l-20.761-.14a142.71 142.71 0 01-1.11-3.107zm45.314 3.405l-22.266-.15c1.489-3.766 3.326-7.389 4.852-11.142 9.37.787 15.335 2.453 19.03 4.23-.51 2.361-1.064 4.712-1.614 7.063h-.002zM60.997 1.32C53.349 3.07 41.63 9.99 35.222 13.763l2.72-.04C46.63 7.26 61.84 1.929 60.998 1.32zM41.829 13.563l.087.066c-1.446 3.158-1.453 4.3-1.25 10.641.043 1.312.05 2.556.056 3.76.025 4.495.043 7.742 1.915 7.742h19.001c2.137 0 4.128-2.145 5.917-6.373 1.552-3.672 2.441-7.753 2.677-8.916.41-2.025.882-5.247.46-6.67h.107c.402 1.487-.058 4.674-.469 6.704-.236 1.167-1.129 5.26-2.686 8.946-1.808 4.273-3.828 6.441-6.005 6.441h-19c-1.973 0-1.99-3.303-2.017-7.874-.007-1.202-.013-2.445-.056-3.755-.204-6.374-.196-7.523 1.264-10.713h-.001zm70.944 2.957l-9.537 3.68 5.749 3.68 8.099-1.182s-.391-6.045-4.311-6.176v-.002z"/><path d="M114.412 20.71c.769-.025 1.536-.04 2.299-.09-.399-1.457-1.206-3.25-2.818-3.873a65.343 65.343 0 00-3.728 4.317c1.413-.148 2.831-.307 4.247-.354zm-.343.749c-1.508.087-3.015.256-4.521.405a48.013 48.013 0 00-1.177 1.623l.613.393 8.1-1.183s-.038-.57-.203-1.362c-.933.06-1.872.069-2.814.122l.002.002z"/><path d="M104.412 19.937l8.76-3.38a3.53 3.53 0 00-.399-.035l-9.537 3.68 5.214 3.336-4.038-3.6z"/><path d="M14.021 18.148s57.809-1.518 82.67 1.542c7.962-1.732 7.075-2.432 13.785-2.942-57.024-6.176-96.453 1.4-96.453 1.4h-.002zm14.506.878c-4.776-.333-14.168 2.052-17.248 11.579l4.817-.943c3.172-8.544 8.726-8.885 12.265-8.638 5.57.388 9.367 4.973 10.086 9.534.437-5.685-4.35-11.145-9.92-11.532zM39.22 32.684l47.686-3.154-13.719 3.719-33.966-.565z" opacity=".5"/><path d="M8.65 31.852l7.49-1.49-.243 2.202-7.247-.712zM.963 35.13l15.182.402-3.837.964-12.164-1 .819-.365zm.512-3.624l7.865-.01-1.826.624-6.586-.215.547-.399z" opacity=".5"/><path d="M69.175 16.748c0 .367-1.211.664-2.706.664-1.493 0-2.705-.298-2.705-.664 0-.366 1.21-.664 2.705-.664 1.494 0 2.706.297 2.706.664z"/><path d="M68.85 16.605c0 .245-1.066.443-2.38.443-1.314 0-2.38-.198-2.38-.443 0-.244 1.066-.442 2.38-.442 1.314 0 2.38.198 2.38.442zm26.176.143c0 .367-1.21.664-2.705.664s-2.706-.298-2.706-.664c0-.366 1.212-.664 2.706-.664 1.493 0 2.705.297 2.705.664z"/><path d="M94.7 16.605c0 .245-1.065.443-2.38.443-1.313 0-2.38-.198-2.38-.443 0-.244 1.067-.442 2.38-.442 1.315 0 2.38.198 2.38.442zm-54.125-1.928c.267 1.365 3.12 1.949 4.469 1.682 1.349-.268 2.226-1.59 1.959-2.955-.268-1.364-1.577-2.255-2.926-1.987-1.35.268-3.768 1.896-3.5 3.26h-.002z"/><path d="M46.242 12.52a2.15 2.15 0 01-1.58 1.326c-.841.166-2.353-.05-3.222-.625.64-.784 1.824-1.461 2.602-1.616a2.151 2.151 0 012.2.913v.001zm63.22 16.325s6.202-.765 7.595-.892c1.392-.127 1.645 1.655 1.519 4.138-.506-1.337-1.203-3.502-9.114-3.248v.002z" opacity=".5"/><path d="M60.742 35.899h23.88c.178 0 .187-.353.21-1.204.047-1.717.134-4.915 1.796-8.011 1.925-3.585 4.968-4.85 6.786-5.604.33-.138.616-.257.855-.372.849-.41 2.063-3.467 1.651-5.29-.212-.936-.659-1.846-2.4-1.886l-.094.417c1.727 0 2.193.595 2.397 1.493.404 1.786-.772 4.776-1.596 5.176-.237.114-.52.232-.85.37-1.832.76-4.895 2.032-6.837 5.65-1.674 3.116-1.76 6.33-1.808 8.057-.013.492-.03 1.105-.108 1.105h-23.88v.102l-.002-.003zM92.343 2.507c6.296 1.565 10.016 3.59 13.026 5.35 2.117 1.238 3.716 2.628 4.9 3.942 1.006 1.116-6.124-5.3-17.927-9.291l.001-.001zM1.622 30.373a1.35 1.35 0 01-.766.869c-.059-2.17.947-7.376 1.723-9.544H3.2c.453 0 .704.42.562.937l-2.14 7.738z"/></g><defs><clipPath id="clip0_1646_6409"><path fill="#fff" d="M0 0h119v42H0z"/></clipPath></defs></svg>