<svg width="94" height="82" fill="none" xmlns="http://www.w3.org/2000/svg"><g id="Layer_1" clip-path="url(#clip0_1379_266)"><path id="Vector" d="M23.625 59.73l.424-.095-1.036.251c-.349.083-.7.17-1.057.235l-2.146.42c.786-.102 1.609-.213 2.436-.34a47.703 47.703 0 002.447-.496c.4-.093.792-.187 1.172-.294.378-.113.746-.23 1.099-.356a13.79 13.79 0 001.902-.813c.335.217 3.321-.552 3.36-.638.592-.248 1.19-.5 1.8-.74 3.845-1.528 8.056-3.057 12.331-4.886l1.062-.459c.406-.177.852-.392 1.333-.615l1.52-.71c.528-.248 1.06-.524 1.6-.79l1.6-.798 1.493-.783 1.316-.687 1.038-.56 1.013-.549-1.139.594c.677-.439 1.329-.846 1.948-1.26.618-.414 1.216-.812 1.808-1.199-.235.092-.294.08-.828.335l.63-.348c.505-.434 1.778-1.246 2.352-1.668-.095.136.384-.153.808-.407l-.188.068c.796-.495 1.632-1.066 2.452-1.613.411-.273.807-.557 1.192-.824.385-.266.755-.523 1.1-.76.192-.132.35-.21.45-.252.43-.317.853-.646 1.28-.97-.05.142 1.127-.71.535-.222.924-.774 1.933-1.458 2.793-2.22a145.71 145.71 0 009.78-8.043l-.1.04c.549-.495 1.04-.991 1.573-1.499.265-.254.543-.512.84-.776.295-.267.61-.541.96-.824.445-.464 1.005-1.002 1.48-1.49.475-.49.872-.92 1.004-1.156 1.093-.994 1.467-1.46 2.515-2.461-.337.184.975-1.02.4-.595-.8.548-.768.662-1.442 1.132l.038.006c-2.923 2.437-5.844 4.878-8.829 7.307-1.92 1.709-4.139 3.395-6.226 5.056a350.852 350.852 0 01-6.69 5.153c-.463.366-.859.54-1.294.791-.461.33-.956.676-1.472 1.035-.517.359-1.065.713-1.614 1.08-1.096.742-2.248 1.462-3.314 2.167l.107-.064c-.567.374-1.089.659-1.602.947-.514.287-1.025.574-1.589.923.019.019-.157.124-.237.184-.064.003-.511.261-1.153.648l-1.085.663c-.393.245-.823.487-1.248.742-1.697 1.024-3.463 1.99-3.683 2.071-.12.068-.245.137-.374.208-.312.157-.633.303-.953.445l-.967.425c-.321.14-.644.278-.963.418l-.48.205-.48.193c-1.276.51-2.492 1.022-3.596 1.486-.457.255-.977.528-1.358.758-.409.12-.448.24-.93.414-1.295.255-1.964.627-1.311.46a32.64 32.64 0 01-1.475.59l-1.409.513-1.222.505a2.063 2.063 0 01-.76.18c-.903.338-.653.193-1.618.49-.064 0-.243.057-.482.144l-.394.15-.442.165c-.599.224-1.202.456-1.343.487l.156-.06c-.562.163-1.04.262-1.513.362-.477.092-.95.174-1.502.322l-1.164.3c-.39.104-.781.212-1.18.302l-2.383.582c-.197.048-.394.1-.592.145l-.591.129c-.393.085-.782.17-1.167.252-.77.163-1.517.34-2.242.456-.012.09.633-.137.689-.031-1.709.295-3.44.54-5.17.775a8.976 8.976 0 01-.848.037c-.556.055-.32.093-.725.146l-.066-.07c-.289.082-.51.085-.725.088-.215.002-.427-.002-.703.051-.026.035-.228.065-.426.09-.02-.083-.608.084-.59.004l-.004.008c-.12.014-.204.03-.352.034-.111.027-.69.172-1.273.306-.584.125-1.168.25-1.283.28l-.108-.003c-.319.035-.45.11-.262.106l-.395.035.045-.011-.392.035c-.074 0-.158-.03-.05-.078a3.653 3.653 0 01-.69.1 47.816 47.816 0 012.05.001c-.264.056-.748.06-1.035.099-.348-.022-1.059.009-1.612.018-.12.014-.196.113-.474.092-.138-.053-.31.025-.543-.004.26-.053.518-.056.785-.073-.052-.071-.651-.003-.863-.009-.097.032-.611.045-.931.09.135-.083-.263-.028-.458-.053-.216.008-.354.046-.265.066-.065.085.867-.017.57.089-.081-.033-.507.013-.735.033 0 .042.159.02.012.074-.256.01-.523.08-.671.047.047-.014.153-.015.227-.019-.326.022 1.787-.413 1.358-.356.115.03-1.874.396-1.654.382.204.007-.141.088.07.087l.23-.07c.287-.004.41.063.31.099-.48.028 1.345-.395.937-.321l.169.008c-.172.041-.636.1-.818.068.002.042-.231.075-.425.104l-.07-.001c-.198.037-.48.048-.346.095 1.18-.095-.752.49.393.43-.486-.059.156-.11.658-.157.052.028.277.059.642.056.313-.03.183-.048.24-.076.176.008.51.001.47.053.24-.076.393.01.685-.033.256-.046-.02-.024.16-.066.195-.013.429-.023.652-.04l.59-.045c.122.034.493.08.235.178-.59.05.213-.14-.396-.062.272.077-.538.087-.643.172.2.035.595-.01.923-.055l-.066-.007c.29-.044.87-.125 1.19-.1-.07.044.07.058-.143.09l.402-.035c.05-.016.1-.033-.016-.03.187-.047.378-.052.525-.045.024.017.553-.077 1.068-.173.513-.109 1.012-.22.98-.202.288-.039.366.011.64-.066.008-.009-.16.017-.41.06l-.9.164c-.641.118-1.241.206-1.05.184.256.044 3.242-.602 3.431-.546.213-.03.47-.071.413-.105.363-.028-.097.089.164.094.005-.007-.024-.016.058-.026l.254.018c.55-.143 1.379-.197 1.95-.37-.161.07-.343.176-.713.274l-.07-.01c-.052.02-.359.083-.345.12.36-.03.667-.085 1.035-.183.072 0 .155-.002.21 0-.003-.005-.008-.01-.008-.015.127.005.115.01.072.033a.056.056 0 01-.024.013c.12.04.469-.034.87-.123.4-.088.854-.192 1.183-.227.189-.052.015-.022.25-.088.672-.079 1.135-.128 1.835-.23.213-.092.226-.114-.051-.117l.528-.08c-.452.221 1.004-.06.503.172.16.001.473-.062.762-.147.022-.039.058-.102.426-.181.521-.067.395-.056.83-.105.108.022-.044.072-.018.102.643-.196.59-.03 1.208-.17l.341-.084c.126-.034.256-.07.374-.105.238-.071.428-.14.428-.18.52-.123.532-.067.496.007l.005.001z" fill="#000"/></g><defs><clipPath id="clip0_1379_266"><path fill="#fff" transform="rotate(-38.686 88.285 30.991)" d="M0 0h99.164v25.184H0z"/></clipPath></defs></svg>