<svg width="102" height="37" fill="none" xmlns="http://www.w3.org/2000/svg"><g id="Layer_1" clip-path="url(#clip0_1379_258)"><path id="Vector" d="M22.36 23.277l.368-.22-.893.555c-.3.186-.608.368-.908.565l-1.82 1.159a103.35 103.35 0 002.115-1.186c.72-.399 1.445-.802 2.134-1.22.344-.209.68-.422 1.007-.631.33-.204.649-.41.952-.619a13.24 13.24 0 001.602-1.264c.375.123 3.094-1.205 3.112-1.3a48.558 48.558 0 011.632-.995c3.517-2.064 7.606-3.808 11.915-5.345l1.07-.392c.41-.15.874-.301 1.367-.472l1.562-.536c.542-.186 1.11-.356 1.672-.537l1.677-.527 1.595-.46c.506-.144.978-.282 1.405-.397l1.124-.284 1.098-.28-1.227.291c.752-.25 1.467-.503 2.165-.721.7-.218 1.377-.427 2.045-.626-.248.02-.3-.009-.879.08l.696-.15c.595-.294 2.055-.622 2.727-.837-.132.098.41-.017.888-.12l-.198.002c.908-.194 1.889-.403 2.842-.622.476-.11.95-.204 1.406-.298.456-.09.892-.178 1.299-.26.227-.044.4-.054.508-.052.518-.12 1.037-.222 1.557-.333-.105.107 1.312-.156.575.03 1.154-.319 2.359-.437 3.463-.724 4.01-.641 8.29-1.238 12.46-1.794l-.105-.021c.73-.103 1.414-.218 2.14-.33.363-.056.736-.108 1.13-.153.394-.042.81-.076 1.258-.098.633-.107 1.4-.219 2.073-.322.672-.1 1.25-.203 1.498-.31 1.47-.135 2.053-.257 3.496-.4-.377-.065 1.399-.197.683-.22C97.68.84 97.633.95 96.812.9l.026.028c-3.81.116-7.625.343-11.478.695-2.561.328-5.349.612-8.008.99-2.86.431-5.941.984-8.367 1.509-.578.125-1.01.14-1.514.195-.558.12-1.154.243-1.776.369-.62.126-1.262.274-1.913.414a93.01 93.01 0 00-3.883.923l.124-.027c-.665.16-1.247.298-1.828.426-.58.131-1.157.26-1.802.436.013.02-.186.077-.279.118-.063-.013-.564.129-1.288.35l-1.224.381c-.446.138-.913.308-1.386.469-1.895.63-3.785 1.363-4.021 1.4l-.403.149c-.337.101-.674.211-1.01.322l-1.014.323c-.338.106-.676.21-1.012.314-.167.053-.336.104-.501.157l-.495.167c-1.312.445-2.583.865-3.694 1.355-.464.253-.991.527-1.375.755-.417.117-.45.242-.928.441-1.292.319-1.952.724-1.3.524-.243.118-.488.232-.73.344-.244.11-.488.22-.722.336l-1.364.656c-.392.21-.782.417-1.177.627-.331.187-.535.255-.73.291-.852.476-.623.291-1.541.736-.065.01-.236.095-.459.22-.11.064-.236.135-.37.21-.131.08-.266.167-.404.252-.546.347-1.093.7-1.226.759l.14-.09c-.52.277-.972.475-1.42.672-.446.205-.883.417-1.384.704l-1.058.599c-.355.204-.713.406-1.062.627l-2.107 1.313c-.175.11-.35.218-.522.33l-.51.34-1.006.67c-.661.443-1.318.858-1.923 1.287.024.089.525-.393.619-.317-1.437 1-2.964 1.904-4.377 2.969-.27.172-.609.37-.743.435-.473.312-.243.232-.58.472l-.093-.03c-.225.205-.41.326-.596.44-.187.114-.371.222-.585.411-.005.045-.165.177-.325.3-.06-.059-.486.392-.51.314v.009c-.098.075-.163.132-.29.214l-.942.932c-.42.437-.84.872-.92.962l-.092.06c-.247.21-.314.346-.16.236l-.309.253.032-.034-.309.252c-.06.041-.15.065-.086-.036a3.821 3.821 0 01-.52.474 47.403 47.403 0 011.715-1.163c-.188.195-.589.473-.808.667-.3.183-.886.602-1.333.938-.088.085-.091.21-.327.363-.144.042-.234.21-.437.328.178-.202.382-.362.586-.537-.084-.027-.525.395-.7.52-.058.084-.465.41-.695.642.059-.148-.228.14-.4.238-.17.14-.257.255-.173.214 0 .106.689-.545.514-.28-.086.024-.4.32-.572.476.027.033.141-.08.056.05-.2.163-.37.383-.512.448.03-.04.113-.106.17-.155-.255.22 1.178-1.416.87-1.11.11-.045-1.266 1.46-1.096 1.312.167-.12-.058.155.112.026l.141-.194c.228-.18.368-.203.311-.113-.37.317.836-1.132.555-.825l.14-.096c-.113.138-.45.468-.615.554.027.032-.14.2-.278.342l-.057.04c-.138.151-.358.331-.22.285.887-.792-.294.839.585.095-.425.25.057-.178.43-.522.057-.009.258-.123.546-.345.23-.214.116-.15.145-.207.145-.099.408-.307.407-.24.146-.207.32-.232.527-.442.177-.192-.031-.007.088-.151.149-.125.325-.28.498-.421l.465-.37c.122-.04.455-.212.298.014-.459.371.096-.234-.365.172.273-.088-.4.368-.428.506.176-.095.485-.345.728-.569l-.06.031c.215-.198.65-.59.929-.749-.034.076.09.009-.068.153l.312-.252c.032-.041.065-.085-.03-.017a1.79 1.79 0 01.409-.33c.03 0 .413-.374.785-.741.381-.358.75-.707.733-.677.227-.18.319-.178.515-.383.002-.012-.129.097-.32.263l-.687.601c-.485.43-.916.856-.775.726.2-.145 2.44-2.201 2.626-2.257.167-.136.364-.302.3-.303.297-.209-.038.127.188-.003 0-.008-.029-.002.037-.052l.226-.114c.41-.39 1.123-.816 1.545-1.235-.11.138-.222.314-.502.572l-.066.024c-.036.042-.278.24-.246.266.305-.194.547-.383.826-.642.063-.033.135-.074.185-.097-.005-.004-.012-.003-.014-.01.115-.055.106-.042.079-.004l-.016.023c.126-.02.398-.246.709-.51.31-.264.66-.567.95-.727.148-.125.004-.028.188-.184.576-.348.976-.586 1.565-.967.154-.17.158-.197-.095-.084l.443-.292c-.319.388.883-.463.523-.048.145-.062.414-.23.648-.414.006-.044.014-.115.325-.32.458-.25.346-.196.728-.397.11-.02-.012.081.022.101.522-.412.534-.24 1.05-.59l.285-.2.319-.215c.2-.14.357-.261.344-.3.45-.275.48-.228.47-.146l.001.004z" fill="#000"/></g><defs><clipPath id="clip0_1379_258"><path fill="#fff" transform="rotate(-6.916 99.068 5.986)" d="M0 0h99.428v25.053H0z"/></clipPath></defs></svg>