<svg width="104" height="41" fill="none" xmlns="http://www.w3.org/2000/svg"><g id="Layer_1" clip-path="url(#clip0_1379_264)"><path id="Vector" d="M21.752 16.127l.36.253-.894-.603c-.3-.205-.603-.409-.896-.63l-1.776-1.32c.612.52 1.256 1.058 1.914 1.59a48.377 48.377 0 002.038 1.493c.342.235.68.464 1.018.675.343.206.681.4 1.015.58a13.94 13.94 0 001.903.867c.066.398 2.676 2.107 2.767 2.077.589.275 1.184.55 1.78.843 3.761 1.833 7.773 3.94 12.053 5.89l1.066.48c.41.184.874.37 1.369.579l1.566.651c.545.227 1.114.436 1.68.659.568.22 1.135.44 1.687.652l1.603.584 1.41.515 1.126.394 1.1.384-1.22-.447c.79.207 1.538.417 2.27.598.73.18 1.435.356 2.127.535-.229-.113-.26-.165-.814-.392l.69.235c.668.081 2.142.48 2.849.621-.166.023.376.184.855.327l-.18-.094c.912.258 1.91.494 2.877.734.484.123.966.224 1.428.33l1.317.305c.23.054.396.119.495.164.531.107 1.065.199 1.597.297-.14.06 1.3.358.531.248 1.209.164 2.407.453 3.563.575a147.04 147.04 0 0012.676 1.833l-.099-.047c.744.073 1.45.102 2.193.155a33.144 33.144 0 012.422.255c.651.017 1.434.069 2.123.092.69.022 1.282.025 1.548-.037 1.488.14 2.092.101 3.554.203-.368-.126 1.427.034.716-.107-.954-.223-1.018-.122-1.828-.305l.021.031c-3.814-.524-7.628-1.045-11.478-1.622-2.585-.27-5.358-.781-8.021-1.21a354.491 354.491 0 01-8.41-1.491c-.59-.096-.99-.274-1.474-.429-.56-.12-1.156-.254-1.776-.395-.62-.142-1.259-.31-1.907-.47-1.301-.315-2.625-.685-3.878-1.002l.12.036c-.665-.17-1.233-.365-1.798-.553a39.976 39.976 0 00-1.773-.558c-.001.027-.2-.033-.299-.052-.046-.046-.544-.204-1.27-.42l-1.235-.36c-.45-.127-.925-.283-1.405-.428-1.921-.57-3.846-1.233-4.058-1.342l-.409-.138a21.47 21.47 0 01-.983-.41l-.976-.432c-.323-.146-.646-.293-.968-.436l-.48-.22a90.407 90.407 0 00-.471-.227c-1.251-.606-2.463-1.166-3.562-1.676-.502-.168-1.06-.37-1.492-.498-.368-.224-.484-.172-.943-.414-1.073-.794-1.807-1.041-1.236-.667a33.09 33.09 0 01-1.447-.7l-1.343-.704-1.21-.57c-.345-.163-.512-.302-.653-.444-.868-.446-.589-.358-1.468-.877-.044-.049-.209-.143-.437-.262l-.38-.192-.424-.218c-.576-.296-1.16-.588-1.28-.673l.151.076c-.504-.309-.904-.6-1.301-.885-.393-.294-.777-.592-1.264-.903l-1.017-.665c-.343-.222-.69-.441-1.03-.677-.684-.462-1.374-.925-2.058-1.385-.17-.115-.344-.227-.512-.344l-.499-.355c-.332-.235-.66-.468-.984-.7-.646-.465-1.287-.904-1.868-1.366-.075.053.534.38.493.494a149.039 149.039 0 01-4.102-3.337 9.071 9.071 0 01-.606-.609c-.42-.378-.286-.175-.602-.442l.006-.096a2.589 2.589 0 01-.558-.483c-.149-.16-.29-.32-.518-.49-.043.004-.204-.127-.357-.259.047-.071-.477-.397-.405-.437l-.009.002c-.092-.08-.162-.132-.265-.24-.096-.065-.6-.399-1.097-.743a73.12 73.12 0 00-1.083-.769L8.972 4.1c-.244-.214-.389-.261-.258-.123l-.295-.271.04.026-.295-.27c-.05-.055-.084-.139.025-.09a3.693 3.693 0 01-.546-.448c.432.457.964 1.031 1.396 1.533-.22-.16-.553-.518-.778-.706-.22-.275-.728-.786-1.112-1.192-.092-.08-.217-.07-.392-.292-.054-.14-.23-.216-.367-.409.217.158.395.349.59.537.018-.088-.442-.489-.581-.651-.09-.051-.45-.427-.702-.636.154.045-.158-.215-.272-.377-.153-.157-.276-.234-.23-.154-.108.009.603.637.322.487-.031-.083-.355-.37-.526-.527-.031.029.093.133-.046.06C4.763.41 4.528.258 4.45.125c.044.025.116.104.17.157-.239-.23 1.526 1.054 1.19.772.059.108-1.57-1.131-1.41-.974.133.157-.163-.046-.018.112l.209.124c.2.212.232.348.138.3-.349-.34 1.211.735.878.481l.109.132c-.148-.101-.508-.408-.608-.565-.03.03-.214-.123-.368-.247L4.694.363C4.531.24 4.33.037 4.387.168c.874.818-.879-.228-.054.587-.287-.403.188.042.566.385.014.058.145.247.395.519.236.213.16.103.221.127.114.137.347.382.28.388.22.127.261.3.491.49.21.16.005-.032.16.074.142.137.308.305.473.46.165.154.321.303.435.41.058.115.276.424.028.297-.439-.406.25.064-.224-.338.128.256-.432-.343-.566-.364.109.173.412.438.67.653l-.04-.054c.23.186.686.565.885.821-.08-.022.005.093-.165-.046l.3.278c.046.026.094.052.012-.033.163.108.296.247.391.362.004.03.435.36.857.68.431.31.854.607.82.596.224.188.24.28.484.434.012-.001-.122-.11-.324-.266l-.736-.562c-.525-.399-1-.787-.853-.66.142.222 2.66 2.015 2.746 2.194.168.138.373.302.36.237.268.253-.133-.012.041.187.01-.002-.004-.03.06.025l.159.202c.482.314 1.086.897 1.605 1.207-.162-.074-.365-.137-.69-.347l-.04-.06c-.05-.025-.307-.211-.326-.175.268.25.518.44.843.649.049.053.107.114.143.157.001-.006 0-.013.006-.016.082.098.07.092.023.076-.007 0-.014-.002-.025-.01.052.119.345.328.685.568.338.239.724.507.975.73.167.105.026-.005.236.126.516.449.87.762 1.423 1.215.213.097.238.092.051-.117l.42.339c-.473-.186.729.711.214.494.108.12.37.311.629.47.045-.01.116-.026.426.194.405.344.311.258.643.55.058.096-.083.016-.088.055.585.347.425.422.95.788l.296.198c.11.07.227.143.333.207.215.13.396.226.426.2.446.303.413.35.333.373l.002.005z" fill="#000"/></g><defs><clipPath id="clip0_1379_264"><path fill="#fff" transform="rotate(8.972 1.986 25.317)" d="M0 0h100.301v25.473H0z"/></clipPath></defs></svg>