<svg width="146" height="57" fill="none" xmlns="http://www.w3.org/2000/svg"><g clip-path="url(#clip0_1646_6473)" fill="#CED5E0"><path d="M108.008 47.164l1.968 1.178s1.734-1.031 2.753-.588c1.019.442 19.152-.1 19.152-.1s3.755.506 4.399-1.809c.644-2.315 2.3-18.436-15.236-15.224-17.537 3.212-13.412 13.234-13.036 16.543zm-95.759-.704l3.532 2.722s2.584-.987 3.228-.77c.643.217 18.937 1.566 18.937 1.566s4.882.462 6.278-.797c1.395-1.258-6.009-22.197-16.577-20.135C17.078 31.108 12.25 46.459 12.25 46.459l-.002.001zM4.062 33.731l-.758-2.259s4.233-7.931 12.012-7.039c7.78.893-11.255 9.298-11.255 9.298h.001zM132.298 3.235l8.788 19.594h4.057c-.984-4.857-3.953-12.795-12.845-19.594z"/><path d="M141.086 22.827l1.932 4.307 1.597.263s.679.013.786-.09c.164-.158.3-1.724-.258-4.48h-4.057zM26.887 20.834l.781-1.422S53.581 2.12 64.114 2.436c10.532.316-34.413 23.828-37.227 18.398z"/><path d="M145.699 39.16s-.244-1.1-.091-3.75h-10.679c-1.697 0-3.76-1.352-3.76-2.558 0-1.205.64-1.022.64-1.022h13.108v-4.524l-.651-.079s.098-2.714-.889-7.384-5.29-10.5-7.739-14.132c-2.447-3.633-4.066-3.353-10.502-4.311C118.702.439 90.946 0 90.946 0s-16.86.56-24.717 1.716c-7.856 1.159-15.95 5.55-18.794 7.106-2.843 1.558-14.078 10.162-14.078 10.162-.576.363-4.843 0-4.843 0-5.42.382-16.98 5.734-16.98 5.734.341-.037 2.051.345 2.051.345 1.368.856-.831 2.312-1.605 2.913-.774.6-4.74 2.913-6.092 3.368-1.35.455-2.584.127-2.584.127-.487.582-1.244 3.313-1.244 3.313s-1.087.533-1.681 1.579l14.373-.187s1.342-.082 1.205.553c-.138.638-1.096 2.547-2.903 2.686-1.532.117-10.098.154-12.661.163.35.783.808 1.258.808 1.258v2.158C.57 43.703.696 44.64.696 44.64c.744 4.514 15.085 4.54 15.085 4.54-1.253-8.66 1.293-16.647 12.348-16.647 9.99 0 12.08 9.614 12.39 12.675l69.668-.315c.661-4.526 3.232-11.917 12.975-12 14.056-.12 11.598 14.45 11.598 14.45s7.255-1.198 9.702-2.515c2.447-1.318 1.235-5.669 1.235-5.669l.002.002z"/><path d="M15.957 36.73c.138-.637-1.205-.553-1.205-.553L.38 36.362c-.205.36-.352.78-.374 1.26a4.275 4.275 0 00.388 1.955c2.563-.009 11.13-.046 12.662-.163 1.806-.14 2.764-2.048 2.902-2.685zm24.609 9.216c0 1.637.87 4.032.87 4.032l68.54-1.637s-.069-1.24.153-3.014l-69.573.315c.007.12.012.226.012.304h-.002z"/><path d="M40.556 45.643l69.573-.315c.018-.142.038-.287.059-.434l-69.668.315c.016.167.027.31.034.434h.002zm1.352-7.641l64.87-1.676s3.04.24 3.909-2.076c0 0 .316-.639-1.658-.599-1.974.04-67.674 2.355-67.674 2.355s-.908 1.038.553 1.996zM84.037 25.27c0 .693-3.915.767-8.746.767-4.83 0-8.745.04-8.745-.767 0-.809 3.915-.768 8.745-.768 4.831 0 8.746.077 8.746.768zm46.854 7.515c0 1.206 2.339 2.783 4.037 2.783h10.679c.006-.32.013-.235.021-.36.198-2.913-.711-3.473-.711-3.473H131.81s-.919-.157-.919 1.05zm-97.689-9.957l42.152-2.446 55.064-2.264s5.482.078 5.869-1.64c.386-1.718-2.343-8.823-3.99-10.539-1.648-1.718-1.338-1.874-2.341-2.185-1.004-.312-20.309-1.64-28.34-1.718-8.03-.078-32.818-.547-40.384 2.107-7.567 2.655-20.926 10.044-28.03 18.685z"/><path d="M35.438 21.647s10.64-9.536 13.976-10.745l-1.07 9.93-12.907.815zM50.643 9.852l-.788 10.79 22.478-1.274 2.33-16.391s-14.954-.065-24.02 6.875zm29.844-6.875l-.788 16.074 27.011-.923-2.361-15.437s-18.321-.54-23.862.286zm29.515-.106l2.249 14.323h19.334s2.356-.191 3.018-1.018c.661-.827.442-2.844-.252-4.212-.692-1.37-2.96-7.251-4.786-7.57-1.825-.317-19.563-1.521-19.563-1.521V2.87zM74.552 45.07c-.366-2.628.647-23.794.69-24.693v-.009L77.803.52l.22.029-2.558 19.844c-.02.417-1.052 22.05-.693 24.647l-.219.03zm33.48-.111l-.18-.132c2.905-4.075 4.195-16.431 4.302-19.562.109-3.2-2.035-6.22-2.056-6.25l-.016-.022-.005-.028-2.352-16.496-1.111-1.878.191-.114 1.133 1.917 2.355 16.515c.201.29 2.187 3.24 2.082 6.366-.108 3.147-1.408 15.57-4.343 19.687v-.003z"/><path d="M112.239 24.682c-.059 0 .021-.151.015-.353-.006-.206-.175-.34-.025-.36L143.345 23h.012c.198 0 .362.168.368.37.007.206-.154.354-.358.362l-31.116.949h-.012zM14 26.061l-.04-.22c.136-.026 13.682-2.618 19.232-3.125l.02.223c-5.54.506-19.075 3.096-19.211 3.122zm27.51-2.151l3.507-4.69s1.05-3.184 3.673-3.462c2.624-.28 5.938-.25 6.131 2.234.194 2.485-.938 2.849-2.016 2.82-1.076-.028-5.386.475-5.386.475l.36 1.955s-5.964 1.731-6.268.67v-.002zm-2.4 21.936c0 6.161-4.94 11.156-11.034 11.156s-11.032-4.995-11.032-11.157c0-6.161 4.94-11.155 11.032-11.155 6.093 0 11.035 4.994 11.035 11.156z"/><path d="M19.768 45.846c0 4.655 3.732 8.426 8.336 8.426s8.334-3.773 8.334-8.426c0-4.654-3.73-8.427-8.334-8.427-4.604 0-8.336 3.773-8.336 8.427z"/><path d="M25.211 40.196l1.929 2.216s.334.532.789.532.789-.373.789-.373l2.016-2.377s.281-.337 0-.567c-.28-.23-1.265-.567-2.63-.567s-3.384.372-2.893 1.134v.002zm-.001 11.3l1.93-2.216s.333-.532.788-.532.79.373.79.373l2.016 2.375s.28.337 0 .567c-.28.23-1.265.568-2.632.568-1.366 0-3.384-.373-2.893-1.135h.002zm8.55-8.468l-2.192 1.95s-.526.336-.526.798c0 .461.369.797.369.797l2.35 2.039s.334.283.561 0c.228-.283.562-1.28.562-2.66 0-1.382-.369-3.422-1.121-2.924h-.003zm-11.176 0l2.192 1.95s.526.336.526.798c0 .461-.37.797-.37.797l-2.348 2.039s-.334.283-.562 0c-.228-.284-.561-1.28-.561-2.66 0-1.382.369-3.422 1.123-2.924zm110.726 2.818c0 6.161-4.94 11.156-11.034 11.156-6.095 0-11.033-4.995-11.033-11.157 0-6.161 4.94-11.155 11.033-11.155 6.093 0 11.034 4.994 11.034 11.156z"/><path d="M113.967 45.846c0 4.655 3.732 8.426 8.336 8.426s8.334-3.773 8.334-8.426c0-4.654-3.73-8.427-8.334-8.427-4.604 0-8.336 3.773-8.336 8.427z"/><path d="M119.41 40.196l1.929 2.216s.334.532.789.532.789-.373.789-.373l2.016-2.377s.282-.337 0-.567c-.279-.23-1.265-.567-2.63-.567s-3.384.372-2.893 1.134v.002zm0 11.3l1.929-2.216s.334-.532.789-.532.789.373.789.373l2.016 2.375s.281.337 0 .567c-.281.23-1.265.568-2.632.568-1.366 0-3.384-.373-2.893-1.135h.002zm8.549-8.468l-2.192 1.95s-.526.336-.526.798c0 .461.369.797.369.797l2.35 2.039s.334.283.561 0c.228-.283.562-1.28.562-2.66 0-1.382-.368-3.422-1.121-2.924h-.003zm-11.176 0l2.192 1.95s.526.336.526.798c0 .461-.369.797-.369.797l-2.349 2.039s-.334.283-.562 0c-.228-.284-.561-1.28-.561-2.66 0-1.382.369-3.422 1.123-2.924z"/></g><defs><clipPath id="clip0_1646_6473"><path fill="#fff" d="M0 0h146v57H0z"/></clipPath></defs></svg>