<svg width="161" height="52" fill="none" xmlns="http://www.w3.org/2000/svg"><g clip-path="url(#clip0_1646_6153)" fill="#CED5E0"><path d="M139.975 39.79l.722.452s4.177-.278 4.777-.227c.6.05 1.926-.334 3.21 1.078 0 0 2.184-.557 2.355-.878.171-.321-1.746-1.422-2.611-1.754-.865-.332-6.72-.321-7.361-.171-.642.15-1.091 1.496-1.091 1.496l-.001.003zm16.862-7.42s3.81.101 3.981.7c.17.6-1.101 4.258-1.101 4.258s-.354 1.198-1.104 1.283c-.749.085-6.933-.342-7.853-1.284-.92-.942 6.077-4.959 6.077-4.959v.002zM11.779 23.79s-3.98.24-4.39.175c-.41-.064-.156-.312.194-1.443.275-.884-.274-1.784-.526-2.132-.69.134-1.31.376-1.699.787 0 0-1.174 1.57-1.737 2.945a3.998 3.998 0 00-.272.917c-.215 1.463-.546 5.754-.137 6.143.41.391 5.171.29 5.171.29l3.142-3.156 1.938-4.347-1.684-.178z"/><path d="M7.584 22.524c-.352 1.13-.606 1.379-.195 1.443.41.064 4.39-.175 4.39-.175l1.684.179 1.107-2.48-3.512-1.092s-2.232-.353-4-.007c.253.35.802 1.249.527 2.133l-.001-.001zM6.09 26.902h7.356l-.925 4.306h-6.22s-.434-1.469-.356-2.6c.078-1.131-.1-1.599.145-1.706z"/><path d="M5.3 21.275l-.35.53s1.482-.49 1.814-.53c.332-.039 3.726-.41 4.274 1.112.546 1.521-2.585 4.614-2.95 9.084L9.3 30.91l4.683-6.086-.703-2.83-1.756-.955s-4.78-1.112-6.224.155"/><path d="M3.857 24.238c-.058 0-.103-.053-.106-.11 0-.058.044-.11.103-.112l6.83-.153a.105.105 0 01.107.102c0 .058-.045.114-.103.115l-6.83.158h-.002zm5.596 2.351H3.462c-.058 0-.105-.008-.105-.066 0-.057.047-.065.105-.065h5.99c.058 0 .104.008.104.065 0 .058-.047.066-.105.066h.002zM7.142 24.33h3.047l-.85 1.68H6.933l.21-1.68zM.747 33.97s-.972.693-.699 1.825c.273 1.131.82 3.253.82 3.253s-.03.68 1.745.915c1.776.233 2.268.387 2.268.387v1.048s-1.344.26-1.305.825c.04.566 1.457 1.015 7 1.015l.143-1.912 4.237.04 19.651-.372s4.04 1.21 5.543 1.502c1.502.293 3.454.617 3.942.592.487-.025.976-3.77.976-3.77l-5.99-15.468-23.944-1.327-3.055 6.008-2.135 2.828-.507.112-4.492-.035s-2.415.916-2.904 1.443c-.487.526-1.294 1.089-1.294 1.089v.001z"/><path d="M102.02 20.804l-3.397-4.878s-1.367.578-2.081.474c-.715-.105-33.183 7.142-33.183 7.142l-24.987 14.31s-.546 3.86 1.03 4.492c1.575.63 10.928.735 10.928.735l49.913-.735s1.786.84 3.993.734c2.207-.105 3.783-.947 3.783-.947h2.521s4.835-.114 7.146-.428c2.311-.315 18.178-1.27 18.178-1.27h4.818V21.231l-38.662-.427zM59.374 2.571l-1.655-.386S39.633 13.137 37.974 18.079c-1.66 4.94 5.63-3.694 5.63-3.694l15.77-11.814z"/><path d="M52.417 6.342c1.842-1.197 5.934-3.74 5.934-3.74l-.427-.482c-.16.046-.242.072-.205.065.21-.035.455.386.455.386-4.45 1.926-14.012 9.908-14.782 10.574-.77.665-3.538 2.522-4.273 2.66l-.06.01c.98.593 10.749-7.776 13.358-9.471v-.002z"/><path d="M96.588 39.985c-.42-.246-.198-1.511-.198-1.511l-.736 1.033c.21-.525 1.681-20.447 1.646-24.193-.035-3.747-.981-12.429-1.926-13.935C94.428-.127 90.681-.09 79.612.084c-11.068.175-16.813 1.12-17.618 1.12-.666 0-3.3.696-4.069.916l.428.482s-4.093 2.542-5.935 3.74c-2.61 1.697-12.379 10.064-13.358 9.471-.81.126-3.36.098-4.214-.004-.877-.104-20.388 2.667-23.505 3.226-3.118.56-4.208.837-5.355 1.305-1.147.467-1.036 1.462-1.036 1.462 2.957-1.948 6.081-.188 6.396.303.315.49-.806 2.906-1.542 4.237-.735 1.331-1.717 5.129-1.717 5.129h4.589c1.26-3.362 2.907-4.683 4.553-5.419 1.647-.735 13.906-2.371 17.024-.132 3.117 2.241 4.203 12.5 4.273 13.236.071.735.666 1.33.666 1.33.07.84.814 1.12.814 1.12l57.557-.524v-.841s-.554-.01-.975-.256zm57.791-23.771l3.237 1.785s.677 1.637.722 4.074c.044 2.437.201 7.49-.604 8.474-.806.984-5.682-2.951-5.705-3.31-.022-.357 2.35-11.023 2.35-11.023z"/><path d="M98.626 15.925s-.603-.179-.603.786c0 .966-.141 8.833-.248 11.407-.108 2.574-1.551 11.47-1.169 11.705.383.233 1.528.44 1.528.44l-.035.952h8.867s1.436-.66 2.223-.66c.786 0 1.037-.55 1.037-1.051 0-.5 1.002-10.77 5.689-12.81 4.687-2.038 16.671-1.917 16.671-1.917s4.114-.154 5.438 4.245c1.323 4.398 1.788 8.755 1.072 10.15l8.729-1.075s7.334-.287 8.479-2.54c1.144-2.253 1.609-5.365 1.609-5.365s-1.467-.465-1.895-2.504c-.43-2.038-1.396-4.649-1.431-5.293-.035-.644-.779-3.469.115-3.969.895-.5 2.834-.43 2.834-.43v-1.81s.142-.835-.646-.835c-.787 0-58.265.572-58.265.572l.001.002zM12.079 32.05H3.672s-2.841.09-3.075 1.396c-.234 1.307.078 1.794.292 1.834.215.039 10.44 0 10.44 0s.153-1.818.75-3.23z"/><path d="M97.878 29.738v2.573h8.669s.428 0 .554-.127c.127-.128.128-.577.128-.577v-1.238s-.018-.596-.444-.63c-.424-.035-8.908 0-8.908 0l.001-.001z"/><path d="M106.547 32.312s.63.474 1.611-1.294c.981-1.77 2.522-8.631 5.604-9.471 3.082-.84 30.263-3.152 30.263-3.152s-28.652-.56-31.805 2.52c-3.152 3.082-3.642 10.61-5.674 11.397h.001zM44.839 16.353s-.37-1.56 1.192-2.75c1.56-1.191 9.61-7.596 9.61-7.596s3.78-3.038 8.71-3.449c4.929-.41 11.213-.492 11.213-.492s1.48-.083 1.52 1.108c.04 1.192-.822 11.702-.822 11.702s.247.862-.493 1.314c-.739.452-2.381.37-2.381.37l-26.084 1.23s-2.176-.122-2.464-1.436l-.001-.002z"/><path d="M75.36 15.08l.944-11.25s.328-.861-.473-.861c-.8 0-11.357 0-15.219 1.683-3.86 1.684-12.487 6.816-13.76 10.429-1.274 3.613 2.136 1.396 2.136 1.396l5.01-.082 19.224-.862s2.077.252 2.136-.452h.001zm17.842-2.061c0 1.686-1.368 3.252-3.055 3.252h-6.499c-1.686 0-3.46-1.765-3.46-3.45V4.536c0-1.686 1.772-2.502 3.46-2.502h5.66c1.686 0 2.798.54 3.36 2.785l.534 8.199z"/><path d="M89.306 2.535c1.35 0 2.233.358 2.736 2.312l.528 8.217c-.01 1.38-1.138 2.602-2.424 2.602h-6.499c-1.331 0-2.845-1.514-2.845-2.843V4.538c0-1.287 1.472-2.004 2.845-2.004h5.667m-.008-.63h-5.659c-1.686 0-3.475.946-3.475 2.632v8.283c0 1.686 1.789 3.474 3.475 3.474h6.5c1.686 0 3.054-1.578 3.054-3.264l-.533-8.27c-.563-2.244-1.675-2.856-3.362-2.856zM44.478 29.738c-.715 0-.876.58-.876 1.294v.037c0 .714.16 1.294.876 1.294h33.907v-2.627H44.478v.002zm51.562 1.296c0-.715.05-1.295-.666-1.295H79.227v2.627h16.147c.715 0 .666-.58.666-1.295v-.038zM45.068 16.595s-.252-1.463 1.253-1.824l.181-1.881s-.069-.976.502-1.226c.572-.251 3.512-.962 4.725-.78 1.212.181.85 3.385.821 3.873-.028.488.126 1.38-.683 1.672-.809.293-3.526 1.198-3.903 1.338-.376.14-2.953.57-2.898-1.17l.002-.002zM78.882 37.69h-.131V20.18L79.198.089l.209.005-.525 20.09v17.508z"/><path d="M42.656 38.458l-.026-.07c-.479-1.295-1.908-10.981-1.618-14.539.277-3.4 1.91-10.285 1.926-10.355l.26-.188c-.017.07-1.701 7.176-1.977 10.56-.275 3.372 1.095 12.868 1.581 14.38l53.065-.758.003.21-53.216.761h.002zm-7.283 2.828c.295-6.205-4.498-11.474-10.705-11.769-6.208-.294-11.479 4.497-11.774 10.701-.295 6.205 4.498 11.474 10.706 11.769 6.207.295 11.478-4.496 11.773-10.701z"/><path d="M15.661 40.752c0 4.693 3.806 8.496 8.5 8.496 4.695 0 8.5-3.804 8.5-8.496a8.498 8.498 0 00-8.5-8.495c-4.694 0-8.5 3.803-8.5 8.495z"/><path d="M21.212 35.057l1.968 2.235s.34.536.805.536.804-.376.804-.376l2.057-2.395s.287-.34 0-.572c-.286-.232-1.29-.572-2.683-.572-1.393 0-3.45.375-2.95 1.144zm0 11.393l1.966-2.236s.34-.536.805-.536.805.375.805.375l2.057 2.395s.286.34 0 .572c-.287.232-1.29.572-2.684.572-1.394 0-3.45-.376-2.95-1.144v.001zm8.718-8.538l-2.236 1.966s-.537.34-.537.804c0 .465.375.805.375.805l2.396 2.055s.34.286.573 0c.232-.286.572-1.289.572-2.682 0-1.394-.376-3.45-1.145-2.948h.002zm-11.398 0l2.236 1.966s.535.34.535.804c0 .465-.375.805-.375.805l-2.396 2.055s-.34.286-.572 0c-.233-.286-.572-1.289-.572-2.682 0-1.394.376-3.45 1.144-2.948z"/><path d="M35.373 41.286c.295-6.205-4.498-11.474-10.705-11.769-6.208-.294-11.479 4.497-11.774 10.701-.295 6.205 4.498 11.474 10.706 11.769 6.207.295 11.478-4.496 11.773-10.701z"/><path d="M15.661 40.752c0 4.693 3.806 8.496 8.5 8.496 4.695 0 8.5-3.804 8.5-8.496a8.498 8.498 0 00-8.5-8.495c-4.694 0-8.5 3.803-8.5 8.495z"/><path d="M21.212 35.057l1.968 2.235s.34.536.805.536.804-.376.804-.376l2.057-2.395s.287-.34 0-.572c-.286-.232-1.29-.572-2.683-.572-1.393 0-3.45.375-2.95 1.144zm0 11.393l1.966-2.236s.34-.536.805-.536.805.375.805.375l2.057 2.395s.286.34 0 .572c-.287.232-1.29.572-2.684.572-1.394 0-3.45-.376-2.95-1.144v.001zm8.718-8.538l-2.236 1.966s-.537.34-.537.804c0 .465.375.805.375.805l2.396 2.055s.34.286.573 0c.232-.286.572-1.289.572-2.682 0-1.394-.376-3.45-1.145-2.948h.002zm-11.398 0l2.236 1.966s.535.34.535.804c0 .465-.375.805-.375.805l-2.396 2.055s-.34.286-.572 0c-.233-.286-.572-1.289-.572-2.682 0-1.394.376-3.45 1.144-2.948zm117.802 4.647c.996-6.132-3.17-11.909-9.304-12.904-6.134-.996-11.914 3.168-12.91 9.3-.995 6.131 3.17 11.909 9.304 12.904 6.134.995 11.914-3.169 12.91-9.3z"/><path d="M116.749 40.752c0 4.693 3.806 8.496 8.501 8.496a8.498 8.498 0 008.499-8.496 8.498 8.498 0 00-8.499-8.495c-4.695 0-8.501 3.803-8.501 8.495z"/><path d="M122.3 35.057l1.967 2.235s.34.536.805.536.804-.376.804-.376l2.056-2.395s.287-.34 0-.572c-.286-.232-1.289-.572-2.683-.572s-3.451.375-2.951 1.144h.002zm0 11.393l1.966-2.236s.34-.536.805-.536.805.375.805.375l2.056 2.395s.287.34 0 .572c-.286.232-1.289.572-2.683.572s-3.451-.376-2.949-1.144v.001zm8.717-8.538l-2.236 1.966s-.537.34-.537.804c0 .465.376.805.376.805l2.397 2.055s.339.286.572 0c.233-.286.572-1.289.572-2.682 0-1.394-.376-3.45-1.144-2.948zm-11.396 0l2.236 1.966s.535.34.535.804c0 .465-.375.805-.375.805l-2.396 2.055s-.34.286-.572 0c-.233-.286-.572-1.289-.572-2.682 0-1.394.376-3.45 1.144-2.948zm38.101-4.924h2.732s.641.049.534.733c-.107.684-.324 3.654-1.628 3.74-1.304.085-3.679.65-3.764.309-.086-.343.963-1.048 1.305-1.84.342-.79.634-2.94.821-2.94v-.002zM68.427 20.227s.039-.772.47-.802c.431-.03 1.115-.136 1.115-.136s.697-.895 1.472-.895h1.648s1.419-.21 2.057.84h1.41s.703.025.733.978c.03.954-.684.775-.684.775l-1.444.026s-.655.952-1.205.952h-1.603s-1.52.107-1.879-.384c-.356-.491-.699-.506-.699-.506l-.773-.044s-.769-.236-.617-.806l-.001.002z"/></g><defs><clipPath id="clip0_1646_6153"><path fill="#fff" d="M0 0h161v52H0z"/></clipPath></defs></svg>