<svg width="111" height="33" fill="none" xmlns="http://www.w3.org/2000/svg"><g clip-path="url(#clip0_1646_6212)" fill="#CED5E0"><path d="M107.351 24.404h2.89s.987 2.076-.978 3.006c-1.966.931-9.621.701-9.621.701l-13.114.051-1.07.86h-3.16l-48.014-2.306-1.695 1.94-3.229.328-14.774-1.418s-1.562 1.686-3.243 1.071c-1.681-.613-1.817-6.545-1.817-6.545l2.977-8.587 8.507-1.298 15.096 2.445 23.552 4.097 18.414-3.557 11.777-4.69 7.493.486 6.156 5.319 3.854 8.097h-.001z"/><path d="M5.1 17.316s2.413-4.463 11.124-5.065c8.712-.603-11.123 5.065-11.123 5.065zm102.97-8.335s1.194 1.871 1.194 3.221-.368 2.435-.413 2.449c-.045.014-4.82-.623-4.82-.623l-.707-2.94 4.746-2.107zM69.386 4.01s-.147-1.107-.697-.96c-.55.148-.66.516-.77 1.698-.11 1.183-1.834 4.1-3.521 4.728-1.687.628-2.75.701-4.548.776-1.797.073-17.352-.146-17.714.406-.362.552.624 1.598.77 1.594.148-.005 16.835 1.84 16.835 1.84l7.005-1.403 4.364-5.096-1.686-3.251-.037-.333-.001.001zm-37.692 7.628l-.588-.902.263-.309S46.222 2.983 48.602 2.28c0 0 .448.818-.14 1.367-.588.55-8.062 6.018-8.845 7.767-.784 1.747-7.922.225-7.922.225h-.001z"/><path d="M48.453 2.68s-.092-.853.312-1.017c.404-.163 1.088-.558 1.414-.558.326 0 1.53 1.443.976 2.165-.553.721-7.815 6.1-9.378 8.559-1.563 2.459-2.833.423-2.833.423l.75-.817s.84-1.908 4.816-4.675c3.975-2.768 4.431-3.424 3.943-4.079V2.68zm26.831 2.328s.293-3.639-1.27-4.066C72.451.516 70.53.024 70.53.024s.326 3.083-.424 4.624"/><path d="M70.797 4.68a.295.295 0 01-.294.295.295.295 0 01-.294-.296V.296c0-.163.132-.296.294-.296.162 0 .294.133.294.296V4.68zM6.106 28.113s-3.424-.276-4.965-1.085C-.4 26.218.075 25.54.409 25.54H2.33s1.364-.397 1.028-2.286c-.335-1.89 3.085 1.888 2.748 4.858z"/><path d="M.036 21.165s1.54.48 2.127 2.142c.588 1.663 1.651 4.143 3.303 4.65 1.651.507 5.878.677 5.878.677s-1.063-14.348 11.057-14.348c12.12 0 10.19 14.348 10.19 14.348s49.602.31 49.687.339c.083.028-2.995-14.32 10.161-15.053 13.157-.734 10.525 13.191 10.525 13.191l5.124-1.183s.503-2.17 1.12-2.96c.616-.788 1.791-3.466 1.791-5.073 0-1.606.112-3.467-1.12-4.34 0 0-.391-1.522-.671-1.804l-.169 1.945s-1.511.253-2.267-.423c-.756-.677-2.266-1.663-2.295-1.945-.028-.282 3.835-2.086 4.087-2.397.252-.31.224-.901-.112-.958-.336-.057-1.343.451-2.827.451-1.483 0-7.25-.198-9.573-.874-2.323-.677-14.304-2.96-16.739-3.186-2.435-.225-8.873-.817-10.245-.704 0 0-2.043 6.511-6.27 7.047-4.227.535-17.439.648-17.439.648l-13.968-.564-.016-.366s-11.74-.339-16.08 1.606c0 0-.867.62-1.903.79-1.035.169-5.655 2.367-7.67 3.1-2.015.733-4.815 1.606-5.346 3.269-.532 1.663-.336 1.974-.336 1.974H.036z"/><path d="M46.256 7.521l.61-.271.284.002s.463.891.343 1.68c-.12.788-.267 1.571-.267 1.571h-.574l-.395-2.982h-.001z"/><path d="M42.056 11.222s1.022-1.084 1.182-1.448c.161-.364-.04-1.233.602-1.617.642-.384 1.626-.957 3.032-.893 0 0 .722.933.1 3.237 0 0-1.285.324-1.726-.04 0 0-.522.89-.401 1.193.12.303-2.787-.198-2.79-.432zm47.084 3.243a57.011 57.011 0 01-2.816-4.15c-1.097-1.776-2.575-1.496-3.458-1.327-.324.061-.557.106-.696.041-.373-.175-1.284-1.565-1.888-2.485a20.16 20.16 0 00-.433-.647c-.323-.435-.58-1.494-.59-1.538l.102.003c.002.01.26 1.055.57 1.472.083.11.24.35.438.652.56.854 1.499 2.285 1.846 2.447.108.051.339.007.633-.05.91-.173 2.43-.463 3.564 1.373 1.481 2.396 2.825 4.158 2.837 4.175l-.11.032v.002zm10.12.945l-.087-.057c.993-.158 5.671-3.539 5.714-3.57l.08.066c-.175.131-4.688 3.398-5.706 3.56h-.001zm-85.105 1.24c-.186 0-.417-.113-.7-.255a5.39 5.39 0 00-.81-.344c-.694-.216-3.072-1.637-3.172-1.698l.113-.048c.024.014 2.406 1.435 3.089 1.646.308.096.582.231.824.352.29.143.54.267.704.24.323-.054 1.29.008 1.33.01l-.124.105c-.01 0-.878-.065-1.19-.013a.4.4 0 01-.067.006h.003zm64.612 10.616s-.65.015-1.79.038c-1.14.017-2.768.055-4.72.076-1.953.02-4.232.058-6.673.074l-7.649.048-7.65.006c-2.44.004-4.72-.019-6.673-.026-1.953-.007-3.581-.034-4.72-.043l-1.79-.024s.65-.015 1.79-.038c1.139-.017 2.767-.055 4.72-.076 1.953-.02 4.231-.06 6.672-.072l7.649-.05 7.65-.005c2.441-.002 4.72.019 6.672.026 1.953.008 3.581.033 4.72.043l1.79.025.002-.002z"/><path d="M48.132 27.668c-3.609 0-6.558-.035-7.172-.138-1.604-.269-2.068-2.376-2.113-2.6-.072-.14-.474-1.08-1.45-5.945-1.066-5.314.327-7.786.386-7.888l.178.106c-.014.024-1.412 2.516-.362 7.742 1.04 5.184 1.419 5.869 1.434 5.896l.01.015.004.02c.005.022.432 2.196 1.948 2.45.896.15 7.963.14 12.096.12 5.69-.027 11.01-.095 11.21-.12.297-.05 1.927-1.387 3.24-4.617a1832.94 1832.94 0 014.335-10.497l.008-.016c.004-.005.394-.652-.01-1.875-.432-1.307.686-6.325.734-6.538l.201.046c-.012.053-1.154 5.176-.74 6.427.418 1.263.047 1.957-.006 2.045-.11.266-3.028 7.274-4.332 10.488-1.364 3.359-3.064 4.688-3.398 4.743-.076.014-9.332.138-16.2.138v-.003zM26 32.145c4.28-2.071 6.082-7.245 4.025-11.555-2.057-4.31-7.195-6.124-11.475-4.053-4.28 2.072-6.082 7.245-4.025 11.555 2.057 4.31 7.195 6.125 11.475 4.053z"/><path d="M15.799 24.341c0 3.612 2.908 6.54 6.496 6.54 3.588 0 6.495-2.928 6.495-6.54S25.882 17.8 22.295 17.8s-6.496 2.928-6.496 6.541z"/><path d="M20.04 19.957l1.504 1.72s.259.413.615.413c.357 0 .614-.289.614-.289l1.572-1.844s.219-.262 0-.441-.986-.44-2.05-.44c-1.065 0-2.638.288-2.255.88zm0 8.77l1.504-1.72s.26-.412.616-.412c.355 0 .615.289.615.289l1.571 1.844s.22.262 0 .44c-.218.18-.985.442-2.05.442s-2.636-.29-2.254-.88l-.001-.003zm6.663-6.572l-1.709 1.514s-.41.262-.41.62.287.62.287.62l1.832 1.582s.26.22.437 0c.178-.22.438-.992.438-2.064 0-1.073-.287-2.655-.875-2.27v-.002zm-8.709 0l1.708 1.514s.41.262.41.62-.288.62-.288.62l-1.832 1.582s-.26.22-.437 0c-.178-.22-.438-.992-.438-2.064 0-1.073.287-2.655.875-2.27l.002-.002zm77.698 9.99c4.28-2.071 6.082-7.245 4.025-11.555-2.057-4.31-7.194-6.124-11.474-4.053-4.28 2.072-6.082 7.245-4.025 11.555 2.057 4.31 7.194 6.125 11.474 4.053z"/><path d="M85.492 24.341c0 3.612 2.908 6.54 6.496 6.54 3.588 0 6.495-2.928 6.495-6.54S95.575 17.8 91.988 17.8s-6.496 2.928-6.496 6.541z"/><path d="M89.734 19.956l1.504 1.72s.26.413.615.413c.356 0 .615-.289.615-.289l1.572-1.844s.219-.262 0-.441-.986-.44-2.05-.44c-1.065 0-2.638.288-2.254.88h-.002zm0 8.77l1.504-1.72s.26-.412.615-.412c.356 0 .615.289.615.289l1.572 1.844s.219.262 0 .44c-.219.18-.986.442-2.05.442-1.065 0-2.638-.29-2.254-.88l-.002-.003zm6.662-6.571l-1.708 1.514s-.41.261-.41.62c0 .357.286.619.286.619l1.832 1.582s.26.22.438 0c.177-.22.437-.992.437-2.064 0-1.073-.287-2.655-.875-2.27v-.001zm-8.71 0l1.708 1.514s.41.261.41.62c0 .357-.288.619-.288.619l-1.831 1.582s-.26.22-.438 0c-.177-.22-.437-.992-.437-2.064 0-1.073.287-2.655.874-2.27l.002-.001z"/></g><defs><clipPath id="clip0_1646_6212"><path fill="#fff" d="M0 0h111v33H0z"/></clipPath></defs></svg>