<svg width="142" height="46" fill="none" xmlns="http://www.w3.org/2000/svg"><g id="Isolation_Mode" clip-path="url(#clip0_1646_5918)" fill="#CED5E0"><path id="Vector" d="M3.755 36.98l4.59 2.934s.939-2.391 4.463-1.68c3.524.71 17.908 1.826 17.908 1.826s5.181 1.454 7.578-.23c2.395-1.682 55.5-1.604 55.5-1.604l7.639 1.922s2.5-.87 4.269-.937c1.768-.066 16.941-.399 16.941-.399l2.671-.464 6.312-5.573-12.677-17.261-93.046 3.375-18.92 5.347L3.755 36.98z"/><path id="Vector_2" d="M135.826 34.451h5.432s.719-.038.599 1.332c-.121 1.37-1.25 1.188-1.25 1.188h-5.253l.472-2.52z"/><path id="Vector_3" d="M14.475 17.973l-2.531-.326s-4.235.664-6.616 2.71c-2.382 2.044-3.383 6.045-3.24 6.616.143.572 7.861-2.476 8.05-2.737.192-.263 4.336-6.263 4.336-6.263h.001z"/><path id="Vector_4" d="M37.113 14.084s1.027-.575 1.767-.822 3.33-.617 3.165-.411c-.165.205-1.192.658-.988 1.232.206.576-3.946 0-3.946 0l.002.001z"/><path id="Vector_5" d="M39.948 14.126s16.986-9.52 22.74-11.534l2.21.113L52.117 9.73l-8.016 5.3-4.152-.904z"/><path id="Vector_6" d="M134.82 13.497s2.048-.62 2.382.762c.333 1.381.333 2.715.904 4.144.572 1.428.953 2.285.477 3.285-.477 1-8.385-.952-8.385-.952s-.048-7.144 4.622-7.24z"/><path id="Vector_7" d="M35.765 40.68c4.47-.399 55.778-.513 64.433-.529l-.049-2.406-64.396 1.116.01 1.82h.002z"/><path id="Vector_8" d="M139.458 24.012c0-.467-.668-3.2-.668-3.2s-.867-.032-3.369-.1c-2.501-.066-3.001-2.365-3.569-3.466-.566-1.1 4.003-2.797 4.537-3.597.533-.8-7.772-1.56-9.539-1.76-1.768-.2-6.836-3.219-13.508-6.486C106.672 2.138 98.233 0 82.156 0 66.08 0 61.66 2.882 61.66 2.882h1.92c-12.708 5.902-19.914 10.85-19.914 10.85-1.335.4-5.47-.087-5.47-.087-19.312 1.967-26.252 4.003-26.252 4.003s1.763.804 1.396 1.337c-.367.533-5.715 4.408-7.381 5.875C4.29 26.326 2 26.24 2 26.24c-1.746.795-2.06 2.206-1.993 3.14.066.933.767 5.4.8 6.001.033.6-.9.533-.6 1.634.3 1.101 2.936 2.401 2.936 2.401l4.33.417c-.261-1.286-1.001-5.563.081-8.27 1.287-3.215 4.58-9.734 13.726-9.734 7.393 0 14.47 4.833 14.47 15.011 0 .755 0 1.423.002 2.022l64.396-1.116-.033-1.63s1.973-14.502 14.649-13.872c10.884.54 12.837 10.243 11.546 16.018 2.383-.205 8.288-.707 9.11-.68 1.034.033 1.468-.833 1.468-.833 5.771-1.667 3.768-3.568 3.768-3.568 1.267-2.533 1.168-4.2 1.335-6.568.167-2.368-2.536-2.601-2.536-2.601h.002z"/><path id="Vector_9" d="M114.764 22.243c-12.676-.63-14.649 13.872-14.649 13.872l.081 4.036 1.238-.003c-.2-2.7-.099-16.181 13.441-16.33 12.175-.134 10.44 14.529 10.44 14.529s.384-.035.995-.086c1.292-5.775-.662-15.479-11.546-16.018z"/><path id="Vector_10" d="M21.28 21.826c-9.145 0-12.438 6.52-13.725 9.735-1.083 2.707-.342 6.984-.081 8.27l.872.083c-1.334-7.401 1.767-17.87 14.208-16.837 12.44 1.033 12.674 14.936 12.674 16.07 0 1.134.267 1.567.267 1.567.05-.012.14-.024.268-.035-.01-.947-.014-2.2-.014-3.842 0-10.179-7.077-15.012-14.47-15.012l.001.002z"/><path id="Vector_11" d="M45.893 15.512S62.479 4.07 64.899 3.648c0 0 10.936-3.053 19.85-2.205 8.914.847 25.39 2.199 25.862 7.366.473 5.169-.294 4.224-.294 4.224l-64.424 2.48z"/><path id="Vector_12" d="M80.26 1.938l-2.48 12.49 5.314-.258.887-12.232h-3.72z"/><path id="Vector_13" d="M21.517 45.997c5.796-.145 10.378-4.96 10.234-10.754-.145-5.795-4.962-10.375-10.759-10.23-5.797.144-10.379 4.959-10.234 10.753.145 5.795 4.962 10.375 10.759 10.23z"/><path id="Vector_14" d="M13.349 35.505a7.93 7.93 0 007.932 7.929 7.929 7.929 0 100-15.858 7.93 7.93 0 00-7.932 7.929z"/><g id="Group"><path id="Vector_15" d="M18.529 30.188l1.835 2.085s.317.5.75.5c.435 0 .752-.35.752-.35l1.92-2.235s.266-.317 0-.533c-.267-.217-1.204-.533-2.504-.533s-3.22.35-2.753 1.068v-.002z"/><path id="Vector_16" d="M18.527 40.82l1.835-2.085s.317-.5.751-.5.751.35.751.35l1.919 2.235s.268.317 0 .534c-.267.217-1.204.534-2.504.534s-3.22-.35-2.752-1.068z"/><path id="Vector_17" d="M26.663 32.853l-2.086 1.835s-.5.317-.5.75c0 .434.35.751.35.751l2.236 1.918s.317.267.534 0c.216-.267.534-1.203.534-2.503s-.35-3.219-1.068-2.75z"/><path id="Vector_18" d="M16.027 32.853l2.086 1.835s.5.317.5.75c0 .434-.35.751-.35.751l-2.236 1.918s-.317.267-.535 0c-.216-.267-.533-1.203-.533-2.503s.35-3.219 1.068-2.75z"/></g><g id="Group_2"><path id="Vector_19" d="M124.11 35.505c0 5.796-4.702 10.495-10.5 10.495-5.799 0-10.5-4.699-10.5-10.495 0-5.796 4.701-10.495 10.5-10.495 5.798 0 10.5 4.699 10.5 10.495z"/><path id="Vector_20" d="M105.703 35.505a7.93 7.93 0 007.932 7.929 7.928 7.928 0 100-15.858 7.93 7.93 0 00-7.932 7.929z"/><g id="Group_3"><path id="Vector_21" d="M110.882 30.19l1.835 2.084s.317.5.751.5.751-.35.751-.35l1.918-2.235s.267-.317 0-.533c-.266-.217-1.203-.533-2.503-.533-1.301 0-3.221.35-2.752 1.068v-.002z"/><path id="Vector_22" d="M110.882 40.821l1.835-2.085s.317-.5.751-.5.751.35.751.35l1.918 2.235s.268.317 0 .534c-.266.217-1.203.534-2.503.534-1.301 0-3.221-.35-2.752-1.068z"/><path id="Vector_23" d="M119.017 32.854l-2.086 1.834s-.501.317-.501.751.35.751.35.751l2.236 1.918s.317.266.533 0c.218-.267.535-1.203.535-2.503s-.35-3.219-1.068-2.75h.001z"/><path id="Vector_24" d="M108.382 32.854l2.086 1.834s.5.317.5.751-.35.751-.35.751l-2.236 1.918s-.317.266-.535 0c-.216-.267-.535-1.203-.535-2.503s.351-3.219 1.069-2.75h.001z"/></g></g><path id="Vector_25" d="M104.71 4.146S96.076.958 82.192 1.335c0 0-11.671-.08-17.202 1.84 0 0-8.546 3.212-20.573 12.81h1.89l.639-.065 64.662-2.562c-.03-.6.087-1.722-.091-3.039-.365-2.707-1.312-4.828-6.807-6.174v.001zm4.976 8.647l-29.193 1.089-33.841 1.54C49.92 13.144 62.168 5.019 65.816 3.658c4.252-1.586 17.24-1.681 18.64-1.611 1.402.07 16.211.49 22.856 3.923 0 0 4.306 1.102 2.373 6.823h.001z"/><path id="Vector_26" d="M42.302 36.981l-.01-.109c-.01-.12-1.091-12.079-.355-15.725.718-3.553 1.226-4.424 3.627-6.212l.12-.09c9.72-7.242 17.012-11.52 21.09-12.369 3.655-.762 10.416-1.273 16.823-1.273 4.77 0 11.534.272 16.657 1.572 9.592 2.431 10.787 3.882 11.23 6.61.424 2.61.335 11.51-.408 13.167l-.024.053-.057.013c-.098.023-9.758 2.36-10.652 13.624l-.008.108-58.031.632-.002-.001zM83.597 1.438c-6.393 0-13.134.51-16.775 1.27-3.986.83-11.442 5.208-20.997 12.326l-.122.09c-2.338 1.742-2.833 2.592-3.536 6.07-.693 3.428.243 14.337.349 15.548l57.598-.628c.921-10.886 9.943-13.497 10.767-13.713.69-1.72.773-10.485.369-12.981-.426-2.622-1.599-4.022-11.056-6.42-5.1-1.293-11.841-1.563-16.598-1.563h.001z"/><path id="Vector_27" d="M12.808 25.52l-5.948.028s-.244 1.15 1.175 1.24c1.42.088 3.31.122 3.31.122s.863-.956 1.462-1.39h.001z"/><path id="Vector_28" d="M102.182 27.391c.008.411-13.08.647-29.226.952-16.145.305-29.234.567-29.24.156-.008-.412 13.127-.848 29.272-1.153 16.146-.306 29.187-.366 29.195.046h-.001z"/><path id="Vector_29" d="M79.365 36.474c-.973-7.063 1.03-22.765 1.05-22.923l1.543-12.246.234.029-1.541 12.246c-.02.158-2.02 15.828-1.053 22.86l-.233.032v.002z"/><path id="Vector_30" d="M69.942 18.626s-.061-.914 1.523-1.316c1.584-.402 2.035-.439 2.558-.439.523 0 3.825.219 3.85 1.437.023 1.217-2.449 1.619-3.412 1.692-.962.073-4.582.183-4.52-1.377v.003z"/><path id="Vector_31" d="M101.12 17.918s-.061-.914 1.523-1.316c1.583-.402 2.034-.439 2.558-.439s3.826.219 3.851 1.436c.024 1.218-2.449 1.62-3.411 1.693-.962.073-4.582.183-4.521-1.377v.003z"/><path id="Vector_32" d="M76.541 18.224a.532.532 0 01-.519.543l-4.368.103a.532.532 0 01-.544-.519l-.002-.118a.532.532 0 01.518-.544l4.368-.102a.532.532 0 01.544.519l.003.118z"/><path id="Vector_33" d="M107.719 17.516a.532.532 0 01-.519.544l-4.368.102a.533.533 0 01-.544-.519l-.003-.118a.533.533 0 01.519-.544l4.368-.102a.532.532 0 01.544.519l.003.118z"/></g><defs><clipPath id="clip0_1646_5918"><path fill="#fff" d="M0 0h142v46H0z"/></clipPath></defs></svg>