<svg width="111" height="36" fill="none" xmlns="http://www.w3.org/2000/svg"><g clip-path="url(#clip0_1646_6516)" fill="#CED5E0"><path d="M108.332 18.402c.458 1.8 1.335 3.131 1.962 2.973.626-.157.763-1.744.305-3.543-.457-1.8-1.335-3.131-1.961-2.974-.627.158-.764 1.745-.306 3.544zM82.858 7.969a2.27 2.27 0 00.794 3.118 2.29 2.29 0 003.132-.79l1.17-1.955a2.27 2.27 0 00-.795-3.118 2.29 2.29 0 00-3.132.79l-1.17 1.955zm-20.08 1.253a2.27 2.27 0 00.794 3.118 2.29 2.29 0 003.132-.79l1.17-1.955a2.27 2.27 0 00-.795-3.118 2.29 2.29 0 00-3.132.79l-1.17 1.955z"/><path d="M1.085 29.464c.366-.118.314-1.168.285-2.782-1.126.445-1.909-6.62-.914-8.954C2.214 13.601 17.724 9.129 34.1 9.129 41.035 5.074 48.8 1.196 54.86.005c.338-.066 2.312.495-.466 1.933-4.893 2.533-15.13 7.187-6.798 7.187 29.431 0 35.618-.12 36.349-1.575 3.042-4.847 12.62 1.043 17.038 2.704 5.653 2.127 9.176 3.05 8.417 6.003-.603 2.343.059 3.375 1.167 3.742 1.24.412-.311 9.598-3.005 10.303-1.992.523-5.338 1.074-8.337 1.336-4.682.41-50.816.326-65.752-.125-12.436-.375-38.544-.05-32.388-2.049z"/><path d="M1.085 29.464c.19-.062.267-.38.293-.892 6.176.664 22.49.573 31.614.842 15.278.45 62.47.534 67.261.125 3.069-.262 6.49-.814 8.528-1.335.337-.087.657-.303.956-.612-.573 1.394-1.315 2.487-2.175 2.712-1.992.522-5.337 1.073-8.337 1.335-4.682.41-50.816.326-65.752-.125-12.436-.375-38.544-.049-32.388-2.049zm.285-7.871c.03 1.614.082 2.662-.285 2.782-.363.117-.604.227-.752.33-.347-1.773-.462-4.327-.148-6.005.236 1.748.673 3.095 1.184 2.893h.001z"/><path d="M91.688 16.132c-5.897 0-10.677 4.758-10.677 10.63 0 .331-.067 2.557-.137 5.204 8.856-.022 15.957-.12 18.351-.33a87.022 87.022 0 003.192-.331c-.023-2.268-.052-4.123-.052-4.545 0-5.87-4.78-10.63-10.677-10.63v.002zm-65.249 0c-5.898 0-10.677 4.758-10.677 10.629 0 .294-.023 2.3-.084 4.544 5.662.169 12.119.036 17.795.208 1.006.03 2.252.06 3.697.09-.023-2.4-.055-4.403-.055-4.842 0-5.87-4.78-10.63-10.676-10.63z"/><path d="M26.328 36c-5.03 0-9.109-4.06-9.109-9.067 0-5.008 4.078-9.068 9.108-9.068s9.108 4.06 9.108 9.068c0 5.007-4.077 9.067-9.108 9.067z"/><path d="M30.279 29.55c-1.89 1.881-1.635-1.422-3.524-3.303-1.89-1.882-5.209-1.628-3.32-3.509a4.856 4.856 0 016.845 0 4.802 4.802 0 010 6.812h-.001z"/><path d="M33.363 26.932c0 3.868-3.15 7.004-7.036 7.004-3.885 0-7.035-3.136-7.035-7.004 0-3.868 3.15-7.004 7.035-7.004 3.886 0 7.036 3.136 7.036 7.004zm-1.292 2.125l-.891-.142.733.53a6.9 6.9 0 00.158-.388zm.278-.981a5.953 5.953 0 00.004-2.262l-2.992.474-.91.657.909.656 2.987.474h.002zm-11.569 1.45l.846-.61-1.035.163c.057.152.12.301.19.446zm2.665-1.924l.91-.656-.911-.657-3.14-.497a6.04 6.04 0 00-.11 1.141c0 .39.041.79.115 1.168l3.136-.497v-.002zm-2.862-2.792l1.043.165-.855-.617a6.137 6.137 0 00-.188.452zm11.34-.37l-.742.535.9-.143c-.05-.132-.1-.263-.157-.392h-.001zm-2.092-2.515l-1.802 2.473-.176 1.105 1.11-.176 2.468-1.781a6.147 6.147 0 00-1.6-1.621zm-.885-.508a6.606 6.606 0 00-.41-.176l-.153.95.563-.773zm-2.617-.59c-.368 0-.726.037-1.076.1L25.745 24l.66.907.66-.907.487-3.05a6.214 6.214 0 00-1.225-.123h.002zm-2.064.36a6.03 6.03 0 00-.442.175l.602.827-.16-1.003v.002zm-2.989 2.286l2.57 1.854 1.11.176-.176-1.105-1.854-2.545a6.123 6.123 0 00-1.648 1.62h-.002zm1.663 8.546l1.84-2.527.176-1.104-1.11.175-2.556 1.846a6.14 6.14 0 001.649 1.61zm.899.49c.14.061.285.117.431.169l.156-.977-.588.807h.001zm2.49.529c.42 0 .826-.042 1.22-.122l-.484-3.025-.66-.906-.659.905-.488 3.049c.349.062.705.099 1.072.099zm2.204-.413c.135-.052.268-.11.4-.17l-.549-.754.149.924zm2.888-2.29l-2.456-1.773-1.11-.176.177 1.106 1.789 2.457a6.136 6.136 0 001.6-1.612v-.001z"/><path d="M27.947 31.735l.769-.317-1.049-1.44.282 1.756h-.002zm-3.085 0l.28-1.757-1.049 1.44.769.318v-.002zm2.566-2.331l-.274-1.713 1.72.272-1.411-1.017 1.41-1.019-1.72.273.274-1.713-1.023 1.405-1.022-1.404.274 1.712-1.722-.273 1.411 1.019-1.411 1.017 1.72-.272-.273 1.713 1.022-1.405 1.023 1.405h.002zm3.47-.158l.317-.765-1.764-.279 1.447 1.044zm-8.986 0l1.446-1.044-1.764.28.317.763.001.001zm1.447-3.556l-1.447-1.044-.318.763 1.765.28zm6.094 0l1.764-.28-.317-.764-1.446 1.044h-.001zm-1.786-1.777l1.049-1.439-.769-.317-.28 1.756zm-2.524 0l-.281-1.756-.767.316 1.049 1.44z"/><path d="M26.328 19.152c4.678 0 8.489 3.654 8.735 8.25.009-.156.024-.31.024-.47 0-4.816-3.921-8.72-8.76-8.72-4.838 0-8.759 3.904-8.759 8.72 0 .16.015.314.024.47.246-4.596 4.057-8.25 8.736-8.25z"/><path d="M26.327 33.97c-3.785 0-6.87-2.957-7.069-6.676-.006.126-.019.252-.019.38 0 3.897 3.173 7.056 7.088 7.056s7.088-3.159 7.088-7.056c0-.129-.013-.254-.019-.38-.2 3.72-3.283 6.676-7.069 6.676zm74.861-7.037c0 5.008-4.078 9.067-9.108 9.067s-9.108-4.06-9.108-9.067c0-5.009 4.078-9.068 9.108-9.068 5.031 0 9.108 4.06 9.108 9.068z"/><path d="M96.032 29.55c-1.89 1.881-1.635-1.422-3.525-3.303-1.89-1.882-5.208-1.628-3.318-3.509a4.856 4.856 0 016.844 0 4.802 4.802 0 010 6.812h-.001z"/><path d="M99.116 26.932c0 3.868-3.15 7.004-7.036 7.004-3.885 0-7.035-3.136-7.035-7.004 0-3.868 3.15-7.004 7.035-7.004 3.886 0 7.036 3.136 7.036 7.004zm-1.292 2.125l-.892-.142.733.53c.057-.128.11-.257.159-.388zm.278-.981a5.953 5.953 0 00.004-2.262l-2.992.474-.91.657.909.656 2.987.474h.002zm-11.569 1.45l.846-.61-1.035.163c.057.152.12.301.19.446zm2.665-1.924l.91-.656-.912-.657-3.14-.497c-.07.37-.11.751-.11 1.141s.042.79.116 1.168l3.136-.497v-.002zm-2.862-2.792l1.043.165-.855-.617a6.182 6.182 0 00-.189.452zm11.34-.37l-.742.535.9-.143c-.05-.132-.1-.263-.158-.392zm-2.092-2.515l-1.802 2.473-.176 1.105 1.11-.176 2.468-1.781a6.147 6.147 0 00-1.6-1.621zm-.885-.508a6.606 6.606 0 00-.41-.176l-.153.95.563-.773zm-2.617-.59c-.368 0-.726.037-1.076.1L91.498 24l.66.907.66-.907.487-3.05a6.214 6.214 0 00-1.225-.123h.002zm-2.064.36a6.06 6.06 0 00-.442.175l.602.827-.16-1.003v.002zm-2.989 2.286l2.57 1.854 1.11.176-.176-1.105-1.854-2.545a6.121 6.121 0 00-1.648 1.62h-.002zm1.663 8.546l1.84-2.527.176-1.104-1.11.175-2.556 1.846a6.14 6.14 0 001.648 1.61h.002zm.899.49c.14.061.285.117.432.169l.156-.977-.588.807zm2.49.529c.42 0 .826-.042 1.22-.122l-.484-3.025-.66-.906-.659.905-.488 3.049c.349.062.705.099 1.072.099zm2.203-.413c.136-.052.27-.11.401-.17l-.549-.754.148.924zm2.89-2.29l-2.457-1.773-1.11-.176.177 1.106 1.789 2.457a6.138 6.138 0 001.6-1.612v-.001z"/><path d="M93.7 31.735l.769-.317-1.049-1.44.282 1.756H93.7zm-3.085 0l.28-1.757-1.049 1.44.769.318v-.002zm2.565-2.331l-.274-1.713 1.72.272-1.41-1.017 1.41-1.019-1.72.273.274-1.713-1.023 1.405-1.022-1.404.274 1.712-1.722-.273 1.411 1.019-1.411 1.017 1.72-.272-.273 1.713 1.022-1.405 1.023 1.405h.001zm3.471-.158l.318-.765-1.765-.279 1.447 1.044zm-8.986 0l1.446-1.044-1.764.28.317.763.001.001zm1.447-3.556l-1.447-1.044-.318.763 1.765.28zm6.094 0l1.764-.28-.317-.764-1.446 1.044h-.001zm-1.786-1.777l1.049-1.439-.769-.317-.28 1.756zm-2.524 0l-.281-1.756-.767.316 1.048 1.44z"/><path d="M92.08 19.152c4.679 0 8.49 3.654 8.736 8.25.009-.156.024-.31.024-.47 0-4.816-3.921-8.72-8.76-8.72-4.838 0-8.759 3.904-8.759 8.72 0 .16.015.314.024.47.246-4.596 4.057-8.25 8.736-8.25z"/><path d="M92.08 33.97c-3.785 0-6.87-2.957-7.069-6.676-.006.126-.019.252-.019.38 0 3.897 3.173 7.056 7.088 7.056s7.088-3.159 7.088-7.056c0-.129-.013-.254-.02-.38-.198 3.72-3.282 6.676-7.068 6.676zM7.83 26.446l-1.399-2.36c-.244-.413-.731-.759-1.088-.772l-3.542.027c-.574 0-1.11 3.105-.572 3.105H7.83zm4.75 3.107l-1.875-1.917c-.245-.413-.773-.595-1.13-.609l-7.756-.254c-.575 0-.595 2.499-.056 2.499l10.816.281zM54.817.057c-7.353 1.667-14.63 5.486-20.79 9.076l2.617-.037C44.994 2.944 55.627.635 54.817.056zM64.798 30.2H41.764c-2.451 0-2.474-3.142-2.506-7.491-.009-1.144-.018-2.327-.07-3.573-.253-6.066-.245-7.158 1.57-10.195l.108.065c-1.796 3.005-1.806 4.09-1.552 10.125.052 1.247.06 2.432.07 3.577.031 4.277.054 7.368 2.38 7.368h23.034c2.657 0 5.131-2.04 7.354-6.066 1.93-3.493 3.035-7.376 3.328-8.483.56-2.12.42-3.741-.415-4.82-.754-.974-2.084-1.488-3.846-1.488v-.125c1.803 0 3.168.532 3.946 1.537.861 1.11 1.008 2.77.438 4.928-.294 1.111-1.403 5.006-3.34 8.513-2.247 4.068-4.758 6.13-7.464 6.13l-.001-.002z"/><path d="M19.056 12.67c31.533.01 49.546-.51 70.987 2.103 3.6-2.015 10.637-1.21 10.637-1.21-42.009-6.536-81.624-.893-81.624-.893zm8.533 1.47c-4.592-.316-13.623 1.954-16.584 11.018l4.631-.897c3.049-8.13 8.39-8.455 11.793-8.22 5.355.368 9.006 4.731 9.698 9.072.42-5.409-4.183-10.604-9.538-10.974v.002zM37.82 25.482l45.444-7.768-11.004 3.539-34.44 4.229z" opacity=".5"/><path d="M8.477 26.344l7.202-1.416-.235 2.094-6.967-.678zm-7.392 3.12l14.598.382-3.69.917-11.695-.95.787-.35z" opacity=".5"/><path d="M71.956 14.408c-1.825 0-3.305-.297-3.305-.663 0-.366 1.48-.663 3.305-.663 1.825 0 3.305.297 3.305.663 0 .366-1.48.663-3.305.663z"/><path d="M74.863 13.602c0 .244-1.302.442-2.908.442-1.605 0-2.908-.198-2.908-.442s1.303-.442 2.908-.442c1.606 0 2.908.198 2.908.442zm-35.691-3.6c.257 1.299 2.999 1.854 4.296 1.6a2.39 2.39 0 001.884-2.812 2.4 2.4 0 00-2.813-1.892c-1.298.256-3.623 1.805-3.366 3.104h-.001z"/><path d="M44.62 7.948A2.064 2.064 0 0143.1 9.21c-.807.16-2.26-.048-3.098-.594.615-.746 1.755-1.392 2.504-1.538.84-.164 1.66.203 2.115.87h-.001z" opacity=".5"/><path d="M55.202 1.456c-.216-.19-.603-.267-.73-.243C48.994 2.235 43.57 5.775 36.845 9.49 12.018 11.791 4.742 15.418 2.038 19.545c-.75 1.144-.882 4.052-1.58 5.725-.308-1.735-.796-4.985.055-7.468 1.329-3.877 16.309-8.555 33.589-8.673C41.035 5.074 48.8 1.196 54.86.005c.296-.058 1.855.369.34 1.45zm54.858 19.609c-1.229-.41-2.159-1.521-2.119-3.98.05-3.023-3.646-3.983-9.611-6.131-4.563-1.644-8.763-4.173-14.385-2.07-4.863 1.469-8.777.8-36.434.594-2.127-.017-2.927-.351-2.884-.872.36.326 1.277.52 2.97.52 29.431 0 35.618-.12 36.349-1.575 3.042-4.846 12.62 1.043 17.038 2.705 5.652 2.126 9.175 3.049 8.416 6.002-.603 2.343.059 3.374 1.166 3.742.425.14.515 1.319.352 2.825-.23-.973-.529-1.651-.858-1.761v.001z" opacity=".5"/><path d="M1.433 20.066c-.64.943-.365 1.738.64 1.738h5.766c1.004 0 2.145-.796 2.53-1.738l.39-.952c.353-.861-.108-1.533-1.014-1.533H4.76c-.907 0-2.098.672-2.682 1.533l-.646.952z"/><path d="M8.124 21.58c.845 0 1.839-.686 2.17-1.498l.39-.951c.12-.293.12-.552 0-.73-.119-.174-.35-.27-.655-.27H5.045c-.792 0-1.85.612-2.36 1.363l-.646.952c-.3.44-.317.762-.234.917.1.189.388.217.551.217h5.768zm-.892 6.652c-.371-.444-.312-.804.135-.804h1.49c.447 0 1.11.36 1.482.804.372.444.312.804-.134.804H8.713c-.446 0-1.11-.36-1.48-.804z"/><path d="M1.765 21.209c-.014-.177.052-.437.274-.763l.646-.952c.51-.751 1.568-1.362 2.36-1.362h4.983c.305 0 .538.096.655.269.108.16.104.391.018.649-3.317-.382-6.755-.212-8.936 2.16v-.002zm8.19-.58c-.458.55-1.187.95-1.831.95h-3.59a29.37 29.37 0 015.421-.95z"/></g><defs><clipPath id="clip0_1646_6516"><path fill="#fff" transform="matrix(-1 0 0 1 111 0)" d="M0 0h111v36H0z"/></clipPath></defs></svg>