<svg width="116" height="48" fill="none" xmlns="http://www.w3.org/2000/svg"><g clip-path="url(#clip0_1646_6245)" fill="#CED5E0"><path d="M5.746 39.433S8.46 41.5 8.626 41.38c.168-.12-.127-.835 0-.962.128-.126 1.892-.564 1.892-.564l18.046 1.083s2.624.242 3.117.02c.493-.222 51.944-1.714 51.944-1.714l.581.632s1.503-.477 2.425.715c.922 1.194 22.09-1.313 22.538-.715.447.598-1.19-16.737-1.19-16.737L64.816 25.45l-49.89-2.5s-10.945 8.203-9.18 16.482zM50.55 2.466s2.13-1.74 4.712-1.98c2.582-.242 36.177-.991 43.975.052 7.8 1.045-22.387 8.995-22.387 8.995l-26.3-7.067zM28.084 16.12S46.798 3.297 48.182 3.084C49.566 2.87 50.258 4.1 50.258 4.1L29.122 17.833l-1.038-1.713z"/><path d="M31.07 16.115S41.815 7.57 48.662 3.228l-1.615.352S49.75.296 70.818.967c21.068.671 30.021.212 35.394.812 0 0 .837-.158.913 1.766 0 0-2.142 1.023-2.072 1.589.071.565-9.866 9.816-9.866 9.816l-41.854 2.366-22.262-1.2zm82.367 15.923l.274-5.412s1.445.226 1.644 1.253c.199 1.027 1.346 6.492 0 7.115-1.345.624-.074 2.305-.074 2.305l-1.768 2.155s-1.894-6.29-.075-7.416h-.001zM2.53 27.482s-1.515.197-1.76 2.362c-.244 2.163-.538 6.393.342 8.803.88 2.41 1.614.472 1.614.472l-.195-11.636z"/><path d="M1.042 35.816c.08 1.298.012 2.36-.156 2.37-.166.011-.368-1.033-.449-2.333-.08-1.298-.012-2.36.155-2.37.167-.011.368 1.033.449 2.333zm109.17-23.05s.805-.37.942 0c.138.37-.414.777-.697.815-.283.037-.246-.815-.246-.815h.001z"/><path d="M107.176 3.117s-1.873-.58-2.425 2.317c-.552 2.898-.408 10.358-.408 10.358l3.866 5.747 3.842 1.165s-.409-.634-.577-2.396c0 0-.216-.29-.216-.87 0-.58-.889-5.288-.481-5.409 0 0-1.176-5.915-3.601-10.913zM6.84 19.451s-1.651.86-1.824 1.207c-.171.347-1.536 2.586-1.225 4.847.31 2.259 3.26 1.019 3.26 1.019l3.803-2.189 5.647-5.619s-8.105-.494-9.66.736z"/><path d="M106.743 4.509l1.068 2.248s-.546.65-.347 1.55c.198.898 1.342 6.32 1.665 6.845.322.525 1.167 1.4 1.191 1.774.025.375.298 2.974.298 2.974s-3.453-2.523-3.875-3.673c-.422-1.15-1.293-9.694-.995-10.494.298-.799.995-1.224.995-1.224zm1.41 3.472s-.292.275-.118.975c.173.7 1.092 5.547 1.416 5.896.323.35.447.65.521.475.075-.175-1.283-6.436-1.819-7.346zm2.709 9.218s-.475-3.124-.244-3.247c.231-.124.796 1.358 1.004 3.284.209 1.925.16 3.05-.11 3.098-.27.049-.516-2.087-.651-3.136h.001z"/><path d="M19.061 23.844c12.862 0 14.672 13.917 14.672 13.917l47.587-.491s.587-14.13 16.09-14.13c10.778 0 13.744 12.064 13.744 12.064l2.39-.128a.406.406 0 00-.083.002c-.082-.166.124-2.321.247-2.695.123-.373.247-2.28.247-2.28s.125-.747 0-3.275c-.124-2.528-1.319-3.192-1.443-3.358-.123-.166-.66-1.114-.66-1.114s-2.597-2.078-4.493-3.653c-1.896-1.575-2.061-2.736-2.267-4.477-.206-1.741-.259-9.164-.259-9.164l-6.79-.329c.576.705-2.845 6.178-3.628 7.504-.783 1.327-2.886 1.244-2.886 1.244l-26.342.912-30.012 1.184s-5.854.392-7.256.226c-1.401-.167-9.07.995-14.923 1.823-5.853.83-7.544 2.571-7.544 2.571s-1.196 1.12.371-.125c1.567-1.244 7.338-1.201 8.039-1.16.7.041 1.072.58 1.072.58-.866.25-5.565 3.94-6.844 4.727-1.278.788-2.433 1.162-3.422 1.162-.989 0-.908-.684-.908-.684-1.072 1.553-1.401.88-1.938 2.29-.535 1.409.117 9.726.117 9.726l3.822.14s.438-13.01 13.3-13.01zm95.422 11.313c0 1.252.243 2.267.545 2.267.301 0 .543-1.015.543-2.267 0-1.253-.243-2.268-.543-2.268-.301 0-.545 1.015-.545 2.267z"/><path d="M41.435 14.793l21.423-.779 2.616-9.99H51.145s-9.563 6.717-10.085 7.698c-.523.98.375 3.07.375 3.07zM69.234 4.122l-1.392 9.61 20.758-.64.557-5.454-1.499-3.13-18.424-.386zm19.922.387l3.553 8.093s.174.36.976-.586c.801-.946 3.483-5.779 3.483-5.779s.383-.56 0-1.05c-.384-.491-1.637-.42-1.637-.42l-6.374-.258zM26.639 18.616s.68 1.77 2.755 1.705c2.074-.065 3.46-.228 3.46-.228s.356-1.704.493-1.925l-6.708.448z"/><path d="M33.773 37.79c-1.971-5.979-.978-17.116-.946-17.47-.01-.182-.092-2.49 2.166-4.923 2.281-2.455 15.666-12.17 15.8-12.267l.027-.019h.032l33.965.42c.43-.002 10.572-.06 12.313.33.55.122.936.38 1.144.765.347.638.08 1.386.07 1.418l-.184-.068c.002-.006.247-.698-.057-1.257-.182-.332-.523-.557-1.015-.666-1.72-.385-12.165-.325-12.27-.325l-33.935-.42c-.67.487-13.525 9.835-15.745 12.224-2.242 2.413-2.115 4.76-2.113 4.782v.015c-.01.113-1.045 11.392.935 17.398l-.186.062z"/><path d="M33.338 18.063l-18.411 1.34.014.196 18.411-1.34-.014-.196zm-.876.862h-4.5s-.097.768.946 1.07c0 0 3.348 0 3.554-.196.205-.196 0-.874 0-.874zm8.729-8.21l.452-.398h.601s.36.162.394 2.016c.036 1.856-.207 2.322-.723 2.413-.516.09-.724-4.032-.724-4.032z"/><path d="M37.864 13.387s.444 1.428 1.296 1.535c.852.108 2.626-.089 2.875-.213.248-.125.247-2.662.105-3.108-.141-.445-2.412-.105-2.412-.105l-.94.607-.213.91s-.692.071-.71.374z"/><path d="M38.732 12.945s.072.165.303 0c.231-.165.863-.613 3.191-.505l-.076-.727s-3.881-.477-3.418 1.232z"/><path d="M38.45 13.084s.089-2.445 2.112-2.659c2.023-.214 1.171-.107 1.171-.107s.301-.269.427 1.516c0 0-2.36 0-2.804.178-.444.178-.64.393-.62.84.017.445-.285.232-.285.232zm25.479 24.539c-.155-.569-.267-3.905-.34-6.112-.022-.63-.04-1.176-.054-1.517-.06-1.396.316-10.648.588-12.18.252-1.416 1.188-3.73 1.257-3.898l1.939-10.501.192.036-1.942 10.52-.005.01c-.01.024-.992 2.426-1.248 3.869-.248 1.4-.654 10.539-.585 12.137.015.34.033.887.054 1.519.07 2.063.185 5.519.334 6.066l-.19.052z"/><path d="M33.733 37.76s-1.81-13.917-14.672-13.917c-12.864 0-13.3 13.011-13.3 13.011l-3.822-.141c-.916-.066-.733.48-.733.646 0 .165-.248.456-.413.663C.628 38.23.3 37.774.01 39.35c-.288 1.575 5.03 1.7 5.03 1.7.123.248.66.331.66.331 2.309.373 2.926 0 2.926 0-3.174-4.518 1.649-16.21 11.172-14.8 12.158 1.8 11.196 14.379 11.196 14.379h53.815c-.282-.941-.338-2.246-.137-3.69h-3.353l-47.586.493.001-.002z"/><path d="M115.768 38.229c-.288-.29-.412-1.783-.412-1.783s-.329 1.244-.66 1.202c-.329-.041-.618-1.409-.686-2.031-.051-.46-.326-.534-.467-.542l-2.39.128S108.188 23.14 97.409 23.14c-15.504 0-16.09 14.13-16.09 14.13h3.353c.684-4.887 4.34-11.348 12.298-10.548 13.414 1.349 11.42 13.87 11.42 13.87s4.205-.373 5.977-.746c1.773-.373 1.69-1.326 1.401-1.616z"/><path d="M83.096 37.431l-.196-.014c.515-6.94 5.154-9.936 7.927-11.726a27.18 27.18 0 001.048-.698c1.936-1.39 1.956-5.418 1.968-7.825.002-.389.003-.724.012-1.015.062-2.08-1.665-3.171-1.682-3.181l-.026-.016-.012-.028-4.079-9.191.179-.08L92.3 12.82c.226.151 1.81 1.288 1.75 3.338-.01.29-.012.624-.014 1.011-.013 2.445-.032 6.536-2.05 7.985-.297.213-.649.44-1.057.703-2.74 1.771-7.329 4.734-7.836 11.575l.002-.002zM31.68 39.417c.021.434.423.868.917.868h50.297c.495 0 .896-.434.917-.868h-52.13zm29.254-19.676c.053.88-.53 1.602-1.298 1.65l-.927.056c-.77.046-1.433-.6-1.486-1.481-.053-.88.53-1.603 1.298-1.65l.927-.056c.769-.047 1.433.6 1.486 1.481z"/><path d="M63.174 19.668c.009.288-.203.528-.473.537l-6.843.213c-.27.01-.495-.218-.505-.505-.009-.288.203-.53.473-.537l6.843-.214c.27-.008.496.219.505.506zm26.614-1.108c.053.88-.529 1.603-1.298 1.65l-.927.056c-.769.047-1.433-.6-1.485-1.481-.053-.88.528-1.602 1.297-1.649l.928-.056c.768-.047 1.432.6 1.485 1.48z"/><path d="M92.029 18.489c.008.287-.203.527-.473.536l-6.843.214c-.27.008-.496-.219-.506-.506-.008-.288.203-.528.473-.537l6.843-.213c.27-.009.496.218.506.506zM29.68 37.964c0 5.544-4.468 10.037-9.979 10.037-5.511 0-9.98-4.493-9.98-10.037 0-5.543 4.469-10.035 9.98-10.035s9.98 4.493 9.98 10.035z"/><path d="M12.185 37.965c0 4.187 3.376 7.582 7.54 7.582s7.539-3.395 7.539-7.582c0-4.188-3.375-7.581-7.539-7.581s-7.54 3.395-7.54 7.58z"/><path d="M17.108 32.882l1.745 1.994s.301.479.713.479c.413 0 .714-.336.714-.336l1.825-2.137s.253-.303 0-.51c-.254-.208-1.145-.51-2.381-.51-1.236 0-3.06.334-2.617 1.02h.001zm0 10.165l1.745-1.994s.302-.479.713-.479c.412 0 .715.335.715.335l1.823 2.137s.254.303 0 .51c-.253.208-1.144.51-2.38.51-1.234 0-3.06-.335-2.616-1.02v.001zm7.733-7.617l-1.982 1.754s-.476.303-.476.718.333.718.333.718l2.126 1.834s.301.255.508 0c.206-.255.508-1.15.508-2.394 0-1.242-.334-3.077-1.016-2.63h-.001zm-10.109 0l1.983 1.754s.476.303.476.718-.334.718-.334.718l-2.125 1.834s-.301.255-.509 0c-.206-.255-.507-1.15-.507-2.394 0-1.242.333-3.077 1.016-2.63zm91.255 2.534c0 5.544-4.469 10.037-9.981 10.037s-9.98-4.493-9.98-10.037c0-5.543 4.469-10.035 9.98-10.035s9.981 4.493 9.981 10.035z"/><path d="M88.491 37.965c0 4.187 3.376 7.582 7.54 7.582s7.539-3.395 7.539-7.582c0-4.188-3.375-7.581-7.54-7.581-4.163 0-7.539 3.395-7.539 7.58z"/><path d="M93.414 32.882l1.744 1.994s.302.479.714.479.715-.336.715-.336l1.823-2.137s.254-.303 0-.51c-.254-.208-1.143-.51-2.38-.51-1.236 0-3.06.334-2.616 1.02zm0 10.165l1.745-1.994s.302-.479.713-.479.715.335.715.335l1.823 2.137s.255.303 0 .51c-.254.208-1.144.51-2.38.51-1.234 0-3.06-.335-2.615-1.02l-.001.001zm7.732-7.617l-1.982 1.754s-.477.303-.477.718.334.718.334.718l2.126 1.834s.301.255.507 0c.207-.255.509-1.15.509-2.394 0-1.242-.334-3.077-1.016-2.63h-.001zm-10.109 0l1.983 1.754s.477.303.477.718-.334.718-.334.718l-2.126 1.834s-.3.255-.508 0c-.206-.255-.507-1.15-.507-2.394 0-1.242.333-3.077 1.015-2.63z"/></g><defs><clipPath id="clip0_1646_6245"><path fill="#fff" d="M0 0h116v48H0z"/></clipPath></defs></svg>