<svg width="121" height="54" fill="none" xmlns="http://www.w3.org/2000/svg"><g clip-path="url(#clip0_1646_6068)" fill="#CED5E0"><path d="M52.978 19.021l-24.695-.045c3.433-3.873 10.928-12.354 14.5-16.598 1.253-.23 3.457-.566 14.291-.799l-4.097 17.443z"/><path d="M55.696 2.127c-10.046.229-12.289.551-13.37.744-3.412 4.046-10.18 11.715-13.636 15.617l23.152.042 3.854-16.402v-.001zm57.163 9.546h7.183c.529 0 .958.429.958.958v19.167c0 .53-.429.958-.958.958h-7.183a.958.958 0 01-.958-.958V12.631c0-.53.429-.958.958-.958z"/><path d="M113.164 11.863h6.574c.485 0 .877.393.877.878v3.216a.877.877 0 00-.877-.878h-6.574a.877.877 0 00-.877.878v-3.216c0-.484.393-.878.877-.878zm0 20.545h6.574a.877.877 0 00.877-.877v-3.216a.877.877 0 01-.877.877h-6.574a.877.877 0 01-.877-.878v3.217c0 .485.393.877.877.877zm-74.01 8.934c0 1.19.965 2.156 2.154 2.156H74.35a2.155 2.155 0 000-4.313H41.31a2.157 2.157 0 00-2.156 2.157z"/><path d="M109.982 40.944H1.147c-.685-.5-1.14-1.264-1.14-2.437 0-3.034-.16-6.389 1.117-6.548v-5.191c0-3.834 2.873-3.114 2.873-3.114s.16-1.118 2.075-2.875c3.671-.8 24.9-2.236 24.9-2.236S41.24 5.239 44.196 1.069C45.314-.69 105.597.253 105.597.253c1.824 4.187 7.742 19.248 7.742 19.248 1.19 7.103.757 13.575 1.117 13.575.798 0-.16 6.709-.16 6.709s-1.855.602-4.314 1.159z"/><path opacity=".7" d="M4.795 23.972l107.745-3.593-.478-2.157-80.45 1.198-25.14 1.917-1.677 2.635z"/><path d="M33.528 20.698h79.651v-.48H33.528v.48zm0 5.91H82.85v.479H33.527v-.48zm.384-1.439h49.896v.479H33.912v-.479z"/><path d="M60.584 38.391V2.528l-1.218.021c-10.845.19-13.322.458-14.791.695l-.489.079-.29.401c-2.59 3.577-8.26 10.9-10.578 13.883l-.053.068.382 10.345 4.492 10.326 22.544.044v.001zm-.479-35.374V37.91l-21.75-.041-4.35-9.997-.354-10.038C36 14.807 41.609 7.563 44.184 4.006l.174-.24.293-.048c1.454-.234 3.911-.501 14.724-.689l.731-.012zm.719 35.331h14.494l8.848-12.856.525-7.412-.012-.042a431.392 431.392 0 00-4.712-14.837l-.276-.814h-.86c-7.573.007-11.883.05-17.187.128l-.82.02v35.813zm14.242-.478H61.303V3.003l.352-.009c5.299-.077 9.607-.12 17.178-.128h.516l.166.489a429.988 429.988 0 014.694 14.779l-.511 7.194-8.631 12.54-.001.002z"/><path d="M59.387 3.747c-11.248.196-13.403.484-14.622.68-2.575 3.557-8.078 10.669-10.601 13.915l25.223.04V3.746zm21.605-.163c9 .001 20.317.018 23.561.044 1.601 3.875 4.421 11.182 5.777 14.715l-24.669.04a438.1 438.1 0 00-4.67-14.798v-.001zm-2.282 0a433.175 433.175 0 014.7 14.797H61.54V3.712c4.942-.072 9.311-.12 17.17-.128z"/><path d="M82.721 17.868a428.079 428.079 0 00-4.378-13.771c-7.135.008-11.337.05-16.29.12v13.651H82.72zm26.864-.037c-1.48-3.85-3.884-10.06-5.376-13.694a5612.29 5612.29 0 00-22.506-.041 438.765 438.765 0 014.34 13.771l23.542-.036zM58.874 4.268c-10.44.19-12.742.464-13.82.63-2.375 3.268-6.935 9.181-9.846 12.934l23.666.035v-13.6zM36.016 40.846c-.24-.018-.385-.037-.396-.058l-5.076-8.799a3.321 3.321 0 00-.346-.478c-.39-.293-.763-.6-1.113-.931-.673-.408-1.44-.667-2.133-.667H16.799c-1.323 0-2.93.929-3.592 2.075l-5.076 8.799c-2.138-.284-6.3 1.317-6.3 1.317l19.406 5.666 19.441-5.578c-.007-.032-4.654-1.314-4.66-1.347l-.002.001zm40.484-.01l.015-.001.05-.005.111-.015.034-.006c.031-.008.054-.014.059-.021l5.076-8.799c.66-1.146 2.269-2.075 3.591-2.075H95.59c1.322 0 2.93.93 3.591 2.075l5.076 8.799a.266.266 0 00.073.073c.033.026.077.054.129.083l8.8.917-22.746 6.23-23.145-7.667c.013-.035 9.118.448 9.132.412z"/><path d="M104.89 42.498l-4.729-10.509c-.566-1.146-2.095-2.075-3.417-2.075H86.591c-1.323 0-3.008.929-3.766 2.075l-5.815 8.799c-.25.378-40.962.378-41.149 0l-4.338-8.799c-.564-1.146-2.094-2.075-3.417-2.075H17.953c-1.323 0-3.009.929-3.766 2.075L8.37 40.788c-.25.378-6.411 1.317-6.411 1.317-1.021-.47-1.714-1.296-1.592-2.756.02-.225.037-.453.055-.68h6.032l5.365-8.118c1.346-2.035 4.026-3.512 6.375-3.512h10.153c2.349 0 4.781 1.477 5.785 3.512l4.001 8.117h36.958l5.366-8.117c1.346-2.035 4.026-3.512 6.374-3.512h10.154c2.348 0 4.781 1.477 5.785 3.512l4.001 8.117h8.186c-.226 1.1-.711 3.672-.711 3.672s-1.922.703-5.474 1.317c0 0-3.696-.78-3.883-1.158z"/><path d="M106.7 39.51l-4-8.117c-1.004-2.035-3.437-3.512-5.786-3.512H86.761c-2.349 0-5.03 1.477-6.375 3.512l-5.365 8.117H38.063l-4.001-8.117c-1.004-2.035-3.436-3.512-5.785-3.512H18.124c-2.35 0-5.03 1.477-6.375 3.512L6.383 39.51H.365c.002-.054-.002-.105.003-.161.02-.226.037-.453.055-.68h6.032l5.365-8.118c1.346-2.035 4.026-3.512 6.375-3.512h10.153c2.349 0 4.781 1.477 5.785 3.512l4.001 8.117h36.958l5.366-8.117c1.346-2.035 4.026-3.512 6.374-3.512h10.154c2.348 0 4.781 1.477 5.785 3.512l4.001 8.117h8.186c-.062.305-.123.587-.178.842h-8.08z"/><path d="M90.512 54c-6.171 0-11.174-5.005-11.174-11.18s5.003-11.181 11.174-11.181c6.17 0 11.174 5.006 11.174 11.18 0 6.176-5.003 11.182-11.174 11.182z"/><path d="M90.512 34.754c4.452 0 8.06 3.61 8.06 8.066a8.063 8.063 0 01-8.06 8.065 8.063 8.063 0 01-8.06-8.066 8.063 8.063 0 018.06-8.065zm-7.423 8.066c0 .347.033.686.079 1.02l2.52-.107 1.498-.993-1.494-.991-2.501-.106c-.06.384-.102.776-.102 1.176zm5.56 1.58a.99.99 0 00-.32.313l-.371.586.587-.374c.13-.083.23-.19.307-.31.026-.115.066-.225.118-.33-.103.05-.21.09-.322.115zm.33-3.2a1.566 1.566 0 01-.115-.321.99.99 0 00-.314-.32l-.585-.371.373.588c.083.13.191.23.31.307.115.028.225.067.33.118zm-.837 2.332c.08-.086.17-.16.267-.225a1.537 1.537 0 01-.336-.062 1.002 1.002 0 00-.433.11l-.615.322.695-.03c.155-.006.295-.049.422-.114zm-.496-1.403a1 1 0 00.422.111 1.49 1.49 0 01.344-.062 1.53 1.53 0 01-.26-.221.996.996 0 00-.43-.12l-.693-.03.617.323v-.001zm-.012-1.054l-.798-1.605-2.087-1.327a7.415 7.415 0 00-1.114 1.89l2.208 1.154 1.792-.111v-.001zm-.387-2.019l1.609.801.11-1.79-1.132-2.169a7.422 7.422 0 00-1.904 1.084l1.316 2.075h.001zm1.776-1.904l.101-1.626a7.429 7.429 0 00-1.002.266l.901 1.36zm-.012 11.186l-.978 1.475a7.43 7.43 0 001.088.299l-.11-1.774zm-.057-.916l-.111-1.794-1.604.8-1.38 2.174c.57.46 1.209.835 1.9 1.11l1.195-2.29zm-1.327-3.016l-1.788-.11-2.254 1.177c.267.695.632 1.34 1.083 1.916l2.159-1.373.8-1.61zm-2.703-.167l-1.713-.106c.065.364.156.718.272 1.062l1.44-.956zm.003-2.997l-1.397-.927a7.31 7.31 0 00-.295 1.032l1.692-.105zm.022-3.33l1.478.735-.733-1.474a7.391 7.391 0 00-.745.738zm4.477-2.433l.103 2.437.992 1.497.99-1.494.103-2.437a7.36 7.36 0 00-1.104-.09c-.377 0-.73.035-1.085.087h.001zm.52 9.372c-.065.094-.138.18-.222.259a.998.998 0 00-.12.431l-.029.693.322-.617a1 1 0 00.111-.422 1.555 1.555 0 01-.063-.344zm.073-4.55a1.014 1.014 0 00-.111-.433l-.321-.615.029.696a1 1 0 00.114.42c.086.081.16.17.226.267.008-.113.028-.226.062-.336v.001zm1.396 5.24a1.01 1.01 0 00-.114-.422c-.086-.08-.16-.17-.226-.266a1.538 1.538 0 01-.062.336c.005.145.04.294.111.433l.321.615-.029-.696h-.001zm.04-6.284l-.321.618a1 1 0 00-.111.422c.034.113.054.228.062.345.064-.095.137-.181.22-.26a.998.998 0 00.12-.432l.03-.693zm6.478 3.562c0-.397-.04-.785-.1-1.165l-2.49.106-1.498.993 1.494.991 2.515.107c.047-.338.08-.68.08-1.032zm-4.549.545a.999.999 0 00-.423-.111 1.481 1.481 0 01-.343.062c.095.064.18.138.26.221a.997.997 0 00.43.12l.693.03-.618-.323.001.001zm.006-1.227l.615-.32-.695.028a1 1 0 00-.421.115c-.08.086-.17.16-.267.225.114.009.226.029.336.063.146-.006.294-.04.433-.112v.001zm-.7 2.58a1.008 1.008 0 00-.31-.308 1.551 1.551 0 01-.328-.118c.049.103.088.21.114.322.077.123.18.236.313.32l.585.371-.373-.588zm-.309-3.624a.985.985 0 00.319-.313l.371-.586-.587.374c-.13.083-.23.191-.307.31a1.498 1.498 0 01-.118.33c.103-.05.21-.089.322-.115zm-.195-1.23l1.604-.8 1.315-2.071a7.402 7.402 0 00-1.9-1.09l-1.13 2.166.111 1.794zm1.217 1.221l1.788.112 2.203-1.15a7.406 7.406 0 00-1.11-1.892l-2.08 1.322-.8 1.61-.001-.002zm2.703.167l1.683.104a7.349 7.349 0 00-.29-1.027l-1.393.922v.001zm-.003 2.997l1.434.951c.115-.342.208-.694.273-1.057l-1.706.106h-.001zm-.914.057l-1.792.111.798 1.605 2.156 1.37a7.449 7.449 0 001.084-1.913l-2.246-1.173zm-1.406 2.129l-1.609-.801-.11 1.79 1.194 2.289a7.38 7.38 0 001.9-1.11l-1.375-2.168zm-1.776 1.904l-.11 1.77c.374-.07.736-.172 1.086-.297l-.976-1.473zm.012-11.186l.9-1.356a7.383 7.383 0 00-1-.27l.1 1.626zm3.323.032l-.73 1.47 1.472-.733a7.339 7.339 0 00-.742-.736v-.001zm.824 10.437l-1.563-.78.78 1.569c.28-.244.543-.507.784-.79h-.001zm-4.556 2.532l-.109-2.58-.992-1.497-.99 1.494-.11 2.583c.361.053.727.09 1.103.09.375 0 .74-.036 1.098-.09zm-5.974-1.746l.783-1.575-1.569.781c.242.285.505.548.786.794z"/><path d="M90.512 33.7c-5.504 0-10.013 4.246-10.443 9.643a10.666 10.666 0 01-.037-.843c0-5.791 4.692-10.486 10.48-10.486S100.99 36.708 100.99 42.5c0 .283-.014.565-.037.843-.429-5.397-4.938-9.644-10.442-9.644z"/><path d="M90.512 52.842c5.977 0 10.858-4.696 11.159-10.602.009.192.015.386.015.58 0 6.175-5.003 11.18-11.174 11.18-6.171 0-11.174-5.005-11.174-11.18 0-.194.005-.388.015-.58.3 5.906 5.182 10.602 11.159 10.602z"/><path d="M90.512 34.754c-4.371 0-7.921 3.484-8.049 7.826-.002-.08-.013-.158-.013-.239a8.063 8.063 0 018.06-8.066 8.063 8.063 0 018.061 8.066c0 .08-.01.16-.012.24-.128-4.343-3.678-7.827-8.05-7.827h.003zm0 16.156c-4.371 0-7.921-3.484-8.049-7.826-.002.08-.013.158-.013.24a8.063 8.063 0 008.06 8.065 8.062 8.062 0 008.061-8.066c0-.08-.01-.16-.012-.239-.128 4.342-3.678 7.826-8.05 7.826h.003zM21.615 54c-6.17 0-11.174-5.005-11.174-11.18s5.003-11.181 11.174-11.181c6.171 0 11.174 5.006 11.174 11.18 0 6.176-5.003 11.182-11.174 11.182z"/><path d="M21.615 34.754c4.452 0 8.06 3.61 8.06 8.066a8.063 8.063 0 01-8.06 8.065 8.063 8.063 0 01-8.06-8.066 8.063 8.063 0 018.06-8.065zm-7.422 8.066c0 .347.032.686.078 1.02l2.521-.107 1.497-.993-1.494-.991-2.5-.106a7.389 7.389 0 00-.102 1.176zm5.56 1.58a.984.984 0 00-.32.313l-.372.586.587-.374c.13-.083.231-.19.308-.31a1.55 1.55 0 01.117-.33c-.102.05-.21.09-.322.115h.001zm.329-3.2a1.566 1.566 0 01-.115-.321.986.986 0 00-.312-.32l-.586-.371.374.588c.083.13.19.23.31.307.114.028.224.067.328.118zm-.836 2.332c.08-.086.17-.16.266-.225a1.537 1.537 0 01-.336-.062 1.006 1.006 0 00-.433.11l-.614.322.695-.03c.154-.006.295-.049.422-.114zm-.496-1.403a1 1 0 00.421.111 1.48 1.48 0 01.344-.062 1.537 1.537 0 01-.26-.221.997.997 0 00-.431-.12l-.692-.03.617.323v-.001zm-.012-1.054l-.798-1.605-2.088-1.327a7.383 7.383 0 00-1.114 1.89l2.208 1.154 1.793-.111-.001-.001zm-.387-2.019l1.608.801.111-1.79-1.132-2.169a7.422 7.422 0 00-1.904 1.084l1.317 2.075zm1.776-1.904l.1-1.626a7.429 7.429 0 00-1.001.266l.9 1.36zm-.013 11.186l-.977 1.475c.351.125.713.227 1.087.299l-.11-1.774zm-.056-.916l-.112-1.794-1.604.8-1.38 2.174c.57.46 1.21.835 1.9 1.11l1.196-2.29zm-1.327-3.016l-1.789-.11-2.253 1.177a7.39 7.39 0 001.082 1.916l2.16-1.373.8-1.61zm-2.704-.167l-1.713-.106c.065.364.157.718.272 1.062l1.44-.956h.001zm.003-2.997l-1.397-.927c-.12.335-.223.677-.294 1.032l1.691-.105zm.022-3.33l1.479.735-.734-1.474a7.391 7.391 0 00-.745.738zm4.478-2.433l.102 2.437.993 1.497.99-1.494.103-2.437a7.36 7.36 0 00-1.105-.09c-.376 0-.73.035-1.084.087zm.519 9.372c-.064.094-.137.18-.221.259a1.016 1.016 0 00-.121.431l-.03.693.323-.617a1 1 0 00.11-.422 1.492 1.492 0 01-.061-.344zm.073-4.55a1.014 1.014 0 00-.11-.433l-.322-.615.03.696a1 1 0 00.114.42c.086.081.16.17.225.267a1.54 1.54 0 01.062-.336l.001.001zm1.396 5.24a1.01 1.01 0 00-.114-.422 1.54 1.54 0 01-.225-.266 1.538 1.538 0 01-.062.336 1 1 0 00.11.433l.322.615-.03-.696zm.041-6.284l-.322.618a1 1 0 00-.11.422c.034.113.054.228.061.345.064-.095.138-.181.221-.26a.998.998 0 00.12-.432l.03-.693zm6.478 3.562c0-.397-.04-.785-.1-1.165l-2.491.106-1.497.993 1.494.991 2.514.107c.047-.338.08-.68.08-1.032zm-4.55.545a.998.998 0 00-.421-.111 1.481 1.481 0 01-.344.062c.094.064.18.138.259.221a.997.997 0 00.43.12l.693.03-.618-.323.002.001zm.007-1.227l.614-.32-.695.028c-.154.007-.295.05-.422.115-.08.086-.17.16-.266.225.113.009.225.029.335.063a1.04 1.04 0 00.434-.112v.001zm-.7 2.58a1.016 1.016 0 00-.31-.308 1.532 1.532 0 01-.328-.118c.05.103.088.21.114.322a1 1 0 00.313.32l.586.371-.374-.588zm-.31-3.624a.995.995 0 00.32-.313l.37-.586-.587.374c-.13.083-.23.191-.307.31a1.552 1.552 0 01-.117.33c.102-.05.21-.089.322-.115zm-.195-1.23l1.604-.8 1.316-2.071a7.402 7.402 0 00-1.9-1.09l-1.13 2.166.11 1.794zm1.216 1.221l1.789.112 2.203-1.15a7.406 7.406 0 00-1.11-1.892l-2.08 1.322-.8 1.61-.002-.002zm2.704.167l1.682.104a7.335 7.335 0 00-.29-1.027l-1.392.922v.001zm-.004 2.997l1.434.951c.116-.342.208-.694.273-1.057l-1.707.106zm-.914.057l-1.793.111.798 1.605 2.156 1.37a7.449 7.449 0 001.085-1.913l-2.246-1.173zm-1.407 2.129l-1.608-.801-.111 1.79 1.195 2.289a7.378 7.378 0 001.9-1.11l-1.376-2.168zm-1.776 1.904L23 50.108c.373-.07.735-.172 1.087-.297l-.977-1.473zm.013-11.186l.899-1.356a7.379 7.379 0 00-1-.27l.1 1.626zm3.323.032l-.731 1.47 1.473-.733a7.444 7.444 0 00-.742-.736v-.001zm.823 10.437l-1.564-.78.78 1.569c.28-.244.543-.507.784-.79zm-4.555 2.532l-.11-2.58-.992-1.497-.99 1.494-.11 2.583c.362.053.728.09 1.103.09.376 0 .74-.036 1.099-.09zm-5.974-1.746l.782-1.575-1.568.781c.241.285.504.548.786.794z"/><path d="M21.615 33.7c-5.504 0-10.012 4.246-10.442 9.643a10.666 10.666 0 01-.037-.843c0-5.791 4.691-10.486 10.48-10.486 5.788 0 10.479 4.694 10.479 10.486 0 .283-.015.565-.037.843-.429-5.397-4.939-9.644-10.443-9.644z"/><path d="M21.615 52.842c5.977 0 10.858-4.696 11.158-10.602.01.192.015.386.015.58 0 6.175-5.003 11.18-11.174 11.18-6.171 0-11.174-5.005-11.174-11.18 0-.194.006-.388.015-.58.301 5.906 5.182 10.602 11.16 10.602z"/><path d="M21.615 34.754c-4.37 0-7.92 3.484-8.049 7.826-.002-.08-.011-.158-.011-.239a8.063 8.063 0 018.06-8.066c4.452 0 8.06 3.611 8.06 8.066 0 .08-.009.16-.01.24-.129-4.343-3.678-7.827-8.05-7.827zm0 16.156c-4.37 0-7.92-3.484-8.049-7.826-.002.08-.011.158-.011.24a8.063 8.063 0 008.06 8.065c4.452 0 8.06-3.61 8.06-8.066 0-.08-.009-.16-.01-.239-.129 4.342-3.678 7.826-8.05 7.826zm12.71-9.288c0 .485.393.878.878.878h41.502a.879.879 0 000-1.757H35.204a.879.879 0 00-.878.879h-.001z"/><path d="M34.35 41.422c.09-.39.438-.68.853-.68h41.503c.416 0 .762.29.853.68H34.35zm43.074.698a.87.87 0 01-.72.38H35.203a.874.874 0 01-.72-.38h42.94zm.066-21.089a.322.322 0 01.32-.304h5.223c.173 0 .313.137.321.308h.003v1.268a.324.324 0 01-.324.323H77.81a.324.324 0 01-.324-.323v-1.272h.004zm5.543-.175H77.81a.194.194 0 00-.194.194v.653c0 .107.087.194.194.194h5.224a.194.194 0 00.194-.194v-.653a.194.194 0 00-.194-.194zm-5.224 1.641h5.224a.194.194 0 00.194-.194v-.347a.316.316 0 01-.194.071H77.81a.317.317 0 01-.194-.071v.347c0 .107.087.194.194.194zM53.56 21.031a.322.322 0 01.32-.304h5.224c.173 0 .312.137.32.308h.004v1.268a.324.324 0 01-.324.323H53.88a.324.324 0 01-.325-.323v-1.272h.005zm5.544-.175H53.88a.194.194 0 00-.194.194v.653c0 .107.087.194.194.194h5.224a.194.194 0 00.194-.194v-.653a.194.194 0 00-.194-.194zm-5.224 1.641h5.224a.194.194 0 00.194-.194v-.347a.317.317 0 01-.194.071H53.88a.316.316 0 01-.194-.071v.347c0 .107.087.194.194.194z"/><path opacity=".7" d="M9.424 32.756H1.603c-1.597 0-.949 3.526-.949 3.526l7.173-.172 1.597-3.354z"/><path d="M110.424 37.59v-4.395h4.186c.293.519.135 2.685-.045 4.394h-4.141z"/><path d="M110.424 34.236v-2.318h4.186c.178.317.188 1.25.129 2.318h-4.315zM6.871 23.693v-.36c0-.529.43-.958.958-.958h3.512c.529 0 .958.43.958.958v.36H6.87zm26.469-5.89c.171 2.497 2.038 1.855 2.936 1.816.898-.037 1.146-.852 1.037-1.918-.153-1.503-.71-1.978-1.606-1.94-.898.039-2.515-.097-2.368 2.043z"/><path d="M37.126 16.859c-.184.468-.572.79-1.067.812-.56.024-3.033.591-2.138-1.306.436-.516 1.242-.443 1.76-.465.582-.026 1.142.371 1.445.959z"/><path opacity=".7" d="M24.374 24.033L2.401 24.7l-.433 3.23 22.406-3.896z"/></g><defs><clipPath id="clip0_1646_6068"><path fill="#fff" transform="matrix(-1 0 0 1 121 0)" d="M0 0h121v54H0z"/></clipPath></defs></svg>