<svg width="122" height="29" viewBox="0 0 122 29" fill="none" xmlns="http://www.w3.org/2000/svg">
<g clip-path="url(#clip0_1651_13552)">
<path d="M11.6767 28.6876C11.4365 28.6677 11.2752 28.6079 11.193 28.5082C11.1173 28.4053 10.9297 27.9634 10.9297 27.7409C10.9297 27.7409 9.94238 20.1006 9.94238 19.0575C9.94238 18.516 10.9297 18.0908 10.9297 18.0908L17.8407 18.1074H19.4862C19.4862 18.1074 19.9799 18.7718 17.1825 18.7718C16.7185 18.7884 15.1323 18.7984 14.5893 18.7917L12.8845 18.7751V22.4425H17.041C17.8769 22.4425 18.4693 23.449 17.041 23.449C16.3104 23.449 12.8845 23.5354 12.8845 23.5354C12.8845 23.5354 13.0886 27.2227 13.2334 27.7376C13.388 27.8671 16.2249 27.5881 16.2249 27.5881C16.9127 27.5881 18.647 27.1728 19.2526 26.9735C19.8581 26.7742 20.6348 26.5749 21.2996 26.4088C21.2996 26.4154 21.3061 26.442 21.3226 26.4952C21.3391 26.5417 21.3555 26.6048 21.3753 26.6878C21.395 26.7709 21.4147 26.8672 21.4279 26.9735C21.4477 27.0765 21.4575 27.1795 21.4575 27.2825C21.4575 27.525 21.395 27.7077 21.2732 27.8339C21.1515 27.9568 20.954 28.0498 20.6809 28.1063C20.411 28.1594 17.5018 28.7441 17.5018 28.7441C17.1529 28.7374 13.3354 28.7541 13.0293 28.7441C12.7266 28.7374 12.4567 28.7275 12.2165 28.7142C11.9795 28.7042 11.7985 28.6943 11.6701 28.6843L11.6767 28.6876Z" fill="black"/>
<path d="M65.0664 23.2598H70.332V24.2563H65.0664V23.2598Z" fill="black"/>
<path d="M37.0927 19.6025C37.0927 19.6025 35.5789 18.5428 34.46 18.4398C32.0016 18.2106 29.948 19.9712 29.5235 22.4261C30.0171 28.4055 33.9663 28.0733 33.9663 28.0733C33.9663 28.0733 35.9409 28.0733 37.5864 26.2463C38.2446 26.0802 38.7382 25.9141 39.8901 26.5784C38.5737 28.7377 35.7763 29.236 32.6499 28.9038C29.9809 28.6214 28.0063 26.9239 27.5489 24.2531C27.0289 21.2203 28.2071 17.6094 35.2827 17.6094C35.2827 17.6094 36.7636 17.7755 37.7509 18.4398C38.159 18.7122 38.5737 19.6025 38.5737 19.6025H37.0927Z" fill="black"/>
<path fill-rule="evenodd" clip-rule="evenodd" d="M41.8643 25.7513L41.2061 28.741L42.8515 28.9071L44.0034 25.5852L48.4462 25.4191L49.5981 28.9071H51.9017L50.5854 25.0869C50.5854 25.0869 53.5472 25.4191 53.0536 24.4226H50.5854C48.6108 19.6058 46.3071 17.7788 45.3198 17.7788C44.5299 17.7788 44.112 18.2206 44.0034 18.4432L42.1934 25.253H41.2061L41.3706 25.7513H41.8643ZM45.6489 20.2702L44.3325 24.7548H48.1171L45.6489 20.2702Z" fill="black"/>
<path fill-rule="evenodd" clip-rule="evenodd" d="M54.6996 19.4397C54.3705 19.1076 53.8769 19.1076 53.7123 19.1076C53.4194 19.1076 54.5351 18.111 55.0287 17.7788H61.117C61.9398 17.7788 64.408 19.4397 64.408 19.7719C64.408 20.9346 65.3953 22.0972 59.307 24.0904C59.307 24.0904 62.1043 25.5852 66.7117 28.9071H64.0789C64.0789 28.9071 57.9906 24.5887 57.0033 24.5887C56.6742 24.5887 57.8261 28.9071 57.8261 28.9071H55.8515C55.4664 28.4653 54.6996 27.2129 54.6996 25.7513V19.4397ZM62.1043 20.6024C61.7094 21.6654 58.2111 22.9277 56.6742 23.426C56.5656 21.9876 56.4109 19.0079 56.6742 18.6093C56.9375 18.2107 58.6488 18.2206 59.4715 18.2771C60.5148 18.6093 62.4992 19.5394 62.1043 20.6024Z" fill="black"/>
<path d="M20.9668 22.9277H24.916V23.9243H20.9668V22.9277Z" fill="black"/>
<path d="M81.3564 19.6059C81.3564 19.6059 79.8426 18.5462 78.7236 18.4433C76.2653 18.2141 74.2117 19.9746 73.7872 22.4295C74.2808 28.4089 78.23 28.0767 78.23 28.0767C78.23 28.0767 80.2046 28.0767 81.8501 26.2497C82.5083 26.0836 83.0019 25.9175 84.1537 26.5819C82.8374 28.7411 80.04 29.2394 76.9136 28.9072C74.2446 28.6248 72.27 26.9273 71.8126 24.2565C71.2926 21.2237 72.4708 17.6128 79.5464 17.6128C79.5464 17.6128 81.0273 17.7789 82.0146 18.4433C82.4227 18.7157 82.8374 19.6059 82.8374 19.6059H81.3564Z" fill="black"/>
<path d="M88.2676 28.4085C87.6094 28.4085 86.5628 28.4517 86.293 28.4085V17.7785H88.5967L93.6977 24.7544L92.8749 17.4463H95.6723L96.1659 28.7407H93.8622C93.8622 28.7407 88.7612 21.1004 88.5967 21.1004C88.4321 25.0866 88.2676 28.2424 88.2676 28.4085Z" fill="black"/>
<path d="M108.342 5.4876C102.583 5.81979 100.115 8.80948 99.7859 10.4704L114.595 7.81291C112.95 10.4704 88.2115 12.9054 82.3437 12.6296C64.1775 12.8954 38.024 12.52 26.7261 12.1314C23.106 11.6331 14.1216 12.0317 13.7267 12.2975C13.2331 12.6296 8.95477 14.6228 5.49924 14.955C4.18285 14.955 2.37281 16.782 2.20826 18.7751C-0.592366 18.7751 0.0691218 23.7579 0.0658308 25.7511C1.05313 19.7717 3.35681 19.1073 3.85046 19.1073C6.74652 19.1073 8.56973 17.3899 9.44513 16.6159C7.96419 15.9515 7.96419 16.0811 7.96419 15.7854C7.96419 15.4898 12.0779 14.955 14.2171 14.6228C47.6205 14.1245 77.4039 14.955 81.8467 14.1245C86.4541 14.1245 94.0234 13.4601 94.0234 13.4601C97.6435 14.6228 99.4535 16.2837 101.264 17.9446C98.3017 16.782 96.9853 16.2837 93.6943 14.955C94.8461 18.2768 98.2457 19.3299 99.7826 19.4395C102.251 19.6056 105.377 21.4326 105.377 21.4326C105.762 20.2666 103.074 16.4498 101.099 14.1245C113.276 17.1142 120.187 7.92254 121.997 3.82666C121.668 4.21532 120.615 5.08897 119.035 5.4876C117.06 5.98588 113.769 5.65369 108.339 5.4876H108.342Z" fill="#9BCB30"/>
<path d="M79.7104 12.1313L95.178 11.3009L86.2924 5.48757C85.7987 5.15538 85.7987 3.99273 86.786 2.33179C86.8716 2.18895 81.0268 2.33179 81.0268 2.33179C51.2434 -2.81712 39.5604 2.16569 39.5604 2.16569C39.5604 2.16569 40.2186 3.25195 39.725 3.49444C34.624 5.98585 27.3838 11.467 27.3838 11.467H30.0166C30.0166 11.467 39.2313 3.16226 52.0662 2.83007C52.3953 2.99616 50.9143 11.9652 50.9143 11.9652H53.218L55.6862 2.66397C55.6862 2.66397 79.2168 2.33179 81.8495 6.31804C82.0141 10.3043 79.7104 12.1313 79.7104 12.1313Z" fill="#9BCB30"/>
<path d="M33.6367 5.15571C33.6367 5.15571 35.4468 3.32867 39.5605 2.16602L39.725 2.4982C38.1322 3.30542 33.6367 5.15571 33.6367 5.15571Z" fill="black"/>
</g>
<defs>
<clipPath id="clip0_1651_13552">
<rect width="122" height="29" fill="white"/>
</clipPath>
</defs>
</svg>
