<svg width="208" height="49" viewBox="0 0 208 49" fill="none" xmlns="http://www.w3.org/2000/svg">
<g clip-path="url(#clip0_1639_3397)">
<path d="M19.9071 48.4723C19.4975 48.4386 19.2226 48.3376 19.0823 48.1692C18.9533 47.9952 18.6335 47.2487 18.6335 46.8727C18.6335 46.8727 16.9502 33.9631 16.9502 32.2007C16.9502 31.2858 18.6335 30.5674 18.6335 30.5674L30.4162 30.5954H33.2217C33.2217 30.5954 34.0633 31.718 29.2941 31.718C28.5029 31.7461 25.7985 31.7629 24.8727 31.7517L21.9663 31.7236V37.9202H29.0528C30.478 37.9202 31.4879 39.6209 29.0528 39.6209C27.8072 39.6209 21.9663 39.7668 21.9663 39.7668C21.9663 39.7668 22.3142 45.997 22.561 46.867C22.8248 47.0859 27.6613 46.6145 27.6613 46.6145C28.834 46.6145 31.7909 45.9129 32.8233 45.5761C33.8557 45.2393 35.1799 44.9025 36.3133 44.6219C36.3133 44.6331 36.3245 44.678 36.3525 44.7678C36.3806 44.8464 36.4086 44.9531 36.4423 45.0934C36.476 45.2337 36.5096 45.3965 36.5321 45.5761C36.5657 45.7501 36.5826 45.9241 36.5826 46.0981C36.5826 46.5078 36.476 46.8165 36.2684 47.0298C36.0608 47.2375 35.7241 47.3946 35.2584 47.4901C34.7983 47.5799 29.8383 48.5677 29.8383 48.5677C29.2436 48.5565 22.735 48.5846 22.2132 48.5677C21.697 48.5565 21.2369 48.5397 20.8273 48.5172C20.4233 48.5004 20.1147 48.4835 19.8959 48.4667L19.9071 48.4723Z" fill="white"/>
<path d="M110.933 39.3008H119.91V40.9846H110.933V39.3008Z" fill="white"/>
<path d="M63.2399 33.1216C63.2399 33.1216 60.6589 31.3311 58.7512 31.1571C54.5599 30.7698 51.0587 33.7446 50.3349 37.8925C51.1766 47.9956 57.9096 47.4343 57.9096 47.4343C57.9096 47.4343 61.2761 47.4343 64.0815 44.3473C65.2037 44.0666 66.0453 43.786 68.0091 44.9085C65.7648 48.5569 60.9956 49.3988 55.6652 48.8375C51.1148 48.3604 47.7483 45.4923 46.9684 40.9796C46.0819 35.8551 48.0906 29.7539 60.1539 29.7539C60.1539 29.7539 62.6788 30.0345 64.3621 31.1571C65.0578 31.6174 65.7648 33.1216 65.7648 33.1216H63.2399Z" fill="white"/>
<path fill-rule="evenodd" clip-rule="evenodd" d="M71.3761 43.5108L70.2539 48.5624L73.0593 48.843L75.0231 43.2302L82.5978 42.9495L84.5616 48.843H88.4892L86.2448 42.3883C86.2448 42.3883 91.2946 42.9495 90.453 41.2657H86.2448C82.8783 33.1271 78.9507 30.04 77.2675 30.04C75.9209 30.04 75.2083 30.7865 75.0231 31.1626L71.9372 42.6689H70.2539L70.5344 43.5108H71.3761ZM77.8286 34.2497L75.5842 41.827H82.0367L77.8286 34.2497Z" fill="white"/>
<path fill-rule="evenodd" clip-rule="evenodd" d="M93.2577 32.8465C92.6966 32.2852 91.855 32.2852 91.5745 32.2852C91.0751 32.2852 92.9772 30.6013 93.8188 30.04H104.199C105.602 30.04 109.81 32.8465 109.81 33.4077C109.81 35.3722 111.493 37.3367 101.113 40.7044C101.113 40.7044 105.882 43.2302 113.737 48.843H109.249C109.249 48.843 98.8686 41.5463 97.1853 41.5463C96.6242 41.5463 98.588 48.843 98.588 48.843H95.2215C94.5651 48.0965 93.2577 45.9805 93.2577 43.5108V32.8465ZM105.882 34.8109C105.209 36.607 99.2445 38.7399 96.6242 39.5818C96.4391 37.1515 96.1754 32.1168 96.6242 31.4432C97.0731 30.7697 99.9908 30.7865 101.393 30.882C103.172 31.4432 106.555 33.0148 105.882 34.8109Z" fill="white"/>
<path d="M35.7471 38.7402H42.4801V40.4241H35.7471V38.7402Z" fill="white"/>
<path d="M138.706 33.1265C138.706 33.1265 136.125 31.336 134.217 31.162C130.026 30.7747 126.525 33.7495 125.801 37.8974C126.642 48.0005 133.375 47.4392 133.375 47.4392C133.375 47.4392 136.742 47.4392 139.547 44.3521C140.67 44.0715 141.511 43.7909 143.475 44.9134C141.231 48.5618 136.461 49.4037 131.131 48.8424C126.581 48.3653 123.214 45.4972 122.434 40.9844C121.548 35.8599 123.556 29.7588 135.62 29.7588C135.62 29.7588 138.145 30.0394 139.828 31.162C140.524 31.6222 141.231 33.1265 141.231 33.1265H138.706Z" fill="white"/>
<path d="M150.489 48.0009C149.366 48.0009 147.582 48.0738 147.122 48.0009V30.0398H151.05L159.746 41.8267L158.344 29.4785H163.113L163.955 48.5621H160.027C160.027 48.5621 151.33 35.6526 151.05 35.6526C150.769 42.388 150.489 47.7202 150.489 48.0009Z" fill="white"/>
<path d="M184.715 9.27223C174.896 9.83352 170.688 14.8851 170.127 17.6915L195.376 13.2012C192.57 17.6915 150.393 21.8057 140.389 21.3398C109.417 21.7888 64.8278 21.1546 45.5658 20.4979C39.3938 19.656 24.0762 20.3295 23.4029 20.7785C22.5613 21.3398 15.2672 24.7075 9.37576 25.2688C7.13141 25.2688 4.04544 28.3559 3.7649 31.7236C-1.00993 31.7236 0.117847 40.1428 0.112236 43.5105C1.79549 33.4074 5.72309 32.2848 6.56472 32.2848C11.5023 32.2848 14.6107 29.383 16.1032 28.0752C13.5783 26.9526 13.5783 27.1715 13.5783 26.672C13.5783 26.1725 20.5919 25.2688 24.2389 24.7075C81.1891 23.8656 131.967 25.2688 139.542 23.8656C147.397 23.8656 160.302 22.743 160.302 22.743C166.474 24.7075 169.56 27.5139 172.646 30.3203C167.596 28.3559 165.352 27.5139 159.741 25.2688C161.705 30.8816 167.501 32.6609 170.121 32.8461C174.329 33.1268 179.66 36.2138 179.66 36.2138C180.316 34.2437 175.732 27.7946 172.365 23.8656C193.126 28.9171 204.908 13.3864 207.994 6.46582C207.433 7.12252 205.638 8.5987 202.945 9.27223C199.578 10.1142 193.967 9.55288 184.709 9.27223H184.715Z" fill="#9BCB30"/>
<path d="M135.9 20.4976L162.271 19.0944L147.122 9.27195C146.28 8.71067 146.28 6.74618 147.963 3.93976C148.109 3.69841 138.144 3.93976 138.144 3.93976C87.3662 -4.76012 67.4477 3.65912 67.4477 3.65912C67.4477 3.65912 68.5698 5.49452 67.7282 5.90425C59.0314 10.1139 46.6875 19.375 46.6875 19.375H51.1762C51.1762 19.375 66.8866 5.34297 88.7689 4.78169C89.33 5.06233 86.8051 20.217 86.8051 20.217H90.7327L94.9409 4.50105C94.9409 4.50105 135.058 3.93976 139.547 10.6752C139.828 17.4106 135.9 20.4976 135.9 20.4976Z" fill="#9BCB30"/>
<path d="M57.3486 8.71073C57.3486 8.71073 60.4346 5.62367 67.4482 3.65918L67.7287 4.22046C65.0131 5.58438 57.3486 8.71073 57.3486 8.71073Z" fill="black"/>
</g>
<defs>
<clipPath id="clip0_1639_3397">
<rect width="208" height="49" fill="white"/>
</clipPath>
</defs>
</svg>
