<svg width="20" height="20" viewBox="0 0 20 20" fill="none" xmlns="http://www.w3.org/2000/svg">
<g id="Linear / Time / Calendar">
<path id="Vector" d="M1.66699 10.0002C1.66699 6.85747 1.66699 5.28612 2.6433 4.30981C3.61961 3.3335 5.19096 3.3335 8.33366 3.3335H11.667C14.8097 3.3335 16.381 3.3335 17.3573 4.30981C18.3337 5.28612 18.3337 6.85747 18.3337 10.0002V11.6668C18.3337 14.8095 18.3337 16.3809 17.3573 17.3572C16.381 18.3335 14.8097 18.3335 11.667 18.3335H8.33366C5.19096 18.3335 3.61961 18.3335 2.6433 17.3572C1.66699 16.3809 1.66699 14.8095 1.66699 11.6668V10.0002Z" stroke="white" stroke-width="1.5"/>
<path id="Vector_2" d="M5.83301 3.3335V2.0835" stroke="white" stroke-width="1.5" stroke-linecap="round"/>
<path id="Vector_3" d="M14.167 3.3335V2.0835" stroke="white" stroke-width="1.5" stroke-linecap="round"/>
<path id="Vector_4" d="M2.08301 7.5H17.9163" stroke="white" stroke-width="1.5" stroke-linecap="round"/>
<g id="Vector_5">
<path d="M14.9997 14.1667C14.9997 14.6269 14.6266 15 14.1663 15C13.7061 15 13.333 14.6269 13.333 14.1667C13.333 13.7064 13.7061 13.3333 14.1663 13.3333C14.6266 13.3333 14.9997 13.7064 14.9997 14.1667Z" fill="white"/>
<path d="M14.9997 10.8333C14.9997 11.2936 14.6266 11.6667 14.1663 11.6667C13.7061 11.6667 13.333 11.2936 13.333 10.8333C13.333 10.3731 13.7061 10 14.1663 10C14.6266 10 14.9997 10.3731 14.9997 10.8333Z" fill="white"/>
</g>
<g id="Vector_6">
<path d="M10.8337 14.1667C10.8337 14.6269 10.4606 15 10.0003 15C9.54009 15 9.16699 14.6269 9.16699 14.1667C9.16699 13.7064 9.54009 13.3333 10.0003 13.3333C10.4606 13.3333 10.8337 13.7064 10.8337 14.1667Z" fill="white"/>
<path d="M10.8337 10.8333C10.8337 11.2936 10.4606 11.6667 10.0003 11.6667C9.54009 11.6667 9.16699 11.2936 9.16699 10.8333C9.16699 10.3731 9.54009 10 10.0003 10C10.4606 10 10.8337 10.3731 10.8337 10.8333Z" fill="white"/>
</g>
<g id="Vector_7">
<path d="M6.66667 14.1667C6.66667 14.6269 6.29357 15 5.83333 15C5.3731 15 5 14.6269 5 14.1667C5 13.7064 5.3731 13.3333 5.83333 13.3333C6.29357 13.3333 6.66667 13.7064 6.66667 14.1667Z" fill="white"/>
<path d="M6.66667 10.8333C6.66667 11.2936 6.29357 11.6667 5.83333 11.6667C5.3731 11.6667 5 11.2936 5 10.8333C5 10.3731 5.3731 10 5.83333 10C6.29357 10 6.66667 10.3731 6.66667 10.8333Z" fill="white"/>
</g>
</g>
</svg>
