<svg width="16" height="16" viewBox="0 0 16 16" fill="none" xmlns="http://www.w3.org/2000/svg">
<g id="Linear / Like / Heart ">
<path id="Vector" d="M5.97416 12.6068L6.43848 12.0178L5.97416 12.6068ZM7.99967 3.6666L7.45931 4.1867C7.60069 4.3336 7.79579 4.4166 7.99967 4.4166C8.20356 4.4166 8.39865 4.3336 8.54004 4.1867L7.99967 3.6666ZM10.0252 12.6068L10.4895 13.1958L10.0252 12.6068ZM6.43848 12.0178C5.4132 11.2095 4.33603 10.452 3.47879 9.48669C2.64727 8.55037 2.08301 7.47782 2.08301 6.09091H0.583008C0.583008 7.94595 1.35855 9.35818 2.35722 10.4827C3.33018 11.5783 4.57358 12.4577 5.50985 13.1958L6.43848 12.0178ZM2.08301 6.09091C2.08301 4.75053 2.84003 3.63946 3.85318 3.17635C4.81905 2.73484 6.15131 2.82774 7.45931 4.1867L8.54004 3.1465C6.84815 1.38868 4.84707 1.07275 3.22958 1.81211C1.65937 2.52986 0.583008 4.18933 0.583008 6.09091H2.08301ZM5.50985 13.1958C5.84904 13.4631 6.22907 13.7613 6.61809 13.9886C7.00687 14.2158 7.47594 14.4162 7.99967 14.4162V12.9162C7.85674 12.9162 7.65915 12.8597 7.37488 12.6935C7.09085 12.5276 6.79146 12.296 6.43848 12.0178L5.50985 13.1958ZM10.4895 13.1958C11.4258 12.4577 12.6692 11.5783 13.6421 10.4827C14.6408 9.35818 15.4163 7.94595 15.4163 6.09091H13.9163C13.9163 7.47782 13.3521 8.55037 12.5206 9.48669C11.6633 10.452 10.5861 11.2095 9.56087 12.0178L10.4895 13.1958ZM15.4163 6.09091C15.4163 4.18933 14.34 2.52986 12.7698 1.81211C11.1523 1.07275 9.1512 1.38868 7.45931 3.1465L8.54004 4.1867C9.84804 2.82774 11.1803 2.73484 12.1462 3.17635C13.1593 3.63946 13.9163 4.75053 13.9163 6.09091H15.4163ZM9.56087 12.0178C9.20788 12.296 8.9085 12.5276 8.62447 12.6935C8.3402 12.8597 8.14261 12.9162 7.99967 12.9162V14.4162C8.52341 14.4162 8.99248 14.2158 9.38126 13.9886C9.77027 13.7613 10.1503 13.4631 10.4895 13.1958L9.56087 12.0178Z" fill="white"/>
</g>
</svg>
