<svg width="21" height="21" viewBox="0 0 21 21" fill="none" xmlns="http://www.w3.org/2000/svg">
<g clip-path="url(#clip0_1896_6444)">
<path d="M10.4995 1.89247C13.3037 1.89247 13.6347 1.90235 14.7415 1.95424C15.7644 2.00118 16.3202 2.17165 16.6908 2.31494C17.18 2.50518 17.5308 2.73247 17.899 3.10059C18.2671 3.46871 18.4944 3.81706 18.6846 4.30871C18.8279 4.67929 18.9984 5.23518 19.0453 6.258C19.0947 7.36482 19.1071 7.69835 19.1071 10.5C19.1071 13.3016 19.0972 13.6352 19.0453 14.742C18.9984 15.7648 18.8279 16.3207 18.6846 16.6913C18.4944 17.1805 18.2671 17.5313 17.899 17.8994C17.5308 18.2675 17.1825 18.4948 16.6908 18.6851C16.3202 18.8284 15.7644 18.9988 14.7415 19.0458C13.6347 19.0952 13.3037 19.1075 10.4995 19.1075C7.69542 19.1075 7.36437 19.0976 6.25754 19.0458C5.23472 18.9988 4.67884 18.8284 4.30825 18.6851C3.81907 18.4948 3.46825 18.2675 3.10013 17.8994C2.73201 17.5313 2.50472 17.1829 2.31448 16.6913C2.17119 16.3207 2.00072 15.7648 1.95378 14.742C1.90436 13.6352 1.89201 13.3016 1.89201 10.5C1.89201 7.69835 1.90189 7.36482 1.95378 6.258C2.00072 5.23518 2.17119 4.67929 2.31448 4.30871C2.50472 3.81953 2.73201 3.46871 3.10013 3.10059C3.46825 2.73247 3.8166 2.50518 4.30825 2.31494C4.67884 2.17165 5.23472 2.00118 6.25754 1.95424C7.36437 1.90482 7.69789 1.89247 10.4995 1.89247ZM10.4995 0C7.64848 0 7.29025 0.0123529 6.17107 0.0642353C5.05436 0.116118 4.29095 0.291529 3.62142 0.553412C2.93213 0.822706 2.3466 1.18094 1.76107 1.764C1.17801 2.34706 0.817306 2.93259 0.550482 3.62435C0.29107 4.29141 0.113188 5.05482 0.0613056 6.174C0.00942325 7.29318 -0.00292969 7.65141 -0.00292969 10.5025C-0.00292969 13.3535 0.00942325 13.7118 0.0613056 14.8309C0.113188 15.9476 0.2886 16.7111 0.550482 17.3806C0.819776 18.0699 1.17801 18.6554 1.76107 19.2409C2.34413 19.824 2.92966 20.1847 3.62142 20.4515C4.28848 20.7109 5.05189 20.8888 6.17107 20.9407C7.29025 20.9926 7.64848 21.0049 10.4995 21.0049C13.3506 21.0049 13.7088 20.9926 14.828 20.9407C15.9447 20.8888 16.7081 20.7134 17.3777 20.4515C18.067 20.1822 18.6525 19.824 19.238 19.2409C19.8211 18.6579 20.1818 18.0724 20.4486 17.3806C20.708 16.7135 20.8859 15.9501 20.9378 14.8309C20.9897 13.7118 21.002 13.3535 21.002 10.5025C21.002 7.65141 20.9897 7.29318 20.9378 6.174C20.8859 5.05729 20.7105 4.29388 20.4486 3.62435C20.1793 2.93506 19.8211 2.34953 19.238 1.764C18.655 1.18094 18.0694 0.820235 17.3777 0.553412C16.7106 0.294 15.9472 0.116118 14.828 0.0642353C13.7088 0.0123529 13.3506 0 10.4995 0Z" fill="white"/>
<path d="M10.5002 5.10918C7.52314 5.10918 5.10938 7.52294 5.10938 10.5C5.10938 13.4771 7.52314 15.8908 10.5002 15.8908C13.4773 15.8908 15.891 13.4771 15.891 10.5C15.891 7.52294 13.4773 5.10918 10.5002 5.10918ZM10.5002 14.0008C8.5682 14.0008 6.99937 12.4345 6.99937 10.5C6.99937 8.56553 8.56573 6.99918 10.5002 6.99918C12.4347 6.99918 14.001 8.56553 14.001 10.5C14.001 12.4345 12.4347 14.0008 10.5002 14.0008Z" fill="white"/>
<path d="M16.1057 6.15423C16.8016 6.15423 17.3657 5.59011 17.3657 4.89423C17.3657 4.19835 16.8016 3.63423 16.1057 3.63423C15.4098 3.63423 14.8457 4.19835 14.8457 4.89423C14.8457 5.59011 15.4098 6.15423 16.1057 6.15423Z" fill="white"/>
</g>
<defs>
<clipPath id="clip0_1896_6444">
<rect width="21" height="21" fill="white"/>
</clipPath>
</defs>
</svg>
