<svg width="22" height="22" viewBox="0 0 22 22" fill="none" xmlns="http://www.w3.org/2000/svg">
<g id="Isolation_Mode" clip-path="url(#clip0_1682_10036)">
<path id="Vector" d="M12.1492 9.29029C12.4545 8.94559 12.7047 8.59814 13.0182 8.30308C13.9807 7.39308 15.1192 6.93532 16.4502 6.94635C17.1817 6.95186 17.9022 7.00426 18.6062 7.20832C20.2177 7.67435 21.1527 8.78841 21.601 10.3657C21.9365 11.5488 21.997 12.7648 21.9997 13.9837C22.0052 16.5538 21.9915 19.1266 21.9997 21.6967C21.9997 21.9366 21.9337 22 21.6972 22C20.3772 21.989 19.0545 21.989 17.7345 22C17.5007 22 17.4512 21.9311 17.4512 21.7105C17.4595 19.2645 17.4595 16.8185 17.4512 14.3698C17.4512 13.7576 17.41 13.1426 17.2395 12.547C16.9232 11.4495 16.1395 10.8897 14.9927 10.9504C13.4252 11.0331 12.6112 11.8107 12.4132 13.4074C12.3665 13.7879 12.3417 14.1712 12.3445 14.5545C12.3445 16.9343 12.3445 19.3141 12.35 21.6939C12.35 21.9311 12.2922 22 12.0502 22C10.7192 21.989 9.38823 21.989 8.05723 22C7.84273 22 7.78223 21.9448 7.78223 21.727C7.78773 17.017 7.78773 12.3043 7.78223 7.59438C7.78223 7.35998 7.85923 7.30759 8.07923 7.30759C9.34148 7.31586 10.6065 7.31862 11.8687 7.30759C12.1025 7.30759 12.1602 7.38204 12.1575 7.60265C12.1437 8.1652 12.152 8.72775 12.152 9.29305L12.1492 9.29029Z" fill="#FEFEFE"/>
<path id="Vector_2" d="M4.91186 14.6731C4.91186 17.0033 4.90911 19.3334 4.91736 21.6636C4.91736 21.9228 4.85411 22 4.58736 21.9972C3.26736 21.9835 1.94736 21.9862 0.624609 21.9972C0.412859 21.9972 0.349609 21.9449 0.349609 21.727C0.355109 17.0088 0.355109 12.2906 0.349609 7.56957C0.349609 7.37378 0.396359 7.30484 0.602609 7.30484C1.94186 7.31311 3.28111 7.31587 4.62036 7.30484C4.87886 7.30484 4.91186 7.40136 4.91186 7.62472C4.90636 9.97418 4.90911 12.3236 4.90911 14.6731H4.91186Z" fill="#FEFEFE"/>
<path id="Vector_3" d="M5.27452 2.63073C5.27452 4.09501 4.09202 5.28629 2.63452 5.28629C1.19902 5.28904 0.00551893 4.09501 1.89333e-05 2.65555C-0.00548107 1.19679 1.18802 0 2.64277 0C4.08652 0 5.27452 1.18852 5.27727 2.63073H5.27452Z" fill="#FEFEFE"/>
</g>
<defs>
<clipPath id="clip0_1682_10036">
<rect width="22" height="22" fill="white"/>
</clipPath>
</defs>
</svg>
