<svg width="22" height="22" viewBox="0 0 22 22" fill="none" xmlns="http://www.w3.org/2000/svg">
<g id="Linear / Map &#38; Location / Map">
<path id="Vector" d="M2.75 7.9836C2.75 6.63285 2.75 5.95748 3.10992 5.56357C3.23771 5.42371 3.39301 5.31177 3.5661 5.23477C4.05361 5.01789 4.69433 5.23146 5.97576 5.6586C6.95407 5.98471 7.44323 6.14776 7.93751 6.13088C8.11904 6.12468 8.29951 6.10051 8.47628 6.05873C8.95758 5.94496 9.3866 5.65895 10.2446 5.08692L11.5118 4.24214C12.6109 3.5094 13.1605 3.14303 13.7913 3.05855C14.4222 2.97407 15.0487 3.18293 16.3019 3.60066L17.3696 3.95656C18.2772 4.25907 18.7309 4.41032 18.9905 4.77042C19.25 5.13051 19.25 5.60882 19.25 6.56544V14.0164C19.25 15.3672 19.25 16.0426 18.8901 16.4365C18.7623 16.5763 18.607 16.6883 18.4339 16.7653C17.9464 16.9821 17.3057 16.7686 16.0242 16.3414C15.0459 16.0153 14.5568 15.8523 14.0625 15.8691C13.881 15.8753 13.7005 15.8995 13.5237 15.9413C13.0424 16.0551 12.6134 16.3411 11.7554 16.9131L10.4882 17.7579C9.38907 18.4906 8.83952 18.857 8.20868 18.9415C7.57785 19.026 6.95126 18.8171 5.69808 18.3994L4.63037 18.0435C3.72285 17.741 3.26908 17.5897 3.00954 17.2296C2.75 16.8695 2.75 16.3912 2.75 15.4346V7.9836Z" stroke="white" stroke-width="1.5"/>
<path id="Vector_2" d="M8.25 6.08545V18.7917" stroke="white" stroke-width="1.5"/>
<path id="Vector_3" d="M13.75 2.75V15.5833" stroke="white" stroke-width="1.5"/>
</g>
</svg>
