<svg width="58" height="42" viewBox="0 0 58 42" fill="none" xmlns="http://www.w3.org/2000/svg">
<path d="M29.0195 4.74609C27.2227 5.52734 25.1719 6.60156 22.8672 7.96875C20.6016 9.29688 18.7852 10.5859 17.418 11.8359C15.8555 13.2422 14.4297 14.8242 13.1406 16.582C11.8906 18.3398 10.9141 20.3516 10.2109 22.6172H13.4922C16.8906 22.6172 19.4297 23.2617 21.1094 24.5508C22.7891 25.8398 23.6289 27.6367 23.6289 29.9414C23.6289 32.9102 22.3789 35.625 19.8789 38.0859C17.3789 40.5078 14.4102 41.7188 10.9727 41.7188C7.33984 41.7188 4.70312 40.7422 3.0625 38.7891C1.46094 36.7969 0.660156 34.2383 0.660156 31.1133C0.660156 24.9805 3.23828 19.1016 8.39453 13.4766C13.5898 7.85156 19.918 3.55469 27.3789 0.585938L29.0195 4.74609ZM57.9062 4.74609C56.1094 5.52734 54.0586 6.60156 51.7539 7.96875C49.4883 9.29688 47.6719 10.5859 46.3047 11.8359C44.7422 13.2422 43.3164 14.8242 42.0273 16.582C40.7773 18.3398 39.8008 20.3516 39.0977 22.6172H42.3789C45.7773 22.6172 48.3164 23.2617 49.9961 24.5508C51.6758 25.8398 52.5156 27.6367 52.5156 29.9414C52.5156 32.9102 51.2656 35.625 48.7656 38.0859C46.2656 40.5078 43.2969 41.7188 39.8594 41.7188C36.2266 41.7188 33.5898 40.7422 31.9492 38.7891C30.3477 36.7969 29.5469 34.2383 29.5469 31.1133C29.5469 24.9805 32.125 19.1016 37.2812 13.4766C42.4766 7.85156 48.8047 3.55469 56.2656 0.585938L57.9062 4.74609Z" fill="#DBE8ED"/>
</svg>
