<svg width="22" height="18" viewBox="0 0 22 18" fill="none" xmlns="http://www.w3.org/2000/svg">
<path id="Vector" d="M5.37745 10.3116L0.437295 8.73571C0.437295 8.73571 -0.153604 8.5005 0.0383634 7.96833C0.0773567 7.85955 0.155343 7.76546 0.392303 7.60375C1.48712 6.85401 20.6538 0.100472 20.6538 0.100472C20.6538 0.100472 21.1937 -0.0788776 21.5147 0.0416688C21.6617 0.0945916 21.7546 0.156335 21.8326 0.382727C21.8626 0.465051 21.8776 0.638521 21.8746 0.80905C21.8746 0.932536 21.8566 1.05014 21.8446 1.22949C21.7276 3.07591 18.2332 16.8564 18.2332 16.8564C18.2332 16.8564 18.0233 17.662 17.2764 17.6914C17.0035 17.7003 16.6705 17.6473 16.2746 17.3122C14.8048 16.0714 9.72371 12.7255 8.6019 11.9905C8.53891 11.9493 8.52091 11.8964 8.50891 11.8435C8.49392 11.767 8.5779 11.67 8.5779 11.67C8.5779 11.67 17.4234 3.96384 17.6573 3.1553C17.6753 3.09355 17.6064 3.06121 17.5134 3.08767C16.9255 3.29936 6.74222 9.60306 5.61741 10.2999C5.55142 10.341 5.36845 10.3146 5.36845 10.3146L5.37745 10.3116Z" fill="white"/>
</svg>
