<svg width="21" height="17" viewBox="0 0 21 17" fill="none" xmlns="http://www.w3.org/2000/svg">
<path id="Vector" d="M6.3883 17C14.0557 17 18.2486 10.461 18.2486 4.78873C18.2486 4.60197 18.244 4.41761 18.237 4.23324C19.0509 3.62747 19.7579 2.87085 20.3161 2.01127C19.5695 2.35366 18.7649 2.58352 17.9231 2.68648C18.7835 2.15493 19.444 1.31451 19.7556 0.313662C18.951 0.804507 18.0579 1.16366 17.1091 1.35521C16.3487 0.521972 15.2649 0 14.0673 0C11.765 0 9.89756 1.92268 9.89756 4.2907C9.89756 4.62831 9.93477 4.95394 10.0069 5.27C6.54179 5.09042 3.46973 3.38324 1.41394 0.785352C1.0558 1.41986 0.848828 2.15732 0.848828 2.94268C0.848828 4.43197 1.5837 5.74648 2.70462 6.51507C2.02091 6.49352 1.37905 6.29958 0.81627 5.97873C0.81627 5.99549 0.81627 6.01465 0.81627 6.0338C0.81627 8.11211 2.25346 9.84803 4.16042 10.2407C3.80926 10.3389 3.44182 10.3916 3.06276 10.3916C2.79532 10.3916 2.53253 10.3652 2.27904 10.3149C2.80927 12.0197 4.34879 13.26 6.17202 13.2959C4.74413 14.4476 2.9488 15.1324 0.995338 15.1324C0.658132 15.1324 0.327903 15.1132 0 15.0725C1.84417 16.2889 4.03484 17 6.3883 17Z" fill="white"/>
</svg>
